<svg xmlns="http://www.w3.org/2000/svg" width="400.351" height="474.3" viewBox="0 0 400.351 474.3">
  <g id="Grupo_1221" data-name="Grupo 1221" transform="translate(-120.102 -1354.812)">
    <path id="Trazado_6390" data-name="Trazado 6390" d="M482.534,1422.479c-.275-18.21-16.222-32.876-35.506-32.677a36.659,36.659,0,0,0-14.979,3.337c-17.761-17.083-41.57-29.37-67.917-35.837a85.738,85.738,0,0,0-39.572-.344c-26.407,6.062-50.169,18.532-67.821,35.942a36.717,36.717,0,0,0-14.82-3.1c-18.9-.01-34.866,14.838-35.132,32.686a32.093,32.093,0,0,0,9.86,23.519,28.211,28.211,0,0,1,8.637,20.238v.141a101.282,101.282,0,0,0,3.364,26.176,27.19,27.19,0,0,1-3.55,22.1,31.666,31.666,0,0,0-5.3,17.247c-.161,18.031,15.128,32.986,34.216,33.437a36.086,36.086,0,0,0,26.105-10.065c18.609,9.909,40.763,15.375,64.542,15.375s45.932-5.466,64.542-15.375a36.087,36.087,0,0,0,26.105,10.065c19.088-.451,34.377-15.406,34.217-33.437a31.667,31.667,0,0,0-5.3-17.247,27.187,27.187,0,0,1-3.549-22.1,101.28,101.28,0,0,0,3.363-26.176v-.141a28.267,28.267,0,0,1,8.655-20.255A32.093,32.093,0,0,0,482.534,1422.479Z" transform="translate(-24.384)" fill="#b3d8e3"/>
    <path id="Trazado_6391" data-name="Trazado 6391" d="M373.543,1369.33a78.566,78.566,0,0,0-36.169-.331c-51.006,11.663-91.3,49.348-91.3,100.53,0,57.184,49.087,95.768,109.64,95.768s109.639-38.585,109.639-95.768C465.352,1418.2,424.634,1381.852,373.543,1369.33Z" transform="translate(-35.435 -3.443)" fill="#8abed1"/>
    <path id="Trazado_6392" data-name="Trazado 6392" d="M460.837,1469.848c0,.351.006.7.006,1.054,0,54.831-47.068,91.83-105.13,91.83s-105.13-37-105.13-91.83q0-.627.009-1.251a92.189,92.189,0,0,0-4.518,28.739c0,57.183,49.087,95.768,109.64,95.768s109.639-38.585,109.639-95.768A90.66,90.66,0,0,0,460.837,1469.848Z" transform="translate(-35.435 -32.304)" opacity="0.02"/>
    <g id="Grupo_1202" data-name="Grupo 1202" transform="translate(212.695 1365.447)">
      <path id="Trazado_6393" data-name="Trazado 6393" d="M356.5,1564.178c-.843,0-1.7-.008-2.542-.024l.021-.985c.837.016,1.685.024,2.521.024.422,0,.857,0,1.286-.006l.01.985C357.361,1564.177,356.927,1564.176,356.5,1564.178Zm5.132-.094-.04-.984c1.266-.047,2.544-.112,3.8-.194l.072.982C364.193,1563.971,362.9,1564.037,361.628,1564.084Zm-11.509-.054c-1.276-.059-2.564-.136-3.83-.231l.083-.982c1.256.094,2.533.171,3.8.23Zm19.165-.445-.1-.98c1.258-.118,2.531-.256,3.781-.41l.135.977C371.835,1563.327,370.553,1563.466,369.284,1563.585Zm-26.815-.126c-1.268-.132-2.549-.283-3.808-.451l.146-.975c1.249.166,2.519.317,3.776.447Zm34.426-.811-.167-.973c1.246-.19,2.507-.4,3.747-.631l.2.967C379.423,1562.241,378.151,1562.455,376.894,1562.647Zm-42.025-.2c-1.259-.206-2.528-.433-3.772-.674l.21-.965c1.233.24,2.491.464,3.739.668Zm49.559-1.184-.231-.96c1.235-.266,2.48-.554,3.7-.855l.264.953C386.93,1560.7,385.675,1560.993,384.428,1561.262Zm-57.078-.277c-1.241-.28-2.492-.583-3.719-.9l.275-.95c1.216.315,2.457.615,3.685.893Zm64.5-1.562-.3-.944c1.211-.341,2.431-.7,3.628-1.082l.331.934C394.308,1558.711,393.076,1559.079,391.854,1559.422Zm-71.908-.355c-1.219-.356-2.446-.737-3.648-1.13l.342-.931c1.19.39,2.406.767,3.614,1.12Zm79.189-1.945-.364-.923c1.184-.417,2.376-.858,3.541-1.311l.4.911C401.534,1556.257,400.331,1556.7,399.135,1557.123Zm-86.442-.433c-1.19-.433-2.388-.891-3.559-1.362l.409-.906c1.16.467,2.347.921,3.525,1.35Zm93.541-2.33-.431-.9c1.151-.493,2.308-1.011,3.436-1.54l.464.883C408.565,1553.339,407.4,1553.863,406.235,1554.36Zm-100.607-.51c-1.156-.51-2.316-1.047-3.449-1.594l.475-.877c1.122.543,2.272,1.074,3.416,1.579Zm107.485-2.715-.5-.866c1.112-.569,2.225-1.164,3.31-1.768l.53.848C415.36,1549.959,414.235,1550.56,413.113,1551.135Zm-114.321-.588c-1.115-.588-2.232-1.2-3.319-1.825l.541-.842c1.076.617,2.181,1.225,3.286,1.807Zm120.934-3.1-.563-.829c1.069-.647,2.135-1.319,3.171-2l.6.808C421.884,1546.115,420.806,1546.794,419.726,1547.448Zm-127.5-.666c-1.067-.664-2.132-1.354-3.167-2.052l.607-.8c1.024.691,2.079,1.374,3.135,2.031Zm133.823-3.487-.627-.787c1.011-.719,2.02-1.465,3-2.219l.659.764C428.09,1541.814,427.071,1542.569,426.049,1543.3Zm-140.064-.722c-1.008-.736-2.012-1.5-2.985-2.268l.669-.755c.963.761,1.957,1.516,2.955,2.245Zm146.028-3.872-.691-.738c.949-.791,1.892-1.609,2.8-2.431l.72.712C433.925,1537.076,432.972,1537.9,432.013,1538.7Zm-151.9-.773c-.946-.808-1.885-1.644-2.792-2.483l.73-.7c.9.83,1.826,1.657,2.762,2.456Zm157.463-4.244-.75-.684c.878-.858,1.748-1.744,2.585-2.63l.779.656C439.339,1531.923,438.46,1532.818,437.571,1533.685Zm-162.943-.827c-.874-.877-1.741-1.781-2.576-2.689l.788-.646c.826.9,1.682,1.793,2.548,2.659Zm168.054-4.588-.806-.625c.8-.92,1.59-1.868,2.348-2.816l.832.593C444.29,1526.382,443.491,1527.34,442.683,1528.27Zm-173.089-.887c-.8-.941-1.584-1.91-2.339-2.88l.841-.583c.747.959,1.524,1.917,2.313,2.848Zm177.71-4.9-.857-.561c.716-.977,1.42-1.981,2.093-2.985l.881.527C448.741,1520.484,448.029,1521.5,447.3,1522.487Zm-182.262-.954c-.713-1-1.414-2.029-2.082-3.057l.889-.516c.661,1.016,1.353,2.033,2.058,3.023Zm186.366-5.17-.9-.492c.63-1.031,1.244-2.089,1.828-3.145l.925.456C452.666,1514.25,452.044,1515.32,451.408,1516.363Zm-190.395-1.025c-.623-1.054-1.231-2.135-1.808-3.213l.931-.444c.57,1.067,1.171,2.135,1.788,3.177Zm193.951-5.406-.944-.42c.536-1.077,1.057-2.18,1.546-3.277l.961.382C456.033,1507.728,455.507,1508.843,454.964,1509.932Zm-197.419-1.08c-.528-1.1-1.037-2.218-1.516-3.333l.967-.37c.474,1.1.978,2.212,1.5,3.3Zm200.4-5.607-.977-.344c.441-1.114.863-2.252,1.256-3.386l.991.306C458.818,1500.968,458.39,1502.12,457.945,1503.245Zm-203.286-1.116c-.429-1.131-.84-2.289-1.222-3.44l1-.294c.377,1.138.783,2.282,1.208,3.4Zm205.678-5.777-1-.269c.344-1.143.667-2.311.963-3.471l1.014.23C461.012,1494.016,460.684,1495.2,460.337,1496.352Zm-207.974-1.146c-.331-1.159-.642-2.344-.925-3.521l1.017-.219c.28,1.165.589,2.337.916,3.483Zm209.773-5.906-1.023-.193c.246-1.163.472-2.351.671-3.532l1.031.156C462.613,1486.924,462.385,1488.125,462.137,1489.3Zm-211.475-1.168c-.233-1.178-.445-2.382-.63-3.577l1.032-.143c.183,1.182.394,2.374.624,3.539Zm212.686-5.994-1.036-.118c.151-1.179.28-2.38.385-3.571l1.039.082C463.631,1479.735,463.5,1480.949,463.348,1482.139Zm-213.8-1.181c-.137-1.192-.252-2.407-.342-3.611l1.04-.07c.09,1.193.2,2.4.339,3.575Zm214.439-6.045-1.042-.046c.059-1.185.095-2.393.109-3.59l1.044.011C464.08,1472.5,464.043,1473.716,463.984,1474.913ZM249,1473.726c-.043-1.175-.065-2.372-.065-3.556v-.068h1.043v.068c0,1.173.022,2.358.065,3.522Zm214.024-6.04c-.032-1.195-.088-2.4-.165-3.586l1.041-.061c.079,1.2.135,2.416.168,3.623Zm-212.975-1.175-1.042-.036c.047-1.205.118-2.423.212-3.621l1.04.073C250.167,1464.112,250.1,1465.318,250.05,1466.511Zm212.5-5.988c-.126-1.189-.277-2.388-.451-3.564l1.034-.135c.175,1.187.328,2.4.455,3.6Zm-211.942-1.171-1.037-.109c.142-1.2.309-2.408.5-3.6l1.031.147C250.916,1456.969,250.75,1458.166,250.611,1459.352Zm210.9-5.937c-.222-1.174-.472-2.358-.742-3.52l1.019-.211c.273,1.174.525,2.371.75,3.557Zm-209.767-1.161-1.025-.183c.238-1.184.5-2.378.788-3.55l1.016.221C252.236,1449.9,251.974,1451.083,251.739,1452.254Zm208.136-5.847c-.32-1.153-.668-2.314-1.036-3.453l1-.287c.372,1.151.724,2.326,1.047,3.491Zm-206.432-1.146-1.007-.258c.334-1.162.7-2.334,1.079-3.481l.995.3C254.132,1442.952,253.774,1444.111,253.443,1445.26Zm204.215-5.717c-.416-1.123-.862-2.255-1.326-3.363l.97-.362c.469,1.12.92,2.264,1.34,3.4Zm-201.939-1.13-.982-.331c.429-1.134.888-2.275,1.363-3.392l.968.368C256.6,1436.162,256.144,1437.291,255.718,1438.413Zm199.142-5.551c-.51-1.09-1.052-2.186-1.609-3.258l.936-.434c.564,1.084,1.111,2.192,1.628,3.294Zm-196.305-1.107-.952-.4c.521-1.1,1.071-2.2,1.636-3.272l.934.438C259.615,1429.582,259.07,1430.672,258.555,1431.755Zm192.951-5.345c-.6-1.046-1.231-2.1-1.876-3.125l.9-.5c.652,1.038,1.29,2.1,1.9,3.159Zm-189.583-1.071-.916-.471c.608-1.055,1.247-2.114,1.9-3.147l.9.5C263.158,1423.248,262.525,1424.3,261.923,1425.339Zm185.705-5.106c-.683-1-1.4-2-2.124-2.976l.854-.566c.734.987,1.456,2,2.146,3.007Zm-181.821-1.054-.875-.535c.691-1.008,1.414-2.019,2.147-3l.854.566C267.206,1417.181,266.491,1418.181,265.807,1419.179Zm177.457-4.819c-.76-.944-1.552-1.891-2.353-2.815l.806-.625c.81.933,1.609,1.89,2.377,2.844Zm-173.088-1.054-.831-.6c.768-.957,1.569-1.915,2.378-2.849l.807.624C271.728,1411.409,270.936,1412.358,270.175,1413.305Zm168.276-4.493c-.831-.89-1.693-1.78-2.561-2.646l.758-.678c.877.875,1.747,1.774,2.586,2.673Zm-163.459-1.067-.783-.651c.842-.9,1.713-1.805,2.59-2.681l.758.676C276.689,1405.957,275.826,1406.851,274.992,1407.745Zm158.24-4.139c-.894-.832-1.819-1.664-2.749-2.472l.706-.724c.939.815,1.872,1.654,2.775,2.495Zm-153.011-1.087-.732-.7c.906-.844,1.842-1.687,2.784-2.506l.706.724C282.047,1400.848,281.119,1401.683,280.221,1402.519Zm147.427-3.767c-.951-.773-1.932-1.545-2.917-2.293l.655-.767c.993.755,1.983,1.534,2.942,2.314Zm-141.823-1.109-.68-.746c.965-.784,1.959-1.566,2.957-2.323l.654.767C287.767,1396.092,286.781,1396.867,285.825,1397.643Zm135.913-3.387c-1-.714-2.034-1.424-3.066-2.112l.6-.8c1.04.694,2.081,1.411,3.092,2.131Zm-129.972-1.125-.627-.788c1.018-.722,2.066-1.441,3.113-2.135l.6.806C293.813,1391.7,292.775,1392.414,291.766,1393.131Zm123.764-3.015c-1.051-.656-2.13-1.308-3.207-1.937l.548-.838c1.086.634,2.174,1.292,3.233,1.953Zm-117.523-1.125-.572-.824c1.064-.659,2.158-1.313,3.25-1.945l.545.84C300.146,1387.688,299.062,1388.337,298.007,1388.99Zm111.049-2.658c-1.091-.6-2.209-1.187-3.323-1.755l.5-.867c1.123.573,2.25,1.169,3.349,1.769Zm-104.541-1.1-.517-.855c1.106-.6,2.24-1.186,3.371-1.752l.489.87C306.737,1384.053,305.612,1384.638,304.515,1385.229Zm97.843-2.316c-1.125-.535-2.277-1.065-3.424-1.574l.443-.892c1.156.513,2.316,1.047,3.45,1.586Zm-91.1-1.064-.461-.883c1.144-.533,2.314-1.056,3.477-1.557l.433.9C313.552,1380.8,312.391,1381.322,311.256,1381.849Zm84.209-1.994c-1.151-.475-2.329-.943-3.5-1.391l.392-.913c1.18.451,2.366.922,3.526,1.4Zm-77.265-1-.4-.908c1.175-.467,2.375-.926,3.567-1.362l.377.919C320.557,1377.938,319.366,1378.392,318.2,1378.856Zm70.226-1.693c-1.179-.416-2.382-.824-3.575-1.212l.34-.932c1.2.391,2.413.8,3.6,1.222Zm-63.108-.912-.349-.929c1.2-.4,2.428-.8,3.645-1.166l.321.937C327.729,1375.461,326.512,1375.85,325.319,1376.251Zm55.926-1.425c-1.2-.358-2.424-.707-3.64-1.038l.288-.947c1.224.333,2.457.684,3.665,1.045Zm-48.66-.792-.293-.946c1.223-.337,2.47-.663,3.708-.969l.264.952C335.036,1373.374,333.8,1373.7,332.585,1374.033Zm41.347-1.2-.134-.032c-1.22-.3-2.464-.572-3.7-.811l.209-.964c1.251.242,2.512.518,3.749.821l.134.033Zm-33.965-.625-.227-.962c1.246-.262,2.518-.5,3.778-.7l.173.972C342.448,1371.722,341.2,1371.953,339.967,1372.212Zm26.4-.847c-1.246-.177-2.513-.327-3.766-.443l.1-.98c1.271.118,2.556.27,3.82.45Zm-18.918-.339-.118-.979c1.268-.136,2.559-.242,3.836-.314l.063.983C349.97,1370.788,348.7,1370.892,347.448,1371.026Zm11.367-.361c-1.26-.055-2.534-.078-3.794-.069l-.008-.985c1.278-.009,2.572.015,3.849.07Z" transform="translate(-248.936 -1369.61)" fill="#7da4b0"/>
    </g>
    <path id="Trazado_6394" data-name="Trazado 6394" d="M364.107,1376.223c-36.19.15-68.019,17.742-86.545,44.334l1.246.609c18.688-25.614,49.907-42.443,85.3-42.589,35.392.146,66.612,16.975,85.3,42.589l1.245-.609C432.125,1393.965,400.3,1376.373,364.107,1376.223Z" transform="translate(-44.293 -6.023)" fill="#7da4b0"/>
    <ellipse id="Elipse_528" data-name="Elipse 528" cx="76.455" cy="46.288" rx="76.455" ry="46.288" transform="translate(243.822 1380.566)" fill="#fff" opacity="0.23"/>
    <ellipse id="Elipse_529" data-name="Elipse 529" cx="40.816" cy="38.545" rx="40.816" ry="38.545" transform="translate(279.461 1424.186)" fill="#7da4b0"/>
    <ellipse id="Elipse_530" data-name="Elipse 530" cx="38.884" cy="36.72" rx="38.884" ry="36.72" transform="translate(281.394 1426.011)" fill="#bceaf2" opacity="0.23"/>
    <path id="Trazado_6395" data-name="Trazado 6395" d="M418.6,1492.841c0,15.907-12.691,29.016-29.034,30.789a35.226,35.226,0,0,1-7.571,0c-16.342-1.771-29.034-14.881-29.034-30.789,0-17.117,14.693-30.992,32.819-30.992S418.6,1475.724,418.6,1492.841Z" transform="translate(-65.503 -30.109)" fill="#7da4b0"/>
    <path id="Trazado_6396" data-name="Trazado 6396" d="M385.781,1493.478a33.217,33.217,0,0,1,28.228,15.178,29.558,29.558,0,0,0,4.592-15.816c0-17.117-14.694-30.993-32.819-30.993s-32.819,13.876-32.819,30.993a29.563,29.563,0,0,0,4.591,15.816A33.22,33.22,0,0,1,385.781,1493.478Z" transform="translate(-65.503 -30.109)" fill="#d5e5e5"/>
    <path id="Trazado_6397" data-name="Trazado 6397" d="M416.7,1494c0-15.485-13.293-28.038-29.69-28.038s-29.69,12.553-29.69,28.038c0,14.274,11.3,26.056,25.9,27.812v2.977a35.226,35.226,0,0,0,7.571,0v-2.977C405.4,1520.053,416.7,1508.271,416.7,1494Z" transform="translate(-66.728 -31.265)" fill="#d5e5e5"/>
    <g id="Grupo_1205" data-name="Grupo 1205" transform="translate(120.102 1388.494)">
      <g id="Grupo_1203" data-name="Grupo 1203" transform="translate(297.745)">
        <path id="Trazado_6398" data-name="Trazado 6398" d="M560.533,1427.532a3.318,3.318,0,0,0,3.706-2.8,3.22,3.22,0,0,0-2.969-3.5,3.318,3.318,0,0,0-3.706,2.8A3.22,3.22,0,0,0,560.533,1427.532Z" transform="translate(-540.898 -1407.172)" fill="#7da4b0"/>
        <path id="Trazado_6399" data-name="Trazado 6399" d="M537.373,1625.607a3.317,3.317,0,0,0,3.706-2.8,3.219,3.219,0,0,0-2.968-3.5,3.318,3.318,0,0,0-3.706,2.8A3.22,3.22,0,0,0,537.373,1625.607Z" transform="translate(-534.383 -1462.89)" fill="#7da4b0"/>
        <path id="Trazado_6400" data-name="Trazado 6400" d="M548.479,1575.287a57.066,57.066,0,0,1-10.487-12.379,1.542,1.542,0,0,1,.195-1.905l.024-.026a1.763,1.763,0,0,1,2.729.241c7.745,12.15,17.927,19.345,29.326,20.534,13.943,1.454,28.185-6.238,40.1-21.657,12.124-15.686,20.33-37.4,23.106-61.147s-.215-46.629-8.423-64.435c-8.069-17.5-20.191-27.944-34.134-29.4-11.4-1.188-23,3.735-33.363,14a1.761,1.761,0,0,1-2.719-.328l-.018-.029a1.543,1.543,0,0,1,.25-1.9,59.259,59.259,0,0,1,13.093-9.921,39.127,39.127,0,0,1,23.136-5.062,38.29,38.29,0,0,1,21.408,9.707c6.149,5.362,11.369,12.64,15.514,21.631a106.641,106.641,0,0,1,8.488,30.252,147.7,147.7,0,0,1-8.276,70.781,109.419,109.419,0,0,1-15.273,27.774c-6.122,7.921-12.9,13.948-20.137,17.914a39.127,39.127,0,0,1-23.136,5.062A38.286,38.286,0,0,1,548.479,1575.287Z" transform="translate(-535.33 -1401.678)" fill="#7da4b0"/>
      </g>
      <g id="Grupo_1204" data-name="Grupo 1204">
        <path id="Trazado_6401" data-name="Trazado 6401" d="M234.09,1427.532a3.318,3.318,0,0,1-3.706-2.8,3.22,3.22,0,0,1,2.969-3.5,3.319,3.319,0,0,1,3.706,2.8A3.22,3.22,0,0,1,234.09,1427.532Z" transform="translate(-151.118 -1407.172)" fill="#7da4b0"/>
        <ellipse id="Elipse_531" data-name="Elipse 531" cx="3.358" cy="3.171" rx="3.358" ry="3.171" transform="translate(95.89 156.395)" fill="#7da4b0"/>
        <path id="Trazado_6402" data-name="Trazado 6402" d="M209.56,1575.287a57.066,57.066,0,0,0,10.486-12.379,1.541,1.541,0,0,0-.195-1.905l-.024-.026a1.762,1.762,0,0,0-2.728.241c-7.745,12.15-17.927,19.345-29.326,20.534-13.943,1.454-28.185-6.238-40.1-21.657-12.124-15.686-20.33-37.4-23.106-61.147s.215-46.629,8.422-64.435c8.069-17.5,20.191-27.944,34.134-29.4,11.4-1.188,23,3.735,33.364,14a1.761,1.761,0,0,0,2.719-.328l.017-.029a1.542,1.542,0,0,0-.25-1.9,59.244,59.244,0,0,0-13.093-9.921,39.124,39.124,0,0,0-23.135-5.062,38.29,38.29,0,0,0-21.409,9.707c-6.149,5.362-11.368,12.64-15.513,21.631a106.593,106.593,0,0,0-8.488,30.252,147.7,147.7,0,0,0,8.276,70.781,109.418,109.418,0,0,0,15.272,27.774c6.122,7.921,12.9,13.948,20.137,17.914a39.125,39.125,0,0,0,23.135,5.062A38.29,38.29,0,0,0,209.56,1575.287Z" transform="translate(-120.102 -1401.678)" fill="#7da4b0"/>
      </g>
    </g>
    <g id="Grupo_1207" data-name="Grupo 1207" transform="translate(305.855 1533.404)" opacity="0.8">
      <g id="Grupo_1206" data-name="Grupo 1206" transform="translate(2.194 1.901)" opacity="0.8">
        <path id="Trazado_6403" data-name="Trazado 6403" d="M389.875,1606.178l.027,7.478-2.022.006-3.849-3.971.014,3.984-2.407.008-.027-7.478,2.022-.006,3.848,3.971-.014-3.984Z" transform="translate(-381.612 -1606.013)" fill="#3c3c3b"/>
        <path id="Trazado_6404" data-name="Trazado 6404" d="M402.041,1609.621c.009,2.607-1.859,4.1-4.613,4.107a5.5,5.5,0,0,1-2.546-.536l.888-1.52a3.018,3.018,0,0,0,1.6.38,1.944,1.944,0,0,0,2.177-1.738,3.23,3.23,0,0,1-1.946.551c-1.638.005-2.993-.919-3-2.351-.006-1.559,1.5-2.558,3.39-2.564C400.439,1605.941,402.032,1607.2,402.041,1609.621Zm-2.66-1.23c0-.555-.475-.938-1.22-.936-.694,0-1.177.367-1.175.954s.487.939,1.194.937S399.384,1608.957,399.382,1608.39Z" transform="translate(-385.267 -1605.949)" fill="#3c3c3b"/>
        <path id="Trazado_6405" data-name="Trazado 6405" d="M412.833,1611.178c.005,1.335-1.156,2.556-3.775,2.566a7.429,7.429,0,0,1-3.365-.727l.875-1.594a4.939,4.939,0,0,0,2.409.612c.832,0,1.389-.293,1.386-.795,0-.459-.362-.757-1.69-.753l-2.357.008.418-4.37,5.533-.018.006,1.634-3.5.011-.108,1.089h.583C411.819,1608.831,412.828,1609.853,412.833,1611.178Z" transform="translate(-388.386 -1605.993)" fill="#3c3c3b"/>
      </g>
      <path id="Trazado_6406" data-name="Trazado 6406" d="M378.6,1614.886l-.042-11.486,28.8-.1.043,11.486Zm.459-10.989.039,10.488,27.8-.092-.039-10.488Z" transform="translate(-378.559 -1603.304)" fill="#3c3c3b" opacity="0.8"/>
    </g>
    <g id="Grupo_1208" data-name="Grupo 1208" transform="translate(300.755 1518.702)">
      <rect id="Rectángulo_738" data-name="Rectángulo 738" width="28.769" height="2.948" transform="translate(5.138)" fill="#3c3c3b" opacity="0.1"/>
      <rect id="Rectángulo_739" data-name="Rectángulo 739" width="39.045" height="2.948" transform="translate(0 4.447)" fill="#3c3c3b" opacity="0.1"/>
      <rect id="Rectángulo_740" data-name="Rectángulo 740" width="39.045" height="2.948" transform="translate(0 8.895)" fill="#3c3c3b" opacity="0.1"/>
    </g>
    <path id="Trazado_6407" data-name="Trazado 6407" d="M490.252,1763.816c-.507-13.225-11.143-23.369-23.459-22.456l-27.014,2a43.489,43.489,0,0,1-29.968-9.062c-10.476-8.132-31.225-17.99-70.262-17.99s-59.786,9.858-70.262,17.99a43.49,43.49,0,0,1-29.968,9.062l-27.015-2c-12.315-.913-22.952,9.231-23.459,22.456-7.133,186.138,150.7,166.379,150.7,166.379S497.385,1949.954,490.252,1763.816Z" transform="translate(-19.272 -101.69)" fill="#b3d8e3"/>
    <g id="Grupo_1209" data-name="Grupo 1209" transform="translate(172.285 1617.783)">
      <path id="Trazado_6408" data-name="Trazado 6408" d="M353.489,1928.881c-2.009,0-4-.04-5.919-.119l.059-1.636c1.9.078,3.869.118,5.86.118Zm1.233,0-.011-1.637c1.931-.015,3.9-.067,5.862-.155l.064,1.636C358.661,1928.809,356.672,1928.861,354.723,1928.877Zm-25.405,0-.013-1.637c2-.019,3.974-.078,5.857-.176l.075,1.635C333.333,1928.8,331.342,1928.856,329.317,1928.875Zm-3.287-.005c-1.951-.023-3.941-.084-5.914-.18l.07-1.636c1.956.1,3.928.156,5.862.18Zm18.254-.287c-2.078-.143-3.231-.284-3.243-.285l-.339-.042-.343.042s-.64.079-1.836.179l-.119-1.632c1.15-.1,1.772-.172,1.777-.172l.519-.065.516.064c.012,0,1.123.137,3.164.278Zm19.636-.042-.092-1.635c1.943-.126,3.91-.289,5.846-.484l.144,1.629C367.863,1928.248,365.88,1928.413,363.92,1928.54Zm-47.086-.044c-1.963-.135-3.946-.308-5.9-.512l.15-1.629c1.933.2,3.9.375,5.844.508Zm56.252-.809-.172-1.626c1.943-.236,3.9-.51,5.814-.814l.223,1.619C377.02,1927.173,375.047,1927.449,373.086,1927.687Zm-65.415-.08c-1.959-.246-3.932-.53-5.864-.846l.23-1.618c1.915.313,3.87.594,5.811.838Zm74.529-1.292-.253-1.615c1.93-.348,3.869-.736,5.763-1.153l.307,1.6C386.1,1925.572,384.148,1925.964,382.2,1926.315Zm-83.637-.118c-1.948-.36-3.9-.76-5.812-1.189l.313-1.6c1.891.425,3.828.822,5.758,1.178Zm92.667-1.791-.338-1.6c1.91-.465,3.824-.972,5.689-1.506l.395,1.581C395.092,1923.426,393.159,1923.937,391.23,1924.406Zm-101.691-.157c-1.928-.479-3.859-1-5.74-1.548l.4-1.579c1.862.542,3.775,1.059,5.684,1.531Zm110.6-2.313-.427-1.572c1.881-.587,3.762-1.219,5.589-1.876l.486,1.552C403.944,1920.707,402.043,1921.344,400.143,1921.937Zm-119.507-.2c-1.9-.6-3.8-1.25-5.641-1.923l.492-1.549c1.824.666,3.7,1.306,5.581,1.9ZM408.9,1918.88l-.52-1.539c1.843-.715,3.68-1.478,5.461-2.265l.582,1.513C412.619,1917.386,410.761,1918.157,408.9,1918.88Zm-137-.241c-1.858-.732-3.713-1.512-5.513-2.319l.589-1.51c1.779.8,3.614,1.569,5.45,2.293Zm145.553-3.435-.617-1.5c1.788-.847,3.57-1.746,5.3-2.67l.682,1.465C421.06,1913.437,419.256,1914.346,417.447,1915.2Zm-154.085-.286c-1.808-.869-3.609-1.789-5.352-2.735l.69-1.461c1.721.934,3.5,1.843,5.287,2.7Zm162.37-4.035-.719-1.445c1.722-.985,3.434-2.023,5.088-3.086l.785,1.4C429.209,1908.833,427.475,1909.885,425.731,1910.883Zm-170.64-.338c-1.741-1.008-3.471-2.072-5.145-3.161l.793-1.4c1.652,1.075,3.361,2.125,5.078,3.121Zm178.594-4.645-.821-1.38c1.642-1.123,3.271-2.3,4.843-3.509l.888,1.332C437,1903.564,435.348,1904.761,433.684,1905.9Zm-186.53-.392c-1.66-1.151-3.306-2.359-4.894-3.591l.9-1.326c1.567,1.216,3.191,2.407,4.828,3.543Zm194.09-5.26-.924-1.3c1.55-1.264,3.082-2.585,4.555-3.926l.989,1.248C444.37,1897.627,442.816,1898.967,441.244,1900.248ZM239.62,1899.8c-1.564-1.291-3.111-2.642-4.6-4.015l1-1.24c1.468,1.353,2.993,2.685,4.535,3.958Zm208.722-5.863-1.023-1.215c1.441-1.4,2.863-2.852,4.227-4.328l1.085,1.153C451.246,1891.046,449.8,1892.524,448.341,1893.939Zm-215.786-.5c-1.452-1.425-2.887-2.912-4.263-4.419l1.091-1.145c1.356,1.486,2.77,2.952,4.2,4.357ZM454.913,1887l-1.117-1.116c1.321-1.521,2.622-3.1,3.864-4.7l1.173,1.048C457.573,1883.855,456.253,1885.459,454.913,1887Zm-228.888-.542c-1.33-1.551-2.64-3.164-3.892-4.8l1.179-1.04c1.233,1.608,2.524,3.2,3.836,4.727Zm234.88-6.977-1.2-1.009c1.192-1.631,2.362-3.327,3.478-5.039l1.251.938C463.3,1876.11,462.114,1877.829,460.906,1879.483Zm-240.823-.576c-1.2-1.662-2.375-3.389-3.5-5.131l1.256-.929c1.106,1.718,2.266,3.42,3.448,5.06Zm246.2-7.464-1.276-.9c1.058-1.73,2.094-3.524,3.077-5.331l1.319.825C468.4,1867.871,467.355,1869.69,466.282,1871.444Zm-251.522-.6c-1.063-1.761-2.1-3.586-3.09-5.423l1.323-.817c.974,1.813,2,3.612,3.049,5.35Zm256.259-7.881-1.34-.785c.925-1.815,1.826-3.692,2.676-5.577l1.374.713C472.869,1859.227,471.957,1861.127,471.02,1862.966Zm-260.952-.625c-.926-1.844-1.828-3.75-2.681-5.665l1.378-.705c.842,1.892,1.732,3.773,2.647,5.593Zm265.056-8.22-1.391-.674c.792-1.881,1.56-3.825,2.283-5.778l1.419.6C476.7,1850.25,475.926,1852.217,475.124,1854.121Zm-269.116-.649c-.793-1.91-1.561-3.881-2.283-5.859l1.422-.6c.714,1.955,1.473,3.9,2.256,5.79Zm272.6-8.491-1.432-.567c.666-1.938,1.309-3.935,1.907-5.935l1.454.5C479.935,1841,479.286,1843.019,478.612,1844.98Zm-276.047-.668c-.665-1.961-1.305-3.984-1.9-6.01l1.456-.494c.591,2.005,1.225,4.005,1.882,5.945Zm278.947-8.7-1.464-.465c.548-1.983,1.072-4.021,1.555-6.056l1.479.4C482.594,1831.548,482.066,1833.606,481.512,1835.61Zm-281.806-.681c-.545-2-1.064-4.062-1.545-6.125l1.481-.4c.477,2.042.991,4.082,1.529,6.063Zm284.153-8.86-1.487-.371c.436-2.01.848-4.078,1.225-6.145l1.5.313C484.715,1821.952,484.3,1824.039,483.859,1826.068Zm-286.462-.692c-.433-2.031-.841-4.12-1.213-6.207l1.5-.308c.369,2.069.774,4.138,1.2,6.151Zm288.3-8.974-1.5-.284c.333-2.035.643-4.124.92-6.209l1.511.231C486.342,1812.242,486.03,1814.349,485.694,1816.4Zm-290.1-.7c-.329-2.053-.635-4.16-.907-6.265l1.512-.225c.27,2.087.573,4.178.9,6.212Zm291.459-9.053-1.514-.2c.239-2.052.454-4.155.64-6.251l1.52.155C487.515,1802.462,487.3,1804.583,487.056,1806.65Zm-292.79-.7c-.234-2.065-.444-4.185-.626-6.3l1.521-.15c.18,2.1.389,4.205.621,6.254Zm293.72-9.1-1.522-.129c.152-2.061.282-4.173.384-6.279l1.524.086C488.27,1792.641,488.14,1794.769,487.986,1796.844Zm-294.62-.707c-.147-2.073-.272-4.2-.369-6.323l1.525-.081c.1,2.107.22,4.22.367,6.279Zm295.155-9.131-1.526-.062c.073-2.066.124-4.183.15-6.292l1.527.021C488.645,1782.8,488.594,1784.926,488.521,1787.005Zm-295.662-.709c-.068-2.081-.114-4.212-.135-6.332l1.527-.017c.021,2.107.066,4.224.134,6.291Zm295.835-9.141h-1.527v-.089c0-2.043-.022-4.132-.065-6.207l1.526-.037c.043,2.088.065,4.188.065,6.243Zm-294.457-.7-1.527,0c0-2.079.032-4.21.08-6.332l1.527.04C194.268,1772.265,194.242,1774.383,194.237,1776.45Zm292.774-9.088q-.033-1.053-.074-2.112a20.055,20.055,0,0,0-.551-3.967l1.477-.415a21.724,21.724,0,0,1,.6,4.314q.041,1.066.075,2.124Zm-292.6-.7-1.526-.06q.025-.707.052-1.417a21.68,21.68,0,0,1,.786-5.022l1.462.472a19.937,19.937,0,0,0-.722,4.618Q194.44,1765.956,194.415,1766.659Zm290.907-8.531a18.7,18.7,0,0,0-3.175-4.968l1.1-1.131a20.349,20.349,0,0,1,3.453,5.4Zm-288.965-.607-1.358-.747a20.272,20.272,0,0,1,3.633-5.266l1.066,1.172A18.637,18.637,0,0,0,196.358,1757.521Zm283.436-6.576a17,17,0,0,0-5.006-2.731l.464-1.559a18.453,18.453,0,0,1,5.445,2.97Zm-277.669-.39-.857-1.355a18.313,18.313,0,0,1,5.542-2.756l.41,1.577A16.85,16.85,0,0,0,202.125,1750.555Zm41.4-1.04c-1.117,0-2.249-.048-3.363-.131l-2.567-.191.106-1.634,2.567.19c1.081.081,2.178.124,3.263.127Zm195.018-.007-.025-1.637c.87-.015,1.75-.055,2.615-.12l3.223-.239.1,1.633-3.223.24C440.349,1749.45,439.442,1749.492,438.545,1749.508Zm-3.319-.055a47.852,47.852,0,0,1-5.941-.673l.249-1.615a46.526,46.526,0,0,0,5.765.653Zm-188.38-.039-.092-1.634a46.436,46.436,0,0,0,5.756-.735l.269,1.611A47.782,47.782,0,0,1,246.846,1749.414Zm-12.514-.463-5.875-.436.1-1.633,5.875.436Zm213.4-.049-.1-1.633,5.875-.436.106,1.634Zm-222.534-.63-5.875-.436.1-1.633,5.875.436Zm231.673-.048-.1-1.634,5.875-.436.106,1.634Zm-30.84-.142a47.265,47.265,0,0,1-5.727-1.835l.525-1.537a45.808,45.808,0,0,0,5.55,1.779Zm-170-.169-.368-1.588a45.782,45.782,0,0,0,5.527-1.859l.545,1.53A47.211,47.211,0,0,1,256.028,1747.914Zm-39.974-.318-2.9-.215a16.585,16.585,0,0,0-2.851.034l-.14-1.63a17.96,17.96,0,0,1,3.1-.037l2.9.216Zm249.951-.048-.1-1.634,2.248-.167a18.026,18.026,0,0,1,3.778.118l-.195,1.624a16.54,16.54,0,0,0-3.478-.108Zm-48.785-2.637a48.15,48.15,0,0,1-5.3-2.957l.785-1.4a46.7,46.7,0,0,0,5.139,2.865Zm-152.427-.3-.64-1.487a46.883,46.883,0,0,0,5.1-2.939l.8,1.392A48.346,48.346,0,0,1,264.794,1744.613Zm144.332-4.594q-.4-.294-.786-.6c-1.271-.986-2.641-1.95-4.074-2.863l.781-1.407c1.471.939,2.881,1.93,4.188,2.945q.378.294.761.579Zm-136.3-.414-.888-1.331.23-.178a56.5,56.5,0,0,1,4.763-3.307l.767,1.416a54.811,54.811,0,0,0-4.634,3.217Zm128.624-4.74c-1.662-.939-3.432-1.841-5.261-2.68l.6-1.5c1.866.856,3.674,1.777,5.372,2.737Zm-120.916-.323-.7-1.455c1.706-.942,3.521-1.845,5.394-2.684l.589,1.51C283.98,1732.737,282.2,1733.622,280.532,1734.543Zm112.652-3.66c-1.766-.723-3.623-1.41-5.519-2.043l.453-1.563c1.927.643,3.814,1.342,5.609,2.077Zm-104.355-.247-.534-1.534c1.8-.72,3.692-1.405,5.622-2.034l.445,1.567C292.462,1729.254,290.6,1729.927,288.83,1730.636Zm95.72-2.778c-1.829-.544-3.738-1.055-5.674-1.519l.333-1.6c1.961.47,3.9.988,5.749,1.539Zm-87.066-.186-.4-1.58c1.858-.539,3.795-1.045,5.757-1.5l.326,1.6C301.228,1726.641,299.316,1727.14,297.484,1727.673Zm78.211-2.05c-1.869-.395-3.809-.758-5.768-1.082l.232-1.619c1.979.327,3.941.7,5.83,1.094Zm-69.342-.134-.287-1.608c1.892-.389,3.856-.747,5.835-1.065l.226,1.62C310.166,1724.75,308.224,1725.1,306.352,1725.49Zm60.353-1.442c-1.894-.269-3.853-.509-5.823-.714l.147-1.629c1.988.206,3.964.448,5.875.72Zm-51.356-.091-.195-1.624c1.913-.262,3.89-.5,5.878-.7l.142,1.63C319.2,1723.463,317.244,1723.7,315.349,1723.957Zm42.288-.929c-1.909-.162-3.878-.3-5.853-.4l.075-1.635c1.989.1,3.974.241,5.9.4Zm-33.216-.054-.115-1.633c1.924-.155,3.909-.284,5.9-.382l.07,1.636C328.3,1722.691,326.33,1722.819,324.421,1722.973Zm24.107-.491c-1.917-.07-3.89-.114-5.867-.13l.012-1.637c1.989.017,3.977.061,5.906.131Zm-14.995-.023-.047-1.637c1.929-.063,3.916-.1,5.906-.113l.008,1.637C337.422,1722.359,335.448,1722.4,333.532,1722.459Z" transform="translate(-192.71 -1720.71)" fill="#7da4b0"/>
    </g>
    <g id="Grupo_1212" data-name="Grupo 1212" transform="translate(201.701 1702.171)">
      <g id="Grupo_1210" data-name="Grupo 1210" transform="translate(0 0)">
        <ellipse id="Elipse_532" data-name="Elipse 532" cx="28.225" cy="37.131" rx="28.225" ry="37.131" transform="translate(0 21.876) rotate(-22.801)" fill="#7da4b0"/>
        <ellipse id="Elipse_533" data-name="Elipse 533" cx="26.889" cy="35.373" rx="26.889" ry="35.373" transform="translate(1.913 22.979) rotate(-22.801)" fill="#bceaf2" opacity="0.23"/>
        <path id="Trazado_6409" data-name="Trazado 6409" d="M300.062,1877.956c7.059,13.558,5.314,29.258-3.637,36.6a17.853,17.853,0,0,1-2.166,1.524,17.453,17.453,0,0,1-2.345,1.177c-10.524,4.318-23.9-2.329-30.963-15.889-7.6-14.59-5-31.657,5.8-38.122S292.466,1863.367,300.062,1877.956Z" transform="translate(-240.096 -1844.493)" fill="#7da4b0"/>
        <path id="Trazado_6410" data-name="Trazado 6410" d="M280.788,1890.2c7.155-4.283,16.114-2.835,23.555,2.87a38.171,38.171,0,0,0-4.282-15.118c-7.6-14.59-22.509-21.177-33.31-14.713s-13.4,23.532-5.8,38.122a35.535,35.535,0,0,0,9.753,11.842C270.08,1903.422,273.633,1894.486,280.788,1890.2Z" transform="translate(-240.096 -1844.493)" fill="#d5e5e5"/>
        <path id="Trazado_6411" data-name="Trazado 6411" d="M299.089,1880.151c-6.872-13.2-20.362-19.158-30.133-13.31s-12.121,21.288-5.249,34.487c6.334,12.167,18.293,18.182,27.778,14.468l1.321,2.537a17.493,17.493,0,0,0,2.345-1.176,17.87,17.87,0,0,0,2.166-1.524L296,1913.1C303.921,1906.388,305.423,1892.317,299.089,1880.151Z" transform="translate(-240.989 -1845.572)" fill="#d5e5e5"/>
      </g>
      <g id="Grupo_1211" data-name="Grupo 1211" transform="translate(156.335 0)">
        <ellipse id="Elipse_534" data-name="Elipse 534" cx="37.131" cy="28.225" rx="37.131" ry="28.225" transform="translate(0 68.459) rotate(-67.199)" fill="#7da4b0"/>
        <ellipse id="Elipse_535" data-name="Elipse 535" cx="35.373" cy="26.889" rx="35.373" ry="26.889" transform="translate(1.913 67.356) rotate(-67.199)" fill="#bceaf2" opacity="0.23"/>
        <path id="Trazado_6412" data-name="Trazado 6412" d="M478.473,1877.956c-7.058,13.558-5.314,29.258,3.638,36.6a17.844,17.844,0,0,0,2.165,1.524,17.417,17.417,0,0,0,2.346,1.177c10.523,4.318,23.9-2.329,30.963-15.889,7.6-14.59,5-31.657-5.8-38.122S486.069,1863.367,478.473,1877.956Z" transform="translate(-457.62 -1844.493)" fill="#7da4b0"/>
        <path id="Trazado_6413" data-name="Trazado 6413" d="M497.774,1890.2c-7.155-4.283-16.114-2.835-23.555,2.87a38.159,38.159,0,0,1,4.283-15.118c7.6-14.59,22.508-21.177,33.309-14.713s13.4,23.532,5.8,38.122a35.544,35.544,0,0,1-9.754,11.842C508.483,1903.422,504.929,1894.486,497.774,1890.2Z" transform="translate(-457.648 -1844.493)" fill="#d5e5e5"/>
        <path id="Trazado_6414" data-name="Trazado 6414" d="M481.23,1880.151c6.871-13.2,20.363-19.158,30.134-13.31s12.121,21.288,5.249,34.487c-6.334,12.167-18.292,18.182-27.777,14.468l-1.321,2.537a17.458,17.458,0,0,1-2.346-1.176,17.861,17.861,0,0,1-2.165-1.524l1.321-2.537C476.4,1906.388,474.9,1892.317,481.23,1880.151Z" transform="translate(-458.513 -1845.572)" fill="#d5e5e5"/>
      </g>
    </g>
    <path id="Trazado_6415" data-name="Trazado 6415" d="M437.078,1754.57c-13.668-13.736-36.864-22.772-63.181-22.772s-49.513,9.036-63.182,22.772c16.624-10.347,38.811-16.666,63.182-16.666S420.454,1744.223,437.078,1754.57Z" transform="translate(-53.619 -106.046)" fill="#7da4b0"/>
    <ellipse id="Elipse_536" data-name="Elipse 536" cx="84.634" cy="40.801" rx="84.634" ry="40.801" transform="translate(235.644 1643.278)" fill="#fff" opacity="0.23"/>
    <path id="Trazado_6416" data-name="Trazado 6416" d="M489.824,1777.18c-10.8,152.534-150.275,135.076-150.275,135.076s-139.478,17.458-150.275-135.076a25.3,25.3,0,0,0-.428,3.758c-7.133,186.138,150.7,166.379,150.7,166.379s157.835,19.759,150.7-166.379A25.106,25.106,0,0,0,489.824,1777.18Z" transform="translate(-19.272 -118.812)" opacity="0.03"/>
    <g id="Grupo_1215" data-name="Grupo 1215" transform="translate(122.923 1646.82)">
      <g id="Grupo_1213" data-name="Grupo 1213" transform="translate(286.841)">
        <ellipse id="Elipse_537" data-name="Elipse 537" cx="2.962" cy="3.176" rx="2.962" ry="3.176" transform="translate(43.441 7.763)" fill="#7da4b0"/>
        <ellipse id="Elipse_538" data-name="Elipse 538" cx="2.962" cy="3.176" rx="2.962" ry="3.176" transform="translate(0 143.46)" fill="#7da4b0"/>
        <path id="Trazado_6417" data-name="Trazado 6417" d="M532.417,1923.5a58.227,58.227,0,0,1-6.5-14.271,1.678,1.678,0,0,1,.557-1.822l.026-.02a1.466,1.466,0,0,1,2.3.8c4.183,13.48,11.477,22.621,21.047,26.143,11.706,4.308,25.54-.261,38.954-12.865,13.645-12.821,25.15-32.348,32.4-54.982s9.35-45.621,5.926-64.725c-3.366-18.78-11.667-31.495-23.374-35.8-9.569-3.522-20.562-1.111-31.584,6.773a1.471,1.471,0,0,1-2.274-.883l-.009-.033a1.674,1.674,0,0,1,.6-1.8,51.262,51.262,0,0,1,13.3-6.986c7.4-2.5,14.449-2.551,20.952-.157s12.036,7.077,16.445,13.92c4.2,6.515,7.2,14.709,8.931,24.356a119.619,119.619,0,0,1,1.12,31.326,160.983,160.983,0,0,1-7.156,35.076,156.562,156.562,0,0,1-14.443,32.394,110.124,110.124,0,0,1-18.827,23.985c-6.891,6.475-13.956,10.963-21,13.34-7.4,2.5-14.449,2.551-20.952.157S536.827,1930.346,532.417,1923.5Z" transform="translate(-523.899 -1761.111)" fill="#7da4b0"/>
      </g>
      <g id="Grupo_1214" data-name="Grupo 1214">
        <ellipse id="Elipse_539" data-name="Elipse 539" cx="2.962" cy="3.176" rx="2.962" ry="3.176" transform="translate(58.502 7.763)" fill="#7da4b0"/>
        <path id="Trazado_6418" data-name="Trazado 6418" d="M269.794,1966.9a2.919,2.919,0,0,1-3.763-1.974,3.237,3.237,0,0,1,1.84-4.035,2.919,2.919,0,0,1,3.764,1.974A3.237,3.237,0,0,1,269.794,1966.9Z" transform="translate(-163.927 -1817.261)" fill="#7da4b0"/>
        <path id="Trazado_6419" data-name="Trazado 6419" d="M223.377,1923.5a58.254,58.254,0,0,0,6.5-14.271,1.68,1.68,0,0,0-.557-1.822l-.027-.02a1.466,1.466,0,0,0-2.3.8c-4.183,13.48-11.477,22.621-21.047,26.143-11.705,4.308-25.54-.261-38.953-12.865-13.645-12.821-25.151-32.348-32.4-54.982s-9.35-45.621-5.926-64.725c3.367-18.78,11.668-31.495,23.374-35.8,9.57-3.522,20.562-1.111,31.585,6.773a1.471,1.471,0,0,0,2.273-.883l.009-.033a1.674,1.674,0,0,0-.6-1.8,51.267,51.267,0,0,0-13.3-6.986c-7.4-2.5-14.449-2.551-20.952-.157s-12.036,7.077-16.445,13.92c-4.2,6.515-7.2,14.709-8.932,24.356a119.619,119.619,0,0,0-1.12,31.326,161.024,161.024,0,0,0,7.157,35.076,156.6,156.6,0,0,0,14.442,32.394,110.147,110.147,0,0,0,18.828,23.985c6.89,6.475,13.956,10.963,21,13.34,7.4,2.5,14.449,2.551,20.952.157S218.967,1930.346,223.377,1923.5Z" transform="translate(-124.026 -1761.111)" fill="#7da4b0"/>
      </g>
    </g>
    <g id="Grupo_1220" data-name="Grupo 1220" transform="translate(298.86 1736.248)">
      <g id="Grupo_1217" data-name="Grupo 1217" transform="translate(3.969)" opacity="0.8">
        <g id="Grupo_1216" data-name="Grupo 1216" transform="translate(2.671 2.588)" opacity="0.8">
          <path id="Trazado_6420" data-name="Trazado 6420" d="M388.051,1889.456l.033,10.259-2.444.009-4.651-5.449.018,5.466-2.909.011-.034-10.259,2.444-.009,4.651,5.449-.018-5.467Z" transform="translate(-378.065 -1889.231)" fill="#3c3c3b"/>
          <path id="Trazado_6421" data-name="Trazado 6421" d="M402.753,1894.18a5.2,5.2,0,0,1-5.574,5.635,5.975,5.975,0,0,1-3.076-.736l1.072-2.085a3.3,3.3,0,0,0,1.936.52,2.444,2.444,0,0,0,2.63-2.385,3.58,3.58,0,0,1-2.351.757,3.339,3.339,0,0,1-3.624-3.225c-.007-2.14,1.818-3.51,4.1-3.518C400.817,1889.132,402.742,1890.854,402.753,1894.18Zm-3.214-1.687a1.307,1.307,0,0,0-1.473-1.284,1.3,1.3,0,1,0,.024,2.594A1.321,1.321,0,0,0,399.539,1892.493Z" transform="translate(-382.482 -1889.143)" fill="#3c3c3b"/>
          <path id="Trazado_6422" data-name="Trazado 6422" d="M415.794,1896.316c.006,1.832-1.4,3.508-4.561,3.52a8.077,8.077,0,0,1-4.066-1l1.057-2.188a5.412,5.412,0,0,0,2.911.84c1,0,1.677-.4,1.675-1.091,0-.63-.438-1.039-2.042-1.033l-2.849.011.505-6,6.687-.026.007,2.242-4.228.016-.13,1.495.705,0C414.57,1893.1,415.789,1894.5,415.794,1896.316Z" transform="translate(-386.251 -1889.203)" fill="#3c3c3b"/>
        </g>
        <path id="Trazado_6423" data-name="Trazado 6423" d="M374.4,1901.392l-.052-15.718,34.845-.132.052,15.718Zm.593-15.078.047,14.432,33.56-.126-.047-14.433Z" transform="translate(-374.348 -1885.542)" fill="#3c3c3b" opacity="0.8"/>
      </g>
      <g id="Grupo_1218" data-name="Grupo 1218" transform="translate(1.895 38.311)">
        <rect id="Rectángulo_741" data-name="Rectángulo 741" width="28.769" height="3.348" transform="translate(5.138)" fill="#1c5161" opacity="0.1"/>
        <rect id="Rectángulo_742" data-name="Rectángulo 742" width="39.045" height="3.348" transform="translate(0 5.049)" fill="#3c3c3b" opacity="0.1"/>
        <rect id="Rectángulo_743" data-name="Rectángulo 743" width="39.045" height="3.348" transform="translate(0 10.099)" fill="#3c3c3b" opacity="0.1"/>
      </g>
      <g id="Grupo_1219" data-name="Grupo 1219" transform="translate(0 26.025)" opacity="0.5">
        <path id="Trazado_6424" data-name="Trazado 6424" d="M370.176,1927.965l-1.351-6.068h1.169l.853,4.168,1.035-4.168h1.359l.993,4.238.868-4.238h1.151l-1.375,6.068h-1.212l-1.128-4.537-1.123,4.537Z" transform="translate(-368.825 -1921.794)" fill="#1d1d1b"/>
        <path id="Trazado_6425" data-name="Trazado 6425" d="M384.793,1927.965H383.55l-.494-1.378h-2.262l-.467,1.378h-1.212l2.2-6.068h1.208Zm-2.1-2.4-.78-2.252-.765,2.252Z" transform="translate(-371.719 -1921.794)" fill="#1d1d1b"/>
        <path id="Trazado_6426" data-name="Trazado 6426" d="M388.414,1927.965V1921.9h2.4a3.865,3.865,0,0,1,1.319.163,1.33,1.33,0,0,1,.658.582,1.847,1.847,0,0,1,.247.957,1.689,1.689,0,0,1-.374,1.127,1.749,1.749,0,0,1-1.119.561,2.737,2.737,0,0,1,.612.509,6.879,6.879,0,0,1,.65.985l.691,1.184h-1.367l-.826-1.32a8.433,8.433,0,0,0-.6-.892.879.879,0,0,0-.343-.253,1.78,1.78,0,0,0-.576-.068h-.231v2.533Zm1.143-3.5h.845a4.075,4.075,0,0,0,1.027-.074.618.618,0,0,0,.321-.256.832.832,0,0,0,.116-.456.764.764,0,0,0-.152-.495.685.685,0,0,0-.431-.238q-.139-.02-.834-.021h-.892Z" transform="translate(-374.335 -1921.794)" fill="#1d1d1b"/>
        <path id="Trazado_6427" data-name="Trazado 6427" d="M396.919,1927.965V1921.9h1.112l2.316,4.052V1921.9h1.062v6.068h-1.146l-2.281-3.957v3.957Z" transform="translate(-376.728 -1921.794)" fill="#1d1d1b"/>
        <path id="Trazado_6428" data-name="Trazado 6428" d="M405.349,1927.965V1921.9h1.143v6.068Z" transform="translate(-379.099 -1921.794)" fill="#1d1d1b"/>
        <path id="Trazado_6429" data-name="Trazado 6429" d="M409.02,1927.965V1921.9h1.112l2.316,4.052V1921.9h1.062v6.068h-1.146l-2.281-3.957v3.957Z" transform="translate(-380.132 -1921.794)" fill="#1d1d1b"/>
        <path id="Trazado_6430" data-name="Trazado 6430" d="M420.055,1925.694v-1.023h2.463v2.418a3.072,3.072,0,0,1-1.04.656,3.568,3.568,0,0,1-1.381.284,2.931,2.931,0,0,1-1.548-.4,2.477,2.477,0,0,1-.992-1.142,3.918,3.918,0,0,1-.332-1.617,3.708,3.708,0,0,1,.37-1.685,2.591,2.591,0,0,1,1.085-1.13,2.764,2.764,0,0,1,1.355-.3,2.568,2.568,0,0,1,1.646.473,2.163,2.163,0,0,1,.763,1.31l-1.135.228a1.241,1.241,0,0,0-1.274-.964,1.5,1.5,0,0,0-1.192.509,2.247,2.247,0,0,0-.442,1.511,2.5,2.5,0,0,0,.448,1.621,1.452,1.452,0,0,0,1.174.54,1.854,1.854,0,0,0,.72-.151,2.453,2.453,0,0,0,.62-.366v-.77Z" transform="translate(-382.44 -1921.753)" fill="#1d1d1b"/>
        <path id="Trazado_6431" data-name="Trazado 6431" d="M427.076,1926.4l-.282-3.08V1921.9h1.174v1.424l-.278,3.08Zm-.236,1.565V1926.8h1.085v1.163Z" transform="translate(-385.132 -1921.794)" fill="#1d1d1b"/>
      </g>
    </g>
  </g>
</svg>
