<svg xmlns="http://www.w3.org/2000/svg" width="334" height="530.829" viewBox="0 0 334 530.829">
  <g id="Grupo_1692" data-name="Grupo 1692" transform="translate(-118 -684)">
    <g id="Grupo_1223" data-name="Grupo 1223" transform="translate(-147 -2126)">
      <path id="Trazado_6321" data-name="Trazado 6321" d="M2426.048,9.825c-5.76,0-11.617-1.35-15.665-3.612A24.786,24.786,0,0,1,2403.5.788l-.873-.9c-2.483-2.519-5.743-5.59-7.459-7.1a3.387,3.387,0,0,0-.482-.347,27.185,27.185,0,0,0-6.026-2.167c-.479-.131-.919-.252-1.3-.362a4.472,4.472,0,0,1-2.26-1.321,5.448,5.448,0,0,1-1.226-3.835c0-.452,0-.944,0-1.479l.011-1.983-.531-1.717-.137-.506v-.019c-.389-1.467-.754-2.915-1.105-4.353l-.3-1.263-.073-.262-.227-.971,2.675-.722-2.727.493-.091-.4,2.663-.76-2.724.5-.658-2.886.023-.008q-.413-1.93-.781-3.838l-.145-.787q-.367-1.922-.7-3.838l-.232-1.413q-.266-1.627-.512-3.258l-.212-1.447c-.167-1.166-.311-2.246-.451-3.329l-.191-1.514c-.144-1.159-.277-2.335-.4-3.517l-.14-1.265c-.167-1.6-.325-3.228-.471-4.881-3.219-36.526-4.155-59.984-5.078-87.469-.923,27.482-1.858,50.943-5.081,87.469-.143,1.622-.3,3.214-.462,4.793l-.171,1.554c-.116,1.057-.236,2.115-.362,3.164l-.222,1.765q-.191,1.48-.4,2.943l-.251,1.752q-.231,1.542-.485,3.07l-.251,1.536q-.379,2.216-.8,4.44l-.067.336q-.382,1.963-.805,3.931l.029.014-.6,2.578-.043-.006v.2l-.134.585-2.726-.5,2.674.715-.145.609-.051.184s-.324,1.393-.425,1.8c-.385,1.573-.786,3.161-1.216,4.772l-.5,1.861.01,1.854c0,.541,0,1.039,0,1.479a5.431,5.431,0,0,1-1.215,3.827,4.523,4.523,0,0,1-2.269,1.33c-.376.111-.818.231-1.295.362a27.18,27.18,0,0,0-6.03,2.168,3.593,3.593,0,0,0-.487.35c-1.74,1.534-5.007,4.611-7.453,7.1l-.877.9a24.8,24.8,0,0,1-6.874,5.418c-4.05,2.264-9.908,3.614-15.667,3.614-9.343,0-15.234-3.5-15.378-9.137-.009-.264-.017-.535-.018-.822l0-.194c0-.278.009-.571.03-.879.007-.108.021-.228.037-.35.036-.339.072-.621.129-.908.036-.173.076-.317.118-.461l2.7.634-2.659-.771a5,5,0,0,1,.184-.621l.017,0a2.913,2.913,0,0,1,.152-.41l.123-.274a23.278,23.278,0,0,1,5.361-8.108c2.653-2.576,5.274-4.735,7.81-6.822,1.259-1.035,2.473-2.034,3.651-3.052-.306-1.651-.585-3.3-.852-4.952l-.4-2.518-.337-2.223.029-.012a365.706,365.706,0,0,1-3.033-43.128c-.411-18.738-.849-34.1-1.238-47.66-1.425-49.826-2.155-75.3,1.728-154.643l-3.514,25.733c-.786,4.23-4.325,28.99-4.607,33.616l-.174,2.858-.145-.015a10.077,10.077,0,0,1,.039,1.472,38.325,38.325,0,0,0,.187,6.193c.091,1.011.178,1.967.177,2.868-.009,4.4-.25,6.413-1.034,8.618a5.667,5.667,0,0,1-5.172,3.777,5,5,0,0,1-1.783-.325,15.182,15.182,0,0,1-1.1,7.1c-.071.194-.137.367-.185.517a4.122,4.122,0,0,1-4.057,2.849c-5.038,0-13.346-7.87-17.783-16.842l-.116-.234-.068-.252a49.619,49.619,0,0,1-1.025-16.661c.061-.641.141-1.345.239-2.125l-.429-.041.35-2.824a5.515,5.515,0,0,1,.512-1.808,3.372,3.372,0,0,0,.184-1.242c-5.548-6.452-3.7-28.142-.068-61.927,5.436-50.618,16.739-82.734,33.6-95.563.618-.472,1.381-1,2.266-1.569,3.729-3.276,12.527-6.707,23.838-9.316a6.11,6.11,0,0,1,.278-.6,5.516,5.516,0,0,1,3.149-2.634,18.368,18.368,0,0,1-1.033-3.269c-1.234-5.649.274-10.987,3.556-13.451a51.384,51.384,0,0,0-.664-5.876c-2.121-12.134-1.965-29.1,4.838-40.342,5.3-8.769,15.107-14,26.221-14h.786c11.113,0,20.917,5.235,26.223,14,6.8,11.24,6.958,28.208,4.838,40.34a51.7,51.7,0,0,0-.664,5.877c3.281,2.464,4.792,7.8,3.556,13.451a18.608,18.608,0,0,1-1.074,3.366,5.5,5.5,0,0,1,3.261,2.687,5.97,5.97,0,0,1,.289.641c11.373,2.69,20,6.178,23.418,9.486.668.409,1.271.8,1.768,1.152,17.314,12.214,29.763,43.9,37,94.186,4.855,33.734,7.486,55.348,2.176,62a3.33,3.33,0,0,0,.228,1.231,5.581,5.581,0,0,1,.578,1.786l.454,2.811-.331.043c.126.764.232,1.461.32,2.1a49.685,49.685,0,0,1-.378,16.683l-.04.154c-2.7,9.071-8.83,13.863-17.732,13.863h0a39.587,39.587,0,0,1-7.613-.887l-.933-.176c-2.244-.4-3.881-2.47-4.065-5.152a6,6,0,0,1,.862-3.672,6.254,6.254,0,0,1-.5-.93l-.267-.65c-.742-1.771-1.036-2.795-1.192-6.544-.035-.9.014-1.86.068-2.874a38.669,38.669,0,0,0-.05-6.2,10.192,10.192,0,0,1-.017-1.541l-.261.035-.277-2.85c-.445-4.549-4.873-29.2-5.787-33.3l-8.242-47.5c-.15,5.666-.191,11.365-.125,17.148.618,12.336,1.125,23.386,1.545,33.681l.313,7.875c1.977,52.012,1.271,76.716.1,117.643-.387,13.555-.826,28.918-1.236,47.653a365.929,365.929,0,0,1-3.03,43.058l.025.008-.339,2.3-.381,2.381c-.306,1.905-.588,3.545-.871,5.062,1.191,1.028,2.416,2.035,3.687,3.081,2.536,2.088,5.158,4.245,7.81,6.822a23.252,23.252,0,0,1,5.36,8.1l.127.285a3.228,3.228,0,0,1,.151.4h.017a5.3,5.3,0,0,1,.181.614c.077.281.12.436.152.6.055.285.091.552.119.825.025.184.04.32.05.452.015.227.02.429.022.634l.01.439-.018.8C2441.285,6.323,2435.392,9.825,2426.048,9.825Z" transform="translate(-2006.858 3282.801)" fill="#7da4b0"/>
      <path id="Trazado_6322" data-name="Trazado 6322" d="M2469.849-222.871l.379-.05c-.242-1.5-.722-.527-.919-4.534,6.051-4.184,1.622-34.88-2.068-60.527-5.592-38.834-15.857-78.209-35.859-92.321-.525-.371-1.175-.787-1.9-1.223l0,0c-2.655-2.8-11.257-6.519-24.121-9.392a2.745,2.745,0,0,0-.3-1.622,2.761,2.761,0,0,0-3.513-1.24c-.262-.7-.5-1.406-.724-2.131a15.085,15.085,0,0,0,1.79-4.573c1.154-5.281-.491-10.165-3.69-11.28a56.076,56.076,0,0,1,.776-7.935c2.363-13.516,1.279-28.912-4.48-38.43-5.28-8.726-14.722-12.783-24.248-12.668-9.525-.115-18.968,3.942-24.247,12.668-5.76,9.517-6.843,24.914-4.48,38.43a56.293,56.293,0,0,1,.776,7.935c-3.2,1.115-4.844,6-3.69,11.28a15.078,15.078,0,0,0,1.789,4.573c-.207.678-.433,1.342-.675,2a2.756,2.756,0,0,0-3.494,1.234,2.752,2.752,0,0,0-.313,1.59c-12.8,2.785-21.5,6.409-24.562,9.227-.882.564-1.663,1.1-2.273,1.563-19.485,14.822-28.326,54.541-32.516,93.551-2.766,25.762-6.087,56.6.109,60.558-.05,4.012-.568,3.06-.754,4.569l.475.046c-.267,1.779-.488,3.442-.627,4.873a47.048,47.048,0,0,0,.937,15.652c5.446,11.012,15.55,17.924,16.729,14.354.552-1.677,2.636-5.6-.349-11.354a16.51,16.51,0,0,1-.6-12.156c1.07.335.735,3,2.871,6.233.285,1.741.617,5.089,1.364,6.417,1.505,2.666,4.184,1.792,4.978-.274.664-1.866.866-3.565.875-7.7,0-2.151-.61-4.971-.36-9.217a19.264,19.264,0,0,0-.595-4.407l.877.084c.295-4.823,3.9-29.915,4.628-33.823l8.474-62.058c.581,9.63.912,20.341.776,32.184-5.248,105.171-2.658,118.185-.719,206.759.314,14.406,1.019,29.67,3.327,45l-.015.006c.05.336.109.674.162,1.011.076.493.156.986.236,1.479.325,2.01.669,4.021,1.056,6.031.3-.112.573-.206.861-.311-4.189,3.862-8.758,7.094-13.331,11.535a21.294,21.294,0,0,0-4.891,7.536c-.042.093-.058.192-.093.288,0-.017-.005-.032-.007-.048-.054.144-.08.295-.121.443-.031.115-.069.227-.093.343-.04.2-.063.405-.086.607-.01.1-.029.206-.035.307-.018.245-.022.479-.023.708,0,.051,0,.1,0,.154,0,.275.009.535.016.765.2,7.814,18.178,8.066,26.928,3.178,3.618-2.026,4.475-3.141,7.128-5.843,2.467-2.506,5.77-5.621,7.6-7.237a6.4,6.4,0,0,1,.862-.627c2.248-1.384,6-2.243,7.994-2.828a1.731,1.731,0,0,0,1.021-.559c.3-.32.462-.812.473-1.978.007-.425.007-.9,0-1.429h-.012c-.02-1.169-.06-2.809-.118-4.6l.025.006.083.018.087.019.083.019.025,0,.087.019.062.017.083.018.087.019.087.018c.424-1.592.822-3.161,1.2-4.719.145-.595.278-1.184.416-1.775l.034-.145c.013-.035.024-.071.037-.105l.018-.084.034-.136.031-.134.032-.133.006-.028.025-.109.031-.133.032-.134.03-.133v-.01l.028-.127.032-.133.03-.133.028-.122,0-.012.032-.133.027-.137.032-.133-.01,0,.026-.115c.119-.533.244-1.069.358-1.6q.463-2.144.879-4.268l.066-.338q.424-2.194.794-4.383c.087-.5.166-1.011.248-1.515.164-1.007.326-2.017.477-3.027.086-.577.168-1.158.25-1.736q.2-1.444.393-2.905c.075-.58.15-1.162.22-1.746.125-1.038.245-2.086.36-3.138.056-.512.115-1.02.169-1.534.163-1.563.317-3.142.458-4.75,4.846-54.956,4.506-80.188,6.767-134.58.016-.244.04-.479.067-.706.007-.046.012-.093.018-.138a6.219,6.219,0,0,1,.115-.624c.007-.029.017-.055.024-.084a2.888,2.888,0,0,1,.16-.459c.011-.025.021-.053.033-.076a1.137,1.137,0,0,1,.243-.332.632.632,0,0,1,.408-.185.633.633,0,0,1,.4.181,1.153,1.153,0,0,1,.251.339c.009.019.017.043.026.062a2.831,2.831,0,0,1,.165.473c.008.028.017.053.024.082a6.21,6.21,0,0,1,.113.62c.009.05.014.1.021.151.028.226.052.457.066.7,2.261,54.392,1.921,79.624,6.764,134.58.146,1.638.3,3.247.468,4.841.044.419.093.833.138,1.249.126,1.168.259,2.331.4,3.481q.092.751.19,1.5.206,1.6.432,3.2c.073.508.146,1.018.221,1.525q.241,1.61.508,3.215c.076.465.151.933.23,1.4q.323,1.891.686,3.783c.049.26.093.52.144.782q.446,2.3.949,4.613c.073.339.156.683.231,1.022q.052.228.1.457l-.011,0,.032.133.031.137.015.075.012.058.032.134.03.133.032.133.016.062.015.075.03.133.031.134.032.133.012.05.018.087.031.133.031.134.032.136.01.035.021.1.034.137.03.134.032.136.006.022c.011.03.021.062.032.093l.026.112c.1.419.194.836.3,1.256q.56,2.3,1.181,4.636l0,.021.04.149.087-.018.083-.019.087-.018.074-.019.112-.025.071-.015.084-.019.083-.018.039-.01.025-.006c-.058,1.8-.1,3.438-.117,4.61h-.012c0,.524,0,1,0,1.429.016,1.166.18,1.659.478,1.978a1.719,1.719,0,0,0,1.021.559c1.994.585,5.746,1.444,7.993,2.828a6.284,6.284,0,0,1,.86.627c1.836,1.616,5.136,4.732,7.6,7.237,2.652,2.7,3.509,3.817,7.13,5.843,8.745,4.888,26.73,4.636,26.928-3.178.005-.221.013-.469.015-.735,0-.109-.005-.226-.007-.34,0-.178,0-.353-.017-.54-.009-.118-.029-.234-.042-.353-.021-.191-.042-.379-.081-.57-.023-.122-.063-.237-.1-.357-.04-.144-.065-.292-.118-.433,0,.017-.007.03-.007.047-.035-.094-.052-.194-.093-.286a21.327,21.327,0,0,0-4.891-7.536c-4.563-4.433-9.125-7.661-13.308-11.511.267.1.523.184.8.288.4-2.056.749-4.113,1.081-6.171q.1-.6.192-1.2c.06-.385.126-.768.184-1.151l-.018-.007c2.308-15.333,3.016-30.6,3.33-45,1.648-75.3,3.766-96,1.137-165.128h0c-.015-.39-.032-.793-.047-1.186-.021-.553-.042-1.107-.064-1.667-.04-1.034-.083-2.081-.124-3.137q-.007-.143-.011-.286c-.022-.531-.043-1.054-.063-1.592h0c-.416-10.151-.927-21.3-1.549-33.763-.183-15.883.474-29.734,1.451-41.658l.12.681,12.263,70.7c.865,3.88,5.371,28.824,5.84,33.633l.99-.131a19.528,19.528,0,0,0-.435,4.49c.412,4.232-.093,7.077-.006,9.223.17,4.124.5,4.379,1.237,6.218.871,2.034,3.585,2.8,4.983.084a16.212,16.212,0,0,0,1.052-5.028c2.01-3.319,1.572-5.965,2.63-6.339,2.181,5.7,1.392,9.237.465,10.494-.859,1.166-5.46,2.86-8.146,3.729-1.7.549-1.52,4.794.663,5.181,5.155.928,18.57,4.481,23.136-10.866a47.076,47.076,0,0,0,.329-15.677C2470.469-219.455,2470.184-221.106,2469.849-222.871Z" transform="translate(-2006.083 3283.568)" fill="#00a0a6"/>
      <g id="Grupo_1199" data-name="Grupo 1199" transform="translate(267.794 2812.767)">
        <path id="Trazado_6323" data-name="Trazado 6323" d="M2363.373-444.593c-1.323-2.118-2.017-3.637-4.417-4.407a34.01,34.01,0,0,0-20.67,0c-2.4.769-3.094,2.288-4.416,4.407-2.178,3.482-1.9,8.027-1.3,12a35.291,35.291,0,0,0,5.025,13.589h1.3c.089-9.443-.286-10.779,6.526-19.252,1.129-1.4,2.163-2.111,3.194-2.121,1.033.01,2.068.717,3.2,2.121,6.812,8.473,6.436,9.809,6.527,19.252h1.3a35.269,35.269,0,0,0,5.027-13.589C2365.27-436.566,2365.551-441.111,2363.373-444.593Z" transform="translate(-2251.528 478.546)" fill="#606060"/>
        <path id="Trazado_6324" data-name="Trazado 6324" d="M2414.809-317.25c-.072.017,2.258,10.529,2.41,11.323.893,4.6,5.054,20.643,6.2,29.064a47.039,47.039,0,0,1-.327,15.677c-4.566,15.348-17.981,11.795-23.136,10.866-2.183-.387-2.36-4.634-.663-5.181,2.686-.869,7.287-2.562,8.147-3.729.927-1.258,1.714-4.8-.465-10.494-1.058.376-.621,3.02-2.63,6.34a16.194,16.194,0,0,1-1.052,5.026c-1.4,2.72-4.112,1.951-4.984-.083-.739-1.839-1.067-2.093-1.238-6.218-.086-2.146.419-4.991.007-9.223-.41-4.2,4.369-19.356,3.632-24.2L2398.49-312.6c-.087-.555.407-1.1.469-1.544,1.01-7.117,7.53-.434,7.53-.434s4.691-.012,5.493.469S2414.809-317.25,2414.809-317.25Z" transform="translate(-2226.632 529.629)" fill="#88d5f5" fill-rule="evenodd"/>
        <path id="Trazado_6325" data-name="Trazado 6325" d="M2362.667-415.282c-9.44-.843-24.494-.206-29.512,0l-.146,5.508,4.119,2.845L2344.6-395l1.889,6.544,1.715,3.21,4.214-11.373,5.293-7.154,5.1-4.706Z" transform="translate(-2251.196 491.933)" fill="#d1967b" fill-rule="evenodd"/>
        <path id="Trazado_6326" data-name="Trazado 6326" d="M2345.9-415.68c-5.428.083-10.287.288-12.74.387l-.146,5.508,4.119,2.845.763,1.215c.325.145.667.279,1.02.4Z" transform="translate(-2251.196 491.943)" fill="#b37b68" fill-rule="evenodd"/>
        <path id="Trazado_6327" data-name="Trazado 6327" d="M2282.876-316.367c.071.015-1.848,10.609-1.97,11.406-.712,4.634-4.254,20.823-5.073,29.286a46.97,46.97,0,0,0,.937,15.652c5.446,11.012,15.55,17.924,16.729,14.354.552-1.677,2.635-5.6-.347-11.354a16.5,16.5,0,0,1-.6-12.156c1.069.335.735,3,2.871,6.233.285,1.741.617,5.089,1.364,6.417,1.505,2.666,4.184,1.792,4.978-.274.664-1.866.865-3.566.875-7.7,0-2.151-.61-4.971-.36-9.217.245-4.212-5.116-19.171-4.564-24.041l1.655-14.6c.062-.562-.45-1.083-.53-1.526-1.287-7.074-7.539-.143-7.539-.143s-4.691.167-5.47.679S2282.876-316.367,2282.876-316.367Z" transform="translate(-2273.222 529.769)" fill="#88d5f5" fill-rule="evenodd"/>
        <path id="Trazado_6328" data-name="Trazado 6328" d="M2374.763-150.846c-1.563.278-12.937,4.432-12.937,4.432s-6.437-1.111-6.377-1.526c.338-2.286-.037-11.468.087-13.177l19.634.115C2375.633-159.077,2376.429-151.148,2374.763-150.846Z" transform="translate(-2242.589 589.583)" fill="#6b6a6e" fill-rule="evenodd"/>
        <path id="Trazado_6329" data-name="Trazado 6329" d="M2355.844-153.371c-.022.008-.153,0-.19.105-.452,1.334-.855,14.839-.827,17.149.015,1.166.18,1.659.477,1.979a1.713,1.713,0,0,0,1.021.559c2.279.67,6.853,1.7,8.854,3.455,1.836,1.616,5.135,4.732,7.6,7.237,2.652,2.7,3.508,3.817,7.13,5.843,8.746,4.888,26.73,4.636,26.928-3.178a8.258,8.258,0,0,0-.443-3.567,21.345,21.345,0,0,0-4.891-7.536c-7.846-7.622-15.692-11.666-21.612-21.476-2.438-5.334-9.812-6.609-12.765-2.6-1.194,1.624-2.345,6.149-2.345,6.149-.995-.405-9.021-3.113-8.958-3.88Z" transform="translate(-2242.828 590.873)" fill="#d6d4de" fill-rule="evenodd"/>
        <path id="Trazado_6330" data-name="Trazado 6330" d="M2354.826-143.148c0,.524,0,1,0,1.429.015,1.166.18,1.659.477,1.979a1.693,1.693,0,0,0,1.021.555c2.279.674,6.853,1.7,8.854,3.459,1.836,1.616,5.135,4.732,7.6,7.237,2.652,2.7,3.507,3.817,7.13,5.843,8.746,4.888,26.73,4.636,26.928-3.178a8.868,8.868,0,0,0-.344-3.327c-.188,4.584-7.554,5.686-11.336,6.006a26.571,26.571,0,0,1-8.616-.692c-4.6-1.05-7.7-3.658-14.523-9.982-6.575-6.093-9.946-8.5-16.924-9.3C2355.006-143.133,2354.917-143.142,2354.826-143.148Z" transform="translate(-2242.828 596.476)" fill="#535353" fill-rule="evenodd"/>
        <path id="Trazado_6331" data-name="Trazado 6331" d="M2318.457-150.846c1.563.278,12.938,4.432,12.938,4.432s6.435-1.111,6.373-1.526c-.335-2.286.04-11.468-.086-13.177L2318.05-161C2317.588-159.077,2316.792-151.148,2318.457-150.846Z" transform="translate(-2257.164 589.583)" fill="#6b6a6e" fill-rule="evenodd"/>
        <path id="Trazado_6332" data-name="Trazado 6332" d="M2346.164-153.371c.025.008.152,0,.193.105.452,1.334.856,14.839.824,17.149-.012,1.166-.175,1.659-.474,1.979a1.721,1.721,0,0,1-1.02.559c-2.279.67-6.854,1.7-8.857,3.455-1.832,1.616-5.136,4.732-7.6,7.237-2.654,2.7-3.51,3.817-7.13,5.843-8.748,4.888-26.729,4.636-26.928-3.178a8.264,8.264,0,0,1,.444-3.567,21.3,21.3,0,0,1,4.891-7.536c7.846-7.622,15.688-11.666,21.612-21.476,2.437-5.334,9.81-6.609,12.761-2.6,1.2,1.624,2.348,6.149,2.348,6.149,1-.405,9.018-3.113,8.96-3.88Z" transform="translate(-2265.715 590.873)" fill="#d6d4de" fill-rule="evenodd"/>
        <path id="Trazado_6333" data-name="Trazado 6333" d="M2347.186-143.148c0,.524,0,1,0,1.429-.012,1.166-.176,1.659-.474,1.979a1.7,1.7,0,0,1-1.02.555c-2.279.674-6.854,1.7-8.858,3.459-1.832,1.616-5.135,4.732-7.6,7.237-2.654,2.7-3.51,3.817-7.129,5.843-8.748,4.888-26.729,4.636-26.928-3.178a8.882,8.882,0,0,1,.344-3.327c.19,4.584,7.554,5.686,11.338,6.006a26.578,26.578,0,0,0,8.615-.692c4.6-1.05,7.7-3.658,14.523-9.982,6.574-6.093,9.942-8.5,16.92-9.3C2347.006-143.133,2347.1-143.142,2347.186-143.148Z" transform="translate(-2265.716 596.476)" fill="#535353" fill-rule="evenodd"/>
        <path id="Trazado_6334" data-name="Trazado 6334" d="M2392.429-403.408c20,14.112,30.267,53.487,35.859,92.321,3.69,25.647,8.119,56.343,2.069,60.527.195,4.007.677,3.036.917,4.534l-26.462,3.51c-.469-4.809-4.975-29.754-5.84-33.633l-12.262-70.7-11.276-63.713C2379.816-410.529,2388.828-405.948,2392.429-403.408Z" transform="translate(-2234.923 493.906)" fill="#ebe9f4" fill-rule="evenodd"/>
        <path id="Trazado_6335" data-name="Trazado 6335" d="M2407.563-251.564l-4.252.564c-.469-4.809-4.975-29.753-5.84-33.633l-12.263-70.7-5.861-33.113,7.92.374Z" transform="translate(-2233.422 502.389)" fill="#d6d4de" fill-rule="evenodd"/>
        <path id="Trazado_6336" data-name="Trazado 6336" d="M2309.8-403.239c-19.485,14.822-28.327,54.541-32.516,93.551-2.766,25.762-6.088,56.6.109,60.558-.05,4.012-.568,3.06-.754,4.569l26.571,2.555c.295-4.823,3.9-29.915,4.627-33.823l9.709-71.093L2326.53-411C2322.151-410.81,2313.306-405.907,2309.8-403.239Z" transform="translate(-2273.877 493.738)" fill="#ebe9f4" fill-rule="evenodd"/>
        <path id="Trazado_6337" data-name="Trazado 6337" d="M2291.993-250.948l4.27.41c.295-4.823,3.9-29.915,4.627-33.823l9.709-71.093,4.669-33.3-7.9.657Z" transform="translate(-2266.928 502.27)" fill="#d6d4de" fill-rule="evenodd"/>
        <path id="Trazado_6338" data-name="Trazado 6338" d="M2307.08-304.015c-5.248,105.171-2.658,118.185-.719,206.759.372,17.076,1.267,35.357,4.766,53.53,11.5-4.335,16.548-3.582,34.79.562a223.966,223.966,0,0,0,6.829-39.768c4.846-54.956,4.507-80.188,6.768-134.58.092-1.366.337-2.575,1.069-2.605.731.03.977,1.24,1.069,2.605,2.261,54.392,1.92,79.624,6.764,134.58a224.237,224.237,0,0,0,6.832,39.768c18.241-4.144,23.287-4.9,34.788-.562,3.5-18.173,4.4-36.454,4.769-53.53,1.938-88.574,4.529-101.588-.722-206.759-.717-62.457,11.508-93.63,5.389-98.764-3.861-4.076-20.3-10.083-44.133-12.621-4.879,8.77-24.633,8.77-29.512,0-23.833,2.537-40.272,8.545-44.134,12.621C2295.574-397.645,2307.8-366.472,2307.08-304.015Z" transform="translate(-2263.867 492.05)" fill="#ebe9f4" fill-rule="evenodd"/>
        <path id="Trazado_6339" data-name="Trazado 6339" d="M2304.077-310.491q-.166,4.037-.31,7.868h110.72q-.145-3.833-.309-7.868Z" transform="translate(-2262.412 532.289)" fill="#00a0a6" fill-rule="evenodd"/>
        <g id="Grupo_1187" data-name="Grupo 1187" transform="translate(76.914 257.457)">
          <path id="Trazado_6340" data-name="Trazado 6340" d="M2344.053-270.094a3.916,3.916,0,0,1,.692,2.457c2.26,54.392,1.92,79.624,6.764,134.58a227.622,227.622,0,0,0,5.254,33.5,24.5,24.5,0,0,1,1.539,6.118l.04.149c1.839-.415,3.542-.8,5.133-1.147L2355.4-284.718Z" transform="translate(-2323.874 284.718)" fill="#d6d4de" fill-rule="evenodd"/>
          <path id="Trazado_6341" data-name="Trazado 6341" d="M2329.468-94.435c1.591.347,3.3.732,5.136,1.147l.037-.145a26.547,26.547,0,0,1,1.653-6.6,228.124,228.124,0,0,0,5.139-33.023c4.846-54.956,4.506-80.188,6.767-134.58a3.936,3.936,0,0,1,.687-2.457l-11.341-14.624Z" transform="translate(-2329.468 284.718)" fill="#d6d4de" fill-rule="evenodd"/>
        </g>
        <path id="Trazado_6342" data-name="Trazado 6342" d="M2306.983-152.058q.639,4.261,1.455,8.521l.537-.2h0l.523-.192h0l.519-.184h0l.508-.176h0l.5-.172h0l.494-.165h0l.487-.155h0l.48-.148h0l.475-.14h0l.469-.137h0l.465-.123h0l.462-.122h0c.152-.04.3-.077.455-.115h0c.152-.033.3-.071.452-.105h0c.149-.033.3-.065.447-.1h0l.447-.09h0l.447-.086h0l.44-.082h0c.149-.025.294-.046.444-.068h0c.146-.025.291-.047.437-.068h0c.145-.019.292-.042.437-.06h0c.15-.015.295-.035.44-.05h0l.441-.046h0q.222-.025.44-.037h0c.149-.012.295-.025.444-.035h0c.148-.01.293-.018.443-.025h0c.149-.01.3-.015.447-.018h0c.152-.007.3-.012.45-.012h0c.152-.007.3-.007.452-.01h.457c.15,0,.3,0,.458.007h0l.466.011h0l.468.019h0c.158.01.317.015.475.025h0c.16.01.32.018.48.03h0l.487.037h0l.494.043h0l.5.051h0l.508.053h0l.519.061h0l.524.069h0l.533.071h0l.542.077h0l.552.087h0l.56.087h0l.574.1h0l.584.1h0l.595.105h0l.612.115h0l.62.119h0l.635.123h0l.649.13h0l.664.134h0l.676.14h0l.692.145h0l.707.149h0l.724.158h0l.737.162h0l.757.166h0l.772.172h0l.792.177h0l.805.18h0l.829.188h0l.846.19h0c.788-2.962,1.5-5.855,2.14-8.708-17.6-5.563-30.21-3.532-38.1-.472C2307.17-152.123,2307.074-152.092,2306.983-152.058Z" transform="translate(-2261.178 591.861)" fill="#f6f5fb" fill-rule="evenodd"/>
        <path id="Trazado_6343" data-name="Trazado 6343" d="M2391.218-152.058q-.641,4.261-1.457,8.521l-.534-.2h0l-.524-.192h0l-.518-.184h0l-.509-.176h0l-.5-.172h0l-.493-.165h0l-.487-.155h0l-.481-.148h0l-.475-.14h0l-.468-.137h0l-.462-.123h0l-.462-.122h0c-.152-.04-.3-.077-.457-.115h0c-.151-.033-.3-.071-.452-.105h0l-.45-.1h0c-.148-.03-.3-.061-.447-.09h0l-.443-.086h0l-.44-.082h0c-.145-.025-.291-.046-.44-.068h0c-.145-.025-.294-.047-.439-.068h0c-.147-.019-.292-.042-.442-.06h0c-.145-.015-.291-.035-.44-.05h0l-.437-.046h0c-.148-.017-.294-.029-.442-.037h0c-.147-.012-.295-.025-.441-.035h0c-.145-.01-.295-.018-.444-.025h0c-.145-.01-.295-.015-.446-.018h0c-.149-.007-.3-.012-.447-.012h0c-.152-.007-.3-.007-.452-.01h-.457c-.153,0-.307,0-.459.007h0l-.462.011h0l-.47.019h0c-.156.01-.314.015-.476.025h0c-.157.01-.318.018-.48.03h0l-.487.037h0l-.493.043h0l-.5.051h0l-.509.053h0l-.518.061h0l-.524.069h0l-.533.071h0l-.544.077h0l-.555.087h0l-.564.087h0l-.574.1h0l-.585.1h0l-.6.105h0l-.61.115h0l-.62.119h0l-.634.123h0l-.647.13h0l-.66.134h0l-.677.14h0l-.69.145h0l-.708.149h0l-.719.158h0l-.742.162h0l-.753.166h0l-.772.172h0l-.788.177h0l-.81.18h0l-.827.188h0l-.844.19h0c-.791-2.962-1.5-5.855-2.143-8.708,17.6-5.563,30.213-3.532,38.1-.472C2391.032-152.123,2391.125-152.092,2391.218-152.058Z" transform="translate(-2243.593 591.861)" fill="#f6f5fb" fill-rule="evenodd"/>
        <path id="Trazado_6344" data-name="Trazado 6344" d="M2339.095-413.393v142.371h12.964V-413.393a19.173,19.173,0,0,1-6.482.783A19.152,19.152,0,0,1,2339.095-413.393Z" transform="translate(-2248.861 492.82)" fill="#00a0a6" fill-rule="evenodd"/>
        <path id="Trazado_6345" data-name="Trazado 6345" d="M2329.468-144.576l.075.015.077.018.073.015.075.017.034.01h0l.04.008.078.015.075.015.078.019.075.015.077.015.152.035.077.019.073.015.032.008h0l.046.01.078.015.156.035.077.018.078.019.337.075.056.008.077.019.082.018.077.019.32.071.08.019.08.018.019,0h0l.061.012.081.018.08.018.081.019.081.018.083.019.08.015.082.022.083.015.081.018.011,0h0l.072.018.083.015.081.019.083.018.085.022.083.018.084.019.083.018.084.018.083.019.007,0h0l.077.017.083.021.084.018.087.019.083.019.087.018.087.022.083.018.087.019.087.018h0l.005-.028.032-.118a26.547,26.547,0,0,1,1.653-6.6h0l.018-.084.034-.136.031-.134.03-.133.007-.028.025-.109.03-.133.032-.134.03-.133v-.01l.028-.127.031-.133.031-.133.028-.122,0-.012.032-.133.028-.137.031-.133c-2.383-.754-4.673-1.364-6.876-1.858Z" transform="translate(-2252.554 592.315)" fill="#e8e7ec" fill-rule="evenodd"/>
        <path id="Trazado_6346" data-name="Trazado 6346" d="M2352.831-152.137l.03.133.032.137.015.075.012.058.031.134.032.133.03.133.017.062.015.075.031.133.032.134.03.133.012.05.018.087.032.133.031.134.032.136.008.035.022.1.034.136.031.134.03.136.007.022h0a24.519,24.519,0,0,1,1.539,6.118l.04.149.088-.018.083-.019.087-.018.087-.022.083-.018.087-.019.083-.019.084-.018.087-.021.075-.017h0l.008,0,.084-.019.083-.018.084-.018.083-.019.084-.018.083-.022.084-.018.08-.019.085-.015.067-.018h0l.012,0,.084-.018.08-.015.083-.022.08-.015.082-.019.083-.018.082-.019.08-.018.08-.018.063-.012h0l.019,0,.08-.018.08-.019.08-.018.078-.019.082-.018.08-.015.077-.019.08-.018.078-.019.054-.008h0l.023-.007.079-.018.155-.035.081-.015.077-.019.078-.018.077-.015.077-.019.075-.015.049-.01h0l.028-.008.077-.015.078-.019.075-.015.077-.019.078-.015.075-.015.077-.019.075-.015.078-.015.036-.008h0l.038-.01.075-.017.074-.015.074-.018.075-.015-.4-9.419C2357.507-153.5,2355.216-152.891,2352.831-152.137Z" transform="translate(-2243.593 592.315)" fill="#e8e7ec" fill-rule="evenodd"/>
        <rect id="Rectángulo_729" data-name="Rectángulo 729" width="28.218" height="16.683" transform="translate(110.503 139.344)" fill="#fff"/>
        <path id="Trazado_6347" data-name="Trazado 6347" d="M2365.811-375h-2.925v6.8h2.925Z" transform="translate(-2239.736 507.546)" fill="#a5c8ce" fill-rule="evenodd"/>
        <g id="Grupo_1188" data-name="Grupo 1188" transform="translate(112.358 150.47)">
          <rect id="Rectángulo_730" data-name="Rectángulo 730" width="21.55" height="0.772" transform="translate(1.479 1.52)" fill="#00a0a6"/>
          <rect id="Rectángulo_731" data-name="Rectángulo 731" width="24.509" height="0.772" fill="#00a0a6"/>
          <rect id="Rectángulo_732" data-name="Rectángulo 732" width="18.641" height="0.772" transform="translate(2.934 3.039)" fill="#00a0a6"/>
        </g>
        <rect id="Rectángulo_733" data-name="Rectángulo 733" width="23.095" height="4.562" transform="translate(113.065 141.736)" fill="#00a0a6"/>
        <rect id="Rectángulo_734" data-name="Rectángulo 734" width="26.944" height="5.246" transform="translate(111.139 130.043)" fill="#fff"/>
        <rect id="Rectángulo_735" data-name="Rectángulo 735" width="26.944" height="5.246" transform="translate(55.344 130.043)" fill="#fff"/>
        <g id="Grupo_1198" data-name="Grupo 1198" transform="translate(59.404)">
          <path id="Trazado_6348" data-name="Trazado 6348" d="M2327-436.218a119.738,119.738,0,0,0,1.522,16.7l2.549-.559a5.82,5.82,0,0,1,4.313.725,10.24,10.24,0,0,1,3.206,3.026l1.075.109a35.175,35.175,0,0,1-5.12-13.735c-.6-3.968-.88-8.513,1.3-12,1.322-2.118,2.017-3.637,4.416-4.407a34.015,34.015,0,0,1,20.672,0c2.4.769,3.092,2.288,4.415,4.407,2.178,3.482,1.9,8.027,1.3,12a35.118,35.118,0,0,1-5.124,13.737l1.124-.112a10.21,10.21,0,0,1,3.206-3.026,5.814,5.814,0,0,1,4.311-.725l2.551.559a119.813,119.813,0,0,0,1.522-16.7c-.039-5.127-.866-9.5-3.15-12.845a13.576,13.576,0,0,0-3.6-3.5c-4.3-2.935-10.57-4.4-16.867-4.4s-12.57,1.467-16.867,4.4a13.516,13.516,0,0,0-3.6,3.5C2327.865-445.717,2327.037-441.345,2327-436.218Z" transform="translate(-2312.906 476.108)" fill="#979797" fill-rule="evenodd"/>
          <path id="Trazado_6349" data-name="Trazado 6349" d="M2346.752-419.809l3.222.129,6.515-.647c-.158-10.72.589-11.745-6.542-20.616-1.129-1.4-2.164-2.111-3.2-2.121-1.032.01-2.065.717-3.195,2.121-7.13,8.871-6.384,9.9-6.541,20.616l6.514.647Z" transform="translate(-2309.063 481.439)" fill="#9b9b9b" fill-rule="evenodd"/>
          <g id="Grupo_1189" data-name="Grupo 1189" transform="translate(47.724 20.468)">
            <path id="Trazado_6350" data-name="Trazado 6350" d="M2351.306-416.491l1.79-.177v-38.77q-.875-.311-1.79-.569Z" transform="translate(-2351.306 456.007)" fill="#fff" fill-rule="evenodd"/>
            <path id="Trazado_6351" data-name="Trazado 6351" d="M2354.063-419.1a8.526,8.526,0,0,1,1.406-1.006,5.508,5.508,0,0,1,2.648-.836v-31.624c-.322-.26-.663-.512-1.014-.751a20.227,20.227,0,0,0-3.04-1.695Z" transform="translate(-2350.249 456.391)" fill="#fff" fill-rule="evenodd"/>
          </g>
          <path id="Trazado_6352" data-name="Trazado 6352" d="M2354.5-380.919c4.109-.563,7.968-1.378,10.615-.926,3.878.666,7.287,4.332,7.287,4.332.275-3.572-.39-10.046,3.471-10.688,3.913-.652,16.318,4.6,16.318,4.6-9.625-7.2-11-24.441-8.963-36.1,2.363-13.516,1.279-28.912-4.48-38.43-5.28-8.726-14.724-12.783-24.248-12.668-9.524-.115-18.967,3.942-24.247,12.668-5.76,9.517-6.843,24.914-4.48,38.43,2.04,11.661.661,28.905-8.963,36.1,0,0,12.405-5.253,16.315-4.6,3.863.642,3.2,7.116,3.475,10.688,0,0,3.407-3.666,7.284-4.332,2.648-.452,6.508.363,10.616.926Zm-22.995-31.966c-1.868-13.189-3.2-24.395,1.642-31.487,7.632-11.176,35.118-11.176,42.748,0,4.842,7.092,3.511,18.3,1.642,31.487l-3.7-.809h0l-.1-.024c-2.334-.51-4.809,1.027-6.564,3.74l-9.405.935-3.243-.13-3.244.13-9.406-.935c-1.753-2.713-4.228-4.25-6.563-3.74l-.1.024h0Z" transform="translate(-2316.812 470.801)" fill="#ebe9f4" fill-rule="evenodd"/>
          <g id="Grupo_1192" data-name="Grupo 1192" transform="translate(23.681 60.824)">
            <path id="Trazado_6353" data-name="Trazado 6353" d="M2334.1-410.487c4.849,3.3,7.345,5.076,13.837,4.925,6.492.151,8.989-1.626,13.837-4.925.141-.1.2-.2.155-.3-2.969-1.338-4.45-6.064-3.339-11.15a14.954,14.954,0,0,1,2-4.9l-9.407.935-3.243-.13-3.243.13-9.406-.935a14.99,14.99,0,0,1,2,4.9c1.113,5.086-.371,9.812-3.338,11.15C2333.9-410.691,2333.958-410.584,2334.1-410.487Z" transform="translate(-2333.928 426.839)" fill="#4a4a4a" fill-rule="evenodd"/>
            <g id="Grupo_1191" data-name="Grupo 1191" transform="translate(9.046 9.753)">
              <path id="Trazado_6354" data-name="Trazado 6354" d="M2345.166-419.107a4.016,4.016,0,0,1,4.017,4.016,4.018,4.018,0,0,1-4.017,4.018,4.017,4.017,0,0,1-4.016-4.018A4.016,4.016,0,0,1,2345.166-419.107Z" transform="translate(-2340.204 420.052)" fill="#333" fill-rule="evenodd"/>
              <path id="Trazado_6355" data-name="Trazado 6355" d="M2345.429-419.79a4.963,4.963,0,0,1,4.963,4.961,4.963,4.963,0,0,1-4.963,4.964,4.963,4.963,0,0,1-4.963-4.964A4.963,4.963,0,0,1,2345.429-419.79Z" transform="translate(-2340.466 419.79)" fill="#333" fill-rule="evenodd"/>
              <g id="Grupo_1190" data-name="Grupo 1190" transform="translate(0.946 0.945)">
                <path id="Trazado_6356" data-name="Trazado 6356" d="M2344.479-419.1l-.242,2.377h-.022a1.644,1.644,0,0,0-.341.036l-.244-2.377a3.879,3.879,0,0,1,.585-.043C2344.3-419.107,2344.394-419.1,2344.479-419.1Z" transform="translate(-2340.199 419.107)" fill="#666" fill-rule="evenodd"/>
                <path id="Trazado_6357" data-name="Trazado 6357" d="M2342.97-418.808l.977,2.178a1.678,1.678,0,0,0-.3.213l-1.4-1.937A3.862,3.862,0,0,1,2342.97-418.808Z" transform="translate(-2340.727 419.222)" fill="#666" fill-rule="evenodd"/>
                <path id="Trazado_6358" data-name="Trazado 6358" d="M2341.751-417.818l1.935,1.4a1.582,1.582,0,0,0-.151.331l-2.182-.977A3.8,3.8,0,0,1,2341.751-417.818Z" transform="translate(-2341.071 419.601)" fill="#666" fill-rule="evenodd"/>
                <path id="Trazado_6359" data-name="Trazado 6359" d="M2341.16-416.395l2.376.242,0,.022a1.708,1.708,0,0,0,.036.34l-2.377.243a4.054,4.054,0,0,1-.041-.584C2341.15-416.221,2341.153-416.308,2341.16-416.395Z" transform="translate(-2341.15 420.147)" fill="#666" fill-rule="evenodd"/>
                <path id="Trazado_6360" data-name="Trazado 6360" d="M2341.448-414.648l2.179-.98a1.631,1.631,0,0,0,.212.3l-1.937,1.4A4.12,4.12,0,0,1,2341.448-414.648Z" transform="translate(-2341.035 420.441)" fill="#666" fill-rule="evenodd"/>
                <path id="Trazado_6361" data-name="Trazado 6361" d="M2342.438-413.253l1.4-1.936a1.69,1.69,0,0,0,.329.149l-.977,2.18A4.074,4.074,0,0,1,2342.438-413.253Z" transform="translate(-2340.656 420.61)" fill="#666" fill-rule="evenodd"/>
                <path id="Trazado_6362" data-name="Trazado 6362" d="M2343.861-412.639l.244-2.376h.022a1.706,1.706,0,0,0,.339-.035l.245,2.377a4.068,4.068,0,0,1-.584.043C2344.038-412.629,2343.95-412.632,2343.861-412.639Z" transform="translate(-2340.11 420.663)" fill="#666" fill-rule="evenodd"/>
                <path id="Trazado_6363" data-name="Trazado 6363" d="M2345.605-412.935l-.975-2.181a1.637,1.637,0,0,0,.295-.212l1.4,1.938A4.063,4.063,0,0,1,2345.605-412.935Z" transform="translate(-2339.815 420.557)" fill="#666" fill-rule="evenodd"/>
                <path id="Trazado_6364" data-name="Trazado 6364" d="M2347-414.11l-1.936-1.4a1.67,1.67,0,0,0,.151-.329l2.182.977A4,4,0,0,1,2347-414.11Z" transform="translate(-2339.647 420.361)" fill="#666" fill-rule="evenodd"/>
                <path id="Trazado_6365" data-name="Trazado 6365" d="M2347.618-415.775l-2.376-.245v-.022a1.577,1.577,0,0,0-.036-.338l2.378-.245a3.875,3.875,0,0,1,.042.583C2347.627-415.953,2347.624-415.864,2347.618-415.775Z" transform="translate(-2339.594 420.059)" fill="#666" fill-rule="evenodd"/>
                <path id="Trazado_6366" data-name="Trazado 6366" d="M2347.321-417.287l-2.179.977a1.66,1.66,0,0,0-.212-.295l1.937-1.4A4.061,4.061,0,0,1,2347.321-417.287Z" transform="translate(-2339.7 419.53)" fill="#666" fill-rule="evenodd"/>
                <path id="Trazado_6367" data-name="Trazado 6367" d="M2346.147-418.507l-1.4,1.936a1.565,1.565,0,0,0-.332-.149l.978-2.182A4.14,4.14,0,0,1,2346.147-418.507Z" transform="translate(-2339.897 419.185)" fill="#666" fill-rule="evenodd"/>
              </g>
            </g>
          </g>
          <g id="Grupo_1195" data-name="Grupo 1195" transform="translate(5.68 56.987)">
            <g id="Grupo_1193" data-name="Grupo 1193">
              <path id="Trazado_6368" data-name="Trazado 6368" d="M2325.458-428.21c3.514-.768,7.347,3.1,8.559,8.643s-.656,10.659-4.171,11.425-7.348-3.1-8.559-8.643S2321.942-427.441,2325.458-428.21Z" transform="translate(-2320.917 430.113)" fill="#919191" fill-rule="evenodd"/>
              <path id="Trazado_6369" data-name="Trazado 6369" d="M2332.412-429.515c3.514-.769,7.348,3.1,8.559,8.643s-.658,10.659-4.173,11.427l-.1.021h0l-8,1.749v0c3.412-.885,5.208-5.93,4.014-11.389s-4.93-9.295-8.4-8.675v0l8-1.749h0Z" transform="translate(-2319.615 429.612)" fill="#3e3e3e" fill-rule="evenodd"/>
              <path id="Trazado_6370" data-name="Trazado 6370" d="M2331.1-408.572l-2.4.526v0c3.412-.885,5.208-5.93,4.014-11.389s-4.93-9.295-8.4-8.675v0l2.406-.526a7.788,7.788,0,0,1,3.1,2,14.489,14.489,0,0,1,3.611,7.03l.019.064v.036a14.432,14.432,0,0,1-.358,7.827A7.847,7.847,0,0,1,2331.1-408.572Z" transform="translate(-2319.615 429.985)" fill="#767676" fill-rule="evenodd"/>
            </g>
            <g id="Grupo_1194" data-name="Grupo 1194" transform="translate(42.294)">
              <path id="Trazado_6371" data-name="Trazado 6371" d="M2366.384-428.21c-3.516-.768-7.347,3.1-8.56,8.643s.657,10.659,4.173,11.425,7.347-3.1,8.559-8.643S2369.9-427.441,2366.384-428.21Z" transform="translate(-2349.197 430.113)" fill="#919191" fill-rule="evenodd"/>
              <path id="Trazado_6372" data-name="Trazado 6372" d="M2360.415-429.515c-3.516-.769-7.347,3.1-8.56,8.643s.658,10.659,4.173,11.427l.1.021h0l8,1.749v0c-3.413-.885-5.208-5.93-4.015-11.389s4.931-9.295,8.4-8.675v0l-8-1.749h0Z" transform="translate(-2351.486 429.612)" fill="#3e3e3e" fill-rule="evenodd"/>
              <path id="Trazado_6373" data-name="Trazado 6373" d="M2359.636-408.572l2.4.526v0c-3.413-.885-5.208-5.93-4.015-11.389s4.931-9.295,8.4-8.675v0l-2.406-.526a7.814,7.814,0,0,0-3.1,2,14.482,14.482,0,0,0-3.61,7.03l-.021.064v.036a14.455,14.455,0,0,0,.36,7.827A7.815,7.815,0,0,0,2359.636-408.572Z" transform="translate(-2349.399 429.985)" fill="#767676" fill-rule="evenodd"/>
            </g>
          </g>
          <path id="Trazado_6374" data-name="Trazado 6374" d="M2327.9-417.892c-1.866-13.187-3.2-24.391,1.644-31.483,7.632-11.176,35.118-11.176,42.748,0,4.843,7.092,3.511,18.3,1.642,31.487l-.007,0-3.716-.812h0l-.1-.023c-2.335-.511-4.812,1.027-6.564,3.743l-9.383.932-3.243-.13-3.244.13-9.405-.935-.032-.018c-1.754-2.7-4.222-4.232-6.552-3.722l-.1.023h0l-3.684.805Zm-.6-18.021a119.741,119.741,0,0,0,1.522,16.7l2.55-.559a5.819,5.819,0,0,1,4.313.725,10.24,10.24,0,0,1,3.206,3.026l8.819.879,3.166-.127h.086l3.166.127,8.819-.879a10.211,10.211,0,0,1,3.206-3.026,5.815,5.815,0,0,1,4.311-.725l2.551.559a119.812,119.812,0,0,0,1.522-16.7c-.039-5.127-.866-9.5-3.15-12.845a13.569,13.569,0,0,0-3.6-3.5c-4.3-2.934-10.57-4.4-16.867-4.4s-12.57,1.467-16.867,4.4a13.515,13.515,0,0,0-3.6,3.5C2328.169-445.413,2327.34-441.041,2327.3-435.913Z" transform="translate(-2313.208 475.804)" fill="#555" fill-rule="evenodd"/>
          <path id="Trazado_6375" data-name="Trazado 6375" d="M2340.721-457.493a41,41,0,0,1,9.265,0v1.1a39.909,39.909,0,0,0-4.632-.268,39.865,39.865,0,0,0-4.632.268Z" transform="translate(-2307.641 475.804)" fill="#e6e6e6" fill-rule="evenodd"/>
          <g id="Grupo_1197" data-name="Grupo 1197" transform="translate(30.866 54.526)">
            <path id="Trazado_6376" data-name="Trazado 6376" d="M2345.944-431.391a6.823,6.823,0,0,1,6.824,6.822,6.824,6.824,0,0,1-6.824,6.825,6.824,6.824,0,0,1-6.823-6.825A6.823,6.823,0,0,1,2345.944-431.391Z" transform="translate(-2339.121 431.391)" fill="#333" fill-rule="evenodd"/>
            <g id="Grupo_1196" data-name="Grupo 1196" transform="translate(1.508 1.507)">
              <path id="Trazado_6377" data-name="Trazado 6377" d="M2344.618-430.291l-.322,3.145h-.029a2.179,2.179,0,0,0-.448.047l-.325-3.146a5.5,5.5,0,0,1,.775-.057C2344.386-430.3,2344.5-430.3,2344.618-430.291Z" transform="translate(-2338.952 430.302)" fill="#666" fill-rule="evenodd"/>
              <path id="Trazado_6378" data-name="Trazado 6378" d="M2342.619-429.908l1.294,2.885a2.162,2.162,0,0,0-.392.281l-1.853-2.562A5.474,5.474,0,0,1,2342.619-429.908Z" transform="translate(-2339.652 430.453)" fill="#666" fill-rule="evenodd"/>
              <path id="Trazado_6379" data-name="Trazado 6379" d="M2341.005-428.6l2.561,1.851a2.235,2.235,0,0,0-.2.439l-2.888-1.295A5.383,5.383,0,0,1,2341.005-428.6Z" transform="translate(-2340.107 430.956)" fill="#666" fill-rule="evenodd"/>
              <path id="Trazado_6380" data-name="Trazado 6380" d="M2340.223-426.713l3.145.321,0,.029a2.185,2.185,0,0,0,.047.45l-3.146.325a5.307,5.307,0,0,1-.055-.775C2340.211-426.481,2340.213-426.6,2340.223-426.713Z" transform="translate(-2340.211 431.679)" fill="#666" fill-rule="evenodd"/>
              <path id="Trazado_6381" data-name="Trazado 6381" d="M2340.6-424.4l2.885-1.3a2.126,2.126,0,0,0,.281.393l-2.564,1.853A5.317,5.317,0,0,1,2340.6-424.4Z" transform="translate(-2340.06 432.068)" fill="#666" fill-rule="evenodd"/>
              <path id="Trazado_6382" data-name="Trazado 6382" d="M2341.916-422.556l1.851-2.562a2.24,2.24,0,0,0,.439.2l-1.293,2.887A5.326,5.326,0,0,1,2341.916-422.556Z" transform="translate(-2339.557 432.29)" fill="#666" fill-rule="evenodd"/>
              <path id="Trazado_6383" data-name="Trazado 6383" d="M2343.8-421.742l.322-3.142h.029a2.3,2.3,0,0,0,.449-.047l.324,3.146a5.283,5.283,0,0,1-.772.055C2344.034-421.729,2343.915-421.732,2343.8-421.742Z" transform="translate(-2338.834 432.362)" fill="#666" fill-rule="evenodd"/>
              <path id="Trazado_6384" data-name="Trazado 6384" d="M2346.111-422.133l-1.3-2.885a2.106,2.106,0,0,0,.39-.282l1.854,2.565A5.357,5.357,0,0,1,2346.111-422.133Z" transform="translate(-2338.444 432.221)" fill="#666" fill-rule="evenodd"/>
              <path id="Trazado_6385" data-name="Trazado 6385" d="M2347.958-423.687l-2.563-1.853a2.061,2.061,0,0,0,.2-.437l2.888,1.294A5.377,5.377,0,0,1,2347.958-423.687Z" transform="translate(-2338.222 431.961)" fill="#666" fill-rule="evenodd"/>
              <path id="Trazado_6386" data-name="Trazado 6386" d="M2348.773-425.893l-3.146-.322v-.03a2.1,2.1,0,0,0-.047-.45l3.147-.322a5.458,5.458,0,0,1,.056.772C2348.784-426.128,2348.78-426.008,2348.773-425.893Z" transform="translate(-2338.151 431.562)" fill="#666" fill-rule="evenodd"/>
              <path id="Trazado_6387" data-name="Trazado 6387" d="M2348.378-427.895l-2.883,1.294a2.241,2.241,0,0,0-.281-.389l2.562-1.854A5.389,5.389,0,0,1,2348.378-427.895Z" transform="translate(-2338.292 430.861)" fill="#666" fill-rule="evenodd"/>
              <path id="Trazado_6388" data-name="Trazado 6388" d="M2346.824-429.508l-1.849,2.562a2.141,2.141,0,0,0-.439-.2l1.292-2.888A5.161,5.161,0,0,1,2346.824-429.508Z" transform="translate(-2338.552 430.406)" fill="#666" fill-rule="evenodd"/>
            </g>
          </g>
        </g>
        <path id="Trazado_6389" data-name="Trazado 6389" d="M2321.227-413.393l6.944,3.726a52.475,52.475,0,0,0,24.459,6.438H2353a52.478,52.478,0,0,0,24.493-6.337l6.964-3.7" transform="translate(-2255.715 492.82)" fill="none" stroke="#00a0a6" stroke-linecap="round" stroke-miterlimit="10" stroke-width="4" fill-rule="evenodd"/>
      </g>
    </g>
    <g id="Grupo_1443" data-name="Grupo 1443" transform="translate(-37.375 -2126)">
      <path id="Trazado_6321-2" data-name="Trazado 6321" d="M2441.448,58.028c-6.335,0-12.777-1.485-17.229-3.973a27.258,27.258,0,0,1-7.567-5.967l-.96-.986c-2.731-2.771-6.316-6.148-8.2-7.808a3.715,3.715,0,0,0-.53-.382,29.9,29.9,0,0,0-6.628-2.383c-.526-.145-1.011-.277-1.426-.4a4.917,4.917,0,0,1-2.485-1.453,5.99,5.99,0,0,1-1.348-4.218c0-.5,0-1.038,0-1.627l.012-2.181-.584-1.888-.15-.557v-.021c-.428-1.613-.83-3.206-1.216-4.787l-.328-1.389-.081-.288-.25-1.068,2.942-.794-3,.542-.1-.443,2.929-.835-3,.545-.724-3.174.025-.009q-.454-2.123-.859-4.221l-.16-.866q-.4-2.114-.768-4.221l-.255-1.554q-.292-1.79-.563-3.584l-.233-1.592c-.184-1.283-.342-2.47-.5-3.661l-.21-1.665c-.158-1.275-.3-2.569-.444-3.868l-.154-1.391c-.184-1.765-.357-3.55-.519-5.369-3.541-40.174-4.57-65.975-5.585-96.2-1.015,30.226-2.043,56.031-5.588,96.2-.157,1.783-.327,3.535-.508,5.271l-.187,1.709c-.127,1.163-.26,2.327-.4,3.48l-.245,1.942q-.21,1.627-.438,3.237l-.277,1.927q-.253,1.7-.533,3.377l-.277,1.689q-.416,2.438-.884,4.883l-.073.37q-.42,2.159-.886,4.323l.032.015-.656,2.835-.047-.006v.216l-.147.644-3-.545,2.941.787-.16.67-.056.2s-.356,1.532-.467,1.981c-.423,1.73-.864,3.477-1.337,5.249l-.545,2.047.011,2.039c0,.6,0,1.143,0,1.627a5.972,5.972,0,0,1-1.336,4.209,4.973,4.973,0,0,1-2.5,1.462c-.414.122-.9.254-1.424.4a29.9,29.9,0,0,0-6.632,2.385,3.95,3.95,0,0,0-.536.385c-1.913,1.688-5.507,5.072-8.2,7.807l-.965.989a27.276,27.276,0,0,1-7.56,5.959c-4.455,2.49-10.9,3.975-17.231,3.975-10.276,0-16.756-3.85-16.914-10.05-.009-.291-.018-.589-.02-.9l0-.213c0-.306.009-.628.033-.966.008-.119.023-.251.041-.385.04-.373.08-.683.142-1,.04-.19.084-.348.129-.507l2.964.7-2.925-.848a5.429,5.429,0,0,1,.2-.683l.018,0a3.207,3.207,0,0,1,.167-.45l.135-.3a25.6,25.6,0,0,1,5.9-8.917c2.917-2.833,5.8-5.207,8.59-7.5,1.385-1.138,2.72-2.237,4.016-3.357-.336-1.815-.644-3.631-.937-5.446l-.443-2.77-.371-2.445.032-.014c-2.389-16.969-3.031-33.445-3.335-47.436-.452-20.609-.934-37.51-1.362-52.42-1.567-54.8-2.37-82.824,1.9-170.089l-3.865,28.3c-.864,4.652-4.757,31.885-5.067,36.974l-.192,3.144-.16-.017a11.045,11.045,0,0,1,.043,1.619,42.15,42.15,0,0,0,.206,6.811c.1,1.112.2,2.164.194,3.155-.009,4.839-.275,7.053-1.137,9.479a6.233,6.233,0,0,1-5.688,4.154,5.5,5.5,0,0,1-1.961-.358,16.694,16.694,0,0,1-1.209,7.811c-.078.213-.15.4-.2.569a4.534,4.534,0,0,1-4.462,3.133c-5.541,0-14.679-8.656-19.559-18.524l-.128-.257-.075-.277c-1.328-4.783-1.761-11.8-1.127-18.325.067-.7.155-1.479.263-2.337l-.472-.046.385-3.106a6.071,6.071,0,0,1,.563-1.989,3.7,3.7,0,0,0,.2-1.367c-6.1-7.1-4.065-30.952-.075-68.112,5.979-55.673,18.41-91,36.96-105.107.68-.519,1.519-1.1,2.493-1.726,4.1-3.6,13.778-7.377,26.219-10.246a6.78,6.78,0,0,1,.306-.662,6.067,6.067,0,0,1,3.463-2.9,20.214,20.214,0,0,1-1.137-3.6c-1.357-6.213.3-12.084,3.911-14.794a56.488,56.488,0,0,0-.73-6.463c-2.333-13.346-2.161-32.008,5.321-44.371,5.834-9.645,16.616-15.4,28.84-15.4h.864c12.223,0,23.006,5.758,28.842,15.4,7.479,12.363,7.653,31.025,5.321,44.37a56.937,56.937,0,0,0-.73,6.464c3.609,2.71,5.27,8.581,3.911,14.794a20.443,20.443,0,0,1-1.181,3.7,6.052,6.052,0,0,1,3.587,2.955,6.5,6.5,0,0,1,.318.7c12.509,2.958,21.994,6.795,25.757,10.433.735.45,1.4.881,1.945,1.268,19.043,13.434,32.736,48.288,40.7,103.593,5.34,37.1,8.234,60.876,2.393,68.189a3.664,3.664,0,0,0,.251,1.354,6.145,6.145,0,0,1,.636,1.965l.5,3.092-.364.047c.139.84.256,1.607.352,2.313.884,6.487.724,13.519-.416,18.349l-.044.169c-2.968,9.977-9.712,15.248-19.5,15.248h0a43.537,43.537,0,0,1-8.373-.975l-1.026-.193c-2.468-.438-4.269-2.716-4.471-5.667a6.594,6.594,0,0,1,.948-4.039,6.91,6.91,0,0,1-.548-1.023l-.293-.715c-.816-1.948-1.14-3.074-1.311-7.2-.039-.991.016-2.045.075-3.161a42.532,42.532,0,0,0-.055-6.814,11.241,11.241,0,0,1-.019-1.7l-.288.038-.3-3.135c-.49-5-5.359-32.112-6.365-36.625l-9.065-52.248c-.165,6.232-.21,12.5-.137,18.861.68,13.568,1.237,25.722,1.7,37.045l.344,8.662c2.174,57.207,1.4,84.378.111,129.393-.426,14.909-.908,31.806-1.359,52.412a402.575,402.575,0,0,1-3.333,47.358l.027.009-.373,2.525-.419,2.619c-.337,2.1-.647,3.9-.958,5.568,1.31,1.131,2.657,2.239,4.056,3.389,2.789,2.3,5.673,4.669,8.59,7.5a25.573,25.573,0,0,1,5.9,8.914l.14.313a3.608,3.608,0,0,1,.166.444l.018,0a5.836,5.836,0,0,1,.2.676c.085.309.132.479.167.656.061.313.1.607.131.907.027.2.044.352.055.5.017.25.021.472.024.7l.01.482-.02.883C2458.207,54.177,2451.726,58.028,2441.448,58.028Z" transform="translate(-2006.858 3282.801)" fill="#7da4b0"/>
      <path id="Trazado_6322-2" data-name="Trazado 6322" d="M2489.422-198.109l.417-.055c-.267-1.648-.794-.58-1.011-4.987,6.655-4.6,1.784-38.363-2.275-66.572-6.151-42.712-17.441-86.02-39.441-101.542-.577-.408-1.292-.866-2.088-1.345l0,0c-2.92-3.083-12.381-7.17-26.53-10.33a3.018,3.018,0,0,0-.33-1.783,3.037,3.037,0,0,0-3.864-1.364c-.288-.767-.554-1.546-.8-2.344a16.6,16.6,0,0,0,1.968-5.029c1.269-5.808-.541-11.18-4.059-12.407a61.733,61.733,0,0,1,.854-8.727c2.6-14.866,1.406-31.8-4.927-42.268-5.807-9.6-16.193-14.059-26.67-13.933-10.476-.126-20.862,4.335-26.668,13.933-6.335,10.468-7.527,27.4-4.927,42.268a61.95,61.95,0,0,1,.854,8.727c-3.518,1.227-5.328,6.6-4.058,12.407a16.585,16.585,0,0,0,1.968,5.029c-.227.746-.476,1.476-.743,2.2a3.031,3.031,0,0,0-3.843,1.357,3.028,3.028,0,0,0-.345,1.748c-14.075,3.063-23.651,7.049-27.014,10.148-.971.621-1.829,1.208-2.5,1.72-21.431,16.3-31.155,59.989-35.764,102.894-3.042,28.335-6.695,62.252.12,66.607-.054,4.413-.625,3.366-.829,5.025l.522.05c-.294,1.957-.537,3.786-.69,5.36-.572,5.907-.248,12.606,1.03,17.216,5.99,12.112,17.1,19.714,18.4,15.788.607-1.844,2.9-6.16-.384-12.487a18.16,18.16,0,0,1-.664-13.37c1.176.368.808,3.295,3.158,6.855.313,1.914.679,5.6,1.5,7.058,1.656,2.932,4.6,1.971,5.475-.3.73-2.053.953-3.922.962-8.466,0-2.366-.671-5.468-.4-10.138a21.207,21.207,0,0,0-.654-4.847l.965.093c.324-5.3,4.288-32.9,5.091-37.2l9.321-68.256c.639,10.591,1,22.373.854,35.4-5.772,115.675-2.923,129.989-.791,227.41.345,15.844,1.121,32.634,3.659,49.5l-.017.006c.055.37.12.741.178,1.112.084.542.172,1.085.26,1.627.358,2.211.736,4.422,1.161,6.633.327-.123.63-.227.947-.342-4.608,4.247-9.633,7.8-14.662,12.687a23.426,23.426,0,0,0-5.379,8.289c-.046.1-.064.212-.1.317,0-.018-.006-.035-.008-.053-.059.158-.088.324-.133.487-.033.126-.076.25-.1.377-.044.225-.07.446-.094.668-.011.114-.032.227-.038.338-.02.269-.024.527-.026.779,0,.056,0,.114,0,.169,0,.3.01.589.018.842.218,8.595,19.994,8.872,29.618,3.5,3.979-2.228,4.921-3.454,7.84-6.426,2.713-2.756,6.346-6.183,8.362-7.96a7.033,7.033,0,0,1,.948-.689c2.473-1.522,6.6-2.467,8.793-3.11a1.9,1.9,0,0,0,1.123-.615c.327-.352.508-.893.521-2.176.007-.467.007-1,0-1.572l-.014,0c-.021-1.286-.065-3.089-.129-5.06l.028.006.091.02.1.021.092.021.027,0,.1.021.068.018.091.02.1.021.1.02c.466-1.752.9-3.477,1.323-5.191.16-.654.306-1.3.458-1.952l.038-.16c.014-.038.026-.078.041-.116l.02-.093.038-.149.033-.148.035-.146.006-.03.028-.12.033-.146.035-.148.033-.146v-.011l.03-.14.035-.146.033-.146.031-.134,0-.014.035-.146.03-.151.035-.146-.011,0,.029-.126c.131-.586.268-1.176.394-1.761q.509-2.358.966-4.695l.073-.371q.466-2.413.874-4.821c.1-.555.183-1.112.273-1.666.181-1.108.359-2.219.525-3.33.094-.635.185-1.274.275-1.91q.223-1.589.432-3.2c.083-.638.165-1.278.242-1.92.138-1.141.269-2.295.4-3.451.062-.563.126-1.122.186-1.688.18-1.72.348-3.456.5-5.224,5.331-60.445,4.957-88.2,7.443-148.022.018-.268.044-.526.074-.776.008-.05.014-.1.02-.152a6.9,6.9,0,0,1,.126-.686c.008-.032.019-.061.026-.093a3.2,3.2,0,0,1,.177-.505c.012-.027.023-.058.037-.084a1.249,1.249,0,0,1,.268-.365.7.7,0,0,1,.449-.2.7.7,0,0,1,.443.2,1.27,1.27,0,0,1,.277.373c.009.021.018.047.029.068a3.146,3.146,0,0,1,.181.52c.009.03.019.058.026.09a6.8,6.8,0,0,1,.125.682c.009.055.015.111.023.166.03.248.056.5.073.767,2.487,59.824,2.112,87.576,7.44,148.022.16,1.8.332,3.572.515,5.325.049.461.1.916.152,1.374.139,1.284.285,2.564.44,3.829q.1.826.208,1.645.226,1.764.475,3.515c.081.558.161,1.12.244,1.677q.265,1.771.558,3.537c.084.511.166,1.026.253,1.537q.356,2.079.755,4.16c.053.286.1.572.158.86q.491,2.527,1.044,5.074c.081.373.172.752.254,1.125q.057.251.114.5l-.012,0,.035.146.033.151.017.082.014.064.035.148.033.146.035.146.017.068.017.082.033.146.033.148.035.146.014.055.02.1.035.146.033.148.035.149.01.038.023.108.038.151.033.148.035.149.006.024c.012.033.023.068.035.1l.029.123c.11.461.213.919.325,1.382q.616,2.525,1.3,5.1l0,.023.044.164.1-.02.091-.021.1-.02.082-.021.123-.027.078-.017.093-.021.091-.02.042-.011.027-.006c-.064,1.975-.11,3.782-.129,5.07l-.012,0c0,.577,0,1.1,0,1.572.017,1.283.2,1.825.525,2.176a1.892,1.892,0,0,0,1.123.615c2.193.644,6.32,1.589,8.791,3.11a6.9,6.9,0,0,1,.946.689c2.02,1.777,5.649,5.2,8.364,7.96,2.917,2.972,3.859,4.2,7.842,6.426,9.619,5.376,29.4,5.1,29.618-3.5.006-.243.015-.516.017-.808,0-.12-.006-.248-.007-.374,0-.2,0-.388-.018-.593-.009-.129-.032-.257-.046-.388-.023-.21-.046-.417-.088-.627-.026-.134-.07-.26-.1-.393-.044-.158-.072-.321-.13-.476,0,.018-.007.033-.007.052-.038-.1-.056-.213-.1-.315a23.458,23.458,0,0,0-5.38-8.289c-5.019-4.876-10.036-8.426-14.637-12.661.293.108.575.2.878.317.437-2.261.823-4.524,1.188-6.787q.108-.66.211-1.319c.066-.423.138-.845.2-1.266l-.02-.008c2.538-16.864,3.317-33.653,3.663-49.5,1.812-82.82,4.142-105.589,1.251-181.62h0c-.017-.429-.035-.872-.052-1.3-.023-.609-.046-1.217-.07-1.834-.044-1.137-.091-2.289-.137-3.45,0-.1-.009-.21-.012-.315-.025-.584-.047-1.16-.07-1.752h0c-.458-11.165-1.02-23.432-1.7-37.135-.2-17.47.522-32.7,1.6-45.818l.132.749,13.487,77.76c.951,4.267,5.907,31.7,6.423,36.992l1.088-.145a21.476,21.476,0,0,0-.478,4.938c.453,4.655-.1,7.784-.006,10.144.187,4.536.548,4.816,1.361,6.839.958,2.237,3.943,3.083,5.481.093.764-1.491.914-3.607,1.156-5.53,2.211-3.651,1.729-6.56,2.893-6.973,2.4,6.267,1.531,10.159.511,11.542-.945,1.283-6.006,3.145-8.96,4.1-1.865.6-1.672,5.273.729,5.7,5.67,1.021,20.425,4.929,25.447-11.952,1.1-4.657,1.163-11.358.362-17.243C2490.1-194.352,2489.79-196.167,2489.422-198.109Z" transform="translate(-2005.804 3283.845)" fill="#00a0a6"/>
      <g id="Grupo_1199-2" data-name="Grupo 1199" transform="translate(268.073 2813.044)">
        <path id="Trazado_6323-2" data-name="Trazado 6323" d="M2366.492-443.993c-1.455-2.33-2.219-4-4.858-4.847a37.407,37.407,0,0,0-22.735,0c-2.638.846-3.4,2.517-4.857,4.847-2.4,3.83-2.086,8.829-1.428,13.193a38.817,38.817,0,0,0,5.527,14.947h1.434c.1-10.386-.315-11.856,7.178-21.175,1.242-1.545,2.379-2.322,3.513-2.333,1.137.011,2.275.788,3.515,2.333,7.493,9.319,7.079,10.789,7.178,21.175h1.432a38.8,38.8,0,0,0,5.529-14.947C2368.578-435.164,2368.887-440.162,2366.492-443.993Z" transform="translate(-2243.477 481.336)" fill="#606060"/>
        <path id="Trazado_6324-2" data-name="Trazado 6324" d="M2416.583-317.232c-.079.018,2.484,11.581,2.651,12.454.982,5.058,5.559,22.7,6.817,31.967.8,5.885.737,12.586-.36,17.243-5.022,16.881-19.777,12.973-25.447,11.952-2.4-.426-2.6-5.1-.729-5.7,2.954-.956,8.015-2.818,8.96-4.1,1.019-1.383,1.885-5.276-.512-11.542-1.164.414-.683,3.322-2.893,6.973-.242,1.924-.393,4.039-1.156,5.528-1.539,2.992-4.522,2.146-5.481-.091-.812-2.022-1.173-2.3-1.362-6.839-.094-2.36.461-5.489.008-10.144-.451-4.62,4.806-21.289,3.995-26.617l-2.439-15.974c-.1-.61.447-1.211.516-1.7,1.111-7.828,8.282-.478,8.282-.478s5.16-.014,6.041.516S2416.583-317.232,2416.583-317.232Z" transform="translate(-2209.611 550.823)" fill="#88d5f5" fill-rule="evenodd"/>
        <path id="Trazado_6325-2" data-name="Trazado 6325" d="M2365.629-415.24c-10.383-.927-26.94-.227-32.459,0l-.161,6.058,4.531,3.129,8.22,13.127,2.077,7.2,1.887,3.53,4.635-12.509,5.822-7.869,5.608-5.175Z" transform="translate(-2243.024 499.546)" fill="#d1967b" fill-rule="evenodd"/>
        <path id="Trazado_6326-2" data-name="Trazado 6326" d="M2347.182-415.68c-5.97.091-11.314.317-14.012.426l-.161,6.058,4.531,3.129.84,1.336c.357.16.733.307,1.121.443Z" transform="translate(-2243.024 499.56)" fill="#b37b68" fill-rule="evenodd"/>
        <path id="Trazado_6327-2" data-name="Trazado 6327" d="M2283.6-316.3c.078.017-2.033,11.669-2.167,12.545-.783,5.1-4.679,22.9-5.58,32.211-.574,5.907-.25,12.606,1.03,17.216,5.99,12.112,17.1,19.714,18.4,15.788.607-1.844,2.9-6.16-.382-12.487a18.148,18.148,0,0,1-.665-13.37c1.176.368.808,3.295,3.158,6.855.313,1.914.679,5.6,1.5,7.058,1.655,2.932,4.6,1.971,5.475-.3.73-2.053.951-3.922.962-8.466,0-2.366-.671-5.468-.4-10.138.27-4.632-5.627-21.085-5.02-26.442l1.82-16.054c.068-.618-.495-1.192-.583-1.678-1.415-7.781-8.292-.157-8.292-.157s-5.16.184-6.017.747S2283.6-316.3,2283.6-316.3Z" transform="translate(-2272.985 551.014)" fill="#88d5f5" fill-rule="evenodd"/>
        <path id="Trazado_6328-2" data-name="Trazado 6328" d="M2376.692-149.821c-1.719.306-14.229,4.874-14.229,4.874s-7.079-1.222-7.014-1.678c.372-2.514-.041-12.614.1-14.493l21.595.126C2377.648-158.873,2378.525-150.152,2376.692-149.821Z" transform="translate(-2231.317 632.376)" fill="#6b6a6e" fill-rule="evenodd"/>
        <path id="Trazado_6329-2" data-name="Trazado 6329" d="M2355.945-152.933c-.025.009-.168,0-.208.116-.5,1.467-.941,16.321-.91,18.862.017,1.283.2,1.825.525,2.176a1.882,1.882,0,0,0,1.123.615c2.506.737,7.537,1.866,9.738,3.8,2.019,1.777,5.648,5.2,8.363,7.96,2.917,2.972,3.858,4.2,7.842,6.426,9.619,5.376,29.4,5.1,29.618-3.5a9.083,9.083,0,0,0-.487-3.923,23.478,23.478,0,0,0-5.38-8.289c-8.63-8.383-17.26-12.831-23.771-23.621-2.682-5.866-10.792-7.269-14.04-2.858-1.313,1.787-2.58,6.763-2.58,6.763-1.094-.446-9.922-3.424-9.853-4.267Z" transform="translate(-2231.642 634.132)" fill="#d6d4de" fill-rule="evenodd"/>
        <path id="Trazado_6330-2" data-name="Trazado 6330" d="M2354.827-143.148c0,.577,0,1.1,0,1.572.017,1.283.2,1.825.525,2.176a1.86,1.86,0,0,0,1.123.61c2.506.741,7.537,1.87,9.738,3.8,2.019,1.777,5.648,5.2,8.363,7.96,2.917,2.972,3.858,4.2,7.842,6.426,9.619,5.376,29.4,5.1,29.618-3.5a9.758,9.758,0,0,0-.379-3.66c-.207,5.042-8.309,6.254-12.469,6.606a29.222,29.222,0,0,1-9.476-.761c-5.063-1.155-8.47-4.024-15.974-10.979-7.231-6.7-10.94-9.35-18.614-10.232C2355.025-143.131,2354.926-143.142,2354.827-143.148Z" transform="translate(-2231.642 641.752)" fill="#535353" fill-rule="evenodd"/>
        <path id="Trazado_6331-2" data-name="Trazado 6331" d="M2318.558-149.821c1.718.306,14.23,4.874,14.23,4.874s7.078-1.222,7.009-1.678c-.368-2.514.044-12.614-.094-14.493l-21.592.126C2317.6-158.873,2316.726-150.152,2318.558-149.821Z" transform="translate(-2251.142 632.376)" fill="#6b6a6e" fill-rule="evenodd"/>
        <path id="Trazado_6332-2" data-name="Trazado 6332" d="M2351.259-152.933c.028.009.167,0,.212.116.5,1.467.942,16.321.907,18.862-.014,1.283-.193,1.825-.522,2.176a1.892,1.892,0,0,1-1.122.615c-2.506.737-7.539,1.866-9.742,3.8-2.015,1.777-5.649,5.2-8.36,7.96-2.919,2.972-3.86,4.2-7.842,6.426-9.622,5.376-29.4,5.1-29.618-3.5a9.087,9.087,0,0,1,.489-3.923,23.422,23.422,0,0,1,5.379-8.289c8.63-8.383,17.255-12.831,23.771-23.621,2.68-5.866,10.789-7.269,14.035-2.858,1.318,1.787,2.583,6.763,2.583,6.763,1.1-.446,9.918-3.424,9.854-4.267Z" transform="translate(-2262.775 634.132)" fill="#d6d4de" fill-rule="evenodd"/>
        <path id="Trazado_6333-2" data-name="Trazado 6333" d="M2352.382-143.148c0,.577,0,1.1,0,1.572-.014,1.283-.193,1.825-.522,2.176a1.872,1.872,0,0,1-1.122.61c-2.506.741-7.539,1.87-9.743,3.8-2.015,1.777-5.648,5.2-8.36,7.96-2.918,2.972-3.86,4.2-7.841,6.426-9.622,5.376-29.4,5.1-29.618-3.5a9.762,9.762,0,0,1,.379-3.66c.208,5.042,8.309,6.254,12.471,6.606a29.231,29.231,0,0,0,9.476-.761c5.062-1.155,8.47-4.024,15.974-10.979,7.231-6.7,10.935-9.35,18.609-10.232C2352.185-143.131,2352.283-143.142,2352.382-143.148Z" transform="translate(-2262.775 641.752)" fill="#535353" fill-rule="evenodd"/>
        <path id="Trazado_6334-2" data-name="Trazado 6334" d="M2394.127-402.694c22,15.522,33.29,58.829,39.441,101.542,4.058,28.209,8.929,61.97,2.275,66.572.214,4.407.744,3.339,1.009,4.987l-29.1,3.861c-.516-5.29-5.472-32.725-6.423-36.992l-13.487-77.76-12.4-70.076C2380.253-410.526,2390.166-405.487,2394.127-402.694Z" transform="translate(-2220.89 502.23)" fill="#ebe9f4" fill-rule="evenodd"/>
        <path id="Trazado_6335-2" data-name="Trazado 6335" d="M2410.381-237.893l-4.676.621c-.516-5.29-5.472-32.725-6.423-36.992l-13.487-77.76-6.446-36.42,8.711.411Z" transform="translate(-2218.848 513.77)" fill="#d6d4de" fill-rule="evenodd"/>
        <path id="Trazado_6336-2" data-name="Trazado 6336" d="M2313.389-402.464c-21.431,16.3-31.156,59.989-35.764,102.894-3.042,28.335-6.7,62.252.12,66.607-.054,4.413-.625,3.366-.829,5.025l29.225,2.811c.324-5.3,4.288-32.9,5.089-37.2l10.679-78.193,9.88-70.48C2326.972-410.791,2317.244-405.4,2313.389-402.464Z" transform="translate(-2273.877 502.001)" fill="#ebe9f4" fill-rule="evenodd"/>
        <path id="Trazado_6337-2" data-name="Trazado 6337" d="M2291.993-237.184l4.7.45c.324-5.3,4.288-32.9,5.089-37.2l10.679-78.193,5.135-36.628-8.692.723Z" transform="translate(-2264.424 513.607)" fill="#d6d4de" fill-rule="evenodd"/>
        <path id="Trazado_6338-2" data-name="Trazado 6338" d="M2307.79-292.89c-5.772,115.675-2.923,129.989-.791,227.41.409,18.781,1.394,38.888,5.242,58.876,12.65-4.768,18.2-3.94,38.264.618a246.321,246.321,0,0,0,7.511-43.74c5.331-60.445,4.957-88.2,7.443-148.022.1-1.5.371-2.832,1.176-2.865.8.033,1.074,1.363,1.176,2.865,2.486,59.824,2.112,87.576,7.439,148.022a246.638,246.638,0,0,0,7.514,43.74c20.063-4.558,25.613-5.385,38.262-.618,3.847-19.988,4.836-40.095,5.245-58.876,2.132-97.421,4.981-111.734-.794-227.41-.789-68.695,12.658-102.981,5.927-108.628-4.246-4.483-22.328-11.09-48.541-13.881-5.366,9.646-27.093,9.646-32.459,0-26.214,2.791-44.295,9.4-48.542,13.881C2295.135-395.871,2308.581-361.585,2307.79-292.89Z" transform="translate(-2260.261 499.706)" fill="#ebe9f4" fill-rule="evenodd"/>
        <path id="Trazado_6339-2" data-name="Trazado 6339" d="M2304.108-310.491q-.183,4.44-.341,8.654h121.779q-.16-4.216-.34-8.654Z" transform="translate(-2258.281 554.442)" fill="#00a0a6" fill-rule="evenodd"/>
        <g id="Grupo_1187-2" data-name="Grupo 1187" transform="translate(84.596 283.171)">
          <path id="Trazado_6340-2" data-name="Trazado 6340" d="M2344.053-268.633a4.305,4.305,0,0,1,.761,2.7c2.486,59.824,2.112,87.576,7.439,148.022a250.362,250.362,0,0,0,5.778,36.846,26.955,26.955,0,0,1,1.692,6.729l.043.164c2.023-.457,3.9-.88,5.646-1.262l-8.882-209.287Z" transform="translate(-2321.858 284.718)" fill="#d6d4de" fill-rule="evenodd"/>
          <path id="Trazado_6341-2" data-name="Trazado 6341" d="M2329.468-75.431c1.75.382,3.626.8,5.649,1.262l.041-.16a29.2,29.2,0,0,1,1.818-7.259,250.841,250.841,0,0,0,5.652-36.321c5.331-60.445,4.957-88.2,7.443-148.022a4.327,4.327,0,0,1,.756-2.7l-12.474-16.085Z" transform="translate(-2329.468 284.718)" fill="#d6d4de" fill-rule="evenodd"/>
        </g>
        <path id="Trazado_6342-2" data-name="Trazado 6342" d="M2306.983-151.746q.7,4.686,1.6,9.372l.591-.221h0l.575-.212h0l.571-.2h0l.558-.193h0l.549-.189h0l.543-.181h0l.536-.17h0l.528-.163h0l.522-.154h0l.516-.151h0l.511-.135h0l.508-.134h0c.167-.044.333-.085.5-.126h0c.167-.036.332-.078.5-.116h0c.164-.036.329-.072.492-.11h0l.491-.1h0l.491-.094h0l.484-.09h0c.164-.027.324-.05.488-.075h0c.16-.027.32-.052.481-.075h0c.16-.021.321-.046.481-.065h0c.165-.017.324-.038.484-.055h0l.486-.05h0q.244-.027.484-.041h0c.164-.014.324-.027.489-.038h0c.163-.011.323-.02.487-.027h0c.164-.011.327-.017.491-.02h0c.167-.008.327-.014.495-.014h0c.167-.008.33-.008.5-.011h.5c.166,0,.333,0,.5.008h0c.17,0,.342.009.513.012h0l.514.021h0c.174.011.349.017.522.027h0c.177.011.352.02.528.033h0l.535.041h0l.543.047h0l.55.056h0l.558.058h0l.571.067h0l.576.076h0l.586.078h0l.6.085h0l.607.1h0l.616.1h0l.631.11h0l.642.108h0l.654.116h0l.673.126h0l.682.131h0l.7.135h0l.714.143h0l.73.148h0l.743.154h0l.761.16h0l.778.164h0l.8.173h0l.811.178h0l.833.183h0l.849.189h0l.871.195h0l.886.2h0l.912.207h0l.931.208h0c.866-3.258,1.651-6.44,2.354-9.578-19.355-6.119-33.227-3.885-41.907-.519C2307.188-151.818,2307.083-151.784,2306.983-151.746Z" transform="translate(-2256.604 635.475)" fill="#f6f5fb" fill-rule="evenodd"/>
        <path id="Trazado_6343-2" data-name="Trazado 6343" d="M2395.052-151.746q-.7,4.686-1.6,9.372l-.587-.221h0l-.577-.212h0l-.569-.2h0l-.56-.193h0l-.552-.189h0l-.542-.181h0l-.536-.17h0l-.53-.163h0l-.522-.154h0l-.514-.151h0l-.508-.135h0l-.508-.134h0c-.167-.044-.335-.085-.5-.126h0c-.166-.036-.33-.078-.5-.116h0l-.495-.11h0c-.163-.033-.327-.067-.491-.1h0l-.487-.094h0l-.484-.09h0c-.16-.027-.32-.05-.484-.075h0c-.16-.027-.324-.052-.484-.075h0c-.161-.021-.321-.046-.486-.065h0c-.16-.017-.32-.038-.484-.055h0l-.481-.05h0c-.163-.018-.324-.032-.487-.041h0c-.162-.014-.324-.027-.486-.038h0c-.16-.011-.324-.02-.489-.027h0c-.16-.011-.324-.017-.49-.02h0c-.164-.008-.329-.014-.491-.014h0c-.167-.008-.332-.008-.5-.011h-.5c-.167,0-.338,0-.505.008h0c-.167,0-.338.009-.508.012h0l-.517.021h0c-.172.011-.346.017-.524.027h0c-.173.011-.35.02-.528.033h0l-.536.041h0l-.542.047h0l-.55.056h0l-.56.058h0l-.569.067h0l-.577.076h0l-.586.078h0l-.6.085h0l-.61.1h0l-.621.1h0l-.632.11h0l-.644.108h0l-.656.116h0l-.671.126h0l-.682.131h0l-.7.135h0l-.712.143h0l-.726.148h0l-.744.154h0l-.759.16h0l-.779.164h0l-.792.173h0l-.816.178h0l-.828.183h0l-.849.189h0l-.867.195h0l-.891.2h0l-.91.207h0l-.928.208h0c-.87-3.258-1.651-6.44-2.357-9.578,19.354-6.119,33.23-3.885,41.91-.519C2394.848-151.818,2394.95-151.784,2395.052-151.746Z" transform="translate(-2232.682 635.475)" fill="#f6f5fb" fill-rule="evenodd"/>
        <path id="Trazado_6344-2" data-name="Trazado 6344" d="M2339.095-413.393V-256.8h14.259V-413.393a21.086,21.086,0,0,1-7.129.861A21.065,21.065,0,0,1,2339.095-413.393Z" transform="translate(-2239.849 500.753)" fill="#00a0a6" fill-rule="evenodd"/>
        <path id="Trazado_6345-2" data-name="Trazado 6345" d="M2329.468-143.635l.082.017.085.02.081.017.083.018.038.011h0l.044.009.085.017.083.017.085.021.082.017.085.017.167.038.085.021.081.017.035.009h0l.05.011.086.017.171.038.085.02.085.021.371.082.061.009.085.021.09.02.085.021.352.078.088.021.088.02.021,0h0l.067.014.09.02.088.02.088.021.09.02.091.021.088.017.09.024.091.017.089.02.013,0h0l.079.02.091.017.089.021.091.02.093.024.091.02.093.021.091.02.093.02.091.021.008,0h0l.085.018.091.023.093.02.1.021.091.021.1.02.1.024.091.02.1.021.1.02h0l.006-.03.035-.129a29.2,29.2,0,0,1,1.818-7.259h0l.02-.093.038-.149.034-.148.033-.146.008-.03.028-.12.033-.146.035-.148.033-.146v-.011l.031-.14.035-.146.034-.146.03-.134,0-.014.035-.146.031-.151.035-.146c-2.621-.829-5.14-1.5-7.563-2.044Z" transform="translate(-2244.872 636.093)" fill="#e8e7ec" fill-rule="evenodd"/>
        <path id="Trazado_6346-2" data-name="Trazado 6346" d="M2352.831-151.951l.033.146.035.151.017.082.014.064.033.148.035.146.033.146.019.069.017.082.033.146.035.148.033.146.014.055.02.1.035.146.034.148.035.149.009.038.024.11.038.149.033.148.033.149.008.024h0a26.978,26.978,0,0,1,1.692,6.729l.044.164.1-.02.091-.021.1-.02.1-.024.091-.02.1-.021.092-.021.093-.02.1-.023.082-.018h0l.009,0,.093-.021.092-.02.093-.02.091-.021.093-.02.091-.024.093-.02.088-.021.093-.017.074-.02h0l.014,0,.093-.02.088-.017.091-.024.088-.017.09-.021.091-.02.09-.021.088-.02.088-.02.069-.014h0l.021,0,.088-.02.088-.021.088-.02.085-.021.09-.02.088-.017.085-.021.088-.02.085-.021.059-.009h0l.026-.008.087-.02.17-.038.088-.017.085-.021.085-.02.085-.017.085-.021.083-.017.054-.011h0l.031-.009.085-.017.085-.021.082-.017.085-.021.085-.017.082-.017.085-.021.082-.017.085-.017.04-.009h0l.041-.011.082-.018.082-.017.082-.02.083-.017-.441-10.36C2357.974-153.452,2355.454-152.781,2352.831-151.951Z" transform="translate(-2232.682 636.093)" fill="#e8e7ec" fill-rule="evenodd"/>
        <rect id="Rectángulo_729-2" data-name="Rectángulo 729" width="31.036" height="18.349" transform="translate(121.54 153.261)" fill="#fff"/>
        <path id="Trazado_6347-2" data-name="Trazado 6347" d="M2366.1-375h-3.217v7.476h3.217Z" transform="translate(-2227.436 520.784)" fill="#a5c8ce" fill-rule="evenodd"/>
        <g id="Grupo_1188-2" data-name="Grupo 1188" transform="translate(123.58 165.498)">
          <rect id="Rectángulo_730-2" data-name="Rectángulo 730" width="23.703" height="0.849" transform="translate(1.627 1.671)" fill="#00a0a6"/>
          <rect id="Rectángulo_731-2" data-name="Rectángulo 731" width="26.957" height="0.849" fill="#00a0a6"/>
          <rect id="Rectángulo_732-2" data-name="Rectángulo 732" width="20.503" height="0.849" transform="translate(3.227 3.343)" fill="#00a0a6"/>
        </g>
        <rect id="Rectángulo_733-2" data-name="Rectángulo 733" width="25.402" height="5.017" transform="translate(124.357 155.893)" fill="#00a0a6"/>
        <rect id="Rectángulo_734-2" data-name="Rectángulo 734" width="29.635" height="5.769" transform="translate(122.239 143.032)" fill="#fff"/>
        <rect id="Rectángulo_735-2" data-name="Rectángulo 735" width="29.635" height="5.769" transform="translate(60.872 143.032)" fill="#fff"/>
        <g id="Grupo_1198-2" data-name="Grupo 1198" transform="translate(65.337)">
          <path id="Trazado_6348-2" data-name="Trazado 6348" d="M2327-434.146a131.726,131.726,0,0,0,1.674,18.369l2.8-.615a6.4,6.4,0,0,1,4.743.8,11.265,11.265,0,0,1,3.526,3.328l1.182.12a38.69,38.69,0,0,1-5.631-15.106c-.659-4.364-.968-9.363,1.428-13.194,1.455-2.33,2.219-4,4.857-4.847a37.413,37.413,0,0,1,22.736,0c2.637.846,3.4,2.517,4.856,4.847,2.4,3.83,2.086,8.829,1.427,13.194a38.622,38.622,0,0,1-5.635,15.109l1.236-.123a11.229,11.229,0,0,1,3.526-3.328,6.4,6.4,0,0,1,4.742-.8l2.806.615a131.76,131.76,0,0,0,1.674-18.369c-.042-5.64-.953-10.448-3.465-14.128a14.929,14.929,0,0,0-3.96-3.849c-4.726-3.228-11.626-4.841-18.552-4.841s-13.825,1.613-18.552,4.841a14.871,14.871,0,0,0-3.96,3.849C2327.952-444.594,2327.04-439.785,2327-434.146Z" transform="translate(-2311.498 478.02)" fill="#979797" fill-rule="evenodd"/>
          <path id="Trazado_6349-2" data-name="Trazado 6349" d="M2347.724-417.486l3.544.142,7.166-.712c-.174-11.79.648-12.918-7.195-22.676-1.242-1.545-2.38-2.322-3.515-2.333-1.135.011-2.272.788-3.514,2.333-7.843,9.757-7.021,10.885-7.194,22.676l7.164.712Z" transform="translate(-2306.271 485.272)" fill="#9b9b9b" fill-rule="evenodd"/>
          <g id="Grupo_1189-2" data-name="Grupo 1189" transform="translate(52.491 22.512)">
            <path id="Trazado_6350-2" data-name="Trazado 6350" d="M2351.306-412.544l1.968-.195v-42.642q-.962-.342-1.968-.625Z" transform="translate(-2351.306 456.007)" fill="#fff" fill-rule="evenodd"/>
            <path id="Trazado_6351-2" data-name="Trazado 6351" d="M2354.063-415.509a9.369,9.369,0,0,1,1.546-1.106,6.058,6.058,0,0,1,2.912-.919v-34.783c-.354-.286-.729-.563-1.115-.826a22.257,22.257,0,0,0-3.343-1.864Z" transform="translate(-2349.867 456.529)" fill="#fff" fill-rule="evenodd"/>
          </g>
          <path id="Trazado_6352-2" data-name="Trazado 6352" d="M2358.266-371.942c4.52-.619,8.764-1.516,11.675-1.018,4.265.732,8.015,4.765,8.015,4.765.3-3.929-.429-11.049,3.818-11.755,4.3-.717,17.948,5.061,17.948,5.061-10.587-7.915-12.1-26.882-9.858-39.707,2.6-14.866,1.406-31.8-4.927-42.268-5.807-9.6-16.194-14.059-26.67-13.933-10.476-.126-20.861,4.335-26.668,13.933-6.335,10.468-7.526,27.4-4.927,42.268,2.244,12.825.728,31.792-9.858,39.707,0,0,13.644-5.778,17.944-5.061,4.249.706,3.517,7.826,3.821,11.755,0,0,3.748-4.033,8.012-4.765,2.913-.5,7.158.4,11.676,1.018ZM2332.975-407.1c-2.055-14.507-3.52-26.831,1.806-34.632,8.394-12.293,38.625-12.293,47.018,0,5.326,7.8,3.862,20.125,1.806,34.632l-4.072-.89v0l-.111-.026c-2.567-.562-5.29,1.129-7.22,4.113l-10.344,1.029-3.567-.143-3.568.143-10.345-1.029c-1.928-2.984-4.65-4.675-7.219-4.113l-.111.026v0Z" transform="translate(-2316.812 470.801)" fill="#ebe9f4" fill-rule="evenodd"/>
          <g id="Grupo_1192-2" data-name="Grupo 1192" transform="translate(26.047 66.899)">
            <path id="Trazado_6353-2" data-name="Trazado 6353" d="M2334.116-408.853c5.333,3.629,8.079,5.583,15.219,5.417,7.14.166,9.887-1.788,15.219-5.417.155-.107.222-.225.17-.329-3.266-1.471-4.894-6.67-3.672-12.264a16.439,16.439,0,0,1,2.2-5.393L2352.9-425.81l-3.567-.143-3.567.143-10.345-1.029a16.5,16.5,0,0,1,2.195,5.393c1.223,5.594-.408,10.792-3.672,12.264C2333.893-409.079,2333.961-408.96,2334.116-408.853Z" transform="translate(-2333.928 426.839)" fill="#4a4a4a" fill-rule="evenodd"/>
            <g id="Grupo_1191-2" data-name="Grupo 1191" transform="translate(9.949 10.727)">
              <path id="Trazado_6354-2" data-name="Trazado 6354" d="M2345.567-419.107a4.417,4.417,0,0,1,4.418,4.418,4.419,4.419,0,0,1-4.418,4.419,4.418,4.418,0,0,1-4.417-4.419A4.417,4.417,0,0,1,2345.567-419.107Z" transform="translate(-2340.109 420.146)" fill="#333" fill-rule="evenodd"/>
              <path id="Trazado_6355-2" data-name="Trazado 6355" d="M2345.924-419.79a5.458,5.458,0,0,1,5.458,5.457,5.459,5.459,0,0,1-5.458,5.46,5.459,5.459,0,0,1-5.458-5.46A5.458,5.458,0,0,1,2345.924-419.79Z" transform="translate(-2340.466 419.79)" fill="#333" fill-rule="evenodd"/>
              <g id="Grupo_1190-2" data-name="Grupo 1190" transform="translate(1.041 1.039)">
                <path id="Trazado_6356-2" data-name="Trazado 6356" d="M2344.564-419.1l-.266,2.614-.024,0a1.8,1.8,0,0,0-.375.04l-.269-2.614a4.267,4.267,0,0,1,.644-.047C2344.373-419.107,2344.47-419.1,2344.564-419.1Z" transform="translate(-2339.856 419.107)" fill="#666" fill-rule="evenodd"/>
                <path id="Trazado_6357-2" data-name="Trazado 6357" d="M2343.042-418.808l1.075,2.4a1.818,1.818,0,0,0-.326.234l-1.539-2.13A4.246,4.246,0,0,1,2343.042-418.808Z" transform="translate(-2340.575 419.263)" fill="#666" fill-rule="evenodd"/>
                <path id="Trazado_6358-2" data-name="Trazado 6358" d="M2341.791-417.818l2.128,1.538a1.739,1.739,0,0,0-.166.364l-2.4-1.074A4.191,4.191,0,0,1,2341.791-417.818Z" transform="translate(-2341.043 419.78)" fill="#666" fill-rule="evenodd"/>
                <path id="Trazado_6359-2" data-name="Trazado 6359" d="M2341.161-416.395l2.613.266,0,.024a1.9,1.9,0,0,0,.04.374l-2.615.268a4.469,4.469,0,0,1-.045-.642C2341.15-416.2,2341.153-416.3,2341.161-416.395Z" transform="translate(-2341.15 420.522)" fill="#666" fill-rule="evenodd"/>
                <path id="Trazado_6360-2" data-name="Trazado 6360" d="M2341.448-414.551l2.4-1.077a1.809,1.809,0,0,0,.233.326l-2.131,1.54A4.511,4.511,0,0,1,2341.448-414.551Z" transform="translate(-2340.994 420.922)" fill="#666" fill-rule="evenodd"/>
                <path id="Trazado_6361-2" data-name="Trazado 6361" d="M2342.438-413.06l1.54-2.129a1.865,1.865,0,0,0,.362.164l-1.074,2.4A4.507,4.507,0,0,1,2342.438-413.06Z" transform="translate(-2340.478 421.151)" fill="#666" fill-rule="evenodd"/>
                <path id="Trazado_6362-2" data-name="Trazado 6362" d="M2343.861-412.4l.268-2.613h.024a1.873,1.873,0,0,0,.373-.038l.27,2.614a4.467,4.467,0,0,1-.643.047C2344.056-412.387,2343.958-412.391,2343.861-412.4Z" transform="translate(-2339.735 421.224)" fill="#666" fill-rule="evenodd"/>
                <path id="Trazado_6363-2" data-name="Trazado 6363" d="M2345.7-412.7l-1.073-2.4a1.794,1.794,0,0,0,.324-.233l1.54,2.132A4.48,4.48,0,0,1,2345.7-412.7Z" transform="translate(-2339.334 421.079)" fill="#666" fill-rule="evenodd"/>
                <path id="Trazado_6364-2" data-name="Trazado 6364" d="M2347.2-413.937l-2.129-1.539a1.844,1.844,0,0,0,.166-.362l2.4,1.074A4.369,4.369,0,0,1,2347.2-413.937Z" transform="translate(-2339.106 420.813)" fill="#666" fill-rule="evenodd"/>
                <path id="Trazado_6365-2" data-name="Trazado 6365" d="M2347.859-415.691l-2.613-.269v-.024a1.73,1.73,0,0,0-.04-.371l2.616-.269a4.259,4.259,0,0,1,.046.641C2347.868-415.885,2347.865-415.788,2347.859-415.691Z" transform="translate(-2339.033 420.402)" fill="#666" fill-rule="evenodd"/>
                <path id="Trazado_6366-2" data-name="Trazado 6366" d="M2347.56-417.215l-2.4,1.074a1.819,1.819,0,0,0-.233-.324l2.131-1.54A4.465,4.465,0,0,1,2347.56-417.215Z" transform="translate(-2339.177 419.682)" fill="#666" fill-rule="evenodd"/>
                <path id="Trazado_6367-2" data-name="Trazado 6367" d="M2346.32-418.468l-1.538,2.129a1.719,1.719,0,0,0-.365-.164l1.076-2.4A4.56,4.56,0,0,1,2346.32-418.468Z" transform="translate(-2339.445 419.213)" fill="#666" fill-rule="evenodd"/>
              </g>
            </g>
          </g>
          <g id="Grupo_1195-2" data-name="Grupo 1195" transform="translate(6.247 62.678)">
            <g id="Grupo_1193-2" data-name="Grupo 1193">
              <path id="Trazado_6368-2" data-name="Trazado 6368" d="M2325.911-428.2c3.865-.845,8.081,3.41,9.414,9.506s-.722,11.724-4.588,12.567-8.082-3.41-9.414-9.506S2322.044-427.354,2325.911-428.2Z" transform="translate(-2320.917 430.293)" fill="#919191" fill-rule="evenodd"/>
              <path id="Trazado_6369-2" data-name="Trazado 6369" d="M2333.221-429.505c3.865-.846,8.082,3.412,9.414,9.506s-.723,11.724-4.59,12.568l-.111.023v0l-8.8,1.923v0c3.753-.974,5.728-6.522,4.415-12.527s-5.422-10.223-9.24-9.541v0l8.8-1.924v0Z" transform="translate(-2319.146 429.612)" fill="#3e3e3e" fill-rule="evenodd"/>
              <path id="Trazado_6370-2" data-name="Trazado 6370" d="M2331.783-406.568l-2.645.578v0c3.753-.974,5.728-6.522,4.415-12.527s-5.422-10.223-9.24-9.541v0l2.646-.578a8.564,8.564,0,0,1,3.406,2.2,15.931,15.931,0,0,1,3.971,7.732l.021.07v.04a15.877,15.877,0,0,1-.394,8.609A8.631,8.631,0,0,1,2331.783-406.568Z" transform="translate(-2319.146 430.119)" fill="#767676" fill-rule="evenodd"/>
            </g>
            <g id="Grupo_1194-2" data-name="Grupo 1194" transform="translate(46.518)">
              <path id="Trazado_6371-2" data-name="Trazado 6371" d="M2367.275-428.2c-3.867-.845-8.081,3.41-9.415,9.506s.723,11.724,4.59,12.567,8.081-3.41,9.414-9.506S2371.14-427.354,2367.275-428.2Z" transform="translate(-2348.373 430.293)" fill="#919191" fill-rule="evenodd"/>
              <path id="Trazado_6372-2" data-name="Trazado 6372" d="M2361.307-429.505c-3.867-.846-8.081,3.412-9.415,9.506s.723,11.724,4.59,12.568l.111.023v0l8.8,1.923v0c-3.754-.974-5.728-6.522-4.416-12.527s5.424-10.223,9.24-9.541v0l-8.8-1.924v0Z" transform="translate(-2351.486 429.612)" fill="#3e3e3e" fill-rule="evenodd"/>
              <path id="Trazado_6373-2" data-name="Trazado 6373" d="M2359.907-406.568l2.645.578v0c-3.754-.974-5.728-6.522-4.416-12.527s5.423-10.223,9.24-9.541v0l-2.646-.578a8.594,8.594,0,0,0-3.406,2.2,15.926,15.926,0,0,0-3.97,7.732l-.023.07v.04a15.9,15.9,0,0,0,.4,8.609A8.594,8.594,0,0,0,2359.907-406.568Z" transform="translate(-2348.648 430.119)" fill="#767676" fill-rule="evenodd"/>
            </g>
          </g>
          <path id="Trazado_6374-2" data-name="Trazado 6374" d="M2328.071-413.911c-2.053-14.5-3.517-26.827,1.808-34.627,8.394-12.293,38.625-12.293,47.018,0,5.326,7.8,3.862,20.125,1.806,34.632l-.008,0-4.087-.893v0l-.111-.026c-2.568-.562-5.292,1.129-7.22,4.116l-10.32,1.026-3.567-.143-3.568.143-10.345-1.029-.035-.02c-1.93-2.97-4.644-4.655-7.207-4.094l-.111.026v0l-4.051.886Zm-.659-19.821a131.729,131.729,0,0,0,1.674,18.369l2.8-.615a6.4,6.4,0,0,1,4.743.8,11.265,11.265,0,0,1,3.526,3.328l9.7.966,3.482-.14h.094l3.481.14,9.7-.966a11.23,11.23,0,0,1,3.526-3.328,6.4,6.4,0,0,1,4.742-.8l2.806.615a131.723,131.723,0,0,0,1.674-18.369c-.042-5.64-.953-10.448-3.465-14.128a14.924,14.924,0,0,0-3.959-3.849c-4.727-3.228-11.626-4.841-18.552-4.841s-13.825,1.613-18.552,4.841a14.866,14.866,0,0,0-3.959,3.849C2328.365-444.18,2327.453-439.371,2327.412-433.731Z" transform="translate(-2311.91 477.606)" fill="#555" fill-rule="evenodd"/>
          <path id="Trazado_6375-2" data-name="Trazado 6375" d="M2340.721-457.467a45.093,45.093,0,0,1,10.19,0v1.213a43.9,43.9,0,0,0-5.095-.3,43.846,43.846,0,0,0-5.1.3Z" transform="translate(-2304.337 477.607)" fill="#e6e6e6" fill-rule="evenodd"/>
          <g id="Grupo_1197-2" data-name="Grupo 1197" transform="translate(33.949 59.972)">
            <path id="Trazado_6376-2" data-name="Trazado 6376" d="M2346.626-431.391a7.5,7.5,0,0,1,7.505,7.5,7.505,7.505,0,0,1-7.505,7.507,7.505,7.505,0,0,1-7.5-7.507A7.5,7.5,0,0,1,2346.626-431.391Z" transform="translate(-2339.121 431.391)" fill="#333" fill-rule="evenodd"/>
            <g id="Grupo_1196-2" data-name="Grupo 1196" transform="translate(1.658 1.657)">
              <path id="Trazado_6377-2" data-name="Trazado 6377" d="M2344.731-430.29l-.354,3.459h-.032a2.4,2.4,0,0,0-.493.052l-.358-3.46a6.051,6.051,0,0,1,.853-.062C2344.476-430.3,2344.6-430.3,2344.731-430.29Z" transform="translate(-2338.498 430.302)" fill="#666" fill-rule="evenodd"/>
              <path id="Trazado_6378-2" data-name="Trazado 6378" d="M2342.714-429.908l1.423,3.173a2.378,2.378,0,0,0-.431.309l-2.038-2.818A6.02,6.02,0,0,1,2342.714-429.908Z" transform="translate(-2339.45 430.508)" fill="#666" fill-rule="evenodd"/>
              <path id="Trazado_6379-2" data-name="Trazado 6379" d="M2341.058-428.6l2.816,2.036a2.451,2.451,0,0,0-.217.482l-3.176-1.424A5.9,5.9,0,0,1,2341.058-428.6Z" transform="translate(-2340.07 431.192)" fill="#666" fill-rule="evenodd"/>
              <path id="Trazado_6380-2" data-name="Trazado 6380" d="M2340.225-426.713l3.459.353,0,.032a2.393,2.393,0,0,0,.052.495l-3.46.358a5.847,5.847,0,0,1-.061-.852C2340.211-426.457,2340.214-426.585,2340.225-426.713Z" transform="translate(-2340.211 432.175)" fill="#666" fill-rule="evenodd"/>
              <path id="Trazado_6381-2" data-name="Trazado 6381" d="M2340.6-424.274l3.173-1.424a2.349,2.349,0,0,0,.309.432l-2.82,2.038A5.848,5.848,0,0,1,2340.6-424.274Z" transform="translate(-2340.005 432.704)" fill="#666" fill-rule="evenodd"/>
              <path id="Trazado_6382-2" data-name="Trazado 6382" d="M2341.916-422.3l2.036-2.818a2.472,2.472,0,0,0,.483.219l-1.423,3.176A5.869,5.869,0,0,1,2341.916-422.3Z" transform="translate(-2339.321 433.007)" fill="#666" fill-rule="evenodd"/>
              <path id="Trazado_6383-2" data-name="Trazado 6383" d="M2343.8-421.423l.354-3.456h.032a2.522,2.522,0,0,0,.494-.052l.356,3.46a5.807,5.807,0,0,1-.849.061C2344.058-421.41,2343.927-421.413,2343.8-421.423Z" transform="translate(-2338.339 433.104)" fill="#666" fill-rule="evenodd"/>
              <path id="Trazado_6384-2" data-name="Trazado 6384" d="M2346.24-421.817l-1.425-3.173a2.327,2.327,0,0,0,.429-.31l2.039,2.821A5.9,5.9,0,0,1,2346.24-421.817Z" transform="translate(-2337.808 432.912)" fill="#666" fill-rule="evenodd"/>
              <path id="Trazado_6385-2" data-name="Trazado 6385" d="M2348.215-423.458l-2.82-2.038a2.274,2.274,0,0,0,.219-.481l3.176,1.423A5.938,5.938,0,0,1,2348.215-423.458Z" transform="translate(-2337.506 432.559)" fill="#666" fill-rule="evenodd"/>
              <path id="Trazado_6386-2" data-name="Trazado 6386" d="M2349.092-425.781l-3.46-.355v-.033a2.328,2.328,0,0,0-.052-.495l3.462-.355a6,6,0,0,1,.061.849C2349.1-426.039,2349.1-425.907,2349.092-425.781Z" transform="translate(-2337.409 432.015)" fill="#666" fill-rule="evenodd"/>
              <path id="Trazado_6387-2" data-name="Trazado 6387" d="M2348.694-427.8l-3.171,1.423a2.473,2.473,0,0,0-.309-.428l2.818-2.039A5.906,5.906,0,0,1,2348.694-427.8Z" transform="translate(-2337.6 431.063)" fill="#666" fill-rule="evenodd"/>
              <path id="Trazado_6388-2" data-name="Trazado 6388" d="M2347.053-429.455l-2.034,2.818a2.345,2.345,0,0,0-.483-.219l1.421-3.176A5.678,5.678,0,0,1,2347.053-429.455Z" transform="translate(-2337.954 430.443)" fill="#666" fill-rule="evenodd"/>
            </g>
          </g>
        </g>
        <path id="Trazado_6389-2" data-name="Trazado 6389" d="M2321.227-413.393l7.638,4.1a57.717,57.717,0,0,0,26.9,7.081c.134,0,.269,0,.4,0a57.719,57.719,0,0,0,26.939-6.97l7.659-4.069" transform="translate(-2249.172 500.753)" fill="none" stroke="#00a0a6" stroke-linecap="round" stroke-miterlimit="10" stroke-width="4" fill-rule="evenodd"/>
      </g>
    </g>
  </g>
</svg>
