<?xml version="1.0" encoding="utf-8"?>
<!-- Generator: Adobe Illustrator 22.1.0, SVG Export Plug-In . SVG Version: 6.00 Build 0)  -->
<svg version="1.1" id="Layer_1" xmlns="http://www.w3.org/2000/svg" xmlns:xlink="http://www.w3.org/1999/xlink" x="0px" y="0px"
	 width="355.7px" height="446.8px" viewBox="0 0 355.7 446.8" style="enable-background:new 0 0 355.7 446.8;" xml:space="preserve"
	>
<style type="text/css">
	.st0{fill:#C9E5F3;}
	.st1{fill:#F3F8FC;}
	.st2{fill:#4A8DBD;}
	.st3{fill:#72C1D9;}
	.st4{fill:#FFA300;}
	.st5{fill:#F28100;}
	.st6{fill:#DEEFF8;}
	.st7{fill:#4B84B3;}
	.st8{opacity:8.000000e-02;fill:#00467F;enable-background:new    ;}
	.st9{fill:#0C1E4F;}
	.st10{fill:#FFC41D;}
	.st11{fill:#FF9F1A;}
	.st12{fill:#294C86;}
	.st13{opacity:0.26;fill:#00467F;enable-background:new    ;}
	.st14{fill:#B4DCED;}
	.st15{fill:#FFE36C;}
	.st16{fill:#FFF48F;}
	.st17{opacity:6.000000e-02;fill:#002E61;enable-background:new    ;}
	.st18{fill:#FFB4C4;}
	.st19{fill:#091946;}
	.st20{fill:#1A3474;}
	.st21{fill:#BBDBED;}
	.st22{fill:#E1F5FA;}
	.st23{fill:#3074A7;}
	.st24{fill:#0045B8;}
	.st25{fill:url(#Trazado_7788_1_);}
	.st26{opacity:0.3;fill:#D2D2D2;enable-background:new    ;}
	.st27{fill:#FFFFFF;}
	.st28{fill:url(#Trazado_7800_1_);}
	.st29{fill:url(#Trazado_7805_1_);}
</style>
<g id="Grupo_1764" transform="translate(-115.227 -12.723)">
	<g id="Grupo_1699">
		<g id="Grupo_1694">
			<path id="Trazado_7550" class="st0" d="M338.9,262.5c0,0-25.9-53-22.8-83.1s40.6-45.6,40.5-67.2s-12.5-37.3-7.5-52.2
				s43.1-39.9,50.1-47.2c6.8,25.6,23.3,47.6,20.9,64.6s-21.6,36.6-23.1,49.1s19.8,40.3,14.7,64C405.4,220.6,349.7,238.3,338.9,262.5
				z"/>
			<path id="Trazado_7551" class="st1" d="M341.4,225.3l-23.6-22.7c-0.2-1.2-0.5-2.5-0.7-3.7l24.6,23.8c2.8-19.4,6.5-34.6,10.9-47.2
				l-24.1-22.8c0.5-0.6,0.9-1.1,1.4-1.7l23.5,22.3c4.4-12.2,10.5-23.7,18.1-34.2c2.8-4,5.2-8.3,7-12.9l-22.4-20.3
				c-0.1-1.2-0.3-2.3-0.5-3.4l23.8,21.5c5.8-15.5,7.4-33.7,8.1-49l-27.5-29.6c0.5-0.5,1-1,1.6-1.5l26,28c0.1-2.6,0.2-5.1,0.3-7.5
				c0.2-4.9,0.3-9.2,0.6-12.6c1.1-12.6,3.9-25,8.3-36.8c1-0.8,1.8-1.5,2.3-2.1c0.1,0.4,0.2,0.9,0.4,1.3c-4.7,12.1-7.7,24.8-8.8,37.8
				c-0.3,3.4-0.4,7.6-0.6,12.5c-0.3,10.1-0.7,22.7-2.5,35.3l30.9-15.9c-0.4,1-0.8,2.1-1.2,3.1l-30.1,15.5
				c-2.2,13.7-6.2,27.4-13.8,37.9c-2.5,3.5-4.9,7.2-7.3,11.1l33.8-11.6c0.3,0.7,0.5,1.4,0.8,2.1l-36.2,12.4
				c-6.8,12.3-12.5,27.3-16.9,48.2c20.3-6.6,49.5-13.8,64.9-18.3c0,0.9-0.1,1.8-0.2,2.7c-22.9,6.6-62.9,17.3-65.3,18.1
				c-3,15.1-5.4,33.1-7,55.2c-0.4,0.8-0.8,1.5-1.2,2.3c0,0-0.4-0.8-1-2.2C338.8,247.3,340,235.7,341.4,225.3z"/>
		</g>
		<g id="Grupo_1695">
			<path id="Trazado_7552" class="st2" d="M435.8,95.1c-9,34.3-26.6,27.9-51.4,46.7c-33.3,25.2-43,75.3-24.8,114.4
				c6.6-44.4,49.1-32.8,77.5-71.8C463.7,147.8,442.6,103.1,435.8,95.1z"/>
			<path id="Trazado_7553" class="st3" d="M358.8,231.3l-8.2-19.7c0-1.7,0.1-3.4,0.3-5.1l8.7,21c2-8.2,5.3-16.1,9.7-23.4l-11-28.2
				c0.4-1,0.8-1.9,1.3-2.8l11.2,28.6c0.2-0.4,0.4-0.7,0.7-1.1c4-6.7,9.1-12.6,15.2-17.4l-11.8-32.7c0.6-0.6,1.1-1.2,1.7-1.8l11.9,33
				c2.5-2,5.1-3.9,8.1-6.1c4.8-3.6,10.4-7.7,17.1-13.2L400,132.2c0.7-0.3,1.3-0.7,2-1l13.3,29.7c2.6-2.2,5.3-4.6,8.2-7.2
				c4.7-4.2,8.4-9.4,11-15.2l-10.1-20.6c0.5-0.6,1.1-1.1,1.6-1.8l9.6,19.6c5.3-14.6,2-29.6-0.6-37.8c0.3-0.9,0.5-1.9,0.8-2.9
				c0.3,0.4,0.7,0.9,1.1,1.4c1.9,5.4,3.1,11,3.6,16.7c0.8,7.8-0.1,15.7-2.7,23.2l11.5-5.3c0.1,0.8,0.2,1.5,0.3,2.3l-13,6
				c-2.7,6.1-6.6,11.5-11.6,15.9c-2.5,2.3-4.8,4.3-7.1,6.3l30-0.3c-0.2,0.7-0.4,1.5-0.6,2.2l-32.1,0.3c-6.8,5.7-12.6,10-17.5,13.6
				c-2.6,1.9-5,3.7-7.3,5.5l42.5,6.7c-0.6,0.7-1.2,1.3-1.7,2l-43.1-6.8c-6,4.7-11,10.5-14.9,17c-0.4,0.6-0.7,1.2-1.1,1.8l29.7,9
				c-1,0.5-1.9,1-2.9,1.4l-27.9-8.5c-4.7,8.2-8,15.7-9.8,24.7l9.3,1.5c-0.6,0.6-1.1,1.3-1.7,2l-8-1.3c-1.2,7.8-1.6,15.7-1.2,23.6
				c0,0.1,0,0.1,0,0.2c-0.8-1.8-1.6-3.6-2.3-5.4C357.2,244.3,357.7,237.8,358.8,231.3z"/>
		</g>
		<g id="Grupo_1696">
			<path id="Trazado_7554" class="st4" d="M464.4,187.3c-2.5-6.8-17.4-16.6-35.3-10.1s-32.6,24.4-33.3,35.1s6.5,11.8,6.5,11.8
				s15.7,6.9,39.1-3.7S466.5,193.1,464.4,187.3z"/>
			<path id="Trazado_7555" class="st5" d="M397.2,220.1c2.6-2.4,5.3-4.6,8.2-6.5l-1.5-18c0.6-0.8,1.3-1.6,2-2.4l1.6,18.9
				c3.4-2.3,7.2-4.4,11-6.5l2.8-24.9c0.8-0.4,1.6-0.9,2.4-1.3l-2.8,24.9c4.1-2.1,8.4-4.2,12.5-6l9.2-23.2c0.8,0,1.5,0.1,2.3,0.2
				l-8.6,21.7c12-5.3,22.9-9.1,27.6-10.8c0.2,0.3,0.3,0.7,0.5,1c0.1,0.3,0.2,0.7,0.3,1.1c-4.6,1.6-15.2,5.4-27,10.6l23.2,6
				c-0.4,0.6-0.9,1.3-1.3,1.9l-25.1-6.5c-4.1,1.8-8.3,3.8-12.3,5.9l24.4,11.5c-0.8,0.4-1.6,0.9-2.4,1.3l-24.5-11.5
				c-3.9,2.1-7.6,4.2-10.9,6.4l19.4,10.9c-1.2,0.3-2.3,0.5-3.4,0.6l-18-10.2c-2.9,1.9-5.6,4.1-8.1,6.5
				C398,221.3,397.6,220.7,397.2,220.1z"/>
		</g>
		<g id="Grupo_1697">
			<path id="Trazado_7556" class="st6" d="M168.6,182.1c-4,6-3.2,23.8,12.5,34.5s38.9,12.1,47.9,6.3s5.7-12.3,5.7-12.3
				s-3.7-16.8-26-29.5S172.1,176.9,168.6,182.1z"/>
			<path id="Trazado_7557" class="st1" d="M234.6,217.1c-3.4-0.7-6.8-1.6-10.1-2.8l-13.6,11.8c-1-0.1-2-0.1-3.1-0.2l14.3-12.4
				c-3.8-1.5-7.8-3.2-11.8-5.1l-21.8,12.4c-0.8-0.4-1.6-0.8-2.4-1.2l21.8-12.4c-4.2-2.1-8.3-4.3-12.2-6.6l-24.2,6.2
				c-0.4-0.7-0.8-1.3-1.2-2l22.6-5.8c-11.3-6.6-20.8-13.1-24.9-16c0.2-0.3,0.3-0.7,0.5-1c0.2-0.3,0.4-0.6,0.7-0.9
				c4,2.8,13.3,9.1,24.4,15.6l-8.8-22.3c0.8,0,1.5-0.1,2.4-0.1l9.5,24.1c3.9,2.2,8,4.4,12,6.5l-5-26.5c0.8,0.4,1.6,0.8,2.5,1.2
				l5,26.6c3.9,1.9,7.9,3.6,11.6,5.1l-2.6-22.1c0.9,0.8,1.7,1.6,2.5,2.3l2.4,20.6c3.3,1.2,6.6,2.1,10,2.7
				C235.1,215.8,234.9,216.5,234.6,217.1z"/>
		</g>
		<g id="Grupo_1698">
			<path id="Trazado_7558" class="st2" d="M200.7,138.3c-6.5,3.2-14.6,19.1-6.3,36.2s27.8,29.8,38.5,29.3S244,196,244,196
				s5.2-16.4-7.9-38.5S206.3,135.5,200.7,138.3z"/>
			<path id="Trazado_7559" class="st7" d="M240.6,201.5c-2.6-2.3-5.1-4.8-7.4-7.4l-17.7,3.5c-0.9-0.6-1.7-1.1-2.6-1.7l18.6-3.7
				c-2.6-3.2-5.2-6.6-7.7-10.3l-25-0.1c-0.5-0.7-1-1.5-1.5-2.2l25.1,0.1c-2.6-3.9-5-7.9-7.3-11.8l-24.1-6.6c0-0.8-0.1-1.5,0-2.3
				l22.5,6.2c-6.5-11.4-11.6-21.7-13.7-26.3c0.3-0.2,0.6-0.4,1-0.6c0.3-0.2,0.7-0.3,1-0.4c2.1,4.4,7,14.5,13.4,25.7l3.4-23.7
				c0.7,0.3,1.4,0.7,2.1,1.1l-3.7,25.7c2.3,3.9,4.7,7.8,7.2,11.6l8.8-25.5c0.5,0.7,1,1.5,1.6,2.3l-8.8,25.6c2.5,3.6,5,7.1,7.6,10.2
				l8.7-20.4c0.4,1.1,0.7,2.2,1,3.3l-8.2,19c2.2,2.6,4.7,5.1,7.3,7.3C241.8,200.5,241.2,201,240.6,201.5z"/>
		</g>
	</g>
	<g id="Grupo_1763">
		<g id="Grupo_1714">
			<path id="Trazado_7560" class="st8" d="M161.9,273.9L329,291.3c2.2,0.2,3.8,2.2,3.6,4.4c0,0.3-0.1,0.5-0.2,0.8l-37.7,124
				c-0.6,1.9-2.4,3-4.3,2.9L123,406.2c-2.2-0.2-3.8-2.2-3.6-4.4c0-0.3,0.1-0.5,0.2-0.8l38-124.3C158.2,274.8,160,273.7,161.9,273.9z
				"/>
			<path id="Trazado_7561" class="st1" d="M155.7,269.6L331,287.8l-40.1,131.9l-175.6-17.9L155.7,269.6z"/>
			<g id="Grupo_1704">
				<g id="Grupo_1700">
					<path id="Trazado_7562" class="st0" d="M189.5,307.1l-29.7-3l7.1-23.1l29.7,3.1L189.5,307.1z M164,301.2l23.2,2.4l5.1-16.7
						l-23.1-2.4L164,301.2z"/>
				</g>
				<path id="Trazado_7563" class="st0" d="M201.9,298.5l29.4,3.1l-1.8,6.6l-29.5-3L201.9,298.5z"/>
				<path id="Trazado_7564" class="st0" d="M204.3,289.4l29.4,3.1L232,299l-29.5-3L204.3,289.4z"/>
				<path id="Trazado_7565" class="st0" d="M193.1,323.4l29.4,3.1l-1.8,6.6l-29.5-3L193.1,323.4z"/>
				<path id="Trazado_7566" class="st0" d="M195.5,314.2l29.4,3.1l-1.8,6.6l-29.5-3.1L195.5,314.2z"/>
				<path id="Trazado_7567" class="st0" d="M183.6,352.3l29.4,3.1l-1.8,6.6l-29.5-3.1L183.6,352.3z"/>
				<path id="Trazado_7568" class="st0" d="M186,343.1l29.4,3.1l-1.8,6.6l-29.5-3L186,343.1z"/>
				<path id="Trazado_7569" class="st0" d="M174.6,381.7l29.4,3.1l-1.8,6.6l-29.5-3.1L174.6,381.7z"/>
				<path id="Trazado_7570" class="st0" d="M177,372.6l29.4,3.1l-1.8,6.6l-29.5-3.1L177,372.6z"/>
				<path id="Trazado_7571" class="st0" d="M279.9,308l29.4,3.1l-1.8,6.6l-29.5-3L279.9,308z"/>
				<path id="Trazado_7572" class="st0" d="M282.4,298.8l29.4,3.1l-1.8,6.6l-29.5-3.1L282.4,298.8z"/>
				<path id="Trazado_7573" class="st0" d="M271.1,332.8l29.4,3.1l-1.8,6.6l-29.5-3.1L271.1,332.8z"/>
				<path id="Trazado_7574" class="st0" d="M273.6,323.7l29.4,3.1l-1.8,6.6l-29.5-3.1L273.6,323.7z"/>
				<path id="Trazado_7575" class="st0" d="M261.6,361.7l29.4,3.1l-1.8,6.6l-29.5-3.1L261.6,361.7z"/>
				<path id="Trazado_7576" class="st0" d="M264.1,352.6l29.4,3.1l-1.8,6.6l-29.5-3.1L264.1,352.6z"/>
				<path id="Trazado_7577" class="st0" d="M252.6,391.2l29.4,3.1l-1.8,6.6l-29.5-3.1L252.6,391.2z"/>
				<path id="Trazado_7578" class="st0" d="M255,382.1l29.4,3.1l-1.8,6.6l-29.5-3L255,382.1z"/>
				<g id="Grupo_1701">
					<path id="Trazado_7579" class="st0" d="M172.5,362.1l-29.7-3l7.1-23.1l29.7,3.1L172.5,362.1z M147,356.3l23.2,2.4l5.1-16.7
						l-23.1-2.4L147,356.3z"/>
				</g>
				<g id="Grupo_1702">
					<path id="Trazado_7580" class="st0" d="M163.4,391.7l-29.7-3l7.1-23.1l29.7,3.1L163.4,391.7z M137.9,385.9l23.2,2.4l5.1-16.7
						l-23.1-2.4L137.9,385.9z"/>
				</g>
				<g id="Grupo_1703">
					<path id="Trazado_7581" class="st0" d="M181.1,333.5l-29.7-3l7.1-23.1l29.7,3.1L181.1,333.5z M155.6,327.6l23.2,2.4l5.1-16.7
						l-23.1-2.4L155.6,327.6z"/>
				</g>
			</g>
			<g id="Grupo_1709">
				<g id="Grupo_1705">
					<path id="Trazado_7582" class="st0" d="M267,314.7l-29.7-3l7.1-23.1l29.7,3.1L267,314.7z M241.5,308.9l23.2,2.4l5.1-16.7
						l-23.1-2.4L241.5,308.9z"/>
				</g>
				<g id="Grupo_1706">
					<path id="Trazado_7583" class="st0" d="M250,369.8l-29.7-3l7.1-23.1l29.7,3.1L250,369.8z M224.5,363.9l23.2,2.4l5.1-16.7
						l-23.1-2.4L224.5,363.9z"/>
				</g>
				<g id="Grupo_1707">
					<path id="Trazado_7584" class="st0" d="M240.9,399.4l-29.7-3l7.1-23.1l29.7,3.1L240.9,399.4z M215.4,393.5l23.2,2.4l5.1-16.7
						l-23.1-2.4L215.4,393.5z"/>
				</g>
				<g id="Grupo_1708">
					<path id="Trazado_7585" class="st0" d="M258.5,341.2l-29.7-3l7.1-23.1l29.7,3.1L258.5,341.2z M233,335.3l23.2,2.4l5.1-16.7
						l-23.1-2.4L233,335.3z"/>
				</g>
			</g>
			<g id="Grupo_1710">
				<path id="Trazado_7586" class="st7" d="M225.8,394.6l-5.8-13.3c-0.3-0.8,0-1.8,0.9-2.1c0.8-0.3,1.7,0,2.1,0.8l4.2,9.6l19.1-13.8
					c0.7-0.5,1.7-0.4,2.3,0.4c0.5,0.7,0.4,1.7-0.4,2.3L225.8,394.6z"/>
			</g>
			<g id="Grupo_1711">
				<path id="Trazado_7587" class="st7" d="M157.7,355.2l-5.8-13.3c-0.4-0.8,0-1.8,0.8-2.1c0.8-0.4,1.8,0,2.1,0.8l0,0l4.2,9.6
					l19.1-13.8c0.7-0.5,1.7-0.4,2.3,0.4c0.5,0.7,0.4,1.7-0.4,2.3l0,0L157.7,355.2z"/>
			</g>
			<g id="Grupo_1712">
				<path id="Trazado_7588" class="st7" d="M242.2,336.5l-5.8-13.3c-0.4-0.8,0-1.8,0.8-2.1c0.8-0.4,1.8,0,2.1,0.8l4.2,9.6l19.1-13.8
					c0.7-0.5,1.7-0.4,2.3,0.4s0.4,1.7-0.4,2.3L242.2,336.5z"/>
			</g>
			<g id="Grupo_1713">
				<path id="Trazado_7589" class="st7" d="M251.5,308.8l-5.8-13.3c-0.4-0.8,0-1.8,0.8-2.1c0.8-0.4,1.8,0,2.1,0.8l4.2,9.6l19.1-13.8
					c0.7-0.5,1.7-0.4,2.3,0.3c0.5,0.7,0.4,1.7-0.3,2.3c0,0,0,0-0.1,0L251.5,308.8z"/>
			</g>
		</g>
		<g id="Grupo_1729">
			<path id="Trazado_7590" class="st8" d="M432,298.6l-139.6,14.5c-1.9,0.2-3.2,1.9-3,3.7c0,0.2,0.1,0.4,0.1,0.6L321,421.1
				c0.5,1.5,2,2.5,3.6,2.4l139.8-14.3c1.9-0.2,3.2-1.9,3-3.7c0-0.2-0.1-0.4-0.1-0.6L435.5,301C435.1,299.5,433.6,298.5,432,298.6z"
				/>
			<path id="Trazado_7591" class="st1" d="M437.2,295l-146.4,15.3l33.5,110.1l146.7-15L437.2,295z"/>
			<g id="Grupo_1719">
				<g id="Grupo_1715">
					<path id="Trazado_7592" class="st0" d="M403.1,307.1l24.8-2.6l5.9,19.3l-24.8,2.5L403.1,307.1z M425.9,307.5l-19.3,2l4.2,14
						l19.4-2L425.9,307.5z"/>
				</g>
				<path id="Trazado_7593" class="st0" d="M398.6,319.2l-24.6,2.6l1.5,5.5l24.6-2.5L398.6,319.2z"/>
				<path id="Trazado_7594" class="st0" d="M396.5,311.6l-24.6,2.6l1.5,5.5l24.6-2.5L396.5,311.6z"/>
				<path id="Trazado_7595" class="st0" d="M405.9,340l-24.6,2.6l1.5,5.5l24.6-2.5L405.9,340z"/>
				<path id="Trazado_7596" class="st0" d="M403.9,332.3l-24.6,2.6l1.5,5.5l24.6-2.5L403.9,332.3z"/>
				<path id="Trazado_7597" class="st0" d="M413.8,364.1l-24.6,2.6l1.5,5.5l24.6-2.5L413.8,364.1z"/>
				<path id="Trazado_7598" class="st0" d="M411.8,356.5l-24.6,2.6l1.5,5.5l24.6-2.5L411.8,356.5z"/>
				<path id="Trazado_7599" class="st0" d="M421.4,388.7l-24.6,2.6l1.5,5.5l24.6-2.5L421.4,388.7z"/>
				<path id="Trazado_7600" class="st0" d="M419.3,381.1l-24.6,2.6l1.5,5.5l24.6-2.5L419.3,381.1z"/>
				<path id="Trazado_7601" class="st0" d="M333.4,327.1l-24.6,2.6l1.5,5.5l24.6-2.5L333.4,327.1z"/>
				<path id="Trazado_7602" class="st0" d="M331.3,319.5l-24.6,2.6l1.5,5.5l24.6-2.5L331.3,319.5z"/>
				<path id="Trazado_7603" class="st0" d="M340.7,347.9l-24.6,2.6l1.5,5.5l24.6-2.5L340.7,347.9z"/>
				<path id="Trazado_7604" class="st0" d="M338.7,340.2l-24.6,2.6l1.5,5.5l24.6-2.5L338.7,340.2z"/>
				<path id="Trazado_7605" class="st0" d="M348.7,372l-24.6,2.6l1.5,5.5l24.6-2.5L348.7,372z"/>
				<path id="Trazado_7606" class="st0" d="M346.6,364.4l-24.6,2.6l1.5,5.5l24.6-2.5L346.6,364.4z"/>
				<path id="Trazado_7607" class="st0" d="M356.2,396.6l-24.6,2.6l1.5,5.5l24.6-2.5L356.2,396.6z"/>
				<path id="Trazado_7608" class="st0" d="M354.2,389l-24.6,2.6l1.5,5.5l24.6-2.5L354.2,389z"/>
				<g id="Grupo_1716">
					<path id="Trazado_7609" class="st0" d="M417.3,353.1l24.8-2.6l5.9,19.3l-24.8,2.5L417.3,353.1z M440.1,353.5l-19.3,2l4.2,14
						l19.4-2L440.1,353.5z"/>
				</g>
				<g id="Grupo_1717">
					<path id="Trazado_7610" class="st0" d="M424.8,377.8l24.8-2.6l5.9,19.3l-24.8,2.5L424.8,377.8z M447.7,378.2l-19.3,2l4.2,14
						l19.4-2L447.7,378.2z"/>
				</g>
				<g id="Grupo_1718">
					<path id="Trazado_7611" class="st0" d="M410.1,329.2l24.8-2.6l5.9,19.3l-24.8,2.5L410.1,329.2z M433,329.5l-19.3,2l4.2,14
						l19.4-2L433,329.5z"/>
				</g>
			</g>
			<g id="Grupo_1724">
				<g id="Grupo_1720">
					<path id="Trazado_7612" class="st0" d="M338.4,313.5l24.8-2.6l5.9,19.3l-24.8,2.5L338.4,313.5z M361.2,313.9l-19.3,2l4.2,14
						l19.4-2L361.2,313.9z"/>
				</g>
				<g id="Grupo_1721">
					<path id="Trazado_7613" class="st0" d="M352.6,359.5l24.8-2.6l5.9,19.3l-24.8,2.5L352.6,359.5z M375.4,359.9l-19.3,2l4.2,14
						l19.4-2L375.4,359.9z"/>
				</g>
				<g id="Grupo_1722">
					<path id="Trazado_7614" class="st0" d="M360.1,384.2l24.8-2.6l5.9,19.3l-24.8,2.5L360.1,384.2z M383,384.6l-19.3,2l4.2,14
						l19.4-2L383,384.6z"/>
				</g>
				<g id="Grupo_1723">
					<path id="Trazado_7615" class="st0" d="M345.4,335.6l24.8-2.6l5.9,19.3l-24.8,2.5L345.4,335.6z M368.2,335.9l-19.3,2l4.2,14
						l19.4-2L368.2,335.9z"/>
				</g>
			</g>
			<g id="Grupo_1725">
				<path id="Trazado_7616" class="st7" d="M378.6,399.5l4.9-11.1c0.3-0.7,0-1.5-0.7-1.8c-0.7-0.3-1.5,0-1.8,0.7c0,0,0,0,0,0l-3.5,8
					l-15.9-11.5c-0.6-0.4-1.4-0.3-1.9,0.3c-0.4,0.6-0.3,1.4,0.3,1.9l0,0L378.6,399.5z"/>
			</g>
			<g id="Grupo_1726">
				<path id="Trazado_7617" class="st7" d="M435.5,366.5l4.9-11.1c0.3-0.7,0-1.5-0.7-1.8c-0.7-0.3-1.5,0-1.8,0.7c0,0,0,0,0,0l-3.5,8
					l-15.9-11.5c-0.6-0.4-1.4-0.3-1.9,0.3s-0.3,1.4,0.3,1.9l0,0L435.5,366.5z"/>
			</g>
			<g id="Grupo_1727">
				<path id="Trazado_7618" class="st7" d="M364.9,350.9l4.9-11.1c0.3-0.7,0-1.5-0.7-1.8c-0.7-0.3-1.5,0-1.8,0.7c0,0,0,0,0,0l-3.5,8
					l-15.9-11.5c-0.6-0.4-1.4-0.3-1.9,0.3s-0.3,1.4,0.3,1.9c0,0,0,0,0,0L364.9,350.9z"/>
			</g>
			<g id="Grupo_1728">
				<path id="Trazado_7619" class="st7" d="M357.1,327.8l4.9-11.1c0.3-0.7,0-1.5-0.7-1.8c-0.7-0.3-1.5,0-1.8,0.7l-3.5,8l-15.9-11.5
					c-0.6-0.4-1.4-0.3-1.9,0.3s-0.3,1.4,0.3,1.9L357.1,327.8z"/>
			</g>
		</g>
		<g id="Grupo_1750">
			<path id="Trazado_7620" class="st8" d="M404.2,424.1l29.9-17.3c1.3-0.7,1.7-2.4,1-3.7c-0.2-0.4-0.6-0.7-1-1L427,398
				c-0.8-0.5-1.8-0.5-2.7,0L394,414.6c-1.3,0.7-1.7,2.4-1,3.7c0.2,0.4,0.6,0.8,1,1l7.5,4.8C402.3,424.6,403.3,424.6,404.2,424.1z"/>
			<g id="Grupo_1749">
				<g id="Grupo_1735">
					<g id="Grupo_1734">
						<path id="Trazado_7621" class="st8" d="M332.7,436.7l121.9-70.8c1.3-0.7,1.7-2.4,1-3.7c-0.2-0.4-0.6-0.7-1-1L263.4,251.4
							c-0.8-0.5-1.8-0.5-2.7,0l-122.3,70.1c-1.3,0.7-1.7,2.4-1,3.7c0.2,0.4,0.6,0.8,1,1L330,436.7
							C330.8,437.2,331.9,437.2,332.7,436.7z"/>
						<path id="Trazado_7622" class="st9" d="M331.4,429.6l118.5-68.8v-37l-183.1-68.2l-118.9,66.1v2.1L331.4,429.6z"/>
						<path id="Trazado_7623" class="st7" d="M266.8,253.5l-118.9,68.2l183.4,105.8l116-67.4L266.8,253.5z"/>
						<path id="Trazado_7624" class="st1" d="M445.4,326.4v32L331,423.8L153.1,321.5v-32.7L445.4,326.4z"/>
						<g id="Grupo_1730">
							<path id="Trazado_7625" class="st0" d="M335.6,412.2c-0.2,0-0.4-0.2-0.4-0.4c0-0.2,0.1-0.3,0.2-0.4l66-38.3
								c0.2-0.1,0.4,0,0.6,0.1c0.1,0.2,0,0.4-0.2,0.6l-66,38.3C335.8,412.2,335.7,412.2,335.6,412.2z"/>
						</g>
						<path id="Trazado_7626" class="st9" d="M331.4,394.7l118.5-68.8L266.8,220.7l-118.9,66.1v2.1L331.4,394.7z"/>
						<path id="Trazado_7627" class="st7" d="M331.4,392.6l118.5-68.8L266.8,218.6l-118.9,68.2L331.4,392.6z"/>
						<path id="Trazado_7628" class="st8" d="M237.9,235.2l-2.5,1.5L174,301.9l117.2,67.6l51.1,16.8l61.9-35.9l33.6-33.5l-61.2-35.2
							L237.9,235.2z"/>
						<g id="Grupo_1731">
							<path id="Trazado_7629" class="st0" d="M297.7,383.9c-0.1,0-0.1,0-0.2-0.1l-66-38.3c-0.2-0.1-0.3-0.4-0.1-0.6
								c0.1-0.2,0.4-0.3,0.5-0.1c0,0,0,0,0,0l66,38.3c0.2,0.1,0.3,0.3,0.2,0.5C298,383.8,297.8,383.9,297.7,383.9L297.7,383.9z"/>
						</g>
						<g id="Grupo_1732">
							<path id="Trazado_7630" class="st0" d="M324.9,407.3c-0.1,0-0.1,0-0.2-0.1l-66-38.3c-0.2-0.1-0.3-0.4-0.2-0.6
								c0.1-0.2,0.4-0.3,0.6-0.1l66,38.3c0.2,0.1,0.3,0.3,0.2,0.5C325.2,407.2,325,407.3,324.9,407.3L324.9,407.3z"/>
						</g>
						<g id="Grupo_1733">
							<path id="Trazado_7631" class="st0" d="M229.6,350.3c-0.1,0-0.1,0-0.2-0.1l-66-38.3c-0.2-0.1-0.3-0.4-0.2-0.6
								c0.1-0.2,0.4-0.3,0.6-0.1l66,38.3c0.2,0.1,0.3,0.4,0.1,0.6C229.9,350.3,229.7,350.3,229.6,350.3z"/>
						</g>
					</g>
					<path id="Trazado_7632" class="st5" d="M380.7,377.1l28.7-16.6c8.9,8.4-0.5,29.3,23.1,43.3l-28.9,16.8
						C383.4,412.6,393,385,380.7,377.1z"/>
				</g>
				<g id="Grupo_1738">
					<path id="Trazado_7633" class="st10" d="M362.7,385.1l87.1-86.7v-44.8l-211.8-26.2l-83.9,86v3.1L362.7,385.1z"/>
					<path id="Trazado_7634" class="st11" d="M362.5,382.1l87.1-86.7l-211.8-71l-83.7,89.1L362.5,382.1z"/>
					<path id="Trazado_7635" class="st1" d="M445.5,254.8l-284.2,17.6v39.8l199.5,66.6l84.7-84.8L445.5,254.8z"/>
					<path id="Trazado_7636" class="st8" d="M444.5,255.7l-206.4-64.8l-83.9,85.4v3.8l208.6,68.6l81.7-81.3V255.7z"/>
					<g id="Grupo_1736">
						<path id="Trazado_7637" class="st0" d="M389.6,325.3c-0.2,0-0.4-0.2-0.4-0.4c0-0.1,0-0.2,0.1-0.3l49-49c0.2-0.2,0.4-0.2,0.6,0
							c0.2,0.2,0.2,0.4,0,0.6l0,0l-49,49C389.8,325.2,389.7,325.3,389.6,325.3z"/>
					</g>
					<g id="Grupo_1737">
						<path id="Trazado_7638" class="st0" d="M293.1,349.7c0,0-0.1,0-0.1,0l-93.5-31.2c-0.2-0.1-0.3-0.3-0.3-0.5s0.3-0.3,0.5-0.3
							l93.5,31.2c0.2,0.1,0.3,0.3,0.3,0.5C293.4,349.5,293.3,349.7,293.1,349.7L293.1,349.7z"/>
					</g>
					<path id="Trazado_7639" class="st10" d="M362.7,344.1l87.1-86.7l-211.8-71l-83.9,85.4v3.8L362.7,344.1z"/>
					<path id="Trazado_7640" class="st5" d="M362.7,340.4l87.1-86.7l-211.8-71L154.1,268v3.8L362.7,340.4z"/>
					<path id="Trazado_7641" class="st8" d="M376,327.1l34.9-34.7l-130-74.7l-92.6,53.1l49.4,28.5l118.9,39.1L376,327.1z"/>
				</g>
				<g id="Grupo_1744">
					<g id="Grupo_1741">
						<g id="Grupo_1740">
							<g id="Grupo_1739">
								<path id="Trazado_7642" class="st12" d="M333.2,346.4l97.6-56.7v-1.8L280,203.1l-98,54.4v1.8L333.2,346.4z"/>
								<path id="Trazado_7643" class="st7" d="M280,201.3l-98,56.2l151.1,87.2l97.6-56.7L280,201.3z"/>
								<path id="Trazado_7644" class="st1" d="M427.1,261.4v26.3l-96.4,55.5l-144.3-85.8v-26.9L427.1,261.4z"/>
								<path id="Trazado_7645" class="st8" d="M425.9,259.2l-144.6-81l-98,53.9v2.3l146,90.4l96.5-56.3L425.9,259.2z"/>
								<path id="Trazado_7646" class="st12" d="M328.1,321.4l102.7-59.9v-2.2L280,174.9l-98,53.9v2.3L328.1,321.4z"/>
								<path id="Trazado_7647" class="st7" d="M333.2,316l97.6-56.7L280,172.6l-98,56.2L333.2,316z"/>
								<path id="Trazado_7648" class="st13" d="M353.1,238.7c0,19.5-27.4,35.4-61.2,35.4s-61.2-15.8-61.2-35.4s27.4-35.4,61.2-35.4
									S353.1,219.2,353.1,238.7z"/>
							</g>
						</g>
						<path id="Trazado_7649" class="st12" d="M333.2,316c0,0-2.8,2.2-2.8,13s2.8,17.5,2.8,17.5L182,259.3c0,0-2.8-5.8-2.8-16.2
							s2.8-14.3,2.8-14.3L333.2,316z"/>
					</g>
					<g id="Grupo_1742">
						<path id="Trazado_7650" class="st0" d="M333.2,326.9c-0.2,0-0.4-0.2-0.4-0.4c0-0.2,0.1-0.3,0.2-0.4l69.9-40.6
							c0.2-0.1,0.5-0.1,0.6,0.1c0.1,0.2,0.1,0.5-0.1,0.6c0,0,0,0,0,0l-69.9,40.6C333.3,326.9,333.2,326.9,333.2,326.9z"/>
					</g>
					<g id="Grupo_1743">
						<path id="Trazado_7651" class="st0" d="M427,282.5l-67.4,39.1c-0.2,0.1-0.3,0.4-0.2,0.6c0.1,0.1,0.2,0.2,0.4,0.2
							c0.1,0,0.1,0,0.2-0.1l66.9-38.9V282.5z"/>
					</g>
				</g>
				<g id="Grupo_1745">
					<path id="Trazado_7652" class="st0" d="M367.2,385.6c-0.2,0-0.4-0.2-0.4-0.4c0-0.2,0.1-0.3,0.2-0.4l66-38.3
						c0.2-0.1,0.4,0,0.6,0.1c0.1,0.2,0,0.4-0.2,0.6l-66,38.3C367.3,385.6,367.2,385.6,367.2,385.6z"/>
				</g>
				<g id="Grupo_1746">
					<path id="Trazado_7653" class="st0" d="M368.6,357.1c-0.1,0-0.2,0-0.3-0.1c-0.2-0.2-0.2-0.4,0-0.6c0,0,0,0,0,0l49-49
						c0.2-0.2,0.4-0.2,0.6,0c0.2,0.2,0.2,0.4,0,0.6l0,0l-49,49C368.9,357.1,368.8,357.1,368.6,357.1z"/>
				</g>
				<g id="Grupo_1747">
					<path id="Trazado_7654" class="st0" d="M294.9,333.1c0,0-0.1,0-0.1,0l-75-25c-0.2-0.1-0.3-0.3-0.3-0.5c0,0,0,0,0,0
						c0.1-0.2,0.3-0.3,0.5-0.3c0,0,0,0,0,0l75,25c0.2,0.1,0.3,0.3,0.3,0.5C295.3,333,295.1,333.1,294.9,333.1L294.9,333.1z"/>
				</g>
				<g id="Grupo_1748">
					<path id="Trazado_7655" class="st0" d="M353,363.4c0,0-0.1,0-0.1,0l-93.5-31.2c-0.2-0.1-0.3-0.3-0.3-0.5s0.3-0.3,0.5-0.3
						l93.5,31.2c0.2,0.1,0.3,0.3,0.3,0.5C353.4,363.3,353.2,363.4,353,363.4z"/>
				</g>
			</g>
		</g>
		<g id="Grupo_1752">
			<g id="Grupo_1751">
				<path id="Trazado_7656" class="st5" d="M346.5,225l-3,0c-7.4-12.4-27.7-21.3-51.7-21.3c-24.4,0-45,9.2-52,21.9l-2.6,0v9.6
					c0,17.4,24.5,31.6,54.6,31.6s54.6-14.1,54.6-31.6c0-0.2,0-0.4,0-0.5l0,0V225z"/>
				<path id="Trazado_7657" class="st4" d="M346.5,225.7c0,17.4-24.5,31.6-54.6,31.6s-54.6-14.1-54.6-31.6s24.5-31.6,54.6-31.6
					S346.5,208.3,346.5,225.7z"/>
				<path id="Trazado_7658" class="st14" d="M334.8,190.5c-5.3-23.7-24-31.7-34.7-34.3c-5.3-2.2-11.2-2.2-16.5,0
					c-10.7,2.7-29.3,10.7-34.5,34.3c-2.1,7.8-2.1,22.4-2.1,22.4v12.2c0,0.5-0.1,0.9-0.1,1.4c0,14.4,20.1,26,45,26
					c24.6,0,44.5-11.4,44.9-25.5h0v-14C336.8,212.9,336.8,198.3,334.8,190.5z"/>
				<path id="Trazado_7659" class="st15" d="M251.7,196.5c-0.6,5.2-0.9,10.4-1,15.7v11.2c0,0.4-0.1,0.9-0.1,1.3
					c0,13.2,18.5,23.8,41.2,23.8c22.5,0,40.8-10.5,41.2-23.4h0v-12.9c0-5.2-0.3-10.5-1-15.7H251.7z"/>
				<path id="Trazado_7660" class="st3" d="M336.6,108.1c0-48.4-42.4-11.2-44.8-9.1c-2.4-2.1-44.8-39.3-44.8,9.1
					c0,48.2,34.1,51.8,40.1,54.6l0,0c0.6,1.2,2.5,2.1,4.7,2.1c2.3,0,4.3-0.9,4.8-2.2C303.4,159.8,336.6,155.6,336.6,108.1z"/>
				<path id="Trazado_7661" class="st5" d="M346.5,81.3l-3,0C336.2,68.9,315.8,60,291.9,60c-24.4,0-45,9.2-52,21.9l-2.6,0v9.6
					c0,17.4,24.5,31.6,54.6,31.6s54.6-14.1,54.6-31.6c0-0.2,0-0.4,0-0.5l0,0V81.3z"/>
				<ellipse id="Elipse_601" class="st4" cx="291.9" cy="81.9" rx="54.6" ry="31.6"/>
				<path id="Trazado_7662" class="st15" d="M321.1,141.5c0-9.3-13.1-14.1-29.2-14.1s-29.2,4.7-29.2,14.1c0.1,2.6,0.9,5.2,2.3,7.4
					c9.1,8,19.5,9.7,22.5,11l0,0c0.6,1.1,2.3,1.9,4.4,1.9c2.2,0,4-0.9,4.5-2c3.3-1.4,13.8-3.1,22.7-11.3
					C320.3,146.3,321,143.9,321.1,141.5z"/>
				<path id="Trazado_7663" class="st15" d="M332.5,225.7c0,13-18.2,23.5-40.7,23.5s-40.7-10.5-40.7-23.5s18.2-23.5,40.7-23.5
					S332.5,212.7,332.5,225.7z"/>
				<path id="Trazado_7664" class="st16" d="M332.5,199.2c0,13-18.2,23.5-40.7,23.5s-40.7-10.5-40.7-23.5s18.2-23.5,40.7-23.5
					S332.5,186.2,332.5,199.2z"/>
				<path id="Trazado_7665" class="st15" d="M308.4,194.5c0,5.3-7.4,9.6-16.6,9.6s-16.6-4.3-16.6-9.6s7.4-9.6,16.6-9.6
					S308.4,189.2,308.4,194.5z"/>
			</g>
			<path id="Trazado_7666" class="st15" d="M294,165.6c0-1.2-1-2.2-2.2-2.2s-2.2,1-2.2,2.2c0,1.2,1,2.2,2.2,2.2c0,0,0,0,0,0
				C293.1,167.8,294,166.8,294,165.6z"/>
			<path id="Trazado_7667" class="st16" d="M291.5,194.1c0-0.7-0.6-1.3-1.3-1.3c-0.7,0-1.3,0.6-1.3,1.3c0,0.7,0.6,1.3,1.3,1.3
				C291,195.4,291.5,194.8,291.5,194.1z"/>
			<path id="Trazado_7668" class="st15" d="M296.2,175.7c0-2.4-1.9-4.3-4.3-4.3s-4.3,1.9-4.3,4.3s1.9,4.3,4.3,4.3c0,0,0,0,0,0
				C294.2,180,296.2,178,296.2,175.7C296.2,175.7,296.2,175.7,296.2,175.7z"/>
			<path id="Trazado_7669" class="st16" d="M289.7,184.9c0-1.2-1-2.1-2.1-2.1s-2.1,1-2.1,2.1s1,2.1,2.1,2.1c0,0,0,0,0,0
				C288.8,187.1,289.7,186.1,289.7,184.9z"/>
			<path id="Trazado_7670" class="st16" d="M298.3,188.7c0-1.2-1-2.1-2.1-2.1c-1.2,0-2.1,1-2.1,2.1c0,1.2,1,2.1,2.1,2.1
				C297.3,190.8,298.3,189.8,298.3,188.7C298.3,188.7,298.3,188.7,298.3,188.7z"/>
		</g>
		<g id="Grupo_1756">
			<path id="Trazado_7671" class="st8" d="M158.8,369c1.8-0.1,3.6,0.1,5.3,0.7l5.9,3.6c2.6,0.5,5.1,1.4,7.4,2.6l55.7,34.2l0,0
				l10.2,6.3l4.2,2.6l2.5,1.5c1.5,0.9,3,1.9,4.5,2.8l0.3,0.2l3.6,2.2l9.5,5.8l27.3,16.8c0,0,0,0,0.1,0s3.4,4.1,4.1,6.2l0,0
				c1.1,0.8,6.5,4.9,5.9,5c-0.6,0.1-8.6-4-10.1-4.7c-5.3-1.7-13.7-5.1-13.7-5.1l-55.9-34.4l-2.8-1.7l-60-36.9c0,0-2.9-1.9-0.6-3
				l-5.6-3.5C156.5,369.6,157.3,369.1,158.8,369z"/>
			<g id="Grupo_1755">
				<g id="Grupo_1753">
					<path id="Trazado_7672" class="st12" d="M182.4,373.5c-1,1.3-1.3,3.1-0.8,4.7l-25.3-15.8c-0.4-1.6-0.1-3.2,0.8-4.6
						c1.2-1.9,2.9-3,4.2-2.8l25.3,15.7C185.3,370.6,183.5,371.6,182.4,373.5z"/>
				</g>
				<path id="Trazado_7673" class="st3" d="M164,361.9c4-6,10.2-2.9,10.2-2.9l123.9,77c0,0,0,0,0.1,0c-1.4,1.5-2.3,3.7-3.3,5.4
					c-1.4,2.4-2.8,6-5.2,7.6c-0.5,0.4-0.8,1.1-0.7,1.8c-2.3-1.4-124.8-78-124.8-78S159.1,369.3,164,361.9z"/>
				<path id="Trazado_7674" class="st14" d="M289.1,440.7c2.5-4.1,6.7-6.2,9.1-4.7c0,0,8,12.3,6.7,14.6s-15.9,0.2-16,0.2
					C286.5,449.4,286.6,444.8,289.1,440.7z"/>
				<g id="Grupo_1754">
					<path id="Trazado_7675" class="st12" d="M273.5,431.2c-2,3.3-2.5,6.8-1.6,9l-49-30.6c-0.9-2.2-0.3-5.6,1.6-8.8
						c2.2-3.6,5.7-5.7,8.2-5.4l49.1,30.5C279.2,425.5,275.8,427.6,273.5,431.2z"/>
				</g>
				<path id="Trazado_7676" class="st12" d="M300.8,448.2c0.7-1.2,2.1-1.6,3.3-0.9c0.1,0.1,0.3,0.2,0.4,0.3c1.2,1,7.3,6.5,6.9,7.1
					s-8.8-2.5-10-3.1c-1.1-0.6-1.4-2-0.8-3.1C300.7,448.4,300.7,448.3,300.8,448.2z"/>
			</g>
		</g>
		<g id="Grupo_1762">
			<path id="Trazado_7677" class="st17" d="M326.2,279.9c5.1,7.4,16.2,10,24,13.2c0.3,0.1,0.6,0.2,0.9,0.2c4.6,2.8,11.4,5.3,15,1.3
				c5.2-5.9-10.1-19.1,5.5-15.2c4.8,1.2,16.1,7.1,20.1,0.9c3.5-5.4-2.5-11.6-6.3-14.6c-7.9-6.2-16.2-5.9-25.6-7
				c-9.8-1.1-21.5-2.2-30.5,3C322.4,265.6,321.9,273.5,326.2,279.9z"/>
			<g id="Grupo_1761">
				<path id="Trazado_7678" class="st18" d="M379.7,327.6l2.4,7.9l-3.3,3.3c0,0-2.5-0.6-2.6-1s-2.6-9.8-2.6-9.8L379.7,327.6z"/>
				<path id="Trazado_7679" class="st18" d="M385.6,317c0,0.1-0.7,6.9-0.7,6.9l2.2,2.9h3.4l2-9.8H385.6z"/>
				<path id="Trazado_7680" class="st19" d="M353.4,243.5c0,0,40,15.6,46.3,25.5s-7.1,50.2-7.1,50.2c-2.7,0.4-5.5-0.1-7.9-1.4
					c2.7-21.7-3.8-30.3,3.9-40.1c-2.5-0.2-43.7-3.1-48.8-19.5S353.4,243.5,353.4,243.5z"/>
				<path id="Trazado_7681" class="st20" d="M348.5,252.1c0,0,4.2,6.3,2.7,11.8c11.5,8.7,22.3,21.2,22.3,21.2s1.4,23.2,7.2,42.5
					c-1.8,3-5.2,2.9-6.9,2.6c-5.4-15.9-15.3-27.5-11.5-38.7c-4-2.1-36-12.4-38.2-22.9s4-13.6,5.4-16.5S348.5,252.1,348.5,252.1z"/>
				<g id="Grupo_1760">
					<g id="Grupo_1758">
						<g id="Grupo_1757">
							<path id="Trazado_7682" class="st21" d="M345.6,268.5v0.5c0.1,1,0.7,1.9,1.6,2.3c3.8,2.6,13.7,10.6,15.6,12
								c1.6,1.2,3.7,1.5,5.5,0.6c3.5-1.6,31-17.5,31.6-17.8c0.6-0.3,1-0.9,1-1.6l-11.6-1L345.6,268.5z"/>
							<path id="Trazado_7683" class="st22" d="M382.7,249.9l17.3,12.4c0,0,2.4,2.1-0.3,3.4s-30.9,16.8-30.9,16.8s-2,1.7-5.3-0.5
								S346,269.4,346,269.4s-1.7-1.9,2.4-3.6s30.4-16.5,30.4-16.5C380.1,249,381.5,249.2,382.7,249.9z"/>
							<path id="Trazado_7684" class="st21" d="M372.7,255.6l6,4.3c0,0,0.8,0.7-0.1,1.2s-10.8,5.9-10.8,5.9s-0.7,0.6-1.8-0.2
								s-6.1-4.4-6.1-4.4s-0.6-0.7,0.8-1.3s10.6-5.7,10.6-5.7C371.8,255.3,372.3,255.4,372.7,255.6z"/>
						</g>
						<path id="Trazado_7685" class="st23" d="M362.6,282l1.2,0.8v0.7l-1.2-0.8V282z"/>
						<path id="Trazado_7686" class="st23" d="M362,281.5v0.7l-1-0.7v-0.7L362,281.5z"/>
						<path id="Trazado_7687" class="st24" d="M374.3,280v0.3l-5.2,2.9v-0.4L374.3,280z"/>
						<path id="Trazado_7688" class="st24" d="M398.5,266.6v0.3l-5.2,2.9v-0.4L398.5,266.6z"/>
					</g>
					<g id="Grupo_1759">
						<path id="Trazado_7689" class="st21" d="M386.9,258.2l-1.6,0.9c0,0,0,0.1,0,0.1l1.5,1c0,0,0.1,0,0.2,0l1.6-0.9
							c0,0,0-0.1,0-0.1l-1.5-1C387,258.2,387,258.2,386.9,258.2z"/>
						<path id="Trazado_7690" class="st21" d="M384.6,259.5l-2.1,1.2c0,0,0,0.1,0,0.1l1.5,1c0,0,0.1,0,0.2,0l2.1-1.2
							c0,0,0-0.1,0-0.1l-1.5-1C384.8,259.5,384.7,259.4,384.6,259.5z"/>
						<path id="Trazado_7691" class="st21" d="M396.7,265.7l1.3-0.7c0,0,0-0.1,0-0.1l-0.7-0.5c0,0-0.1,0-0.2,0l-1.3,0.7
							c0,0,0,0.1,0,0.1l0.7,0.5C396.5,265.7,396.6,265.7,396.7,265.7z"/>
						<path id="Trazado_7692" class="st21" d="M389.6,256.8l-2.1,1.1c0,0,0,0.1,0,0.1l1.5,1c0,0,0.1,0,0.2,0l2.1-1.1
							c0,0,0-0.1,0-0.1l-1.5-1C389.7,256.7,389.7,256.7,389.6,256.8z"/>
						<path id="Trazado_7693" class="st21" d="M395.4,264.6c0,0,0.1,0,0.2,0l1.2-0.6c0,0,0-0.1,0-0.1l-1.2-0.8c0,0-0.1,0-0.2,0
							l-1.2,0.6c0,0,0,0.1,0,0.1L395.4,264.6z"/>
						<path id="Trazado_7694" class="st21" d="M368.3,268.4l-1.6,0.9c0,0,0,0.1,0,0.1l1.5,1c0,0,0.1,0,0.2,0l1.6-0.9
							c0,0,0-0.1,0-0.1l-1.5-1C368.5,268.4,368.4,268.4,368.3,268.4z"/>
						<path id="Trazado_7695" class="st21" d="M376.8,266.4l-1.2,0.6c0,0,0,0.1,0,0.1l1.2,0.8c0,0,0.1,0,0.2,0l1.2-0.6
							c0,0,0-0.1,0-0.1l-1.2-0.8C376.9,266.4,376.8,266.4,376.8,266.4z"/>
						<path id="Trazado_7696" class="st21" d="M394.8,266.7l1.3-0.7c0,0,0-0.1,0-0.1l-0.7-0.5c0,0-0.1,0-0.2,0l-1.3,0.7
							c0,0,0,0.1,0,0.1l0.7,0.5C394.6,266.7,394.7,266.7,394.8,266.7z"/>
						<path id="Trazado_7697" class="st21" d="M372,269.1l1.2,0.8c0,0,0.1,0,0.2,0l1.2-0.6c0,0,0-0.1,0-0.1l-1.2-0.8
							c0,0-0.1,0-0.2,0L372,269C372,269.1,372,269.1,372,269.1z"/>
						<path id="Trazado_7698" class="st21" d="M386,261.5c0,0-0.1,0-0.2,0l-1.2,0.6c0,0,0,0.1,0,0.1l1.2,0.8c0,0,0.1,0,0.2,0
							l1.2-0.6c0,0,0-0.1,0-0.1L386,261.5z"/>
						<path id="Trazado_7699" class="st21" d="M393.1,266c0,0,0-0.1,0-0.1l-1.2-0.8c0,0-0.1,0-0.2,0l-1.2,0.6c0,0,0,0.1,0,0.1
							l1.2,0.8c0,0,0.1,0,0.2,0L393.1,266z"/>
						<path id="Trazado_7700" class="st21" d="M376,277l1.3-0.7c0,0,0-0.1,0-0.1l-0.7-0.5c0,0-0.1,0-0.2,0l-1.3,0.7c0,0,0,0.1,0,0.1
							l0.7,0.5C375.9,277,376,277,376,277z"/>
						<path id="Trazado_7701" class="st21" d="M382.8,263.1c0,0,0,0.1,0,0.1l1.2,0.8c0,0,0.1,0,0.2,0l1.2-0.6c0,0,0-0.1,0-0.1
							l-1.2-0.8c0,0-0.1,0-0.2,0L382.8,263.1z"/>
						<path id="Trazado_7702" class="st21" d="M385.4,271.8l1.3-0.7c0,0,0-0.1,0-0.1l-0.7-0.5c0,0-0.1,0-0.2,0l-1.3,0.7
							c0,0,0,0.1,0,0.1l0.7,0.5C385.3,271.9,385.3,271.9,385.4,271.8z"/>
						<path id="Trazado_7703" class="st21" d="M377.9,275.9l1.3-0.7c0,0,0-0.1,0-0.1l-0.7-0.5c0,0-0.1,0-0.2,0l-1.3,0.7
							c0,0,0,0.1,0,0.1l0.7,0.5C377.8,275.9,377.9,275.9,377.9,275.9z"/>
						<path id="Trazado_7704" class="st21" d="M387.3,270.8l1.3-0.7c0,0,0-0.1,0-0.1l-0.7-0.5c0,0-0.1,0-0.2,0l-1.3,0.7
							c0,0,0,0.1,0,0.1l0.7,0.5C387.1,270.8,387.2,270.8,387.3,270.8z"/>
						<path id="Trazado_7705" class="st21" d="M383.5,272.9l1.3-0.7c0,0,0-0.1,0-0.1l-0.7-0.5c0,0-0.1,0-0.2,0l-1.3,0.7
							c0,0,0,0.1,0,0.1l0.7,0.5C383.4,272.9,383.4,272.9,383.5,272.9z"/>
						<path id="Trazado_7706" class="st21" d="M379.8,274.9l1.3-0.7c0,0,0-0.1,0-0.1l-0.7-0.5c0,0-0.1,0-0.2,0l-1.3,0.7
							c0,0,0,0.1,0,0.1l0.7,0.5C379.7,274.9,379.7,274.9,379.8,274.9z"/>
						<path id="Trazado_7707" class="st21" d="M381.6,273.9l1.3-0.7c0,0,0-0.1,0-0.1l-0.7-0.5c0,0-0.1,0-0.2,0l-1.3,0.7
							c0,0,0,0.1,0,0.1l0.7,0.5C381.5,273.9,381.6,273.9,381.6,273.9z"/>
						<path id="Trazado_7708" class="st21" d="M373.8,268.1c0,0,0,0.1,0,0.1l1.2,0.8c0,0,0.1,0,0.2,0l1.2-0.6c0,0,0-0.1,0-0.1
							l-1.2-0.8c0,0-0.1,0-0.2,0L373.8,268.1z"/>
						<path id="Trazado_7709" class="st21" d="M360.7,275.3c0,0,0,0.1,0,0.1l1.2,0.8c0,0,0.1,0,0.2,0l1.2-0.6c0,0,0-0.1,0-0.1
							l-1.2-0.8c0,0-0.1,0-0.2,0L360.7,275.3z"/>
						<path id="Trazado_7710" class="st21" d="M365,276.8l-1.2-0.8c0,0-0.1,0-0.2,0l-1.2,0.6c0,0,0,0.1,0,0.1l1.2,0.8
							c0,0,0.1,0,0.2,0l1.2-0.6C365,276.8,365,276.8,365,276.8z"/>
						<path id="Trazado_7711" class="st21" d="M368.8,281l1.2-0.6c0,0,0-0.1,0-0.1l-0.7-0.5c0,0-0.1,0-0.2,0l-1.2,0.6
							c0,0,0,0.1,0,0.1l0.7,0.5C368.6,281,368.7,281,368.8,281z"/>
						<path id="Trazado_7712" class="st21" d="M359.7,273.1l-1.2,0.7c0,0,0,0.1,0,0.1l1.5,1c0,0,0.1,0,0.2,0l1.2-0.7
							c0,0,0-0.1,0-0.1l-1.5-1C359.8,273.1,359.8,273.1,359.7,273.1z"/>
						<path id="Trazado_7713" class="st21" d="M367.9,278.1c0,0,0,0.1,0,0.1l1.2,0.8c0,0,0.1,0,0.2,0l1.2-0.6c0,0,0-0.1,0-0.1
							l-1.2-0.8c0,0-0.1,0-0.2,0L367.9,278.1z"/>
						<path id="Trazado_7714" class="st21" d="M366.8,278.1l-1.2-0.8c0,0-0.1,0-0.2,0l-1.2,0.6c0,0,0,0.1,0,0.1l1.2,0.8
							c0,0,0.1,0,0.2,0l1.2-0.6C366.9,278.1,366.9,278.1,366.8,278.1z"/>
						<path id="Trazado_7715" class="st21" d="M357.9,274.2l-1.2,0.6c0,0,0,0.1,0,0.1l3.3,2.3c0,0,0.1,0,0.2,0l1.2-0.6
							c0,0,0-0.1,0-0.1l-3.3-2.3C358,274.1,358,274.1,357.9,274.2z"/>
						<path id="Trazado_7716" class="st21" d="M362.5,278.8c0,0,0,0.1,0,0.1l1.2,0.8c0,0,0.1,0,0.2,0l1.2-0.6c0,0,0-0.1,0-0.1
							l-1.2-0.8c0,0-0.1,0-0.2,0L362.5,278.8z"/>
						<path id="Trazado_7717" class="st21" d="M366.1,279.1c0,0,0,0.1,0,0.1l1.2,0.8c0,0,0.1,0,0.2,0l1.2-0.6c0,0,0-0.1,0-0.1
							l-1.2-0.8c0,0-0.1,0-0.2,0L366.1,279.1z"/>
						<path id="Trazado_7718" class="st21" d="M366.9,282l1.2-0.6c0,0,0-0.1,0-0.1l-0.7-0.5c0,0-0.1,0-0.2,0l-1.2,0.6
							c0,0,0,0.1,0,0.1l0.7,0.5C366.8,282,366.9,282,366.9,282z"/>
						<path id="Trazado_7719" class="st21" d="M364.3,280.1c0,0,0,0.1,0,0.1l1.2,0.8c0,0,0.1,0,0.2,0l1.2-0.6c0,0,0-0.1,0-0.1
							l-1.2-0.8c0,0-0.1,0-0.2,0L364.3,280.1z"/>
						<path id="Trazado_7720" class="st21" d="M368.6,277.1l-1.2-0.8c0,0-0.1,0-0.2,0l-1.2,0.6c0,0,0,0.1,0,0.1l1.2,0.8
							c0,0,0.1,0,0.2,0l1.2-0.6C368.7,277.2,368.7,277.1,368.6,277.1z"/>
						<path id="Trazado_7721" class="st21" d="M361.8,276.9l-1.2,0.6c0,0,0,0.1,0,0.1l1.2,0.8c0,0,0.1,0,0.2,0l1.2-0.6
							c0,0,0-0.1,0-0.1l-1.2-0.8C361.9,276.9,361.9,276.9,361.8,276.9z"/>
						<path id="Trazado_7722" class="st21" d="M363.3,271.2l-3,1.7c0,0,0,0.1,0,0.1l1.5,1c0,0,0.1,0,0.2,0l3-1.7c0,0,0-0.1,0-0.1
							l-1.5-1C363.4,271.1,363.4,271.1,363.3,271.2z"/>
						<path id="Trazado_7723" class="st21" d="M372.2,277.4c0,0,0-0.1,0-0.1l-1.2-0.8c0,0-0.1,0-0.2,0l-1.2,0.6c0,0,0,0.1,0,0.1
							l1.2,0.8c0,0,0.1,0,0.2,0L372.2,277.4z"/>
						<path id="Trazado_7724" class="st21" d="M372.4,279l1.2-0.7c0,0,0-0.1,0-0.1l-0.7-0.5c0,0-0.1,0-0.2,0l-1.2,0.7
							c0,0,0,0.1,0,0.1l0.7,0.5C372.3,279,372.3,279,372.4,279z"/>
						<path id="Trazado_7725" class="st21" d="M370.5,280l1.2-0.7c0,0,0-0.1,0-0.1l-0.7-0.5c0,0-0.1,0-0.2,0l-1.2,0.7
							c0,0,0,0.1,0,0.1l0.7,0.5C370.4,280,370.5,280,370.5,280z"/>
						<path id="Trazado_7726" class="st21" d="M363.6,273.7l-1.2,0.6c0,0,0,0.1,0,0.1l1.2,0.8c0,0,0.1,0,0.2,0l1.2-0.6
							c0,0,0-0.1,0-0.1l-1.2-0.8C363.8,273.7,363.7,273.7,363.6,273.7z"/>
						<path id="Trazado_7727" class="st21" d="M368,276l1.2,0.8c0,0,0.1,0,0.2,0l1.2-0.6c0,0,0-0.1,0-0.1l-1.2-0.8c0,0-0.1,0-0.2,0
							L368,276C367.9,275.9,367.9,275.9,368,276z"/>
						<path id="Trazado_7728" class="st21" d="M366.8,275.8l-1.2-0.8c0,0-0.1,0-0.2,0l-1.2,0.6c0,0,0,0.1,0,0.1l1.2,0.8
							c0,0,0.1,0,0.2,0L366.8,275.8C366.8,275.9,366.8,275.8,366.8,275.8z"/>
						<path id="Trazado_7729" class="st21" d="M366.1,274.6l1.2,0.8c0,0,0.1,0,0.2,0l1.2-0.6c0,0,0-0.1,0-0.1l-1.2-0.8
							c0,0-0.1,0-0.2,0L366.1,274.6C366.1,274.6,366.1,274.6,366.1,274.6z"/>
						<path id="Trazado_7730" class="st21" d="M365.5,272.7l-1.2,0.6c0,0,0,0.1,0,0.1l1.2,0.8c0,0,0.1,0,0.2,0l1.2-0.6
							c0,0,0-0.1,0-0.1l-1.2-0.8C365.6,272.7,365.6,272.6,365.5,272.7z"/>
						<path id="Trazado_7731" class="st21" d="M391.7,258.2l-3.4,1.9c0,0,0,0.1,0,0.1l1.2,0.8c0,0,0.1,0,0.2,0l3.4-1.9
							c0,0,0-0.1,0-0.1l-1.2-0.8C391.8,258.2,391.8,258.2,391.7,258.2z"/>
						<path id="Trazado_7732" class="st21" d="M387.6,260.5l-1.2,0.6c0,0,0,0.1,0,0.1l1.2,0.8c0,0,0.1,0,0.2,0l1.2-0.6
							c0,0,0-0.1,0-0.1l-1.2-0.8C387.7,260.5,387.7,260.4,387.6,260.5z"/>
						<path id="Trazado_7733" class="st21" d="M394.7,262.9l2-1.1c0,0,0-0.1,0-0.1l-1.2-0.8c0,0-0.1,0-0.2,0l-2,1.1c0,0,0,0.1,0,0.1
							l1.2,0.8C394.6,262.9,394.6,262.9,394.7,262.9z"/>
						<path id="Trazado_7734" class="st21" d="M375.9,269.2l-1.2,0.6c0,0,0,0.1,0,0.1l1.2,0.8c0,0,0.1,0,0.2,0l1.2-0.6
							c0,0,0-0.1,0-0.1l-1.2-0.8C376,269.2,375.9,269.2,375.9,269.2z"/>
						<path id="Trazado_7735" class="st21" d="M386.7,263.2l-1.2,0.6c0,0,0,0.1,0,0.1l1.2,0.8c0,0,0.1,0,0.2,0l1.2-0.6
							c0,0,0-0.1,0-0.1l-1.2-0.8C386.8,263.2,386.8,263.2,386.7,263.2z"/>
						<path id="Trazado_7736" class="st21" d="M392.9,263.9l1.2-0.6c0,0,0-0.1,0-0.1l-1.2-0.8c0,0-0.1,0-0.2,0l-1.2,0.6
							c0,0,0,0.1,0,0.1l1.2,0.8C392.7,263.9,392.8,263.9,392.9,263.9z"/>
						<path id="Trazado_7737" class="st21" d="M381.1,272.6l1.2-0.6c0,0,0-0.1,0-0.1L381,271c0,0-0.1,0-0.2,0l-1.2,0.6
							c0,0,0,0.1,0,0.1l1.2,0.8C381,272.6,381,272.6,381.1,272.6z"/>
						<path id="Trazado_7738" class="st21" d="M379.3,273.6l1.2-0.6c0,0,0-0.1,0-0.1l-1.2-0.8c0,0-0.1,0-0.2,0l-1.2,0.6
							c0,0,0,0.1,0,0.1l1.2,0.8C379.1,273.6,379.2,273.6,379.3,273.6z"/>
						<path id="Trazado_7739" class="st21" d="M377.4,274.6l1.2-0.6c0,0,0-0.1,0-0.1l-1.2-0.8c0,0-0.1,0-0.2,0l-1.2,0.6
							c0,0,0,0.1,0,0.1l1.2,0.8C377.3,274.6,377.4,274.6,377.4,274.6z"/>
						<path id="Trazado_7740" class="st21" d="M391.3,267c0,0,0-0.1,0-0.1l-1.2-0.8c0,0-0.1,0-0.2,0l-1.2,0.6c0,0,0,0.1,0,0.1
							l1.2,0.8c0,0,0.1,0,0.2,0L391.3,267z"/>
						<path id="Trazado_7741" class="st21" d="M375.7,275.5l1.2-0.6c0,0,0-0.1,0-0.1l-1.2-0.8c0,0-0.1,0-0.2,0l-1.2,0.6
							c0,0,0,0.1,0,0.1l1.2,0.8C375.5,275.6,375.6,275.6,375.7,275.5z"/>
						<path id="Trazado_7742" class="st21" d="M384.7,270.6l1.2-0.6c0,0,0-0.1,0-0.1l-1.2-0.8c0,0-0.1,0-0.2,0l-1.2,0.6
							c0,0,0,0.1,0,0.1l1.2,0.8C384.6,270.6,384.6,270.6,384.7,270.6z"/>
						<path id="Trazado_7743" class="st21" d="M382.9,271.6l1.2-0.6c0,0,0-0.1,0-0.1l-1.2-0.8c0,0-0.1,0-0.2,0l-1.2,0.6
							c0,0,0,0.1,0,0.1l1.2,0.8C382.8,271.6,382.8,271.6,382.9,271.6z"/>
						<path id="Trazado_7744" class="st21" d="M371.4,269.4l-1.2,0.6c0,0,0,0.1,0,0.1l1.2,0.8c0,0,0.1,0,0.2,0l1.2-0.6
							c0,0,0-0.1,0-0.1l-1.2-0.8C371.5,269.4,371.4,269.4,371.4,269.4z"/>
						<path id="Trazado_7745" class="st21" d="M371,266.9l-2.1,1.1c0,0,0,0.1,0,0.1l1.5,1c0,0,0.1,0,0.2,0l2.1-1.1c0,0,0-0.1,0-0.1
							l-1.5-1C371.2,266.9,371.1,266.9,371,266.9z"/>
						<path id="Trazado_7746" class="st21" d="M382,260.9l-10.3,5.6c0,0,0,0.1,0,0.1l1.5,1c0,0,0.1,0,0.2,0l10.3-5.6
							c0,0,0-0.1,0-0.1l-1.5-1C382.1,260.9,382,260.9,382,260.9z"/>
						<path id="Trazado_7747" class="st21" d="M398.5,263c0,0,0-0.1,0-0.1l-1.2-0.8c0,0-0.1,0-0.2,0l-1.2,0.6c0,0,0,0.1,0,0.1
							l1.2,0.8c0,0,0.1,0,0.2,0L398.5,263z"/>
						<path id="Trazado_7748" class="st21" d="M398.5,264.6l1.3-0.7c0,0,0-0.1,0-0.1l-0.7-0.5c0,0-0.1,0-0.2,0l-1.3,0.7
							c0,0,0,0.1,0,0.1l0.7,0.5C398.4,264.6,398.5,264.6,398.5,264.6z"/>
						<path id="Trazado_7749" class="st21" d="M374.2,278l1.3-0.7c0,0,0-0.1,0-0.1l-0.7-0.5c0,0-0.1,0-0.2,0l-1.3,0.7
							c0,0,0,0.1,0,0.1l0.7,0.5C374,278,374.1,278,374.2,278z"/>
						<path id="Trazado_7750" class="st21" d="M366.1,269.6l-2.1,1.2c0,0,0,0.1,0,0.1l1.5,1c0,0,0.1,0,0.2,0l2.1-1.2
							c0,0,0-0.1,0-0.1l-1.5-1C366.2,269.6,366.2,269.6,366.1,269.6z"/>
						<path id="Trazado_7751" class="st21" d="M391,268.7l1.3-0.7c0,0,0-0.1,0-0.1l-0.7-0.5c0,0-0.1,0-0.2,0l-1.3,0.7
							c0,0,0,0.1,0,0.1l0.7,0.5C390.9,268.8,391,268.8,391,268.7z"/>
						<path id="Trazado_7752" class="st21" d="M389.5,268c0,0,0-0.1,0-0.1l-1.2-0.8c0,0-0.1,0-0.2,0l-1.2,0.6c0,0,0,0.1,0,0.1
							l1.2,0.8c0,0,0.1,0,0.2,0L389.5,268z"/>
						<path id="Trazado_7753" class="st21" d="M389.2,269.8l1.3-0.7c0,0,0-0.1,0-0.1l-0.7-0.5c0,0-0.1,0-0.2,0l-1.3,0.7
							c0,0,0,0.1,0,0.1l0.7,0.5C389,269.8,389.1,269.8,389.2,269.8z"/>
						<path id="Trazado_7754" class="st21" d="M394.9,265c0,0,0-0.1,0-0.1l-1.2-0.8c0,0-0.1,0-0.2,0l-1.2,0.6c0,0,0,0.1,0,0.1
							l1.2,0.8c0,0,0.1,0,0.2,0L394.9,265z"/>
						<path id="Trazado_7755" class="st21" d="M387.6,269c0,0,0-0.1,0-0.1l-1.2-0.8c0,0-0.1,0-0.2,0l-1.2,0.6c0,0,0,0.1,0,0.1
							l1.2,0.8c0,0,0.1,0,0.2,0L387.6,269z"/>
						<path id="Trazado_7756" class="st21" d="M392.9,267.7l1.3-0.7c0,0,0-0.1,0-0.1l-0.7-0.5c0,0-0.1,0-0.2,0l-1.3,0.7
							c0,0,0,0.1,0,0.1l0.7,0.5C392.8,267.7,392.8,267.7,392.9,267.7z"/>
						<path id="Trazado_7757" class="st21" d="M369.5,270.4l-3.4,1.9c0,0,0,0.1,0,0.1l1.2,0.8c0,0,0.1,0,0.2,0l3.4-1.9
							c0,0,0-0.1,0-0.1l-1.2-0.8C369.6,270.4,369.6,270.4,369.5,270.4z"/>
						<path id="Trazado_7758" class="st21" d="M387.2,265.3l-1.2,0.6c0,0,0,0.1,0,0.1l1.2,0.8c0,0,0.1,0,0.2,0l1.2-0.6
							c0,0,0-0.1,0-0.1l-1.2-0.8C387.3,265.2,387.3,265.2,387.2,265.3z"/>
						<path id="Trazado_7759" class="st21" d="M389.1,265.8c0,0,0.1,0,0.2,0l1.2-0.6c0,0,0-0.1,0-0.1l-1.2-0.8c0,0-0.1,0-0.2,0
							l-1.2,0.6c0,0,0,0.1,0,0.1L389.1,265.8z"/>
						<path id="Trazado_7760" class="st21" d="M374.8,273.8l1.2-0.6c0,0,0-0.1,0-0.1l-1.2-0.8c0,0-0.1,0-0.2,0l-1.2,0.6
							c0,0,0,0.1,0,0.1l1.2,0.8C374.6,273.8,374.7,273.8,374.8,273.8z"/>
						<path id="Trazado_7761" class="st21" d="M378.6,265.4l-1.2,0.6c0,0,0,0.1,0,0.1l1.2,0.8c0,0,0.1,0,0.2,0l1.2-0.6
							c0,0,0-0.1,0-0.1l-1.2-0.8C378.7,265.4,378.6,265.4,378.6,265.4z"/>
						<path id="Trazado_7762" class="st21" d="M374.1,270.2l-1.2,0.6c0,0,0,0.1,0,0.1l1.2,0.8c0,0,0.1,0,0.2,0l1.2-0.6
							c0,0,0-0.1,0-0.1l-1.2-0.8C374.2,270.1,374.1,270.1,374.1,270.2z"/>
						<path id="Trazado_7763" class="st21" d="M372.2,271.2l-1.2,0.6c0,0,0,0.1,0,0.1l1.2,0.8c0,0,0.1,0,0.2,0l1.2-0.6
							c0,0,0-0.1,0-0.1l-1.2-0.8C372.3,271.2,372.3,271.1,372.2,271.2z"/>
						<path id="Trazado_7764" class="st21" d="M372.9,274.8l1.2-0.6c0,0,0-0.1,0-0.1l-1.2-0.8c0,0-0.1,0-0.2,0l-1.2,0.6
							c0,0,0,0.1,0,0.1l1.2,0.8C372.8,274.8,372.9,274.8,372.9,274.8z"/>
						<path id="Trazado_7765" class="st21" d="M391,264.9l1.2-0.6c0,0,0-0.1,0-0.1l-1.2-0.8c0,0-0.1,0-0.2,0l-1.2,0.6
							c0,0,0,0.1,0,0.1l1.2,0.8C390.9,264.9,391,264.9,391,264.9z"/>
						<path id="Trazado_7766" class="st21" d="M388.5,262.2l-1.2,0.6c0,0,0,0.1,0,0.1l1.2,0.8c0,0,0.1,0,0.2,0l1.2-0.6
							c0,0,0-0.1,0-0.1l-1.2-0.8C388.6,262.2,388.6,262.2,388.5,262.2z"/>
						<path id="Trazado_7767" class="st21" d="M382.2,263.4l-1.2,0.6c0,0,0,0.1,0,0.1l1.2,0.8c0,0,0.1,0,0.2,0l1.2-0.6
							c0,0,0-0.1,0-0.1l-1.2-0.8C382.3,263.4,382.3,263.4,382.2,263.4z"/>
						<path id="Trazado_7768" class="st21" d="M393.5,259.5l-2.5,1.4c0,0,0,0.1,0,0.1l1.2,0.8c0,0,0.1,0,0.2,0l2.5-1.4
							c0,0,0-0.1,0-0.1l-1.2-0.8C393.6,259.5,393.6,259.5,393.5,259.5z"/>
						<path id="Trazado_7769" class="st21" d="M380.4,264.4l-1.2,0.6c0,0,0,0.1,0,0.1l1.2,0.8c0,0,0.1,0,0.2,0l1.2-0.6
							c0,0,0-0.1,0-0.1l-1.2-0.8C380.5,264.4,380.4,264.4,380.4,264.4z"/>
						<path id="Trazado_7770" class="st21" d="M390.3,261.2l-1.2,0.6c0,0,0,0.1,0,0.1l1.2,0.8c0,0,0.1,0,0.2,0l1.2-0.6
							c0,0,0-0.1,0-0.1l-1.2-0.8C390.4,261.2,390.4,261.2,390.3,261.2z"/>
						<path id="Trazado_7771" class="st21" d="M376.4,271.2l-1.2,0.6c0,0,0,0.1,0,0.1l1.2,0.8c0,0,0.1,0,0.2,0l1.2-0.6
							c0,0,0-0.1,0-0.1l-1.2-0.8C376.5,271.2,376.4,271.2,376.4,271.2z"/>
						<path id="Trazado_7772" class="st21" d="M383.1,265.2l-1.2,0.6c0,0,0,0.1,0,0.1l1.2,0.8c0,0,0.1,0,0.2,0l1.2-0.6
							c0,0,0-0.1,0-0.1l-1.2-0.8C383.2,265.2,383.2,265.2,383.1,265.2z"/>
						<path id="Trazado_7773" class="st21" d="M379.5,267.2l-1.2,0.6c0,0,0,0.1,0,0.1l1.2,0.8c0,0,0.1,0,0.2,0l1.2-0.6
							c0,0,0-0.1,0-0.1l-1.2-0.8C379.6,267.2,379.5,267.2,379.5,267.2z"/>
						<path id="Trazado_7774" class="st21" d="M381.3,266.2l-1.2,0.6c0,0,0,0.1,0,0.1l1.2,0.8c0,0,0.1,0,0.2,0l1.2-0.6
							c0,0,0-0.1,0-0.1l-1.2-0.8C381.4,266.2,381.3,266.2,381.3,266.2z"/>
						<path id="Trazado_7775" class="st21" d="M377.7,268.2l-1.2,0.6c0,0,0,0.1,0,0.1l1.2,0.8c0,0,0.1,0,0.2,0l1.2-0.6
							c0,0,0-0.1,0-0.1l-1.2-0.8C377.8,268.2,377.7,268.2,377.7,268.2z"/>
						<path id="Trazado_7776" class="st21" d="M367.9,273.5c0,0,0,0.1,0,0.1l1.2,0.8c0,0,0.1,0,0.2,0l2.5-1.4c0,0,0-0.1,0-0.1
							l-1.2-0.8c0,0-0.1,0-0.2,0L367.9,273.5z"/>
						<path id="Trazado_7777" class="st21" d="M369.8,274.8c0,0,0,0.1,0,0.1l1.2,0.8c0,0,0.1,0,0.2,0l1.2-0.6c0,0,0-0.1,0-0.1
							l-1.2-0.8c0,0-0.1,0-0.2,0L369.8,274.8z"/>
						<path id="Trazado_7778" class="st21" d="M383.8,268.8l1.2-0.6c0,0,0-0.1,0-0.1l-1.2-0.8c0,0-0.1,0-0.2,0l-1.2,0.6
							c0,0,0,0.1,0,0.1l1.2,0.8C383.7,268.9,383.7,268.9,383.8,268.8z"/>
						<path id="Trazado_7779" class="st21" d="M382,269.8l1.2-0.6c0,0,0-0.1,0-0.1l-1.2-0.8c0,0-0.1,0-0.2,0l-1.2,0.6
							c0,0,0,0.1,0,0.1l1.2,0.8C381.9,269.8,381.9,269.8,382,269.8z"/>
						<path id="Trazado_7780" class="st21" d="M384.9,264.2l-1.2,0.6c0,0,0,0.1,0,0.1l1.2,0.8c0,0,0.1,0,0.2,0l1.2-0.6
							c0,0,0-0.1,0-0.1l-1.2-0.8C385,264.2,385,264.2,384.9,264.2z"/>
						<path id="Trazado_7781" class="st21" d="M385.6,267.8l1.2-0.6c0,0,0-0.1,0-0.1l-1.2-0.8c0,0-0.1,0-0.2,0l-1.2,0.6
							c0,0,0,0.1,0,0.1l1.2,0.8C385.5,267.8,385.6,267.9,385.6,267.8z"/>
						<path id="Trazado_7782" class="st21" d="M380.2,270.8l1.2-0.6c0,0,0-0.1,0-0.1l-1.2-0.8c0,0-0.1,0-0.2,0l-1.2,0.6
							c0,0,0,0.1,0,0.1l1.2,0.8C380.1,270.8,380.1,270.8,380.2,270.8z"/>
						<path id="Trazado_7783" class="st21" d="M372.9,277.1l2.2-1.2c0,0,0-0.1,0-0.1l-1.2-0.8c0,0-0.1,0-0.2,0l-2.2,1.2
							c0,0,0,0.1,0,0.1l1.2,0.8C372.8,277.1,372.8,277.1,372.9,277.1z"/>
						<path id="Trazado_7784" class="st21" d="M378.2,270.2l-1.2,0.6c0,0,0,0.1,0,0.1l1.2,0.8c0,0,0.1,0,0.2,0l1.2-0.6
							c0,0,0-0.1,0-0.1l-1.2-0.8C378.3,270.2,378.2,270.2,378.2,270.2z"/>
					</g>
					<path id="Trazado_7785" class="st21" d="M411.9,251.5l-1.2-1c0,0-29.7,17.9-30,18S368,282.9,368,282.9l1.3,1.7l12.5-15.2
						L411.9,251.5z"/>
					<path id="Trazado_7786" class="st22" d="M411.9,251.5l-10.7,14.4l-31.9,18.8l12.6-15.5L411.9,251.5z"/>
					<path id="Trazado_7787" class="st21" d="M390,267.4c-1.1,1.8-1,3.3,0.2,3.3s3.2-1.5,4.3-3.3s1-3.3-0.2-3.3
						S391.1,265.6,390,267.4z"/>
				</g>
				
					<linearGradient id="Trazado_7788_1_" gradientUnits="userSpaceOnUse" x1="-289.8046" y1="690.9332" x2="-288.8046" y2="690.9332" gradientTransform="matrix(9.8129 0 0 -3.705 6108.1152 2821.9761)">
					<stop  offset="0" style="stop-color:#FFB0C1"/>
					<stop  offset="1" style="stop-color:#FF9CA8"/>
				</linearGradient>
				<path id="Trazado_7788" class="st25" d="M356,262.1c0.2-0.1,5.3-1.9,5.3-1.9s4.7,1.3,4.5,1.3s-0.3,1.1-2.3,0.9
					c-0.3,0-2.1-0.3-2.1-0.3l-2.3,1.9L356,262.1z"/>
				<path id="Trazado_7789" class="st18" d="M373.1,247.9l0.5,3l-1.9,3.8c0,1.5,0,3-0.2,4.4c2.8,0.5,2.1-3.3,2.1-3.3
					s0.8-1.1,1.2-1.1c1.1,0,1.4,4,1.4,4s0.4,6.7,1.3,6.7s0-6.2,0.9-6.6s1,6.6,2.3,6.8s-0.9-6.5-0.2-6.9s1.7,6.1,2.9,6
					s-1.5-5.5-1.1-6.1s2.4,3.7,3.1,3.4s-4.1-10.1-4.1-10.1s-3.1-4.9-3.2-5S373.1,247.9,373.1,247.9z"/>
				<path id="Trazado_7790" class="st18" d="M347.5,266.7c0.1,0,2.9,0.5,2.9,0.5s1.6,2.2,3,2.4c1.7,0.1,3.5,0.1,5.2,0
					c0,0,4,2.6,5.3,2.3s-4.2-3.4-3.9-3.7c0.6-0.7,7.1,3.6,7.8,2.6s-5.9-3.4-5.7-4s7.1,2.5,7.9,1.8s-6.3-3-6.2-3.4s5.7,1.5,5.9,0.5
					s-10.5-3.8-12.4-3.8c-0.1,0-7.1,0.6-7.1,0.6L347.5,266.7z"/>
				<path id="Trazado_7791" class="st18" d="M343.6,199.8c0,0,9.3-1.8,19.5,9.7c3.7,4,6.9,8.6,9.5,13.4c1.1,2.3,6.1,24.9,6.1,24.9
					l-5.4,0.6c0,0-8.2-21.4-9.6-23s-20.1-16.2-20.1-16.2L343.6,199.8z"/>
				<path id="Trazado_7792" class="st1" d="M359.7,214.7c1.3-1.6,2.5-3.2,3.8-4.8c-0.1-0.2-0.2-0.3-0.4-0.5
					c-10.2-11.6-19.5-9.7-19.5-9.7v9.5c0,0,6.7,5.2,12.3,9.7C357.2,217.4,358.7,216,359.7,214.7z"/>
				<path id="Trazado_7793" class="st26" d="M344.2,205.6c0.9,0.8,1.9,1.4,3,2c5.5,3.3,10.8,7.1,12.7,13.4c0.1,0.4,0.2,0.8,0.2,1.2
					c-5.8-4.8-16.5-13.1-16.5-13.1v-4.1C343.8,205.3,344,205.5,344.2,205.6z"/>
				<path id="Trazado_7794" class="st27" d="M351.6,206.4c0-3.7-5.7-8.9-14.9-5.5s-17.7,9.5-20.5,12.9s6.6,19.3,8.5,25
					s4,15,3.6,19.1c-0.4,4.1,13.8,2.2,20.8-3.9s5.9-9.3,5.9-9.3s-4.3-9.6-4.6-15c3.5-1.5,4.6-4.1,3.4-7.1
					C352.9,220.1,351.6,219,351.6,206.4z"/>
				<path id="Trazado_7795" class="st26" d="M346.4,232.4c-2.9,1.6-5.2,3.5-7.2,4.6s-9.1,2.7-10.4-4.8c-1.7-10-3.4-11.5-3.4-11.5
					l-3.8,6.5l1,8.6c0,0,5.9,10.4,5.5,19c2.8,4.4,5.9,4,5.9,4s-0.8-9.9,2.8-15.1C340.9,237.8,345.4,236,346.4,232.4z"/>
				<path id="Trazado_7796" class="st18" d="M351.1,262.6c0,0-22.5-7.9-29.7-10.3c-1.2-0.4-2-1.7-1.7-3c1.3-6.4,5-24.7,5.8-28.5
					c0.9-4.6-1.8-6.5-4.8-7.4s-4.7-0.1-6.1,2s-7.1,36.2-4.9,41.1c2.2,4.9,39.2,10.4,39.2,10.4L351.1,262.6z"/>
				<path id="Trazado_7797" class="st1" d="M316.4,240.7c1.6,0.4,3.4,0.7,5,1c1.6-7.9,3.7-18.3,4.3-21c0.9-4.6-2-6.5-5-7.4
					s-4.7-0.1-6.1,2c-0.8,1.2-3,13-4.3,23.7C312.3,239.5,314.3,240.2,316.4,240.7z"/>
				<path id="Trazado_7798" class="st20" d="M386,322.8l-1.5-0.8l-2.3,8.4l15.3,14.4c0.7,0.7,1.8,0.6,2.5-0.1
					c0.2-0.2,0.4-0.6,0.4-0.9c0.1-0.4,0.1-0.8,0-1.2c-0.5-2.3-6.9-13.4-6.9-13.4l-1.4-5.5l-1.8-0.1c0,0-1.9,2.3-3.3,1.9
					S386,322.8,386,322.8z"/>
				<path id="Trazado_7799" class="st20" d="M381.9,332.9l-2.2,1.1c0,0,0.1,2.9-1.7,3.1s-2-2.8-2-2.8l-1.2-0.3l0.2,8.3l15.3,11.6
					c0.9,0.7,2.1,0.5,2.7-0.4c0,0,0.1-0.1,0.1-0.1c0.7-0.9,0.9-2.1,0.4-3.2c-1.1-2.5-8.2-11.1-8.2-11.1L381.9,332.9z"/>
				
					<linearGradient id="Trazado_7800_1_" gradientUnits="userSpaceOnUse" x1="-295.9216" y1="755.5481" x2="-294.9216" y2="755.5481" gradientTransform="matrix(9.972 0 0 -15.2842 6191.1714 11750.9199)">
					<stop  offset="0" style="stop-color:#FFB0C1"/>
					<stop  offset="1" style="stop-color:#FF9CA8"/>
				</linearGradient>
				<path id="Trazado_7800" class="st28" d="M333.6,204.8c-2.3,3.1,4.6,7.3,6.1,5.2l3.4-4.9l-4.8-9.8
					C338.3,195.3,334.6,203.4,333.6,204.8z"/>
				<path id="Trazado_7801" class="st18" d="M340.2,202.5l0.5,4c0,0,5.6,5.7,8.2,5.7s4.9-2.8,5.4-3.8c0.3-0.9,0.5-1.7,0.5-2.7
					l2.7-3.5c0,0-6.8-7.1-6.9-7.2s-10.5,4.2-10.5,4.2L340.2,202.5z"/>
				<path id="Trazado_7802" class="st12" d="M356.1,183.6c0,0,7.6,2.4,8.7,8.7c1,6.1-1.7,10.2-4.6,11.2s-8.4-2.1-9.3-4.4
					c-2.6,2.8-3.7,2.8-3.7,2.8s-3.3-0.2-3.5-0.2s-1.9,1.1-2.6,1s-0.4-3.1-1-3.9s-2.2,0.7-2.2,0.7s-4.8-7.9-1-14.6s13.2-5.8,13.2-5.8
					S353.3,179.5,356.1,183.6z"/>
				<path id="Trazado_7803" class="st18" d="M340.7,201.9c0.3-1.3,0.3-3.5-1-3.8s-2.1,1.4-2,2.8s1.3,3,1.8,3.1
					S340.4,203.2,340.7,201.9z"/>
				<path id="Trazado_7804" class="st12" d="M345.2,180.2c0,0,0.4-7.5-6.5-8.7s-10.2,3.3-10.2,8.7s1.9,9.5,1.8,13.2
					c-0.1,3.4-1.7,4.7-1.1,5.4s5.7-2.8,5.3-8.2s-0.7-9.4,2.4-10.9c1.8-0.8,3.9-0.2,4.9,1.5L345.2,180.2z"/>
				
					<linearGradient id="Trazado_7805_1_" gradientUnits="userSpaceOnUse" x1="1012.2061" y1="700.2038" x2="1013.2061" y2="700.2038" gradientTransform="matrix(2.1979 0 0 -4.1568 1033.6656 3119.0891)">
					<stop  offset="0" style="stop-color:#FFB0C1"/>
					<stop  offset="1" style="stop-color:#FF9CA8"/>
				</linearGradient>
				<path id="Trazado_7805" class="st29" d="M353.6,206.4c-0.9,0.9-1.7,2-2.2,3.2c-0.2,0.6,1.4,1.2,1.9,0.7S353.2,208,353.6,206.4z"
					/>
			</g>
		</g>
	</g>
</g>
</svg>
