<svg id="Grupo_1136" data-name="Grupo 1136" xmlns="http://www.w3.org/2000/svg" width="139.683" height="139.683" viewBox="0 0 139.683 139.683">
  <circle id="Elipse_522" data-name="Elipse 522" cx="69.841" cy="69.841" r="69.841" fill="#57b8e8"/>
  <circle id="Elipse_523" data-name="Elipse 523" cx="62.739" cy="62.739" r="62.739" transform="translate(7.103 7.103)" fill="#fff"/>
  <g id="Grupo_1185" data-name="Grupo 1185" transform="translate(-3106.525 -462.787)">
    <g id="Grupo_1184" data-name="Grupo 1184">
      <path id="Trazado_6313" data-name="Trazado 6313" d="M3172.938,518.894l-3.271,7.2a2.544,2.544,0,0,1-4.8-.661l-3.8-24.76c-.4-2.6-4.43-1.98-4.03.62l3.274,21.264a1.182,1.182,0,0,1-2.336.359l-4.007-26.043c-.4-2.6-4.431-1.98-4.031.62l4.006,26.045a1.182,1.182,0,0,1-2.336.36l-3.517-22.861c-.4-2.6-4.431-1.98-4.031.62l1.225,7.956,2.293,14.9a1.181,1.181,0,0,1-2.334.36l-2.294-14.9c-.4-2.6-4.431-1.98-4.032.62l3.717,24.114a28.3,28.3,0,0,0,3.332,9.636,1.194,1.194,0,0,1,.15.63l-.388,9.372,13.786-2.121a1.182,1.182,0,0,1,.359,2.334l-14.245,2.192-.154,3.749a.32.32,0,0,0,0,.063.4.4,0,0,0,.45.343L3172.6,556.8a.336.336,0,0,0,.069-.02.4.4,0,0,0,.23-.516l-1.408-3.495-4.374.674a1.182,1.182,0,0,1-.361-2.336l3.827-.588-3.407-8.448v0a1.176,1.176,0,0,1,.024-.936l6.446-14.02a4.418,4.418,0,0,1,1.881-3.973,10.619,10.619,0,0,1,1.123-2.558C3177.744,518.184,3174.026,516.505,3172.938,518.894Z" fill="#28a2db"/>
      <path id="Trazado_6314" data-name="Trazado 6314" d="M3211.375,534.058l3.375-12.113c.705-2.535-3.221-3.631-3.928-1.1l-4.048,14.527a1.181,1.181,0,0,1-2.275-.634l4.047-14.522,2.161-7.754c.705-2.538-3.224-3.632-3.93-1.1l-6.205,22.282a1.183,1.183,0,0,1-2.277-.634l7.072-25.383c.718-2.58-3.233-3.594-3.929-1.094l-1.3,4.653-5.777,20.729a1.182,1.182,0,0,1-2.276-.633l5.776-20.73c.719-2.581-3.234-3.588-3.928-1.094l-6.717,24.133a2.546,2.546,0,0,1-4.846.086l-2.392-7.543c-.8-2.506-4.676-1.243-3.884,1.241l6.95,21.529a1.186,1.186,0,0,1-.088.933l-4.387,7.984,24.229,6.749.73-9.349a1.186,1.186,0,0,1,.225-.606,28.346,28.346,0,0,0,4.453-9.173l1.2-4.3a1.181,1.181,0,0,1,1.411-.8,1.115,1.115,0,0,1,.293.139l1.348-4.99a1.091,1.091,0,0,1-.214-.01A1.181,1.181,0,0,1,3211.375,534.058Z" fill="#28a2db"/>
      <path id="Trazado_6315" data-name="Trazado 6315" d="M3175.582,563.251a.373.373,0,0,0-.029.071.4.4,0,0,0,.267.5l26,7.241a.365.365,0,0,0,.065.011.4.4,0,0,0,.435-.36l.29-3.741-25.214-7.02Z" fill="#28a2db"/>
    </g>
    <g id="Grupo_1135" data-name="Grupo 1135">
      <path id="Trazado_6208" data-name="Trazado 6208" d="M3213.947,517.155a4.364,4.364,0,0,0-2.1-.064l1.114-4a80.842,80.842,0,0,1-9.14-10.381,4.4,4.4,0,0,0-.7-.022c-2.43.144-3.639,1.972-4.232,4.1a4.448,4.448,0,0,0-7.252,2.031l-6.718,24.134a.165.165,0,0,1-.316.006l-2.394-7.545a4.406,4.406,0,0,0-3.8-3.047l.373-.811a4.4,4.4,0,1,0-8.012-3.65l-3.271,7.206a.165.165,0,0,1-.314-.043l-3.8-24.762a4.449,4.449,0,0,0-6.959-2.878c-.335-2.172-1.291-4.132-3.685-4.576a4.451,4.451,0,0,0-5.145,3.624,4.532,4.532,0,0,0-.065.718,4.446,4.446,0,0,0-5.824,4.819l.631,4.1a4.444,4.444,0,0,0-5.773,4.837l3.711,24.109a30.734,30.734,0,0,0,3.442,10.14l-.629,15.193a2.785,2.785,0,0,0,2.7,2.865,2.746,2.746,0,0,0,.471-.026l26.67-4.1a2.785,2.785,0,0,0,2.288-3.207,2.722,2.722,0,0,0-.15-.548l-5.533-13.722,5.092-11.062,5.99,18.555-7.123,12.967a2.788,2.788,0,0,0,1.676,3.983l26,7.241a2.785,2.785,0,0,0,3.489-2.442l1.178-15.161a30.675,30.675,0,0,0,4.624-9.659l1.2-4.3a1.182,1.182,0,0,0-2.276-.635l-1.2,4.3a28.348,28.348,0,0,1-4.452,9.173,1.178,1.178,0,0,0-.225.606l-.731,9.349-24.228-6.749,4.386-7.984a1.183,1.183,0,0,0,.089-.933l-6.951-21.529c-.792-2.484,3.086-3.747,3.885-1.241l2.391,7.543a2.546,2.546,0,0,0,4.846-.086l6.717-24.133c.7-2.494,4.647-1.487,3.929,1.094l-5.776,20.73a1.182,1.182,0,0,0,2.276.633l5.776-20.729h0l1.3-4.653c.695-2.5,4.647-1.486,3.928,1.094l-7.071,25.383a1.182,1.182,0,0,0,2.276.634l6.206-22.282c.706-2.532,4.634-1.438,3.929,1.1l-2.16,7.754h0l-4.048,14.522a1.182,1.182,0,0,0,2.276.634l4.047-14.527c.708-2.531,4.633-1.435,3.928,1.1l-3.375,12.113a1.182,1.182,0,0,0,2.276.634l3.375-12.113a4.4,4.4,0,0,0-3.055-5.421h0Zm-11.353,49.816-.29,3.741a.4.4,0,0,1-.436.36.355.355,0,0,1-.064-.011l-26-7.241a.4.4,0,0,1-.268-.5.449.449,0,0,1,.029-.071l1.814-3.3Zm-35.437-24.9,3.407,8.448-3.826.588a1.182,1.182,0,0,0,.36,2.336l4.374-.674,1.409,3.495a.4.4,0,0,1-.231.516.321.321,0,0,1-.069.02l-26.671,4.105a.4.4,0,0,1-.449-.343.455.455,0,0,1,0-.063l.155-3.749,14.244-2.192a1.182,1.182,0,0,0-.359-2.334l-13.786,2.121.388-9.372a1.178,1.178,0,0,0-.15-.63,28.34,28.34,0,0,1-3.332-9.636l-3.716-24.114c-.4-2.6,3.629-3.221,4.031-.62l2.294,14.9a1.181,1.181,0,0,0,2.334-.36l-2.293-14.9h0l-1.225-7.956c-.4-2.6,3.632-3.219,4.031-.62l3.518,22.861a1.182,1.182,0,0,0,2.336-.36l-4.007-26.045c-.4-2.6,3.629-3.221,4.031-.62l4.007,26.043a1.182,1.182,0,0,0,2.336-.359l-3.274-21.264c-.4-2.6,3.631-3.221,4.031-.62l3.8,24.76a2.545,2.545,0,0,0,4.8.661l3.27-7.2c1.089-2.389,4.806-.71,3.712,1.688a10.609,10.609,0,0,0-1.123,2.558,4.421,4.421,0,0,0-1.882,3.973l-6.446,14.02a1.185,1.185,0,0,0-.024.936Z" fill="#0b2d4e"/>
    </g>
  </g>
</svg>
