<svg xmlns="http://www.w3.org/2000/svg" width="919.973" height="139.069" viewBox="0 0 919.973 139.069">
  <g id="Grupo_1455" data-name="Grupo 1455" transform="translate(2308.72 -1520.022)">
    <g id="Durante_el_traslado_asistencial_a_los_pacientes_con_COVID-19_presunta_o_confirmada_a_menudo_el_personal_debe_realizar_la_asistencia_en_circunstancias_" data-name="Durante el traslado asistencial a los pacientes con COVID-19 presunta o confirmada a menudo el personal debe realizar la asistencia en circunstancias " style="isolation: isolate">
      <g id="Grupo_1456" data-name="Grupo 1456" style="isolation: isolate">
        <path id="Trazado_7446" data-name="Trazado 7446" d="M-2108.724,1565.544a6.482,6.482,0,0,1-1.727,4.864,6.829,6.829,0,0,1-4.97,1.684h-3.559v-12.85h3.937a6.3,6.3,0,0,1,4.658,1.661A6.273,6.273,0,0,1-2108.724,1565.544Zm-1.582.053a5.172,5.172,0,0,0-1.261-3.788,5.053,5.053,0,0,0-3.748-1.275h-2.171V1570.8h1.819a5.534,5.534,0,0,0,4.017-1.314A5.2,5.2,0,0,0-2110.306,1565.6Z" fill="#00223d"/>
        <path id="Trazado_7447" data-name="Trazado 7447" d="M-2104.707,1562.459v6.249a2.516,2.516,0,0,0,.536,1.758,2.184,2.184,0,0,0,1.679.58,2.737,2.737,0,0,0,2.21-.826,4.167,4.167,0,0,0,.7-2.7v-5.062h1.459v9.633h-1.2l-.211-1.292h-.079a2.917,2.917,0,0,1-1.244,1.09,4.178,4.178,0,0,1-1.815.378,3.684,3.684,0,0,1-2.632-.835,3.556,3.556,0,0,1-.875-2.672v-6.3Z" fill="#00223d"/>
        <path id="Trazado_7448" data-name="Trazado 7448" d="M-2090.636,1562.283a5.661,5.661,0,0,1,1.152.106l-.2,1.353a4.966,4.966,0,0,0-1.054-.132,2.568,2.568,0,0,0-2,.95,3.461,3.461,0,0,0-.83,2.364v5.168h-1.459v-9.633h1.2l.167,1.784h.07a4.243,4.243,0,0,1,1.292-1.45A2.909,2.909,0,0,1-2090.636,1562.283Z" fill="#00223d"/>
        <path id="Trazado_7449" data-name="Trazado 7449" d="M-2081.759,1572.092l-.29-1.371h-.07a4.072,4.072,0,0,1-1.437,1.226,4.4,4.4,0,0,1-1.789.321,3.217,3.217,0,0,1-2.245-.739,2.692,2.692,0,0,1-.813-2.1q0-2.919,4.667-3.059l1.634-.053v-.6a2.445,2.445,0,0,0-.487-1.675,2.013,2.013,0,0,0-1.56-.54,6.36,6.36,0,0,0-2.725.738l-.448-1.116a6.809,6.809,0,0,1,1.56-.606,6.729,6.729,0,0,1,1.7-.22,3.675,3.675,0,0,1,2.554.764,3.2,3.2,0,0,1,.83,2.453v6.574Zm-3.3-1.029a2.959,2.959,0,0,0,2.14-.747,2.761,2.761,0,0,0,.778-2.091v-.871l-1.459.062a5.309,5.309,0,0,0-2.509.541,1.628,1.628,0,0,0-.769,1.489,1.5,1.5,0,0,0,.479,1.2A1.984,1.984,0,0,0-2085.055,1571.063Z" fill="#00223d"/>
        <path id="Trazado_7450" data-name="Trazado 7450" d="M-2071.08,1572.092v-6.232a2.513,2.513,0,0,0-.536-1.757,2.184,2.184,0,0,0-1.679-.581,2.769,2.769,0,0,0-2.215.818,4.125,4.125,0,0,0-.7,2.7v5.054h-1.459v-9.633h1.187l.237,1.318h.07a2.994,2.994,0,0,1,1.257-1.1,4.094,4.094,0,0,1,1.8-.391,3.657,3.657,0,0,1,2.619.84,3.572,3.572,0,0,1,.879,2.685v6.284Z" fill="#00223d"/>
        <path id="Trazado_7451" data-name="Trazado 7451" d="M-2063.513,1571.063a4.644,4.644,0,0,0,.747-.057,4.625,4.625,0,0,0,.572-.118V1572a2.692,2.692,0,0,1-.7.189,5.361,5.361,0,0,1-.831.075q-2.794,0-2.795-2.945v-5.73h-1.379v-.7l1.379-.607.616-2.056h.843v2.232h2.8v1.134h-2.8v5.669a1.948,1.948,0,0,0,.414,1.336A1.437,1.437,0,0,0-2063.513,1571.063Z" fill="#00223d"/>
        <path id="Trazado_7452" data-name="Trazado 7452" d="M-2056.2,1572.268a4.427,4.427,0,0,1-3.371-1.3,5.037,5.037,0,0,1-1.235-3.613,5.588,5.588,0,0,1,1.147-3.7,3.811,3.811,0,0,1,3.081-1.371,3.633,3.633,0,0,1,2.865,1.192,4.563,4.563,0,0,1,1.055,3.141v.923h-6.636a3.817,3.817,0,0,0,.857,2.575,2.964,2.964,0,0,0,2.29.879,7.769,7.769,0,0,0,3.076-.65v1.3a7.882,7.882,0,0,1-1.464.479A8.278,8.278,0,0,1-2056.2,1572.268Zm-.4-8.763a2.383,2.383,0,0,0-1.85.756,3.484,3.484,0,0,0-.813,2.092h5.036a3.216,3.216,0,0,0-.615-2.115A2.169,2.169,0,0,0-2056.6,1563.505Z" fill="#00223d"/>
        <path id="Trazado_7453" data-name="Trazado 7453" d="M-2041.426,1572.268a4.425,4.425,0,0,1-3.37-1.3,5.033,5.033,0,0,1-1.235-3.613,5.583,5.583,0,0,1,1.147-3.7,3.808,3.808,0,0,1,3.08-1.371,3.636,3.636,0,0,1,2.866,1.192,4.562,4.562,0,0,1,1.054,3.141v.923h-6.636a3.822,3.822,0,0,0,.857,2.575,2.965,2.965,0,0,0,2.29.879,7.77,7.77,0,0,0,3.076-.65v1.3a7.878,7.878,0,0,1-1.463.479A8.279,8.279,0,0,1-2041.426,1572.268Zm-.4-8.763a2.381,2.381,0,0,0-1.85.756,3.484,3.484,0,0,0-.813,2.092h5.036a3.215,3.215,0,0,0-.615-2.115A2.171,2.171,0,0,0-2041.821,1563.505Z" fill="#00223d"/>
        <path id="Trazado_7454" data-name="Trazado 7454" d="M-2033.938,1572.092h-1.458v-13.676h1.458Z" fill="#00223d"/>
        <path id="Trazado_7455" data-name="Trazado 7455" d="M-2023.057,1571.063a4.645,4.645,0,0,0,.747-.057,4.635,4.635,0,0,0,.572-.118V1572a2.682,2.682,0,0,1-.7.189,5.352,5.352,0,0,1-.831.075q-2.795,0-2.8-2.945v-5.73h-1.379v-.7l1.379-.607.616-2.056h.843v2.232h2.8v1.134h-2.8v5.669a1.949,1.949,0,0,0,.414,1.336A1.437,1.437,0,0,0-2023.057,1571.063Z" fill="#00223d"/>
        <path id="Trazado_7456" data-name="Trazado 7456" d="M-2015.419,1562.283a5.643,5.643,0,0,1,1.151.106l-.2,1.353a4.967,4.967,0,0,0-1.054-.132,2.568,2.568,0,0,0-2,.95,3.456,3.456,0,0,0-.83,2.364v5.168h-1.459v-9.633h1.2l.167,1.784h.07a4.229,4.229,0,0,1,1.292-1.45A2.909,2.909,0,0,1-2015.419,1562.283Z" fill="#00223d"/>
        <path id="Trazado_7457" data-name="Trazado 7457" d="M-2006.542,1572.092l-.29-1.371h-.07a4.07,4.07,0,0,1-1.437,1.226,4.4,4.4,0,0,1-1.789.321,3.22,3.22,0,0,1-2.246-.739,2.692,2.692,0,0,1-.813-2.1q0-2.919,4.667-3.059l1.635-.053v-.6a2.44,2.44,0,0,0-.488-1.675,2.01,2.01,0,0,0-1.56-.54,6.355,6.355,0,0,0-2.724.738l-.448-1.116a6.806,6.806,0,0,1,1.56-.606,6.73,6.73,0,0,1,1.7-.22,3.671,3.671,0,0,1,2.553.764,3.193,3.193,0,0,1,.831,2.453v6.574Zm-3.3-1.029a2.961,2.961,0,0,0,2.14-.747,2.761,2.761,0,0,0,.778-2.091v-.871l-1.459.062a5.309,5.309,0,0,0-2.509.541,1.627,1.627,0,0,0-.769,1.489,1.5,1.5,0,0,0,.479,1.2A1.984,1.984,0,0,0-2009.838,1571.063Z" fill="#00223d"/>
        <path id="Trazado_7458" data-name="Trazado 7458" d="M-1996.241,1569.464a2.412,2.412,0,0,1-1,2.074,4.713,4.713,0,0,1-2.813.73,6.119,6.119,0,0,1-2.988-.607v-1.353a7.2,7.2,0,0,0,1.49.553,6.2,6.2,0,0,0,1.533.2,3.48,3.48,0,0,0,1.758-.364,1.207,1.207,0,0,0,.616-1.112,1.208,1.208,0,0,0-.488-.962,7.65,7.65,0,0,0-1.9-.945,10.242,10.242,0,0,1-1.912-.875,2.6,2.6,0,0,1-.843-.848,2.206,2.206,0,0,1-.277-1.134,2.159,2.159,0,0,1,.958-1.858,4.462,4.462,0,0,1,2.628-.682,7.69,7.69,0,0,1,3.041.633l-.519,1.187a6.971,6.971,0,0,0-2.628-.6,3.021,3.021,0,0,0-1.564.325,1.006,1.006,0,0,0-.528.9,1.093,1.093,0,0,0,.2.659,1.959,1.959,0,0,0,.637.518,14.192,14.192,0,0,0,1.688.712,6.313,6.313,0,0,1,2.316,1.257A2.218,2.218,0,0,1-1996.241,1569.464Z" fill="#00223d"/>
        <path id="Trazado_7459" data-name="Trazado 7459" d="M-1992.409,1572.092h-1.459v-13.676h1.459Z" fill="#00223d"/>
        <path id="Trazado_7460" data-name="Trazado 7460" d="M-1983.392,1572.092l-.29-1.371h-.07a4.054,4.054,0,0,1-1.437,1.226,4.4,4.4,0,0,1-1.789.321,3.217,3.217,0,0,1-2.245-.739,2.692,2.692,0,0,1-.813-2.1q0-2.919,4.667-3.059l1.635-.053v-.6a2.445,2.445,0,0,0-.488-1.675,2.01,2.01,0,0,0-1.56-.54,6.359,6.359,0,0,0-2.725.738l-.448-1.116a6.841,6.841,0,0,1,1.56-.606,6.732,6.732,0,0,1,1.7-.22,3.674,3.674,0,0,1,2.553.764,3.193,3.193,0,0,1,.83,2.453v6.574Zm-3.3-1.029a2.964,2.964,0,0,0,2.141-.747,2.765,2.765,0,0,0,.777-2.091v-.871l-1.459.062a5.309,5.309,0,0,0-2.509.541,1.629,1.629,0,0,0-.769,1.489,1.5,1.5,0,0,0,.479,1.2A1.986,1.986,0,0,0-1986.688,1571.063Z" fill="#00223d"/>
        <path id="Trazado_7461" data-name="Trazado 7461" d="M-1972.748,1570.8h-.079a3.431,3.431,0,0,1-3.024,1.468,3.58,3.58,0,0,1-2.94-1.292,5.69,5.69,0,0,1-1.05-3.674,5.781,5.781,0,0,1,1.055-3.7,3.549,3.549,0,0,1,2.935-1.319,3.5,3.5,0,0,1,3.006,1.424h.115l-.062-.694-.035-.677v-3.92h1.459v13.676h-1.187Zm-2.918.246a2.652,2.652,0,0,0,2.166-.814,4.1,4.1,0,0,0,.673-2.623v-.307a4.838,4.838,0,0,0-.681-2.923,2.59,2.59,0,0,0-2.176-.874,2.235,2.235,0,0,0-1.964,1,4.963,4.963,0,0,0-.681,2.817,4.745,4.745,0,0,0,.677,2.786A2.291,2.291,0,0,0-1975.666,1571.046Z" fill="#00223d"/>
        <path id="Trazado_7462" data-name="Trazado 7462" d="M-1959.96,1567.267a5.314,5.314,0,0,1-1.186,3.678,4.18,4.18,0,0,1-3.279,1.323,4.347,4.347,0,0,1-2.294-.607,4,4,0,0,1-1.547-1.74,6.069,6.069,0,0,1-.545-2.654,5.3,5.3,0,0,1,1.178-3.669,4.166,4.166,0,0,1,3.27-1.315,4.073,4.073,0,0,1,3.212,1.345A5.29,5.29,0,0,1-1959.96,1567.267Zm-7.339,0a4.572,4.572,0,0,0,.738,2.812,2.563,2.563,0,0,0,2.171.967,2.583,2.583,0,0,0,2.176-.962,4.553,4.553,0,0,0,.742-2.817,4.472,4.472,0,0,0-.742-2.79,2.609,2.609,0,0,0-2.193-.955,2.568,2.568,0,0,0-2.162.941A4.52,4.52,0,0,0-1967.3,1567.267Z" fill="#00223d"/>
        <path id="Trazado_7463" data-name="Trazado 7463" d="M-1946.8,1572.092l-.29-1.371h-.07a4.07,4.07,0,0,1-1.437,1.226,4.4,4.4,0,0,1-1.789.321,3.217,3.217,0,0,1-2.245-.739,2.692,2.692,0,0,1-.813-2.1q0-2.919,4.667-3.059l1.634-.053v-.6a2.445,2.445,0,0,0-.487-1.675,2.012,2.012,0,0,0-1.56-.54,6.359,6.359,0,0,0-2.725.738l-.448-1.116a6.806,6.806,0,0,1,1.56-.606,6.732,6.732,0,0,1,1.7-.22,3.674,3.674,0,0,1,2.553.764,3.2,3.2,0,0,1,.83,2.453v6.574Zm-3.3-1.029a2.963,2.963,0,0,0,2.141-.747,2.764,2.764,0,0,0,.777-2.091v-.871l-1.459.062a5.309,5.309,0,0,0-2.509.541,1.627,1.627,0,0,0-.769,1.489,1.5,1.5,0,0,0,.479,1.2A1.984,1.984,0,0,0-1950.1,1571.063Z" fill="#00223d"/>
        <path id="Trazado_7464" data-name="Trazado 7464" d="M-1936.5,1569.464a2.413,2.413,0,0,1-1,2.074,4.71,4.71,0,0,1-2.812.73,6.122,6.122,0,0,1-2.989-.607v-1.353a7.208,7.208,0,0,0,1.49.553,6.21,6.21,0,0,0,1.534.2,3.485,3.485,0,0,0,1.758-.364,1.207,1.207,0,0,0,.615-1.112,1.208,1.208,0,0,0-.488-.962,7.632,7.632,0,0,0-1.9-.945,10.23,10.23,0,0,1-1.911-.875,2.6,2.6,0,0,1-.844-.848,2.206,2.206,0,0,1-.277-1.134,2.159,2.159,0,0,1,.958-1.858,4.467,4.467,0,0,1,2.628-.682,7.687,7.687,0,0,1,3.041.633l-.519,1.187a6.963,6.963,0,0,0-2.628-.6,3.023,3.023,0,0,0-1.564.325,1,1,0,0,0-.527.9,1.1,1.1,0,0,0,.2.659,1.964,1.964,0,0,0,.638.518,14.156,14.156,0,0,0,1.687.712,6.3,6.3,0,0,1,2.316,1.257A2.218,2.218,0,0,1-1936.5,1569.464Z" fill="#00223d"/>
        <path id="Trazado_7465" data-name="Trazado 7465" d="M-1934.252,1559.849a.97.97,0,0,1,.246-.734.861.861,0,0,1,.615-.233.861.861,0,0,1,.607.237.952.952,0,0,1,.255.73.963.963,0,0,1-.255.733.848.848,0,0,1-.607.242.839.839,0,0,1-.615-.242A.983.983,0,0,1-1934.252,1559.849Zm1.582,12.243h-1.459v-9.633h1.459Z" fill="#00223d"/>
        <path id="Trazado_7466" data-name="Trazado 7466" d="M-1923.362,1569.464a2.413,2.413,0,0,1-1,2.074,4.713,4.713,0,0,1-2.813.73,6.12,6.12,0,0,1-2.988-.607v-1.353a7.186,7.186,0,0,0,1.49.553,6.2,6.2,0,0,0,1.533.2,3.479,3.479,0,0,0,1.758-.364,1.206,1.206,0,0,0,.615-1.112,1.206,1.206,0,0,0-.487-.962,7.67,7.67,0,0,0-1.9-.945,10.25,10.25,0,0,1-1.912-.875,2.612,2.612,0,0,1-.844-.848,2.216,2.216,0,0,1-.276-1.134,2.159,2.159,0,0,1,.958-1.858,4.462,4.462,0,0,1,2.628-.682,7.691,7.691,0,0,1,3.041.633l-.519,1.187a6.972,6.972,0,0,0-2.628-.6,3.02,3.02,0,0,0-1.564.325,1.006,1.006,0,0,0-.528.9,1.092,1.092,0,0,0,.2.659,1.959,1.959,0,0,0,.637.518,14.173,14.173,0,0,0,1.688.712,6.313,6.313,0,0,1,2.316,1.257A2.218,2.218,0,0,1-1923.362,1569.464Z" fill="#00223d"/>
        <path id="Trazado_7467" data-name="Trazado 7467" d="M-1917.878,1571.063a4.647,4.647,0,0,0,.747-.057,4.611,4.611,0,0,0,.571-.118V1572a2.684,2.684,0,0,1-.7.189,5.362,5.362,0,0,1-.831.075q-2.795,0-2.8-2.945v-5.73h-1.38v-.7l1.38-.607.615-2.056h.844v2.232h2.8v1.134h-2.8v5.669a1.953,1.953,0,0,0,.413,1.336A1.441,1.441,0,0,0-1917.878,1571.063Z" fill="#00223d"/>
        <path id="Trazado_7468" data-name="Trazado 7468" d="M-1910.565,1572.268a4.427,4.427,0,0,1-3.371-1.3,5.037,5.037,0,0,1-1.235-3.613,5.584,5.584,0,0,1,1.147-3.7,3.811,3.811,0,0,1,3.081-1.371,3.633,3.633,0,0,1,2.865,1.192,4.562,4.562,0,0,1,1.055,3.141v.923h-6.636a3.817,3.817,0,0,0,.857,2.575,2.963,2.963,0,0,0,2.289.879,7.765,7.765,0,0,0,3.076-.65v1.3a7.851,7.851,0,0,1-1.463.479A8.275,8.275,0,0,1-1910.565,1572.268Zm-.4-8.763a2.383,2.383,0,0,0-1.85.756,3.484,3.484,0,0,0-.813,2.092h5.036a3.215,3.215,0,0,0-.615-2.115A2.168,2.168,0,0,0-1910.961,1563.505Z" fill="#00223d"/>
        <path id="Trazado_7469" data-name="Trazado 7469" d="M-1897.944,1572.092v-6.232a2.513,2.513,0,0,0-.536-1.757,2.184,2.184,0,0,0-1.679-.581,2.769,2.769,0,0,0-2.215.818,4.125,4.125,0,0,0-.7,2.7v5.054h-1.459v-9.633h1.186l.238,1.318h.07a2.994,2.994,0,0,1,1.257-1.1,4.092,4.092,0,0,1,1.8-.391,3.657,3.657,0,0,1,2.619.84,3.571,3.571,0,0,1,.879,2.685v6.284Z" fill="#00223d"/>
        <path id="Trazado_7470" data-name="Trazado 7470" d="M-1889.639,1572.268a4.107,4.107,0,0,1-3.238-1.288,5.293,5.293,0,0,1-1.147-3.643,5.459,5.459,0,0,1,1.164-3.735,4.193,4.193,0,0,1,3.318-1.319,6.564,6.564,0,0,1,1.389.15,4.543,4.543,0,0,1,1.09.351l-.449,1.239a6.984,6.984,0,0,0-1.054-.32,4.716,4.716,0,0,0-1.011-.128q-2.936,0-2.936,3.744a4.455,4.455,0,0,0,.717,2.725,2.49,2.49,0,0,0,2.122.949,6.5,6.5,0,0,0,2.47-.518v1.292A5.266,5.266,0,0,1-1889.639,1572.268Z" fill="#00223d"/>
        <path id="Trazado_7471" data-name="Trazado 7471" d="M-1885.042,1559.849a.971.971,0,0,1,.246-.734.861.861,0,0,1,.615-.233.861.861,0,0,1,.607.237.953.953,0,0,1,.255.73.963.963,0,0,1-.255.733.848.848,0,0,1-.607.242.839.839,0,0,1-.615-.242A.984.984,0,0,1-1885.042,1559.849Zm1.582,12.243h-1.459v-9.633h1.459Z" fill="#00223d"/>
        <path id="Trazado_7472" data-name="Trazado 7472" d="M-1874.442,1572.092l-.29-1.371h-.071a4.052,4.052,0,0,1-1.437,1.226,4.389,4.389,0,0,1-1.788.321,3.22,3.22,0,0,1-2.246-.739,2.692,2.692,0,0,1-.813-2.1q0-2.919,4.667-3.059l1.635-.053v-.6a2.446,2.446,0,0,0-.488-1.675,2.011,2.011,0,0,0-1.56-.54,6.359,6.359,0,0,0-2.725.738l-.448-1.116a6.841,6.841,0,0,1,1.56-.606,6.743,6.743,0,0,1,1.7-.22,3.674,3.674,0,0,1,2.553.764,3.193,3.193,0,0,1,.831,2.453v6.574Zm-3.3-1.029a2.962,2.962,0,0,0,2.14-.747,2.765,2.765,0,0,0,.778-2.091v-.871l-1.459.062a5.313,5.313,0,0,0-2.51.541,1.629,1.629,0,0,0-.769,1.489,1.5,1.5,0,0,0,.479,1.2A1.987,1.987,0,0,0-1877.738,1571.063Z" fill="#00223d"/>
        <path id="Trazado_7473" data-name="Trazado 7473" d="M-1868.9,1572.092h-1.459v-13.676h1.459Z" fill="#00223d"/>
        <path id="Trazado_7474" data-name="Trazado 7474" d="M-1855.2,1572.092l-.29-1.371h-.07a4.068,4.068,0,0,1-1.437,1.226,4.4,4.4,0,0,1-1.789.321,3.22,3.22,0,0,1-2.246-.739,2.692,2.692,0,0,1-.813-2.1q0-2.919,4.667-3.059l1.635-.053v-.6a2.44,2.44,0,0,0-.488-1.675,2.01,2.01,0,0,0-1.56-.54,6.355,6.355,0,0,0-2.724.738l-.449-1.116a6.841,6.841,0,0,1,1.56-.606,6.743,6.743,0,0,1,1.7-.22,3.671,3.671,0,0,1,2.553.764,3.193,3.193,0,0,1,.831,2.453v6.574Zm-3.3-1.029a2.961,2.961,0,0,0,2.14-.747,2.761,2.761,0,0,0,.778-2.091v-.871l-1.459.062a5.306,5.306,0,0,0-2.509.541,1.627,1.627,0,0,0-.769,1.489,1.5,1.5,0,0,0,.479,1.2A1.984,1.984,0,0,0-1858.5,1571.063Z" fill="#00223d"/>
        <path id="Trazado_7475" data-name="Trazado 7475" d="M-1844.981,1572.092h-1.459v-13.676h1.459Z" fill="#00223d"/>
        <path id="Trazado_7476" data-name="Trazado 7476" d="M-1833.573,1567.267a5.314,5.314,0,0,1-1.187,3.678,4.178,4.178,0,0,1-3.278,1.323,4.347,4.347,0,0,1-2.294-.607,4,4,0,0,1-1.547-1.74,6.071,6.071,0,0,1-.545-2.654,5.3,5.3,0,0,1,1.178-3.669,4.165,4.165,0,0,1,3.269-1.315,4.074,4.074,0,0,1,3.213,1.345A5.289,5.289,0,0,1-1833.573,1567.267Zm-7.339,0a4.571,4.571,0,0,0,.738,2.812,2.561,2.561,0,0,0,2.171.967,2.58,2.58,0,0,0,2.175-.962,4.553,4.553,0,0,0,.743-2.817,4.472,4.472,0,0,0-.743-2.79,2.609,2.609,0,0,0-2.193-.955,2.569,2.569,0,0,0-2.162.941A4.528,4.528,0,0,0-1840.912,1567.267Z" fill="#00223d"/>
        <path id="Trazado_7477" data-name="Trazado 7477" d="M-1824.8,1569.464a2.413,2.413,0,0,1-1,2.074,4.71,4.71,0,0,1-2.812.73,6.114,6.114,0,0,1-2.988-.607v-1.353a7.178,7.178,0,0,0,1.489.553,6.217,6.217,0,0,0,1.534.2,3.48,3.48,0,0,0,1.758-.364,1.206,1.206,0,0,0,.615-1.112,1.207,1.207,0,0,0-.488-.962,7.632,7.632,0,0,0-1.9-.945,10.265,10.265,0,0,1-1.911-.875,2.612,2.612,0,0,1-.844-.848,2.207,2.207,0,0,1-.277-1.134,2.159,2.159,0,0,1,.958-1.858,4.466,4.466,0,0,1,2.628-.682,7.687,7.687,0,0,1,3.041.633l-.518,1.187a6.972,6.972,0,0,0-2.628-.6,3.024,3.024,0,0,0-1.565.325,1.007,1.007,0,0,0-.527.9,1.092,1.092,0,0,0,.2.659,1.948,1.948,0,0,0,.637.518,14.137,14.137,0,0,0,1.687.712,6.3,6.3,0,0,1,2.316,1.257A2.213,2.213,0,0,1-1824.8,1569.464Z" fill="#00223d"/>
        <path id="Trazado_7478" data-name="Trazado 7478" d="M-1813.271,1572.268a4.181,4.181,0,0,1-1.718-.348,3.236,3.236,0,0,1-1.3-1.067h-.105a12.948,12.948,0,0,1,.105,1.6v3.964h-1.459v-13.957h1.187l.2,1.318h.07a3.387,3.387,0,0,1,1.31-1.142,3.97,3.97,0,0,1,1.713-.352,3.56,3.56,0,0,1,2.958,1.31,5.766,5.766,0,0,1,1.042,3.674,5.727,5.727,0,0,1-1.06,3.686A3.564,3.564,0,0,1-1813.271,1572.268Zm-.21-8.746a2.585,2.585,0,0,0-2.136.818,4.2,4.2,0,0,0-.677,2.6v.326a4.823,4.823,0,0,0,.677,2.905,2.573,2.573,0,0,0,2.171.874,2.256,2.256,0,0,0,1.955-1.011,4.79,4.79,0,0,0,.708-2.786,4.617,4.617,0,0,0-.708-2.765A2.329,2.329,0,0,0-1813.481,1563.522Z" fill="#00223d"/>
        <path id="Trazado_7479" data-name="Trazado 7479" d="M-1800.8,1572.092l-.29-1.371h-.07a4.069,4.069,0,0,1-1.437,1.226,4.4,4.4,0,0,1-1.789.321,3.217,3.217,0,0,1-2.245-.739,2.692,2.692,0,0,1-.813-2.1q0-2.919,4.667-3.059l1.634-.053v-.6a2.445,2.445,0,0,0-.487-1.675,2.013,2.013,0,0,0-1.56-.54,6.359,6.359,0,0,0-2.725.738l-.448-1.116a6.807,6.807,0,0,1,1.56-.606,6.729,6.729,0,0,1,1.7-.22,3.675,3.675,0,0,1,2.554.764,3.2,3.2,0,0,1,.83,2.453v6.574Zm-3.3-1.029a2.961,2.961,0,0,0,2.14-.747,2.761,2.761,0,0,0,.778-2.091v-.871l-1.459.062a5.309,5.309,0,0,0-2.509.541,1.627,1.627,0,0,0-.769,1.489,1.5,1.5,0,0,0,.479,1.2A1.984,1.984,0,0,0-1804.095,1571.063Z" fill="#00223d"/>
        <path id="Trazado_7480" data-name="Trazado 7480" d="M-1792.862,1572.268a4.109,4.109,0,0,1-3.239-1.288,5.293,5.293,0,0,1-1.147-3.643,5.455,5.455,0,0,1,1.165-3.735,4.191,4.191,0,0,1,3.317-1.319,6.564,6.564,0,0,1,1.389.15,4.543,4.543,0,0,1,1.09.351l-.448,1.239a7,7,0,0,0-1.055-.32,4.716,4.716,0,0,0-1.011-.128q-2.936,0-2.935,3.744a4.455,4.455,0,0,0,.716,2.725,2.492,2.492,0,0,0,2.123.949,6.5,6.5,0,0,0,2.469-.518v1.292A5.262,5.262,0,0,1-1792.862,1572.268Z" fill="#00223d"/>
        <path id="Trazado_7481" data-name="Trazado 7481" d="M-1788.266,1559.849a.971.971,0,0,1,.246-.734.865.865,0,0,1,.616-.233.86.86,0,0,1,.606.237.953.953,0,0,1,.255.73.963.963,0,0,1-.255.733.848.848,0,0,1-.606.242.843.843,0,0,1-.616-.242A.984.984,0,0,1-1788.266,1559.849Zm1.582,12.243h-1.459v-9.633h1.459Z" fill="#00223d"/>
        <path id="Trazado_7482" data-name="Trazado 7482" d="M-1779.521,1572.268a4.426,4.426,0,0,1-3.37-1.3,5.037,5.037,0,0,1-1.235-3.613,5.583,5.583,0,0,1,1.147-3.7,3.81,3.81,0,0,1,3.081-1.371,3.633,3.633,0,0,1,2.865,1.192,4.562,4.562,0,0,1,1.054,3.141v.923h-6.635a3.817,3.817,0,0,0,.857,2.575,2.963,2.963,0,0,0,2.289.879,7.766,7.766,0,0,0,3.076-.65v1.3a7.854,7.854,0,0,1-1.463.479A8.279,8.279,0,0,1-1779.521,1572.268Zm-.4-8.763a2.383,2.383,0,0,0-1.85.756,3.484,3.484,0,0,0-.813,2.092h5.036a3.216,3.216,0,0,0-.615-2.115A2.169,2.169,0,0,0-1779.916,1563.505Z" fill="#00223d"/>
        <path id="Trazado_7483" data-name="Trazado 7483" d="M-1766.9,1572.092v-6.232a2.508,2.508,0,0,0-.537-1.757,2.182,2.182,0,0,0-1.678-.581,2.769,2.769,0,0,0-2.215.818,4.125,4.125,0,0,0-.7,2.7v5.054h-1.459v-9.633h1.186l.238,1.318h.07a2.993,2.993,0,0,1,1.257-1.1,4.092,4.092,0,0,1,1.8-.391,3.657,3.657,0,0,1,2.619.84,3.572,3.572,0,0,1,.879,2.685v6.284Z" fill="#00223d"/>
        <path id="Trazado_7484" data-name="Trazado 7484" d="M-1759.332,1571.063a4.647,4.647,0,0,0,.747-.057,4.616,4.616,0,0,0,.571-.118V1572a2.684,2.684,0,0,1-.7.189,5.362,5.362,0,0,1-.831.075q-2.795,0-2.8-2.945v-5.73h-1.38v-.7l1.38-.607.615-2.056h.844v2.232h2.8v1.134h-2.8v5.669a1.953,1.953,0,0,0,.413,1.336A1.439,1.439,0,0,0-1759.332,1571.063Z" fill="#00223d"/>
        <path id="Trazado_7485" data-name="Trazado 7485" d="M-1752.02,1572.268a4.426,4.426,0,0,1-3.37-1.3,5.037,5.037,0,0,1-1.235-3.613,5.583,5.583,0,0,1,1.147-3.7,3.81,3.81,0,0,1,3.081-1.371,3.633,3.633,0,0,1,2.865,1.192,4.562,4.562,0,0,1,1.054,3.141v.923h-6.635a3.817,3.817,0,0,0,.857,2.575,2.963,2.963,0,0,0,2.289.879,7.766,7.766,0,0,0,3.076-.65v1.3a7.854,7.854,0,0,1-1.463.479A8.279,8.279,0,0,1-1752.02,1572.268Zm-.4-8.763a2.383,2.383,0,0,0-1.85.756,3.484,3.484,0,0,0-.813,2.092h5.036a3.215,3.215,0,0,0-.615-2.115A2.168,2.168,0,0,0-1752.415,1563.505Z" fill="#00223d"/>
        <path id="Trazado_7486" data-name="Trazado 7486" d="M-1739.776,1569.464a2.413,2.413,0,0,1-1,2.074,4.713,4.713,0,0,1-2.813.73,6.119,6.119,0,0,1-2.988-.607v-1.353a7.186,7.186,0,0,0,1.49.553,6.2,6.2,0,0,0,1.533.2,3.48,3.48,0,0,0,1.758-.364,1.206,1.206,0,0,0,.615-1.112,1.206,1.206,0,0,0-.487-.962,7.668,7.668,0,0,0-1.9-.945,10.246,10.246,0,0,1-1.912-.875,2.61,2.61,0,0,1-.844-.848,2.216,2.216,0,0,1-.276-1.134,2.159,2.159,0,0,1,.958-1.858,4.461,4.461,0,0,1,2.627-.682,7.683,7.683,0,0,1,3.041.633l-.518,1.187a6.972,6.972,0,0,0-2.628-.6,3.02,3.02,0,0,0-1.564.325,1.006,1.006,0,0,0-.528.9,1.093,1.093,0,0,0,.2.659,1.959,1.959,0,0,0,.637.518,14.173,14.173,0,0,0,1.688.712,6.313,6.313,0,0,1,2.316,1.257A2.218,2.218,0,0,1-1739.776,1569.464Z" fill="#00223d"/>
        <path id="Trazado_7487" data-name="Trazado 7487" d="M-1728.878,1572.268a4.111,4.111,0,0,1-3.239-1.288,5.3,5.3,0,0,1-1.147-3.643,5.46,5.46,0,0,1,1.165-3.735,4.192,4.192,0,0,1,3.318-1.319,6.548,6.548,0,0,1,1.388.15,4.53,4.53,0,0,1,1.09.351l-.448,1.239a6.963,6.963,0,0,0-1.055-.32,4.707,4.707,0,0,0-1.01-.128q-2.935,0-2.936,3.744a4.463,4.463,0,0,0,.716,2.725,2.492,2.492,0,0,0,2.123.949,6.5,6.5,0,0,0,2.47-.518v1.292A5.266,5.266,0,0,1-1728.878,1572.268Z" fill="#00223d"/>
        <path id="Trazado_7488" data-name="Trazado 7488" d="M-1715.844,1567.267a5.314,5.314,0,0,1-1.186,3.678,4.179,4.179,0,0,1-3.279,1.323,4.347,4.347,0,0,1-2.294-.607,4,4,0,0,1-1.546-1.74,6.057,6.057,0,0,1-.545-2.654,5.3,5.3,0,0,1,1.177-3.669,4.167,4.167,0,0,1,3.27-1.315,4.072,4.072,0,0,1,3.212,1.345A5.289,5.289,0,0,1-1715.844,1567.267Zm-7.339,0a4.565,4.565,0,0,0,.739,2.812,2.56,2.56,0,0,0,2.171.967,2.58,2.58,0,0,0,2.175-.962,4.553,4.553,0,0,0,.743-2.817,4.472,4.472,0,0,0-.743-2.79,2.609,2.609,0,0,0-2.193-.955,2.568,2.568,0,0,0-2.162.941A4.527,4.527,0,0,0-1723.183,1567.267Z" fill="#00223d"/>
        <path id="Trazado_7489" data-name="Trazado 7489" d="M-1706.694,1572.092v-6.232a2.513,2.513,0,0,0-.536-1.757,2.184,2.184,0,0,0-1.679-.581,2.769,2.769,0,0,0-2.215.818,4.125,4.125,0,0,0-.7,2.7v5.054h-1.459v-9.633h1.186l.238,1.318h.07a2.994,2.994,0,0,1,1.257-1.1,4.092,4.092,0,0,1,1.8-.391,3.657,3.657,0,0,1,2.619.84,3.571,3.571,0,0,1,.879,2.685v6.284Z" fill="#00223d"/>
        <path id="Trazado_7490" data-name="Trazado 7490" d="M-1691.841,1560.394a4.2,4.2,0,0,0-3.344,1.411,5.687,5.687,0,0,0-1.226,3.862,5.8,5.8,0,0,0,1.182,3.9,4.2,4.2,0,0,0,3.371,1.376,11.513,11.513,0,0,0,3.067-.483v1.31a9.447,9.447,0,0,1-3.3.5,5.577,5.577,0,0,1-4.381-1.723,7.092,7.092,0,0,1-1.543-4.9,7.727,7.727,0,0,1,.743-3.48,5.335,5.335,0,0,1,2.144-2.3,6.5,6.5,0,0,1,3.3-.808,7.966,7.966,0,0,1,3.533.738l-.633,1.283A6.81,6.81,0,0,0-1691.841,1560.394Z" fill="#00223d"/>
        <path id="Trazado_7491" data-name="Trazado 7491" d="M-1674.834,1565.649a7.075,7.075,0,0,1-1.56,4.852,5.484,5.484,0,0,1-4.337,1.767,5.554,5.554,0,0,1-4.382-1.737,7.129,7.129,0,0,1-1.542-4.9,7.034,7.034,0,0,1,1.547-4.864,5.588,5.588,0,0,1,4.394-1.728,5.472,5.472,0,0,1,4.324,1.758A7.067,7.067,0,0,1-1674.834,1565.649Zm-10.239,0a6.094,6.094,0,0,0,1.112,3.96,3.942,3.942,0,0,0,3.23,1.349,3.9,3.9,0,0,0,3.225-1.345,6.179,6.179,0,0,0,1.09-3.964,6.134,6.134,0,0,0-1.085-3.932,3.89,3.89,0,0,0-3.213-1.341,3.966,3.966,0,0,0-3.247,1.349A6.034,6.034,0,0,0-1685.073,1565.649Z" fill="#00223d"/>
        <path id="Trazado_7492" data-name="Trazado 7492" d="M-1664.63,1559.242h1.609l-4.632,12.85h-1.477l-4.6-12.85h1.582l2.953,8.315a23.2,23.2,0,0,1,.808,2.786,23.215,23.215,0,0,1,.827-2.839Z" fill="#00223d"/>
        <path id="Trazado_7493" data-name="Trazado 7493" d="M-1661.255,1572.092v-12.85h1.494v12.85Z" fill="#00223d"/>
        <path id="Trazado_7494" data-name="Trazado 7494" d="M-1645.979,1565.544a6.482,6.482,0,0,1-1.728,4.864,6.828,6.828,0,0,1-4.97,1.684h-3.559v-12.85h3.937a6.3,6.3,0,0,1,4.658,1.661A6.274,6.274,0,0,1-1645.979,1565.544Zm-1.583.053a5.171,5.171,0,0,0-1.261-3.788,5.052,5.052,0,0,0-3.748-1.275h-2.171V1570.8h1.819a5.533,5.533,0,0,0,4.017-1.314A5.2,5.2,0,0,0-1647.562,1565.6Z" fill="#00223d"/>
        <path id="Trazado_7495" data-name="Trazado 7495" d="M-1644.143,1567.935V1566.6h4.316v1.336Z" fill="#00223d"/>
        <path id="Trazado_7496" data-name="Trazado 7496" d="M-1632.805,1572.092h-1.424v-9.158q0-1.143.071-2.163c-.123.124-.261.252-.413.387s-.85.706-2.092,1.714l-.774-1,3.4-2.628h1.23Z" fill="#00223d"/>
        <path id="Trazado_7497" data-name="Trazado 7497" d="M-1619.472,1564.727q0,7.54-5.836,7.541a5.956,5.956,0,0,1-1.617-.176v-1.257a5.178,5.178,0,0,0,1.6.228,3.889,3.889,0,0,0,3.186-1.3,6.59,6.59,0,0,0,1.173-4h-.105a3.145,3.145,0,0,1-1.283,1.112,4.141,4.141,0,0,1-1.8.382,3.621,3.621,0,0,1-2.707-1.02,3.886,3.886,0,0,1-1-2.847,4.361,4.361,0,0,1,1.12-3.164,3.911,3.911,0,0,1,2.949-1.16,3.945,3.945,0,0,1,2.29.672,4.257,4.257,0,0,1,1.507,1.959A7.987,7.987,0,0,1-1619.472,1564.727Zm-4.324-4.421a2.4,2.4,0,0,0-1.942.808,3.375,3.375,0,0,0-.686,2.25,2.926,2.926,0,0,0,.633,1.991,2.421,2.421,0,0,0,1.925.725,3.331,3.331,0,0,0,1.472-.325,2.664,2.664,0,0,0,1.059-.888,2.046,2.046,0,0,0,.387-1.178,4.017,4.017,0,0,0-.361-1.7,2.971,2.971,0,0,0-1.006-1.23A2.533,2.533,0,0,0-1623.8,1560.306Z" fill="#00223d"/>
        <path id="Trazado_7498" data-name="Trazado 7498" d="M-1607.8,1572.268a4.173,4.173,0,0,1-1.718-.348,3.223,3.223,0,0,1-1.305-1.067h-.106a12.79,12.79,0,0,1,.106,1.6v3.964h-1.459v-13.957h1.186l.2,1.318h.071a3.386,3.386,0,0,1,1.309-1.142,3.975,3.975,0,0,1,1.714-.352,3.561,3.561,0,0,1,2.958,1.31,5.766,5.766,0,0,1,1.041,3.674,5.728,5.728,0,0,1-1.059,3.686A3.565,3.565,0,0,1-1607.8,1572.268Zm-.211-8.746a2.584,2.584,0,0,0-2.135.818,4.2,4.2,0,0,0-.677,2.6v.326a4.816,4.816,0,0,0,.677,2.905,2.572,2.572,0,0,0,2.17.874,2.258,2.258,0,0,0,1.956-1.011,4.789,4.789,0,0,0,.707-2.786,4.616,4.616,0,0,0-.707-2.765A2.331,2.331,0,0,0-1608.011,1563.522Z" fill="#00223d"/>
        <path id="Trazado_7499" data-name="Trazado 7499" d="M-1596.857,1562.283a5.656,5.656,0,0,1,1.151.106l-.2,1.353a4.976,4.976,0,0,0-1.055-.132,2.566,2.566,0,0,0-2,.95,3.457,3.457,0,0,0-.831,2.364v5.168h-1.459v-9.633h1.2l.167,1.784h.07a4.251,4.251,0,0,1,1.292-1.45A2.91,2.91,0,0,1-1596.857,1562.283Z" fill="#00223d"/>
        <path id="Trazado_7500" data-name="Trazado 7500" d="M-1589.835,1572.268a4.429,4.429,0,0,1-3.371-1.3,5.036,5.036,0,0,1-1.234-3.613,5.583,5.583,0,0,1,1.147-3.7,3.808,3.808,0,0,1,3.08-1.371,3.633,3.633,0,0,1,2.865,1.192,4.562,4.562,0,0,1,1.055,3.141v.923h-6.636a3.821,3.821,0,0,0,.857,2.575,2.964,2.964,0,0,0,2.29.879,7.769,7.769,0,0,0,3.076-.65v1.3a7.877,7.877,0,0,1-1.463.479A8.287,8.287,0,0,1-1589.835,1572.268Zm-.4-8.763a2.384,2.384,0,0,0-1.851.756,3.484,3.484,0,0,0-.813,2.092h5.037a3.215,3.215,0,0,0-.616-2.115A2.168,2.168,0,0,0-1590.23,1563.505Z" fill="#00223d"/>
        <path id="Trazado_7501" data-name="Trazado 7501" d="M-1577.592,1569.464a2.413,2.413,0,0,1-1,2.074,4.71,4.71,0,0,1-2.812.73,6.121,6.121,0,0,1-2.989-.607v-1.353a7.207,7.207,0,0,0,1.49.553,6.211,6.211,0,0,0,1.534.2,3.479,3.479,0,0,0,1.758-.364,1.206,1.206,0,0,0,.615-1.112,1.207,1.207,0,0,0-.488-.962,7.633,7.633,0,0,0-1.9-.945,10.265,10.265,0,0,1-1.911-.875,2.612,2.612,0,0,1-.844-.848,2.207,2.207,0,0,1-.277-1.134,2.159,2.159,0,0,1,.958-1.858,4.467,4.467,0,0,1,2.628-.682,7.687,7.687,0,0,1,3.041.633l-.519,1.187a6.963,6.963,0,0,0-2.627-.6,3.025,3.025,0,0,0-1.565.325,1.007,1.007,0,0,0-.527.9,1.093,1.093,0,0,0,.2.659,1.948,1.948,0,0,0,.637.518,14.137,14.137,0,0,0,1.687.712,6.3,6.3,0,0,1,2.316,1.257A2.214,2.214,0,0,1-1577.592,1569.464Z" fill="#00223d"/>
        <path id="Trazado_7502" data-name="Trazado 7502" d="M-1573.848,1562.459v6.249a2.517,2.517,0,0,0,.536,1.758,2.184,2.184,0,0,0,1.679.58,2.739,2.739,0,0,0,2.211-.826,4.174,4.174,0,0,0,.7-2.7v-5.062h1.459v9.633h-1.2l-.211-1.292h-.079a2.914,2.914,0,0,1-1.243,1.09,4.185,4.185,0,0,1-1.815.378,3.686,3.686,0,0,1-2.633-.835,3.556,3.556,0,0,1-.874-2.672v-6.3Z" fill="#00223d"/>
        <path id="Trazado_7503" data-name="Trazado 7503" d="M-1557.579,1572.092v-6.232a2.513,2.513,0,0,0-.536-1.757,2.184,2.184,0,0,0-1.679-.581,2.769,2.769,0,0,0-2.215.818,4.125,4.125,0,0,0-.7,2.7v5.054h-1.459v-9.633h1.187l.237,1.318h.07a2.994,2.994,0,0,1,1.257-1.1,4.1,4.1,0,0,1,1.8-.391,3.657,3.657,0,0,1,2.619.84,3.571,3.571,0,0,1,.879,2.685v6.284Z" fill="#00223d"/>
        <path id="Trazado_7504" data-name="Trazado 7504" d="M-1550.012,1571.063a4.647,4.647,0,0,0,.747-.057,4.64,4.64,0,0,0,.572-.118V1572a2.694,2.694,0,0,1-.7.189,5.364,5.364,0,0,1-.831.075q-2.795,0-2.795-2.945v-5.73h-1.379v-.7l1.379-.607.616-2.056h.843v2.232h2.795v1.134h-2.795v5.669a1.953,1.953,0,0,0,.413,1.336A1.441,1.441,0,0,0-1550.012,1571.063Z" fill="#00223d"/>
        <path id="Trazado_7505" data-name="Trazado 7505" d="M-1540.845,1572.092l-.29-1.371h-.07a4.07,4.07,0,0,1-1.437,1.226,4.4,4.4,0,0,1-1.789.321,3.217,3.217,0,0,1-2.245-.739,2.692,2.692,0,0,1-.813-2.1q0-2.919,4.667-3.059l1.634-.053v-.6a2.445,2.445,0,0,0-.487-1.675,2.012,2.012,0,0,0-1.56-.54,6.359,6.359,0,0,0-2.725.738l-.448-1.116a6.806,6.806,0,0,1,1.56-.606,6.732,6.732,0,0,1,1.7-.22,3.674,3.674,0,0,1,2.553.764,3.2,3.2,0,0,1,.83,2.453v6.574Zm-3.3-1.029a2.964,2.964,0,0,0,2.141-.747,2.765,2.765,0,0,0,.777-2.091v-.871l-1.459.062a5.309,5.309,0,0,0-2.509.541,1.627,1.627,0,0,0-.769,1.489,1.5,1.5,0,0,0,.479,1.2A1.984,1.984,0,0,0-1544.141,1571.063Z" fill="#00223d"/>
        <path id="Trazado_7506" data-name="Trazado 7506" d="M-1523.768,1567.267a5.314,5.314,0,0,1-1.186,3.678,4.178,4.178,0,0,1-3.278,1.323,4.344,4.344,0,0,1-2.294-.607,4,4,0,0,1-1.547-1.74,6.056,6.056,0,0,1-.545-2.654,5.3,5.3,0,0,1,1.178-3.669,4.165,4.165,0,0,1,3.269-1.315,4.074,4.074,0,0,1,3.213,1.345A5.294,5.294,0,0,1-1523.768,1567.267Zm-7.338,0a4.572,4.572,0,0,0,.738,2.812,2.562,2.562,0,0,0,2.171.967,2.58,2.58,0,0,0,2.175-.962,4.553,4.553,0,0,0,.743-2.817,4.472,4.472,0,0,0-.743-2.79,2.609,2.609,0,0,0-2.193-.955,2.568,2.568,0,0,0-2.162.941A4.527,4.527,0,0,0-1531.106,1567.267Z" fill="#00223d"/>
        <path id="Trazado_7507" data-name="Trazado 7507" d="M-1512.685,1572.268a4.107,4.107,0,0,1-3.238-1.288,5.293,5.293,0,0,1-1.147-3.643,5.459,5.459,0,0,1,1.164-3.735,4.2,4.2,0,0,1,3.318-1.319,6.564,6.564,0,0,1,1.389.15,4.543,4.543,0,0,1,1.09.351l-.449,1.239a6.945,6.945,0,0,0-1.054-.32,4.716,4.716,0,0,0-1.011-.128q-2.935,0-2.936,3.744a4.456,4.456,0,0,0,.717,2.725,2.49,2.49,0,0,0,2.122.949,6.5,6.5,0,0,0,2.47-.518v1.292A5.266,5.266,0,0,1-1512.685,1572.268Z" fill="#00223d"/>
        <path id="Trazado_7508" data-name="Trazado 7508" d="M-1499.65,1567.267a5.314,5.314,0,0,1-1.187,3.678,4.178,4.178,0,0,1-3.278,1.323,4.345,4.345,0,0,1-2.294-.607,4,4,0,0,1-1.547-1.74,6.071,6.071,0,0,1-.545-2.654,5.3,5.3,0,0,1,1.178-3.669,4.165,4.165,0,0,1,3.269-1.315,4.074,4.074,0,0,1,3.213,1.345A5.29,5.29,0,0,1-1499.65,1567.267Zm-7.339,0a4.571,4.571,0,0,0,.738,2.812,2.561,2.561,0,0,0,2.171.967,2.58,2.58,0,0,0,2.175-.962,4.553,4.553,0,0,0,.743-2.817,4.472,4.472,0,0,0-.743-2.79,2.609,2.609,0,0,0-2.193-.955,2.569,2.569,0,0,0-2.162.941A4.528,4.528,0,0,0-1506.989,1567.267Z" fill="#00223d"/>
        <path id="Trazado_7509" data-name="Trazado 7509" d="M-1490.5,1572.092v-6.232a2.513,2.513,0,0,0-.536-1.757,2.184,2.184,0,0,0-1.679-.581,2.769,2.769,0,0,0-2.215.818,4.13,4.13,0,0,0-.7,2.7v5.054h-1.459v-9.633h1.187l.237,1.318h.07a2.994,2.994,0,0,1,1.257-1.1,4.1,4.1,0,0,1,1.8-.391,3.657,3.657,0,0,1,2.619.84,3.571,3.571,0,0,1,.879,2.685v6.284Z" fill="#00223d"/>
        <path id="Trazado_7510" data-name="Trazado 7510" d="M-1481.7,1563.593h-2.452v8.5h-1.459v-8.5h-1.723v-.659l1.723-.528v-.536q0-3.55,3.1-3.551a6.387,6.387,0,0,1,1.793.308l-.378,1.169a4.815,4.815,0,0,0-1.441-.273,1.408,1.408,0,0,0-1.222.549,3.075,3.075,0,0,0-.4,1.763v.624h2.452Zm1.635-3.744a.971.971,0,0,1,.246-.734.861.861,0,0,1,.615-.233.86.86,0,0,1,.606.237.953.953,0,0,1,.255.73.963.963,0,0,1-.255.733.848.848,0,0,1-.606.242.839.839,0,0,1-.615-.242A.984.984,0,0,1-1480.068,1559.849Zm1.582,12.243h-1.459v-9.633h1.459Z" fill="#00223d"/>
        <path id="Trazado_7511" data-name="Trazado 7511" d="M-1471,1562.283a5.648,5.648,0,0,1,1.151.106l-.2,1.353a4.968,4.968,0,0,0-1.055-.132,2.567,2.567,0,0,0-2,.95,3.457,3.457,0,0,0-.831,2.364v5.168h-1.459v-9.633h1.2l.167,1.784h.07a4.231,4.231,0,0,1,1.292-1.45A2.907,2.907,0,0,1-1471,1562.283Z" fill="#00223d"/>
        <path id="Trazado_7512" data-name="Trazado 7512" d="M-1455.767,1572.092v-6.267a2.6,2.6,0,0,0-.492-1.727,1.906,1.906,0,0,0-1.529-.576,2.469,2.469,0,0,0-2.013.783,3.72,3.72,0,0,0-.65,2.408v5.379h-1.459v-6.267a2.6,2.6,0,0,0-.492-1.727,1.918,1.918,0,0,0-1.538-.576,2.386,2.386,0,0,0-2.009.822,4.449,4.449,0,0,0-.637,2.694v5.054h-1.459v-9.633h1.187l.237,1.318h.07a2.872,2.872,0,0,1,1.165-1.1,3.555,3.555,0,0,1,1.683-.4,2.862,2.862,0,0,1,2.953,1.635h.07a3.069,3.069,0,0,1,1.248-1.195,3.874,3.874,0,0,1,1.864-.44,3.26,3.26,0,0,1,2.447.84,3.754,3.754,0,0,1,.813,2.685v6.284Z" fill="#00223d"/>
        <path id="Trazado_7513" data-name="Trazado 7513" d="M-1445.378,1572.092l-.29-1.371h-.07a4.068,4.068,0,0,1-1.437,1.226,4.4,4.4,0,0,1-1.789.321,3.217,3.217,0,0,1-2.245-.739,2.692,2.692,0,0,1-.813-2.1q0-2.919,4.667-3.059l1.634-.053v-.6a2.446,2.446,0,0,0-.487-1.675,2.014,2.014,0,0,0-1.561-.54,6.359,6.359,0,0,0-2.724.738l-.448-1.116a6.8,6.8,0,0,1,1.56-.606,6.729,6.729,0,0,1,1.7-.22,3.675,3.675,0,0,1,2.554.764,3.2,3.2,0,0,1,.83,2.453v6.574Zm-3.3-1.029a2.961,2.961,0,0,0,2.14-.747,2.761,2.761,0,0,0,.778-2.091v-.871l-1.459.062a5.309,5.309,0,0,0-2.509.541,1.627,1.627,0,0,0-.769,1.489,1.5,1.5,0,0,0,.479,1.2A1.984,1.984,0,0,0-1448.674,1571.063Z" fill="#00223d"/>
        <path id="Trazado_7514" data-name="Trazado 7514" d="M-1434.734,1570.8h-.079a3.431,3.431,0,0,1-3.024,1.468,3.577,3.577,0,0,1-2.94-1.292,5.689,5.689,0,0,1-1.05-3.674,5.775,5.775,0,0,1,1.055-3.7,3.548,3.548,0,0,1,2.935-1.319,3.5,3.5,0,0,1,3.006,1.424h.114l-.061-.694-.035-.677v-3.92h1.459v13.676h-1.187Zm-2.918.246a2.652,2.652,0,0,0,2.166-.814,4.106,4.106,0,0,0,.673-2.623v-.307a4.839,4.839,0,0,0-.682-2.923,2.589,2.589,0,0,0-2.175-.874,2.235,2.235,0,0,0-1.964,1,4.964,4.964,0,0,0-.681,2.817,4.754,4.754,0,0,0,.676,2.786A2.293,2.293,0,0,0-1437.652,1571.046Z" fill="#00223d"/>
        <path id="Trazado_7515" data-name="Trazado 7515" d="M-1424.337,1572.092l-.29-1.371h-.07a4.068,4.068,0,0,1-1.437,1.226,4.4,4.4,0,0,1-1.789.321,3.217,3.217,0,0,1-2.245-.739,2.692,2.692,0,0,1-.813-2.1q0-2.919,4.667-3.059l1.634-.053v-.6a2.446,2.446,0,0,0-.487-1.675,2.014,2.014,0,0,0-1.561-.54,6.359,6.359,0,0,0-2.724.738l-.448-1.116a6.8,6.8,0,0,1,1.56-.606,6.729,6.729,0,0,1,1.7-.22,3.675,3.675,0,0,1,2.554.764,3.2,3.2,0,0,1,.83,2.453v6.574Zm-3.3-1.029a2.961,2.961,0,0,0,2.14-.747,2.761,2.761,0,0,0,.778-2.091v-.871l-1.459.062a5.309,5.309,0,0,0-2.509.541,1.627,1.627,0,0,0-.769,1.489,1.5,1.5,0,0,0,.479,1.2A1.984,1.984,0,0,0-1427.633,1571.063Z" fill="#00223d"/>
        <path id="Trazado_7516" data-name="Trazado 7516" d="M-1418.721,1570l.132.2q-.228.879-.659,2.044t-.9,2.166h-1.1q.237-.914.523-2.259t.4-2.153Z" fill="#00223d"/>
        <path id="Trazado_7517" data-name="Trazado 7517" d="M-1405.238,1572.092l-.29-1.371h-.071a4.052,4.052,0,0,1-1.437,1.226,4.389,4.389,0,0,1-1.788.321,3.22,3.22,0,0,1-2.246-.739,2.691,2.691,0,0,1-.813-2.1q0-2.919,4.667-3.059l1.635-.053v-.6a2.446,2.446,0,0,0-.488-1.675,2.01,2.01,0,0,0-1.56-.54,6.359,6.359,0,0,0-2.725.738l-.448-1.116a6.84,6.84,0,0,1,1.56-.606,6.742,6.742,0,0,1,1.7-.22,3.674,3.674,0,0,1,2.553.764,3.193,3.193,0,0,1,.831,2.453v6.574Zm-3.3-1.029a2.962,2.962,0,0,0,2.14-.747,2.761,2.761,0,0,0,.778-2.091v-.871l-1.459.062a5.306,5.306,0,0,0-2.509.541,1.628,1.628,0,0,0-.77,1.489,1.5,1.5,0,0,0,.479,1.2A1.988,1.988,0,0,0-1408.534,1571.063Z" fill="#00223d"/>
      </g>
      <g id="Grupo_1457" data-name="Grupo 1457" style="isolation: isolate">
        <path id="Trazado_7518" data-name="Trazado 7518" d="M-2106.922,1596.092v-6.267a2.6,2.6,0,0,0-.492-1.727,1.906,1.906,0,0,0-1.529-.576,2.468,2.468,0,0,0-2.013.783,3.715,3.715,0,0,0-.65,2.408v5.379h-1.459v-6.267a2.6,2.6,0,0,0-.493-1.727,1.916,1.916,0,0,0-1.538-.576,2.385,2.385,0,0,0-2.008.822,4.449,4.449,0,0,0-.637,2.694v5.054h-1.459v-9.633h1.186l.238,1.318h.07a2.87,2.87,0,0,1,1.164-1.1,3.559,3.559,0,0,1,1.684-.4,2.862,2.862,0,0,1,2.953,1.635h.07a3.067,3.067,0,0,1,1.248-1.195,3.872,3.872,0,0,1,1.863-.44,3.261,3.261,0,0,1,2.448.84,3.754,3.754,0,0,1,.813,2.685v6.284Z" fill="#00223d"/>
        <path id="Trazado_7519" data-name="Trazado 7519" d="M-2098.388,1596.268a4.425,4.425,0,0,1-3.37-1.3,5.033,5.033,0,0,1-1.235-3.613,5.583,5.583,0,0,1,1.147-3.7,3.808,3.808,0,0,1,3.08-1.371,3.637,3.637,0,0,1,2.866,1.192,4.562,4.562,0,0,1,1.054,3.141v.923h-6.635a3.816,3.816,0,0,0,.856,2.575,2.965,2.965,0,0,0,2.29.879,7.766,7.766,0,0,0,3.076-.65v1.3a7.85,7.85,0,0,1-1.463.479A8.28,8.28,0,0,1-2098.388,1596.268Zm-.4-8.763a2.382,2.382,0,0,0-1.85.756,3.484,3.484,0,0,0-.813,2.092h5.036a3.216,3.216,0,0,0-.615-2.115A2.17,2.17,0,0,0-2098.783,1587.505Z" fill="#00223d"/>
        <path id="Trazado_7520" data-name="Trazado 7520" d="M-2085.767,1596.092v-6.232a2.508,2.508,0,0,0-.536-1.757,2.182,2.182,0,0,0-1.678-.581,2.768,2.768,0,0,0-2.215.818,4.125,4.125,0,0,0-.7,2.7v5.054h-1.459v-9.633h1.186l.237,1.318h.071a2.994,2.994,0,0,1,1.257-1.1,4.09,4.09,0,0,1,1.8-.391,3.655,3.655,0,0,1,2.619.84,3.572,3.572,0,0,1,.879,2.685v6.284Z" fill="#00223d"/>
        <path id="Trazado_7521" data-name="Trazado 7521" d="M-2079.939,1586.459v6.249a2.513,2.513,0,0,0,.536,1.758,2.182,2.182,0,0,0,1.678.58,2.74,2.74,0,0,0,2.211-.826,4.168,4.168,0,0,0,.7-2.7v-5.062h1.459v9.633h-1.205l-.21-1.292h-.08a2.907,2.907,0,0,1-1.243,1.09,4.182,4.182,0,0,1-1.815.378,3.688,3.688,0,0,1-2.633-.835,3.556,3.556,0,0,1-.874-2.672v-6.3Z" fill="#00223d"/>
        <path id="Trazado_7522" data-name="Trazado 7522" d="M-2063.706,1594.8h-.079a3.431,3.431,0,0,1-3.024,1.468,3.579,3.579,0,0,1-2.94-1.292,5.69,5.69,0,0,1-1.05-3.674,5.78,5.78,0,0,1,1.055-3.7,3.548,3.548,0,0,1,2.935-1.319,3.5,3.5,0,0,1,3.006,1.424h.115l-.062-.694-.035-.677v-3.92h1.459v13.676h-1.187Zm-2.918.246a2.652,2.652,0,0,0,2.166-.814,4.1,4.1,0,0,0,.673-2.623v-.307a4.838,4.838,0,0,0-.681-2.923,2.59,2.59,0,0,0-2.176-.874,2.234,2.234,0,0,0-1.964,1,4.963,4.963,0,0,0-.681,2.817,4.746,4.746,0,0,0,.677,2.786A2.292,2.292,0,0,0-2066.624,1595.046Z" fill="#00223d"/>
        <path id="Trazado_7523" data-name="Trazado 7523" d="M-2050.918,1591.267a5.314,5.314,0,0,1-1.186,3.678,4.18,4.18,0,0,1-3.279,1.323,4.347,4.347,0,0,1-2.294-.607,4,4,0,0,1-1.547-1.74,6.073,6.073,0,0,1-.545-2.654,5.3,5.3,0,0,1,1.178-3.669,4.166,4.166,0,0,1,3.27-1.315,4.074,4.074,0,0,1,3.212,1.345A5.29,5.29,0,0,1-2050.918,1591.267Zm-7.339,0a4.572,4.572,0,0,0,.738,2.812,2.563,2.563,0,0,0,2.171.967,2.582,2.582,0,0,0,2.176-.962,4.553,4.553,0,0,0,.742-2.817,4.472,4.472,0,0,0-.742-2.79,2.609,2.609,0,0,0-2.193-.955,2.568,2.568,0,0,0-2.162.941A4.522,4.522,0,0,0-2058.257,1591.267Z" fill="#00223d"/>
        <path id="Trazado_7524" data-name="Trazado 7524" d="M-2039.615,1596.268a4.427,4.427,0,0,1-3.371-1.3,5.037,5.037,0,0,1-1.235-3.613,5.588,5.588,0,0,1,1.147-3.7,3.811,3.811,0,0,1,3.081-1.371,3.633,3.633,0,0,1,2.865,1.192,4.562,4.562,0,0,1,1.055,3.141v.923h-6.636a3.816,3.816,0,0,0,.857,2.575,2.963,2.963,0,0,0,2.289.879,7.771,7.771,0,0,0,3.077-.65v1.3a7.886,7.886,0,0,1-1.464.479A8.276,8.276,0,0,1-2039.615,1596.268Zm-.4-8.763a2.382,2.382,0,0,0-1.85.756,3.483,3.483,0,0,0-.813,2.092h5.036a3.215,3.215,0,0,0-.615-2.115A2.168,2.168,0,0,0-2040.011,1587.505Z" fill="#00223d"/>
        <path id="Trazado_7525" data-name="Trazado 7525" d="M-2032.127,1596.092h-1.459v-13.676h1.459Z" fill="#00223d"/>
        <path id="Trazado_7526" data-name="Trazado 7526" d="M-2019.875,1596.268a4.174,4.174,0,0,1-1.718-.348,3.222,3.222,0,0,1-1.3-1.067H-2023a12.956,12.956,0,0,1,.106,1.6v3.964h-1.459v-13.957h1.186l.2,1.318h.071a3.385,3.385,0,0,1,1.309-1.142,3.971,3.971,0,0,1,1.714-.352,3.563,3.563,0,0,1,2.958,1.31,5.766,5.766,0,0,1,1.041,3.674,5.727,5.727,0,0,1-1.059,3.686A3.564,3.564,0,0,1-2019.875,1596.268Zm-.211-8.746a2.588,2.588,0,0,0-2.136.818,4.2,4.2,0,0,0-.676,2.6v.326a4.825,4.825,0,0,0,.676,2.905,2.574,2.574,0,0,0,2.171.874,2.259,2.259,0,0,0,1.956-1.011,4.8,4.8,0,0,0,.707-2.786,4.624,4.624,0,0,0-.707-2.765A2.331,2.331,0,0,0-2020.086,1587.522Z" fill="#00223d"/>
        <path id="Trazado_7527" data-name="Trazado 7527" d="M-2009.258,1596.268a4.425,4.425,0,0,1-3.37-1.3,5.033,5.033,0,0,1-1.235-3.613,5.583,5.583,0,0,1,1.147-3.7,3.808,3.808,0,0,1,3.08-1.371,3.633,3.633,0,0,1,2.865,1.192,4.557,4.557,0,0,1,1.055,3.141v.923h-6.636a3.822,3.822,0,0,0,.857,2.575,2.966,2.966,0,0,0,2.29.879,7.769,7.769,0,0,0,3.076-.65v1.3a7.875,7.875,0,0,1-1.463.479A8.279,8.279,0,0,1-2009.258,1596.268Zm-.395-8.763a2.382,2.382,0,0,0-1.85.756,3.484,3.484,0,0,0-.813,2.092h5.036a3.21,3.21,0,0,0-.616-2.115A2.168,2.168,0,0,0-2009.653,1587.505Z" fill="#00223d"/>
        <path id="Trazado_7528" data-name="Trazado 7528" d="M-1998.834,1586.283a5.643,5.643,0,0,1,1.151.106l-.2,1.353a4.966,4.966,0,0,0-1.054-.132,2.568,2.568,0,0,0-2,.95,3.456,3.456,0,0,0-.831,2.364v5.168h-1.459v-9.633h1.2l.167,1.784h.07a4.229,4.229,0,0,1,1.292-1.45A2.907,2.907,0,0,1-1998.834,1586.283Z" fill="#00223d"/>
        <path id="Trazado_7529" data-name="Trazado 7529" d="M-1989.667,1593.464a2.413,2.413,0,0,1-1,2.074,4.71,4.71,0,0,1-2.812.73,6.121,6.121,0,0,1-2.989-.607v-1.353a7.207,7.207,0,0,0,1.49.553,6.211,6.211,0,0,0,1.534.2,3.485,3.485,0,0,0,1.758-.364,1.206,1.206,0,0,0,.615-1.112,1.207,1.207,0,0,0-.488-.962,7.65,7.65,0,0,0-1.9-.945,10.23,10.23,0,0,1-1.911-.875,2.6,2.6,0,0,1-.844-.848,2.206,2.206,0,0,1-.277-1.134,2.159,2.159,0,0,1,.958-1.858,4.466,4.466,0,0,1,2.628-.682,7.687,7.687,0,0,1,3.041.633l-.519,1.187a6.964,6.964,0,0,0-2.628-.6,3.02,3.02,0,0,0-1.564.325,1,1,0,0,0-.527.9,1.092,1.092,0,0,0,.2.659,1.966,1.966,0,0,0,.638.518,14.137,14.137,0,0,0,1.687.712,6.3,6.3,0,0,1,2.316,1.257A2.218,2.218,0,0,1-1989.667,1593.464Z" fill="#00223d"/>
        <path id="Trazado_7530" data-name="Trazado 7530" d="M-1978.979,1591.267a5.314,5.314,0,0,1-1.187,3.678,4.178,4.178,0,0,1-3.278,1.323,4.345,4.345,0,0,1-2.294-.607,4,4,0,0,1-1.547-1.74,6.071,6.071,0,0,1-.545-2.654,5.3,5.3,0,0,1,1.178-3.669,4.165,4.165,0,0,1,3.269-1.315,4.074,4.074,0,0,1,3.213,1.345A5.289,5.289,0,0,1-1978.979,1591.267Zm-7.339,0a4.571,4.571,0,0,0,.738,2.812,2.561,2.561,0,0,0,2.171.967,2.58,2.58,0,0,0,2.175-.962,4.553,4.553,0,0,0,.743-2.817,4.472,4.472,0,0,0-.743-2.79,2.609,2.609,0,0,0-2.193-.955,2.568,2.568,0,0,0-2.162.941A4.528,4.528,0,0,0-1986.318,1591.267Z" fill="#00223d"/>
        <path id="Trazado_7531" data-name="Trazado 7531" d="M-1969.83,1596.092v-6.232a2.513,2.513,0,0,0-.536-1.757,2.184,2.184,0,0,0-1.679-.581,2.769,2.769,0,0,0-2.215.818,4.125,4.125,0,0,0-.7,2.7v5.054h-1.459v-9.633h1.187l.237,1.318h.07a2.994,2.994,0,0,1,1.257-1.1,4.1,4.1,0,0,1,1.8-.391,3.657,3.657,0,0,1,2.619.84,3.571,3.571,0,0,1,.879,2.685v6.284Z" fill="#00223d"/>
        <path id="Trazado_7532" data-name="Trazado 7532" d="M-1959.45,1596.092l-.29-1.371h-.071a4.052,4.052,0,0,1-1.437,1.226,4.389,4.389,0,0,1-1.788.321,3.22,3.22,0,0,1-2.246-.739,2.692,2.692,0,0,1-.813-2.1q0-2.919,4.667-3.059l1.635-.053v-.6a2.446,2.446,0,0,0-.488-1.675,2.01,2.01,0,0,0-1.56-.54,6.351,6.351,0,0,0-2.724.738l-.449-1.116a6.842,6.842,0,0,1,1.56-.606,6.742,6.742,0,0,1,1.7-.22,3.671,3.671,0,0,1,2.553.764,3.193,3.193,0,0,1,.831,2.453v6.574Zm-3.3-1.029a2.963,2.963,0,0,0,2.14-.747,2.761,2.761,0,0,0,.778-2.091v-.871l-1.459.062a5.306,5.306,0,0,0-2.509.541,1.627,1.627,0,0,0-.769,1.489,1.5,1.5,0,0,0,.479,1.2A1.984,1.984,0,0,0-1962.746,1595.063Z" fill="#00223d"/>
        <path id="Trazado_7533" data-name="Trazado 7533" d="M-1953.9,1596.092h-1.459v-13.676h1.459Z" fill="#00223d"/>
        <path id="Trazado_7534" data-name="Trazado 7534" d="M-1939.578,1594.8h-.079a3.431,3.431,0,0,1-3.024,1.468,3.579,3.579,0,0,1-2.94-1.292,5.689,5.689,0,0,1-1.05-3.674,5.781,5.781,0,0,1,1.055-3.7,3.548,3.548,0,0,1,2.935-1.319,3.5,3.5,0,0,1,3.006,1.424h.114l-.061-.694-.035-.677v-3.92h1.459v13.676h-1.187Zm-2.918.246a2.652,2.652,0,0,0,2.166-.814,4.1,4.1,0,0,0,.673-2.623v-.307a4.839,4.839,0,0,0-.681-2.923,2.591,2.591,0,0,0-2.176-.874,2.235,2.235,0,0,0-1.964,1,4.964,4.964,0,0,0-.681,2.817,4.746,4.746,0,0,0,.677,2.786A2.292,2.292,0,0,0-1942.5,1595.046Z" fill="#00223d"/>
        <path id="Trazado_7535" data-name="Trazado 7535" d="M-1931.035,1596.268a4.427,4.427,0,0,1-3.371-1.3,5.037,5.037,0,0,1-1.235-3.613,5.588,5.588,0,0,1,1.147-3.7,3.811,3.811,0,0,1,3.081-1.371,3.633,3.633,0,0,1,2.865,1.192,4.562,4.562,0,0,1,1.055,3.141v.923h-6.636a3.817,3.817,0,0,0,.857,2.575,2.964,2.964,0,0,0,2.29.879,7.77,7.77,0,0,0,3.076-.65v1.3a7.886,7.886,0,0,1-1.464.479A8.275,8.275,0,0,1-1931.035,1596.268Zm-.4-8.763a2.383,2.383,0,0,0-1.85.756,3.484,3.484,0,0,0-.813,2.092h5.036a3.215,3.215,0,0,0-.615-2.115A2.168,2.168,0,0,0-1931.431,1587.505Z" fill="#00223d"/>
        <path id="Trazado_7536" data-name="Trazado 7536" d="M-1920.523,1586.3a3.579,3.579,0,0,1,2.948,1.3,5.69,5.69,0,0,1,1.051,3.669,5.727,5.727,0,0,1-1.059,3.686,3.567,3.567,0,0,1-2.94,1.315,4.181,4.181,0,0,1-1.719-.348,3.236,3.236,0,0,1-1.305-1.067h-.1l-.308,1.239h-1.046v-13.676h1.459v3.322q0,1.116-.07,2h.07A3.464,3.464,0,0,1-1920.523,1586.3Zm-.211,1.221a2.553,2.553,0,0,0-2.154.857,4.84,4.84,0,0,0-.659,2.888,4.823,4.823,0,0,0,.677,2.905,2.574,2.574,0,0,0,2.171.874,2.25,2.25,0,0,0,2-.98,5.04,5.04,0,0,0,.659-2.817,4.847,4.847,0,0,0-.659-2.8A2.337,2.337,0,0,0-1920.734,1587.522Z" fill="#00223d"/>
        <path id="Trazado_7537" data-name="Trazado 7537" d="M-1909.906,1596.268a4.427,4.427,0,0,1-3.371-1.3,5.037,5.037,0,0,1-1.235-3.613,5.588,5.588,0,0,1,1.147-3.7,3.811,3.811,0,0,1,3.081-1.371,3.633,3.633,0,0,1,2.865,1.192,4.562,4.562,0,0,1,1.055,3.141v.923H-1913a3.816,3.816,0,0,0,.857,2.575,2.963,2.963,0,0,0,2.289.879,7.771,7.771,0,0,0,3.077-.65v1.3a7.886,7.886,0,0,1-1.464.479A8.276,8.276,0,0,1-1909.906,1596.268Zm-.4-8.763a2.383,2.383,0,0,0-1.85.756,3.483,3.483,0,0,0-.813,2.092h5.036a3.216,3.216,0,0,0-.615-2.115A2.169,2.169,0,0,0-1910.3,1587.505Z" fill="#00223d"/>
        <path id="Trazado_7538" data-name="Trazado 7538" d="M-1894.807,1586.283a5.659,5.659,0,0,1,1.152.106l-.2,1.353a4.975,4.975,0,0,0-1.055-.132,2.569,2.569,0,0,0-2,.95,3.461,3.461,0,0,0-.83,2.364v5.168h-1.459v-9.633h1.2l.167,1.784h.07a4.24,4.24,0,0,1,1.292-1.45A2.909,2.909,0,0,1-1894.807,1586.283Z" fill="#00223d"/>
        <path id="Trazado_7539" data-name="Trazado 7539" d="M-1887.784,1596.268a4.427,4.427,0,0,1-3.371-1.3,5.037,5.037,0,0,1-1.235-3.613,5.589,5.589,0,0,1,1.147-3.7,3.811,3.811,0,0,1,3.081-1.371,3.633,3.633,0,0,1,2.865,1.192,4.562,4.562,0,0,1,1.055,3.141v.923h-6.636a3.817,3.817,0,0,0,.857,2.575,2.964,2.964,0,0,0,2.29.879,7.769,7.769,0,0,0,3.076-.65v1.3a7.886,7.886,0,0,1-1.464.479A8.275,8.275,0,0,1-1887.784,1596.268Zm-.4-8.763a2.383,2.383,0,0,0-1.85.756,3.484,3.484,0,0,0-.813,2.092h5.036a3.215,3.215,0,0,0-.615-2.115A2.168,2.168,0,0,0-1888.18,1587.505Z" fill="#00223d"/>
        <path id="Trazado_7540" data-name="Trazado 7540" d="M-1875.831,1596.092l-.29-1.371h-.07a4.068,4.068,0,0,1-1.437,1.226,4.4,4.4,0,0,1-1.789.321,3.22,3.22,0,0,1-2.246-.739,2.692,2.692,0,0,1-.813-2.1q0-2.919,4.667-3.059l1.635-.053v-.6a2.441,2.441,0,0,0-.488-1.675,2.01,2.01,0,0,0-1.56-.54,6.356,6.356,0,0,0-2.724.738l-.449-1.116a6.83,6.83,0,0,1,1.561-.606,6.729,6.729,0,0,1,1.7-.22,3.671,3.671,0,0,1,2.553.764,3.193,3.193,0,0,1,.831,2.453v6.574Zm-3.3-1.029a2.961,2.961,0,0,0,2.14-.747,2.761,2.761,0,0,0,.778-2.091v-.871l-1.459.062a5.306,5.306,0,0,0-2.509.541,1.628,1.628,0,0,0-.769,1.489,1.5,1.5,0,0,0,.479,1.2A1.984,1.984,0,0,0-1879.127,1595.063Z" fill="#00223d"/>
        <path id="Trazado_7541" data-name="Trazado 7541" d="M-1870.285,1596.092h-1.459v-13.676h1.459Z" fill="#00223d"/>
        <path id="Trazado_7542" data-name="Trazado 7542" d="M-1867.314,1583.849a.97.97,0,0,1,.246-.734.861.861,0,0,1,.615-.233.86.86,0,0,1,.606.237.952.952,0,0,1,.255.73.963.963,0,0,1-.255.733.847.847,0,0,1-.606.242.839.839,0,0,1-.615-.242A.983.983,0,0,1-1867.314,1583.849Zm1.582,12.243h-1.459v-9.633h1.459Z" fill="#00223d"/>
        <path id="Trazado_7543" data-name="Trazado 7543" d="M-1856.478,1596.092h-6.987v-.993l5.256-7.506h-4.931v-1.134h6.531v1.134l-5.186,7.365h5.317Z" fill="#00223d"/>
        <path id="Trazado_7544" data-name="Trazado 7544" d="M-1848.3,1596.092l-.29-1.371h-.07a4.068,4.068,0,0,1-1.437,1.226,4.4,4.4,0,0,1-1.789.321,3.217,3.217,0,0,1-2.245-.739,2.692,2.692,0,0,1-.813-2.1q0-2.919,4.667-3.059l1.634-.053v-.6a2.446,2.446,0,0,0-.487-1.675,2.014,2.014,0,0,0-1.561-.54,6.359,6.359,0,0,0-2.724.738l-.448-1.116a6.8,6.8,0,0,1,1.56-.606,6.729,6.729,0,0,1,1.7-.22,3.675,3.675,0,0,1,2.554.764,3.2,3.2,0,0,1,.83,2.453v6.574Zm-3.3-1.029a2.961,2.961,0,0,0,2.14-.747,2.761,2.761,0,0,0,.778-2.091v-.871l-1.459.062a5.309,5.309,0,0,0-2.509.541,1.627,1.627,0,0,0-.769,1.489,1.5,1.5,0,0,0,.479,1.2A1.984,1.984,0,0,0-1851.591,1595.063Z" fill="#00223d"/>
        <path id="Trazado_7545" data-name="Trazado 7545" d="M-1839.813,1586.283a5.656,5.656,0,0,1,1.151.106l-.2,1.353a4.975,4.975,0,0,0-1.055-.132,2.566,2.566,0,0,0-2,.95,3.456,3.456,0,0,0-.831,2.364v5.168h-1.459v-9.633h1.2l.167,1.784h.07a4.239,4.239,0,0,1,1.292-1.45A2.91,2.91,0,0,1-1839.813,1586.283Z" fill="#00223d"/>
        <path id="Trazado_7546" data-name="Trazado 7546" d="M-1830.726,1596.092h-1.459v-13.676h1.459Z" fill="#00223d"/>
        <path id="Trazado_7547" data-name="Trazado 7547" d="M-1821.708,1596.092l-.29-1.371h-.07a4.068,4.068,0,0,1-1.437,1.226,4.4,4.4,0,0,1-1.789.321,3.22,3.22,0,0,1-2.246-.739,2.692,2.692,0,0,1-.813-2.1q0-2.919,4.667-3.059l1.635-.053v-.6a2.441,2.441,0,0,0-.488-1.675,2.011,2.011,0,0,0-1.56-.54,6.355,6.355,0,0,0-2.724.738l-.448-1.116a6.806,6.806,0,0,1,1.56-.606,6.73,6.73,0,0,1,1.7-.22,3.671,3.671,0,0,1,2.553.764,3.193,3.193,0,0,1,.831,2.453v6.574Zm-3.3-1.029a2.961,2.961,0,0,0,2.14-.747,2.761,2.761,0,0,0,.778-2.091v-.871l-1.459.062a5.306,5.306,0,0,0-2.509.541,1.627,1.627,0,0,0-.769,1.489,1.5,1.5,0,0,0,.479,1.2A1.984,1.984,0,0,0-1825,1595.063Z" fill="#00223d"/>
        <path id="Trazado_7548" data-name="Trazado 7548" d="M-1807.021,1596.092l-.291-1.371h-.07a4.053,4.053,0,0,1-1.437,1.226,4.393,4.393,0,0,1-1.788.321,3.218,3.218,0,0,1-2.246-.739,2.692,2.692,0,0,1-.813-2.1q0-2.919,4.667-3.059l1.635-.053v-.6a2.445,2.445,0,0,0-.488-1.675,2.01,2.01,0,0,0-1.56-.54,6.359,6.359,0,0,0-2.725.738l-.448-1.116a6.841,6.841,0,0,1,1.56-.606,6.738,6.738,0,0,1,1.7-.22,3.674,3.674,0,0,1,2.553.764,3.193,3.193,0,0,1,.831,2.453v6.574Zm-3.3-1.029a2.963,2.963,0,0,0,2.14-.747,2.765,2.765,0,0,0,.778-2.091v-.871l-1.459.062a5.311,5.311,0,0,0-2.51.541,1.629,1.629,0,0,0-.769,1.489,1.5,1.5,0,0,0,.479,1.2A1.987,1.987,0,0,0-1810.317,1595.063Z" fill="#00223d"/>
        <path id="Trazado_7549" data-name="Trazado 7549" d="M-1796.721,1593.464a2.413,2.413,0,0,1-1,2.074,4.71,4.71,0,0,1-2.812.73,6.114,6.114,0,0,1-2.988-.607v-1.353a7.177,7.177,0,0,0,1.489.553,6.218,6.218,0,0,0,1.534.2,3.48,3.48,0,0,0,1.758-.364,1.207,1.207,0,0,0,.615-1.112,1.208,1.208,0,0,0-.488-.962,7.632,7.632,0,0,0-1.9-.945,10.261,10.261,0,0,1-1.911-.875,2.61,2.61,0,0,1-.844-.848,2.206,2.206,0,0,1-.277-1.134,2.162,2.162,0,0,1,.958-1.858,4.467,4.467,0,0,1,2.628-.682,7.687,7.687,0,0,1,3.041.633l-.518,1.187a6.971,6.971,0,0,0-2.628-.6,3.025,3.025,0,0,0-1.565.325,1.007,1.007,0,0,0-.527.9,1.093,1.093,0,0,0,.2.659,1.948,1.948,0,0,0,.637.518,14.156,14.156,0,0,0,1.687.712,6.3,6.3,0,0,1,2.316,1.257A2.214,2.214,0,0,1-1796.721,1593.464Z" fill="#00223d"/>
        <path id="Trazado_7550" data-name="Trazado 7550" d="M-1794.471,1583.849a.97.97,0,0,1,.246-.734.863.863,0,0,1,.616-.233.86.86,0,0,1,.606.237.952.952,0,0,1,.255.73.963.963,0,0,1-.255.733.847.847,0,0,1-.606.242.841.841,0,0,1-.616-.242A.983.983,0,0,1-1794.471,1583.849Zm1.582,12.243h-1.459v-9.633h1.459Z" fill="#00223d"/>
        <path id="Trazado_7551" data-name="Trazado 7551" d="M-1783.581,1593.464a2.413,2.413,0,0,1-1,2.074,4.711,4.711,0,0,1-2.813.73,6.12,6.12,0,0,1-2.988-.607v-1.353a7.21,7.21,0,0,0,1.49.553,6.205,6.205,0,0,0,1.534.2,3.478,3.478,0,0,0,1.757-.364,1.205,1.205,0,0,0,.616-1.112,1.207,1.207,0,0,0-.488-.962,7.654,7.654,0,0,0-1.9-.945,10.281,10.281,0,0,1-1.912-.875,2.608,2.608,0,0,1-.843-.848,2.207,2.207,0,0,1-.277-1.134,2.159,2.159,0,0,1,.958-1.858,4.464,4.464,0,0,1,2.628-.682,7.687,7.687,0,0,1,3.041.633l-.519,1.187a6.972,6.972,0,0,0-2.628-.6,3.02,3.02,0,0,0-1.564.325,1,1,0,0,0-.527.9,1.092,1.092,0,0,0,.2.659,1.969,1.969,0,0,0,.637.518,14.173,14.173,0,0,0,1.688.712,6.3,6.3,0,0,1,2.316,1.257A2.218,2.218,0,0,1-1783.581,1593.464Z" fill="#00223d"/>
        <path id="Trazado_7552" data-name="Trazado 7552" d="M-1778.1,1595.063a4.647,4.647,0,0,0,.747-.057,4.64,4.64,0,0,0,.572-.118V1596a2.694,2.694,0,0,1-.7.189,5.362,5.362,0,0,1-.831.075q-2.795,0-2.8-2.945v-5.73h-1.379v-.7l1.379-.607.616-2.056h.843v2.232h2.8v1.134h-2.8v5.669a1.949,1.949,0,0,0,.414,1.336A1.437,1.437,0,0,0-1778.1,1595.063Z" fill="#00223d"/>
        <path id="Trazado_7553" data-name="Trazado 7553" d="M-1770.784,1596.268a4.427,4.427,0,0,1-3.371-1.3,5.037,5.037,0,0,1-1.235-3.613,5.589,5.589,0,0,1,1.147-3.7,3.811,3.811,0,0,1,3.081-1.371,3.633,3.633,0,0,1,2.865,1.192,4.562,4.562,0,0,1,1.055,3.141v.923h-6.636a3.817,3.817,0,0,0,.857,2.575,2.964,2.964,0,0,0,2.29.879,7.769,7.769,0,0,0,3.076-.65v1.3a7.886,7.886,0,0,1-1.464.479A8.275,8.275,0,0,1-1770.784,1596.268Zm-.4-8.763a2.383,2.383,0,0,0-1.85.756,3.484,3.484,0,0,0-.813,2.092h5.036a3.215,3.215,0,0,0-.615-2.115A2.168,2.168,0,0,0-1771.18,1587.505Z" fill="#00223d"/>
        <path id="Trazado_7554" data-name="Trazado 7554" d="M-1758.163,1596.092v-6.232a2.513,2.513,0,0,0-.536-1.757,2.184,2.184,0,0,0-1.679-.581,2.769,2.769,0,0,0-2.215.818,4.125,4.125,0,0,0-.7,2.7v5.054h-1.459v-9.633h1.187l.237,1.318h.07a2.994,2.994,0,0,1,1.257-1.1,4.1,4.1,0,0,1,1.8-.391,3.657,3.657,0,0,1,2.619.84,3.571,3.571,0,0,1,.879,2.685v6.284Z" fill="#00223d"/>
        <path id="Trazado_7555" data-name="Trazado 7555" d="M-1749.857,1596.268a4.108,4.108,0,0,1-3.239-1.288,5.293,5.293,0,0,1-1.147-3.643,5.459,5.459,0,0,1,1.164-3.735,4.2,4.2,0,0,1,3.318-1.319,6.564,6.564,0,0,1,1.389.15,4.545,4.545,0,0,1,1.09.351l-.448,1.239a7,7,0,0,0-1.055-.32,4.716,4.716,0,0,0-1.011-.128q-2.936,0-2.935,3.744a4.455,4.455,0,0,0,.716,2.725,2.49,2.49,0,0,0,2.122.949,6.5,6.5,0,0,0,2.47-.518v1.292A5.262,5.262,0,0,1-1749.857,1596.268Z" fill="#00223d"/>
        <path id="Trazado_7556" data-name="Trazado 7556" d="M-1745.261,1583.849a.971.971,0,0,1,.246-.734.861.861,0,0,1,.616-.233.86.86,0,0,1,.606.237.953.953,0,0,1,.255.73.963.963,0,0,1-.255.733.848.848,0,0,1-.606.242.84.84,0,0,1-.616-.242A.984.984,0,0,1-1745.261,1583.849Zm1.582,12.243h-1.459v-9.633h1.459Z" fill="#00223d"/>
        <path id="Trazado_7557" data-name="Trazado 7557" d="M-1734.661,1596.092l-.29-1.371h-.07a4.068,4.068,0,0,1-1.437,1.226,4.4,4.4,0,0,1-1.789.321,3.22,3.22,0,0,1-2.246-.739,2.692,2.692,0,0,1-.813-2.1q0-2.919,4.667-3.059l1.635-.053v-.6a2.446,2.446,0,0,0-.488-1.675,2.011,2.011,0,0,0-1.56-.54,6.356,6.356,0,0,0-2.724.738l-.449-1.116a6.841,6.841,0,0,1,1.56-.606,6.743,6.743,0,0,1,1.7-.22,3.671,3.671,0,0,1,2.553.764,3.193,3.193,0,0,1,.831,2.453v6.574Zm-3.3-1.029a2.961,2.961,0,0,0,2.14-.747,2.761,2.761,0,0,0,.778-2.091v-.871l-1.459.062a5.306,5.306,0,0,0-2.509.541,1.627,1.627,0,0,0-.769,1.489,1.5,1.5,0,0,0,.479,1.2A1.984,1.984,0,0,0-1737.957,1595.063Z" fill="#00223d"/>
        <path id="Trazado_7558" data-name="Trazado 7558" d="M-1721.829,1596.268a4.428,4.428,0,0,1-3.371-1.3,5.037,5.037,0,0,1-1.235-3.613,5.588,5.588,0,0,1,1.147-3.7,3.811,3.811,0,0,1,3.081-1.371,3.633,3.633,0,0,1,2.865,1.192,4.562,4.562,0,0,1,1.055,3.141v.923h-6.636a3.816,3.816,0,0,0,.857,2.575,2.964,2.964,0,0,0,2.29.879,7.77,7.77,0,0,0,3.076-.65v1.3a7.886,7.886,0,0,1-1.464.479A8.276,8.276,0,0,1-1721.829,1596.268Zm-.4-8.763a2.382,2.382,0,0,0-1.85.756,3.483,3.483,0,0,0-.813,2.092h5.036a3.215,3.215,0,0,0-.615-2.115A2.168,2.168,0,0,0-1722.225,1587.505Z" fill="#00223d"/>
        <path id="Trazado_7559" data-name="Trazado 7559" d="M-1709.208,1596.092v-6.232a2.512,2.512,0,0,0-.536-1.757,2.184,2.184,0,0,0-1.679-.581,2.769,2.769,0,0,0-2.215.818,4.13,4.13,0,0,0-.7,2.7v5.054h-1.459v-9.633h1.187l.237,1.318h.07a2.994,2.994,0,0,1,1.257-1.1,4.094,4.094,0,0,1,1.8-.391,3.657,3.657,0,0,1,2.619.84,3.571,3.571,0,0,1,.879,2.685v6.284Z" fill="#00223d"/>
        <path id="Trazado_7560" data-name="Trazado 7560" d="M-1696.227,1596.268a4.107,4.107,0,0,1-3.238-1.288,5.293,5.293,0,0,1-1.147-3.643,5.459,5.459,0,0,1,1.164-3.735,4.2,4.2,0,0,1,3.318-1.319,6.564,6.564,0,0,1,1.389.15,4.543,4.543,0,0,1,1.09.351l-.449,1.239a6.945,6.945,0,0,0-1.054-.32,4.716,4.716,0,0,0-1.011-.128q-2.935,0-2.936,3.744a4.455,4.455,0,0,0,.717,2.725,2.49,2.49,0,0,0,2.122.949,6.5,6.5,0,0,0,2.47-.518v1.292A5.266,5.266,0,0,1-1696.227,1596.268Z" fill="#00223d"/>
        <path id="Trazado_7561" data-name="Trazado 7561" d="M-1691.63,1583.849a.971.971,0,0,1,.246-.734.861.861,0,0,1,.615-.233.861.861,0,0,1,.607.237.952.952,0,0,1,.255.73.963.963,0,0,1-.255.733.848.848,0,0,1-.607.242.839.839,0,0,1-.615-.242A.984.984,0,0,1-1691.63,1583.849Zm1.582,12.243h-1.459v-9.633h1.459Z" fill="#00223d"/>
        <path id="Trazado_7562" data-name="Trazado 7562" d="M-1682.56,1586.283a5.66,5.66,0,0,1,1.152.106l-.2,1.353a4.976,4.976,0,0,0-1.055-.132,2.569,2.569,0,0,0-2,.95,3.461,3.461,0,0,0-.83,2.364v5.168h-1.459v-9.633h1.2l.167,1.784h.07a4.239,4.239,0,0,1,1.292-1.45A2.908,2.908,0,0,1-1682.56,1586.283Z" fill="#00223d"/>
        <path id="Trazado_7563" data-name="Trazado 7563" d="M-1675.757,1596.268a4.111,4.111,0,0,1-3.239-1.288,5.3,5.3,0,0,1-1.147-3.643,5.46,5.46,0,0,1,1.165-3.735,4.192,4.192,0,0,1,3.318-1.319,6.564,6.564,0,0,1,1.389.15,4.532,4.532,0,0,1,1.089.351l-.448,1.239a6.959,6.959,0,0,0-1.055-.32,4.7,4.7,0,0,0-1.01-.128q-2.936,0-2.936,3.744a4.463,4.463,0,0,0,.716,2.725,2.494,2.494,0,0,0,2.123.949,6.5,6.5,0,0,0,2.47-.518v1.292A5.265,5.265,0,0,1-1675.757,1596.268Z" fill="#00223d"/>
        <path id="Trazado_7564" data-name="Trazado 7564" d="M-1669.666,1586.459v6.249a2.517,2.517,0,0,0,.536,1.758,2.184,2.184,0,0,0,1.679.58,2.737,2.737,0,0,0,2.21-.826,4.168,4.168,0,0,0,.7-2.7v-5.062h1.459v9.633h-1.2l-.211-1.292h-.079a2.916,2.916,0,0,1-1.244,1.09,4.178,4.178,0,0,1-1.815.378,3.684,3.684,0,0,1-2.632-.835,3.556,3.556,0,0,1-.875-2.672v-6.3Z" fill="#00223d"/>
        <path id="Trazado_7565" data-name="Trazado 7565" d="M-1653.4,1596.092v-6.232a2.508,2.508,0,0,0-.537-1.757,2.182,2.182,0,0,0-1.678-.581,2.769,2.769,0,0,0-2.215.818,4.125,4.125,0,0,0-.7,2.7v5.054h-1.459v-9.633h1.186l.238,1.318h.07a2.994,2.994,0,0,1,1.257-1.1,4.091,4.091,0,0,1,1.8-.391,3.658,3.658,0,0,1,2.62.84,3.571,3.571,0,0,1,.879,2.685v6.284Z" fill="#00223d"/>
        <path id="Trazado_7566" data-name="Trazado 7566" d="M-1642.728,1593.464a2.414,2.414,0,0,1-1,2.074,4.713,4.713,0,0,1-2.813.73,6.12,6.12,0,0,1-2.988-.607v-1.353a7.2,7.2,0,0,0,1.489.553,6.217,6.217,0,0,0,1.534.2,3.48,3.48,0,0,0,1.758-.364,1.206,1.206,0,0,0,.615-1.112,1.2,1.2,0,0,0-.488-.962,7.642,7.642,0,0,0-1.9-.945,10.25,10.25,0,0,1-1.912-.875,2.612,2.612,0,0,1-.844-.848,2.217,2.217,0,0,1-.277-1.134,2.161,2.161,0,0,1,.958-1.858,4.467,4.467,0,0,1,2.628-.682,7.686,7.686,0,0,1,3.041.633l-.518,1.187a6.972,6.972,0,0,0-2.628-.6,3.024,3.024,0,0,0-1.565.325,1.007,1.007,0,0,0-.527.9,1.092,1.092,0,0,0,.2.659,1.959,1.959,0,0,0,.637.518,14.137,14.137,0,0,0,1.687.712,6.3,6.3,0,0,1,2.316,1.257A2.214,2.214,0,0,1-1642.728,1593.464Z" fill="#00223d"/>
        <path id="Trazado_7567" data-name="Trazado 7567" d="M-1637.243,1595.063a4.647,4.647,0,0,0,.747-.057,4.611,4.611,0,0,0,.571-.118V1596a2.682,2.682,0,0,1-.7.189,5.34,5.34,0,0,1-.83.075q-2.795,0-2.8-2.945v-5.73h-1.38v-.7l1.38-.607.615-2.056h.844v2.232h2.8v1.134h-2.8v5.669a1.953,1.953,0,0,0,.413,1.336A1.438,1.438,0,0,0-1637.243,1595.063Z" fill="#00223d"/>
        <path id="Trazado_7568" data-name="Trazado 7568" d="M-1628.076,1596.092l-.29-1.371h-.071a4.052,4.052,0,0,1-1.437,1.226,4.389,4.389,0,0,1-1.788.321,3.22,3.22,0,0,1-2.246-.739,2.692,2.692,0,0,1-.813-2.1q0-2.919,4.667-3.059l1.635-.053v-.6a2.446,2.446,0,0,0-.488-1.675,2.01,2.01,0,0,0-1.56-.54,6.352,6.352,0,0,0-2.724.738l-.449-1.116a6.84,6.84,0,0,1,1.56-.606,6.742,6.742,0,0,1,1.7-.22,3.671,3.671,0,0,1,2.553.764,3.193,3.193,0,0,1,.831,2.453v6.574Zm-3.3-1.029a2.961,2.961,0,0,0,2.14-.747,2.761,2.761,0,0,0,.778-2.091v-.871l-1.459.062a5.306,5.306,0,0,0-2.509.541,1.627,1.627,0,0,0-.769,1.489,1.5,1.5,0,0,0,.479,1.2A1.984,1.984,0,0,0-1631.372,1595.063Z" fill="#00223d"/>
        <path id="Trazado_7569" data-name="Trazado 7569" d="M-1617.4,1596.092v-6.232a2.508,2.508,0,0,0-.537-1.757,2.182,2.182,0,0,0-1.678-.581,2.769,2.769,0,0,0-2.215.818,4.125,4.125,0,0,0-.7,2.7v5.054h-1.459v-9.633h1.186l.238,1.318h.07a2.994,2.994,0,0,1,1.257-1.1,4.091,4.091,0,0,1,1.8-.391,3.658,3.658,0,0,1,2.62.84,3.571,3.571,0,0,1,.879,2.685v6.284Z" fill="#00223d"/>
        <path id="Trazado_7570" data-name="Trazado 7570" d="M-1609.092,1596.268a4.111,4.111,0,0,1-3.239-1.288,5.3,5.3,0,0,1-1.147-3.643,5.46,5.46,0,0,1,1.165-3.735,4.192,4.192,0,0,1,3.318-1.319,6.564,6.564,0,0,1,1.389.15,4.535,4.535,0,0,1,1.089.351l-.448,1.239a6.963,6.963,0,0,0-1.055-.32,4.7,4.7,0,0,0-1.01-.128q-2.936,0-2.936,3.744a4.462,4.462,0,0,0,.716,2.725,2.494,2.494,0,0,0,2.123.949,6.5,6.5,0,0,0,2.47-.518v1.292A5.266,5.266,0,0,1-1609.092,1596.268Z" fill="#00223d"/>
        <path id="Trazado_7571" data-name="Trazado 7571" d="M-1604.495,1583.849a.971.971,0,0,1,.246-.734.861.861,0,0,1,.615-.233.861.861,0,0,1,.607.237.953.953,0,0,1,.255.73.963.963,0,0,1-.255.733.848.848,0,0,1-.607.242.839.839,0,0,1-.615-.242A.984.984,0,0,1-1604.495,1583.849Zm1.582,12.243h-1.459v-9.633h1.459Z" fill="#00223d"/>
        <path id="Trazado_7572" data-name="Trazado 7572" d="M-1593.9,1596.092l-.29-1.371h-.07a4.052,4.052,0,0,1-1.437,1.226,4.392,4.392,0,0,1-1.788.321,3.218,3.218,0,0,1-2.246-.739,2.692,2.692,0,0,1-.813-2.1q0-2.919,4.667-3.059l1.635-.053v-.6a2.446,2.446,0,0,0-.488-1.675,2.011,2.011,0,0,0-1.56-.54,6.359,6.359,0,0,0-2.725.738l-.448-1.116a6.841,6.841,0,0,1,1.56-.606,6.738,6.738,0,0,1,1.7-.22,3.674,3.674,0,0,1,2.553.764,3.193,3.193,0,0,1,.831,2.453v6.574Zm-3.3-1.029a2.962,2.962,0,0,0,2.14-.747,2.765,2.765,0,0,0,.778-2.091v-.871l-1.459.062a5.31,5.31,0,0,0-2.51.541,1.629,1.629,0,0,0-.769,1.489,1.5,1.5,0,0,0,.479,1.2A1.987,1.987,0,0,0-1597.191,1595.063Z" fill="#00223d"/>
        <path id="Trazado_7573" data-name="Trazado 7573" d="M-1583.595,1593.464a2.412,2.412,0,0,1-1,2.074,4.71,4.71,0,0,1-2.812.73,6.114,6.114,0,0,1-2.988-.607v-1.353a7.175,7.175,0,0,0,1.489.553,6.217,6.217,0,0,0,1.534.2,3.48,3.48,0,0,0,1.758-.364,1.207,1.207,0,0,0,.615-1.112,1.207,1.207,0,0,0-.488-.962,7.632,7.632,0,0,0-1.9-.945,10.261,10.261,0,0,1-1.911-.875,2.61,2.61,0,0,1-.844-.848,2.206,2.206,0,0,1-.277-1.134,2.161,2.161,0,0,1,.958-1.858,4.466,4.466,0,0,1,2.628-.682,7.687,7.687,0,0,1,3.041.633l-.518,1.187a6.972,6.972,0,0,0-2.628-.6,3.025,3.025,0,0,0-1.565.325,1.007,1.007,0,0,0-.527.9,1.093,1.093,0,0,0,.2.659,1.948,1.948,0,0,0,.637.518,14.137,14.137,0,0,0,1.687.712,6.3,6.3,0,0,1,2.316,1.257A2.214,2.214,0,0,1-1583.595,1593.464Z" fill="#00223d"/>
        <path id="Trazado_7574" data-name="Trazado 7574" d="M-1569.989,1594.8h-.079a3.431,3.431,0,0,1-3.024,1.468,3.577,3.577,0,0,1-2.94-1.292,5.689,5.689,0,0,1-1.05-3.674,5.781,5.781,0,0,1,1.055-3.7,3.548,3.548,0,0,1,2.935-1.319,3.5,3.5,0,0,1,3.006,1.424h.114l-.061-.694-.035-.677v-3.92h1.459v13.676h-1.187Zm-2.918.246a2.652,2.652,0,0,0,2.166-.814,4.1,4.1,0,0,0,.673-2.623v-.307a4.832,4.832,0,0,0-.682-2.923,2.589,2.589,0,0,0-2.175-.874,2.235,2.235,0,0,0-1.964,1,4.964,4.964,0,0,0-.681,2.817,4.754,4.754,0,0,0,.676,2.786A2.3,2.3,0,0,0-1572.907,1595.046Z" fill="#00223d"/>
        <path id="Trazado_7575" data-name="Trazado 7575" d="M-1565.639,1583.849a.971.971,0,0,1,.246-.734.863.863,0,0,1,.616-.233.86.86,0,0,1,.606.237.952.952,0,0,1,.255.73.963.963,0,0,1-.255.733.847.847,0,0,1-.606.242.841.841,0,0,1-.616-.242A.983.983,0,0,1-1565.639,1583.849Zm1.582,12.243h-1.459v-9.633h1.459Z" fill="#00223d"/>
        <path id="Trazado_7576" data-name="Trazado 7576" d="M-1556.621,1587.593h-2.452v8.5h-1.459v-8.5h-1.723v-.659l1.723-.528v-.536q0-3.55,3.1-3.551a6.387,6.387,0,0,1,1.793.308l-.378,1.169a4.815,4.815,0,0,0-1.441-.273,1.408,1.408,0,0,0-1.222.549,3.074,3.074,0,0,0-.4,1.763v.624h2.452Z" fill="#00223d"/>
        <path id="Trazado_7577" data-name="Trazado 7577" d="M-1554.925,1584.965q.422-.544.91-1.319a15.137,15.137,0,0,0,.769-1.344h1.775v.184a13.005,13.005,0,0,1-1.151,1.407,13.209,13.209,0,0,1-1.327,1.292h-.976Zm1.521,11.127h-1.459v-9.633h1.459Z" fill="#00223d"/>
        <path id="Trazado_7578" data-name="Trazado 7578" d="M-1546.461,1596.268a4.111,4.111,0,0,1-3.239-1.288,5.3,5.3,0,0,1-1.147-3.643,5.46,5.46,0,0,1,1.165-3.735,4.192,4.192,0,0,1,3.318-1.319,6.548,6.548,0,0,1,1.388.15,4.528,4.528,0,0,1,1.09.351l-.448,1.239a6.963,6.963,0,0,0-1.055-.32,4.707,4.707,0,0,0-1.01-.128q-2.935,0-2.936,3.744a4.463,4.463,0,0,0,.716,2.725,2.492,2.492,0,0,0,2.123.949,6.5,6.5,0,0,0,2.47-.518v1.292A5.266,5.266,0,0,1-1546.461,1596.268Z" fill="#00223d"/>
        <path id="Trazado_7579" data-name="Trazado 7579" d="M-1541.864,1583.849a.971.971,0,0,1,.246-.734.861.861,0,0,1,.615-.233.863.863,0,0,1,.607.237.956.956,0,0,1,.254.73.966.966,0,0,1-.254.733.85.85,0,0,1-.607.242.839.839,0,0,1-.615-.242A.984.984,0,0,1-1541.864,1583.849Zm1.582,12.243h-1.459v-9.633h1.459Z" fill="#00223d"/>
        <path id="Trazado_7580" data-name="Trazado 7580" d="M-1535.729,1596.092h-1.459v-13.676h1.459Z" fill="#00223d"/>
        <path id="Trazado_7581" data-name="Trazado 7581" d="M-1528.566,1596.268a4.427,4.427,0,0,1-3.371-1.3,5.037,5.037,0,0,1-1.235-3.613,5.583,5.583,0,0,1,1.147-3.7,3.811,3.811,0,0,1,3.081-1.371,3.633,3.633,0,0,1,2.865,1.192,4.562,4.562,0,0,1,1.055,3.141v.923h-6.636a3.817,3.817,0,0,0,.857,2.575,2.963,2.963,0,0,0,2.289.879,7.766,7.766,0,0,0,3.076-.65v1.3a7.854,7.854,0,0,1-1.463.479A8.275,8.275,0,0,1-1528.566,1596.268Zm-.4-8.763a2.383,2.383,0,0,0-1.85.756,3.484,3.484,0,0,0-.813,2.092h5.036a3.215,3.215,0,0,0-.615-2.115A2.168,2.168,0,0,0-1528.962,1587.505Z" fill="#00223d"/>
        <path id="Trazado_7582" data-name="Trazado 7582" d="M-1516.323,1593.464a2.413,2.413,0,0,1-1,2.074,4.713,4.713,0,0,1-2.813.73,6.119,6.119,0,0,1-2.988-.607v-1.353a7.186,7.186,0,0,0,1.49.553,6.2,6.2,0,0,0,1.533.2,3.48,3.48,0,0,0,1.758-.364,1.207,1.207,0,0,0,.616-1.112,1.207,1.207,0,0,0-.488-.962,7.65,7.65,0,0,0-1.9-.945,10.246,10.246,0,0,1-1.912-.875,2.6,2.6,0,0,1-.843-.848,2.206,2.206,0,0,1-.277-1.134,2.159,2.159,0,0,1,.958-1.858,4.462,4.462,0,0,1,2.628-.682,7.69,7.69,0,0,1,3.041.633l-.519,1.187a6.972,6.972,0,0,0-2.628-.6,3.02,3.02,0,0,0-1.564.325,1.006,1.006,0,0,0-.528.9,1.093,1.093,0,0,0,.2.659,1.959,1.959,0,0,0,.637.518,14.173,14.173,0,0,0,1.688.712,6.313,6.313,0,0,1,2.316,1.257A2.218,2.218,0,0,1-1516.323,1593.464Z" fill="#00223d"/>
        <path id="Trazado_7583" data-name="Trazado 7583" d="M-1512.421,1594l.132.2q-.228.879-.659,2.044t-.9,2.166h-1.1q.237-.914.523-2.259t.4-2.153Z" fill="#00223d"/>
        <path id="Trazado_7584" data-name="Trazado 7584" d="M-1506.392,1586.459h1.565l2.109,5.493a21.016,21.016,0,0,1,.862,2.716h.07q.114-.448.479-1.533t2.386-6.676h1.565l-4.14,10.969a5.464,5.464,0,0,1-1.437,2.306,3.057,3.057,0,0,1-2.017.682,5.909,5.909,0,0,1-1.319-.149V1599.1a5.118,5.118,0,0,0,1.081.1,2.229,2.229,0,0,0,2.145-1.687l.536-1.371Z" fill="#00223d"/>
        <path id="Trazado_7585" data-name="Trazado 7585" d="M-1487.267,1596.268a4.108,4.108,0,0,1-3.238-1.288,5.293,5.293,0,0,1-1.147-3.643,5.459,5.459,0,0,1,1.164-3.735,4.2,4.2,0,0,1,3.318-1.319,6.564,6.564,0,0,1,1.389.15,4.541,4.541,0,0,1,1.09.351l-.449,1.239a6.948,6.948,0,0,0-1.054-.32,4.716,4.716,0,0,0-1.011-.128q-2.936,0-2.936,3.744a4.455,4.455,0,0,0,.717,2.725,2.49,2.49,0,0,0,2.122.949,6.5,6.5,0,0,0,2.47-.518v1.292A5.265,5.265,0,0,1-1487.267,1596.268Z" fill="#00223d"/>
        <path id="Trazado_7586" data-name="Trazado 7586" d="M-1474.232,1591.267a5.315,5.315,0,0,1-1.187,3.678,4.178,4.178,0,0,1-3.278,1.323,4.344,4.344,0,0,1-2.294-.607,4,4,0,0,1-1.547-1.74,6.069,6.069,0,0,1-.545-2.654,5.3,5.3,0,0,1,1.178-3.669,4.165,4.165,0,0,1,3.269-1.315,4.074,4.074,0,0,1,3.213,1.345A5.29,5.29,0,0,1-1474.232,1591.267Zm-7.339,0a4.572,4.572,0,0,0,.738,2.812,2.562,2.562,0,0,0,2.171.967,2.58,2.58,0,0,0,2.175-.962,4.552,4.552,0,0,0,.743-2.817,4.472,4.472,0,0,0-.743-2.79,2.609,2.609,0,0,0-2.193-.955,2.569,2.569,0,0,0-2.162.941A4.528,4.528,0,0,0-1481.571,1591.267Z" fill="#00223d"/>
        <path id="Trazado_7587" data-name="Trazado 7587" d="M-1467.28,1586.283a5.656,5.656,0,0,1,1.151.106l-.2,1.353a4.967,4.967,0,0,0-1.055-.132,2.566,2.566,0,0,0-2,.95,3.457,3.457,0,0,0-.831,2.364v5.168h-1.459v-9.633h1.2l.167,1.784h.071a4.231,4.231,0,0,1,1.292-1.45A2.9,2.9,0,0,1-1467.28,1586.283Z" fill="#00223d"/>
        <path id="Trazado_7588" data-name="Trazado 7588" d="M-1459.933,1586.283a5.659,5.659,0,0,1,1.152.106l-.2,1.353a4.975,4.975,0,0,0-1.055-.132,2.569,2.569,0,0,0-2,.95,3.461,3.461,0,0,0-.83,2.364v5.168h-1.459v-9.633h1.2l.167,1.784h.07a4.24,4.24,0,0,1,1.292-1.45A2.909,2.909,0,0,1-1459.933,1586.283Z" fill="#00223d"/>
        <path id="Trazado_7589" data-name="Trazado 7589" d="M-1452.91,1596.268a4.427,4.427,0,0,1-3.371-1.3,5.037,5.037,0,0,1-1.235-3.613,5.588,5.588,0,0,1,1.147-3.7,3.811,3.811,0,0,1,3.081-1.371,3.633,3.633,0,0,1,2.865,1.192,4.562,4.562,0,0,1,1.055,3.141v.923H-1456a3.817,3.817,0,0,0,.857,2.575,2.964,2.964,0,0,0,2.29.879,7.77,7.77,0,0,0,3.076-.65v1.3a7.886,7.886,0,0,1-1.464.479A8.275,8.275,0,0,1-1452.91,1596.268Zm-.4-8.763a2.383,2.383,0,0,0-1.85.756,3.484,3.484,0,0,0-.813,2.092h5.036a3.215,3.215,0,0,0-.615-2.115A2.168,2.168,0,0,0-1453.306,1587.505Z" fill="#00223d"/>
      </g>
      <g id="Grupo_1458" data-name="Grupo 1458" style="isolation: isolate">
        <path id="Trazado_7590" data-name="Trazado 7590" d="M-2106.922,1620.092v-6.267a2.6,2.6,0,0,0-.492-1.727,1.906,1.906,0,0,0-1.529-.576,2.468,2.468,0,0,0-2.013.783,3.715,3.715,0,0,0-.65,2.408v5.379h-1.459v-6.267a2.6,2.6,0,0,0-.493-1.727,1.916,1.916,0,0,0-1.538-.576,2.385,2.385,0,0,0-2.008.822,4.449,4.449,0,0,0-.637,2.694v5.054h-1.459v-9.633h1.186l.238,1.318h.07a2.87,2.87,0,0,1,1.164-1.1,3.559,3.559,0,0,1,1.684-.4,2.862,2.862,0,0,1,2.953,1.635h.07a3.067,3.067,0,0,1,1.248-1.195,3.872,3.872,0,0,1,1.863-.44,3.261,3.261,0,0,1,2.448.84,3.754,3.754,0,0,1,.813,2.685v6.284Z" fill="#00223d"/>
        <path id="Trazado_7591" data-name="Trazado 7591" d="M-2096.533,1620.092l-.29-1.371h-.071a4.052,4.052,0,0,1-1.437,1.226,4.389,4.389,0,0,1-1.788.321,3.22,3.22,0,0,1-2.246-.739,2.692,2.692,0,0,1-.813-2.1q0-2.919,4.667-3.059l1.635-.053v-.6a2.446,2.446,0,0,0-.488-1.675,2.01,2.01,0,0,0-1.56-.54,6.351,6.351,0,0,0-2.724.738l-.449-1.116a6.838,6.838,0,0,1,1.56-.606,6.744,6.744,0,0,1,1.7-.22,3.672,3.672,0,0,1,2.553.764,3.193,3.193,0,0,1,.831,2.453v6.574Zm-3.3-1.029a2.963,2.963,0,0,0,2.14-.747,2.761,2.761,0,0,0,.778-2.091v-.871l-1.459.062a5.305,5.305,0,0,0-2.509.541,1.627,1.627,0,0,0-.769,1.489,1.5,1.5,0,0,0,.479,1.2A1.983,1.983,0,0,0-2099.829,1619.063Z" fill="#00223d"/>
        <path id="Trazado_7592" data-name="Trazado 7592" d="M-2093.976,1610.459h1.565l2.109,5.493a21.036,21.036,0,0,1,.862,2.716h.07q.114-.448.479-1.533t2.386-6.676h1.565l-4.14,10.969a5.462,5.462,0,0,1-1.437,2.306,3.056,3.056,0,0,1-2.017.682,5.916,5.916,0,0,1-1.319-.149V1623.1a5.122,5.122,0,0,0,1.082.1,2.228,2.228,0,0,0,2.144-1.687l.536-1.371Z" fill="#00223d"/>
        <path id="Trazado_7593" data-name="Trazado 7593" d="M-2075.062,1615.267a5.314,5.314,0,0,1-1.186,3.678,4.178,4.178,0,0,1-3.278,1.323,4.345,4.345,0,0,1-2.294-.607,4,4,0,0,1-1.547-1.74,6.069,6.069,0,0,1-.545-2.654,5.3,5.3,0,0,1,1.178-3.669,4.165,4.165,0,0,1,3.269-1.315,4.074,4.074,0,0,1,3.213,1.345A5.289,5.289,0,0,1-2075.062,1615.267Zm-7.338,0a4.572,4.572,0,0,0,.738,2.812,2.562,2.562,0,0,0,2.171.967,2.581,2.581,0,0,0,2.175-.962,4.554,4.554,0,0,0,.743-2.817,4.473,4.473,0,0,0-.743-2.79,2.61,2.61,0,0,0-2.193-.955,2.567,2.567,0,0,0-2.162.941A4.527,4.527,0,0,0-2082.4,1615.267Z" fill="#00223d"/>
        <path id="Trazado_7594" data-name="Trazado 7594" d="M-2068.109,1610.283a5.656,5.656,0,0,1,1.151.106l-.2,1.353a4.977,4.977,0,0,0-1.055-.132,2.566,2.566,0,0,0-2,.95,3.457,3.457,0,0,0-.831,2.364v5.168h-1.459v-9.633h1.2l.167,1.784h.07a4.25,4.25,0,0,1,1.292-1.45A2.91,2.91,0,0,1-2068.109,1610.283Z" fill="#00223d"/>
        <path id="Trazado_7595" data-name="Trazado 7595" d="M-2061.087,1620.268a4.429,4.429,0,0,1-3.371-1.3,5.036,5.036,0,0,1-1.234-3.613,5.583,5.583,0,0,1,1.147-3.7,3.808,3.808,0,0,1,3.08-1.371,3.633,3.633,0,0,1,2.865,1.192,4.557,4.557,0,0,1,1.055,3.141v.923h-6.636a3.822,3.822,0,0,0,.857,2.575,2.964,2.964,0,0,0,2.29.879,7.769,7.769,0,0,0,3.076-.65v1.3a7.88,7.88,0,0,1-1.463.479A8.288,8.288,0,0,1-2061.087,1620.268Zm-.4-8.763a2.383,2.383,0,0,0-1.851.756,3.5,3.5,0,0,0-.813,2.092h5.037a3.209,3.209,0,0,0-.616-2.115A2.167,2.167,0,0,0-2061.482,1611.505Z" fill="#00223d"/>
        <path id="Trazado_7596" data-name="Trazado 7596" d="M-2048.844,1617.464a2.413,2.413,0,0,1-1,2.074,4.71,4.71,0,0,1-2.812.73,6.114,6.114,0,0,1-2.988-.607v-1.353a7.175,7.175,0,0,0,1.489.553,6.217,6.217,0,0,0,1.534.2,3.48,3.48,0,0,0,1.758-.364,1.207,1.207,0,0,0,.615-1.112,1.208,1.208,0,0,0-.488-.962,7.631,7.631,0,0,0-1.9-.945,10.259,10.259,0,0,1-1.911-.875,2.612,2.612,0,0,1-.844-.848,2.206,2.206,0,0,1-.277-1.134,2.159,2.159,0,0,1,.958-1.858,4.467,4.467,0,0,1,2.628-.682,7.687,7.687,0,0,1,3.041.633l-.518,1.187a6.972,6.972,0,0,0-2.628-.6,3.025,3.025,0,0,0-1.565.325,1.007,1.007,0,0,0-.527.9,1.092,1.092,0,0,0,.2.659,1.947,1.947,0,0,0,.637.518,14.137,14.137,0,0,0,1.687.712,6.294,6.294,0,0,1,2.316,1.257A2.213,2.213,0,0,1-2048.844,1617.464Z" fill="#00223d"/>
        <path id="Trazado_7597" data-name="Trazado 7597" d="M-2037.4,1610.283a5.656,5.656,0,0,1,1.151.106l-.2,1.353a4.975,4.975,0,0,0-1.055-.132,2.566,2.566,0,0,0-2,.95,3.457,3.457,0,0,0-.831,2.364v5.168h-1.459v-9.633h1.2l.167,1.784h.07a4.251,4.251,0,0,1,1.292-1.45A2.91,2.91,0,0,1-2037.4,1610.283Z" fill="#00223d"/>
        <path id="Trazado_7598" data-name="Trazado 7598" d="M-2034.57,1607.849a.97.97,0,0,1,.246-.734.861.861,0,0,1,.615-.233.858.858,0,0,1,.606.237.952.952,0,0,1,.255.73.963.963,0,0,1-.255.733.846.846,0,0,1-.606.242.839.839,0,0,1-.615-.242A.983.983,0,0,1-2034.57,1607.849Zm1.582,12.243h-1.459v-9.633h1.459Z" fill="#00223d"/>
        <path id="Trazado_7599" data-name="Trazado 7599" d="M-2025.825,1620.268a4.427,4.427,0,0,1-3.371-1.3,5.037,5.037,0,0,1-1.235-3.613,5.589,5.589,0,0,1,1.147-3.7,3.812,3.812,0,0,1,3.081-1.371,3.633,3.633,0,0,1,2.865,1.192,4.562,4.562,0,0,1,1.055,3.141v.923h-6.636a3.816,3.816,0,0,0,.857,2.575,2.964,2.964,0,0,0,2.29.879,7.769,7.769,0,0,0,3.076-.65v1.3a7.883,7.883,0,0,1-1.464.479A8.275,8.275,0,0,1-2025.825,1620.268Zm-.4-8.763a2.383,2.383,0,0,0-1.85.756,3.484,3.484,0,0,0-.813,2.092h5.036a3.215,3.215,0,0,0-.615-2.115A2.168,2.168,0,0,0-2026.221,1611.505Z" fill="#00223d"/>
        <path id="Trazado_7600" data-name="Trazado 7600" d="M-2013.582,1617.464a2.413,2.413,0,0,1-1,2.074,4.71,4.71,0,0,1-2.812.73,6.121,6.121,0,0,1-2.989-.607v-1.353a7.207,7.207,0,0,0,1.49.553,6.205,6.205,0,0,0,1.534.2,3.478,3.478,0,0,0,1.757-.364,1.205,1.205,0,0,0,.616-1.112,1.207,1.207,0,0,0-.488-.962,7.654,7.654,0,0,0-1.9-.945,10.281,10.281,0,0,1-1.912-.875,2.608,2.608,0,0,1-.843-.848,2.207,2.207,0,0,1-.277-1.134,2.159,2.159,0,0,1,.958-1.858,4.467,4.467,0,0,1,2.628-.682,7.686,7.686,0,0,1,3.041.633l-.519,1.187a6.972,6.972,0,0,0-2.628-.6,3.02,3.02,0,0,0-1.564.325,1,1,0,0,0-.527.9,1.092,1.092,0,0,0,.2.659,1.969,1.969,0,0,0,.637.518,14.173,14.173,0,0,0,1.688.712,6.3,6.3,0,0,1,2.316,1.257A2.218,2.218,0,0,1-2013.582,1617.464Z" fill="#00223d"/>
        <path id="Trazado_7601" data-name="Trazado 7601" d="M-2003.325,1610.459v.923l-1.784.211a3.074,3.074,0,0,1,.439.8,3.081,3.081,0,0,1,.193,1.122,2.847,2.847,0,0,1-.966,2.258,3.9,3.9,0,0,1-2.655.844,4.4,4.4,0,0,1-.808-.07,1.436,1.436,0,0,0-.932,1.239.629.629,0,0,0,.325.584,2.363,2.363,0,0,0,1.117.19h1.7a3.811,3.811,0,0,1,2.4.659,2.289,2.289,0,0,1,.84,1.916,2.734,2.734,0,0,1-1.283,2.438,6.868,6.868,0,0,1-3.745.84,5.112,5.112,0,0,1-2.913-.7,2.27,2.27,0,0,1-1.024-1.986,2.232,2.232,0,0,1,.562-1.521,2.862,2.862,0,0,1,1.582-.87,1.52,1.52,0,0,1-.619-.519,1.369,1.369,0,0,1-.251-.817,1.548,1.548,0,0,1,.282-.923,2.943,2.943,0,0,1,.887-.764,2.6,2.6,0,0,1-1.217-1.046,3.08,3.08,0,0,1-.47-1.688,3.112,3.112,0,0,1,.949-2.438,3.867,3.867,0,0,1,2.689-.858,4.908,4.908,0,0,1,1.363.176Zm-7.682,11.25a1.31,1.31,0,0,0,.659,1.187,3.647,3.647,0,0,0,1.89.4,5.273,5.273,0,0,0,2.72-.55,1.681,1.681,0,0,0,.884-1.489,1.177,1.177,0,0,0-.484-1.085,3.741,3.741,0,0,0-1.819-.3h-1.749a2.3,2.3,0,0,0-1.547.475A1.7,1.7,0,0,0-2011.007,1621.709Zm.791-8.165a1.962,1.962,0,0,0,.571,1.529,2.282,2.282,0,0,0,1.591.519,1.861,1.861,0,0,0,2.136-2.074,1.915,1.915,0,0,0-2.162-2.171,2.14,2.14,0,0,0-1.582.553A2.232,2.232,0,0,0-2010.216,1613.544Z" fill="#00223d"/>
        <path id="Trazado_7602" data-name="Trazado 7602" d="M-1993.033,1615.267a5.314,5.314,0,0,1-1.187,3.678,4.178,4.178,0,0,1-3.278,1.323,4.347,4.347,0,0,1-2.294-.607,4,4,0,0,1-1.547-1.74,6.069,6.069,0,0,1-.545-2.654,5.3,5.3,0,0,1,1.178-3.669,4.165,4.165,0,0,1,3.269-1.315,4.074,4.074,0,0,1,3.213,1.345A5.29,5.29,0,0,1-1993.033,1615.267Zm-7.339,0a4.572,4.572,0,0,0,.738,2.812,2.562,2.562,0,0,0,2.171.967,2.581,2.581,0,0,0,2.175-.962,4.547,4.547,0,0,0,.743-2.817,4.466,4.466,0,0,0-.743-2.79,2.609,2.609,0,0,0-2.192-.955,2.57,2.57,0,0,0-2.163.941A4.527,4.527,0,0,0-2000.372,1615.267Z" fill="#00223d"/>
        <path id="Trazado_7603" data-name="Trazado 7603" d="M-1984.262,1617.464a2.412,2.412,0,0,1-1,2.074,4.71,4.71,0,0,1-2.812.73,6.114,6.114,0,0,1-2.988-.607v-1.353a7.175,7.175,0,0,0,1.489.553,6.217,6.217,0,0,0,1.534.2,3.48,3.48,0,0,0,1.758-.364,1.207,1.207,0,0,0,.615-1.112,1.208,1.208,0,0,0-.488-.962,7.632,7.632,0,0,0-1.9-.945,10.261,10.261,0,0,1-1.911-.875,2.61,2.61,0,0,1-.844-.848,2.206,2.206,0,0,1-.277-1.134,2.161,2.161,0,0,1,.958-1.858,4.467,4.467,0,0,1,2.628-.682,7.687,7.687,0,0,1,3.041.633l-.518,1.187a6.971,6.971,0,0,0-2.628-.6,3.025,3.025,0,0,0-1.565.325,1.007,1.007,0,0,0-.527.9,1.093,1.093,0,0,0,.2.659,1.948,1.948,0,0,0,.637.518,14.142,14.142,0,0,0,1.687.712,6.3,6.3,0,0,1,2.316,1.257A2.214,2.214,0,0,1-1984.262,1617.464Z" fill="#00223d"/>
        <path id="Trazado_7604" data-name="Trazado 7604" d="M-1970.656,1618.8h-.079a3.431,3.431,0,0,1-3.024,1.468,3.577,3.577,0,0,1-2.94-1.292,5.689,5.689,0,0,1-1.05-3.674,5.781,5.781,0,0,1,1.055-3.7,3.548,3.548,0,0,1,2.935-1.319,3.5,3.5,0,0,1,3.006,1.424h.114l-.061-.694-.035-.677v-3.92h1.459v13.676h-1.187Zm-2.918.246a2.652,2.652,0,0,0,2.166-.814,4.1,4.1,0,0,0,.673-2.623v-.307a4.832,4.832,0,0,0-.682-2.923,2.589,2.589,0,0,0-2.175-.874,2.235,2.235,0,0,0-1.964,1,4.964,4.964,0,0,0-.681,2.817,4.754,4.754,0,0,0,.676,2.786A2.3,2.3,0,0,0-1973.574,1619.046Z" fill="#00223d"/>
        <path id="Trazado_7605" data-name="Trazado 7605" d="M-1962.113,1620.268a4.427,4.427,0,0,1-3.371-1.3,5.037,5.037,0,0,1-1.235-3.613,5.588,5.588,0,0,1,1.147-3.7,3.811,3.811,0,0,1,3.081-1.371,3.633,3.633,0,0,1,2.865,1.192,4.562,4.562,0,0,1,1.055,3.141v.923h-6.636a3.817,3.817,0,0,0,.857,2.575,2.963,2.963,0,0,0,2.289.879,7.771,7.771,0,0,0,3.077-.65v1.3a7.886,7.886,0,0,1-1.464.479A8.275,8.275,0,0,1-1962.113,1620.268Zm-.4-8.763a2.383,2.383,0,0,0-1.85.756,3.484,3.484,0,0,0-.813,2.092h5.036a3.215,3.215,0,0,0-.615-2.115A2.168,2.168,0,0,0-1962.509,1611.505Z" fill="#00223d"/>
        <path id="Trazado_7606" data-name="Trazado 7606" d="M-1947.559,1620.268a4.108,4.108,0,0,1-3.238-1.288,5.293,5.293,0,0,1-1.147-3.643,5.459,5.459,0,0,1,1.164-3.735,4.2,4.2,0,0,1,3.318-1.319,6.564,6.564,0,0,1,1.389.15,4.541,4.541,0,0,1,1.09.351l-.449,1.239a6.948,6.948,0,0,0-1.054-.32,4.716,4.716,0,0,0-1.011-.128q-2.936,0-2.936,3.744a4.455,4.455,0,0,0,.717,2.725,2.49,2.49,0,0,0,2.122.949,6.5,6.5,0,0,0,2.47-.518v1.292A5.265,5.265,0,0,1-1947.559,1620.268Z" fill="#00223d"/>
        <path id="Trazado_7607" data-name="Trazado 7607" d="M-1934.524,1615.267a5.314,5.314,0,0,1-1.187,3.678,4.178,4.178,0,0,1-3.278,1.323,4.344,4.344,0,0,1-2.294-.607,4,4,0,0,1-1.547-1.74,6.069,6.069,0,0,1-.545-2.654,5.3,5.3,0,0,1,1.178-3.669,4.165,4.165,0,0,1,3.269-1.315,4.074,4.074,0,0,1,3.213,1.345A5.29,5.29,0,0,1-1934.524,1615.267Zm-7.339,0a4.572,4.572,0,0,0,.738,2.812,2.561,2.561,0,0,0,2.171.967,2.58,2.58,0,0,0,2.175-.962,4.553,4.553,0,0,0,.743-2.817,4.472,4.472,0,0,0-.743-2.79,2.609,2.609,0,0,0-2.193-.955,2.569,2.569,0,0,0-2.162.941A4.528,4.528,0,0,0-1941.863,1615.267Z" fill="#00223d"/>
        <path id="Trazado_7608" data-name="Trazado 7608" d="M-1925.375,1620.092v-6.232a2.512,2.512,0,0,0-.536-1.757,2.184,2.184,0,0,0-1.679-.581,2.769,2.769,0,0,0-2.215.818,4.131,4.131,0,0,0-.7,2.7v5.054h-1.459v-9.633h1.187l.237,1.318h.07a2.994,2.994,0,0,1,1.257-1.1,4.094,4.094,0,0,1,1.8-.391,3.657,3.657,0,0,1,2.619.84,3.571,3.571,0,0,1,.879,2.685v6.284Z" fill="#00223d"/>
        <path id="Trazado_7609" data-name="Trazado 7609" d="M-1917.808,1619.063a4.647,4.647,0,0,0,.747-.057,4.635,4.635,0,0,0,.572-.118V1620a2.682,2.682,0,0,1-.7.189,5.352,5.352,0,0,1-.831.075q-2.794,0-2.794-2.945v-5.73h-1.38v-.7l1.38-.607.615-2.056h.844v2.232h2.794v1.134h-2.794v5.669a1.948,1.948,0,0,0,.413,1.336A1.438,1.438,0,0,0-1917.808,1619.063Z" fill="#00223d"/>
        <path id="Trazado_7610" data-name="Trazado 7610" d="M-1910.17,1610.283a5.642,5.642,0,0,1,1.151.106l-.2,1.353a4.967,4.967,0,0,0-1.054-.132,2.568,2.568,0,0,0-2,.95,3.456,3.456,0,0,0-.83,2.364v5.168h-1.459v-9.633h1.2l.167,1.784h.07a4.231,4.231,0,0,1,1.292-1.45A2.909,2.909,0,0,1-1910.17,1610.283Z" fill="#00223d"/>
        <path id="Trazado_7611" data-name="Trazado 7611" d="M-1901.293,1620.092l-.29-1.371h-.07a4.07,4.07,0,0,1-1.437,1.226,4.4,4.4,0,0,1-1.789.321,3.22,3.22,0,0,1-2.246-.739,2.692,2.692,0,0,1-.813-2.1q0-2.919,4.667-3.059l1.635-.053v-.6a2.44,2.44,0,0,0-.488-1.675,2.01,2.01,0,0,0-1.56-.54,6.355,6.355,0,0,0-2.724.738l-.448-1.116a6.8,6.8,0,0,1,1.56-.606,6.73,6.73,0,0,1,1.7-.22,3.675,3.675,0,0,1,2.554.764,3.2,3.2,0,0,1,.83,2.453v6.574Zm-3.3-1.029a2.961,2.961,0,0,0,2.14-.747,2.761,2.761,0,0,0,.778-2.091v-.871l-1.459.062a5.309,5.309,0,0,0-2.509.541,1.627,1.627,0,0,0-.769,1.489,1.5,1.5,0,0,0,.479,1.2A1.984,1.984,0,0,0-1904.589,1619.063Z" fill="#00223d"/>
        <path id="Trazado_7612" data-name="Trazado 7612" d="M-1893.137,1620.268a4.425,4.425,0,0,1-3.37-1.3,5.032,5.032,0,0,1-1.235-3.613,5.583,5.583,0,0,1,1.147-3.7,3.808,3.808,0,0,1,3.08-1.371,3.636,3.636,0,0,1,2.866,1.192,4.562,4.562,0,0,1,1.054,3.141v.923h-6.635a3.816,3.816,0,0,0,.856,2.575,2.966,2.966,0,0,0,2.29.879,7.765,7.765,0,0,0,3.076-.65v1.3a7.85,7.85,0,0,1-1.463.479A8.28,8.28,0,0,1-1893.137,1620.268Zm-.4-8.763a2.381,2.381,0,0,0-1.85.756,3.483,3.483,0,0,0-.813,2.092h5.036a3.215,3.215,0,0,0-.615-2.115A2.171,2.171,0,0,0-1893.532,1611.505Z" fill="#00223d"/>
        <path id="Trazado_7613" data-name="Trazado 7613" d="M-1882.713,1610.283a5.643,5.643,0,0,1,1.151.106l-.2,1.353a4.966,4.966,0,0,0-1.054-.132,2.568,2.568,0,0,0-2,.95,3.456,3.456,0,0,0-.83,2.364v5.168h-1.459v-9.633h1.2l.167,1.784h.07a4.23,4.23,0,0,1,1.292-1.45A2.909,2.909,0,0,1-1882.713,1610.283Z" fill="#00223d"/>
        <path id="Trazado_7614" data-name="Trazado 7614" d="M-1873.625,1620.092h-1.459v-13.676h1.459Z" fill="#00223d"/>
        <path id="Trazado_7615" data-name="Trazado 7615" d="M-1864.607,1620.092l-.29-1.371h-.071a4.052,4.052,0,0,1-1.437,1.226,4.392,4.392,0,0,1-1.788.321,3.22,3.22,0,0,1-2.246-.739,2.692,2.692,0,0,1-.813-2.1q0-2.919,4.667-3.059l1.635-.053v-.6a2.446,2.446,0,0,0-.488-1.675,2.01,2.01,0,0,0-1.56-.54,6.359,6.359,0,0,0-2.725.738l-.448-1.116a6.84,6.84,0,0,1,1.56-.606,6.736,6.736,0,0,1,1.7-.22,3.674,3.674,0,0,1,2.553.764,3.193,3.193,0,0,1,.831,2.453v6.574Zm-3.3-1.029a2.963,2.963,0,0,0,2.14-.747,2.765,2.765,0,0,0,.778-2.091v-.871l-1.459.062a5.314,5.314,0,0,0-2.51.541,1.629,1.629,0,0,0-.769,1.489,1.5,1.5,0,0,0,.479,1.2A1.987,1.987,0,0,0-1867.9,1619.063Z" fill="#00223d"/>
        <path id="Trazado_7616" data-name="Trazado 7616" d="M-1851.775,1620.268a4.427,4.427,0,0,1-3.371-1.3,5.037,5.037,0,0,1-1.235-3.613,5.583,5.583,0,0,1,1.147-3.7,3.811,3.811,0,0,1,3.081-1.371,3.633,3.633,0,0,1,2.865,1.192,4.562,4.562,0,0,1,1.055,3.141v.923h-6.636a3.817,3.817,0,0,0,.857,2.575,2.963,2.963,0,0,0,2.289.879,7.775,7.775,0,0,0,3.077-.65v1.3a7.886,7.886,0,0,1-1.464.479A8.275,8.275,0,0,1-1851.775,1620.268Zm-.4-8.763a2.383,2.383,0,0,0-1.85.756,3.484,3.484,0,0,0-.813,2.092h5.036a3.216,3.216,0,0,0-.615-2.115A2.169,2.169,0,0,0-1852.171,1611.505Z" fill="#00223d"/>
        <path id="Trazado_7617" data-name="Trazado 7617" d="M-1839.154,1620.092v-6.232a2.513,2.513,0,0,0-.536-1.757,2.184,2.184,0,0,0-1.679-.581,2.769,2.769,0,0,0-2.215.818,4.125,4.125,0,0,0-.7,2.7v5.054h-1.459v-9.633h1.186l.238,1.318h.07a2.993,2.993,0,0,1,1.257-1.1,4.1,4.1,0,0,1,1.8-.391,3.657,3.657,0,0,1,2.619.84,3.572,3.572,0,0,1,.879,2.685v6.284Z" fill="#00223d"/>
        <path id="Trazado_7618" data-name="Trazado 7618" d="M-1830.356,1611.593h-2.453v8.5h-1.459v-8.5h-1.722v-.659l1.722-.528v-.536q0-3.55,3.1-3.551a6.393,6.393,0,0,1,1.793.308l-.378,1.169a4.821,4.821,0,0,0-1.441-.273,1.408,1.408,0,0,0-1.222.549,3.066,3.066,0,0,0-.4,1.763v.624h2.453Z" fill="#00223d"/>
        <path id="Trazado_7619" data-name="Trazado 7619" d="M-1824.529,1620.268a4.427,4.427,0,0,1-3.371-1.3,5.037,5.037,0,0,1-1.235-3.613,5.589,5.589,0,0,1,1.147-3.7,3.811,3.811,0,0,1,3.081-1.371,3.633,3.633,0,0,1,2.865,1.192,4.562,4.562,0,0,1,1.055,3.141v.923h-6.636a3.817,3.817,0,0,0,.857,2.575,2.963,2.963,0,0,0,2.289.879,7.77,7.77,0,0,0,3.077-.65v1.3a7.886,7.886,0,0,1-1.464.479A8.275,8.275,0,0,1-1824.529,1620.268Zm-.4-8.763a2.383,2.383,0,0,0-1.85.756,3.484,3.484,0,0,0-.813,2.092h5.036a3.215,3.215,0,0,0-.615-2.115A2.168,2.168,0,0,0-1824.925,1611.505Z" fill="#00223d"/>
        <path id="Trazado_7620" data-name="Trazado 7620" d="M-1814.1,1610.283a5.656,5.656,0,0,1,1.151.106l-.2,1.353a4.976,4.976,0,0,0-1.055-.132,2.566,2.566,0,0,0-2,.95,3.456,3.456,0,0,0-.831,2.364v5.168h-1.459v-9.633h1.2l.167,1.784h.07a4.239,4.239,0,0,1,1.292-1.45A2.91,2.91,0,0,1-1814.1,1610.283Z" fill="#00223d"/>
        <path id="Trazado_7621" data-name="Trazado 7621" d="M-1798.874,1620.092v-6.267a2.6,2.6,0,0,0-.492-1.727,1.907,1.907,0,0,0-1.53-.576,2.465,2.465,0,0,0-2.012.783,3.713,3.713,0,0,0-.651,2.408v5.379h-1.459v-6.267a2.6,2.6,0,0,0-.492-1.727,1.918,1.918,0,0,0-1.538-.576,2.385,2.385,0,0,0-2.008.822,4.45,4.45,0,0,0-.637,2.694v5.054h-1.459v-9.633h1.186l.237,1.318h.071a2.862,2.862,0,0,1,1.164-1.1,3.555,3.555,0,0,1,1.683-.4,2.863,2.863,0,0,1,2.954,1.635h.07a3.068,3.068,0,0,1,1.248-1.195,3.872,3.872,0,0,1,1.863-.44,3.261,3.261,0,0,1,2.448.84,3.754,3.754,0,0,1,.813,2.685v6.284Z" fill="#00223d"/>
        <path id="Trazado_7622" data-name="Trazado 7622" d="M-1790.34,1620.268a4.425,4.425,0,0,1-3.37-1.3,5.032,5.032,0,0,1-1.235-3.613,5.583,5.583,0,0,1,1.147-3.7,3.808,3.808,0,0,1,3.08-1.371,3.633,3.633,0,0,1,2.865,1.192,4.557,4.557,0,0,1,1.055,3.141v.923h-6.636a3.821,3.821,0,0,0,.857,2.575,2.966,2.966,0,0,0,2.29.879,7.769,7.769,0,0,0,3.076-.65v1.3a7.877,7.877,0,0,1-1.463.479A8.28,8.28,0,0,1-1790.34,1620.268Zm-.4-8.763a2.381,2.381,0,0,0-1.85.756,3.483,3.483,0,0,0-.813,2.092h5.036a3.21,3.21,0,0,0-.616-2.115A2.167,2.167,0,0,0-1790.735,1611.505Z" fill="#00223d"/>
        <path id="Trazado_7623" data-name="Trazado 7623" d="M-1777.754,1618.8h-.079a3.43,3.43,0,0,1-3.023,1.468,3.577,3.577,0,0,1-2.94-1.292,5.684,5.684,0,0,1-1.051-3.674,5.781,5.781,0,0,1,1.055-3.7,3.55,3.55,0,0,1,2.936-1.319,3.5,3.5,0,0,1,3.005,1.424h.115l-.062-.694-.035-.677v-3.92h1.459v13.676h-1.187Zm-2.918.246a2.656,2.656,0,0,0,2.167-.814,4.106,4.106,0,0,0,.672-2.623v-.307a4.839,4.839,0,0,0-.681-2.923,2.588,2.588,0,0,0-2.175-.874,2.236,2.236,0,0,0-1.965,1,4.964,4.964,0,0,0-.681,2.817,4.752,4.752,0,0,0,.677,2.786A2.291,2.291,0,0,0-1780.672,1619.046Z" fill="#00223d"/>
        <path id="Trazado_7624" data-name="Trazado 7624" d="M-1767.356,1620.092l-.29-1.371h-.071a4.052,4.052,0,0,1-1.437,1.226,4.392,4.392,0,0,1-1.788.321,3.22,3.22,0,0,1-2.246-.739,2.692,2.692,0,0,1-.813-2.1q0-2.919,4.667-3.059l1.635-.053v-.6a2.446,2.446,0,0,0-.488-1.675,2.01,2.01,0,0,0-1.56-.54,6.36,6.36,0,0,0-2.725.738l-.448-1.116a6.842,6.842,0,0,1,1.56-.606,6.737,6.737,0,0,1,1.7-.22,3.674,3.674,0,0,1,2.553.764,3.193,3.193,0,0,1,.831,2.453v6.574Zm-3.3-1.029a2.963,2.963,0,0,0,2.14-.747,2.765,2.765,0,0,0,.778-2.091v-.871l-1.459.062a5.311,5.311,0,0,0-2.51.541,1.629,1.629,0,0,0-.769,1.489,1.5,1.5,0,0,0,.479,1.2A1.987,1.987,0,0,0-1770.652,1619.063Z" fill="#00223d"/>
        <path id="Trazado_7625" data-name="Trazado 7625" d="M-1756.713,1618.8h-.079a3.43,3.43,0,0,1-3.023,1.468,3.577,3.577,0,0,1-2.94-1.292,5.683,5.683,0,0,1-1.051-3.674,5.781,5.781,0,0,1,1.055-3.7,3.55,3.55,0,0,1,2.936-1.319,3.5,3.5,0,0,1,3,1.424h.115l-.062-.694-.035-.677v-3.92h1.459v13.676h-1.187Zm-2.918.246a2.656,2.656,0,0,0,2.167-.814,4.106,4.106,0,0,0,.672-2.623v-.307a4.839,4.839,0,0,0-.681-2.923,2.588,2.588,0,0,0-2.175-.874,2.235,2.235,0,0,0-1.965,1,4.964,4.964,0,0,0-.681,2.817,4.752,4.752,0,0,0,.677,2.786A2.291,2.291,0,0,0-1759.631,1619.046Z" fill="#00223d"/>
        <path id="Trazado_7626" data-name="Trazado 7626" d="M-1743.494,1620.268a4.427,4.427,0,0,1-3.371-1.3,5.037,5.037,0,0,1-1.235-3.613,5.588,5.588,0,0,1,1.147-3.7,3.811,3.811,0,0,1,3.081-1.371,3.633,3.633,0,0,1,2.865,1.192,4.562,4.562,0,0,1,1.055,3.141v.923h-6.636a3.817,3.817,0,0,0,.857,2.575,2.964,2.964,0,0,0,2.29.879,7.77,7.77,0,0,0,3.076-.65v1.3a7.886,7.886,0,0,1-1.464.479A8.275,8.275,0,0,1-1743.494,1620.268Zm-.4-8.763a2.383,2.383,0,0,0-1.85.756,3.484,3.484,0,0,0-.813,2.092h5.036a3.216,3.216,0,0,0-.615-2.115A2.169,2.169,0,0,0-1743.89,1611.505Z" fill="#00223d"/>
        <path id="Trazado_7627" data-name="Trazado 7627" d="M-1730.873,1620.092v-6.232a2.512,2.512,0,0,0-.536-1.757,2.184,2.184,0,0,0-1.679-.581,2.769,2.769,0,0,0-2.215.818,4.13,4.13,0,0,0-.7,2.7v5.054h-1.459v-9.633h1.187l.237,1.318h.07a2.993,2.993,0,0,1,1.257-1.1,4.1,4.1,0,0,1,1.8-.391,3.657,3.657,0,0,1,2.619.84,3.572,3.572,0,0,1,.879,2.685v6.284Z" fill="#00223d"/>
        <path id="Trazado_7628" data-name="Trazado 7628" d="M-1717.672,1620.268a4.425,4.425,0,0,1-3.37-1.3,5.033,5.033,0,0,1-1.235-3.613,5.583,5.583,0,0,1,1.147-3.7,3.808,3.808,0,0,1,3.08-1.371,3.633,3.633,0,0,1,2.865,1.192,4.557,4.557,0,0,1,1.055,3.141v.923h-6.636a3.822,3.822,0,0,0,.857,2.575,2.964,2.964,0,0,0,2.29.879,7.77,7.77,0,0,0,3.076-.65v1.3a7.878,7.878,0,0,1-1.463.479A8.279,8.279,0,0,1-1717.672,1620.268Zm-.4-8.763a2.38,2.38,0,0,0-1.85.756,3.484,3.484,0,0,0-.813,2.092h5.036a3.21,3.21,0,0,0-.616-2.115A2.167,2.167,0,0,0-1718.067,1611.505Z" fill="#00223d"/>
        <path id="Trazado_7629" data-name="Trazado 7629" d="M-1710.184,1620.092h-1.459v-13.676h1.459Z" fill="#00223d"/>
        <path id="Trazado_7630" data-name="Trazado 7630" d="M-1698.564,1620.268a4.108,4.108,0,0,1-3.239-1.288,5.293,5.293,0,0,1-1.147-3.643,5.459,5.459,0,0,1,1.164-3.735,4.2,4.2,0,0,1,3.318-1.319,6.564,6.564,0,0,1,1.389.15,4.543,4.543,0,0,1,1.09.351l-.449,1.239a6.948,6.948,0,0,0-1.054-.32,4.718,4.718,0,0,0-1.011-.128q-2.935,0-2.935,3.744a4.456,4.456,0,0,0,.716,2.725,2.49,2.49,0,0,0,2.122.949,6.5,6.5,0,0,0,2.47-.518v1.292A5.261,5.261,0,0,1-1698.564,1620.268Z" fill="#00223d"/>
        <path id="Trazado_7631" data-name="Trazado 7631" d="M-1692.474,1610.459v6.249a2.517,2.517,0,0,0,.536,1.758,2.184,2.184,0,0,0,1.679.58,2.739,2.739,0,0,0,2.211-.826,4.174,4.174,0,0,0,.7-2.7v-5.062h1.459v9.633h-1.2l-.211-1.292h-.079a2.914,2.914,0,0,1-1.243,1.09,4.185,4.185,0,0,1-1.815.378,3.687,3.687,0,0,1-2.633-.835,3.556,3.556,0,0,1-.874-2.672v-6.3Z" fill="#00223d"/>
        <path id="Trazado_7632" data-name="Trazado 7632" d="M-1678.4,1610.283a5.656,5.656,0,0,1,1.151.106l-.2,1.353a4.976,4.976,0,0,0-1.055-.132,2.566,2.566,0,0,0-2,.95,3.456,3.456,0,0,0-.831,2.364v5.168h-1.459v-9.633h1.2l.167,1.784h.071a4.229,4.229,0,0,1,1.292-1.45A2.9,2.9,0,0,1-1678.4,1610.283Z" fill="#00223d"/>
        <path id="Trazado_7633" data-name="Trazado 7633" d="M-1669.235,1617.464a2.412,2.412,0,0,1-1,2.074,4.713,4.713,0,0,1-2.813.73,6.119,6.119,0,0,1-2.988-.607v-1.353a7.186,7.186,0,0,0,1.49.553,6.2,6.2,0,0,0,1.533.2,3.48,3.48,0,0,0,1.758-.364,1.207,1.207,0,0,0,.615-1.112,1.206,1.206,0,0,0-.487-.962,7.668,7.668,0,0,0-1.9-.945,10.246,10.246,0,0,1-1.912-.875,2.61,2.61,0,0,1-.844-.848,2.215,2.215,0,0,1-.276-1.134,2.159,2.159,0,0,1,.958-1.858,4.461,4.461,0,0,1,2.627-.682,7.683,7.683,0,0,1,3.041.633l-.518,1.187a6.971,6.971,0,0,0-2.628-.6,3.02,3.02,0,0,0-1.564.325,1.006,1.006,0,0,0-.528.9,1.093,1.093,0,0,0,.2.659,1.959,1.959,0,0,0,.637.518,14.173,14.173,0,0,0,1.688.712,6.313,6.313,0,0,1,2.316,1.257A2.218,2.218,0,0,1-1669.235,1617.464Z" fill="#00223d"/>
        <path id="Trazado_7634" data-name="Trazado 7634" d="M-1658.548,1615.267a5.314,5.314,0,0,1-1.186,3.678,4.179,4.179,0,0,1-3.279,1.323,4.347,4.347,0,0,1-2.294-.607,4,4,0,0,1-1.547-1.74,6.07,6.07,0,0,1-.544-2.654,5.3,5.3,0,0,1,1.177-3.669,4.166,4.166,0,0,1,3.27-1.315,4.073,4.073,0,0,1,3.212,1.345A5.289,5.289,0,0,1-1658.548,1615.267Zm-7.339,0a4.565,4.565,0,0,0,.739,2.812,2.559,2.559,0,0,0,2.17.967,2.581,2.581,0,0,0,2.176-.962,4.553,4.553,0,0,0,.742-2.817,4.472,4.472,0,0,0-.742-2.79,2.609,2.609,0,0,0-2.193-.955,2.568,2.568,0,0,0-2.162.941A4.52,4.52,0,0,0-1665.887,1615.267Z" fill="#00223d"/>
        <path id="Trazado_7635" data-name="Trazado 7635" d="M-1644.758,1618.8h-.079a3.43,3.43,0,0,1-3.023,1.468,3.577,3.577,0,0,1-2.94-1.292,5.69,5.69,0,0,1-1.051-3.674,5.781,5.781,0,0,1,1.055-3.7,3.55,3.55,0,0,1,2.936-1.319,3.506,3.506,0,0,1,3.006,1.424h.114l-.062-.694-.035-.677v-3.92h1.459v13.676h-1.186Zm-2.918.246a2.656,2.656,0,0,0,2.167-.814,4.106,4.106,0,0,0,.672-2.623v-.307a4.839,4.839,0,0,0-.681-2.923,2.589,2.589,0,0,0-2.175-.874,2.235,2.235,0,0,0-1.965,1,4.963,4.963,0,0,0-.681,2.817,4.752,4.752,0,0,0,.677,2.786A2.291,2.291,0,0,0-1647.676,1619.046Z" fill="#00223d"/>
        <path id="Trazado_7636" data-name="Trazado 7636" d="M-1636.215,1620.268a4.425,4.425,0,0,1-3.37-1.3,5.032,5.032,0,0,1-1.235-3.613,5.583,5.583,0,0,1,1.147-3.7,3.808,3.808,0,0,1,3.08-1.371,3.633,3.633,0,0,1,2.865,1.192,4.557,4.557,0,0,1,1.055,3.141v.923h-6.636a3.821,3.821,0,0,0,.857,2.575,2.966,2.966,0,0,0,2.29.879,7.769,7.769,0,0,0,3.076-.65v1.3a7.877,7.877,0,0,1-1.463.479A8.28,8.28,0,0,1-1636.215,1620.268Zm-.4-8.763a2.381,2.381,0,0,0-1.85.756,3.483,3.483,0,0,0-.813,2.092h5.036a3.21,3.21,0,0,0-.616-2.115A2.167,2.167,0,0,0-1636.61,1611.505Z" fill="#00223d"/>
        <path id="Trazado_7637" data-name="Trazado 7637" d="M-1619.3,1617.464a2.413,2.413,0,0,1-1,2.074,4.71,4.71,0,0,1-2.812.73,6.121,6.121,0,0,1-2.989-.607v-1.353a7.207,7.207,0,0,0,1.49.553,6.211,6.211,0,0,0,1.534.2,3.482,3.482,0,0,0,1.758-.364,1.206,1.206,0,0,0,.615-1.112,1.207,1.207,0,0,0-.488-.962,7.635,7.635,0,0,0-1.9-.945,10.265,10.265,0,0,1-1.911-.875,2.6,2.6,0,0,1-.844-.848,2.207,2.207,0,0,1-.277-1.134,2.159,2.159,0,0,1,.958-1.858,4.467,4.467,0,0,1,2.628-.682,7.686,7.686,0,0,1,3.041.633l-.519,1.187a6.964,6.964,0,0,0-2.628-.6,3.022,3.022,0,0,0-1.564.325,1,1,0,0,0-.527.9,1.1,1.1,0,0,0,.2.659,1.964,1.964,0,0,0,.638.518,14.137,14.137,0,0,0,1.687.712,6.3,6.3,0,0,1,2.316,1.257A2.218,2.218,0,0,1-1619.3,1617.464Z" fill="#00223d"/>
        <path id="Trazado_7638" data-name="Trazado 7638" d="M-1615.552,1610.459v6.249a2.517,2.517,0,0,0,.536,1.758,2.184,2.184,0,0,0,1.679.58,2.739,2.739,0,0,0,2.211-.826,4.174,4.174,0,0,0,.7-2.7v-5.062h1.459v9.633h-1.2l-.211-1.292h-.079a2.911,2.911,0,0,1-1.244,1.09,4.177,4.177,0,0,1-1.814.378,3.687,3.687,0,0,1-2.633-.835,3.556,3.556,0,0,1-.874-2.672v-6.3Z" fill="#00223d"/>
        <path id="Trazado_7639" data-name="Trazado 7639" d="M-1599.74,1620.092h-1.459v-13.676h1.459Z" fill="#00223d"/>
        <path id="Trazado_7640" data-name="Trazado 7640" d="M-1590.723,1620.092l-.29-1.371h-.07a4.052,4.052,0,0,1-1.437,1.226,4.4,4.4,0,0,1-1.789.321,3.217,3.217,0,0,1-2.245-.739,2.692,2.692,0,0,1-.813-2.1q0-2.919,4.667-3.059l1.635-.053v-.6a2.446,2.446,0,0,0-.488-1.675,2.01,2.01,0,0,0-1.56-.54,6.359,6.359,0,0,0-2.725.738l-.448-1.116a6.8,6.8,0,0,1,1.56-.606,6.73,6.73,0,0,1,1.7-.22,3.674,3.674,0,0,1,2.553.764,3.193,3.193,0,0,1,.83,2.453v6.574Zm-3.3-1.029a2.963,2.963,0,0,0,2.141-.747,2.764,2.764,0,0,0,.777-2.091v-.871l-1.459.062a5.309,5.309,0,0,0-2.509.541,1.627,1.627,0,0,0-.769,1.489,1.5,1.5,0,0,0,.479,1.2A1.984,1.984,0,0,0-1594.019,1619.063Z" fill="#00223d"/>
        <path id="Trazado_7641" data-name="Trazado 7641" d="M-1582.153,1610.3a3.579,3.579,0,0,1,2.948,1.3,5.684,5.684,0,0,1,1.051,3.669,5.727,5.727,0,0,1-1.059,3.686,3.564,3.564,0,0,1-2.94,1.315,4.181,4.181,0,0,1-1.719-.348,3.236,3.236,0,0,1-1.305-1.067h-.1l-.308,1.239h-1.046v-13.676h1.459v3.322q0,1.116-.07,2h.07A3.464,3.464,0,0,1-1582.153,1610.3Zm-.211,1.221a2.553,2.553,0,0,0-2.154.857,4.84,4.84,0,0,0-.659,2.888,4.823,4.823,0,0,0,.677,2.905,2.574,2.574,0,0,0,2.171.874,2.25,2.25,0,0,0,2-.98,5.04,5.04,0,0,0,.659-2.817,4.847,4.847,0,0,0-.659-2.8A2.337,2.337,0,0,0-1582.364,1611.522Z" fill="#00223d"/>
        <path id="Trazado_7642" data-name="Trazado 7642" d="M-1567.291,1615.267a5.314,5.314,0,0,1-1.187,3.678,4.177,4.177,0,0,1-3.278,1.323,4.347,4.347,0,0,1-2.294-.607,4,4,0,0,1-1.547-1.74,6.071,6.071,0,0,1-.545-2.654,5.3,5.3,0,0,1,1.178-3.669,4.166,4.166,0,0,1,3.27-1.315,4.073,4.073,0,0,1,3.212,1.345A5.289,5.289,0,0,1-1567.291,1615.267Zm-7.339,0a4.571,4.571,0,0,0,.738,2.812,2.563,2.563,0,0,0,2.171.967,2.584,2.584,0,0,0,2.176-.962,4.553,4.553,0,0,0,.742-2.817,4.472,4.472,0,0,0-.742-2.79,2.61,2.61,0,0,0-2.193-.955,2.568,2.568,0,0,0-2.162.941A4.521,4.521,0,0,0-1574.63,1615.267Z" fill="#00223d"/>
        <path id="Trazado_7643" data-name="Trazado 7643" d="M-1560.339,1610.283a5.643,5.643,0,0,1,1.151.106l-.2,1.353a4.966,4.966,0,0,0-1.054-.132,2.568,2.568,0,0,0-2,.95,3.456,3.456,0,0,0-.83,2.364v5.168h-1.459v-9.633h1.2l.167,1.784h.07a4.229,4.229,0,0,1,1.292-1.45A2.909,2.909,0,0,1-1560.339,1610.283Z" fill="#00223d"/>
        <path id="Trazado_7644" data-name="Trazado 7644" d="M-1557.6,1619.16a1.315,1.315,0,0,1,.268-.892.973.973,0,0,1,.769-.3,1.042,1.042,0,0,1,.8.3,1.259,1.259,0,0,1,.285.892,1.229,1.229,0,0,1-.29.879,1.034,1.034,0,0,1-.791.308,1.043,1.043,0,0,1-.742-.277A1.2,1.2,0,0,1-1557.6,1619.16Z" fill="#00223d"/>
      </g>
    </g>
    <line id="Lnea_67" data-name="Lnea 67" x2="732" transform="translate(-2120.747 1534.092)" fill="none" stroke="#ff6b00" stroke-width="3"/>
    <line id="Lnea_68" data-name="Lnea 68" x2="732" transform="translate(-2120.747 1651.092)" fill="none" stroke="#ff6b00" stroke-width="3"/>
    <g id="Grupo_1447" data-name="Grupo 1447">
      <g id="Grupo_1446" data-name="Grupo 1446">
        <g id="Grupo_1078" data-name="Grupo 1078">
          <g id="Grupo_1077" data-name="Grupo 1077">
            <path id="Trazado_5335" data-name="Trazado 5335" d="M-2156.218,1631.753l-59.244-102.615a18.227,18.227,0,0,0-24.9-6.67,18.229,18.229,0,0,0-6.67,6.67l-59.244,102.615a18.226,18.226,0,0,0,6.671,24.9,18.225,18.225,0,0,0,9.113,2.442H-2172a18.226,18.226,0,0,0,18.228-18.225A18.227,18.227,0,0,0-2156.218,1631.753Zm-7.865,13.685a9.05,9.05,0,0,1-7.92,4.573h-118.49a9.145,9.145,0,0,1-9.143-9.147,9.146,9.146,0,0,1,1.225-4.571l59.244-102.615a9.143,9.143,0,0,1,12.491-3.347,9.135,9.135,0,0,1,3.347,3.347l59.244,102.615a9.043,9.043,0,0,1,0,9.145Z" fill="#ff6b00"/>
          </g>
        </g>
        <g id="Grupo_1080" data-name="Grupo 1080">
          <g id="Grupo_1079" data-name="Grupo 1079">
            <rect id="Rectngulo_698" data-name="Rectngulo 698" width="9.081" height="45.404" transform="translate(-2235.788 1565.343)" fill="#ff6b00"/>
          </g>
        </g>
        <g id="Grupo_1082" data-name="Grupo 1082">
          <g id="Grupo_1081" data-name="Grupo 1081">
            <path id="Trazado_5336" data-name="Trazado 5336" d="M-2231.248,1619.829a6.053,6.053,0,0,0-6.051,6.055,6.053,6.053,0,0,0,6.055,6.051,6.053,6.053,0,0,0,6.051-6.052A6.059,6.059,0,0,0-2231.248,1619.829Z" fill="#ff6b00"/>
          </g>
        </g>
      </g>
    </g>
  </g>
</svg>
