<svg xmlns="http://www.w3.org/2000/svg" width="454.349" height="454.349" viewBox="0 0 454.349 454.349">
  <g id="Grupo_1800" data-name="Grupo 1800" transform="translate(-628.975 -169.754)">
    <circle id="Elipse_621" data-name="Elipse 621" cx="160.637" cy="160.637" r="160.637" transform="translate(628.975 396.928) rotate(-45)" fill="#9ddde6"/>
    <circle id="Elipse_622" data-name="Elipse 622" cx="20.043" cy="20.043" r="20.043" transform="translate(747.069 385.298)" fill="#fff"/>
    <circle id="Elipse_623" data-name="Elipse 623" cx="22.019" cy="22.019" r="22.019" transform="matrix(0.378, -0.926, 0.926, 0.378, 966.583, 476.959)" fill="#fff"/>
    <g id="Grupo_1769" data-name="Grupo 1769">
      <path id="Trazado_8707" data-name="Trazado 8707" d="M965.126,377.307a23.52,23.52,0,1,1,23.519-23.52A23.547,23.547,0,0,1,965.126,377.307Zm0-44.039a20.52,20.52,0,1,0,20.519,20.519A20.543,20.543,0,0,0,965.126,333.268Z" fill="#fff"/>
      <path id="Trazado_8708" data-name="Trazado 8708" d="M979.656,353.158a1.5,1.5,0,0,1-1.483-1.285q-.088-.613-.233-1.208a1.5,1.5,0,0,1,2.914-.709c.118.485.215.985.288,1.486a1.5,1.5,0,0,1-1.268,1.7A1.471,1.471,0,0,1,979.656,353.158Z" fill="#fff"/>
      <path id="Trazado_8709" data-name="Trazado 8709" d="M965.126,369.974a16.206,16.206,0,0,1-16.187-16.187,1.5,1.5,0,0,1,3,0,13.2,13.2,0,0,0,13.187,13.187,1.5,1.5,0,0,1,0,3Z" fill="#fff"/>
      <path id="Trazado_8710" data-name="Trazado 8710" d="M976.536,346.039a1.5,1.5,0,0,1-1.166-.554,13.139,13.139,0,0,0-10.244-4.883,1.5,1.5,0,0,1,0-3,16.13,16.13,0,0,1,12.574,5.992,1.5,1.5,0,0,1-1.164,2.445Z" fill="#fff"/>
    </g>
    <g id="Grupo_1770" data-name="Grupo 1770">
      <path id="Trazado_8711" data-name="Trazado 8711" d="M689.405,408.818a23.52,23.52,0,1,1,23.518-23.52A23.547,23.547,0,0,1,689.405,408.818Zm0-44.039A20.52,20.52,0,1,0,709.923,385.3,20.543,20.543,0,0,0,689.405,364.779Z" fill="#fff"/>
      <path id="Trazado_8712" data-name="Trazado 8712" d="M703.935,384.668a1.5,1.5,0,0,1-1.482-1.284q-.09-.613-.234-1.208a1.5,1.5,0,0,1,2.914-.709c.119.484.215.984.289,1.485a1.5,1.5,0,0,1-1.269,1.7A1.612,1.612,0,0,1,703.935,384.668Z" fill="#fff"/>
      <path id="Trazado_8713" data-name="Trazado 8713" d="M689.405,401.485A16.206,16.206,0,0,1,673.218,385.3a1.5,1.5,0,0,1,3,0,13.2,13.2,0,0,0,13.187,13.187,1.5,1.5,0,0,1,0,3Z" fill="#fff"/>
      <path id="Trazado_8714" data-name="Trazado 8714" d="M700.815,377.55a1.494,1.494,0,0,1-1.165-.555,13.144,13.144,0,0,0-10.245-4.882,1.5,1.5,0,0,1,0-3,16.127,16.127,0,0,1,12.573,5.992,1.5,1.5,0,0,1-1.163,2.445Z" fill="#fff"/>
    </g>
    <g id="Grupo_1771" data-name="Grupo 1771">
      <path id="Trazado_8715" data-name="Trazado 8715" d="M787.156,368.036a16.306,16.306,0,1,1,16.307-16.306A16.325,16.325,0,0,1,787.156,368.036Zm0-29.612a13.306,13.306,0,1,0,13.307,13.306A13.321,13.321,0,0,0,787.156,338.424Z" fill="#fff"/>
      <path id="Trazado_8716" data-name="Trazado 8716" d="M796.926,351.8a1.5,1.5,0,0,1-1.482-1.282c-.038-.261-.088-.517-.148-.769a1.5,1.5,0,0,1,2.914-.709q.126.513.2,1.042a1.5,1.5,0,0,1-1.267,1.7A1.635,1.635,0,0,1,796.926,351.8Z" fill="#fff"/>
      <path id="Trazado_8717" data-name="Trazado 8717" d="M787.156,363.105a11.387,11.387,0,0,1-11.374-11.375,1.5,1.5,0,0,1,3,0,8.384,8.384,0,0,0,8.374,8.375,1.5,1.5,0,0,1,0,3Z" fill="#fff"/>
      <path id="Trazado_8718" data-name="Trazado 8718" d="M794.829,347.012a1.5,1.5,0,0,1-1.166-.555,8.349,8.349,0,0,0-6.507-3.1,1.5,1.5,0,0,1,0-3,11.334,11.334,0,0,1,8.837,4.212,1.5,1.5,0,0,1-1.164,2.445Z" fill="#fff"/>
    </g>
    <circle id="Elipse_624" data-name="Elipse 624" cx="34.967" cy="34.967" r="34.967" transform="translate(667.672 492.572) rotate(-67.997)" fill="#fff"/>
    <path id="Trazado_8719" data-name="Trazado 8719" d="M998.424,475.37a49,49,0,0,0-17.263,3.128c.08-1.3.134-2.606.134-3.926a62.966,62.966,0,0,0-81.058-60.3,62.958,62.958,0,0,0-123.905-2.589c-.875-.036-1.752-.066-2.637-.066a62.953,62.953,0,0,0-62.953,62.952c0,.291.018.578.022.868-.861-.045-1.728-.07-2.6-.07a49.108,49.108,0,0,0-38.284,79.878h366.828a49.108,49.108,0,0,0-38.284-79.878Z" fill="#fff"/>
    <g id="Grupo_1775" data-name="Grupo 1775">
      <g id="Grupo_1772" data-name="Grupo 1772">
        <path id="Trazado_8720" data-name="Trazado 8720" d="M911.193,328.842a5.48,5.48,0,0,1-3.888-1.611,20.259,20.259,0,0,0-14.419-5.973H876.193a5.5,5.5,0,0,1,0-11h16.693a31.182,31.182,0,0,1,22.2,9.2,5.5,5.5,0,0,1-3.889,9.389Z" fill="#fff"/>
      </g>
      <path id="Rectángulo_899" data-name="Rectángulo 899" d="M61.5,0h0A61.5,61.5,0,0,1,123,61.5V168.667A16.333,16.333,0,0,1,106.667,185H16.333A16.333,16.333,0,0,1,0,168.667V61.5A61.5,61.5,0,0,1,61.5,0Z" transform="translate(798.193 381.092)" fill="#9ddde6"/>
      <path id="Trazado_8721" data-name="Trazado 8721" d="M859.693,391.092a51.559,51.559,0,0,1,51.5,51.5V549.758a6.34,6.34,0,0,1-6.333,6.334H814.527a6.341,6.341,0,0,1-6.334-6.334V442.592A51.559,51.559,0,0,1,859.693,391.092Z" fill="#7dd0db"/>
      <path id="Trazado_8722" data-name="Trazado 8722" d="M808.193,447.092V549.758a6.341,6.341,0,0,0,6.334,6.334H904.86a6.34,6.34,0,0,0,6.333-6.334V447.092Z" fill="#4595a1"/>
      <rect id="Rectángulo_900" data-name="Rectángulo 900" width="50" height="34" rx="4.167" transform="translate(834.693 353.259)" fill="#5cc6d6"/>
      <g id="Grupo_1773" data-name="Grupo 1773">
        <rect id="Rectángulo_901" data-name="Rectángulo 901" width="2.173" height="34" transform="translate(856.426 353.258)" fill="#53b3c2"/>
        <rect id="Rectángulo_902" data-name="Rectángulo 902" width="2.173" height="34" transform="translate(852.08 353.258)" fill="#53b3c2"/>
        <rect id="Rectángulo_903" data-name="Rectángulo 903" width="2.173" height="34" transform="translate(843.386 353.258)" fill="#53b3c2"/>
        <rect id="Rectángulo_904" data-name="Rectángulo 904" width="2.173" height="34" transform="translate(878.174 353.258)" fill="#53b3c2"/>
        <rect id="Rectángulo_905" data-name="Rectángulo 905" width="2.173" height="34" transform="translate(839.04 353.258)" fill="#53b3c2"/>
        <rect id="Rectángulo_906" data-name="Rectángulo 906" width="2.173" height="34" transform="translate(847.733 353.258)" fill="#53b3c2"/>
        <path id="Trazado_8723" data-name="Trazado 8723" d="M836.867,386.729V353.788a4.146,4.146,0,0,0-2.174,3.637v25.667A4.146,4.146,0,0,0,836.867,386.729Z" fill="#53b3c2"/>
        <path id="Trazado_8724" data-name="Trazado 8724" d="M882.52,353.788v32.941a4.147,4.147,0,0,0,2.173-3.637V357.425A4.147,4.147,0,0,0,882.52,353.788Z" fill="#53b3c2"/>
        <rect id="Rectángulo_907" data-name="Rectángulo 907" width="2.173" height="34" transform="translate(873.827 353.258)" fill="#53b3c2"/>
        <rect id="Rectángulo_908" data-name="Rectángulo 908" width="2.173" height="34" transform="translate(869.48 353.258)" fill="#53b3c2"/>
        <rect id="Rectángulo_909" data-name="Rectángulo 909" width="2.173" height="34" transform="translate(860.773 353.258)" fill="#53b3c2"/>
        <rect id="Rectángulo_910" data-name="Rectángulo 910" width="2.173" height="34" transform="translate(865.119 353.258)" fill="#53b3c2"/>
      </g>
      <path id="Rectángulo_911" data-name="Rectángulo 911" d="M3.125,0h31.25A3.125,3.125,0,0,1,37.5,3.125V9.417a0,0,0,0,1,0,0H0a0,0,0,0,1,0,0V3.125A3.125,3.125,0,0,1,3.125,0Z" transform="translate(840.943 343.842)" fill="#5cc6d6"/>
      <rect id="Rectángulo_912" data-name="Rectángulo 912" width="11.5" height="22.5" transform="translate(853.943 321.342)" fill="#fff"/>
      <rect id="Rectángulo_913" data-name="Rectángulo 913" width="40.667" height="26.667" rx="4.167" transform="translate(839.36 302.425)" fill="#5cc6d6"/>
      <path id="Trazado_8725" data-name="Trazado 8725" d="M887.443,540.092h-55.5a7.75,7.75,0,0,1-7.75-7.75v-83.75a35.5,35.5,0,0,1,35.5-35.5h0a35.5,35.5,0,0,1,35.5,35.5v83.75A7.75,7.75,0,0,1,887.443,540.092Z" fill="#fff"/>
      <path id="Trazado_8726" data-name="Trazado 8726" d="M880.36,452.682H868.437V440.759H850.95v11.923H839.027v17.487H850.95v11.923h17.487V470.169H880.36Z" fill="#dd5094"/>
      <rect id="Rectángulo_914" data-name="Rectángulo 914" width="41.333" height="8.333" transform="translate(839.027 495.759)" fill="#5cc6d6"/>
      <rect id="Rectángulo_915" data-name="Rectángulo 915" width="27.667" height="3" transform="translate(845.86 513.592)" fill="#5cc6d6"/>
      <rect id="Rectángulo_916" data-name="Rectángulo 916" width="27.667" height="3" transform="translate(845.86 519.425)" fill="#5cc6d6"/>
      <rect id="Rectángulo_917" data-name="Rectángulo 917" width="27.667" height="3" transform="translate(845.86 427.592)" fill="#5cc6d6"/>
      <rect id="Rectángulo_918" data-name="Rectángulo 918" width="14" height="3" transform="translate(852.693 530.925)" fill="#5cc6d6"/>
      <path id="Trazado_8727" data-name="Trazado 8727" d="M910.472,437.3l.2-.034A9.942,9.942,0,0,0,918.5,424.54a61.653,61.653,0,0,0-26.36-34.2,9.883,9.883,0,0,0-13.6,3.257c-.037.062-.075.123-.112.184a9.922,9.922,0,0,0,3.2,13.607A41.675,41.675,0,0,1,899.358,430.4,9.909,9.909,0,0,0,910.472,437.3Z" fill="#fff" opacity="0.2"/>
      <path id="Trazado_8728" data-name="Trazado 8728" d="M910.855,447.782l-.2.008a9.892,9.892,0,0,0-9.462,9.886v.516a9.9,9.9,0,0,0,9.9,9.9h.2a9.9,9.9,0,0,0,9.9-9.9v-.525A9.9,9.9,0,0,0,910.855,447.782Z" fill="#fff" opacity="0.2"/>
      <path id="Trazado_8729" data-name="Trazado 8729" d="M798.193,490.043V526.11A9.9,9.9,0,0,0,807.856,536l.2,0a9.9,9.9,0,0,0,10.136-9.894V490.033a9.9,9.9,0,0,0-10.4-9.892l-.2.011A9.922,9.922,0,0,0,798.193,490.043Z" fill="#fff" opacity="0.2"/>
      <path id="Trazado_8730" data-name="Trazado 8730" d="M838.435,546.092h-3.458a9.906,9.906,0,0,0-9.881,9.242l-.014.2a9.9,9.9,0,0,0,9.881,10.557h3.464a9.891,9.891,0,0,0,9.888-9.511l.008-.2A9.9,9.9,0,0,0,838.435,546.092Z" fill="#fff" opacity="0.2"/>
      <path id="Trazado_8731" data-name="Trazado 8731" d="M887.309,546.092H865.321a9.885,9.885,0,0,0-9.868,10.726l.018.2a9.927,9.927,0,0,0,9.867,9.074h21.975a9.913,9.913,0,0,0,9.9-10.116l0-.2A9.889,9.889,0,0,0,887.309,546.092Z" fill="#fff" opacity="0.2"/>
      <path id="Trazado_8732" data-name="Trazado 8732" d="M880.527,353.258H838.86a4.167,4.167,0,0,0-4.167,4.167v6.667h50v-6.667A4.167,4.167,0,0,0,880.527,353.258Z" fill="#fff" opacity="0.2"/>
      <g id="Grupo_1774" data-name="Grupo 1774">
        <rect id="Rectángulo_919" data-name="Rectángulo 919" width="2.144" height="26.667" transform="translate(843.604 302.425)" fill="#53b3c2"/>
        <rect id="Rectángulo_920" data-name="Rectángulo 920" width="2.144" height="26.667" transform="translate(847.892 302.425)" fill="#53b3c2"/>
        <rect id="Rectángulo_921" data-name="Rectángulo 921" width="2.144" height="26.667" transform="translate(852.181 302.425)" fill="#53b3c2"/>
        <path id="Trazado_8733" data-name="Trazado 8733" d="M877.927,302.994v25.529a4.15,4.15,0,0,0,2.1-3.6V306.592A4.15,4.15,0,0,0,877.927,302.994Z" fill="#53b3c2"/>
        <rect id="Rectángulo_922" data-name="Rectángulo 922" width="2.144" height="26.667" transform="translate(873.638 302.425)" fill="#53b3c2"/>
        <path id="Trazado_8734" data-name="Trazado 8734" d="M841.459,302.994a4.149,4.149,0,0,0-2.1,3.6v18.333a4.149,4.149,0,0,0,2.1,3.6Z" fill="#53b3c2"/>
        <rect id="Rectángulo_923" data-name="Rectángulo 923" width="2.144" height="26.667" transform="translate(869.35 302.425)" fill="#53b3c2"/>
        <rect id="Rectángulo_924" data-name="Rectángulo 924" width="2.144" height="26.667" transform="translate(865.047 302.425)" fill="#53b3c2"/>
        <rect id="Rectángulo_925" data-name="Rectángulo 925" width="2.144" height="26.667" transform="translate(856.47 302.425)" fill="#53b3c2"/>
        <rect id="Rectángulo_926" data-name="Rectángulo 926" width="2.144" height="26.667" transform="translate(860.758 302.425)" fill="#53b3c2"/>
      </g>
      <path id="Trazado_8735" data-name="Trazado 8735" d="M875.844,302.425H843.527a4.167,4.167,0,0,0-4.167,4.167v6.666h40.65v-6.666A4.167,4.167,0,0,0,875.844,302.425Z" fill="#fff" opacity="0.2"/>
      <rect id="Rectángulo_927" data-name="Rectángulo 927" width="37.23" height="3.833" transform="translate(841.213 349.425)" fill="#53b3c2"/>
      <rect id="Rectángulo_928" data-name="Rectángulo 928" width="11.5" height="6.64" transform="translate(853.943 337.202)" fill="#4595a1" opacity="0.5"/>
      <rect id="Rectángulo_929" data-name="Rectángulo 929" width="11.083" height="6.64" transform="translate(886.666 310.258) rotate(90)" fill="#4595a1" opacity="0.5"/>
      <path id="Trazado_8736" data-name="Trazado 8736" d="M904.688,489.58a3.994,3.994,0,1,1,3.994-3.994A4,4,0,0,1,904.688,489.58Zm0-6.988a2.994,2.994,0,1,0,2.994,2.994A3,3,0,0,0,904.688,482.592Z" fill="#347079"/>
      <path id="Trazado_8737" data-name="Trazado 8737" d="M904.027,502.008a2.083,2.083,0,1,0-2.084,2.084A2.084,2.084,0,0,0,904.027,502.008Z" fill="#347079"/>
      <path id="Trazado_8738" data-name="Trazado 8738" d="M850.693,544.911a1.181,1.181,0,1,0-1.181,1.181A1.182,1.182,0,0,0,850.693,544.911Z" fill="#347079"/>
      <circle id="Elipse_625" data-name="Elipse 625" cx="1.375" cy="1.375" r="1.375" transform="translate(818.193 476.592)" fill="#347079"/>
      <path id="Trazado_8739" data-name="Trazado 8739" d="M898.193,545.41a3.5,3.5,0,1,1,3.5-3.5A3.5,3.5,0,0,1,898.193,545.41Zm0-6a2.5,2.5,0,1,0,2.5,2.5A2.5,2.5,0,0,0,898.193,539.41Z" fill="#347079"/>
      <path id="Trazado_8740" data-name="Trazado 8740" d="M817.256,546.592a2.813,2.813,0,1,1,2.812-2.812A2.816,2.816,0,0,1,817.256,546.592Zm0-4.625a1.813,1.813,0,1,0,1.812,1.813A1.815,1.815,0,0,0,817.256,541.967Z" fill="#347079"/>
      <path id="Trazado_8741" data-name="Trazado 8741" d="M818.193,466.276a4.125,4.125,0,1,1,4.125-4.125A4.13,4.13,0,0,1,818.193,466.276Zm0-7.25a3.125,3.125,0,1,0,3.125,3.125A3.129,3.129,0,0,0,818.193,459.026Z" fill="#347079"/>
      <path id="Trazado_8742" data-name="Trazado 8742" d="M808.193,474.092h0a10,10,0,0,0,10-10v-1a10,10,0,0,0-10-10h0a10,10,0,0,0-10,10v1A10,10,0,0,0,808.193,474.092Z" fill="#fff" opacity="0.2"/>
    </g>
    <g id="Grupo_1789" data-name="Grupo 1789">
      <path id="Trazado_8743" data-name="Trazado 8743" d="M1012.28,581.923h0a11.165,11.165,0,0,1-15.791,0L955.469,540.9l15.791-15.791,41.02,41.019A11.167,11.167,0,0,1,1012.28,581.923Z" fill="#347079"/>
      <rect id="Rectángulo_930" data-name="Rectángulo 930" width="22.332" height="13.608" transform="translate(958.356 543.79) rotate(-45)" fill="#9ddde6"/>
      <path id="Trazado_8744" data-name="Trazado 8744" d="M888.789,458.433a56.135,56.135,0,1,0,79.387,0A56.134,56.134,0,0,0,888.789,458.433Zm70.245,70.245a43.207,43.207,0,1,1,0-61.1A43.206,43.206,0,0,1,959.034,528.678Z" fill="#347079"/>
      <circle id="Elipse_626" data-name="Elipse 626" cx="43.207" cy="43.207" r="43.207" transform="translate(885.276 454.919)" fill="#d6f8f5"/>
      <g id="Grupo_1777" data-name="Grupo 1777">
        <g id="Grupo_1776" data-name="Grupo 1776">
          <path id="Trazado_8745" data-name="Trazado 8745" d="M921.682,491.644a1.945,1.945,0,1,0,0,2.751A1.945,1.945,0,0,0,921.682,491.644Z" fill="#347079"/>
          <path id="Trazado_8746" data-name="Trazado 8746" d="M918.932,506.738a1.945,1.945,0,1,0,2.75,0A1.945,1.945,0,0,0,918.932,506.738Z" fill="#347079"/>
          <path id="Trazado_8747" data-name="Trazado 8747" d="M934.026,509.489a1.945,1.945,0,1,0,0-2.751A1.943,1.943,0,0,0,934.026,509.489Z" fill="#347079"/>
          <path id="Trazado_8748" data-name="Trazado 8748" d="M936.776,494.395a1.945,1.945,0,1,0-2.75,0A1.945,1.945,0,0,0,936.776,494.395Z" fill="#347079"/>
          <circle id="Elipse_627" data-name="Elipse 627" cx="9.393" cy="9.393" r="9.393" transform="translate(915.8 506.15) rotate(-69.854)" fill="#4595a1"/>
          <path id="Trazado_8749" data-name="Trazado 8749" d="M933.356,500.567a5.5,5.5,0,1,0-5.5,5.5A5.5,5.5,0,0,0,933.356,500.567Z" fill="#347079"/>
          <circle id="Elipse_628" data-name="Elipse 628" cx="3.288" cy="3.288" r="3.288" transform="translate(924.566 485.667)" fill="#347079"/>
          <path id="Trazado_8750" data-name="Trazado 8750" d="M916.242,497.279a3.288,3.288,0,1,0,3.288,3.288A3.288,3.288,0,0,0,916.242,497.279Z" fill="#347079"/>
          <circle id="Elipse_629" data-name="Elipse 629" cx="3.288" cy="3.288" r="3.288" transform="translate(924.566 508.89)" fill="#347079"/>
          <path id="Trazado_8751" data-name="Trazado 8751" d="M939.466,503.855a3.288,3.288,0,1,0-3.288-3.288A3.288,3.288,0,0,0,939.466,503.855Z" fill="#347079"/>
          <circle id="Elipse_630" data-name="Elipse 630" cx="1.945" cy="1.945" r="1.945" transform="translate(928.184 493.664)" fill="#7dd0db"/>
          <path id="Trazado_8752" data-name="Trazado 8752" d="M924.271,496.917a1.945,1.945,0,1,0,0,2.75A1.943,1.943,0,0,0,924.271,496.917Z" fill="#7dd0db"/>
          <circle id="Elipse_631" data-name="Elipse 631" cx="1.945" cy="1.945" r="1.945" transform="translate(923.634 503.58)" fill="#7dd0db"/>
          <path id="Trazado_8753" data-name="Trazado 8753" d="M931.437,504.217a1.945,1.945,0,1,0,0-2.751A1.943,1.943,0,0,0,931.437,504.217Z" fill="#7dd0db"/>
        </g>
        <path id="Trazado_8754" data-name="Trazado 8754" d="M927.854,521.091a20.525,20.525,0,1,1,20.525-20.524A20.547,20.547,0,0,1,927.854,521.091Zm0-36.529a16.005,16.005,0,1,0,16.005,16A16.023,16.023,0,0,0,927.854,484.562Z" fill="#dd5094"/>
        <rect id="Rectángulo_931" data-name="Rectángulo 931" width="36.519" height="4.519" transform="translate(913.348 511.878) rotate(-45)" fill="#dd5094"/>
      </g>
      <g id="Grupo_1779" data-name="Grupo 1779">
        <g id="Grupo_1778" data-name="Grupo 1778">
          <path id="Trazado_8755" data-name="Trazado 8755" d="M942.537,474.2a.72.72,0,1,0,0,1.018A.721.721,0,0,0,942.537,474.2Z" fill="#347079"/>
          <path id="Trazado_8756" data-name="Trazado 8756" d="M941.518,479.791a.72.72,0,1,0,1.019,0A.72.72,0,0,0,941.518,479.791Z" fill="#347079"/>
          <circle id="Elipse_632" data-name="Elipse 632" cx="0.72" cy="0.72" r="0.72" transform="translate(946.895 479.58)" fill="#347079"/>
          <circle id="Elipse_633" data-name="Elipse 633" cx="0.72" cy="0.72" r="0.72" transform="translate(946.895 473.992)" fill="#347079"/>
          <path id="Trazado_8757" data-name="Trazado 8757" d="M948.3,477.506a3.478,3.478,0,1,0-3.478,3.478A3.478,3.478,0,0,0,948.3,477.506Z" fill="#4595a1"/>
          <path id="Trazado_8758" data-name="Trazado 8758" d="M946.858,477.506a2.036,2.036,0,1,0-2.037,2.037A2.036,2.036,0,0,0,946.858,477.506Z" fill="#347079"/>
          <path id="Trazado_8759" data-name="Trazado 8759" d="M946.039,473.208a1.217,1.217,0,1,0-1.218,1.217A1.218,1.218,0,0,0,946.039,473.208Z" fill="#347079"/>
          <path id="Trazado_8760" data-name="Trazado 8760" d="M940.523,476.289a1.217,1.217,0,1,0,1.217,1.217A1.217,1.217,0,0,0,940.523,476.289Z" fill="#347079"/>
          <path id="Trazado_8761" data-name="Trazado 8761" d="M943.6,481.8a1.217,1.217,0,1,0,1.217-1.217A1.217,1.217,0,0,0,943.6,481.8Z" fill="#347079"/>
          <path id="Trazado_8762" data-name="Trazado 8762" d="M949.12,478.724a1.217,1.217,0,1,0-1.217-1.218A1.217,1.217,0,0,0,949.12,478.724Z" fill="#347079"/>
          <path id="Trazado_8763" data-name="Trazado 8763" d="M946.173,476.18a.72.72,0,1,0-1.019,0A.72.72,0,0,0,946.173,476.18Z" fill="#7dd0db"/>
          <circle id="Elipse_634" data-name="Elipse 634" cx="0.72" cy="0.72" r="0.72" transform="translate(942.266 475.944)" fill="#7dd0db"/>
          <circle id="Elipse_635" data-name="Elipse 635" cx="0.72" cy="0.72" r="0.72" transform="translate(943.259 478.622)" fill="#7dd0db"/>
          <path id="Trazado_8764" data-name="Trazado 8764" d="M946.148,478.858a.72.72,0,1,0,0-1.019A.72.72,0,0,0,946.148,478.858Z" fill="#7dd0db"/>
        </g>
        <path id="Trazado_8765" data-name="Trazado 8765" d="M944.821,485.105a7.6,7.6,0,1,1,7.6-7.6A7.607,7.607,0,0,1,944.821,485.105Zm0-13.524a5.925,5.925,0,1,0,5.925,5.925A5.931,5.931,0,0,0,944.821,471.581Z" fill="#dd5094"/>
        <rect id="Rectángulo_932" data-name="Rectángulo 932" width="13.519" height="1.674" transform="translate(939.451 481.694) rotate(-45)" fill="#dd5094"/>
      </g>
      <g id="Grupo_1781" data-name="Grupo 1781">
        <g id="Grupo_1780" data-name="Grupo 1780">
          <path id="Trazado_8766" data-name="Trazado 8766" d="M895.33,505.573a.851.851,0,1,0,0,1.2A.85.85,0,0,0,895.33,505.573Z" fill="#347079"/>
          <path id="Trazado_8767" data-name="Trazado 8767" d="M894.126,512.18a.851.851,0,1,0,1.2,0A.851.851,0,0,0,894.126,512.18Z" fill="#347079"/>
          <circle id="Elipse_636" data-name="Elipse 636" cx="0.851" cy="0.851" r="0.851" transform="translate(900.483 511.93)" fill="#347079"/>
          <circle id="Elipse_637" data-name="Elipse 637" cx="0.851" cy="0.851" r="0.851" transform="translate(900.483 505.323)" fill="#347079"/>
          <path id="Trazado_8768" data-name="Trazado 8768" d="M902.143,509.478a4.112,4.112,0,1,0-4.112,4.112A4.111,4.111,0,0,0,902.143,509.478Z" fill="#4595a1"/>
          <path id="Trazado_8769" data-name="Trazado 8769" d="M900.44,509.478a2.409,2.409,0,1,0-2.409,2.408A2.409,2.409,0,0,0,900.44,509.478Z" fill="#347079"/>
          <circle id="Elipse_638" data-name="Elipse 638" cx="1.439" cy="1.439" r="1.439" transform="translate(896.592 502.957)" fill="#347079"/>
          <path id="Trazado_8770" data-name="Trazado 8770" d="M892.949,508.039a1.439,1.439,0,1,0,1.439,1.439A1.439,1.439,0,0,0,892.949,508.039Z" fill="#347079"/>
          <circle id="Elipse_639" data-name="Elipse 639" cx="1.439" cy="1.439" r="1.439" transform="translate(896.592 513.121)" fill="#347079"/>
          <path id="Trazado_8771" data-name="Trazado 8771" d="M903.114,510.917a1.439,1.439,0,1,0-1.439-1.439A1.439,1.439,0,0,0,903.114,510.917Z" fill="#347079"/>
          <circle id="Elipse_640" data-name="Elipse 640" cx="0.851" cy="0.851" r="0.851" transform="translate(898.176 506.457)" fill="#7dd0db"/>
          <path id="Trazado_8772" data-name="Trazado 8772" d="M896.463,507.881a.851.851,0,1,0,0,1.2A.85.85,0,0,0,896.463,507.881Z" fill="#7dd0db"/>
          <path id="Trazado_8773" data-name="Trazado 8773" d="M896.434,511.046a.851.851,0,1,0,1.2,0A.85.85,0,0,0,896.434,511.046Z" fill="#7dd0db"/>
          <circle id="Elipse_641" data-name="Elipse 641" cx="0.851" cy="0.851" r="0.851" transform="translate(899.35 509.622)" fill="#7dd0db"/>
        </g>
        <path id="Trazado_8774" data-name="Trazado 8774" d="M898.032,518.462a8.984,8.984,0,1,1,8.983-8.984A8.995,8.995,0,0,1,898.032,518.462Zm0-15.989a7.006,7.006,0,1,0,7.005,7.005A7.014,7.014,0,0,0,898.032,502.473Z" fill="#dd5094"/>
        <rect id="Rectángulo_933" data-name="Rectángulo 933" width="15.984" height="1.978" transform="translate(891.682 514.429) rotate(-45)" fill="#dd5094"/>
      </g>
      <g id="Grupo_1783" data-name="Grupo 1783">
        <g id="Grupo_1782" data-name="Grupo 1782">
          <path id="Trazado_8775" data-name="Trazado 8775" d="M952.474,509.026a.541.541,0,1,0,0,.765A.54.54,0,0,0,952.474,509.026Z" fill="#347079"/>
          <path id="Trazado_8776" data-name="Trazado 8776" d="M951.71,513.222a.54.54,0,1,0,.764,0A.538.538,0,0,0,951.71,513.222Z" fill="#347079"/>
          <path id="Trazado_8777" data-name="Trazado 8777" d="M955.905,513.986a.541.541,0,1,0,0-.764A.54.54,0,0,0,955.905,513.986Z" fill="#347079"/>
          <path id="Trazado_8778" data-name="Trazado 8778" d="M956.67,509.791a.541.541,0,1,0-.765,0A.541.541,0,0,0,956.67,509.791Z" fill="#347079"/>
          <path id="Trazado_8779" data-name="Trazado 8779" d="M956.8,511.506a2.611,2.611,0,1,0-2.611,2.611A2.611,2.611,0,0,0,956.8,511.506Z" fill="#4595a1"/>
          <path id="Trazado_8780" data-name="Trazado 8780" d="M955.719,511.506a1.53,1.53,0,1,0-1.529,1.53A1.53,1.53,0,0,0,955.719,511.506Z" fill="#347079"/>
          <path id="Trazado_8781" data-name="Trazado 8781" d="M955.1,508.279a.914.914,0,1,0-.914.914A.914.914,0,0,0,955.1,508.279Z" fill="#347079"/>
          <path id="Trazado_8782" data-name="Trazado 8782" d="M950.962,510.592a.914.914,0,1,0,.914.914A.914.914,0,0,0,950.962,510.592Z" fill="#347079"/>
          <path id="Trazado_8783" data-name="Trazado 8783" d="M953.276,514.734a.914.914,0,1,0,.914-.914A.914.914,0,0,0,953.276,514.734Z" fill="#347079"/>
          <path id="Trazado_8784" data-name="Trazado 8784" d="M957.417,512.42a.914.914,0,1,0-.914-.914A.914.914,0,0,0,957.417,512.42Z" fill="#347079"/>
          <circle id="Elipse_642" data-name="Elipse 642" cx="0.541" cy="0.541" r="0.541" transform="translate(954.281 509.587)" fill="#7dd0db"/>
          <path id="Trazado_8785" data-name="Trazado 8785" d="M953.194,510.492a.541.541,0,1,0,0,.764A.541.541,0,0,0,953.194,510.492Z" fill="#7dd0db"/>
          <circle id="Elipse_643" data-name="Elipse 643" cx="0.541" cy="0.541" r="0.541" transform="translate(953.017 512.344)" fill="#7dd0db"/>
          <path id="Trazado_8786" data-name="Trazado 8786" d="M955.186,512.521a.541.541,0,1,0,0-.765A.54.54,0,0,0,955.186,512.521Z" fill="#7dd0db"/>
        </g>
        <path id="Trazado_8787" data-name="Trazado 8787" d="M954.19,517.211a5.705,5.705,0,1,1,5.7-5.7A5.712,5.712,0,0,1,954.19,517.211Zm0-10.154a4.449,4.449,0,1,0,4.448,4.449A4.454,4.454,0,0,0,954.19,507.057Z" fill="#dd5094"/>
        <rect id="Rectángulo_934" data-name="Rectángulo 934" width="10.151" height="1.257" transform="translate(950.157 514.65) rotate(-45)" fill="#dd5094"/>
      </g>
      <g id="Grupo_1785" data-name="Grupo 1785">
        <g id="Grupo_1784" data-name="Grupo 1784">
          <path id="Trazado_8788" data-name="Trazado 8788" d="M909.387,471.945a.54.54,0,1,0,0,.764A.54.54,0,0,0,909.387,471.945Z" fill="#347079"/>
          <path id="Trazado_8789" data-name="Trazado 8789" d="M908.623,476.14a.541.541,0,1,0,.764,0A.541.541,0,0,0,908.623,476.14Z" fill="#347079"/>
          <circle id="Elipse_644" data-name="Elipse 644" cx="0.541" cy="0.541" r="0.541" transform="translate(912.66 475.982)" fill="#347079"/>
          <circle id="Elipse_645" data-name="Elipse 645" cx="0.541" cy="0.541" r="0.541" transform="translate(912.66 471.786)" fill="#347079"/>
          <circle id="Elipse_646" data-name="Elipse 646" cx="2.611" cy="2.611" r="2.611" transform="translate(908.492 471.814)" fill="#4595a1"/>
          <path id="Trazado_8790" data-name="Trazado 8790" d="M912.632,474.425a1.529,1.529,0,1,0-1.529,1.529A1.529,1.529,0,0,0,912.632,474.425Z" fill="#347079"/>
          <path id="Trazado_8791" data-name="Trazado 8791" d="M912.017,471.2a.914.914,0,1,0-.914.914A.914.914,0,0,0,912.017,471.2Z" fill="#347079"/>
          <path id="Trazado_8792" data-name="Trazado 8792" d="M907.875,473.511a.914.914,0,1,0,.914.914A.914.914,0,0,0,907.875,473.511Z" fill="#347079"/>
          <path id="Trazado_8793" data-name="Trazado 8793" d="M910.189,477.653a.914.914,0,1,0,.914-.915A.914.914,0,0,0,910.189,477.653Z" fill="#347079"/>
          <path id="Trazado_8794" data-name="Trazado 8794" d="M914.33,475.339a.914.914,0,1,0-.913-.914A.914.914,0,0,0,914.33,475.339Z" fill="#347079"/>
          <path id="Trazado_8795" data-name="Trazado 8795" d="M912.117,473.429a.541.541,0,1,0-.764,0A.54.54,0,0,0,912.117,473.429Z" fill="#7dd0db"/>
          <circle id="Elipse_647" data-name="Elipse 647" cx="0.541" cy="0.541" r="0.541" transform="translate(909.184 473.252)" fill="#7dd0db"/>
          <path id="Trazado_8796" data-name="Trazado 8796" d="M910.088,475.421a.541.541,0,1,0,.765,0A.54.54,0,0,0,910.088,475.421Z" fill="#7dd0db"/>
          <circle id="Elipse_648" data-name="Elipse 648" cx="0.541" cy="0.541" r="0.541" transform="translate(911.94 474.517)" fill="#7dd0db"/>
        </g>
        <path id="Trazado_8797" data-name="Trazado 8797" d="M911.1,480.13a5.705,5.705,0,1,1,5.7-5.705A5.712,5.712,0,0,1,911.1,480.13Zm0-10.154a4.449,4.449,0,1,0,4.449,4.449A4.454,4.454,0,0,0,911.1,469.976Z" fill="#dd5094"/>
        <rect id="Rectángulo_935" data-name="Rectángulo 935" width="10.151" height="1.257" transform="translate(907.07 477.569) rotate(-45)" fill="#dd5094"/>
      </g>
      <g id="Grupo_1787" data-name="Grupo 1787">
        <g id="Grupo_1786" data-name="Grupo 1786">
          <circle id="Elipse_649" data-name="Elipse 649" cx="0.541" cy="0.541" r="0.541" transform="translate(931.147 527.551)" fill="#347079"/>
          <circle id="Elipse_650" data-name="Elipse 650" cx="0.541" cy="0.541" r="0.541" transform="translate(931.147 531.747)" fill="#347079"/>
          <path id="Trazado_8798" data-name="Trazado 8798" d="M935.5,532.67a.541.541,0,1,0,0-.765A.541.541,0,0,0,935.5,532.67Z" fill="#347079"/>
          <path id="Trazado_8799" data-name="Trazado 8799" d="M936.266,528.474a.541.541,0,1,0-.765,0A.54.54,0,0,0,936.266,528.474Z" fill="#347079"/>
          <circle id="Elipse_651" data-name="Elipse 651" cx="2.611" cy="2.611" r="2.611" transform="translate(931.175 527.579)" fill="#4595a1"/>
          <circle id="Elipse_652" data-name="Elipse 652" cx="1.529" cy="1.529" r="1.529" transform="translate(932.256 528.66)" fill="#347079"/>
          <path id="Trazado_8800" data-name="Trazado 8800" d="M934.7,526.962a.914.914,0,1,0-.914.914A.914.914,0,0,0,934.7,526.962Z" fill="#347079"/>
          <circle id="Elipse_653" data-name="Elipse 653" cx="0.914" cy="0.914" r="0.914" transform="translate(929.644 529.276)" fill="#347079"/>
          <path id="Trazado_8801" data-name="Trazado 8801" d="M932.872,533.417a.914.914,0,1,0,.914-.914A.914.914,0,0,0,932.872,533.417Z" fill="#347079"/>
          <path id="Trazado_8802" data-name="Trazado 8802" d="M937.013,531.1a.914.914,0,1,0-.914-.914A.914.914,0,0,0,937.013,531.1Z" fill="#347079"/>
          <circle id="Elipse_654" data-name="Elipse 654" cx="0.541" cy="0.541" r="0.541" transform="translate(933.877 528.271)" fill="#7dd0db"/>
          <path id="Trazado_8803" data-name="Trazado 8803" d="M932.79,529.175a.541.541,0,1,0,0,.765A.541.541,0,0,0,932.79,529.175Z" fill="#7dd0db"/>
          <path id="Trazado_8804" data-name="Trazado 8804" d="M932.771,531.185a.541.541,0,1,0,.765,0A.541.541,0,0,0,932.771,531.185Z" fill="#7dd0db"/>
          <path id="Trazado_8805" data-name="Trazado 8805" d="M934.782,531.2a.54.54,0,1,0,0-.764A.54.54,0,0,0,934.782,531.2Z" fill="#7dd0db"/>
        </g>
        <path id="Trazado_8806" data-name="Trazado 8806" d="M933.786,535.9a5.705,5.705,0,1,1,5.705-5.705A5.712,5.712,0,0,1,933.786,535.9Zm0-10.154a4.449,4.449,0,1,0,4.449,4.449A4.454,4.454,0,0,0,933.786,525.741Z" fill="#dd5094"/>
        <rect id="Rectángulo_936" data-name="Rectángulo 936" width="10.151" height="1.257" transform="translate(929.754 533.333) rotate(-45)" fill="#dd5094"/>
      </g>
      <g id="Grupo_1788" data-name="Grupo 1788" opacity="0.5">
        <path id="Trazado_8807" data-name="Trazado 8807" d="M959.034,467.574a43.189,43.189,0,0,0-38.316-11.95,7.018,7.018,0,0,0-5.332,9.24h0a6.923,6.923,0,0,0,7.75,4.544,29.831,29.831,0,0,1,11.03.051A28.116,28.116,0,0,1,944.7,473.81a30.185,30.185,0,0,1,6.484,5.934,6.973,6.973,0,0,0,9.708,1.068l0,0a7.013,7.013,0,0,0,1.1-9.956A43.1,43.1,0,0,0,959.034,467.574Z" fill="#fff"/>
        <path id="Trazado_8808" data-name="Trazado 8808" d="M962.4,489.019l-.139.048a6.911,6.911,0,0,0-4.646,6.994q.073,1.026.073,2.065a29.39,29.39,0,0,1-.427,5,6.9,6.9,0,0,0,3.313,7.107l.123.073a6.915,6.915,0,0,0,10.32-4.7,43.436,43.436,0,0,0,.533-10.685A6.877,6.877,0,0,0,962.4,489.019Z" fill="#fff"/>
        <path id="Trazado_8809" data-name="Trazado 8809" d="M907.83,518.779a29.218,29.218,0,0,1-7.441-28.594,6.573,6.573,0,0,0-3.347-7.665q-.432-.214-.868-.423a6.649,6.649,0,0,0-9.245,4.2,43.221,43.221,0,0,0,29.759,53.4,6.657,6.657,0,0,0,8.448-5.495c.032-.239.064-.479.1-.718a6.706,6.706,0,0,0-4.9-7.3A29.029,29.029,0,0,1,907.83,518.779Z" fill="#fff"/>
      </g>
    </g>
    <g id="Grupo_1790" data-name="Grupo 1790">
      <path id="Rectángulo_937" data-name="Rectángulo 937" d="M26.662,0h29.81A26.662,26.662,0,0,1,83.133,26.662v56.81a41.567,41.567,0,0,1-41.567,41.567h0A41.567,41.567,0,0,1,0,83.472V26.662A26.662,26.662,0,0,1,26.662,0Z" transform="translate(813.481 584.945) rotate(180)" fill="#9ddde6"/>
      <path id="Trazado_8810" data-name="Trazado 8810" d="M806.722,501.474v55.58a21.132,21.132,0,0,1-21.132,21.132H758.239a21.133,21.133,0,0,1-21.133-21.132v-54.84c0-18.94,14.822-34.971,33.754-35.533A34.846,34.846,0,0,1,806.722,501.474Z" fill="#7dd0db"/>
      <path id="Trazado_8811" data-name="Trazado 8811" d="M806.722,504.515v52.493a21.178,21.178,0,0,1-21.178,21.178H758.285a21.179,21.179,0,0,1-21.179-21.178V504.515Z" fill="#4595a1"/>
      <rect id="Rectángulo_938" data-name="Rectángulo 938" width="33.794" height="22.98" rx="2.816" transform="translate(755.017 441.095)" fill="#5cc6d6"/>
      <path id="Rectángulo_939" data-name="Rectángulo 939" d="M2.112,0H25.345a2.112,2.112,0,0,1,2.112,2.112V3.647a0,0,0,0,1,0,0H0a0,0,0,0,1,0,0V2.112A2.112,2.112,0,0,1,2.112,0Z" transform="translate(758.185 437.448)" fill="#5cc6d6"/>
      <path id="Rectángulo_940" data-name="Rectángulo 940" d="M5.238,0H42.75a5.238,5.238,0,0,1,5.238,5.238V61.843A23.994,23.994,0,0,1,23.994,85.837h0A23.994,23.994,0,0,1,0,61.843V5.238A5.238,5.238,0,0,1,5.238,0Z" transform="translate(795.908 567.372) rotate(180)" fill="#fff"/>
      <path id="Trazado_8812" data-name="Trazado 8812" d="M757.946,522.261H766V514.2h11.819v8.059h8.059v11.819h-8.059v8.059H766v-8.059h-8.059Z" fill="#dd5094"/>
      <rect id="Rectángulo_941" data-name="Rectángulo 941" width="27.936" height="5.632" transform="translate(785.882 504.477) rotate(180)" fill="#5cc6d6"/>
      <rect id="Rectángulo_942" data-name="Rectángulo 942" width="18.699" height="2.028" transform="translate(781.264 551.489) rotate(180)" fill="#5cc6d6"/>
      <rect id="Rectángulo_943" data-name="Rectángulo 943" width="18.699" height="2.028" transform="translate(781.264 555.432) rotate(180)" fill="#5cc6d6"/>
      <rect id="Rectángulo_944" data-name="Rectángulo 944" width="18.699" height="2.028" transform="translate(781.264 493.363) rotate(180)" fill="#5cc6d6"/>
      <rect id="Rectángulo_945" data-name="Rectángulo 945" width="9.462" height="2.028" transform="translate(776.645 563.204) rotate(180)" fill="#5cc6d6"/>
      <path id="Trazado_8813" data-name="Trazado 8813" d="M737.594,497.9l-.134-.023a6.72,6.72,0,0,1-5.292-8.6,41.666,41.666,0,0,1,17.816-23.115,6.679,6.679,0,0,1,9.194,2.2l.076.123a6.707,6.707,0,0,1-2.163,9.2,28.167,28.167,0,0,0-11.985,15.551A6.7,6.7,0,0,1,737.594,497.9Z" fill="#fff" opacity="0.2"/>
      <path id="Trazado_8814" data-name="Trazado 8814" d="M737.335,504.981l.135.006a6.685,6.685,0,0,1,6.4,6.682v.348a6.692,6.692,0,0,1-6.691,6.692h-.135a6.692,6.692,0,0,1-6.692-6.692v-.354A6.691,6.691,0,0,1,737.335,504.981Z" fill="#fff" opacity="0.2"/>
      <path id="Trazado_8815" data-name="Trazado 8815" d="M813.481,519.452v24.376a6.689,6.689,0,0,1-6.531,6.688l-.135,0a6.689,6.689,0,0,1-6.852-6.687V519.445A6.688,6.688,0,0,1,807,512.759l.136.008A6.7,6.7,0,0,1,813.481,519.452Z" fill="#fff" opacity="0.2"/>
      <path id="Trazado_8816" data-name="Trazado 8816" d="M786.282,571.427h2.338a6.7,6.7,0,0,1,6.678,6.247l.009.136a6.691,6.691,0,0,1-6.678,7.135h-2.342a6.686,6.686,0,0,1-6.683-6.428l-.005-.136A6.691,6.691,0,0,1,786.282,571.427Z" fill="#fff" opacity="0.2"/>
      <path id="Trazado_8817" data-name="Trazado 8817" d="M753.249,571.427h14.862a6.682,6.682,0,0,1,6.669,7.25l-.012.135a6.71,6.71,0,0,1-6.669,6.133H753.247a6.7,6.7,0,0,1-6.69-6.837l0-.135A6.685,6.685,0,0,1,753.249,571.427Z" fill="#fff" opacity="0.2"/>
      <path id="Trazado_8818" data-name="Trazado 8818" d="M785.995,441.1H757.833a2.816,2.816,0,0,0-2.816,2.816v4.506h33.794v-4.506A2.816,2.816,0,0,0,785.995,441.1Z" fill="#fff" opacity="0.2"/>
      <path id="Trazado_8819" data-name="Trazado 8819" d="M741.5,533.233a2.7,2.7,0,1,1,2.7-2.7A2.7,2.7,0,0,1,741.5,533.233Zm0-4.724a2.024,2.024,0,1,0,2.023,2.024A2.027,2.027,0,0,0,741.5,528.509Z" fill="#347079"/>
      <circle id="Elipse_655" data-name="Elipse 655" cx="1.408" cy="1.408" r="1.408" transform="translate(741.95 540.224)" fill="#347079"/>
      <circle id="Elipse_656" data-name="Elipse 656" cx="0.798" cy="0.798" r="0.798" transform="translate(777.997 569.831)" fill="#347079"/>
      <path id="Trazado_8820" data-name="Trazado 8820" d="M798.1,525.383a.929.929,0,1,1,.929.929A.929.929,0,0,1,798.1,525.383Z" fill="#347079"/>
      <path id="Trazado_8821" data-name="Trazado 8821" d="M745.892,570.967a2.365,2.365,0,1,1,2.366-2.365A2.367,2.367,0,0,1,745.892,570.967Zm0-4.056a1.69,1.69,0,1,0,1.691,1.691A1.692,1.692,0,0,0,745.892,566.911Z" fill="#347079"/>
      <path id="Trazado_8822" data-name="Trazado 8822" d="M800.6,571.765a1.9,1.9,0,1,1,1.9-1.9A1.9,1.9,0,0,1,800.6,571.765Zm0-3.126a1.225,1.225,0,1,0,1.225,1.226A1.227,1.227,0,0,0,800.6,568.639Z" fill="#347079"/>
      <path id="Trazado_8823" data-name="Trazado 8823" d="M799.964,517.481a2.788,2.788,0,1,1,2.788-2.787A2.791,2.791,0,0,1,799.964,517.481Zm0-4.9a2.112,2.112,0,1,0,2.112,2.113A2.115,2.115,0,0,0,799.964,512.581Z" fill="#347079"/>
      <path id="Trazado_8824" data-name="Trazado 8824" d="M775.595,453.343h-7.361a4.926,4.926,0,0,1-4.926-4.926H780.52A4.926,4.926,0,0,1,775.595,453.343Z" fill="#53b3c2"/>
    </g>
    <path id="Trazado_8825" data-name="Trazado 8825" d="M1016.787,384.524a8.977,8.977,0,1,1,8.977-8.978A8.989,8.989,0,0,1,1016.787,384.524Zm0-14.955a5.977,5.977,0,1,0,5.977,5.977A5.984,5.984,0,0,0,1016.787,369.569Z" fill="#fff"/>
    <path id="Trazado_8826" data-name="Trazado 8826" d="M940.043,435.077a9.477,9.477,0,1,1,9.477-9.477A9.488,9.488,0,0,1,940.043,435.077Zm0-14.955a5.477,5.477,0,1,0,5.477,5.478A5.484,5.484,0,0,0,940.043,420.122Z" fill="#d6f8f5"/>
    <path id="Trazado_8827" data-name="Trazado 8827" d="M709.238,542.806a14.174,14.174,0,1,1,14.174-14.174A14.189,14.189,0,0,1,709.238,542.806Zm0-24.347a10.174,10.174,0,1,0,10.174,10.173A10.185,10.185,0,0,0,709.238,518.459Z" fill="#d6f8f5"/>
    <path id="Trazado_8828" data-name="Trazado 8828" d="M709.238,486.862a9.477,9.477,0,1,1,9.477-9.478A9.489,9.489,0,0,1,709.238,486.862Zm0-14.955a5.477,5.477,0,1,0,5.477,5.477A5.483,5.483,0,0,0,709.238,471.907Z" fill="#d6f8f5"/>
    <path id="Trazado_8829" data-name="Trazado 8829" d="M751.922,428.341a14.78,14.78,0,1,1,14.78-14.78A14.8,14.8,0,0,1,751.922,428.341Zm0-25.56a10.78,10.78,0,1,0,10.78,10.78A10.793,10.793,0,0,0,751.922,402.781Z" fill="#d6f8f5"/>
    <path id="Trazado_8830" data-name="Trazado 8830" d="M1015.706,529.909a14.781,14.781,0,1,1,14.78-14.781A14.8,14.8,0,0,1,1015.706,529.909Zm0-25.561a10.781,10.781,0,1,0,10.78,10.78A10.793,10.793,0,0,0,1015.706,504.348Z" fill="#d6f8f5"/>
    <g id="Grupo_1791" data-name="Grupo 1791">
      <path id="Trazado_8831" data-name="Trazado 8831" d="M739.065,350.412a1.033,1.033,0,0,1-1.033-1.033v-3.81a1.033,1.033,0,1,1,2.066,0v3.81A1.033,1.033,0,0,1,739.065,350.412Z" fill="#fff"/>
      <path id="Trazado_8832" data-name="Trazado 8832" d="M739.065,363.039a1.034,1.034,0,0,1-1.033-1.033V358.2a1.033,1.033,0,1,1,2.066,0v3.81A1.034,1.034,0,0,1,739.065,363.039Z" fill="#fff"/>
      <path id="Trazado_8833" data-name="Trazado 8833" d="M747.284,354.821h-3.811a1.034,1.034,0,0,1,0-2.067h3.811a1.034,1.034,0,0,1,0,2.067Z" fill="#fff"/>
      <path id="Trazado_8834" data-name="Trazado 8834" d="M734.657,354.821h-3.811a1.034,1.034,0,0,1,0-2.067h3.811a1.034,1.034,0,0,1,0,2.067Z" fill="#fff"/>
    </g>
    <g id="Grupo_1792" data-name="Grupo 1792">
      <path id="Trazado_8835" data-name="Trazado 8835" d="M917.506,275.664a1.034,1.034,0,0,1-1.033-1.033V270.82a1.033,1.033,0,1,1,2.067,0v3.811A1.034,1.034,0,0,1,917.506,275.664Z" fill="#fff"/>
      <path id="Trazado_8836" data-name="Trazado 8836" d="M917.506,288.29a1.034,1.034,0,0,1-1.033-1.033v-3.81a1.033,1.033,0,1,1,2.067,0v3.81A1.034,1.034,0,0,1,917.506,288.29Z" fill="#fff"/>
      <path id="Trazado_8837" data-name="Trazado 8837" d="M925.725,280.072h-3.811a1.033,1.033,0,0,1,0-2.067h3.811a1.033,1.033,0,0,1,0,2.067Z" fill="#fff"/>
      <path id="Trazado_8838" data-name="Trazado 8838" d="M913.1,280.072h-3.81a1.033,1.033,0,0,1,0-2.067h3.81a1.033,1.033,0,0,1,0,2.067Z" fill="#fff"/>
    </g>
    <g id="Grupo_1793" data-name="Grupo 1793">
      <path id="Trazado_8839" data-name="Trazado 8839" d="M947.377,397.559a1.034,1.034,0,0,1-1.034-1.033v-3.811a1.033,1.033,0,0,1,2.067,0v3.811A1.034,1.034,0,0,1,947.377,397.559Z" fill="#fff"/>
      <path id="Trazado_8840" data-name="Trazado 8840" d="M947.377,410.186a1.034,1.034,0,0,1-1.034-1.033v-3.811a1.033,1.033,0,0,1,2.067,0v3.811A1.034,1.034,0,0,1,947.377,410.186Z" fill="#fff"/>
      <path id="Trazado_8841" data-name="Trazado 8841" d="M955.595,401.967h-3.81a1.033,1.033,0,0,1,0-2.066h3.81a1.033,1.033,0,1,1,0,2.066Z" fill="#fff"/>
      <path id="Trazado_8842" data-name="Trazado 8842" d="M942.968,401.967h-3.81a1.033,1.033,0,1,1,0-2.066h3.81a1.033,1.033,0,1,1,0,2.066Z" fill="#fff"/>
    </g>
    <g id="Grupo_1794" data-name="Grupo 1794">
      <path id="Trazado_8843" data-name="Trazado 8843" d="M797.513,286.385a1.034,1.034,0,0,1-1.033-1.033v-3.811a1.034,1.034,0,0,1,2.067,0v3.811A1.034,1.034,0,0,1,797.513,286.385Z" fill="#fff"/>
      <path id="Trazado_8844" data-name="Trazado 8844" d="M797.513,299.012a1.034,1.034,0,0,1-1.033-1.033v-3.811a1.034,1.034,0,0,1,2.067,0v3.811A1.034,1.034,0,0,1,797.513,299.012Z" fill="#fff"/>
      <path id="Trazado_8845" data-name="Trazado 8845" d="M805.732,290.793h-3.81a1.033,1.033,0,1,1,0-2.066h3.81a1.033,1.033,0,1,1,0,2.066Z" fill="#fff"/>
      <path id="Trazado_8846" data-name="Trazado 8846" d="M793.1,290.793h-3.81a1.033,1.033,0,1,1,0-2.066h3.81a1.033,1.033,0,1,1,0,2.066Z" fill="#fff"/>
    </g>
    <g id="Grupo_1795" data-name="Grupo 1795">
      <path id="Trazado_8847" data-name="Trazado 8847" d="M675.012,515.423a1,1,0,0,1-1-1v-3.81a1,1,0,0,1,2,0v3.81A1,1,0,0,1,675.012,515.423Z" fill="#d6f8f5"/>
      <path id="Trazado_8848" data-name="Trazado 8848" d="M675.012,528.05a1,1,0,0,1-1-1v-3.81a1,1,0,0,1,2,0v3.81A1,1,0,0,1,675.012,528.05Z" fill="#d6f8f5"/>
      <path id="Trazado_8849" data-name="Trazado 8849" d="M683.231,519.831h-3.81a1,1,0,0,1,0-2h3.81a1,1,0,0,1,0,2Z" fill="#d6f8f5"/>
      <path id="Trazado_8850" data-name="Trazado 8850" d="M670.6,519.831h-3.81a1,1,0,0,1,0-2h3.81a1,1,0,0,1,0,2Z" fill="#d6f8f5"/>
    </g>
    <g id="Grupo_1796" data-name="Grupo 1796">
      <path id="Trazado_8851" data-name="Trazado 8851" d="M739.065,458.743a1,1,0,0,1-1-1v-3.811a1,1,0,0,1,2,0v3.811A1,1,0,0,1,739.065,458.743Z" fill="#d6f8f5"/>
      <path id="Trazado_8852" data-name="Trazado 8852" d="M739.065,471.369a1,1,0,0,1-1-1v-3.81a1,1,0,0,1,2,0v3.81A1,1,0,0,1,739.065,471.369Z" fill="#d6f8f5"/>
      <path id="Trazado_8853" data-name="Trazado 8853" d="M747.284,463.151h-3.811a1,1,0,0,1,0-2h3.811a1,1,0,0,1,0,2Z" fill="#d6f8f5"/>
      <path id="Trazado_8854" data-name="Trazado 8854" d="M734.657,463.151h-3.811a1,1,0,0,1,0-2h3.811a1,1,0,0,1,0,2Z" fill="#d6f8f5"/>
    </g>
    <g id="Grupo_1797" data-name="Grupo 1797">
      <path id="Trazado_8855" data-name="Trazado 8855" d="M997.107,460.184a1,1,0,0,1-1-1v-3.811a1,1,0,1,1,2,0v3.811A1,1,0,0,1,997.107,460.184Z" fill="#d6f8f5"/>
      <path id="Trazado_8856" data-name="Trazado 8856" d="M997.107,472.811a1,1,0,0,1-1-1V468a1,1,0,0,1,2,0v3.811A1,1,0,0,1,997.107,472.811Z" fill="#d6f8f5"/>
      <path id="Trazado_8857" data-name="Trazado 8857" d="M1005.326,464.592h-3.811a1,1,0,0,1,0-2h3.811a1,1,0,0,1,0,2Z" fill="#d6f8f5"/>
      <path id="Trazado_8858" data-name="Trazado 8858" d="M992.7,464.592h-3.811a1,1,0,0,1,0-2H992.7a1,1,0,0,1,0,2Z" fill="#d6f8f5"/>
    </g>
    <g id="Grupo_1798" data-name="Grupo 1798">
      <path id="Trazado_8859" data-name="Trazado 8859" d="M799.051,387.684a1,1,0,0,1-1-1v-3.811a1,1,0,1,1,2,0v3.811A1,1,0,0,1,799.051,387.684Z" fill="#d6f8f5"/>
      <path id="Trazado_8860" data-name="Trazado 8860" d="M799.051,400.311a1,1,0,0,1-1-1V395.5a1,1,0,0,1,2,0v3.811A1,1,0,0,1,799.051,400.311Z" fill="#d6f8f5"/>
      <path id="Trazado_8861" data-name="Trazado 8861" d="M807.27,392.092h-3.81a1,1,0,0,1,0-2h3.81a1,1,0,0,1,0,2Z" fill="#d6f8f5"/>
      <path id="Trazado_8862" data-name="Trazado 8862" d="M794.643,392.092h-3.81a1,1,0,0,1,0-2h3.81a1,1,0,0,1,0,2Z" fill="#d6f8f5"/>
    </g>
    <g id="Grupo_1799" data-name="Grupo 1799">
      <path id="Trazado_8863" data-name="Trazado 8863" d="M928.826,353.838l.007-.005-10.794-15.507a3.763,3.763,0,0,0-6.178,0l-10.794,15.507.007.005a16.91,16.91,0,0,0-3.117,10.29,17,17,0,0,0,33.993-.49A16.9,16.9,0,0,0,928.826,353.838Z" fill="#d6f8f5"/>
      <circle id="Elipse_657" data-name="Elipse 657" cx="11.908" cy="11.908" r="11.908" transform="translate(903.042 351.73)" fill="#9ddde6"/>
      <path id="Trazado_8864" data-name="Trazado 8864" d="M926.989,370.935a4.742,4.742,0,1,0-4.742,4.742A4.742,4.742,0,0,0,926.989,370.935Z" fill="#fff" opacity="0.3"/>
      <path id="Trazado_8865" data-name="Trazado 8865" d="M910.754,356.277a3.165,3.165,0,1,0-3.165,3.165A3.165,3.165,0,0,0,910.754,356.277Z" fill="#fff" opacity="0.3"/>
    </g>
  </g>
</svg>
