<svg xmlns="http://www.w3.org/2000/svg" width="224.375" height="530.829" viewBox="0 0 224.375 530.829">
  <g id="Grupo_1223" data-name="Grupo 1223" transform="translate(-265 -2810)">
    <path id="Trazado_6321" data-name="Trazado 6321" d="M2441.448,58.028c-6.335,0-12.777-1.485-17.229-3.973a27.258,27.258,0,0,1-7.567-5.967l-.96-.986c-2.731-2.771-6.316-6.148-8.2-7.808a3.715,3.715,0,0,0-.53-.382,29.9,29.9,0,0,0-6.628-2.383c-.526-.145-1.011-.277-1.426-.4a4.917,4.917,0,0,1-2.485-1.453,5.99,5.99,0,0,1-1.348-4.218c0-.5,0-1.038,0-1.627l.012-2.181-.584-1.888-.15-.557v-.021c-.428-1.613-.83-3.206-1.216-4.787l-.328-1.389-.081-.288-.25-1.068,2.942-.794-3,.542-.1-.443,2.929-.835-3,.545-.724-3.174.025-.009q-.454-2.123-.859-4.221l-.16-.866q-.4-2.114-.768-4.221l-.255-1.554q-.292-1.79-.563-3.584l-.233-1.592c-.184-1.283-.342-2.47-.5-3.661l-.21-1.665c-.158-1.275-.3-2.569-.444-3.868l-.154-1.391c-.184-1.765-.357-3.55-.519-5.369-3.541-40.174-4.57-65.975-5.585-96.2-1.015,30.226-2.043,56.031-5.588,96.2-.157,1.783-.327,3.535-.508,5.271l-.187,1.709c-.127,1.163-.26,2.327-.4,3.48l-.245,1.942q-.21,1.627-.438,3.237l-.277,1.927q-.253,1.7-.533,3.377l-.277,1.689q-.416,2.438-.884,4.883l-.073.37q-.42,2.159-.886,4.323l.032.015-.656,2.835-.047-.006v.216l-.147.644-3-.545,2.941.787-.16.67-.056.2s-.356,1.532-.467,1.981c-.423,1.73-.864,3.477-1.337,5.249l-.545,2.047.011,2.039c0,.6,0,1.143,0,1.627a5.972,5.972,0,0,1-1.336,4.209,4.973,4.973,0,0,1-2.5,1.462c-.414.122-.9.254-1.424.4a29.9,29.9,0,0,0-6.632,2.385,3.95,3.95,0,0,0-.536.385c-1.913,1.688-5.507,5.072-8.2,7.807l-.965.989a27.276,27.276,0,0,1-7.56,5.959c-4.455,2.49-10.9,3.975-17.231,3.975-10.276,0-16.756-3.85-16.914-10.05-.009-.291-.018-.589-.02-.9l0-.213c0-.306.009-.628.033-.966.008-.119.023-.251.041-.385.04-.373.08-.683.142-1,.04-.19.084-.348.129-.507l2.964.7-2.925-.848a5.429,5.429,0,0,1,.2-.683l.018,0a3.207,3.207,0,0,1,.167-.45l.135-.3a25.6,25.6,0,0,1,5.9-8.917c2.917-2.833,5.8-5.207,8.59-7.5,1.385-1.138,2.72-2.237,4.016-3.357-.336-1.815-.644-3.631-.937-5.446l-.443-2.77-.371-2.445.032-.014c-2.389-16.969-3.031-33.445-3.335-47.436-.452-20.609-.934-37.51-1.362-52.42-1.567-54.8-2.37-82.824,1.9-170.089l-3.865,28.3c-.864,4.652-4.757,31.885-5.067,36.974l-.192,3.144-.16-.017a11.045,11.045,0,0,1,.043,1.619,42.15,42.15,0,0,0,.206,6.811c.1,1.112.2,2.164.194,3.155-.009,4.839-.275,7.053-1.137,9.479a6.233,6.233,0,0,1-5.688,4.154,5.5,5.5,0,0,1-1.961-.358,16.694,16.694,0,0,1-1.209,7.811c-.078.213-.15.4-.2.569a4.534,4.534,0,0,1-4.462,3.133c-5.541,0-14.679-8.656-19.559-18.524l-.128-.257-.075-.277c-1.328-4.783-1.761-11.8-1.127-18.325.067-.7.155-1.479.263-2.337l-.472-.046.385-3.106a6.071,6.071,0,0,1,.563-1.989,3.7,3.7,0,0,0,.2-1.367c-6.1-7.1-4.065-30.952-.075-68.112,5.979-55.673,18.41-91,36.96-105.107.68-.519,1.519-1.1,2.493-1.726,4.1-3.6,13.778-7.377,26.219-10.246a6.78,6.78,0,0,1,.306-.662,6.067,6.067,0,0,1,3.463-2.9,20.214,20.214,0,0,1-1.137-3.6c-1.357-6.213.3-12.084,3.911-14.794a56.488,56.488,0,0,0-.73-6.463c-2.333-13.346-2.161-32.008,5.321-44.371,5.834-9.645,16.616-15.4,28.84-15.4h.864c12.223,0,23.006,5.758,28.842,15.4,7.479,12.363,7.653,31.025,5.321,44.37a56.937,56.937,0,0,0-.73,6.464c3.609,2.71,5.27,8.581,3.911,14.794a20.443,20.443,0,0,1-1.181,3.7,6.052,6.052,0,0,1,3.587,2.955,6.5,6.5,0,0,1,.318.7c12.509,2.958,21.994,6.795,25.757,10.433.735.45,1.4.881,1.945,1.268,19.043,13.434,32.736,48.288,40.7,103.593,5.34,37.1,8.234,60.876,2.393,68.189a3.664,3.664,0,0,0,.251,1.354,6.145,6.145,0,0,1,.636,1.965l.5,3.092-.364.047c.139.84.256,1.607.352,2.313.884,6.487.724,13.519-.416,18.349l-.044.169c-2.968,9.977-9.712,15.248-19.5,15.248h0a43.537,43.537,0,0,1-8.373-.975l-1.026-.193c-2.468-.438-4.269-2.716-4.471-5.667a6.594,6.594,0,0,1,.948-4.039,6.91,6.91,0,0,1-.548-1.023l-.293-.715c-.816-1.948-1.14-3.074-1.311-7.2-.039-.991.016-2.045.075-3.161a42.532,42.532,0,0,0-.055-6.814,11.241,11.241,0,0,1-.019-1.7l-.288.038-.3-3.135c-.49-5-5.359-32.112-6.365-36.625l-9.065-52.248c-.165,6.232-.21,12.5-.137,18.861.68,13.568,1.237,25.722,1.7,37.045l.344,8.662c2.174,57.207,1.4,84.378.111,129.393-.426,14.909-.908,31.806-1.359,52.412a402.575,402.575,0,0,1-3.333,47.358l.027.009-.373,2.525-.419,2.619c-.337,2.1-.647,3.9-.958,5.568,1.31,1.131,2.657,2.239,4.056,3.389,2.789,2.3,5.673,4.669,8.59,7.5a25.573,25.573,0,0,1,5.9,8.914l.14.313a3.608,3.608,0,0,1,.166.444l.018,0a5.836,5.836,0,0,1,.2.676c.085.309.132.479.167.656.061.313.1.607.131.907.027.2.044.352.055.5.017.25.021.472.024.7l.01.482-.02.883C2458.207,54.177,2451.726,58.028,2441.448,58.028Z" transform="translate(-2006.858 3282.801)" fill="#7da4b0"/>
    <path id="Trazado_6322" data-name="Trazado 6322" d="M2489.422-198.109l.417-.055c-.267-1.648-.794-.58-1.011-4.987,6.655-4.6,1.784-38.363-2.275-66.572-6.151-42.712-17.441-86.02-39.441-101.542-.577-.408-1.292-.866-2.088-1.345l0,0c-2.92-3.083-12.381-7.17-26.53-10.33a3.018,3.018,0,0,0-.33-1.783,3.037,3.037,0,0,0-3.864-1.364c-.288-.767-.554-1.546-.8-2.344a16.6,16.6,0,0,0,1.968-5.029c1.269-5.808-.541-11.18-4.059-12.407a61.733,61.733,0,0,1,.854-8.727c2.6-14.866,1.406-31.8-4.927-42.268-5.807-9.6-16.193-14.059-26.67-13.933-10.476-.126-20.862,4.335-26.668,13.933-6.335,10.468-7.527,27.4-4.927,42.268a61.95,61.95,0,0,1,.854,8.727c-3.518,1.227-5.328,6.6-4.058,12.407a16.585,16.585,0,0,0,1.968,5.029c-.227.746-.476,1.476-.743,2.2a3.031,3.031,0,0,0-3.843,1.357,3.028,3.028,0,0,0-.345,1.748c-14.075,3.063-23.651,7.049-27.014,10.148-.971.621-1.829,1.208-2.5,1.72-21.431,16.3-31.155,59.989-35.764,102.894-3.042,28.335-6.695,62.252.12,66.607-.054,4.413-.625,3.366-.829,5.025l.522.05c-.294,1.957-.537,3.786-.69,5.36-.572,5.907-.248,12.606,1.03,17.216,5.99,12.112,17.1,19.714,18.4,15.788.607-1.844,2.9-6.16-.384-12.487a18.16,18.16,0,0,1-.664-13.37c1.176.368.808,3.295,3.158,6.855.313,1.914.679,5.6,1.5,7.058,1.656,2.932,4.6,1.971,5.475-.3.73-2.053.953-3.922.962-8.466,0-2.366-.671-5.468-.4-10.138a21.207,21.207,0,0,0-.654-4.847l.965.093c.324-5.3,4.288-32.9,5.091-37.2l9.321-68.256c.639,10.591,1,22.373.854,35.4-5.772,115.675-2.923,129.989-.791,227.41.345,15.844,1.121,32.634,3.659,49.5l-.017.006c.055.37.12.741.178,1.112.084.542.172,1.085.26,1.627.358,2.211.736,4.422,1.161,6.633.327-.123.63-.227.947-.342-4.608,4.247-9.633,7.8-14.662,12.687a23.426,23.426,0,0,0-5.379,8.289c-.046.1-.064.212-.1.317,0-.018-.006-.035-.008-.053-.059.158-.088.324-.133.487-.033.126-.076.25-.1.377-.044.225-.07.446-.094.668-.011.114-.032.227-.038.338-.02.269-.024.527-.026.779,0,.056,0,.114,0,.169,0,.3.01.589.018.842.218,8.595,19.994,8.872,29.618,3.5,3.979-2.228,4.921-3.454,7.84-6.426,2.713-2.756,6.346-6.183,8.362-7.96a7.033,7.033,0,0,1,.948-.689c2.473-1.522,6.6-2.467,8.793-3.11a1.9,1.9,0,0,0,1.123-.615c.327-.352.508-.893.521-2.176.007-.467.007-1,0-1.572l-.014,0c-.021-1.286-.065-3.089-.129-5.06l.028.006.091.02.1.021.092.021.027,0,.1.021.068.018.091.02.1.021.1.02c.466-1.752.9-3.477,1.323-5.191.16-.654.306-1.3.458-1.952l.038-.16c.014-.038.026-.078.041-.116l.02-.093.038-.149.033-.148.035-.146.006-.03.028-.12.033-.146.035-.148.033-.146v-.011l.03-.14.035-.146.033-.146.031-.134,0-.014.035-.146.03-.151.035-.146-.011,0,.029-.126c.131-.586.268-1.176.394-1.761q.509-2.358.966-4.695l.073-.371q.466-2.413.874-4.821c.1-.555.183-1.112.273-1.666.181-1.108.359-2.219.525-3.33.094-.635.185-1.274.275-1.91q.223-1.589.432-3.2c.083-.638.165-1.278.242-1.92.138-1.141.269-2.295.4-3.451.062-.563.126-1.122.186-1.688.18-1.72.348-3.456.5-5.224,5.331-60.445,4.957-88.2,7.443-148.022.018-.268.044-.526.074-.776.008-.05.014-.1.02-.152a6.9,6.9,0,0,1,.126-.686c.008-.032.019-.061.026-.093a3.2,3.2,0,0,1,.177-.505c.012-.027.023-.058.037-.084a1.249,1.249,0,0,1,.268-.365.7.7,0,0,1,.449-.2.7.7,0,0,1,.443.2,1.27,1.27,0,0,1,.277.373c.009.021.018.047.029.068a3.146,3.146,0,0,1,.181.52c.009.03.019.058.026.09a6.8,6.8,0,0,1,.125.682c.009.055.015.111.023.166.03.248.056.5.073.767,2.487,59.824,2.112,87.576,7.44,148.022.16,1.8.332,3.572.515,5.325.049.461.1.916.152,1.374.139,1.284.285,2.564.44,3.829q.1.826.208,1.645.226,1.764.475,3.515c.081.558.161,1.12.244,1.677q.265,1.771.558,3.537c.084.511.166,1.026.253,1.537q.356,2.079.755,4.16c.053.286.1.572.158.86q.491,2.527,1.044,5.074c.081.373.172.752.254,1.125q.057.251.114.5l-.012,0,.035.146.033.151.017.082.014.064.035.148.033.146.035.146.017.068.017.082.033.146.033.148.035.146.014.055.02.1.035.146.033.148.035.149.01.038.023.108.038.151.033.148.035.149.006.024c.012.033.023.068.035.1l.029.123c.11.461.213.919.325,1.382q.616,2.525,1.3,5.1l0,.023.044.164.1-.02.091-.021.1-.02.082-.021.123-.027.078-.017.093-.021.091-.02.042-.011.027-.006c-.064,1.975-.11,3.782-.129,5.07l-.012,0c0,.577,0,1.1,0,1.572.017,1.283.2,1.825.525,2.176a1.892,1.892,0,0,0,1.123.615c2.193.644,6.32,1.589,8.791,3.11a6.9,6.9,0,0,1,.946.689c2.02,1.777,5.649,5.2,8.364,7.96,2.917,2.972,3.859,4.2,7.842,6.426,9.619,5.376,29.4,5.1,29.618-3.5.006-.243.015-.516.017-.808,0-.12-.006-.248-.007-.374,0-.2,0-.388-.018-.593-.009-.129-.032-.257-.046-.388-.023-.21-.046-.417-.088-.627-.026-.134-.07-.26-.1-.393-.044-.158-.072-.321-.13-.476,0,.018-.007.033-.007.052-.038-.1-.056-.213-.1-.315a23.458,23.458,0,0,0-5.38-8.289c-5.019-4.876-10.036-8.426-14.637-12.661.293.108.575.2.878.317.437-2.261.823-4.524,1.188-6.787q.108-.66.211-1.319c.066-.423.138-.845.2-1.266l-.02-.008c2.538-16.864,3.317-33.653,3.663-49.5,1.812-82.82,4.142-105.589,1.251-181.62h0c-.017-.429-.035-.872-.052-1.3-.023-.609-.046-1.217-.07-1.834-.044-1.137-.091-2.289-.137-3.45,0-.1-.009-.21-.012-.315-.025-.584-.047-1.16-.07-1.752h0c-.458-11.165-1.02-23.432-1.7-37.135-.2-17.47.522-32.7,1.6-45.818l.132.749,13.487,77.76c.951,4.267,5.907,31.7,6.423,36.992l1.088-.145a21.476,21.476,0,0,0-.478,4.938c.453,4.655-.1,7.784-.006,10.144.187,4.536.548,4.816,1.361,6.839.958,2.237,3.943,3.083,5.481.093.764-1.491.914-3.607,1.156-5.53,2.211-3.651,1.729-6.56,2.893-6.973,2.4,6.267,1.531,10.159.511,11.542-.945,1.283-6.006,3.145-8.96,4.1-1.865.6-1.672,5.273.729,5.7,5.67,1.021,20.425,4.929,25.447-11.952,1.1-4.657,1.163-11.358.362-17.243C2490.1-194.352,2489.79-196.167,2489.422-198.109Z" transform="translate(-2005.804 3283.845)" fill="#00a0a6"/>
    <g id="Grupo_1199" data-name="Grupo 1199" transform="translate(268.073 2813.044)">
      <path id="Trazado_6323" data-name="Trazado 6323" d="M2366.492-443.993c-1.455-2.33-2.219-4-4.858-4.847a37.407,37.407,0,0,0-22.735,0c-2.638.846-3.4,2.517-4.857,4.847-2.4,3.83-2.086,8.829-1.428,13.193a38.817,38.817,0,0,0,5.527,14.947h1.434c.1-10.386-.315-11.856,7.178-21.175,1.242-1.545,2.379-2.322,3.513-2.333,1.137.011,2.275.788,3.515,2.333,7.493,9.319,7.079,10.789,7.178,21.175h1.432a38.8,38.8,0,0,0,5.529-14.947C2368.578-435.164,2368.887-440.162,2366.492-443.993Z" transform="translate(-2243.477 481.336)" fill="#606060"/>
      <path id="Trazado_6324" data-name="Trazado 6324" d="M2416.583-317.232c-.079.018,2.484,11.581,2.651,12.454.982,5.058,5.559,22.7,6.817,31.967.8,5.885.737,12.586-.36,17.243-5.022,16.881-19.777,12.973-25.447,11.952-2.4-.426-2.6-5.1-.729-5.7,2.954-.956,8.015-2.818,8.96-4.1,1.019-1.383,1.885-5.276-.512-11.542-1.164.414-.683,3.322-2.893,6.973-.242,1.924-.393,4.039-1.156,5.528-1.539,2.992-4.522,2.146-5.481-.091-.812-2.022-1.173-2.3-1.362-6.839-.094-2.36.461-5.489.008-10.144-.451-4.62,4.806-21.289,3.995-26.617l-2.439-15.974c-.1-.61.447-1.211.516-1.7,1.111-7.828,8.282-.478,8.282-.478s5.16-.014,6.041.516S2416.583-317.232,2416.583-317.232Z" transform="translate(-2209.611 550.823)" fill="#88d5f5" fill-rule="evenodd"/>
      <path id="Trazado_6325" data-name="Trazado 6325" d="M2365.629-415.24c-10.383-.927-26.94-.227-32.459,0l-.161,6.058,4.531,3.129,8.22,13.127,2.077,7.2,1.887,3.53,4.635-12.509,5.822-7.869,5.608-5.175Z" transform="translate(-2243.024 499.546)" fill="#d1967b" fill-rule="evenodd"/>
      <path id="Trazado_6326" data-name="Trazado 6326" d="M2347.182-415.68c-5.97.091-11.314.317-14.012.426l-.161,6.058,4.531,3.129.84,1.336c.357.16.733.307,1.121.443Z" transform="translate(-2243.024 499.56)" fill="#b37b68" fill-rule="evenodd"/>
      <path id="Trazado_6327" data-name="Trazado 6327" d="M2283.6-316.3c.078.017-2.033,11.669-2.167,12.545-.783,5.1-4.679,22.9-5.58,32.211-.574,5.907-.25,12.606,1.03,17.216,5.99,12.112,17.1,19.714,18.4,15.788.607-1.844,2.9-6.16-.382-12.487a18.148,18.148,0,0,1-.665-13.37c1.176.368.808,3.295,3.158,6.855.313,1.914.679,5.6,1.5,7.058,1.655,2.932,4.6,1.971,5.475-.3.73-2.053.951-3.922.962-8.466,0-2.366-.671-5.468-.4-10.138.27-4.632-5.627-21.085-5.02-26.442l1.82-16.054c.068-.618-.495-1.192-.583-1.678-1.415-7.781-8.292-.157-8.292-.157s-5.16.184-6.017.747S2283.6-316.3,2283.6-316.3Z" transform="translate(-2272.985 551.014)" fill="#88d5f5" fill-rule="evenodd"/>
      <path id="Trazado_6328" data-name="Trazado 6328" d="M2376.692-149.821c-1.719.306-14.229,4.874-14.229,4.874s-7.079-1.222-7.014-1.678c.372-2.514-.041-12.614.1-14.493l21.595.126C2377.648-158.873,2378.525-150.152,2376.692-149.821Z" transform="translate(-2231.317 632.376)" fill="#6b6a6e" fill-rule="evenodd"/>
      <path id="Trazado_6329" data-name="Trazado 6329" d="M2355.945-152.933c-.025.009-.168,0-.208.116-.5,1.467-.941,16.321-.91,18.862.017,1.283.2,1.825.525,2.176a1.882,1.882,0,0,0,1.123.615c2.506.737,7.537,1.866,9.738,3.8,2.019,1.777,5.648,5.2,8.363,7.96,2.917,2.972,3.858,4.2,7.842,6.426,9.619,5.376,29.4,5.1,29.618-3.5a9.083,9.083,0,0,0-.487-3.923,23.478,23.478,0,0,0-5.38-8.289c-8.63-8.383-17.26-12.831-23.771-23.621-2.682-5.866-10.792-7.269-14.04-2.858-1.313,1.787-2.58,6.763-2.58,6.763-1.094-.446-9.922-3.424-9.853-4.267Z" transform="translate(-2231.642 634.132)" fill="#d6d4de" fill-rule="evenodd"/>
      <path id="Trazado_6330" data-name="Trazado 6330" d="M2354.827-143.148c0,.577,0,1.1,0,1.572.017,1.283.2,1.825.525,2.176a1.86,1.86,0,0,0,1.123.61c2.506.741,7.537,1.87,9.738,3.8,2.019,1.777,5.648,5.2,8.363,7.96,2.917,2.972,3.858,4.2,7.842,6.426,9.619,5.376,29.4,5.1,29.618-3.5a9.758,9.758,0,0,0-.379-3.66c-.207,5.042-8.309,6.254-12.469,6.606a29.222,29.222,0,0,1-9.476-.761c-5.063-1.155-8.47-4.024-15.974-10.979-7.231-6.7-10.94-9.35-18.614-10.232C2355.025-143.131,2354.926-143.142,2354.827-143.148Z" transform="translate(-2231.642 641.752)" fill="#535353" fill-rule="evenodd"/>
      <path id="Trazado_6331" data-name="Trazado 6331" d="M2318.558-149.821c1.718.306,14.23,4.874,14.23,4.874s7.078-1.222,7.009-1.678c-.368-2.514.044-12.614-.094-14.493l-21.592.126C2317.6-158.873,2316.726-150.152,2318.558-149.821Z" transform="translate(-2251.142 632.376)" fill="#6b6a6e" fill-rule="evenodd"/>
      <path id="Trazado_6332" data-name="Trazado 6332" d="M2351.259-152.933c.028.009.167,0,.212.116.5,1.467.942,16.321.907,18.862-.014,1.283-.193,1.825-.522,2.176a1.892,1.892,0,0,1-1.122.615c-2.506.737-7.539,1.866-9.742,3.8-2.015,1.777-5.649,5.2-8.36,7.96-2.919,2.972-3.86,4.2-7.842,6.426-9.622,5.376-29.4,5.1-29.618-3.5a9.087,9.087,0,0,1,.489-3.923,23.422,23.422,0,0,1,5.379-8.289c8.63-8.383,17.255-12.831,23.771-23.621,2.68-5.866,10.789-7.269,14.035-2.858,1.318,1.787,2.583,6.763,2.583,6.763,1.1-.446,9.918-3.424,9.854-4.267Z" transform="translate(-2262.775 634.132)" fill="#d6d4de" fill-rule="evenodd"/>
      <path id="Trazado_6333" data-name="Trazado 6333" d="M2352.382-143.148c0,.577,0,1.1,0,1.572-.014,1.283-.193,1.825-.522,2.176a1.872,1.872,0,0,1-1.122.61c-2.506.741-7.539,1.87-9.743,3.8-2.015,1.777-5.648,5.2-8.36,7.96-2.918,2.972-3.86,4.2-7.841,6.426-9.622,5.376-29.4,5.1-29.618-3.5a9.762,9.762,0,0,1,.379-3.66c.208,5.042,8.309,6.254,12.471,6.606a29.231,29.231,0,0,0,9.476-.761c5.062-1.155,8.47-4.024,15.974-10.979,7.231-6.7,10.935-9.35,18.609-10.232C2352.185-143.131,2352.283-143.142,2352.382-143.148Z" transform="translate(-2262.775 641.752)" fill="#535353" fill-rule="evenodd"/>
      <path id="Trazado_6334" data-name="Trazado 6334" d="M2394.127-402.694c22,15.522,33.29,58.829,39.441,101.542,4.058,28.209,8.929,61.97,2.275,66.572.214,4.407.744,3.339,1.009,4.987l-29.1,3.861c-.516-5.29-5.472-32.725-6.423-36.992l-13.487-77.76-12.4-70.076C2380.253-410.526,2390.166-405.487,2394.127-402.694Z" transform="translate(-2220.89 502.23)" fill="#ebe9f4" fill-rule="evenodd"/>
      <path id="Trazado_6335" data-name="Trazado 6335" d="M2410.381-237.893l-4.676.621c-.516-5.29-5.472-32.725-6.423-36.992l-13.487-77.76-6.446-36.42,8.711.411Z" transform="translate(-2218.848 513.77)" fill="#d6d4de" fill-rule="evenodd"/>
      <path id="Trazado_6336" data-name="Trazado 6336" d="M2313.389-402.464c-21.431,16.3-31.156,59.989-35.764,102.894-3.042,28.335-6.7,62.252.12,66.607-.054,4.413-.625,3.366-.829,5.025l29.225,2.811c.324-5.3,4.288-32.9,5.089-37.2l10.679-78.193,9.88-70.48C2326.972-410.791,2317.244-405.4,2313.389-402.464Z" transform="translate(-2273.877 502.001)" fill="#ebe9f4" fill-rule="evenodd"/>
      <path id="Trazado_6337" data-name="Trazado 6337" d="M2291.993-237.184l4.7.45c.324-5.3,4.288-32.9,5.089-37.2l10.679-78.193,5.135-36.628-8.692.723Z" transform="translate(-2264.424 513.607)" fill="#d6d4de" fill-rule="evenodd"/>
      <path id="Trazado_6338" data-name="Trazado 6338" d="M2307.79-292.89c-5.772,115.675-2.923,129.989-.791,227.41.409,18.781,1.394,38.888,5.242,58.876,12.65-4.768,18.2-3.94,38.264.618a246.321,246.321,0,0,0,7.511-43.74c5.331-60.445,4.957-88.2,7.443-148.022.1-1.5.371-2.832,1.176-2.865.8.033,1.074,1.363,1.176,2.865,2.486,59.824,2.112,87.576,7.439,148.022a246.638,246.638,0,0,0,7.514,43.74c20.063-4.558,25.613-5.385,38.262-.618,3.847-19.988,4.836-40.095,5.245-58.876,2.132-97.421,4.981-111.734-.794-227.41-.789-68.695,12.658-102.981,5.927-108.628-4.246-4.483-22.328-11.09-48.541-13.881-5.366,9.646-27.093,9.646-32.459,0-26.214,2.791-44.295,9.4-48.542,13.881C2295.135-395.871,2308.581-361.585,2307.79-292.89Z" transform="translate(-2260.261 499.706)" fill="#ebe9f4" fill-rule="evenodd"/>
      <path id="Trazado_6339" data-name="Trazado 6339" d="M2304.108-310.491q-.183,4.44-.341,8.654h121.779q-.16-4.216-.34-8.654Z" transform="translate(-2258.281 554.442)" fill="#00a0a6" fill-rule="evenodd"/>
      <g id="Grupo_1187" data-name="Grupo 1187" transform="translate(84.596 283.171)">
        <path id="Trazado_6340" data-name="Trazado 6340" d="M2344.053-268.633a4.305,4.305,0,0,1,.761,2.7c2.486,59.824,2.112,87.576,7.439,148.022a250.362,250.362,0,0,0,5.778,36.846,26.955,26.955,0,0,1,1.692,6.729l.043.164c2.023-.457,3.9-.88,5.646-1.262l-8.882-209.287Z" transform="translate(-2321.858 284.718)" fill="#d6d4de" fill-rule="evenodd"/>
        <path id="Trazado_6341" data-name="Trazado 6341" d="M2329.468-75.431c1.75.382,3.626.8,5.649,1.262l.041-.16a29.2,29.2,0,0,1,1.818-7.259,250.841,250.841,0,0,0,5.652-36.321c5.331-60.445,4.957-88.2,7.443-148.022a4.327,4.327,0,0,1,.756-2.7l-12.474-16.085Z" transform="translate(-2329.468 284.718)" fill="#d6d4de" fill-rule="evenodd"/>
      </g>
      <path id="Trazado_6342" data-name="Trazado 6342" d="M2306.983-151.746q.7,4.686,1.6,9.372l.591-.221h0l.575-.212h0l.571-.2h0l.558-.193h0l.549-.189h0l.543-.181h0l.536-.17h0l.528-.163h0l.522-.154h0l.516-.151h0l.511-.135h0l.508-.134h0c.167-.044.333-.085.5-.126h0c.167-.036.332-.078.5-.116h0c.164-.036.329-.072.492-.11h0l.491-.1h0l.491-.094h0l.484-.09h0c.164-.027.324-.05.488-.075h0c.16-.027.32-.052.481-.075h0c.16-.021.321-.046.481-.065h0c.165-.017.324-.038.484-.055h0l.486-.05h0q.244-.027.484-.041h0c.164-.014.324-.027.489-.038h0c.163-.011.323-.02.487-.027h0c.164-.011.327-.017.491-.02h0c.167-.008.327-.014.495-.014h0c.167-.008.33-.008.5-.011h.5c.166,0,.333,0,.5.008h0c.17,0,.342.009.513.012h0l.514.021h0c.174.011.349.017.522.027h0c.177.011.352.02.528.033h0l.535.041h0l.543.047h0l.55.056h0l.558.058h0l.571.067h0l.576.076h0l.586.078h0l.6.085h0l.607.1h0l.616.1h0l.631.11h0l.642.108h0l.654.116h0l.673.126h0l.682.131h0l.7.135h0l.714.143h0l.73.148h0l.743.154h0l.761.16h0l.778.164h0l.8.173h0l.811.178h0l.833.183h0l.849.189h0l.871.195h0l.886.2h0l.912.207h0l.931.208h0c.866-3.258,1.651-6.44,2.354-9.578-19.355-6.119-33.227-3.885-41.907-.519C2307.188-151.818,2307.083-151.784,2306.983-151.746Z" transform="translate(-2256.604 635.475)" fill="#f6f5fb" fill-rule="evenodd"/>
      <path id="Trazado_6343" data-name="Trazado 6343" d="M2395.052-151.746q-.7,4.686-1.6,9.372l-.587-.221h0l-.577-.212h0l-.569-.2h0l-.56-.193h0l-.552-.189h0l-.542-.181h0l-.536-.17h0l-.53-.163h0l-.522-.154h0l-.514-.151h0l-.508-.135h0l-.508-.134h0c-.167-.044-.335-.085-.5-.126h0c-.166-.036-.33-.078-.5-.116h0l-.495-.11h0c-.163-.033-.327-.067-.491-.1h0l-.487-.094h0l-.484-.09h0c-.16-.027-.32-.05-.484-.075h0c-.16-.027-.324-.052-.484-.075h0c-.161-.021-.321-.046-.486-.065h0c-.16-.017-.32-.038-.484-.055h0l-.481-.05h0c-.163-.018-.324-.032-.487-.041h0c-.162-.014-.324-.027-.486-.038h0c-.16-.011-.324-.02-.489-.027h0c-.16-.011-.324-.017-.49-.02h0c-.164-.008-.329-.014-.491-.014h0c-.167-.008-.332-.008-.5-.011h-.5c-.167,0-.338,0-.505.008h0c-.167,0-.338.009-.508.012h0l-.517.021h0c-.172.011-.346.017-.524.027h0c-.173.011-.35.02-.528.033h0l-.536.041h0l-.542.047h0l-.55.056h0l-.56.058h0l-.569.067h0l-.577.076h0l-.586.078h0l-.6.085h0l-.61.1h0l-.621.1h0l-.632.11h0l-.644.108h0l-.656.116h0l-.671.126h0l-.682.131h0l-.7.135h0l-.712.143h0l-.726.148h0l-.744.154h0l-.759.16h0l-.779.164h0l-.792.173h0l-.816.178h0l-.828.183h0l-.849.189h0l-.867.195h0l-.891.2h0l-.91.207h0l-.928.208h0c-.87-3.258-1.651-6.44-2.357-9.578,19.354-6.119,33.23-3.885,41.91-.519C2394.848-151.818,2394.95-151.784,2395.052-151.746Z" transform="translate(-2232.682 635.475)" fill="#f6f5fb" fill-rule="evenodd"/>
      <path id="Trazado_6344" data-name="Trazado 6344" d="M2339.095-413.393V-256.8h14.259V-413.393a21.086,21.086,0,0,1-7.129.861A21.065,21.065,0,0,1,2339.095-413.393Z" transform="translate(-2239.849 500.753)" fill="#00a0a6" fill-rule="evenodd"/>
      <path id="Trazado_6345" data-name="Trazado 6345" d="M2329.468-143.635l.082.017.085.02.081.017.083.018.038.011h0l.044.009.085.017.083.017.085.021.082.017.085.017.167.038.085.021.081.017.035.009h0l.05.011.086.017.171.038.085.02.085.021.371.082.061.009.085.021.09.02.085.021.352.078.088.021.088.02.021,0h0l.067.014.09.02.088.02.088.021.09.02.091.021.088.017.09.024.091.017.089.02.013,0h0l.079.02.091.017.089.021.091.02.093.024.091.02.093.021.091.02.093.02.091.021.008,0h0l.085.018.091.023.093.02.1.021.091.021.1.02.1.024.091.02.1.021.1.02h0l.006-.03.035-.129a29.2,29.2,0,0,1,1.818-7.259h0l.02-.093.038-.149.034-.148.033-.146.008-.03.028-.12.033-.146.035-.148.033-.146v-.011l.031-.14.035-.146.034-.146.03-.134,0-.014.035-.146.031-.151.035-.146c-2.621-.829-5.14-1.5-7.563-2.044Z" transform="translate(-2244.872 636.093)" fill="#e8e7ec" fill-rule="evenodd"/>
      <path id="Trazado_6346" data-name="Trazado 6346" d="M2352.831-151.951l.033.146.035.151.017.082.014.064.033.148.035.146.033.146.019.069.017.082.033.146.035.148.033.146.014.055.02.1.035.146.034.148.035.149.009.038.024.11.038.149.033.148.033.149.008.024h0a26.978,26.978,0,0,1,1.692,6.729l.044.164.1-.02.091-.021.1-.02.1-.024.091-.02.1-.021.092-.021.093-.02.1-.023.082-.018h0l.009,0,.093-.021.092-.02.093-.02.091-.021.093-.02.091-.024.093-.02.088-.021.093-.017.074-.02h0l.014,0,.093-.02.088-.017.091-.024.088-.017.09-.021.091-.02.09-.021.088-.02.088-.02.069-.014h0l.021,0,.088-.02.088-.021.088-.02.085-.021.09-.02.088-.017.085-.021.088-.02.085-.021.059-.009h0l.026-.008.087-.02.17-.038.088-.017.085-.021.085-.02.085-.017.085-.021.083-.017.054-.011h0l.031-.009.085-.017.085-.021.082-.017.085-.021.085-.017.082-.017.085-.021.082-.017.085-.017.04-.009h0l.041-.011.082-.018.082-.017.082-.02.083-.017-.441-10.36C2357.974-153.452,2355.454-152.781,2352.831-151.951Z" transform="translate(-2232.682 636.093)" fill="#e8e7ec" fill-rule="evenodd"/>
      <rect id="Rectángulo_729" data-name="Rectángulo 729" width="31.036" height="18.349" transform="translate(121.54 153.261)" fill="#fff"/>
      <path id="Trazado_6347" data-name="Trazado 6347" d="M2366.1-375h-3.217v7.476h3.217Z" transform="translate(-2227.436 520.784)" fill="#a5c8ce" fill-rule="evenodd"/>
      <g id="Grupo_1188" data-name="Grupo 1188" transform="translate(123.58 165.498)">
        <rect id="Rectángulo_730" data-name="Rectángulo 730" width="23.703" height="0.849" transform="translate(1.627 1.671)" fill="#00a0a6"/>
        <rect id="Rectángulo_731" data-name="Rectángulo 731" width="26.957" height="0.849" fill="#00a0a6"/>
        <rect id="Rectángulo_732" data-name="Rectángulo 732" width="20.503" height="0.849" transform="translate(3.227 3.343)" fill="#00a0a6"/>
      </g>
      <rect id="Rectángulo_733" data-name="Rectángulo 733" width="25.402" height="5.017" transform="translate(124.357 155.893)" fill="#00a0a6"/>
      <rect id="Rectángulo_734" data-name="Rectángulo 734" width="29.635" height="5.769" transform="translate(122.239 143.032)" fill="#fff"/>
      <rect id="Rectángulo_735" data-name="Rectángulo 735" width="29.635" height="5.769" transform="translate(60.872 143.032)" fill="#fff"/>
      <g id="Grupo_1198" data-name="Grupo 1198" transform="translate(65.337)">
        <path id="Trazado_6348" data-name="Trazado 6348" d="M2327-434.146a131.726,131.726,0,0,0,1.674,18.369l2.8-.615a6.4,6.4,0,0,1,4.743.8,11.265,11.265,0,0,1,3.526,3.328l1.182.12a38.69,38.69,0,0,1-5.631-15.106c-.659-4.364-.968-9.363,1.428-13.194,1.455-2.33,2.219-4,4.857-4.847a37.413,37.413,0,0,1,22.736,0c2.637.846,3.4,2.517,4.856,4.847,2.4,3.83,2.086,8.829,1.427,13.194a38.622,38.622,0,0,1-5.635,15.109l1.236-.123a11.229,11.229,0,0,1,3.526-3.328,6.4,6.4,0,0,1,4.742-.8l2.806.615a131.76,131.76,0,0,0,1.674-18.369c-.042-5.64-.953-10.448-3.465-14.128a14.929,14.929,0,0,0-3.96-3.849c-4.726-3.228-11.626-4.841-18.552-4.841s-13.825,1.613-18.552,4.841a14.871,14.871,0,0,0-3.96,3.849C2327.952-444.594,2327.04-439.785,2327-434.146Z" transform="translate(-2311.498 478.02)" fill="#979797" fill-rule="evenodd"/>
        <path id="Trazado_6349" data-name="Trazado 6349" d="M2347.724-417.486l3.544.142,7.166-.712c-.174-11.79.648-12.918-7.195-22.676-1.242-1.545-2.38-2.322-3.515-2.333-1.135.011-2.272.788-3.514,2.333-7.843,9.757-7.021,10.885-7.194,22.676l7.164.712Z" transform="translate(-2306.271 485.272)" fill="#9b9b9b" fill-rule="evenodd"/>
        <g id="Grupo_1189" data-name="Grupo 1189" transform="translate(52.491 22.512)">
          <path id="Trazado_6350" data-name="Trazado 6350" d="M2351.306-412.544l1.968-.195v-42.642q-.962-.342-1.968-.625Z" transform="translate(-2351.306 456.007)" fill="#fff" fill-rule="evenodd"/>
          <path id="Trazado_6351" data-name="Trazado 6351" d="M2354.063-415.509a9.369,9.369,0,0,1,1.546-1.106,6.058,6.058,0,0,1,2.912-.919v-34.783c-.354-.286-.729-.563-1.115-.826a22.257,22.257,0,0,0-3.343-1.864Z" transform="translate(-2349.867 456.529)" fill="#fff" fill-rule="evenodd"/>
        </g>
        <path id="Trazado_6352" data-name="Trazado 6352" d="M2358.266-371.942c4.52-.619,8.764-1.516,11.675-1.018,4.265.732,8.015,4.765,8.015,4.765.3-3.929-.429-11.049,3.818-11.755,4.3-.717,17.948,5.061,17.948,5.061-10.587-7.915-12.1-26.882-9.858-39.707,2.6-14.866,1.406-31.8-4.927-42.268-5.807-9.6-16.194-14.059-26.67-13.933-10.476-.126-20.861,4.335-26.668,13.933-6.335,10.468-7.526,27.4-4.927,42.268,2.244,12.825.728,31.792-9.858,39.707,0,0,13.644-5.778,17.944-5.061,4.249.706,3.517,7.826,3.821,11.755,0,0,3.748-4.033,8.012-4.765,2.913-.5,7.158.4,11.676,1.018ZM2332.975-407.1c-2.055-14.507-3.52-26.831,1.806-34.632,8.394-12.293,38.625-12.293,47.018,0,5.326,7.8,3.862,20.125,1.806,34.632l-4.072-.89v0l-.111-.026c-2.567-.562-5.29,1.129-7.22,4.113l-10.344,1.029-3.567-.143-3.568.143-10.345-1.029c-1.928-2.984-4.65-4.675-7.219-4.113l-.111.026v0Z" transform="translate(-2316.812 470.801)" fill="#ebe9f4" fill-rule="evenodd"/>
        <g id="Grupo_1192" data-name="Grupo 1192" transform="translate(26.047 66.899)">
          <path id="Trazado_6353" data-name="Trazado 6353" d="M2334.116-408.853c5.333,3.629,8.079,5.583,15.219,5.417,7.14.166,9.887-1.788,15.219-5.417.155-.107.222-.225.17-.329-3.266-1.471-4.894-6.67-3.672-12.264a16.439,16.439,0,0,1,2.2-5.393L2352.9-425.81l-3.567-.143-3.567.143-10.345-1.029a16.5,16.5,0,0,1,2.195,5.393c1.223,5.594-.408,10.792-3.672,12.264C2333.893-409.079,2333.961-408.96,2334.116-408.853Z" transform="translate(-2333.928 426.839)" fill="#4a4a4a" fill-rule="evenodd"/>
          <g id="Grupo_1191" data-name="Grupo 1191" transform="translate(9.949 10.727)">
            <path id="Trazado_6354" data-name="Trazado 6354" d="M2345.567-419.107a4.417,4.417,0,0,1,4.418,4.418,4.419,4.419,0,0,1-4.418,4.419,4.418,4.418,0,0,1-4.417-4.419A4.417,4.417,0,0,1,2345.567-419.107Z" transform="translate(-2340.109 420.146)" fill="#333" fill-rule="evenodd"/>
            <path id="Trazado_6355" data-name="Trazado 6355" d="M2345.924-419.79a5.458,5.458,0,0,1,5.458,5.457,5.459,5.459,0,0,1-5.458,5.46,5.459,5.459,0,0,1-5.458-5.46A5.458,5.458,0,0,1,2345.924-419.79Z" transform="translate(-2340.466 419.79)" fill="#333" fill-rule="evenodd"/>
            <g id="Grupo_1190" data-name="Grupo 1190" transform="translate(1.041 1.039)">
              <path id="Trazado_6356" data-name="Trazado 6356" d="M2344.564-419.1l-.266,2.614-.024,0a1.8,1.8,0,0,0-.375.04l-.269-2.614a4.267,4.267,0,0,1,.644-.047C2344.373-419.107,2344.47-419.1,2344.564-419.1Z" transform="translate(-2339.856 419.107)" fill="#666" fill-rule="evenodd"/>
              <path id="Trazado_6357" data-name="Trazado 6357" d="M2343.042-418.808l1.075,2.4a1.818,1.818,0,0,0-.326.234l-1.539-2.13A4.246,4.246,0,0,1,2343.042-418.808Z" transform="translate(-2340.575 419.263)" fill="#666" fill-rule="evenodd"/>
              <path id="Trazado_6358" data-name="Trazado 6358" d="M2341.791-417.818l2.128,1.538a1.739,1.739,0,0,0-.166.364l-2.4-1.074A4.191,4.191,0,0,1,2341.791-417.818Z" transform="translate(-2341.043 419.78)" fill="#666" fill-rule="evenodd"/>
              <path id="Trazado_6359" data-name="Trazado 6359" d="M2341.161-416.395l2.613.266,0,.024a1.9,1.9,0,0,0,.04.374l-2.615.268a4.469,4.469,0,0,1-.045-.642C2341.15-416.2,2341.153-416.3,2341.161-416.395Z" transform="translate(-2341.15 420.522)" fill="#666" fill-rule="evenodd"/>
              <path id="Trazado_6360" data-name="Trazado 6360" d="M2341.448-414.551l2.4-1.077a1.809,1.809,0,0,0,.233.326l-2.131,1.54A4.511,4.511,0,0,1,2341.448-414.551Z" transform="translate(-2340.994 420.922)" fill="#666" fill-rule="evenodd"/>
              <path id="Trazado_6361" data-name="Trazado 6361" d="M2342.438-413.06l1.54-2.129a1.865,1.865,0,0,0,.362.164l-1.074,2.4A4.507,4.507,0,0,1,2342.438-413.06Z" transform="translate(-2340.478 421.151)" fill="#666" fill-rule="evenodd"/>
              <path id="Trazado_6362" data-name="Trazado 6362" d="M2343.861-412.4l.268-2.613h.024a1.873,1.873,0,0,0,.373-.038l.27,2.614a4.467,4.467,0,0,1-.643.047C2344.056-412.387,2343.958-412.391,2343.861-412.4Z" transform="translate(-2339.735 421.224)" fill="#666" fill-rule="evenodd"/>
              <path id="Trazado_6363" data-name="Trazado 6363" d="M2345.7-412.7l-1.073-2.4a1.794,1.794,0,0,0,.324-.233l1.54,2.132A4.48,4.48,0,0,1,2345.7-412.7Z" transform="translate(-2339.334 421.079)" fill="#666" fill-rule="evenodd"/>
              <path id="Trazado_6364" data-name="Trazado 6364" d="M2347.2-413.937l-2.129-1.539a1.844,1.844,0,0,0,.166-.362l2.4,1.074A4.369,4.369,0,0,1,2347.2-413.937Z" transform="translate(-2339.106 420.813)" fill="#666" fill-rule="evenodd"/>
              <path id="Trazado_6365" data-name="Trazado 6365" d="M2347.859-415.691l-2.613-.269v-.024a1.73,1.73,0,0,0-.04-.371l2.616-.269a4.259,4.259,0,0,1,.046.641C2347.868-415.885,2347.865-415.788,2347.859-415.691Z" transform="translate(-2339.033 420.402)" fill="#666" fill-rule="evenodd"/>
              <path id="Trazado_6366" data-name="Trazado 6366" d="M2347.56-417.215l-2.4,1.074a1.819,1.819,0,0,0-.233-.324l2.131-1.54A4.465,4.465,0,0,1,2347.56-417.215Z" transform="translate(-2339.177 419.682)" fill="#666" fill-rule="evenodd"/>
              <path id="Trazado_6367" data-name="Trazado 6367" d="M2346.32-418.468l-1.538,2.129a1.719,1.719,0,0,0-.365-.164l1.076-2.4A4.56,4.56,0,0,1,2346.32-418.468Z" transform="translate(-2339.445 419.213)" fill="#666" fill-rule="evenodd"/>
            </g>
          </g>
        </g>
        <g id="Grupo_1195" data-name="Grupo 1195" transform="translate(6.247 62.678)">
          <g id="Grupo_1193" data-name="Grupo 1193">
            <path id="Trazado_6368" data-name="Trazado 6368" d="M2325.911-428.2c3.865-.845,8.081,3.41,9.414,9.506s-.722,11.724-4.588,12.567-8.082-3.41-9.414-9.506S2322.044-427.354,2325.911-428.2Z" transform="translate(-2320.917 430.293)" fill="#919191" fill-rule="evenodd"/>
            <path id="Trazado_6369" data-name="Trazado 6369" d="M2333.221-429.505c3.865-.846,8.082,3.412,9.414,9.506s-.723,11.724-4.59,12.568l-.111.023v0l-8.8,1.923v0c3.753-.974,5.728-6.522,4.415-12.527s-5.422-10.223-9.24-9.541v0l8.8-1.924v0Z" transform="translate(-2319.146 429.612)" fill="#3e3e3e" fill-rule="evenodd"/>
            <path id="Trazado_6370" data-name="Trazado 6370" d="M2331.783-406.568l-2.645.578v0c3.753-.974,5.728-6.522,4.415-12.527s-5.422-10.223-9.24-9.541v0l2.646-.578a8.564,8.564,0,0,1,3.406,2.2,15.931,15.931,0,0,1,3.971,7.732l.021.07v.04a15.877,15.877,0,0,1-.394,8.609A8.631,8.631,0,0,1,2331.783-406.568Z" transform="translate(-2319.146 430.119)" fill="#767676" fill-rule="evenodd"/>
          </g>
          <g id="Grupo_1194" data-name="Grupo 1194" transform="translate(46.518)">
            <path id="Trazado_6371" data-name="Trazado 6371" d="M2367.275-428.2c-3.867-.845-8.081,3.41-9.415,9.506s.723,11.724,4.59,12.567,8.081-3.41,9.414-9.506S2371.14-427.354,2367.275-428.2Z" transform="translate(-2348.373 430.293)" fill="#919191" fill-rule="evenodd"/>
            <path id="Trazado_6372" data-name="Trazado 6372" d="M2361.307-429.505c-3.867-.846-8.081,3.412-9.415,9.506s.723,11.724,4.59,12.568l.111.023v0l8.8,1.923v0c-3.754-.974-5.728-6.522-4.416-12.527s5.424-10.223,9.24-9.541v0l-8.8-1.924v0Z" transform="translate(-2351.486 429.612)" fill="#3e3e3e" fill-rule="evenodd"/>
            <path id="Trazado_6373" data-name="Trazado 6373" d="M2359.907-406.568l2.645.578v0c-3.754-.974-5.728-6.522-4.416-12.527s5.423-10.223,9.24-9.541v0l-2.646-.578a8.594,8.594,0,0,0-3.406,2.2,15.926,15.926,0,0,0-3.97,7.732l-.023.07v.04a15.9,15.9,0,0,0,.4,8.609A8.594,8.594,0,0,0,2359.907-406.568Z" transform="translate(-2348.648 430.119)" fill="#767676" fill-rule="evenodd"/>
          </g>
        </g>
        <path id="Trazado_6374" data-name="Trazado 6374" d="M2328.071-413.911c-2.053-14.5-3.517-26.827,1.808-34.627,8.394-12.293,38.625-12.293,47.018,0,5.326,7.8,3.862,20.125,1.806,34.632l-.008,0-4.087-.893v0l-.111-.026c-2.568-.562-5.292,1.129-7.22,4.116l-10.32,1.026-3.567-.143-3.568.143-10.345-1.029-.035-.02c-1.93-2.97-4.644-4.655-7.207-4.094l-.111.026v0l-4.051.886Zm-.659-19.821a131.729,131.729,0,0,0,1.674,18.369l2.8-.615a6.4,6.4,0,0,1,4.743.8,11.265,11.265,0,0,1,3.526,3.328l9.7.966,3.482-.14h.094l3.481.14,9.7-.966a11.23,11.23,0,0,1,3.526-3.328,6.4,6.4,0,0,1,4.742-.8l2.806.615a131.723,131.723,0,0,0,1.674-18.369c-.042-5.64-.953-10.448-3.465-14.128a14.924,14.924,0,0,0-3.959-3.849c-4.727-3.228-11.626-4.841-18.552-4.841s-13.825,1.613-18.552,4.841a14.866,14.866,0,0,0-3.959,3.849C2328.365-444.18,2327.453-439.371,2327.412-433.731Z" transform="translate(-2311.91 477.606)" fill="#555" fill-rule="evenodd"/>
        <path id="Trazado_6375" data-name="Trazado 6375" d="M2340.721-457.467a45.093,45.093,0,0,1,10.19,0v1.213a43.9,43.9,0,0,0-5.095-.3,43.846,43.846,0,0,0-5.1.3Z" transform="translate(-2304.337 477.607)" fill="#e6e6e6" fill-rule="evenodd"/>
        <g id="Grupo_1197" data-name="Grupo 1197" transform="translate(33.949 59.972)">
          <path id="Trazado_6376" data-name="Trazado 6376" d="M2346.626-431.391a7.5,7.5,0,0,1,7.505,7.5,7.505,7.505,0,0,1-7.505,7.507,7.505,7.505,0,0,1-7.5-7.507A7.5,7.5,0,0,1,2346.626-431.391Z" transform="translate(-2339.121 431.391)" fill="#333" fill-rule="evenodd"/>
          <g id="Grupo_1196" data-name="Grupo 1196" transform="translate(1.658 1.657)">
            <path id="Trazado_6377" data-name="Trazado 6377" d="M2344.731-430.29l-.354,3.459h-.032a2.4,2.4,0,0,0-.493.052l-.358-3.46a6.051,6.051,0,0,1,.853-.062C2344.476-430.3,2344.6-430.3,2344.731-430.29Z" transform="translate(-2338.498 430.302)" fill="#666" fill-rule="evenodd"/>
            <path id="Trazado_6378" data-name="Trazado 6378" d="M2342.714-429.908l1.423,3.173a2.378,2.378,0,0,0-.431.309l-2.038-2.818A6.02,6.02,0,0,1,2342.714-429.908Z" transform="translate(-2339.45 430.508)" fill="#666" fill-rule="evenodd"/>
            <path id="Trazado_6379" data-name="Trazado 6379" d="M2341.058-428.6l2.816,2.036a2.451,2.451,0,0,0-.217.482l-3.176-1.424A5.9,5.9,0,0,1,2341.058-428.6Z" transform="translate(-2340.07 431.192)" fill="#666" fill-rule="evenodd"/>
            <path id="Trazado_6380" data-name="Trazado 6380" d="M2340.225-426.713l3.459.353,0,.032a2.393,2.393,0,0,0,.052.495l-3.46.358a5.847,5.847,0,0,1-.061-.852C2340.211-426.457,2340.214-426.585,2340.225-426.713Z" transform="translate(-2340.211 432.175)" fill="#666" fill-rule="evenodd"/>
            <path id="Trazado_6381" data-name="Trazado 6381" d="M2340.6-424.274l3.173-1.424a2.349,2.349,0,0,0,.309.432l-2.82,2.038A5.848,5.848,0,0,1,2340.6-424.274Z" transform="translate(-2340.005 432.704)" fill="#666" fill-rule="evenodd"/>
            <path id="Trazado_6382" data-name="Trazado 6382" d="M2341.916-422.3l2.036-2.818a2.472,2.472,0,0,0,.483.219l-1.423,3.176A5.869,5.869,0,0,1,2341.916-422.3Z" transform="translate(-2339.321 433.007)" fill="#666" fill-rule="evenodd"/>
            <path id="Trazado_6383" data-name="Trazado 6383" d="M2343.8-421.423l.354-3.456h.032a2.522,2.522,0,0,0,.494-.052l.356,3.46a5.807,5.807,0,0,1-.849.061C2344.058-421.41,2343.927-421.413,2343.8-421.423Z" transform="translate(-2338.339 433.104)" fill="#666" fill-rule="evenodd"/>
            <path id="Trazado_6384" data-name="Trazado 6384" d="M2346.24-421.817l-1.425-3.173a2.327,2.327,0,0,0,.429-.31l2.039,2.821A5.9,5.9,0,0,1,2346.24-421.817Z" transform="translate(-2337.808 432.912)" fill="#666" fill-rule="evenodd"/>
            <path id="Trazado_6385" data-name="Trazado 6385" d="M2348.215-423.458l-2.82-2.038a2.274,2.274,0,0,0,.219-.481l3.176,1.423A5.938,5.938,0,0,1,2348.215-423.458Z" transform="translate(-2337.506 432.559)" fill="#666" fill-rule="evenodd"/>
            <path id="Trazado_6386" data-name="Trazado 6386" d="M2349.092-425.781l-3.46-.355v-.033a2.328,2.328,0,0,0-.052-.495l3.462-.355a6,6,0,0,1,.061.849C2349.1-426.039,2349.1-425.907,2349.092-425.781Z" transform="translate(-2337.409 432.015)" fill="#666" fill-rule="evenodd"/>
            <path id="Trazado_6387" data-name="Trazado 6387" d="M2348.694-427.8l-3.171,1.423a2.473,2.473,0,0,0-.309-.428l2.818-2.039A5.906,5.906,0,0,1,2348.694-427.8Z" transform="translate(-2337.6 431.063)" fill="#666" fill-rule="evenodd"/>
            <path id="Trazado_6388" data-name="Trazado 6388" d="M2347.053-429.455l-2.034,2.818a2.345,2.345,0,0,0-.483-.219l1.421-3.176A5.678,5.678,0,0,1,2347.053-429.455Z" transform="translate(-2337.954 430.443)" fill="#666" fill-rule="evenodd"/>
          </g>
        </g>
      </g>
      <path id="Trazado_6389" data-name="Trazado 6389" d="M2321.227-413.393l7.638,4.1a57.717,57.717,0,0,0,26.9,7.081c.134,0,.269,0,.4,0a57.719,57.719,0,0,0,26.939-6.97l7.659-4.069" transform="translate(-2249.172 500.753)" fill="none" stroke="#00a0a6" stroke-linecap="round" stroke-miterlimit="10" stroke-width="4" fill-rule="evenodd"/>
    </g>
  </g>
</svg>
