<svg xmlns="http://www.w3.org/2000/svg" width="118" height="118" viewBox="0 0 118 118">
  <g id="Grupo_1730" data-name="Grupo 1730" transform="translate(-2535.234 -101.4)">
    <g id="Grupo_1726" data-name="Grupo 1726" transform="translate(2759 -2781.361)">
      <g id="Grupo_1704" data-name="Grupo 1704">
        <circle id="Elipse_612" data-name="Elipse 612" cx="59" cy="59" r="59" transform="translate(-223.767 2882.761)" fill="#57b8e8"/>
        <circle id="Elipse_613" data-name="Elipse 613" cx="53" cy="53" r="53" transform="translate(-217.767 2888.761)" fill="#fff"/>
      </g>
      <g id="Grupo_1725" data-name="Grupo 1725">
        <g id="Grupo_1705" data-name="Grupo 1705">
          <path id="Trazado_8381" data-name="Trazado 8381" d="M-164.112,2920.471h15.44v-2.581a1.679,1.679,0,0,0-1.679-1.679h-12.083a1.678,1.678,0,0,0-1.678,1.679v2.581Z" fill="#9ec8fc"/>
        </g>
        <g id="Grupo_1706" data-name="Grupo 1706">
          <path id="Trazado_8382" data-name="Trazado 8382" d="M-174.719,2961.763h28.567a1.445,1.445,0,0,0,1.445-1.445v-3.045h-31.458v3.045a1.446,1.446,0,0,0,1.446,1.445Z" fill="#a59da7"/>
        </g>
        <g id="Grupo_1707" data-name="Grupo 1707">
          <path id="Trazado_8383" data-name="Trazado 8383" d="M-137.243,2920.471h-38.922v36.8h42.48a3.245,3.245,0,0,0,3.245-3.245v-26.754A6.8,6.8,0,0,0-137.243,2920.471Z" fill="#fdfcfc"/>
        </g>
        <g id="Grupo_1708" data-name="Grupo 1708">
          <path id="Trazado_8384" data-name="Trazado 8384" d="M-137.243,2920.471h-38.922v36.8h42.48a3.245,3.245,0,0,0,3.245-3.245v-26.754A6.8,6.8,0,0,0-137.243,2920.471Z" fill="#fdfcfc"/>
        </g>
        <g id="Grupo_1709" data-name="Grupo 1709">
          <path id="Trazado_8385" data-name="Trazado 8385" d="M-171.529,2920.471h-4.636v36.8h4.636Z" fill="#eee"/>
        </g>
        <g id="Grupo_1710" data-name="Grupo 1710">
          <path id="Trazado_8386" data-name="Trazado 8386" d="M-194.369,2934.583l6.147-11.577a5.407,5.407,0,0,1,4.58-2.535h7.477v36.8h-25.652a4.715,4.715,0,0,1-4.715-4.715v-5.476a4.5,4.5,0,0,1,1.318-3.183l8.876-6.963a7.384,7.384,0,0,0,1.969-2.353Z" fill="#fdfcfc"/>
        </g>
        <g id="Grupo_1711" data-name="Grupo 1711">
          <path id="Trazado_8387" data-name="Trazado 8387" d="M-205.214,2943.9l8.876-6.963a7.384,7.384,0,0,0,1.969-2.353l6.147-11.577a5.407,5.407,0,0,1,4.58-2.535h4.636a5.405,5.405,0,0,0-4.58,2.535l-6.147,11.577a7.4,7.4,0,0,1-1.969,2.353l-8.876,6.963a4.5,4.5,0,0,0-1.318,3.183v5.476a4.715,4.715,0,0,0,4.714,4.715h-4.635a4.715,4.715,0,0,1-4.715-4.715v-5.476A4.5,4.5,0,0,1-205.214,2943.9Z" fill="#eee"/>
        </g>
        <g id="Grupo_1712" data-name="Grupo 1712">
          <path id="Trazado_8388" data-name="Trazado 8388" d="M-196.622,2937.159l.285-.223a7.394,7.394,0,0,0,1.968-2.353l6.147-11.577a5.407,5.407,0,0,1,4.58-2.535h7.477v16.688Z" fill="#ddebfd"/>
        </g>
        <g id="Grupo_1713" data-name="Grupo 1713">
          <path id="Trazado_8389" data-name="Trazado 8389" d="M-196.337,2936.936a7.394,7.394,0,0,0,1.968-2.353l6.147-11.577a5.407,5.407,0,0,1,4.58-2.535h4.636a5.407,5.407,0,0,0-4.58,2.535l-6.147,11.577a7.4,7.4,0,0,1-1.969,2.353l-.284.223h-4.636Z" fill="#bed9fd"/>
        </g>
        <g id="Grupo_1714" data-name="Grupo 1714">
          <path id="Trazado_8390" data-name="Trazado 8390" d="M-141.107,2925.979h10.542a6.825,6.825,0,0,1,.125,1.295v9.885h-10.667a1.863,1.863,0,0,1-1.863-1.863v-7.454a1.863,1.863,0,0,1,1.863-1.863Z" fill="#ddebfd"/>
        </g>
        <g id="Grupo_1715" data-name="Grupo 1715">
          <path id="Trazado_8391" data-name="Trazado 8391" d="M-168.569,2937.159h18.026a1.863,1.863,0,0,0,1.863-1.863v-7.454a1.863,1.863,0,0,0-1.863-1.863h-18.026a1.863,1.863,0,0,0-1.863,1.863v7.454A1.863,1.863,0,0,0-168.569,2937.159Z" fill="#ddebfd"/>
        </g>
        <g id="Grupo_1716" data-name="Grupo 1716">
          <path id="Trazado_8392" data-name="Trazado 8392" d="M-141.107,2925.979h4.636a1.863,1.863,0,0,0-1.863,1.863v7.454a1.863,1.863,0,0,0,1.863,1.863h-4.636a1.863,1.863,0,0,1-1.863-1.863v-7.454a1.863,1.863,0,0,1,1.863-1.863Z" fill="#bed9fd"/>
        </g>
        <g id="Grupo_1717" data-name="Grupo 1717">
          <path id="Trazado_8393" data-name="Trazado 8393" d="M-168.569,2925.979h4.636a1.863,1.863,0,0,0-1.863,1.863v7.454a1.863,1.863,0,0,0,1.863,1.863h-4.636a1.863,1.863,0,0,1-1.863-1.863v-7.454a1.863,1.863,0,0,1,1.863-1.863Z" fill="#bed9fd"/>
        </g>
        <g id="Grupo_1718" data-name="Grupo 1718">
          <circle id="Elipse_614" data-name="Elipse 614" cx="7.195" cy="7.195" r="7.195" transform="translate(-197.901 2951.227)" fill="#b5adb7"/>
        </g>
        <g id="Grupo_1719" data-name="Grupo 1719">
          <circle id="Elipse_615" data-name="Elipse 615" cx="2.396" cy="2.396" r="2.396" transform="translate(-193.102 2956.026)" fill="#777078"/>
        </g>
        <g id="Grupo_1720" data-name="Grupo 1720">
          <circle id="Elipse_616" data-name="Elipse 616" cx="7.195" cy="7.195" r="7.195" transform="translate(-148.75 2951.223)" fill="#b5adb7"/>
        </g>
        <g id="Grupo_1721" data-name="Grupo 1721">
          <circle id="Elipse_617" data-name="Elipse 617" cx="2.396" cy="2.396" r="2.396" transform="translate(-143.951 2956.022)" fill="#777078"/>
        </g>
        <g id="Grupo_1722" data-name="Grupo 1722">
          <path id="Trazado_8394" data-name="Trazado 8394" d="M-178.411,2920.471h5.955v-2.827a2.978,2.978,0,0,0-2.978-2.978,2.977,2.977,0,0,0-2.977,2.978Z" fill="#df646e"/>
        </g>
        <g id="Grupo_1723" data-name="Grupo 1723">
          <path id="Trazado_8395" data-name="Trazado 8395" d="M-161.445,2951.68h5.769a1.027,1.027,0,0,0,1.026-1.026v-5.769a1.027,1.027,0,0,0-1.026-1.026h-5.769a1.027,1.027,0,0,0-1.026,1.026v5.769A1.027,1.027,0,0,0-161.445,2951.68Z" fill="#9ec8fc"/>
        </g>
        <g id="Grupo_1724" data-name="Grupo 1724">
          <path id="Trazado_8396" data-name="Trazado 8396" d="M-206.033,2943.08a1.021,1.021,0,0,1,.1-.092l8.876-6.964a6.208,6.208,0,0,0,1.661-1.984l6.147-11.577c.013-.025.027-.049.041-.073a6.529,6.529,0,0,1,5.562-3.078h4.072v-1.668a4.142,4.142,0,0,1,4.137-4.137,4.142,4.142,0,0,1,4.136,4.137v1.668h6.026v-1.422a2.841,2.841,0,0,1,2.837-2.838h3.585a1.159,1.159,0,0,1,1.159,1.159,1.159,1.159,0,0,1-1.159,1.159h-3.585a.521.521,0,0,0-.519.52v1.422h13.122v-1.422a.521.521,0,0,0-.52-.52h-3.862a1.159,1.159,0,0,1-1.159-1.159,1.159,1.159,0,0,1,1.159-1.159h3.862a2.841,2.841,0,0,1,2.838,2.838v1.422h10.27a7.971,7.971,0,0,1,7.962,7.962v12.948a1.159,1.159,0,0,1-1.159,1.159,1.159,1.159,0,0,1-1.159-1.159v-1.9h-9.508a3.026,3.026,0,0,1-3.022-3.022v-7.454a3.026,3.026,0,0,1,3.022-3.022h8.946a5.652,5.652,0,0,0-5.082-3.19h-37.763v30.731a1.159,1.159,0,0,1-1.159,1.159,1.159,1.159,0,0,1-1.159-1.159v-14.043h-18.9l-8.218,6.447a3.322,3.322,0,0,0-.933,2.317v5.476a3.56,3.56,0,0,0,3.556,3.556h3.068a8.367,8.367,0,0,1,8.026-6.041,8.367,8.367,0,0,1,8.026,6.041h33.109a8.366,8.366,0,0,1,8.026-6.041,8.369,8.369,0,0,1,8.024,6.033,2.086,2.086,0,0,0,1.939-2.078v-9.17a1.159,1.159,0,0,1,1.159-1.159,1.159,1.159,0,0,1,1.159,1.159v9.17a4.41,4.41,0,0,1-3.928,4.377v.022a8.363,8.363,0,0,1-8.354,8.354,8.353,8.353,0,0,1-7.037-3.859h-26.12a2.608,2.608,0,0,1-2.605-2.6v-1.886h-5.045a8.364,8.364,0,0,1-8.354,8.35,8.364,8.364,0,0,1-8.354-8.35h-2.741a5.88,5.88,0,0,1-5.873-5.874v-5.476a5.622,5.622,0,0,1,1.658-4Zm64.926-15.942a.705.705,0,0,0-.7.7v7.454a.705.705,0,0,0,.7.7h9.508v-8.726c0-.045,0-.09,0-.136Zm-32.508-7.826v-1.668a1.821,1.821,0,0,0-1.819-1.819,1.821,1.821,0,0,0-1.818,1.819v1.668h3.637Zm-3.708,2.318h-6.319a4.224,4.224,0,0,0-3.577,1.958l-6.126,11.539a8.5,8.5,0,0,1-.535.873h16.557Zm35.761,42.834a6.043,6.043,0,0,0,6.036-6.037,6.043,6.043,0,0,0-6.036-6.036,6.043,6.043,0,0,0-6.037,6.036A6.044,6.044,0,0,0-141.562,2964.464Zm-33.444-4.146a.287.287,0,0,0,.287.286h25.092a8.329,8.329,0,0,1-.29-2.173h-25.089v1.887Zm-15.717,4.146a6.043,6.043,0,0,0,6.036-6.037,6.043,6.043,0,0,0-6.036-6.036,6.043,6.043,0,0,0-6.036,6.036A6.042,6.042,0,0,0-190.723,2964.464Z"/>
          <path id="Trazado_8397" data-name="Trazado 8397" d="M-182.01,2942.55a1.159,1.159,0,0,1-1.159-1.159,1.159,1.159,0,0,1,1.159-1.159h1.282a1.159,1.159,0,0,1,1.159,1.159,1.159,1.159,0,0,1-1.159,1.159Z"/>
          <path id="Trazado_8398" data-name="Trazado 8398" d="M-169.69,2940.232h1.282a1.158,1.158,0,0,1,1.158,1.159,1.158,1.158,0,0,1-1.158,1.159h-1.282a1.159,1.159,0,0,1-1.159-1.159A1.159,1.159,0,0,1-169.69,2940.232Z"/>
          <path id="Trazado_8399" data-name="Trazado 8399" d="M-171.591,2927.842a3.026,3.026,0,0,1,3.022-3.022h18.026a3.025,3.025,0,0,1,3.022,3.022v7.454a3.025,3.025,0,0,1-3.022,3.022h-18.026a3.026,3.026,0,0,1-3.022-3.022Zm2.318,7.454a.705.705,0,0,0,.7.7h18.026a.705.705,0,0,0,.7-.7v-7.454a.705.705,0,0,0-.7-.7h-18.026a.705.705,0,0,0-.7.7Z"/>
          <path id="Trazado_8400" data-name="Trazado 8400" d="M-190.723,2954.872a3.559,3.559,0,0,1,3.555,3.555,3.559,3.559,0,0,1-3.555,3.555,3.559,3.559,0,0,1-3.555-3.555A3.559,3.559,0,0,1-190.723,2954.872Zm0,4.792a1.239,1.239,0,0,0,1.237-1.237,1.239,1.239,0,0,0-1.237-1.237,1.239,1.239,0,0,0-1.237,1.237A1.239,1.239,0,0,0-190.723,2959.664Z"/>
          <path id="Trazado_8401" data-name="Trazado 8401" d="M-141.562,2954.872a3.558,3.558,0,0,1,3.554,3.555,3.558,3.558,0,0,1-3.554,3.555,3.559,3.559,0,0,1-3.555-3.555A3.559,3.559,0,0,1-141.562,2954.872Zm0,4.792a1.238,1.238,0,0,0,1.236-1.237,1.238,1.238,0,0,0-1.236-1.237,1.238,1.238,0,0,0-1.237,1.237A1.239,1.239,0,0,0-141.562,2959.664Z"/>
          <path id="Trazado_8402" data-name="Trazado 8402" d="M-155.676,2942.7a2.189,2.189,0,0,1,2.185,2.185v5.769a2.187,2.187,0,0,1-2.185,2.185h-5.769a2.188,2.188,0,0,1-2.185-2.185v-5.769a2.189,2.189,0,0,1,2.185-2.185Zm-5.636,7.821h5.5v-5.5h-5.5Z"/>
        </g>
      </g>
    </g>
  </g>
</svg>
