<svg xmlns="http://www.w3.org/2000/svg" width="118" height="118" viewBox="0 0 118 118">
  <g id="Grupo_1729" data-name="Grupo 1729" transform="translate(-2535.234 51.718)">
    <g id="Grupo_1703" data-name="Grupo 1703" transform="translate(2759 -2781.361)">
      <g id="Grupo_1702" data-name="Grupo 1702">
        <circle id="Elipse_609" data-name="Elipse 609" cx="59" cy="59" r="59" transform="translate(-223.767 2729.643)" fill="#57b8e8"/>
        <circle id="Elipse_610" data-name="Elipse 610" cx="53" cy="53" r="53" transform="translate(-217.767 2735.643)" fill="#fff"/>
      </g>
      <path id="Trazado_8367" data-name="Trazado 8367" d="M-164.767,2753.157a35.484,35.484,0,0,1,35.486,35.486,35.483,35.483,0,0,1-35.486,35.485,35.483,35.483,0,0,1-35.485-35.485A35.484,35.484,0,0,1-164.767,2753.157Zm28.389,35.486a28.414,28.414,0,0,0-1.041-7.618h-.012a28.365,28.365,0,0,0-27.336-20.771,28.363,28.363,0,0,0-27.335,20.771h-.012a28.415,28.415,0,0,0-1.041,7.618,28.141,28.141,0,0,0,.9,7.1,28.439,28.439,0,0,0,20.392,20.392,28.1,28.1,0,0,0,7.1.9,28.1,28.1,0,0,0,7.1-.9,28.439,28.439,0,0,0,20.392-20.392,28.142,28.142,0,0,0,.9-7.1Z" fill="#838f9b"/>
      <path id="Trazado_8368" data-name="Trazado 8368" d="M-172.562,2777.169a17.381,17.381,0,0,0-6.4,13.839,19.26,19.26,0,0,0,.793,5.477,9.828,9.828,0,0,0-3.8-.745h-10.291a28.141,28.141,0,0,1-.9-7.1,28.415,28.415,0,0,1,1.041-7.618h.012A88.376,88.376,0,0,1-172.562,2777.169Z" fill="#ccd1d9"/>
      <path id="Trazado_8369" data-name="Trazado 8369" d="M-137.419,2781.025a28.414,28.414,0,0,1,1.041,7.618,28.142,28.142,0,0,1-.9,7.1h-10.291a9.828,9.828,0,0,0-3.8.745,19.26,19.26,0,0,0,.793-5.477,17.4,17.4,0,0,0-6.4-13.839,88.377,88.377,0,0,1,19.541,3.856Z" fill="#ccd1d9"/>
      <path id="Trazado_8370" data-name="Trazado 8370" d="M-171.864,2816.132v-10.291a9.985,9.985,0,0,0-.769-3.868,10.136,10.136,0,0,0-2.188-3.276,9.951,9.951,0,0,0-3.347-2.212,19.26,19.26,0,0,1-.793-5.477,17.381,17.381,0,0,1,6.4-13.839c2.461-.225,5.075-.355,7.795-.355s5.335.13,7.795.355a17.4,17.4,0,0,1,6.4,13.839,19.26,19.26,0,0,1-.793,5.477.167.167,0,0,0-.071.024,10.136,10.136,0,0,0-3.276,2.188,10.094,10.094,0,0,0-2.957,7.144v10.291a28.1,28.1,0,0,1-7.1.9A28.1,28.1,0,0,1-171.864,2816.132Z" fill="#ccd1d9"/>
      <path id="Trazado_8371" data-name="Trazado 8371" d="M-183.692,2785.094v4.732a1.186,1.186,0,0,1-1.183,1.182h-2.366a1.186,1.186,0,0,1-1.183-1.182v-4.732a1.187,1.187,0,0,1,1.183-1.183h2.366A1.187,1.187,0,0,1-183.692,2785.094Z" fill="#fcd770"/>
      <path id="Trazado_8372" data-name="Trazado 8372" d="M-141.11,2785.094v4.732a1.186,1.186,0,0,1-1.182,1.182h-2.366a1.186,1.186,0,0,1-1.183-1.182v-4.732a1.187,1.187,0,0,1,1.183-1.183h2.366A1.187,1.187,0,0,1-141.11,2785.094Z" fill="#fcd770"/>
      <circle id="Elipse_611" data-name="Elipse 611" cx="7.097" cy="7.097" r="7.097" transform="translate(-171.864 2781.546)" fill="#e6e9ed"/>
      <path id="Trazado_8373" data-name="Trazado 8373" d="M-164.767,2751.974a36.71,36.71,0,0,0-36.668,36.669,36.71,36.71,0,0,0,36.668,36.668,36.71,36.71,0,0,0,36.669-36.668A36.71,36.71,0,0,0-164.767,2751.974Zm0,70.971a34.341,34.341,0,0,1-34.3-34.3,34.341,34.341,0,0,1,34.3-34.3,34.342,34.342,0,0,1,34.3,34.3A34.342,34.342,0,0,1-164.767,2822.945Z" fill="#0b2d4e"/>
      <path id="Trazado_8374" data-name="Trazado 8374" d="M-164.767,2759.072a29.6,29.6,0,0,0-29.571,29.571,29.605,29.605,0,0,0,29.571,29.571,29.605,29.605,0,0,0,29.572-29.571A29.6,29.6,0,0,0-164.767,2759.072Zm26.551,35.485h-9.358a11.3,11.3,0,0,0-2.175.211,20.372,20.372,0,0,0,.359-3.76,19.2,19.2,0,0,0-4.319-12.3,89.393,89.393,0,0,1,15.312,3.238,27.2,27.2,0,0,1,.836,6.7A27.2,27.2,0,0,1-138.216,2794.557Zm-26.551-33.12a27.25,27.25,0,0,1,25.518,17.774,94.455,94.455,0,0,0-25.518-3.58,94.452,94.452,0,0,0-25.517,3.58,27.249,27.249,0,0,1,25.517-17.774Zm-27.205,27.206a27.2,27.2,0,0,1,.836-6.7,89.183,89.183,0,0,1,15.313-3.239,19.2,19.2,0,0,0-4.321,12.3,20.458,20.458,0,0,0,.359,3.76,11.282,11.282,0,0,0-2.175-.211h-9.357A27.2,27.2,0,0,1-191.972,2788.643Zm1.293,8.28h8.72a8.858,8.858,0,0,1,6.3,2.61,8.861,8.861,0,0,1,2.609,6.3v8.72A27.316,27.316,0,0,1-190.679,2796.923Zm20,18.27v-9.358a11.2,11.2,0,0,0-3.3-7.974,11.252,11.252,0,0,0-3.181-2.226,17.894,17.894,0,0,1-.612-4.627,16.244,16.244,0,0,1,5.7-12.7c2.318-.2,4.766-.316,7.308-.316s4.992.121,7.313.316a16.258,16.258,0,0,1,5.7,12.7,17.852,17.852,0,0,1-.613,4.627,11.264,11.264,0,0,0-3.182,2.226,11.206,11.206,0,0,0-3.3,7.974v9.358a27.157,27.157,0,0,1-5.915.655A27.148,27.148,0,0,1-170.681,2815.193Zm14.194-.638v-8.72a8.858,8.858,0,0,1,2.611-6.3,8.857,8.857,0,0,1,6.3-2.61h8.72A27.321,27.321,0,0,1-156.487,2814.555Z" fill="#0b2d4e"/>
      <path id="Trazado_8375" data-name="Trazado 8375" d="M-156.487,2788.643a8.289,8.289,0,0,0-8.28-8.28,8.29,8.29,0,0,0-8.28,8.28,8.291,8.291,0,0,0,8.28,8.28A8.29,8.29,0,0,0-156.487,2788.643Zm-14.194,0a5.922,5.922,0,0,1,5.914-5.915,5.922,5.922,0,0,1,5.915,5.915,5.921,5.921,0,0,1-5.915,5.914A5.921,5.921,0,0,1-170.681,2788.643Z"/>
      <path id="Trazado_8376" data-name="Trazado 8376" d="M-142.292,2782.728h-2.366a2.369,2.369,0,0,0-2.366,2.366v4.732a2.368,2.368,0,0,0,2.366,2.365h2.366a2.368,2.368,0,0,0,2.365-2.365v-4.732A2.369,2.369,0,0,0-142.292,2782.728Zm-2.366,7.1v-4.732h2.366v4.732Z" fill="#0b2d4e"/>
      <path id="Trazado_8377" data-name="Trazado 8377" d="M-184.875,2782.728h-2.366a2.369,2.369,0,0,0-2.365,2.366v4.732a2.368,2.368,0,0,0,2.365,2.365h2.366a2.368,2.368,0,0,0,2.366-2.365v-4.732A2.369,2.369,0,0,0-184.875,2782.728Zm-2.366,7.1v-4.732h2.366v4.732Z" fill="#0b2d4e"/>
      <path id="Trazado_8378" data-name="Trazado 8378" d="M-168.315,2811.117h7.1v2.366h-7.1Z" fill="#0b2d4e"/>
      <path id="Trazado_8379" data-name="Trazado 8379" d="M-168.315,2806.385h7.1v2.366h-7.1Z" fill="#0b2d4e"/>
      <path id="Trazado_8380" data-name="Trazado 8380" d="M-168.315,2801.654h7.1v2.366h-7.1Z" fill="#0b2d4e"/>
    </g>
  </g>
</svg>
