<svg xmlns="http://www.w3.org/2000/svg" xmlns:xlink="http://www.w3.org/1999/xlink" width="444.686" height="220.62" viewBox="0 0 444.686 220.62">
  <defs>
    <linearGradient id="linear-gradient" x1="0.5" x2="0.5" y2="1" gradientUnits="objectBoundingBox">
      <stop offset="0" stop-color="#cfe1fc" stop-opacity="0"/>
      <stop offset="0.014" stop-color="#cfe1fc" stop-opacity="0.039"/>
      <stop offset="0.088" stop-color="#cfe1fc" stop-opacity="0.239"/>
      <stop offset="0.168" stop-color="#cfe1fc" stop-opacity="0.42"/>
      <stop offset="0.251" stop-color="#cfe1fc" stop-opacity="0.576"/>
      <stop offset="0.339" stop-color="#cfe1fc" stop-opacity="0.71"/>
      <stop offset="0.432" stop-color="#cfe1fc" stop-opacity="0.816"/>
      <stop offset="0.534" stop-color="#cfe1fc" stop-opacity="0.898"/>
      <stop offset="0.648" stop-color="#cfe1fc" stop-opacity="0.957"/>
      <stop offset="0.784" stop-color="#cfe1fc" stop-opacity="0.988"/>
      <stop offset="1" stop-color="#cfe1fc"/>
    </linearGradient>
  </defs>
  <g id="Grupo_1693" data-name="Grupo 1693" transform="translate(-4789.707 -3151.034)">
    <path id="Trazado_8244" data-name="Trazado 8244" d="M4859.249,3151.034h413.219V3362.88h-415.61Z" transform="translate(-50.45)" fill="url(#linear-gradient)"/>
    <ellipse id="Elipse_600" data-name="Elipse 600" cx="222.343" cy="8.976" rx="222.343" ry="8.976" transform="translate(4789.707 3353.701)" fill="#b6c8e3"/>
    <g id="Grupo_1570" data-name="Grupo 1570" transform="translate(4953.975 3214.2)">
      <path id="Trazado_8245" data-name="Trazado 8245" d="M5571.033,3449.575l-22.942-8.567a25.848,25.848,0,0,0-43.625-26.7,19.047,19.047,0,0,0-33.786,15.166,25.848,25.848,0,0,0,5.356,51.134c.227,0,.452,0,.677-.009a25.851,25.851,0,0,0,47.734,6.711,19.047,19.047,0,0,0,21.918-28.52Z" transform="translate(-5450.191 -3405.009)" fill="#fff"/>
    </g>
    <g id="Grupo_1629" data-name="Grupo 1629" transform="translate(5073.822 3174.393)">
      <g id="Grupo_1571" data-name="Grupo 1571" transform="translate(88.988 21.991)">
        <path id="Trazado_8246" data-name="Trazado 8246" d="M6291.179,3334.96s.086,2.357-1,2.735,1,2.1,1,2.1a31.168,31.168,0,0,0,2.983-1.24c.1-.163.655-1.7.655-1.7l-.9-2.578-1.155-.9Z" transform="translate(-6289.868 -3333.378)" fill="#fff"/>
      </g>
      <g id="Grupo_1572" data-name="Grupo 1572" transform="translate(104.451 25.214)">
        <path id="Trazado_8247" data-name="Trazado 8247" d="M6382.048,3387.928l-3.7,14.432-9.023,4.554-5.889-5.959-4.358-4.413v-19.877l-7.037-21.1,2.593-9.23,3.492,1.579c13.3,4.062,18.782,4.377,20.725,7.357a5.005,5.005,0,0,1,.672,1.633C6380.606,3361.51,6382.048,3387.928,6382.048,3387.928Z" transform="translate(-6352.042 -3346.338)" fill="#4c88b5"/>
      </g>
      <g id="Grupo_1573" data-name="Grupo 1573" transform="translate(113.463 34.151)">
        <path id="Trazado_8248" data-name="Trazado 8248" d="M6409.271,3414.925v12.889a8.915,8.915,0,0,1-6.427,8.56l-11.471,3.331-.417-6.863-.3-4.891-2.385-8.455s4.521-15.81,5.99-23.556c1.373-7.227,4.773-10.12,11.81-13.67a5.027,5.027,0,0,1,.672,1.633c.882,3.757,2,22.039,2.388,28.638C6409.224,3414.03,6409.271,3414.925,6409.271,3414.925Z" transform="translate(-6388.277 -3382.271)" fill="#4379a1"/>
      </g>
      <g id="Grupo_1574" data-name="Grupo 1574" transform="translate(91.347 24.633)">
        <path id="Trazado_8249" data-name="Trazado 8249" d="M6299.355,3344.575l2.492-.577s1.443,3.565,1.379,3.693a13.649,13.649,0,0,1-3.019-.758A9.139,9.139,0,0,1,6299.355,3344.575Z" transform="translate(-6299.355 -3343.998)" fill="#fff"/>
      </g>
      <g id="Grupo_1575" data-name="Grupo 1575" transform="translate(93.939 27.95)">
        <path id="Trazado_8250" data-name="Trazado 8250" d="M6309.961,3357.336l-.13.122-.056.126.046.115.1-.056c.014-.008.081-.112.094-.126a.45.45,0,0,0,.032-.1Z" transform="translate(-6309.775 -3357.336)" fill="#ec545b"/>
      </g>
      <g id="Grupo_1577" data-name="Grupo 1577" transform="translate(94.125 11.161)">
        <g id="Grupo_1576" data-name="Grupo 1576">
          <path id="Trazado_8251" data-name="Trazado 8251" d="M6319.7,3289.833v5.684s0,0,0,0v9.78a14.356,14.356,0,0,0-2.723-.75,10.468,10.468,0,0,0-6.451.7v-15.419Z" transform="translate(-6310.525 -3289.833)" fill="#ec545b"/>
        </g>
      </g>
      <g id="Grupo_1579" data-name="Grupo 1579" transform="translate(103.305 28.08)">
        <g id="Grupo_1578" data-name="Grupo 1578">
          <path id="Trazado_8252" data-name="Trazado 8252" d="M6363.775,3419.878s-13.214.7-16.227,0l.9-13.381-1.013-48.635c2.447.487,4.719.93,7.1,1.408a26.911,26.911,0,0,1,10.192,4.083l-2.517,19.5v0l-.263,2.052.3,5.71Z" transform="translate(-6347.432 -3357.861)" fill="#fff"/>
        </g>
      </g>
      <g id="Grupo_1581" data-name="Grupo 1581" transform="translate(77.562 28.407)">
        <g id="Grupo_1580" data-name="Grupo 1580">
          <path id="Trazado_8253" data-name="Trazado 8253" d="M6256.93,3393.727c.118,23.9,3.276,26.743,3.276,26.743-3.942,1.237-16,0-16,0-.925-6.648.746-53.812.746-53.812a48.343,48.343,0,0,1,9.609-5.14c3.135-1.351,5.643-2.344,5.643-2.344C6257.7,3362.4,6256.807,3368.4,6256.93,3393.727Z" transform="translate(-6243.928 -3359.174)" fill="#fff"/>
        </g>
      </g>
      <g id="Grupo_1583" data-name="Grupo 1583" transform="translate(94.125 25.673)">
        <g id="Grupo_1582" data-name="Grupo 1582">
          <path id="Trazado_8254" data-name="Trazado 8254" d="M6319.7,3349.136v.938a13.876,13.876,0,0,0-2.872-.824,9.5,9.5,0,0,0-6.3.82v-.982a10.459,10.459,0,0,1,6.451-.7A14.334,14.334,0,0,1,6319.7,3349.136Z" transform="translate(-6310.525 -3348.18)" fill="#ec545b"/>
        </g>
      </g>
      <g id="Grupo_1586" data-name="Grupo 1586" transform="translate(89.87 2.547)">
        <g id="Grupo_1584" data-name="Grupo 1584">
          <path id="Trazado_8255" data-name="Trazado 8255" d="M6296.789,3256.968c-3.349,9.886-4.965,18.349-1.231,20.231s7.337.884,14.027-4.144l3.965-5.871-3.785-7.739-3.867-4.247Z" transform="translate(-6293.414 -3255.198)" fill="#ec545b"/>
        </g>
        <g id="Grupo_1585" data-name="Grupo 1585" transform="translate(11.317 9.339)">
          <path id="Trazado_8256" data-name="Trazado 8256" d="M6339.224,3294.062c1.783-2.291,3.948-1.292,3.9.744s-1.835,4.328-3.351,3.454S6339.224,3294.062,6339.224,3294.062Z" transform="translate(-6338.917 -3292.748)" fill="#ec545b"/>
        </g>
      </g>
      <g id="Grupo_1587" data-name="Grupo 1587" transform="translate(63.959 169.576)">
        <path id="Trazado_8257" data-name="Trazado 8257" d="M6207.75,3929.055a13.747,13.747,0,0,0,3.647-2.271,57.567,57.567,0,0,1,2.025,11.188,1.479,1.479,0,0,1-1.041,1.643l-4.084.793a1.407,1.407,0,0,1-1.474-.881c-.306-.63-.9-.126-1.3-.17-.752-.082-3.7,2.307-11.729,3.865-5.322,1.033-4.635-2.068-4.408-2.8s7.6-3,10.856-6.9c3.1-3.708,2.483-5.232,5.032-4.486A4.153,4.153,0,0,0,6207.75,3929.055Z" transform="translate(-6189.231 -3926.784)" fill="#1f374a"/>
      </g>
      <g id="Grupo_1588" data-name="Grupo 1588" transform="translate(89.69 12.346)">
        <path id="Trazado_8258" data-name="Trazado 8258" d="M6305.329,3305.185c-2.975,2.336-6.842,3.324-9.487,2.739,0,0-.007,0-.011,0a3.655,3.655,0,0,1-2.746-2.016c-.013-.03-.026-.061-.037-.093a3.14,3.14,0,0,1-.177-.627c-.713-3.973.922-10.419.963-10.585a0,0,0,0,0,0,0,13.379,13.379,0,0,0,8.951,2.033c.133.653.3,1.339.479,2.028a.675.675,0,0,0,.019.072C6304.133,3301.944,6305.329,3305.185,6305.329,3305.185Z" transform="translate(-6292.691 -3294.596)" fill="#2f6c99"/>
      </g>
      <g id="Grupo_1589" data-name="Grupo 1589" transform="translate(101.315 17.512)">
        <path id="Trazado_8259" data-name="Trazado 8259" d="M6339.435,3319.859a22.641,22.641,0,0,0,1.882-4.491s.242,4.378-.87,5.421C6339.435,3321.738,6339.435,3319.859,6339.435,3319.859Z" transform="translate(-6339.435 -3315.368)" fill="#2f6c99"/>
      </g>
      <g id="Grupo_1590" data-name="Grupo 1590" transform="translate(71.008 25.434)">
        <path id="Trazado_8260" data-name="Trazado 8260" d="M6245.631,3349.172l-4.848,15.762-9.893,15-.346.248-.289.208-12.679,9.113s2.566-22.985,4.106-28.177c1.014-3.415,2.415-6.9,6.99-9.9a30.665,30.665,0,0,1,7-3.269c.251-.085.506-.169.768-.253q1.1-.353,2.324-.686l.271,2.148Z" transform="translate(-6217.577 -3347.222)" fill="#fff"/>
      </g>
      <g id="Grupo_1591" data-name="Grupo 1591" transform="translate(88.296 12.346)">
        <path id="Trazado_8261" data-name="Trazado 8261" d="M6291.622,3298.7v9.225a3.943,3.943,0,0,1-4.053-2.773,6.226,6.226,0,0,1-.222-.674v0a7.957,7.957,0,0,1-.223-1.148c-.379-3.1,2.418-8.563,2.5-8.722a0,0,0,0,0,0,0Z" transform="translate(-6287.088 -3294.596)" fill="#2f6c99"/>
      </g>
      <g id="Grupo_1592" data-name="Grupo 1592" transform="translate(89.794 7.333)" opacity="0.66">
        <path id="Trazado_8262" data-name="Trazado 8262" d="M6305.244,3279.822l-1.577-.829a23.342,23.342,0,0,0-8.085-4.553c-2.346,1.553-3.1,6.36-1.925,6.83.925.37,1.007-.671,2.482-.172s1.254,2.846,3.914,2.4c1.118-.189,2.632-.679,3.049-2.009Z" transform="translate(-6293.11 -3274.44)" fill="#fff"/>
      </g>
      <g id="Grupo_1593" data-name="Grupo 1593" transform="translate(88.555 16.162)">
        <path id="Trazado_8263" data-name="Trazado 8263" d="M6302.628,3314.527a19.151,19.151,0,0,1-.555,2.228l-.175-.045c-2.974,2.336-6.842,3.324-9.486,2.739,0,0-.007,0-.011,0a3.943,3.943,0,0,1-4.053-2.773,6.372,6.372,0,0,1-.223-.674v0a3.6,3.6,0,0,0,1.491,1.342,5.215,5.215,0,0,0,2.784.506c.146-.009.3-.025.455-.045,3.537-.454,5.626-7.861,5.626-7.861l1.354.246,1.663.3S6302.757,3313.886,6302.628,3314.527Z" transform="translate(-6288.126 -3309.938)" fill="#2a5f87"/>
      </g>
      <g id="Grupo_1594" data-name="Grupo 1594" transform="translate(89.349 6.841)">
        <path id="Trazado_8264" data-name="Trazado 8264" d="M6298.075,3282.513a2.755,2.755,0,0,1-2.445-1.527,2.145,2.145,0,0,0-.978-.951,1.3,1.3,0,0,0-1.2.061,1.425,1.425,0,0,1-1.3.1c-.313-.125-.707-.475-.8-1.43-.175-1.7.669-4.875,2.648-6.185l.181-.12.206.069a23.813,23.813,0,0,1,8.2,4.609l2.136,1.123-2.583,2.007c-.422,1.126-1.577,1.878-3.354,2.178A4.271,4.271,0,0,1,6298.075,3282.513Zm-4.021-3.484a2.763,2.763,0,0,1,.884.162,2.923,2.923,0,0,1,1.428,1.291,1.917,1.917,0,0,0,2.27,1.089c1.042-.176,2.356-.615,2.7-1.7l.041-.133,1.705-1.325-1.019-.536-.045-.043a23.081,23.081,0,0,0-7.705-4.381,6.81,6.81,0,0,0-2.081,5.228c.052.508.2.673.248.694.234.093.329.047.582-.076A2.1,2.1,0,0,1,6294.054,3279.029Z" transform="translate(-6291.321 -3272.464)" fill="#fff"/>
      </g>
      <g id="Grupo_1595" data-name="Grupo 1595" transform="translate(92.199 0)">
        <path id="Trazado_8265" data-name="Trazado 8265" d="M6320.085,3265.313a30.567,30.567,0,0,0-2.479,2.691c-.043.052-.084.1-.124.153-.849,1.032-1.624,2.068-2.235,2.916-.831,1.153-1.361,1.964-1.361,1.964l-5.279.137-4.092.107-1.1-2.656c5.342-.317,6.747-9.2,5.883-13.162s-5.682-3.645-6.448-5.176c-1.16-9.423,13.263-8.653,17.951-3.9S6324.7,3260.959,6320.085,3265.313Z" transform="translate(-6302.779 -3244.956)" fill="#fff"/>
      </g>
      <g id="Grupo_1598" data-name="Grupo 1598" transform="translate(92.362 10.521)">
        <g id="Grupo_1596" data-name="Grupo 1596">
          <path id="Trazado_8266" data-name="Trazado 8266" d="M6303.983,3287.8c-.065.262-.235.446-.379.41s-.209-.277-.145-.54.235-.446.379-.41S6304.048,3287.54,6303.983,3287.8Z" transform="translate(-6303.434 -3287.258)" fill="#616161"/>
        </g>
        <g id="Grupo_1597" data-name="Grupo 1597" transform="translate(3.756 1.431)">
          <path id="Trazado_8267" data-name="Trazado 8267" d="M6319.087,3293.554c-.065.262-.235.446-.379.41s-.21-.277-.145-.539.235-.446.379-.41S6319.151,3293.292,6319.087,3293.554Z" transform="translate(-6318.538 -3293.01)" fill="#616161"/>
        </g>
      </g>
      <g id="Grupo_1599" data-name="Grupo 1599" transform="translate(95.862 23.201)">
        <path id="Trazado_8268" data-name="Trazado 8268" d="M6345.842,3348.612l-5.591,9.508-4.179.69-4.842.8-9.647,1.592-4.076-13.491,2.164-4.448.921-1.895.629-1.294.362-.743,2.664-.416,2.616-.408.444-.07,1.239-.192a.837.837,0,0,0-.118.2c-.287.743,1.077,1.4,3.178,2.189l0,0c1.308.492,2.905,1.028,4.568,1.666a34.52,34.52,0,0,1,5.735,2.713A12.085,12.085,0,0,1,6345.842,3348.612Z" transform="translate(-6317.506 -3338.243)" fill="#fff"/>
      </g>
      <g id="Grupo_1600" data-name="Grupo 1600" transform="translate(85.602 26.743)">
        <path id="Trazado_8269" data-name="Trazado 8269" d="M6284.584,3354.066l6.5-1.583s3.414,8.007,4.962,7.937,7.133,15.771,7.133,15.771-.437,18.548-.573,19.831-1.921,10.265-1.921,10.265l-2.356,5.646-5.746,2.624-13.63-2.881s-3.3-11.8-2.6-12.7,3.2-26.05,2.6-27.076-2.6-9.752-2.6-9.752Z" transform="translate(-6276.254 -3352.483)" fill="#fff"/>
      </g>
      <g id="Grupo_1601" data-name="Grupo 1601" transform="translate(72.011 71.623)">
        <path id="Trazado_8270" data-name="Trazado 8270" d="M6227.664,3547.114l-6.055,50.643,19.053-.462,12.03-38.7,3.731-17.69-10.779-7.971Z" transform="translate(-6221.608 -3532.936)" fill="#fff"/>
      </g>
      <g id="Grupo_1602" data-name="Grupo 1602" transform="translate(72.011 132.188)">
        <path id="Trazado_8271" data-name="Trazado 8271" d="M6221.609,3780.709l1.28,32.564a3.766,3.766,0,0,0,4.269,3.534l11.77-1.6a1.915,1.915,0,0,0,1.656-1.906l.078-33.051-8.088-3.795Z" transform="translate(-6221.609 -3776.452)" fill="#fff"/>
      </g>
      <g id="Grupo_1603" data-name="Grupo 1603" transform="translate(105.321 145.263)">
        <path id="Trazado_8272" data-name="Trazado 8272" d="M6369.673,3829.024c-.674,17.091-1.408,31.684-1.408,31.684l-9.178-2.88c-1.031-6.811-2.244-15.622-3.547-25.522Z" transform="translate(-6355.54 -3829.024)" fill="#2a2c59"/>
      </g>
      <g id="Grupo_1604" data-name="Grupo 1604" transform="translate(95.774 171.515)">
        <path id="Trazado_8273" data-name="Trazado 8273" d="M6334.858,3937.074a13.753,13.753,0,0,0,3.5-2.5,57.552,57.552,0,0,1,2.729,11.037,1.479,1.479,0,0,1-.935,1.706l-4.025,1.05a1.406,1.406,0,0,1-1.526-.785c-.345-.61-.905-.069-1.306-.088-.756-.034-3.548,2.537-11.461,4.6-5.246,1.368-4.756-1.77-4.577-2.512s7.391-3.47,10.4-7.574c2.854-3.9,1.588-6.954,4.179-6.371C6332.661,3935.828,6334.08,3937.386,6334.858,3937.074Z" transform="translate(-6317.153 -3934.577)" fill="#1f374a"/>
      </g>
      <g id="Grupo_1605" data-name="Grupo 1605" transform="translate(94.801 70.297)">
        <path id="Trazado_8274" data-name="Trazado 8274" d="M6338.924,3551.095v.044l-.9,38.843-19.836,3.769-4.942-45.825,13.18-20.323,12.264,5.415.023,1.7Z" transform="translate(-6313.242 -3527.603)" fill="#fff"/>
      </g>
      <g id="Grupo_1606" data-name="Grupo 1606" transform="translate(99.743 132.676)">
        <path id="Trazado_8275" data-name="Trazado 8275" d="M6333.114,3782.185l3.734,33.465a3.766,3.766,0,0,0,4.43,3.331l11.682-2.153a1.914,1.914,0,0,0,1.565-1.981l-1.574-36.43H6344.8Z" transform="translate(-6333.114 -3778.416)" fill="#fff"/>
      </g>
      <g id="Grupo_1607" data-name="Grupo 1607" transform="translate(117.329 64.368)">
        <path id="Trazado_8276" data-name="Trazado 8276" d="M6420.95,3506.2v12.54a9.692,9.692,0,0,0-.879.7c-2.235,2.021-4.088,4.377-7.107,4.967a21.909,21.909,0,0,0-8.112,3.368,3.359,3.359,0,0,0-.011-1.467c-.261-.8-.973-1.357-1.018-2.259a2.023,2.023,0,0,1,.013-.313c.126-1.066.988-1.431,1.6-2.121,1.224-1.386,1.988-3.572,2.753-5.258,2.268-5,4.714-10,10.138-12.246a4.667,4.667,0,0,1,2.489-.291C6420.9,3505.307,6420.95,3506.2,6420.95,3506.2Z" transform="translate(-6403.822 -3503.764)" fill="#345e7d"/>
      </g>
      <g id="Grupo_1608" data-name="Grupo 1608" transform="translate(99.239 77.409)">
        <path id="Trazado_8277" data-name="Trazado 8277" d="M6352.329,3572.581v.044a11.657,11.657,0,0,1-4.95.182c-2.71-.415-5.485-1.41-8.18-1.4a32.661,32.661,0,0,0-8.113,1.155c1.332-.41,1.62-1.441,2.053-2.31a9.626,9.626,0,0,1,3.06-3.474c2.022-1.531,4.24-2.819,6.238-4.422,3.2-2.574,4.915-5.486,9.278-6.1.132-.018.266-.035.4-.05Z" transform="translate(-6331.085 -3556.202)" fill="#e0e0e0"/>
      </g>
      <g id="Grupo_1609" data-name="Grupo 1609" transform="translate(110.202 33.308)">
        <path id="Trazado_8278" data-name="Trazado 8278" d="M6389.016,3378.881s9.086,10.022,11.55,33.251c.425,4.015-16.148,3.739-16.148,3.739l-9.252-19Z" transform="translate(-6375.165 -3378.881)" fill="#fff"/>
      </g>
      <g id="Grupo_1610" data-name="Grupo 1610" transform="translate(100.589 64.472)">
        <path id="Trazado_8279" data-name="Trazado 8279" d="M6357.795,3504.183s-18.5,21.735-21.281,24.047c0,0,.684,3.157,2.321,4.621,0,0,30.391-10.928,32.666-26.16l-8.463-2.075c-.785-.153-3.345.794-2.815.2Z" transform="translate(-6336.514 -3504.183)" fill="#fff"/>
      </g>
      <g id="Grupo_1611" data-name="Grupo 1611" transform="translate(50.606 54.499)">
        <path id="Trazado_8280" data-name="Trazado 8280" d="M6158.512,3464.084s-20.754,17.93-22.97,20.788a12.434,12.434,0,0,0,3.56,3.914s35.252-8.9,34.057-21.455l-12.111.683c-.8.021-3.093,1.5-2.706.8Z" transform="translate(-6135.542 -3464.084)" fill="#fff"/>
      </g>
      <g id="Grupo_1612" data-name="Grupo 1612" transform="translate(80.227 26.994)">
        <path id="Trazado_8281" data-name="Trazado 8281" d="M6261.734,3353.525c.14-.287-5.017,1.489-5.213,2.617-2.6,8.733-2.548,18.994.454,26.52C6256.333,3367.521,6259.377,3358.3,6261.734,3353.525Z" transform="translate(-6254.645 -3353.494)" fill="#8cb3d1"/>
      </g>
      <g id="Grupo_1613" data-name="Grupo 1613" transform="translate(109.564 27.259)">
        <path id="Trazado_8282" data-name="Trazado 8282" d="M6383.306,3357.273c-.27-1.429-5.735-2.713-5.735-2.713-3.167,4.614-4.757,10.872-4.949,17.307-.227,7.468,1.425,15.176,4.667,20.84a65.755,65.755,0,0,1,.175-21.638A32.542,32.542,0,0,1,6383.306,3357.273Z" transform="translate(-6372.602 -3354.56)" fill="#8cb3d1"/>
      </g>
      <g id="Grupo_1614" data-name="Grupo 1614" transform="translate(90.92 86.785)">
        <path id="Trazado_8283" data-name="Trazado 8283" d="M6298.5,3598.7c-2.3-3.4.5-5.983,2.46-4.242s0,3.006,0,3.006Z" transform="translate(-6297.637 -3593.897)" fill="#275a80"/>
      </g>
      <g id="Grupo_1616" data-name="Grupo 1616" transform="translate(54.095 81.369)">
        <g id="Grupo_1615" data-name="Grupo 1615">
          <path id="Trazado_8284" data-name="Trazado 8284" d="M6223.277,3579.063c-.993,4.994-2.35,9.768-7.738,13.317a13.628,13.628,0,0,1-7.61,2.42c-4.06,0-8.37-1.918-13.016-5.769a10.547,10.547,0,0,1-3.5-4.787,8.661,8.661,0,0,0-3.919-4.675c-2.167-1.424-4.758-.791-7.758-.061-4.309,1.051-9.674,2.36-15.728-2.319-3.917-3.026-9.72-5.666-14.254-4l-.186-.5c5.965-2.2,12.811,2.565,14.768,4.076,5.85,4.52,10.855,3.3,15.274,2.222,3.121-.761,5.815-1.419,8.179.132a9.115,9.115,0,0,1,4.118,4.917,10.1,10.1,0,0,0,3.346,4.58c7.455,6.181,13.994,7.264,19.99,3.315,5.113-3.37,6.487-7.917,7.451-12.695Z" transform="translate(-6149.572 -3572.123)" fill="#305673"/>
        </g>
      </g>
      <g id="Grupo_1618" data-name="Grupo 1618" transform="translate(91.451 82.859)">
        <g id="Grupo_1617" data-name="Grupo 1617">
          <path id="Trazado_8285" data-name="Trazado 8285" d="M6310.509,3588.771l-.014.008h0c-4.56,2.7-6.515,2.675-9.156-.08-1.3-1.356-3.593-5.261,2.168-6.6-1.724-.394-3.153-.919-2.682-1.534,1.052-1.375,6.851-.17,6.851-.17l1.751.605h0l5.474-2.884,2.5,8.14C6314.8,3587.221,6312.414,3588.094,6310.509,3588.771Z" transform="translate(-6299.772 -3578.114)" fill="#2f6c99"/>
        </g>
      </g>
      <g id="Grupo_1619" data-name="Grupo 1619" transform="translate(106.568 76.784)">
        <path id="Trazado_8286" data-name="Trazado 8286" d="M6363.062,3567.9c1.711,1.012,12.172-6.991,12.172-6.991v-3.8l-6.526-3.422s-7.99,3.938-8.144,6.075S6361.836,3565.978,6363.062,3567.9Z" transform="translate(-6360.552 -3553.687)" fill="#fff"/>
      </g>
      <g id="Grupo_1620" data-name="Grupo 1620" transform="translate(90.97 88.164)">
        <path id="Trazado_8287" data-name="Trazado 8287" d="M6297.946,3599.443a1.351,1.351,0,0,0,1.088.429c.7-.046.441,2.993.441,2.993l.136,1.555S6297.315,3602.1,6297.946,3599.443Z" transform="translate(-6297.836 -3599.443)" fill="#2f6c99"/>
      </g>
      <g id="Grupo_1628" data-name="Grupo 1628" transform="translate(0 71.715)">
        <g id="Grupo_1621" data-name="Grupo 1621" transform="translate(40.111 4.371)">
          <path id="Trazado_8288" data-name="Trazado 8288" d="M6112.111,3553.072l-4.246,3.362-14.519-.8,4.694-3.655,8.042-1.1Z" transform="translate(-6093.346 -3550.882)" fill="#2f6c99"/>
        </g>
        <g id="Grupo_1622" data-name="Grupo 1622" transform="translate(0 10.418)">
          <path id="Trazado_8289" data-name="Trazado 8289" d="M5970.4,3576.158l-37.972,1.591c-.186.008-.345-.2-.356-.467h0c-.011-.266.131-.488.316-.5l37.973-1.591Z" transform="translate(-5932.068 -3575.195)" fill="#2f6c99"/>
        </g>
        <g id="Grupo_1623" data-name="Grupo 1623" transform="translate(34.313 7.425)">
          <rect id="Rectángulo_875" data-name="Rectángulo 875" width="21.359" height="4.812" rx="2.406" transform="matrix(0.999, -0.041, 0.041, 0.999, 0, 0.871)" fill="#26455c"/>
        </g>
        <g id="Grupo_1624" data-name="Grupo 1624" transform="translate(2.3 11.29)">
          <rect id="Rectángulo_876" data-name="Rectángulo 876" width="6.288" height="1.645" rx="0.822" transform="translate(0 0.257) rotate(-2.338)" fill="#2f6c99"/>
        </g>
        <g id="Grupo_1625" data-name="Grupo 1625" transform="translate(35.795 7.728)">
          <path id="Trazado_8290" data-name="Trazado 8290" d="M6075.993,3565.425c.081-1.379,1.709-1.111,2.352-.784s2.152-.109,2.5.52-1.238.954-1.238.954l-3.269.339Z" transform="translate(-6075.993 -3564.378)" fill="#233440"/>
        </g>
        <g id="Grupo_1626" data-name="Grupo 1626" transform="translate(39.771 10.159)">
          <path id="Trazado_8291" data-name="Trazado 8291" d="M6091.98,3576.854c2.643,3.5,2.813,2.866,7.835,2.272,3.346-.4,4.87-.894,4.92-2.793s-5.655-2.936-7.828-1.522C6095.617,3575.65,6094.6,3576.747,6091.98,3576.854Z" transform="translate(-6091.98 -3574.154)" fill="#2f6c99"/>
        </g>
        <g id="Grupo_1627" data-name="Grupo 1627" transform="translate(36.438)">
          <path id="Trazado_8292" data-name="Trazado 8292" d="M6095.87,3533.307c-2.451,2.421-4.546,2.862-7.543,2.73s-6.473,1.7-7.745,2.569-2.957,2.516-1.339,3.076c2.4.831,2.831-2.241,6.516-1.508l4.661.179,10.6-.486S6098.648,3533.214,6095.87,3533.307Z" transform="translate(-6078.578 -3533.306)" fill="#2f6c99"/>
        </g>
      </g>
    </g>
    <g id="Grupo_1665" data-name="Grupo 1665" transform="translate(4821.89 3181.077)">
      <g id="Grupo_1630" data-name="Grupo 1630" transform="translate(53.771 23.28)">
        <path id="Trazado_8293" data-name="Trazado 8293" d="M5139.123,3367.182s-.366,2.314.66,2.816-1.236,1.951-1.236,1.951a30.914,30.914,0,0,1-2.794-1.578c-.08-.172-.444-1.754-.444-1.754l1.2-2.435,1.246-.749Z" transform="translate(-5135.308 -3365.433)" fill="#fff"/>
      </g>
      <g id="Grupo_1631" data-name="Grupo 1631" transform="translate(52.169 25.653)">
        <path id="Trazado_8294" data-name="Trazado 8294" d="M5133.054,3375.838l-2.39-.865s-1.846,3.345-1.8,3.479a13.57,13.57,0,0,0,3.067-.39A9.094,9.094,0,0,0,5133.054,3375.838Z" transform="translate(-5128.865 -3374.972)" fill="#fff"/>
      </g>
      <g id="Grupo_1632" data-name="Grupo 1632" transform="translate(53.195 28.891)">
        <path id="Trazado_8295" data-name="Trazado 8295" d="M5133.088,3387.991l.114.136.041.131-.059.108-.1-.068c-.012-.009-.066-.119-.078-.135a.43.43,0,0,1-.02-.1Z" transform="translate(-5132.99 -3387.991)" fill="#ec545b"/>
      </g>
      <g id="Grupo_1634" data-name="Grupo 1634" transform="translate(20.739 27.929)">
        <g id="Grupo_1633" data-name="Grupo 1633">
          <path id="Trazado_8296" data-name="Trazado 8296" d="M5002.5,3443.35s12.949,2.257,16,1.927l.7-13.3,6.775-47.848c-2.471.189-4.764.357-7.17.545a26.741,26.741,0,0,0-10.537,2.816l.167,19.534v0l.016,2.056-.977,5.6Z" transform="translate(-5002.495 -3384.125)" fill="#fff"/>
        </g>
      </g>
      <g id="Grupo_1636" data-name="Grupo 1636" transform="translate(46.239 29.376)">
        <g id="Grupo_1635" data-name="Grupo 1635">
          <path id="Trazado_8297" data-name="Trazado 8297" d="M5111.433,3424.408c-2.956,23.555-6.408,25.987-6.408,25.987,3.742,1.688,15.779,1.9,15.779,1.9,1.7-6.447,5.655-53.162,5.655-53.162a47.988,47.988,0,0,0-8.866-6.21c-2.933-1.7-5.288-2.982-5.288-2.982C5114.392,3393.417,5114.562,3399.439,5111.433,3424.408Z" transform="translate(-5105.025 -3389.94)" fill="#fff"/>
        </g>
      </g>
      <g id="Grupo_1638" data-name="Grupo 1638" transform="translate(44.289 26.061)">
        <g id="Grupo_1637" data-name="Grupo 1637">
          <path id="Trazado_8298" data-name="Trazado 8298" d="M5097.293,3377.051l-.111.926a13.735,13.735,0,0,1,2.931-.472,9.441,9.441,0,0,1,6.118,1.557l.117-.969a10.388,10.388,0,0,0-6.279-1.458A14.226,14.226,0,0,0,5097.293,3377.051Z" transform="translate(-5097.182 -3376.613)" fill="#ec545b"/>
        </g>
      </g>
      <g id="Grupo_1639" data-name="Grupo 1639" transform="translate(43.452 171.338)">
        <path id="Trazado_8299" data-name="Trazado 8299" d="M5098.082,3962.323a13.673,13.673,0,0,1-3.963-1.585,57.224,57.224,0,0,0-.028,11.295,1.469,1.469,0,0,0,1.3,1.425l4.133.063a1.4,1.4,0,0,0,1.287-1.118c.189-.67.857-.281,1.24-.393.721-.211,4.022,1.611,12.145,1.734,5.384.082,4.172-2.831,3.823-3.5s-7.951-1.6-11.821-4.854c-3.674-3.086-3.341-4.684-5.7-3.509A4.133,4.133,0,0,1,5098.082,3962.323Z" transform="translate(-5093.82 -3960.738)" fill="#2f6c99"/>
      </g>
      <g id="Grupo_1640" data-name="Grupo 1640" transform="translate(48.49 26.639)">
        <path id="Trazado_8300" data-name="Trazado 8300" d="M5114.074,3380.044l2.909,16.122,7.976,15.97.312.285.26.24,11.423,10.494s.2-22.975-.7-28.278c-.594-3.488-1.562-7.089-5.718-10.591a30.473,30.473,0,0,0-6.518-4.055c-.238-.114-.479-.227-.727-.341q-1.045-.479-2.211-.953l-.522,2.086Z" transform="translate(-5114.074 -3378.936)" fill="#fff"/>
      </g>
      <g id="Grupo_1656" data-name="Grupo 1656" transform="translate(45.112)">
        <g id="Grupo_1642" data-name="Grupo 1642" transform="translate(2.228 10.365)">
          <g id="Grupo_1641" data-name="Grupo 1641">
            <path id="Trazado_8301" data-name="Trazado 8301" d="M5117.834,3313.5l-3.082,4.731s-.006,0,0,0l-5.3,8.14a14.243,14.243,0,0,1,2.674.853,10.39,10.39,0,0,1,4.989,4.082l8.362-12.834Z" transform="translate(-5109.447 -3313.505)" fill="#ec545b"/>
          </g>
        </g>
        <g id="Grupo_1645" data-name="Grupo 1645" transform="translate(3.205 3.709)">
          <g id="Grupo_1643" data-name="Grupo 1643">
            <path id="Trazado_8302" data-name="Trazado 8302" d="M5132.867,3293.154c-2.573,10.045-5.818,17.964-9.946,17.506s-6.586-3.242-9.428-11.056l-.117-7.036,7.348-4.389,5.521-1.437Z" transform="translate(-5113.376 -3286.741)" fill="#ec545b"/>
          </g>
          <g id="Grupo_1644" data-name="Grupo 1644" transform="translate(3.527 6.794)">
            <path id="Trazado_8303" data-name="Trazado 8303" d="M5131.839,3316.6c-.242-2.874-2.585-3.217-3.646-1.493s-.819,4.6.917,4.692S5131.839,3316.6,5131.839,3316.6Z" transform="translate(-5127.558 -3314.058)" fill="#ec545b"/>
          </g>
        </g>
        <g id="Grupo_1646" data-name="Grupo 1646" transform="translate(5.041 14.95)">
          <path id="Trazado_8304" data-name="Trazado 8304" d="M5120.758,3337.68c1.208,3.558,3.893,6.477,6.411,7.424,0,0,.008,0,.011,0a3.631,3.631,0,0,0,3.379-.189c.027-.018.055-.036.081-.057a3.11,3.11,0,0,0,.487-.427c2.748-2.92,4.883-9.172,4.938-9.332a.016.016,0,0,1,0,0,13.293,13.293,0,0,1-8.554-3.162c-.463.472-.974.953-1.5,1.428-.018.016-.035.034-.054.05C5123.51,3335.631,5120.758,3337.68,5120.758,3337.68Z" transform="translate(-5120.758 -3331.937)" fill="#65c7d0"/>
        </g>
        <g id="Grupo_1647" data-name="Grupo 1647" transform="translate(5.006 15.708)">
          <path id="Trazado_8305" data-name="Trazado 8305" d="M5122,3339.743a22.541,22.541,0,0,1,.869-4.759s-2.576,3.513-2.216,4.984C5120.982,3341.307,5122,3339.743,5122,3339.743Z" transform="translate(-5120.62 -3334.984)" fill="#2f6c99"/>
        </g>
        <g id="Grupo_1648" data-name="Grupo 1648" transform="translate(11.462 18.112)">
          <path id="Trazado_8306" data-name="Trazado 8306" d="M5151.581,3346.98l-5,7.678a3.916,3.916,0,0,0,4.877-.11,6.223,6.223,0,0,0,.551-.44l0,0a7.944,7.944,0,0,0,.808-.834c2-2.373,2.63-8.439,2.648-8.616a.005.005,0,0,1,0,0Z" transform="translate(-5146.578 -3344.651)" fill="#65c7d0"/>
        </g>
        <g id="Grupo_1649" data-name="Grupo 1649" transform="translate(10.915 12.359)" opacity="0.66">
          <path id="Trazado_8307" data-name="Trazado 8307" d="M5144.378,3321.563l1.762.166a23.188,23.188,0,0,1,9.2.594c1.11,2.564-.869,6.975-2.1,6.729-.971-.193-.475-1.1-1.973-1.49s-2.587,1.689-4.558-.127c-.829-.764-1.823-1.992-1.449-3.326Z" transform="translate(-5144.378 -3321.519)" fill="#fff"/>
        </g>
        <g id="Grupo_1650" data-name="Grupo 1650" transform="translate(4.871 15.727)">
          <path id="Trazado_8308" data-name="Trazado 8308" d="M5120.823,3337.815a19.16,19.16,0,0,0-.747,2.155l.169.058c1.209,3.558,3.893,6.477,6.411,7.425,0,0,.008,0,.01,0a3.918,3.918,0,0,0,4.878-.11,6.541,6.541,0,0,0,.551-.44v0a3.573,3.573,0,0,1-1.969.308,5.172,5.172,0,0,1-2.592-1.088c-.117-.087-.234-.183-.354-.284-2.7-2.3-.42-9.594-.42-9.594l-1.26-.53-1.547-.651S5121.064,3337.211,5120.823,3337.815Z" transform="translate(-5120.076 -3335.062)" fill="#59b0b8"/>
        </g>
        <g id="Grupo_1651" data-name="Grupo 1651" transform="translate(10.273 11.898)">
          <path id="Trazado_8309" data-name="Trazado 8309" d="M5145.02,3326.807a2.735,2.735,0,0,0,2.863.055,2.131,2.131,0,0,1,1.33-.262,1.294,1.294,0,0,1,.968.7,1.415,1.415,0,0,0,1.029.793c.328.066.845-.012,1.444-.754,1.064-1.318,2.087-4.42,1.15-6.585l-.086-.2-.208-.054a23.663,23.663,0,0,0-9.329-.613l-2.386-.223,1.062,3.071c-.26,1.166.294,2.418,1.61,3.631A4.231,4.231,0,0,0,5145.02,3326.807Zm5.237-.72a2.754,2.754,0,0,0-.823-.344,2.9,2.9,0,0,0-1.889.3,1.9,1.9,0,0,1-2.479-.324c-.772-.712-1.629-1.789-1.323-2.881l.038-.133-.7-2.028,1.139.107.061-.011a22.925,22.925,0,0,1,8.789.532,6.766,6.766,0,0,1-1.1,5.48c-.319.395-.529.453-.583.442-.245-.049-.3-.139-.443-.379A2.088,2.088,0,0,0,5150.257,3326.087Z" transform="translate(-5141.794 -3319.668)" fill="#fff"/>
        </g>
        <g id="Grupo_1652" data-name="Grupo 1652">
          <path id="Trazado_8310" data-name="Trazado 8310" d="M5100.955,3286.483a30.435,30.435,0,0,1,.6,3.584c.007.066.013.131.021.2.146,1.319.23,2.6.279,3.639.066,1.41.069,2.373.069,2.373l-1.437,7.957,9.1-2.672,2.358-1.612c-4.273-3.161-.626-11.318,2.241-14.146s6.706.048,8.173-.811c6.075-7.214-6.346-14.393-12.823-12.984S5099.471,3280.354,5100.955,3286.483Z" transform="translate(-5100.49 -3271.828)" fill="#fff"/>
        </g>
        <g id="Grupo_1655" data-name="Grupo 1655" transform="translate(15.366 14.694)">
          <g id="Grupo_1653" data-name="Grupo 1653" transform="translate(3.903 0.846)">
            <path id="Trazado_8311" data-name="Trazado 8311" d="M5178.012,3334.69c-.088.254-.047.5.094.547s.324-.117.413-.371.046-.5-.094-.547S5178.1,3334.436,5178.012,3334.69Z" transform="translate(-5177.965 -3334.31)" fill="#616161"/>
          </g>
          <g id="Grupo_1654" data-name="Grupo 1654">
            <path id="Trazado_8312" data-name="Trazado 8312" d="M5162.32,3331.286c-.088.254-.046.5.094.547s.325-.118.413-.371.046-.5-.094-.547S5162.408,3331.033,5162.32,3331.286Z" transform="translate(-5162.274 -3330.907)" fill="#616161"/>
          </g>
        </g>
      </g>
      <g id="Grupo_1657" data-name="Grupo 1657" transform="translate(30.683 26.952)">
        <path id="Trazado_8313" data-name="Trazado 8313" d="M5065.231,3382.528l-6.218-2.333s-4.318,7.491-5.836,7.238-8.909,14.708-8.909,14.708-1.772,18.345-1.791,19.627.676,10.353.676,10.353l1.654,5.849,5.354,3.27,13.786-1.222s4.658-11.25,4.068-12.221-.063-26.072.656-27.013,3.718-9.31,3.718-9.31Z" transform="translate(-5042.477 -3380.195)" fill="#fff"/>
      </g>
      <g id="Grupo_1658" data-name="Grupo 1658" transform="translate(34.633 71.737)">
        <path id="Trazado_8314" data-name="Trazado 8314" d="M5085.986,3576.383l-.043,50.668-18.737-2.719-7.269-39.6-1.578-17.89,11.578-6.581Z" transform="translate(-5058.359 -3560.264)" fill="#fff"/>
      </g>
      <g id="Grupo_1659" data-name="Grupo 1659" transform="translate(39.617 133.023)">
        <path id="Trazado_8315" data-name="Trazado 8315" d="M5101,3812.182l-5.13,31.965a3.741,3.741,0,0,1-4.63,2.979l-11.417-2.979a1.9,1.9,0,0,1-1.407-2.077l3.849-32.606,8.428-2.782Z" transform="translate(-5078.397 -3806.681)" fill="#fff"/>
      </g>
      <g id="Grupo_1660" data-name="Grupo 1660" transform="translate(0 156.833)">
        <path id="Trazado_8316" data-name="Trazado 8316" d="M4930.807,3902.65c-1.276-1.168-5.084,2.472-5.084,2.472a57.171,57.171,0,0,0-6.391,9.313,1.469,1.469,0,0,0,.274,1.913l3.378,2.381a1.4,1.4,0,0,0,1.693-.2c.534-.447.866.251,1.245.374.715.232,2.415,3.6,9.055,8.278,4.4,3.1,5.042.013,5.133-.739s-5.663-5.807-7.028-10.674c-1.295-4.62.95-7.021-1.663-7.383C4930.579,3908.272,4931.42,3903.212,4930.807,3902.65Z" transform="translate(-4919.107 -3902.419)" fill="#2f6c99"/>
      </g>
      <g id="Grupo_1661" data-name="Grupo 1661" transform="translate(15.749 69.013)">
        <path id="Trazado_8317" data-name="Trazado 8317" d="M4982.429,3609.458l19.115,6.073,10.318-44.609-2.479-5.064-8.1-16.546-7.348,2.239-5.391,1.642-.228,1.671-1.426,10.662-.729,5.469,0,.042Z" transform="translate(-4982.429 -3549.312)" fill="#fff"/>
      </g>
      <g id="Grupo_1662" data-name="Grupo 1662" transform="translate(3.395 124.802)">
        <path id="Trazado_8318" data-name="Trazado 8318" d="M4964.228,3784.056l-15.152,29.823a3.741,3.741,0,0,1-5.283,1.552l-10.113-6.079a1.9,1.9,0,0,1-.764-2.389l14.178-33.334,7.581,2.845Z" transform="translate(-4932.757 -3773.629)" fill="#fff"/>
      </g>
      <path id="Trazado_8319" data-name="Trazado 8319" d="M5000.352,3567.555a202.619,202.619,0,0,1,21.959.6l-6.921-9.894-4.838-2.947-3.156-1.731-5.391,1.643-1.554-3.209Z" transform="translate(-4980.146 -3482.329)" fill="#f5f5f5"/>
      <g id="Grupo_1663" data-name="Grupo 1663" transform="translate(7.763 30.621)">
        <path id="Trazado_8320" data-name="Trazado 8320" d="M4965.7,3394.949s-10.152,8.806-15.34,31.422c-.9,3.909,15.482,5.605,15.482,5.605l11.382-17.644Z" transform="translate(-4950.321 -3394.949)" fill="#fff"/>
      </g>
      <g id="Grupo_1664" data-name="Grupo 1664" transform="translate(54.816 57.517)">
        <path id="Trazado_8321" data-name="Trazado 8321" d="M5155.1,3503.089s18.339,20.148,20.185,23.23a12.356,12.356,0,0,1-3.977,3.437s-34.322-9.462-31.651-21.7l12.475-1.39c.786.115,2.873,1.845,2.573,1.11Z" transform="translate(-5139.511 -3503.089)" fill="#fff"/>
      </g>
      <path id="Trazado_8322" data-name="Trazado 8322" d="M5019.859,3345.164c-1.482,6.631-20.592,3.042-28.114,18.609l5.1,10.358,17.52-2.544,8.179-5.259,1.849-8.645.315-8.281Z" transform="translate(-4973.679 -3326.925)" fill="#fff"/>
    </g>
    <g id="Grupo_1683" data-name="Grupo 1683" transform="translate(4866.311 3253.932)">
      <g id="Grupo_1666" data-name="Grupo 1666" transform="translate(10.133 36.053)">
        <path id="Rectángulo_877" data-name="Rectángulo 877" d="M12.76,0H206.951a12.76,12.76,0,0,1,12.76,12.76v0a0,0,0,0,1,0,0H0a0,0,0,0,1,0,0v0A12.76,12.76,0,0,1,12.76,0Z" transform="translate(219.712 12.76) rotate(180)" fill="#ebebeb"/>
      </g>
      <g id="Grupo_1667" data-name="Grupo 1667" transform="translate(118.562 34.625)">
        <path id="Trazado_8323" data-name="Trazado 8323" d="M5574.831,3759.582l.03.03c.023.021.047.043.071.063l.008.005.02.016.021.016.013.009,0,0a.12.12,0,0,0,.032.023.491.491,0,0,0,.043.03c.025.016.05.032.074.045a.066.066,0,0,0,.024.012.2.2,0,0,0,.046.025l0,0c.032.016.065.03.1.044a1.435,1.435,0,0,0,.532.1.948.948,0,0,0,.127-.007h.016a.829.829,0,0,0,.119-.018h.006a.026.026,0,0,0,.011,0,.958.958,0,0,0,.1-.023l.018-.005c.044-.012.087-.029.13-.044.023-.011.048-.02.071-.032l.011-.006a.976.976,0,0,0,.09-.046.253.253,0,0,0,.033-.02l.018-.011a.687.687,0,0,0,.075-.052.768.768,0,0,0,.079-.059c.032-.025.063-.054.093-.082a.194.194,0,0,0,.016-.018s.006,0,.006-.006l40.725-41.406,9.119-9.272,2.444-2.486a1.414,1.414,0,0,0,.407-.951v0a.306.306,0,0,0,0-.046,1.427,1.427,0,0,0-2.445-1l-.985,1-12.549,12.759-37.742,38.376-1.018,1.035A1.428,1.428,0,0,0,5574.831,3759.582Z" transform="translate(-5574.422 -3703.982)" fill="#bdbdbd"/>
      </g>
      <g id="Grupo_1668" data-name="Grupo 1668" transform="translate(170.856 34.778)">
        <path id="Trazado_8324" data-name="Trazado 8324" d="M5784.685,3706.025v64.78a1.427,1.427,0,1,0,2.855,0v-64.78c0-.034,0-.068,0-.1v0a.364.364,0,0,1,0-.046,1.429,1.429,0,0,0-2.841,0A1.3,1.3,0,0,0,5784.685,3706.025Z" transform="translate(-5784.685 -3704.598)" fill="#bdbdbd"/>
      </g>
      <g id="Grupo_1669" data-name="Grupo 1669" transform="translate(66.268 34.626)">
        <path id="Trazado_8325" data-name="Trazado 8325" d="M5364.161,3705.415a.364.364,0,0,0,0,.061,1.417,1.417,0,0,0,.405.94l2.447,2.488,9.117,9.271,40.73,41.412.03.031c.023.021.046.042.072.062l.007.005.02.016.021.016.012.009,0,0a.116.116,0,0,0,.033.023c.014.011.028.021.042.03a.872.872,0,0,0,.075.045.06.06,0,0,0,.023.012.2.2,0,0,0,.046.025s0,0,0,0c.032.016.064.03.1.044a1.435,1.435,0,0,0,.532.1.983.983,0,0,0,.126-.007h.016a.872.872,0,0,0,.12-.018h0a.031.031,0,0,0,.012,0,.958.958,0,0,0,.1-.023l.018-.005c.045-.012.087-.029.13-.044.023-.011.048-.02.071-.032l.011-.006c.03-.014.061-.029.089-.046a.254.254,0,0,0,.034-.02l.018-.011a.7.7,0,0,0,.075-.052.787.787,0,0,0,.079-.059c.032-.025.063-.054.093-.082l.016-.018s.005,0,.005-.005a1.424,1.424,0,0,0-.005-1.995l-1.019-1.035-37.741-38.376-12.549-12.759-.985-1a1.427,1.427,0,0,0-2.445,1Z" transform="translate(-5364.161 -3703.987)" fill="#bdbdbd"/>
      </g>
      <g id="Grupo_1670" data-name="Grupo 1670" transform="translate(66.268 34.778)">
        <path id="Trazado_8326" data-name="Trazado 8326" d="M5364.161,3706.025v64.78a1.428,1.428,0,0,0,2.855,0v-64.78a1.428,1.428,0,0,0-2.848-.152c0,.02,0,.042,0,.061S5364.161,3706,5364.161,3706.025Z" transform="translate(-5364.161 -3704.598)" fill="#bdbdbd"/>
      </g>
      <g id="Grupo_1671" data-name="Grupo 1671" transform="translate(57.77 87.696)">
        <path id="Trazado_8327" data-name="Trazado 8327" d="M5331.776,3920.939h120.87a1.785,1.785,0,0,0,0-3.569h-120.87a1.785,1.785,0,0,0,0,3.569Z" transform="translate(-5329.992 -3917.37)" fill="#a1a1a1"/>
      </g>
      <g id="Grupo_1672" data-name="Grupo 1672" transform="translate(66.268 36.054)">
        <path id="Trazado_8328" data-name="Trazado 8328" d="M5731.911,3722.487h4.006l9.119-9.272v9.272h2.855V3709.88c0-.034,0-.068,0-.1v0a.384.384,0,0,0,0-.046h-3.43Z" transform="translate(-5640.449 -3709.728)" fill="#a1a1a1"/>
        <path id="Trazado_8329" data-name="Trazado 8329" d="M5364.165,3709.789c0,.03,0,.061,0,.091v12.608h2.855v-9.271l9.117,9.271h4.006l-12.549-12.759h-3.43A.364.364,0,0,0,5364.165,3709.789Z" transform="translate(-5364.161 -3709.728)" fill="#a1a1a1"/>
      </g>
      <g id="Grupo_1675" data-name="Grupo 1675" transform="translate(166.707 96.639)">
        <g id="Grupo_1673" data-name="Grupo 1673">
          <circle id="Elipse_601" data-name="Elipse 601" cx="5.576" cy="5.576" r="5.576" fill="#595959"/>
        </g>
        <g id="Grupo_1674" data-name="Grupo 1674" transform="translate(2.939 2.939)">
          <circle id="Elipse_602" data-name="Elipse 602" cx="2.637" cy="2.637" r="2.637" fill="gray"/>
        </g>
      </g>
      <g id="Grupo_1678" data-name="Grupo 1678" transform="translate(62.12 96.639)">
        <g id="Grupo_1676" data-name="Grupo 1676">
          <circle id="Elipse_603" data-name="Elipse 603" cx="5.576" cy="5.576" r="5.576" fill="#595959"/>
        </g>
        <g id="Grupo_1677" data-name="Grupo 1677" transform="translate(2.939 2.939)">
          <circle id="Elipse_604" data-name="Elipse 604" cx="2.637" cy="2.637" r="2.637" fill="gray"/>
        </g>
      </g>
      <g id="Grupo_1679" data-name="Grupo 1679" transform="translate(55.662 21.531)">
        <path id="Trazado_8330" data-name="Trazado 8330" d="M5330.915,3651.334l-9.4,14.487h180.165v-3.18a11.306,11.306,0,0,0-11.307-11.307Z" transform="translate(-5321.519 -3651.334)" fill="#65c7d0"/>
      </g>
      <path id="Trazado_8331" data-name="Trazado 8331" d="M5958.719,3651.4c1.8,1.422,2.207,3.6,3.332,5.448,1.172,1.928,2.984,2.093,5.02,2.71,1.092.332,2.188.428,2.656,1.543.707,1.683-.9,3.311-2.389,3.977-3.977,1.776-8-.082-11.788-1.2-2.821-.834-4.659-1.237-3.762-4.594.546-2.043,2.938-3.5,4.437-4.984C5957.1,3653.422,5958.219,3651.9,5958.719,3651.4Z" transform="translate(-5739.2 -3629.851)" fill="#59b0b8"/>
      <g id="Grupo_1680" data-name="Grupo 1680" transform="translate(3.612)">
        <path id="Trazado_8332" data-name="Trazado 8332" d="M5113.552,3571.4l-1.315,2.9,55.454,25.192,5.992-13.189-45.159-20.516A11.308,11.308,0,0,0,5113.552,3571.4Z" transform="translate(-5112.237 -3564.764)" fill="#65c7d0"/>
      </g>
      <g id="Grupo_1681" data-name="Grupo 1681" transform="translate(0 7.842)">
        <path id="Trazado_8333" data-name="Trazado 8333" d="M5100.125,3603.843l43.139,15.985,10.315,4.332.747.31.079.035,6.846,2.873a3.9,3.9,0,0,0,1.521.305h172.6a2.061,2.061,0,0,0,2.059-2.06v-3.735a2.061,2.061,0,0,0-2.059-2.06H5163.563l-4.424-1.852-1.22-.513-54.63-20.812-.128-.053a3.927,3.927,0,1,0-3.036,7.244Z" transform="translate(-5097.713 -3596.295)" fill="#c9c9c9"/>
      </g>
      <g id="Grupo_1682" data-name="Grupo 1682" transform="translate(0.224 31.378)">
        <path id="Trazado_8334" data-name="Trazado 8334" d="M5102.541,3698.778h60.908a3.926,3.926,0,1,0,0-7.852h-60.908a3.926,3.926,0,0,0,0,7.852Z" transform="translate(-5098.615 -3690.926)" fill="#c9c9c9"/>
      </g>
    </g>
    <path id="Trazado_8335" data-name="Trazado 8335" d="M5204.565,3573.934c-.014,3.663-.606,6.81,3.58,8.194,3.241,1.072,4.265-1.176,7.468.014,4.6,1.71,4.8,3.089,11.823,5.32,2.606.828,7.344,1.555,10.012,2.436,3.375,1.114,6.624,8.951,8.209,4.964,1.632-4.1-2.716-6.176-5.692-7.99-2.516-1.533-4.7-3.47-7.329-4.84-3.386-1.762-7.014-2.98-10.393-4.748-4.493-2.351-8.933-5.333-14.228-4.786C5207.043,3572.6,5201.846,3572.433,5204.565,3573.934Z" transform="translate(-311.094 -316.594)" fill="#59b0b8"/>
    <path id="Trazado_8336" data-name="Trazado 8336" d="M5320.767,3634.567c-1.789-.382-5.6-2.873-7.253-3.913-1.836-1.152-2.855-1.575-3.6-3.365-.834-2-1.921-3.56-.985-5.832,1.844-4.479,9.306-.732,11.067,1.912a7.74,7.74,0,0,1,1.251,4.683,9.721,9.721,0,0,1-1.76,3.291C5319.042,3632.038,5321.216,3634.046,5320.767,3634.567Z" transform="translate(-389.812 -351.861)" fill="#59b0b8"/>
    <g id="Grupo_1684" data-name="Grupo 1684" transform="translate(4938.36 3267.448)">
      <path id="Trazado_8337" data-name="Trazado 8337" d="M5388.835,3641.8a1.428,1.428,0,0,0,1.428-1.428V3631.2a9.25,9.25,0,0,1,9.239-9.24h71.689a9.251,9.251,0,0,1,9.24,9.24v9.168a1.427,1.427,0,1,0,2.854,0V3631.2a12.109,12.109,0,0,0-12.095-12.1H5399.5a12.109,12.109,0,0,0-12.095,12.1v9.168A1.428,1.428,0,0,0,5388.835,3641.8Z" transform="translate(-5387.407 -3619.107)" fill="#8c8c8c"/>
    </g>
    <path id="Trazado_8338" data-name="Trazado 8338" d="M5436.277,3690.919c1.538,1.9,4.04,3.005,6.174,4.124,2.356,1.233,4.177,2.63,6.112,3.73h15.3a58.977,58.977,0,0,1,6.209-2.245,119.616,119.616,0,0,0,14-4.475c-1.525-.265-4.2-.2-5.453-1.134Z" transform="translate(-485.762 -405.611)" fill="#b3b3b3"/>
    <g id="Grupo_1692" data-name="Grupo 1692" transform="translate(4829.563 3240.555)">
      <g id="Grupo_1685" data-name="Grupo 1685" transform="translate(0)">
        <path id="Trazado_8339" data-name="Trazado 8339" d="M4963.993,3510.977s17.2,22.542,19.836,24.982c0,0-.845,3.1-2.547,4.461,0,0-34.906-16.735-31.018-27.68l8.5-1.611c.787-.11,3.275.965,2.782.343Z" transform="translate(-4949.961 -3510.977)" fill="#fff"/>
      </g>
      <g id="Grupo_1690" data-name="Grupo 1690" transform="translate(25.317 19.05)">
        <g id="Grupo_1686" data-name="Grupo 1686" transform="translate(13.959 4.617)">
          <path id="Trazado_8340" data-name="Trazado 8340" d="M5111.046,3610.96c2.458-3.254-.18-5.962-2.216-4.339s-.16,2.982-.16,2.982Z" transform="translate(-5107.881 -3606.137)" fill="#275a80"/>
        </g>
        <g id="Grupo_1688" data-name="Grupo 1688">
          <g id="Grupo_1687" data-name="Grupo 1687">
            <path id="Trazado_8341" data-name="Trazado 8341" d="M5058.454,3598.377l.014.008h0c4.381,2.919,6.321,3,9.088.406,1.361-1.277,3.843-5.029-1.8-6.664,1.73-.3,2.714-1.342,2.28-1.977-.972-1.419-6.326.066-6.326.066l-1.769.508h0l-5.277-3.151-2.909,7.942C5054.283,3596.613,5056.6,3597.6,5058.454,3598.377Z" transform="translate(-5051.754 -3587.573)" fill="#2f6c99"/>
          </g>
        </g>
        <g id="Grupo_1689" data-name="Grupo 1689" transform="translate(16.087 6.083)">
          <path id="Trazado_8342" data-name="Trazado 8342" d="M5118.354,3612.032a1.344,1.344,0,0,1-1.1.368c-.69-.083-.6,2.945-.6,2.945l-.217,1.535S5118.84,3614.7,5118.354,3612.032Z" transform="translate(-5116.438 -3612.032)" fill="#2f6c99"/>
        </g>
      </g>
      <g id="Grupo_1691" data-name="Grupo 1691" transform="translate(13.612 12.592)">
        <path id="Trazado_8343" data-name="Trazado 8343" d="M5016.4,3576.007c-1.751.913-11.7-7.58-11.7-7.58l.2-3.772,6.655-3.049s7.717,4.33,7.757,6.458S5017.716,3574.164,5016.4,3576.007Z" transform="translate(-5004.693 -3561.607)" fill="#fff"/>
      </g>
    </g>
  </g>
</svg>
