<svg xmlns="http://www.w3.org/2000/svg" xmlns:xlink="http://www.w3.org/1999/xlink" width="1093" height="434.977" viewBox="0 0 1093 434.977">
  <defs>
    <linearGradient id="linear-gradient" x1="0.5" x2="0.5" y2="1" gradientUnits="objectBoundingBox">
      <stop offset="0" stop-color="#cfe1fc" stop-opacity="0"/>
      <stop offset="1" stop-color="#cfe1fc"/>
    </linearGradient>
  </defs>
  <g id="Grupo_1686" data-name="Grupo 1686" transform="translate(-4451.059 -497.938)">
    <path id="Trazado_8244" data-name="Trazado 8244" d="M4774.8,772.207h749.722v303.722H4585Z" transform="translate(-76.3 -156.244)" fill="url(#linear-gradient)"/>
    <path id="Trazado_8245" data-name="Trazado 8245" d="M5691.523,632.371a14.515,14.515,0,0,0-13.635,9.536h-33.51a87.056,87.056,0,0,0-4.7-23.786l18.626-7.563a12.906,12.906,0,1,0-3.328-8.2l-18.63,7.565a87.516,87.516,0,0,0-14.017-21.247l23.7-23.7a14.51,14.51,0,1,0-7.033-7.034l-23.7,23.7a87.572,87.572,0,0,0-20.143-13.5l7.822-18.519a12.9,12.9,0,1,0-8.15-3.443L5587,564.7a87.066,87.066,0,0,0-24.938-5.108v-33.51a14.51,14.51,0,1,0-9.947,0v33.51a87.061,87.061,0,0,0-23.786,4.7l-7.563-18.626a12.9,12.9,0,1,0-8.2,3.329l7.564,18.629a87.534,87.534,0,0,0-21.247,14.016l-23.7-23.7a14.51,14.51,0,1,0-7.034,7.034l23.7,23.7a87.587,87.587,0,0,0-13.5,20.143L5459.839,601a12.905,12.905,0,1,0-3.442,8.15l18.515,7.821a87.026,87.026,0,0,0-5.108,24.938h-33.51a14.51,14.51,0,1,0,0,9.947h33.51a87.072,87.072,0,0,0,4.7,23.786l-18.626,7.563a12.9,12.9,0,1,0,3.329,8.2l18.629-7.565a87.535,87.535,0,0,0,14.017,21.248l-23.7,23.7a14.51,14.51,0,1,0,7.034,7.034l23.7-23.7a87.548,87.548,0,0,0,20.143,13.5l-7.822,18.519a12.906,12.906,0,1,0,8.149,3.443l7.821-18.515a87.055,87.055,0,0,0,24.938,5.109v33.51a14.51,14.51,0,1,0,9.947,0v-33.51a87.087,87.087,0,0,0,23.786-4.7l7.563,18.626a12.905,12.905,0,1,0,8.2-3.329l-7.564-18.629a87.555,87.555,0,0,0,21.247-14.016l23.7,23.7a14.509,14.509,0,1,0,7.033-7.034l-23.7-23.7a87.556,87.556,0,0,0,13.5-20.143l18.519,7.822a12.905,12.905,0,1,0,3.442-8.15l-18.515-7.821a87.076,87.076,0,0,0,5.109-24.938h33.51a14.511,14.511,0,1,0,13.635-19.483Z" transform="translate(-545.23)" fill="#b4c8e7"/>
    <path id="Trazado_8246" data-name="Trazado 8246" d="M6719.965,882.5a9.506,9.506,0,0,0-10.894.245l-18.262-12.171a57.009,57.009,0,0,0,6.077-14.671l12.9,2.643a8.452,8.452,0,1,0,1.163-5.676l-12.9-2.644a57.355,57.355,0,0,0,.079-16.67l21.521-4.307a9.5,9.5,0,1,0-1.279-6.388l-21.521,4.307a57.344,57.344,0,0,0-6.075-14.671l10.989-7.251a8.451,8.451,0,1,0-3.191-4.836l-10.987,7.249a57.016,57.016,0,0,0-11.734-11.842l12.171-18.262a9.5,9.5,0,1,0-5.421-3.613l-12.171,18.262a57.013,57.013,0,0,0-14.671-6.077l2.644-12.9a8.452,8.452,0,1,0-5.676-1.164l-2.644,12.9a57.337,57.337,0,0,0-16.67-.079l-4.307-21.521a9.5,9.5,0,1,0-6.388,1.279l4.307,21.521a57.346,57.346,0,0,0-14.671,6.075l-7.251-10.989a8.452,8.452,0,1,0-4.836,3.191l7.249,10.987a57.03,57.03,0,0,0-11.842,11.735L6577.41,795a9.5,9.5,0,1,0-3.613,5.421l18.262,12.171a57.016,57.016,0,0,0-6.077,14.671l-12.9-2.643a8.452,8.452,0,1,0-1.163,5.676l12.9,2.644a57.335,57.335,0,0,0-.079,16.67l-21.521,4.307a9.5,9.5,0,1,0,1.279,6.388l21.521-4.307a57.381,57.381,0,0,0,6.075,14.671l-10.989,7.251a8.451,8.451,0,1,0,3.191,4.836l10.987-7.249a57.019,57.019,0,0,0,11.735,11.842L6594.849,905.6a9.5,9.5,0,1,0,5.421,3.613l12.171-18.262a57.022,57.022,0,0,0,14.671,6.077l-2.644,12.9a8.452,8.452,0,1,0,5.676,1.164l2.644-12.9a57.354,57.354,0,0,0,16.67.079l4.307,21.521a9.5,9.5,0,1,0,6.388-1.279l-4.307-21.521a57.363,57.363,0,0,0,14.671-6.075l7.25,10.989a8.452,8.452,0,1,0,4.836-3.191l-7.249-10.987A57.01,57.01,0,0,0,6687.2,876l18.262,12.171a9.5,9.5,0,1,0,14.507-5.666Z" transform="translate(-1193.209 -141.171)" fill="#b4c8e7"/>
    <g id="Grupo_1570" data-name="Grupo 1570" transform="translate(5215.686 546.411)">
      <path id="Trazado_8247" data-name="Trazado 8247" d="M6342.667,665.017a5.876,5.876,0,0,0-5.521,3.861h-13.57a35.289,35.289,0,0,0-1.9-9.632l7.542-3.063a5.225,5.225,0,1,0-1.348-3.319l-7.543,3.063a35.466,35.466,0,0,0-5.676-8.6l9.6-9.6a5.875,5.875,0,1,0-2.848-2.848l-9.6,9.6a35.446,35.446,0,0,0-8.156-5.465l3.168-7.5a5.226,5.226,0,1,0-3.3-1.394l-3.167,7.5a35.25,35.25,0,0,0-10.1-2.069V621.978a5.876,5.876,0,1,0-4.028,0v13.569a35.26,35.26,0,0,0-9.632,1.9l-3.062-7.542a5.226,5.226,0,1,0-3.319,1.348l3.063,7.544a35.451,35.451,0,0,0-8.6,5.676l-9.6-9.6a5.875,5.875,0,1,0-2.848,2.848l9.6,9.6a35.485,35.485,0,0,0-5.465,8.157l-7.5-3.168a5.226,5.226,0,1,0-1.395,3.3l7.5,3.167a35.277,35.277,0,0,0-2.068,10.1h-13.569a5.875,5.875,0,1,0,0,4.028h13.569a35.265,35.265,0,0,0,1.9,9.631l-7.542,3.063a5.226,5.226,0,1,0,1.348,3.32l7.544-3.063a35.437,35.437,0,0,0,5.675,8.6l-9.6,9.6a5.876,5.876,0,1,0,2.848,2.848l9.6-9.6a35.467,35.467,0,0,0,8.156,5.465l-3.167,7.5a5.225,5.225,0,1,0,3.3,1.394l3.167-7.5a35.255,35.255,0,0,0,10.1,2.069v13.569a5.876,5.876,0,1,0,4.028,0V706.239a35.264,35.264,0,0,0,9.632-1.9l3.063,7.542a5.226,5.226,0,1,0,3.319-1.348l-3.063-7.544a35.43,35.43,0,0,0,8.6-5.676l9.6,9.6a5.875,5.875,0,1,0,2.848-2.848l-9.6-9.6a35.494,35.494,0,0,0,5.465-8.157l7.5,3.168a5.226,5.226,0,1,0,1.394-3.3l-7.5-3.167a35.243,35.243,0,0,0,2.069-10.1h13.57a5.876,5.876,0,1,0,5.521-7.89Z" transform="translate(-6227.919 -610.581)" fill="#2559a1"/>
      <circle id="Elipse_600" data-name="Elipse 600" cx="7.568" cy="7.568" r="7.568" transform="translate(50.148 39.267)" fill="#2a66b9"/>
      <circle id="Elipse_601" data-name="Elipse 601" cx="9.73" cy="9.73" r="9.73" transform="translate(61.356 73.647) rotate(-45)" fill="#2a66b9"/>
      <circle id="Elipse_602" data-name="Elipse 602" cx="4.757" cy="4.757" r="4.757" transform="translate(35.013 54.403)" fill="#2a66b9"/>
    </g>
    <ellipse id="Elipse_603" data-name="Elipse 603" cx="513.555" cy="12.492" rx="513.555" ry="12.492" transform="translate(4451.502 905.053)" fill="#b6c8e3"/>
    <g id="Grupo_1598" data-name="Grupo 1598" transform="translate(5052.932 672.635)">
      <g id="Grupo_1571" data-name="Grupo 1571" transform="translate(83.3 36.316)">
        <path id="Trazado_8248" data-name="Trazado 8248" d="M6049.517,991.344s-1.974,2.594-1.049,3.886-2.8,1.575-2.8,1.575a43.034,43.034,0,0,1-2.383-3.777c.016-.264.613-2.443.613-2.443l3.072-2.195,2.02-.1Z" transform="translate(-6043.283 -988.295)" fill="#fff"/>
      </g>
      <g id="Grupo_1572" data-name="Grupo 1572" transform="translate(80.19 37.742)">
        <path id="Trazado_8249" data-name="Trazado 8249" d="M6042.913,994.245l-2.356-2.638s-4.47,2.881-4.5,3.077a18.909,18.909,0,0,0,4.016,1.546C6040.56,996.277,6042.913,994.245,6042.913,994.245Z" transform="translate(-6036.057 -991.608)" fill="#fff"/>
      </g>
      <g id="Grupo_1573" data-name="Grupo 1573" transform="translate(81.516 41.264)">
        <path id="Trazado_8250" data-name="Trazado 8250" d="M6039.347,999.792l.05.242-.037.187-.143.094s-.064-.127-.073-.147,0-.19-.007-.216a.616.616,0,0,1,.045-.141Z" transform="translate(-6039.137 -999.792)" fill="#ec545b"/>
      </g>
      <g id="Grupo_1575" data-name="Grupo 1575" transform="translate(32.873 42.008)">
        <g id="Grupo_1574" data-name="Grupo 1574">
          <path id="Trazado_8251" data-name="Trazado 8251" d="M5951.1,1043.18c-19.163,26.912-25,27.614-25,27.614,3.47,4.537,39.962,5.858,39.962,5.858,6.341-6.777,20.126-54.528,20.126-54.528-1.139-3.836-4.137-9.182-6.767-13.461-2.468-4.024-4.511-7.143-4.511-7.143C5975.174,1007.158,5971.408,1014.651,5951.1,1043.18Z" transform="translate(-5926.1 -1001.521)" fill="#fff"/>
        </g>
      </g>
      <g id="Grupo_1576" data-name="Grupo 1576" transform="translate(70.679 37.306)">
        <path id="Trazado_8252" data-name="Trazado 8252" d="M6013.954,991.232l1.354,23.92,8.4,24.407.385.46.32.386,14.086,16.9s4.092-33.48,3.723-41.341c-.244-5.171-.988-10.558-6.166-16.246a41.4,41.4,0,0,0-8.358-6.826c-.311-.2-.627-.4-.952-.6q-1.368-.844-2.905-1.7l-1.07,2.969Z" transform="translate(-6013.954 -990.595)" fill="#fff"/>
      </g>
      <g id="Grupo_1590" data-name="Grupo 1590" transform="translate(70.356 0)">
        <g id="Grupo_1578" data-name="Grupo 1578" transform="translate(5.126 14.611)">
          <g id="Grupo_1577" data-name="Grupo 1577">
            <path id="Trazado_8253" data-name="Trazado 8253" d="M6039.538,937.857l-5.3,5.8s-.009,0,0,0l-9.119,9.982a19.84,19.84,0,0,1,3.479,1.774,14.463,14.463,0,0,1,5.93,6.732l14.379-15.739Z" transform="translate(-6025.115 -937.857)" fill="#ec545b"/>
          </g>
        </g>
        <g id="Grupo_1581" data-name="Grupo 1581" transform="translate(8.133 6.702)">
          <g id="Grupo_1579" data-name="Grupo 1579">
            <path id="Trazado_8254" data-name="Trazado 8254" d="M6060.164,929.776c-5.8,13.214-12.042,23.358-17.608,21.8s-8.313-5.938-10.454-17.31l1.427-9.689,11.081-4.37,7.907-.729Z" transform="translate(-6032.102 -919.476)" fill="#ecaf99"/>
          </g>
          <g id="Grupo_1580" data-name="Grupo 1580" transform="translate(5.211 7.713)">
            <path id="Trazado_8255" data-name="Trazado 8255" d="M6050.359,941.363c.316-4-2.824-5-4.67-2.873s-2.162,6.129.2,6.65S6050.359,941.363,6050.359,941.363Z" transform="translate(-6044.211 -937.399)" fill="#ec545b"/>
          </g>
        </g>
        <g id="Grupo_1582" data-name="Grupo 1582" transform="translate(9.564 21.173)">
          <path id="Trazado_8256" data-name="Trazado 8256" d="M6035.428,959.467c.858,5.158,3.884,9.773,7.129,11.642,0,0,.01,0,.014.006a5.053,5.053,0,0,0,4.683.5c.041-.019.084-.037.125-.06a4.339,4.339,0,0,0,.765-.475c4.432-3.39,8.774-11.494,8.887-11.7a.011.011,0,0,1,0-.006A18.5,18.5,0,0,1,6046,953.1c-.743.543-1.552,1.089-2.38,1.623-.027.019-.056.039-.085.056C6039.67,957.275,6035.428,959.467,6035.428,959.467Z" transform="translate(-6035.428 -953.105)" fill="#65c7d0"/>
        </g>
        <g id="Grupo_1583" data-name="Grupo 1583" transform="translate(9.561 21.19)">
          <path id="Trazado_8257" data-name="Trazado 8257" d="M6037.325,959.484a31.3,31.3,0,0,1,2.267-6.34s-4.331,4.243-4.167,6.345C6035.572,961.4,6037.325,959.484,6037.325,959.484Z" transform="translate(-6035.42 -953.144)" fill="#2f6c99"/>
        </g>
        <g id="Grupo_1584" data-name="Grupo 1584" transform="translate(16.708 27.445)">
          <path id="Trazado_8258" data-name="Trazado 8258" d="M6060.63,970l-8.6,9.416a5.451,5.451,0,0,0,6.723.948,8.721,8.721,0,0,0,.855-.48l0,0a11.038,11.038,0,0,0,1.3-.964c3.275-2.808,5.517-11,5.581-11.234a.014.014,0,0,1,0-.006Z" transform="translate(-6052.028 -967.68)" fill="#65c7d0"/>
        </g>
        <g id="Grupo_1585" data-name="Grupo 1585" transform="translate(9.344 21.553)">
          <path id="Trazado_8259" data-name="Trazado 8259" d="M6036.429,957.062a26.691,26.691,0,0,0-1.512,2.791l.22.117c.858,5.158,3.885,9.773,7.129,11.642,0,0,.01,0,.014.006a5.451,5.451,0,0,0,6.723.948,8.721,8.721,0,0,0,.855-.48l0,0a4.973,4.973,0,0,1-2.774-.022,7.2,7.2,0,0,1-3.313-2.079c-.141-.145-.28-.3-.423-.469-3.187-3.763,1.588-13.271,1.588-13.271l-1.612-1.012-1.978-1.243S6036.9,956.288,6036.429,957.062Z" transform="translate(-6034.917 -953.988)" fill="#59b0b8"/>
        </g>
        <g id="Grupo_1586" data-name="Grupo 1586">
          <path id="Trazado_8260" data-name="Trazado 8260" d="M6017.844,922.115a42.508,42.508,0,0,1,.021,5.058c0,.093-.012.184-.016.273-.1,1.844-.27,3.624-.438,5.06-.227,1.952-.441,3.274-.441,3.274l-3.768,10.6,13.105-1.615,3.6-1.682c-5.156-5.3,1.693-15.684,6.268-18.92s9.2,1.578,11.408.73c9.971-8.536-3.884-18.116-14.682-20.724C6023.938,902.006,6017.188,913.363,6017.844,922.115Z" transform="translate(-6013.202 -903.903)" fill="#fff"/>
        </g>
        <g id="Grupo_1589" data-name="Grupo 1589" transform="translate(24.943 21.716)">
          <g id="Grupo_1587" data-name="Grupo 1587" transform="translate(5.168 2.043)">
            <path id="Trazado_8261" data-name="Trazado 8261" d="M6083.309,959.556c-.178.328-.176.674.005.772s.473-.088.65-.416.176-.674-.006-.772S6083.487,959.228,6083.309,959.556Z" transform="translate(-6083.177 -959.114)" fill="#616161"/>
          </g>
          <g id="Grupo_1588" data-name="Grupo 1588">
            <path id="Trazado_8262" data-name="Trazado 8262" d="M6071.3,954.809c-.178.328-.175.674.005.772s.473-.088.65-.416.176-.674,0-.772S6071.477,954.481,6071.3,954.809Z" transform="translate(-6071.167 -954.366)" fill="#616161"/>
          </g>
        </g>
      </g>
      <g id="Grupo_1591" data-name="Grupo 1591" transform="translate(20.034 34.881)">
        <path id="Trazado_8263" data-name="Trazado 8263" d="M5957.873,991.921l-6.08-6.961s-10.234,6.331-11.929,5.018-20.62,12.144-20.62,12.144-14.277,21.31-15.145,22.868-6,13.132-6,13.132l-1.833,8.258,4.4,7.54,17.7,7.6s13.131-10.712,13.049-12.29,17.125-31.99,18.627-32.667,10.7-8.955,10.7-8.955Z" transform="translate(-5896.263 -984.96)" fill="#fff"/>
      </g>
      <path id="Trazado_8264" data-name="Trazado 8264" d="M5976.78,957.98c-5.518,12.525-19.776,4.36-28.885,17.3s-6.452,27.77-6.452,27.77l19.191,4.82,16.61-10.2,4.708-11.219,1.455-8.126.176-16.084Z" transform="translate(-5901.762 -934.709)" fill="#fff"/>
      <g id="Grupo_1596" data-name="Grupo 1596" transform="translate(27.79 83.507)">
        <g id="Grupo_1592" data-name="Grupo 1592" transform="translate(16.241 25.996)">
          <path id="Trazado_8265" data-name="Trazado 8265" d="M5992.618,1160.992l18.607,68.016-26.147,3.254-24.341-50.464-8.709-23.429,20.646,9.306Z" transform="translate(-5952.027 -1158.369)" fill="#fcfcfc"/>
        </g>
        <path id="Trazado_8266" data-name="Trazado 8266" d="M6068.382,1437.9h0a5.114,5.114,0,0,0-.458-1.795c-.42-.925-9.131-1.96-13.658-6.35-4.3-4.168-3.336-13.839-5.994-12.125-.854.551-1.524-.981-2.469-1.117-1.964-.283-5.292,1.429-5.292,1.429s-.335,6.052-.291,12.42h0v.019q0,.439.009.879c-.068,7.222-3.656,14.007,10.5,10.94C6061.8,1439.8,6068.948,1443.817,6068.382,1437.9Z" transform="translate(-5985.774 -1279.412)" fill="#357aad"/>
        <path id="Trazado_8267" data-name="Trazado 8267" d="M5950.107,1436.858h0a5.132,5.132,0,0,0-.286-1.83c-.331-.961-8.905-2.815-13-7.613-3.885-4.556-2.012-14.093-4.82-12.637-.9.468-1.424-1.121-2.352-1.346-1.929-.467-5.4.922-5.4.922s-.906,5.993-1.465,12.338h0l0,.019c-.025.291-.05.583-.074.876-.75,7.184-4.964,13.6,9.423,11.885C5943.371,1438.133,5950.111,1442.8,5950.107,1436.858Z" transform="translate(-5918.429 -1277.621)" fill="#2f6c99"/>
        <g id="Grupo_1593" data-name="Grupo 1593" transform="translate(49.09 91.269)">
          <path id="Trazado_8268" data-name="Trazado 8268" d="M6054.712,1315.418l-.235,45.055a5.207,5.207,0,0,1-5.732,5.085l-16.338-1.661a2.648,2.648,0,0,1-2.378-2.556l-1.665-45.664,11-5.624Z" transform="translate(-6028.363 -1310.052)" fill="#fcfcfc"/>
        </g>
        <g id="Grupo_1594" data-name="Grupo 1594">
          <path id="Trazado_8269" data-name="Trazado 8269" d="M5914.984,1184.031l27.368,5.491,7.482-63.281-4.2-6.628-13.73-21.655-9.824,4.215-7.208,3.093-.061,2.347-.35,14.966-.176,7.677v.06Z" transform="translate(-5914.286 -1097.958)" fill="#fff"/>
        </g>
        <g id="Grupo_1595" data-name="Grupo 1595" transform="translate(1.583 65.686)">
          <path id="Trazado_8270" data-name="Trazado 8270" d="M5955.308,1261.917l-5.536,27.131-4.558,22.364-2.787,13.655a5.2,5.2,0,0,1-5.868,4.927l-16.287-2.1a2.652,2.652,0,0,1-2.307-2.62l.067-7.418.4-43.529.135-15.113,12.363-8.617Z" transform="translate(-5917.966 -1250.6)" fill="#fff"/>
        </g>
        <path id="Trazado_8271" data-name="Trazado 8271" d="M5948.155,1311.3c-.812-4.072-.81-5.019-3.11-9.011-6.132-10.666-17.85-9.4-26.522-3.026l-.4,43.529c9.2,1.1,20.3,1.784,26.055-5,.4-.467.775-.953,1.125-1.445Z" transform="translate(-5916.472 -1209.85)" fill="#e8e8e8"/>
      </g>
      <path id="Trazado_8272" data-name="Trazado 8272" d="M5851.591,1128.89a281.937,281.937,0,0,1,30.5-2.03l-10.877-12.809-7.086-3.454-4.6-1.989-7.256,2.977-2.571-4.245Z" transform="translate(-5849.708 -1019.796)" fill="#f5f5f5"/>
      <g id="Grupo_1597" data-name="Grupo 1597" transform="translate(73.431 85.353)">
        <path id="Trazado_8273" data-name="Trazado 8273" d="M6077.681,1123.783a27.615,27.615,0,0,0-4.988,3.838s-19.308,2.559-34.506.24h-.006c-1.507-.228-2.972-.5-4.374-.837-7.018-1.661-12.456-4.705-13.458-10.032l15.229-8.556c1.071-.277,4.681.806,3.9.025l-2.036-6.212s19.9,10.216,31.837,16.705c2.509,1.359,4.668,2.559,6.212,3.463C6076.512,1123.014,6077.269,1123.482,6077.681,1123.783Z" transform="translate(-6020.349 -1102.249)" fill="#fff"/>
      </g>
      <path id="Trazado_8274" data-name="Trazado 8274" d="M6077.832,1162.357c-7.344,1.076-25.846,2.454-27.353-8.451a10.62,10.62,0,0,1,.055-3.654,5.144,5.144,0,0,1,.363-1.113c.591-1.285-.311,2.214,1.547,2.251,4.281.086,9.752-4.145,13.935-5.221,6.655-1.716,13.169-3.715,19.99-5.1,2.51,1.359,4.669,2.559,6.212,3.463l.191-.037c1.322-.258,2.664-.51,4.017-.745C6102.1,1154.521,6086.363,1161.115,6077.832,1162.357Z" transform="translate(-5964.009 -1039.01)" fill="#ededed"/>
      <path id="Trazado_8275" data-name="Trazado 8275" d="M6012.553,1087.7s-9.264-2.779-12.185-24.626,12.668-18.01,12.668-18.01l9.39,11.33,8.526,20.322-5.405,9.122Z" transform="translate(-5935.328 -984.169)" fill="#fff"/>
    </g>
    <g id="Grupo_1634" data-name="Grupo 1634" transform="translate(5307.745 664.81)">
      <g id="Grupo_1599" data-name="Grupo 1599" transform="translate(44.646 32.4)">
        <path id="Trazado_8276" data-name="Trazado 8276" d="M6546.89,963.444s.508,3.221-.918,3.919,1.72,2.715,1.72,2.715a43.047,43.047,0,0,0,3.89-2.2c.11-.24.618-2.442.618-2.442l-1.664-3.389-1.734-1.042Z" transform="translate(-6545.6 -961.01)" fill="#fff"/>
      </g>
      <g id="Grupo_1600" data-name="Grupo 1600" transform="translate(47.645 35.701)">
        <path id="Trazado_8277" data-name="Trazado 8277" d="M6552.569,969.887l3.326-1.2s2.57,4.655,2.5,4.842a18.865,18.865,0,0,1-4.269-.543C6553.678,972.792,6552.569,969.887,6552.569,969.887Z" transform="translate(-6552.569 -968.683)" fill="#fff"/>
      </g>
      <g id="Grupo_1601" data-name="Grupo 1601" transform="translate(51.696 40.207)">
        <path id="Trazado_8278" data-name="Trazado 8278" d="M6562.2,979.154l-.159.189-.056.182.082.151s.117-.081.134-.094.092-.167.108-.188a.612.612,0,0,0,.027-.146Z" transform="translate(-6561.983 -979.154)" fill="#ec545b"/>
      </g>
      <g id="Grupo_1603" data-name="Grupo 1603" transform="translate(64.532 38.869)">
        <g id="Grupo_1602" data-name="Grupo 1602">
          <path id="Trazado_8279" data-name="Trazado 8279" d="M6624.495,1058.469s-18.022,3.141-22.272,2.682l-.981-18.516-9.429-66.59c3.439.264,6.63.5,9.978.759a37.21,37.21,0,0,1,14.665,3.92l-.232,27.185v.006l-.021,2.861,1.358,7.788Z" transform="translate(-6591.812 -976.045)" fill="#fff"/>
        </g>
      </g>
      <g id="Grupo_1605" data-name="Grupo 1605" transform="translate(31.897 40.882)">
        <g id="Grupo_1604" data-name="Grupo 1604">
          <path id="Trazado_8280" data-name="Trazado 8280" d="M6536.885,1028.692c4.113,32.781,8.917,36.165,8.917,36.165-5.207,2.35-21.959,2.645-21.959,2.645-2.369-8.973-7.871-73.986-7.871-73.986,2.821-2.838,8-6.123,12.339-8.644,4.081-2.372,7.358-4.15,7.358-4.15C6532.766,985.561,6532.529,993.942,6536.885,1028.692Z" transform="translate(-6515.972 -980.722)" fill="#fff"/>
        </g>
      </g>
      <g id="Grupo_1607" data-name="Grupo 1607" transform="translate(51.685 36.269)">
        <g id="Grupo_1606" data-name="Grupo 1606">
          <path id="Trazado_8281" data-name="Trazado 8281" d="M6574.559,970.611l.155,1.288a19.167,19.167,0,0,0-4.08-.657,13.139,13.139,0,0,0-8.514,2.167l-.163-1.348a14.464,14.464,0,0,1,8.739-2.029A19.812,19.812,0,0,1,6574.559,970.611Z" transform="translate(-6561.957 -970.003)" fill="#ec545b"/>
        </g>
      </g>
      <g id="Grupo_1608" data-name="Grupo 1608" transform="translate(31.415 238.452)">
        <path id="Trazado_8282" data-name="Trazado 8282" d="M6543.111,1442.046a19.016,19.016,0,0,0,5.515-2.2,79.6,79.6,0,0,1,.041,15.719,2.046,2.046,0,0,1-1.816,1.984l-5.751.087a1.944,1.944,0,0,1-1.792-1.556c-.263-.932-1.193-.391-1.725-.547-1-.295-5.6,2.241-16.9,2.413-7.493.114-5.806-3.94-5.321-4.877s11.065-2.232,16.452-6.756c5.114-4.3,4.65-6.518,7.938-4.884A5.747,5.747,0,0,0,6543.111,1442.046Z" transform="translate(-6514.853 -1439.841)" fill="#2f6c99"/>
      </g>
      <g id="Grupo_1609" data-name="Grupo 1609" transform="translate(26.728 37.073)">
        <path id="Trazado_8283" data-name="Trazado 8283" d="M6535.828,973.413l-4.048,22.436-11.1,22.226-.434.4-.361.334-15.9,14.6s-.277-31.974.979-39.355c.828-4.855,2.174-9.866,7.958-14.74a42.382,42.382,0,0,1,9.071-5.644c.331-.159.667-.316,1.013-.475q1.453-.666,3.077-1.326l.727,2.9Z" transform="translate(-6503.962 -971.871)" fill="#fff"/>
      </g>
      <g id="Grupo_1625" data-name="Grupo 1625" transform="translate(30.585)">
        <g id="Grupo_1611" data-name="Grupo 1611" transform="translate(7.31 14.426)">
          <g id="Grupo_1610" data-name="Grupo 1610">
            <path id="Trazado_8284" data-name="Trazado 8284" d="M6540.539,919.242l4.29,6.584s.009,0,0,.005l7.381,11.328a19.827,19.827,0,0,0-3.721,1.187,14.464,14.464,0,0,0-6.943,5.681l-11.637-17.862Z" transform="translate(-6529.912 -919.242)" fill="#ec545b"/>
          </g>
        </g>
        <g id="Grupo_1614" data-name="Grupo 1614" transform="translate(1.124 5.162)">
          <g id="Grupo_1612" data-name="Grupo 1612">
            <path id="Trazado_8285" data-name="Trazado 8285" d="M6515.538,906.638c3.581,13.979,8.1,25,13.842,24.364s9.167-4.512,13.122-15.386l.163-9.792-10.226-6.109-7.685-2Z" transform="translate(-6515.538 -897.714)" fill="#ec545b"/>
          </g>
          <g id="Grupo_1613" data-name="Grupo 1613" transform="translate(16.259 9.455)">
            <path id="Trazado_8286" data-name="Trazado 8286" d="M6553.321,923.221c.337-4,3.6-4.477,5.074-2.078s1.141,6.4-1.275,6.529S6553.321,923.221,6553.321,923.221Z" transform="translate(-6553.321 -919.687)" fill="#ec545b"/>
          </g>
        </g>
        <g id="Grupo_1615" data-name="Grupo 1615" transform="translate(4.391 20.806)">
          <path id="Trazado_8287" data-name="Trazado 8287" d="M6544.434,942.06c-1.682,4.951-5.417,9.014-8.922,10.333,0,0-.011,0-.015,0a5.054,5.054,0,0,1-4.7-.262c-.037-.026-.076-.05-.113-.079a4.321,4.321,0,0,1-.678-.593c-3.824-4.064-6.8-12.765-6.874-12.988a.01.01,0,0,0,0-.005,18.5,18.5,0,0,0,11.9-4.4c.646.656,1.355,1.326,2.086,1.988.024.023.048.047.075.069C6540.6,939.209,6544.434,942.06,6544.434,942.06Z" transform="translate(-6523.129 -934.068)" fill="#65c7d0"/>
        </g>
        <g id="Grupo_1616" data-name="Grupo 1616" transform="translate(22.611 21.86)">
          <path id="Trazado_8288" data-name="Trazado 8288" d="M6566.68,943.141a31.329,31.329,0,0,0-1.209-6.623s3.585,4.889,3.083,6.936C6568.1,945.318,6566.68,943.141,6566.68,943.141Z" transform="translate(-6565.47 -936.518)" fill="#2f6c99"/>
        </g>
        <g id="Grupo_1617" data-name="Grupo 1617" transform="translate(4.391 25.206)">
          <path id="Trazado_8289" data-name="Trazado 8289" d="M6528.535,947.536l6.962,10.686a5.451,5.451,0,0,1-6.788-.154,8.73,8.73,0,0,1-.767-.612l0,0a11.13,11.13,0,0,1-1.125-1.161c-2.777-3.3-3.661-11.745-3.686-11.991a.01.01,0,0,0,0-.005Z" transform="translate(-6523.129 -944.294)" fill="#65c7d0"/>
        </g>
        <g id="Grupo_1618" data-name="Grupo 1618" transform="translate(1.812 17.2)" opacity="0.66">
          <path id="Trazado_8290" data-name="Trazado 8290" d="M6532.845,925.75l-2.452.23a32.27,32.27,0,0,0-12.8.827c-1.545,3.569,1.208,9.707,2.924,9.365,1.351-.27.661-1.537,2.745-2.073s3.6,2.351,6.343-.176c1.153-1.063,2.537-2.773,2.016-4.629Z" transform="translate(-6517.136 -925.688)" fill="#fff"/>
        </g>
        <g id="Grupo_1619" data-name="Grupo 1619" transform="translate(9.202 21.887)">
          <path id="Trazado_8291" data-name="Trazado 8291" d="M6550,940.412a26.851,26.851,0,0,1,1.039,3l-.236.08c-1.683,4.951-5.417,9.014-8.922,10.333,0,0-.011,0-.015,0a5.451,5.451,0,0,1-6.787-.154,8.73,8.73,0,0,1-.767-.612l0,0a4.976,4.976,0,0,0,2.741.429,7.2,7.2,0,0,0,3.606-1.515c.163-.12.326-.253.493-.395,3.755-3.2.584-13.353.584-13.353l1.755-.737,2.153-.906S6549.664,939.572,6550,940.412Z" transform="translate(-6534.309 -936.581)" fill="#59b0b8"/>
        </g>
        <g id="Grupo_1620" data-name="Grupo 1620" transform="translate(1.188 16.559)">
          <path id="Trazado_8292" data-name="Trazado 8292" d="M6528.423,934.134a3.807,3.807,0,0,1-3.984.077,2.968,2.968,0,0,0-1.851-.364,1.8,1.8,0,0,0-1.346.978,1.972,1.972,0,0,1-1.433,1.1c-.457.091-1.176-.017-2.01-1.05-1.482-1.834-2.9-6.152-1.6-9.164l.12-.275.29-.076a32.93,32.93,0,0,1,12.983-.852l3.321-.311-1.477,4.274c.361,1.623-.41,3.366-2.24,5.053A5.955,5.955,0,0,1,6528.423,934.134Zm-7.288-1a3.824,3.824,0,0,1,1.146-.479,4.035,4.035,0,0,1,2.628.419c1.143.472,2.044.846,3.451-.451,1.075-.991,2.266-2.49,1.84-4.009l-.052-.185.976-2.822-1.585.148-.085-.016a31.908,31.908,0,0,0-12.231.74c-.86,2.445.295,6.092,1.535,7.627.443.55.735.631.811.616.341-.068.416-.193.616-.527A2.91,2.91,0,0,1,6521.135,933.133Z" transform="translate(-6515.687 -924.199)" fill="#fff"/>
        </g>
        <g id="Grupo_1621" data-name="Grupo 1621">
          <path id="Trazado_8293" data-name="Trazado 8293" d="M6544.989,906.115a42.249,42.249,0,0,0-.84,4.988c-.011.092-.02.183-.029.272-.2,1.836-.32,3.62-.389,5.064-.092,1.963-.095,3.3-.095,3.3l2,11.073-12.67-3.718-3.282-2.244c5.948-4.4.872-15.751-3.118-19.686s-9.332.066-11.375-1.129c-8.455-10.039,8.832-20.031,17.847-18.07S6547.055,897.585,6544.989,906.115Z" transform="translate(-6512.925 -885.719)" fill="#fff"/>
        </g>
        <g id="Grupo_1624" data-name="Grupo 1624" transform="translate(5.061 20.449)">
          <g id="Grupo_1622" data-name="Grupo 1622" transform="translate(0 1.178)">
            <path id="Trazado_8294" data-name="Trazado 8294" d="M6525.455,936.5c.123.353.064.694-.131.761s-.451-.163-.574-.516-.064-.694.131-.761S6525.332,936.152,6525.455,936.5Z" transform="translate(-6524.686 -935.977)" fill="#616161"/>
          </g>
          <g id="Grupo_1623" data-name="Grupo 1623" transform="translate(5.431)">
            <path id="Trazado_8295" data-name="Trazado 8295" d="M6538.077,933.767c.122.353.063.694-.131.761s-.452-.164-.575-.516-.063-.694.131-.761S6537.954,933.414,6538.077,933.767Z" transform="translate(-6537.308 -933.24)" fill="#616161"/>
          </g>
        </g>
      </g>
      <g id="Grupo_1626" data-name="Grupo 1626" transform="translate(41.745 37.509)">
        <path id="Trazado_8296" data-name="Trazado 8296" d="M6548.822,976.131l8.653-3.247s6.01,10.426,8.123,10.074,12.4,20.469,12.4,20.469,2.467,25.532,2.492,27.315-.94,14.409-.94,14.409l-2.3,8.14-7.452,4.551-19.187-1.7s-6.483-15.657-5.662-17.008.088-36.285-.914-37.594-5.174-12.957-5.174-12.957Z" transform="translate(-6538.859 -972.884)" fill="#fff"/>
      </g>
      <g id="Grupo_1627" data-name="Grupo 1627" transform="translate(39.431 99.836)">
        <path id="Trazado_8297" data-name="Trazado 8297" d="M6533.48,1140.154l.06,70.515,26.076-3.784,10.116-55.107,2.2-24.9-16.113-9.159Z" transform="translate(-6533.48 -1117.722)" fill="#fff"/>
      </g>
      <g id="Grupo_1628" data-name="Grupo 1628" transform="translate(39.491 185.129)">
        <path id="Trazado_8298" data-name="Trazado 8298" d="M6533.62,1323.582l7.14,44.486a5.206,5.206,0,0,0,6.444,4.146l15.89-4.147a2.646,2.646,0,0,0,1.958-2.89L6559.7,1319.8l-11.729-3.872Z" transform="translate(-6533.62 -1315.926)" fill="#fff"/>
      </g>
      <g id="Grupo_1629" data-name="Grupo 1629" transform="translate(96.847 218.266)">
        <path id="Trazado_8299" data-name="Trazado 8299" d="M6679.855,1393.253c1.776-1.625,7.077,3.441,7.077,3.441a79.6,79.6,0,0,1,8.893,12.961,2.045,2.045,0,0,1-.381,2.662l-4.7,3.314a1.945,1.945,0,0,1-2.357-.275c-.742-.622-1.205.35-1.733.521-.995.323-3.361,5.007-12.6,11.521-6.125,4.318-7.017.019-7.144-1.029s7.881-8.081,9.78-14.854c1.8-6.43-1.322-9.772,2.315-10.275C6680.172,1401.078,6679,1394.035,6679.855,1393.253Z" transform="translate(-6666.907 -1392.932)" fill="#2f6c99"/>
      </g>
      <g id="Grupo_1630" data-name="Grupo 1630" transform="translate(63.198 96.045)">
        <path id="Trazado_8300" data-name="Trazado 8300" d="M6629.673,1192.617l-26.6,8.452-14.36-62.083,3.45-7.048,11.279-23.027,10.227,3.115,7.5,2.286.317,2.326,1.984,14.838,1.015,7.611.006.059Z" transform="translate(-6588.71 -1108.912)" fill="#fff"/>
      </g>
      <g id="Grupo_1631" data-name="Grupo 1631" transform="translate(77.557 173.688)">
        <path id="Trazado_8301" data-name="Trazado 8301" d="M6622.078,1303.852l21.087,41.5a5.206,5.206,0,0,0,7.352,2.16l14.075-8.461a2.646,2.646,0,0,0,1.063-3.325l-19.731-46.391-10.551,3.959Z" transform="translate(-6622.078 -1289.341)" fill="#fff"/>
      </g>
      <path id="Trazado_8302" data-name="Trazado 8302" d="M6629.028,1132.715a281.9,281.9,0,0,0-30.561.83l9.633-13.769,6.732-4.1,4.392-2.409,7.5,2.286,2.163-4.466Z" transform="translate(-6531.071 -1014.104)" fill="#f5f5f5"/>
      <g id="Grupo_1632" data-name="Grupo 1632" transform="translate(77.837 42.616)">
        <path id="Trazado_8303" data-name="Trazado 8303" d="M6638.768,984.751s14.129,12.254,21.349,43.731c1.248,5.441-21.547,7.8-21.547,7.8l-15.841-24.554Z" transform="translate(-6622.729 -984.751)" fill="#fff"/>
      </g>
      <g id="Grupo_1633" data-name="Grupo 1633" transform="translate(0 80.046)">
        <path id="Trazado_8304" data-name="Trazado 8304" d="M6469.942,1071.733s-25.523,28.041-28.092,32.33c0,0,2.727,3.624,5.534,4.783,0,0,47.767-13.168,44.051-30.205l-17.362-1.934c-1.093.16-4,2.568-3.582,1.544Z" transform="translate(-6441.85 -1071.733)" fill="#fff"/>
      </g>
      <path id="Trazado_8305" data-name="Trazado 8305" d="M6576.545,944.707c2.063,9.228,28.657,4.233,39.127,25.9l-7.1,14.415-24.382-3.54-11.383-7.32-2.572-12.031-.439-11.524Z" transform="translate(-6514.735 -919.323)" fill="#fff"/>
    </g>
    <g id="Grupo_1657" data-name="Grupo 1657" transform="translate(5038.382 747.28)">
      <g id="Grupo_1652" data-name="Grupo 1652" transform="translate(0 18.923)">
        <g id="Grupo_1635" data-name="Grupo 1635" transform="translate(13.744 50.175)">
          <path id="Rectángulo_875" data-name="Rectángulo 875" d="M0,0H305.774a0,0,0,0,1,0,0V0a17.759,17.759,0,0,1-17.759,17.759H17.758A17.758,17.758,0,0,1,0,0V0A0,0,0,0,1,0,0Z" fill="#ebebeb"/>
        </g>
        <g id="Grupo_1636" data-name="Grupo 1636" transform="translate(91.868 48.187)">
          <path id="Trazado_8306" data-name="Trazado 8306" d="M6105.563,1310.7l-.042.042c-.032.03-.064.059-.1.087a.064.064,0,0,0-.01.007c-.01.007-.018.015-.027.022l-.03.022a.094.094,0,0,1-.017.012l-.005,0a.15.15,0,0,1-.045.032.658.658,0,0,1-.059.042,1.208,1.208,0,0,1-.1.062.092.092,0,0,1-.032.017.337.337,0,0,1-.065.035s0,0,0,0c-.044.022-.089.042-.137.062a2,2,0,0,1-.739.142,1.4,1.4,0,0,1-.177-.01h-.022a1.237,1.237,0,0,1-.166-.025h-.008a.04.04,0,0,1-.015,0c-.05-.008-.1-.02-.146-.032l-.025-.008c-.062-.017-.121-.04-.181-.062-.032-.015-.067-.028-.1-.045l-.015-.007a1.163,1.163,0,0,1-.124-.065.337.337,0,0,1-.048-.027l-.024-.015a.974.974,0,0,1-.1-.072,1.137,1.137,0,0,1-.109-.082c-.044-.035-.087-.074-.129-.114a.269.269,0,0,1-.022-.025s-.007-.005-.007-.008l-56.677-57.625-12.69-12.9-3.4-3.459a1.969,1.969,0,0,1-.566-1.324v-.005a.494.494,0,0,1,0-.064,1.986,1.986,0,0,1,3.4-1.394l1.371,1.394,17.465,17.757,52.526,53.408,1.416,1.441A1.988,1.988,0,0,1,6105.563,1310.7Z" transform="translate(-6029.382 -1233.32)" fill="#bdbdbd"/>
        </g>
        <g id="Grupo_1637" data-name="Grupo 1637" transform="translate(91.866 48.401)">
          <path id="Trazado_8307" data-name="Trazado 8307" d="M6033.35,1235.8v90.156a1.987,1.987,0,0,1-3.974,0V1235.8c0-.047,0-.094,0-.141v-.005a.479.479,0,0,0,0-.065,1.988,1.988,0,0,1,3.954,0A1.879,1.879,0,0,1,6033.35,1235.8Z" transform="translate(-6029.376 -1233.816)" fill="#bdbdbd"/>
        </g>
        <g id="Grupo_1638" data-name="Grupo 1638" transform="translate(164.644 48.189)">
          <path id="Trazado_8308" data-name="Trazado 8308" d="M6275.252,1235.312a.445.445,0,0,1-.005.084,1.967,1.967,0,0,1-.564,1.309l-3.4,3.462-12.688,12.9-56.685,57.633-.042.042c-.032.03-.064.059-.1.087l-.01.007c-.01.007-.018.015-.027.022l-.03.022a.108.108,0,0,1-.017.013l-.005,0a.148.148,0,0,1-.045.032.614.614,0,0,1-.059.042,1.208,1.208,0,0,1-.1.062.09.09,0,0,1-.032.017.331.331,0,0,1-.065.035s0,0,0,0c-.044.022-.089.042-.137.062a2,2,0,0,1-.739.142,1.427,1.427,0,0,1-.177-.01h-.022a1.257,1.257,0,0,1-.166-.025h-.008a.038.038,0,0,1-.015,0c-.05-.008-.1-.02-.146-.032l-.025-.008c-.062-.017-.121-.04-.181-.062-.032-.015-.067-.027-.1-.045l-.015-.007a1.163,1.163,0,0,1-.124-.065.337.337,0,0,1-.048-.027l-.024-.015a1.03,1.03,0,0,1-.1-.072,1.2,1.2,0,0,1-.109-.082c-.044-.035-.087-.074-.129-.115a.269.269,0,0,1-.022-.025s-.007-.005-.007-.008a1.983,1.983,0,0,1,.007-2.776l1.418-1.441,52.524-53.408,17.465-17.757,1.371-1.393a1.986,1.986,0,0,1,3.4,1.393Z" transform="translate(-6198.5 -1233.325)" fill="#bdbdbd"/>
        </g>
        <g id="Grupo_1639" data-name="Grupo 1639" transform="translate(237.422 48.401)">
          <path id="Trazado_8309" data-name="Trazado 8309" d="M6371.6,1235.8v90.156a1.987,1.987,0,0,1-3.974,0V1235.8a1.988,1.988,0,0,1,3.964-.211c0,.027,0,.057,0,.084C6371.594,1235.718,6371.6,1235.76,6371.6,1235.8Z" transform="translate(-6367.623 -1233.816)" fill="#bdbdbd"/>
        </g>
        <g id="Grupo_1640" data-name="Grupo 1640" transform="translate(80.04 122.047)">
          <path id="Trazado_8310" data-name="Trazado 8310" d="M6172.594,1409.925H6004.379a2.484,2.484,0,0,1,0-4.967h168.214a2.484,2.484,0,1,1,0,4.967Z" transform="translate(-6001.896 -1404.958)" fill="#a1a1a1"/>
        </g>
        <g id="Grupo_1641" data-name="Grupo 1641" transform="translate(91.866 50.176)">
          <path id="Trazado_8311" data-name="Trazado 8311" d="M6051.616,1255.7h-5.575l-12.691-12.9v12.9h-3.974v-17.547c0-.047,0-.094,0-.141v-.005a.6.6,0,0,1,0-.065h4.774Z" transform="translate(-6029.376 -1237.942)" fill="#a1a1a1"/>
          <path id="Trazado_8312" data-name="Trazado 8312" d="M6347.413,1238.026c0,.042,0,.084,0,.126V1255.7h-3.974v-12.9l-12.688,12.9h-5.576l17.464-17.757h4.773A.489.489,0,0,1,6347.413,1238.026Z" transform="translate(-6197.888 -1237.942)" fill="#a1a1a1"/>
        </g>
        <g id="Grupo_1644" data-name="Grupo 1644" transform="translate(86.094 134.493)">
          <g id="Grupo_1642" data-name="Grupo 1642">
            <circle id="Elipse_604" data-name="Elipse 604" cx="7.76" cy="7.76" r="7.76" fill="#595959"/>
          </g>
          <g id="Grupo_1643" data-name="Grupo 1643" transform="translate(4.09 4.09)">
            <circle id="Elipse_605" data-name="Elipse 605" cx="3.67" cy="3.67" r="3.67" fill="gray"/>
          </g>
        </g>
        <g id="Grupo_1647" data-name="Grupo 1647" transform="translate(231.649 134.493)">
          <g id="Grupo_1645" data-name="Grupo 1645">
            <circle id="Elipse_606" data-name="Elipse 606" cx="7.76" cy="7.76" r="7.76" fill="#595959"/>
          </g>
          <g id="Grupo_1646" data-name="Grupo 1646" transform="translate(4.09 4.09)">
            <circle id="Elipse_607" data-name="Elipse 607" cx="3.67" cy="3.67" r="3.67" fill="gray"/>
          </g>
        </g>
        <g id="Grupo_1648" data-name="Grupo 1648" transform="translate(5.419 29.964)">
          <path id="Trazado_8313" data-name="Trazado 8313" d="M6066.148,1190.973l13.076,20.161H5828.488v-4.426a15.735,15.735,0,0,1,15.736-15.736Z" transform="translate(-5828.488 -1190.973)" fill="#65c7d0"/>
        </g>
        <path id="Trazado_8314" data-name="Trazado 8314" d="M5860.634,1191.025c-2.5,1.979-3.072,5.007-4.637,7.583-1.63,2.684-4.154,2.912-6.985,3.771-1.521.462-3.045.6-3.7,2.148-.984,2.342,1.248,4.607,3.324,5.535,5.535,2.471,11.138-.114,16.405-1.672,3.926-1.161,6.483-1.722,5.236-6.393-.76-2.844-4.091-4.864-6.175-6.936C5862.879,1193.842,5861.329,1191.721,5860.634,1191.025Z" transform="translate(-5832.518 -1161.038)" fill="#59b0b8"/>
        <g id="Grupo_1649" data-name="Grupo 1649" transform="translate(243.079)">
          <path id="Trazado_8315" data-name="Trazado 8315" d="M6464.454,1130.572l1.831,4.029-77.176,35.06-8.339-18.356,62.848-28.552A15.737,15.737,0,0,1,6464.454,1130.572Z" transform="translate(-6380.77 -1121.341)" fill="#65c7d0"/>
        </g>
        <g id="Grupo_1650" data-name="Grupo 1650" transform="translate(0 10.914)">
          <path id="Trazado_8316" data-name="Trazado 8316" d="M6146.161,1157.208l-60.036,22.247-14.356,6.028-1.04.43-.111.05-9.527,4a5.434,5.434,0,0,1-2.116.425H5818.762a2.869,2.869,0,0,1-2.866-2.866v-5.2a2.869,2.869,0,0,1,2.866-2.866h239.112l6.157-2.577,1.7-.713,76.029-28.963.178-.074a5.465,5.465,0,1,1,4.225,10.081Z" transform="translate(-5815.896 -1146.703)" fill="#c9c9c9"/>
        </g>
        <g id="Grupo_1651" data-name="Grupo 1651" transform="translate(237.615 43.669)">
          <path id="Trazado_8317" data-name="Trazado 8317" d="M6458.3,1233.746h-84.766a5.464,5.464,0,1,1,0-10.927H6458.3a5.464,5.464,0,1,1,0,10.927Z" transform="translate(-6368.073 -1222.819)" fill="#c9c9c9"/>
        </g>
      </g>
      <path id="Trazado_8318" data-name="Trazado 8318" d="M6426.974,1129.6c.02,5.1.844,9.478-4.981,11.4-4.511,1.491-5.937-1.637-10.393.019-6.408,2.38-6.684,4.3-16.454,7.4-3.626,1.152-10.222,2.165-13.933,3.39-4.7,1.55-9.218,12.457-11.425,6.908-2.271-5.709,3.78-8.594,7.922-11.119,3.5-2.134,6.535-4.829,10.2-6.735,4.713-2.452,9.761-4.147,14.464-6.608,6.254-3.272,12.432-7.421,19.8-6.66C6423.525,1127.74,6430.758,1127.51,6426.974,1129.6Z" transform="translate(-6131.152 -1105.932)" fill="#59b0b8"/>
      <g id="Grupo_1655" data-name="Grupo 1655" transform="translate(56.931 0)">
        <path id="Trazado_8319" data-name="Trazado 8319" d="M6438.334,1139.218s-17.453,7.45-21.288,9.536,0-1.132,0-1.132l-5.89-10.725,15.466-4.909Z" transform="translate(-6211.932 -1108.483)" fill="#ec9778"/>
        <path id="Trazado_8320" data-name="Trazado 8320" d="M6074.321,1143.751s-91.247,14.661-126.128,22.2l1.6,11.082s50.913-1.274,67.286-2.953,73.771-4.687,73.771-4.687l6.923-17.383-12.311-7.448Z" transform="translate(-5948.193 -1115.184)" fill="#4b5779"/>
        <g id="Grupo_1654" data-name="Grupo 1654" transform="translate(204.089)">
          <g id="Grupo_1653" data-name="Grupo 1653" transform="translate(1.025)">
            <path id="Trazado_8321" data-name="Trazado 8321" d="M6447.513,1090.562c-12.979,3.271-23.218,7.419-22.646,12.75s4.151,8.518,14.223,12.226l9.082.186,5.7-9.462,1.884-7.12Z" transform="translate(-6424.843 -1084.884)" fill="#ec9778"/>
            <path id="Trazado_8322" data-name="Trazado 8322" d="M6450.794,1105.375c4.584-2.186,5.177-3.97,8.131-4.968.895-5.707,3.111-3.755,2.759-14.3s6.26-9.715,6.471-6.9c.1,1.358,3.029,4.832,7.462,8.741s2.331,13.669-2.443,15.961a2.837,2.837,0,0,1-.065.377s0,.007,0,.013C6470.157,1113.236,6456.234,1108.154,6450.794,1105.375Z" transform="translate(-6439.627 -1077.367)" fill="#804632"/>
            <path id="Trazado_8323" data-name="Trazado 8323" d="M6463.138,1125.572c3.708.327,4.14,3.353,1.909,4.713s-5.937,1.034-6.051-1.207S6463.138,1125.572,6463.138,1125.572Z" transform="translate(-6444.298 -1104.828)" fill="#ec9778"/>
          </g>
          <path id="Trazado_8324" data-name="Trazado 8324" d="M6432.423,1117.9c-4.586-1.576-8.342-5.057-9.552-8.313,0,0,0-.009,0-.012a4.45,4.45,0,0,1,.888-5.093c3.832-3.576,10.9-5.842,10.9-5.842-.387,4.867,3.761,9.875,3.761,9.875C6434.934,1111.917,6432.423,1117.9,6432.423,1117.9Z" transform="translate(-6422.46 -1089.485)" fill="#e9eef1"/>
          <path id="Trazado_8325" data-name="Trazado 8325" d="M6422.868,1109.574a4.45,4.45,0,0,1,.888-5.093c3.832-3.576,10.9-5.842,10.9-5.842S6421.512,1104.94,6422.868,1109.574Z" transform="translate(-6422.46 -1089.485)" fill="#fff"/>
          <path id="Trazado_8326" data-name="Trazado 8326" d="M6455.286,1121.582a14.275,14.275,0,0,0,4.854,1.871s-6.081.177-7.709-.906S6455.286,1121.582,6455.286,1121.582Z" transform="translate(-6439.332 -1102.553)" fill="#e9eef1"/>
          <path id="Trazado_8327" data-name="Trazado 8327" d="M6444.986,1137.905a23.055,23.055,0,0,1,6.147-1.1s-4.547,3.308-6.444,2.835C6442.963,1139.213,6444.986,1137.905,6444.986,1137.905Z" transform="translate(-6434.727 -1111.228)" fill="#e9eef1"/>
        </g>
      </g>
      <path id="Trazado_8328" data-name="Trazado 8328" d="M6381.156,1186.41c2.489-.531,7.788-4,10.095-5.446,2.556-1.6,3.974-2.192,5.015-4.683,1.162-2.779,2.674-4.954,1.372-8.115-2.566-6.233-12.952-1.019-15.4,2.661a10.777,10.777,0,0,0-1.741,6.518c.262,1.657,1.572,3.2,2.449,4.58C6383.556,1182.891,6380.53,1185.686,6381.156,1186.41Z" transform="translate(-6137.5 -1127.441)" fill="#59b0b8"/>
      <path id="Trazado_8329" data-name="Trazado 8329" d="M6373.905,1142.094c-12.886,17.745-36.5,14.81-36.5,14.81l-7.209-.554c-.941-2.288-1.685-4.238-1.8-4.595-.221-.677-3.733-13.1-5.173-19.2a65.289,65.289,0,0,0,15.949-4.355,25.976,25.976,0,0,1,26.755,3.772C6366.377,1139.529,6373.905,1142.094,6373.905,1142.094Z" transform="translate(-6104.908 -1105.1)" fill="#275a80"/>
      <path id="Trazado_8330" data-name="Trazado 8330" d="M6370.007,1159.045c8.193-.973,11.072,3.466,11.072,6.893s-1.329,9.866-17.448,12.327c-14.15,2.16-9.124-17.82-9.124-17.82Z" transform="translate(-6122.236 -1123.819)" fill="#1d425e"/>
      <path id="Trazado_8331" data-name="Trazado 8331" d="M6099.842,1123.818l-.019,41.844H5878.783c-.935-1.919-1.753-10.715-.954-13.87,2.718-10.715,8.107-25.378,25.064-18.047,10.992,4.755,17.512,5.08,35.183,5.794,4.688.191,9.313.172,13.993-.037q2.353-.1,4.736-.277h.006a303.505,303.505,0,0,0,37.3-5.443l.19-.037c1.322-.258,2.664-.51,4.017-.745,20.894-3.647,44.765-4.5,51.574-6.587C6074.428,1118.9,6100.875,1123.7,6099.842,1123.818Z" transform="translate(-5850.993 -1102.906)" fill="#fff"/>
      <g id="Grupo_1656" data-name="Grupo 1656" transform="translate(99.913 37.733)">
        <path id="Trazado_8332" data-name="Trazado 8332" d="M6179.526,1196.631a1.987,1.987,0,0,1-1.987-1.987v-12.759a12.874,12.874,0,0,0-12.859-12.859h-99.77a12.874,12.874,0,0,0-12.859,12.859v12.759a1.987,1.987,0,1,1-3.974,0v-12.759a16.852,16.852,0,0,1,16.833-16.833h99.77a16.852,16.852,0,0,1,16.833,16.833v12.759A1.987,1.987,0,0,1,6179.526,1196.631Z" transform="translate(-6048.077 -1165.052)" fill="#8c8c8c"/>
      </g>
      <path id="Trazado_8333" data-name="Trazado 8333" d="M6384.312,1125.96c3.605,1.3,3.794,4.363,3.351,7.656s-1.851,13.55-1.589,16.283-1.779,17.909-1.779,17.909l-5.753-12.64-1.684-15.823v-8.03Z" transform="translate(-6135.461 -1105.049)" fill="#fff"/>
      <path id="Trazado_8334" data-name="Trazado 8334" d="M6230.783,1222.813c-2.141,2.639-5.622,4.183-8.593,5.739-3.279,1.716-5.812,3.66-8.507,5.191H6192.39a82.152,82.152,0,0,0-8.642-3.125,166.486,166.486,0,0,1-19.49-6.228c2.122-.369,5.848-.274,7.588-1.578Z" transform="translate(-6014.349 -1160.224)" fill="#b3b3b3"/>
      <path id="Trazado_8335" data-name="Trazado 8335" d="M6141.77,1206.474c11.219,1.43,33.6,5.531,40.152,5.859,13.876.7,25.686-6.192,36.019-6.025s-13.383-10.607-13.383-10.607l-30.9-1.866s-11.515,2.358-12.991,1.866S6141.77,1206.474,6141.77,1206.474Z" transform="translate(-6001.539 -1143.715)" fill="#fff"/>
    </g>
    <g id="Grupo_1665" data-name="Grupo 1665" transform="translate(5362.698 747.586)">
      <g id="Grupo_1658" data-name="Grupo 1658" transform="translate(13.311)">
        <path id="Trazado_8336" data-name="Trazado 8336" d="M6628.092,1078.077s-23.937,31.371-27.607,34.768c0,0,1.177,4.309,3.546,6.209,0,0,48.579-23.291,43.168-38.523l-11.837-2.241c-1.095-.154-4.558,1.342-3.871.477Z" transform="translate(-6600.484 -1078.077)" fill="#fff"/>
      </g>
      <g id="Grupo_1663" data-name="Grupo 1663" transform="translate(0 26.512)">
        <g id="Grupo_1659" data-name="Grupo 1659" transform="translate(0 6.426)">
          <path id="Trazado_8337" data-name="Trazado 8337" d="M6570.932,1161.332c-3.421-4.528.25-8.3,3.084-6.038s.222,4.15.222,4.15Z" transform="translate(-6569.551 -1154.619)" fill="#275a80"/>
        </g>
        <g id="Grupo_1661" data-name="Grupo 1661" transform="translate(0.807)">
          <g id="Grupo_1660" data-name="Grupo 1660">
            <path id="Trazado_8338" data-name="Trazado 8338" d="M6586.508,1154.723l-.02.012h0c-6.1,4.063-8.8,4.173-12.646.565-1.9-1.777-5.348-7,2.507-9.274-2.408-.417-3.777-1.869-3.174-2.751,1.353-1.975,8.8.092,8.8.092l2.462.707h0l7.345-4.386,4.048,11.053C6592.312,1152.268,6589.087,1153.648,6586.508,1154.723Z" transform="translate(-6571.427 -1139.687)" fill="#2f6c99"/>
          </g>
        </g>
        <g id="Grupo_1662" data-name="Grupo 1662" transform="translate(0.066 8.466)">
          <path id="Trazado_8339" data-name="Trazado 8339" d="M6569.8,1159.361a1.87,1.87,0,0,0,1.534.512c.961-.115.831,4.1.831,4.1l.3,2.136S6569.119,1163.072,6569.8,1159.361Z" transform="translate(-6569.705 -1159.361)" fill="#2f6c99"/>
        </g>
      </g>
      <g id="Grupo_1664" data-name="Grupo 1664" transform="translate(21.163 17.525)">
        <path id="Trazado_8340" data-name="Trazado 8340" d="M6622.78,1138.842c2.437,1.272,16.29-10.549,16.29-10.549l-.281-5.25-9.262-4.243s-10.74,6.025-10.795,8.988S6620.945,1136.276,6622.78,1138.842Z" transform="translate(-6618.73 -1118.801)" fill="#fff"/>
      </g>
    </g>
    <path id="Trazado_8341" data-name="Trazado 8341" d="M5969.667,1113.542c1.174,2.192-2.772,5.628-1.58,7.81,3.665,1.905,10.541,6.069,15.154,7.91a61.516,61.516,0,0,0,16.393,4.086c1.78.181,6.66,1.581,7.764.2.7-.878.1-4.564-.451-5.565-1.272-2.313-4.2-2.974-6.237-4.326a46.465,46.465,0,0,1-10.5-9.673c-1.634-2.172-2.525-4.133-4.586-5.917-1.858-1.609-3.824-2.83-5.25-4.9-1.531-2.227-2.538-4.6-4.93-6.139-7.8-5.037-10.815,4.066-9.33,10.61C5966.922,1111.191,5971.133,1113.246,5969.667,1113.542Z" transform="translate(-862.882 -340.454)" fill="#d9d9d9"/>
    <g id="Grupo_1673" data-name="Grupo 1673" transform="translate(5102.746 743.21)">
      <g id="Grupo_1666" data-name="Grupo 1666" transform="translate(0 0)">
        <path id="Trazado_8342" data-name="Trazado 8342" d="M5985.885,1070.369s15.221,36.407,17.912,40.621c0,0-2.229,3.871-5,5.11,0,0-41.105-34.823-32.017-48.192l12.019.827c1.1.129,4.07,2.452,3.625,1.441Z" transform="translate(-5965.467 -1067.908)" fill="#fff"/>
      </g>
      <g id="Grupo_1671" data-name="Grupo 1671" transform="translate(26.108 33.108)">
        <g id="Grupo_1667" data-name="Grupo 1667" transform="translate(19.181 10.812)">
          <path id="Trazado_8343" data-name="Trazado 8343" d="M6074.059,1176.876c4.456-3.515,1.858-8.09-1.456-6.622s-1.265,3.959-1.265,3.959Z" transform="translate(-6070.711 -1169.972)" fill="#59b0b8"/>
        </g>
        <g id="Grupo_1669" data-name="Grupo 1669">
          <g id="Grupo_1668" data-name="Grupo 1668">
            <path id="Trazado_8344" data-name="Trazado 8344" d="M6034.152,1160.728l.015.016,0,0c4.87,5.473,7.455,6.263,12.092,3.746,2.284-1.24,6.945-5.418-.079-9.606,2.436.207,4.127-.852,3.766-1.859-.809-2.253-8.54-2.139-8.54-2.139l-2.561.061h0l-6-6.1-6.713,9.67C6029.157,1156.883,6031.928,1159.035,6034.152,1160.728Z" transform="translate(-6026.138 -1144.846)" fill="#65c7d0"/>
          </g>
        </g>
        <g id="Grupo_1670" data-name="Grupo 1670" transform="translate(20.608 13.506)">
          <path id="Trazado_8345" data-name="Trazado 8345" d="M6078.313,1176.231a1.868,1.868,0,0,1-1.613.108c-.9-.355-1.84,3.756-1.84,3.756l-.833,1.99S6078.029,1179.992,6078.313,1176.231Z" transform="translate(-6074.027 -1176.231)" fill="#65c7d0"/>
        </g>
      </g>
      <g id="Grupo_1672" data-name="Grupo 1672" transform="translate(4.317 8.92)">
        <path id="Trazado_8346" data-name="Trazado 8346" d="M5997.29,1122.495c-2.679.613-21.791-20.675-21.791-20.675l4.585-13.183,15.749,12.762s8.866,8.547,8.169,11.426S5999.714,1120.477,5997.29,1122.495Z" transform="translate(-5975.499 -1088.637)" fill="#fff"/>
      </g>
    </g>
    <g id="Grupo_1685" data-name="Grupo 1685" transform="translate(4451.059 615.963)">
      <rect id="Rectángulo_876" data-name="Rectángulo 876" width="43.867" height="21.722" transform="translate(552.368 218.175)" fill="#f7f7f7"/>
      <rect id="Rectángulo_877" data-name="Rectángulo 877" width="43.867" height="21.722" transform="translate(530.435 93.126)" fill="#f7f7f7"/>
      <g id="Grupo_1682" data-name="Grupo 1682" transform="translate(0)">
        <g id="Grupo_1674" data-name="Grupo 1674" transform="translate(220.519)">
          <path id="Trazado_8347" data-name="Trazado 8347" d="M4971.818,807.6h46.7l-3.5-14.418-3.145-12.952a10.494,10.494,0,0,0-10.2-8.021h-13.01a10.5,10.5,0,0,0-10.2,8.021l-3.145,12.952Z" transform="translate(-4968.242 -772.207)" fill="#ff4342"/>
          <path id="Trazado_8348" data-name="Trazado 8348" d="M4963.508,835.361h53.85l-2.671-9.552a6.658,6.658,0,0,0-6.413-4.866H4972.6a6.66,6.66,0,0,0-6.413,4.864Z" transform="translate(-4963.508 -799.971)" fill="#454444"/>
        </g>
        <circle id="Elipse_608" data-name="Elipse 608" cx="36.354" cy="36.354" r="36.354" transform="translate(361.827 229.186)" fill="#242424"/>
        <circle id="Elipse_609" data-name="Elipse 609" cx="36.354" cy="36.354" r="36.354" transform="translate(14.901 265.54) rotate(-45)" fill="#242424"/>
        <path id="Trazado_8349" data-name="Trazado 8349" d="M4451.274,1059.792a21.5,21.5,0,0,0,.763,5.8,18.18,18.18,0,0,0,5.37,8.685c4.392,4,10.77,6.1,17.874,6.1h78.736v.917h436.411c14.866,0,26.922-9.546,26.922-24.413v-49.009c0-1.531-.013-3.069-.043-4.6-.024-1.661-.062-3.321-.123-4.982-.006-.246-.013-.492-.024-.738-.049-1.63-.123-3.26-.2-4.89,0-.049-.006-.092-.006-.142-.013-.2-.019-.387-.031-.584q-.351-6.569-1-13.12c-.012-.136-.025-.277-.037-.412q-.249-2.491-.542-4.982-.424-3.607-.935-7.2-.35-2.463-.738-4.92-.3-1.92-.633-3.838-.866-5-1.9-9.971l-12.1-58.18-.388-1.845-2.417-11.631a34.146,34.146,0,0,0-33.436-27.193H4665.912a102.033,102.033,0,0,0-77.918,36.155l-7.492,8.863-1.125,1.329-21.75,25.729-44.562,52.7-2.208,2.614-1.125,1.329L4486.955,994.5l-4.97,3.74a77.043,77.043,0,0,0-18.489,19.934,74.957,74.957,0,0,0-5.407,9.958c-.726,1.6-1.39,3.229-2,4.878a76.771,76.771,0,0,0-4.625,21.4Q4451.274,1057.092,4451.274,1059.792Z" transform="translate(-4451.182 -815.75)" fill="#f2f2f2"/>
        <path id="Trazado_8350" data-name="Trazado 8350" d="M4954.311,1060.25h105.08a9.4,9.4,0,0,0,9.417-9.411v-44.95a9.416,9.416,0,0,0-9.417-9.411h-44.046a52.5,52.5,0,0,0-40.072,18.594l-3.53,4.177-23.539,27.838A8,8,0,0,0,4954.311,1060.25Z" transform="translate(-4733.183 -899.969)" fill="#454444"/>
        <path id="Trazado_8351" data-name="Trazado 8351" d="M5308.752,1005.889v44.95a9.411,9.411,0,0,0,9.411,9.411h66.717a9.412,9.412,0,0,0,9.417-9.411v-44.95a9.412,9.412,0,0,0-9.417-9.411h-66.717c-.092,0-.185,0-.277.006A9.406,9.406,0,0,0,5308.752,1005.889Z" transform="translate(-4939.666 -899.969)" fill="#454444"/>
        <path id="Trazado_8352" data-name="Trazado 8352" d="M5579.114,1326.827v29.382h56.759c14.867,0,23.979-8.568,23.979-26.922v-2.46Z" transform="translate(-5093.684 -1088.16)" fill="#363535"/>
        <g id="Grupo_1675" data-name="Grupo 1675" transform="translate(182.739 237.744)">
          <rect id="Rectángulo_878" data-name="Rectángulo 878" width="259.16" height="1.845" fill="#b5b5b5"/>
        </g>
        <path id="Trazado_8353" data-name="Trazado 8353" d="M4451.274,1284.226a21.5,21.5,0,0,0,.763,5.8,18.179,18.179,0,0,0,5.37,8.685H4575c3.323-48.638,5.322-57.753-8.549-51.494-98.588,44.48-102.958-4.607-102.958-4.607a74.957,74.957,0,0,0-5.407,9.958c-.726,1.6-1.39,3.229-2,4.878a76.772,76.772,0,0,0-4.625,21.4Q4451.274,1281.526,4451.274,1284.226Z" transform="translate(-4451.182 -1040.184)" fill="#e3e3e3"/>
        <path id="Trazado_8354" data-name="Trazado 8354" d="M4451.059,1332.2c0,15.586,9.066,24.006,22.327,24.006h92.945v-29.382H4451.243Q4451.059,1329.5,4451.059,1332.2Z" transform="translate(-4451.059 -1088.16)" fill="#363535"/>
        <rect id="Rectángulo_879" data-name="Rectángulo 879" width="244.014" height="13.461" transform="translate(434.535 268.049) rotate(180)" fill="#454444"/>
        <path id="Trazado_8355" data-name="Trazado 8355" d="M5448.537,1324.387c0,.843.019,1.679.062,2.509h97.908c.043-.83.062-1.667.062-2.509a49.016,49.016,0,1,0-98.031,0Z" transform="translate(-5019.298 -1058.847)" fill="#292929"/>
        <path id="Trazado_8356" data-name="Trazado 8356" d="M4677.324,1324.387c0,.843.018,1.679.061,2.509h97.908c.043-.83.062-1.667.062-2.509a49.015,49.015,0,1,0-98.031,0Z" transform="translate(-4579.957 -1058.847)" fill="#292929"/>
        <g id="Grupo_1676" data-name="Grupo 1676" transform="translate(441.898 229.186)">
          <circle id="Elipse_610" data-name="Elipse 610" cx="36.354" cy="36.354" r="36.354" fill="#454444"/>
          <circle id="Elipse_611" data-name="Elipse 611" cx="22.038" cy="22.038" r="22.038" transform="translate(14.316 14.316)" fill="#545353"/>
          <circle id="Elipse_612" data-name="Elipse 612" cx="7.013" cy="7.013" r="7.013" transform="matrix(0.543, -0.84, 0.84, 0.543, 33.668, 31.421)" fill="#828181"/>
        </g>
        <g id="Grupo_1677" data-name="Grupo 1677" transform="translate(110.031 229.186)">
          <circle id="Elipse_613" data-name="Elipse 613" cx="36.354" cy="36.354" r="36.354" fill="#454444"/>
          <circle id="Elipse_614" data-name="Elipse 614" cx="22.038" cy="22.038" r="22.038" transform="translate(14.316 14.316)" fill="#545353"/>
          <circle id="Elipse_615" data-name="Elipse 615" cx="7.013" cy="7.013" r="7.013" transform="matrix(0.365, -0.931, 0.931, 0.365, 34.275, 33.307)" fill="#828181"/>
        </g>
        <path id="Trazado_8357" data-name="Trazado 8357" d="M4594.865,1068.832h60.628a15.373,15.373,0,0,0,11.748-5.45l6.053-7.159,11.219-13.267,17.905-21.177a3.43,3.43,0,0,0-2.62-5.646h-60.371Z" transform="translate(-4532.982 -911.165)" fill="#4f4e4e"/>
        <g id="Grupo_1678" data-name="Grupo 1678" transform="translate(126.343 71.716)">
          <path id="Trazado_8358" data-name="Trazado 8358" d="M4744.807,1051.169a.91.91,0,0,0,.775.424.872.872,0,0,0,.5-.148c4.742-3.039,7.83-4.718,7.86-4.736a1.6,1.6,0,0,0,.142-.093c.037-.037.08-.074.117-.117l81.9-94.414a34.441,34.441,0,0,1,25.575-11.379h304.483l-.387-1.845h-304.1a36.282,36.282,0,0,0-26.952,12.006l-81.812,94.3c-.676.375-3.616,2.024-7.829,4.73A.918.918,0,0,0,4744.807,1051.169Z" transform="translate(-4744.659 -938.862)" fill="#c2c2c2"/>
        </g>
        <path id="Trazado_8359" data-name="Trazado 8359" d="M4861.665,1173.62v18.741h226.324l104.269-22.494h58.691c-.049-1.63-.123-3.26-.2-4.89,0-.049-.006-.092-.006-.142-.013-.2-.019-.387-.031-.584q-.352-6.569-1-13.12h-57.442l-104.275,22.487Z" transform="translate(-4684.971 -988.072)" fill="#ff4342"/>
        <path id="Trazado_8360" data-name="Trazado 8360" d="M4467.111,1234.883l9.97,3.4c5.678,0,8.987-1.895,9.46-8.039.024-.3.043-.627.062-.972.24-4.7-.1-13.4-3.229-17.708a77.115,77.115,0,0,0-16.263,23.318Z" transform="translate(-4460.204 -1022.498)" fill="#fff"/>
        <path id="Rectángulo_880" data-name="Rectángulo 880" d="M0,0H.315A10.418,10.418,0,0,1,10.733,10.418v4.226A10.419,10.419,0,0,1,.315,25.063H0a0,0,0,0,1,0,0V0A0,0,0,0,1,0,0Z" transform="translate(566.168 212.384) rotate(180)" fill="#ff8787"/>
        <g id="Grupo_1679" data-name="Grupo 1679" transform="translate(74.094 191.502)">
          <path id="Trazado_8361" data-name="Trazado 8361" d="M4628.019,1246.429l21.811-2.214,22.616-1.925a3.966,3.966,0,0,0,3.851-4.915l-3.672-14.977a6.789,6.789,0,0,0-6.594-5.173h-2.239s-28.054,4.14-36.566,16.435c-.665.96-1.243,1.852-1.747,2.688a34.244,34.244,0,0,0-1.814,3.4A4.75,4.75,0,0,0,4628.019,1246.429Z" transform="translate(-4623.241 -1217.225)" fill="#fff"/>
          <path id="Trazado_8362" data-name="Trazado 8362" d="M4628.019,1246.69s16.367-1.094,21.811-1.6c5.666-.526,22.616-2.54,22.616-2.54a3.966,3.966,0,0,0,3.851-4.915l-3.672-14.977a6.8,6.8,0,0,0-4.97-4.976c1.42,5.548-.461,14.233-9.768,18.673-10.894,5.2-26.492,4.589-32.409.252a34.244,34.244,0,0,0-1.814,3.4A4.75,4.75,0,0,0,4628.019,1246.69Z" transform="translate(-4623.241 -1217.486)" fill="#d1d1d1"/>
        </g>
        <path id="Trazado_8363" data-name="Trazado 8363" d="M4467.111,1244.621l9.97,3.4c5.678,0,8.987-1.895,9.46-8.039.024-.3.043-.627.062-.972-4.718.8-9.257-2.854-9.817-10.352A76.483,76.483,0,0,0,4467.111,1244.621Z" transform="translate(-4460.204 -1032.237)" fill="#d1d1d1"/>
        <rect id="Rectángulo_881" data-name="Rectángulo 881" width="24.834" height="3.321" transform="translate(324.945 173.456) rotate(180)" fill="#8a8888"/>
        <path id="Trazado_8364" data-name="Trazado 8364" d="M5329.978,996.484l20.691,63.765h33.018L5363,996.478h-32.741C5330.163,996.478,5330.07,996.478,5329.978,996.484Z" transform="translate(-4951.758 -899.969)" fill="#575656"/>
        <g id="Grupo_1680" data-name="Grupo 1680" transform="translate(238.559 96.509)">
          <path id="Trazado_8365" data-name="Trazado 8365" d="M5072.007,998.655l19.984,61.594H5131a9.42,9.42,0,0,0,9.2-7.405l-18.293-56.366h-34.955A52.284,52.284,0,0,0,5072.007,998.655Z" transform="translate(-5043.356 -996.478)" fill="#575656"/>
          <path id="Trazado_8366" data-name="Trazado 8366" d="M5005.428,1033.539l13.3,41h15.611l-17.191-52.977a52.423,52.423,0,0,0-8.193,7.8Z" transform="translate(-5005.428 -1010.768)" fill="#575656"/>
        </g>
        <g id="Grupo_1681" data-name="Grupo 1681" transform="translate(128.207 104.967)">
          <path id="Trazado_8367" data-name="Trazado 8367" d="M4748.991,1016.132l12.1,40.091,11.219-13.267-8.71-26.824Z" transform="translate(-4748.991 -1016.132)" fill="#5e5d5d"/>
        </g>
        <circle id="Elipse_616" data-name="Elipse 616" cx="4.465" cy="4.465" r="4.465" transform="translate(235.249 5.06)" fill="#ffa1a1"/>
      </g>
      <g id="Grupo_1684" data-name="Grupo 1684" transform="translate(552.368 49.363)">
        <path id="Trazado_8368" data-name="Trazado 8368" d="M5844.33,1032.723v49.213a17.218,17.218,0,0,1-17.29,16.939h-72.9a2.338,2.338,0,0,1-1.972-3.609,24.287,24.287,0,0,0,4.092-13.534v-49.01c0-1.532-.019-3.069-.05-4.6-.018-1.556-.049-3.119-.11-4.675a2.594,2.594,0,0,0-.012-.308,10.518,10.518,0,0,0-.185-2.054,8.2,8.2,0,0,0,.136-1.82,12.885,12.885,0,0,0-.179-1.679,1.22,1.22,0,0,0,0-.216c-.012-.2-.018-.387-.03-.584q-.333-6.043-.9-12.074c-.031-.35-.067-.7-.1-1.045-.012-.136-.024-.277-.037-.412-.092-.911-.184-1.815-.283-2.725-.086-.75-.172-1.507-.265-2.257q-.415-3.607-.935-7.2c-.228-1.642-.48-3.285-.732-4.921-.209-1.279-.412-2.559-.64-3.838q-.858-5-1.895-9.97l-12.111-58.18-.381-1.845-2.417-11.631c-.142-.664-.3-1.316-.468-1.962v-4.841h0a7,7,0,0,1,6.981-6.969h64.518a17.331,17.331,0,0,1,17.009,13.618c.011.051.022.1.032.154l2.417,11.631.388,1.845,12.1,58.18q1.024,4.973,1.9,9.97.333,1.919.627,3.838.4,2.454.745,4.921.507,3.589.935,7.2c.086.75.173,1.507.259,2.257.1.91.19,1.814.283,2.725.012.135.024.277.037.412.037.35.062.695.1,1.045q.582,6.025.9,12.074c.012.2.019.388.03.584a1.22,1.22,0,0,1,0,.216,12.885,12.885,0,0,1,.179,1.679,8.626,8.626,0,0,1-.129,1.82,11.072,11.072,0,0,1,.184,2.054v.308c.068,1.556.1,3.119.123,4.675C5844.324,1029.654,5844.33,1031.192,5844.33,1032.723Z" transform="translate(-5734.667 -886.919)" fill="#f7f7f7"/>
        <path id="Trazado_8369" data-name="Trazado 8369" d="M5870.438,1169.36v.308H5782.31a12.889,12.889,0,0,0-.179-1.679,1.22,1.22,0,0,0,0-.216c-.012-.2-.018-.387-.03-.584q-.333-6.043-.9-12.074c-.031-.35-.067-.695-.1-1.045-.012-.135-.024-.277-.037-.412-.092-.911-.184-1.815-.283-2.725h88.492q.581,6.024.9,12.074c.012.2.019.387.03.584a1.216,1.216,0,0,1,0,.215,9.989,9.989,0,0,1,.05,3.5A11.068,11.068,0,0,1,5870.438,1169.36Z" transform="translate(-5760.935 -1037.321)" fill="#ff6766"/>
        <g id="Grupo_1683" data-name="Grupo 1683" transform="translate(26.708 43.763)">
          <path id="Trazado_8370" data-name="Trazado 8370" d="M5796.731,998.028v44.95a9.411,9.411,0,0,0,9.411,9.411H5839.5a9.412,9.412,0,0,0,9.417-9.411v-44.95a9.412,9.412,0,0,0-9.417-9.411h-33.355c-.092,0-.185,0-.277.006A9.406,9.406,0,0,0,5796.731,998.028Z" transform="translate(-5796.731 -988.617)" fill="#454444"/>
          <path id="Trazado_8371" data-name="Trazado 8371" d="M5852.722,1052.388h-7.971l-20.691-63.771h7.972Z" transform="translate(-5812.299 -988.617)" fill="#575656"/>
        </g>
      </g>
    </g>
  </g>
</svg>
