<svg xmlns="http://www.w3.org/2000/svg" width="577" height="592.781" viewBox="0 0 577 592.781">
  <g id="Grupo_1492" data-name="Grupo 1492" transform="translate(-5104.761 -335.506)">
    <path id="Trazado_8531" data-name="Trazado 8531" d="M5330.463,1945.768s-44.564-19.435-91.316-3.733-85.416,9.305-115.878,34.564-32.111,90.083,63.614,92.645,139.835,41.3,199.793,30.54,124.05-23.674,181.047-16.142,159.444-69.994,76.463-92.117-135.9-22.091-142.122-22.559S5330.463,1945.768,5330.463,1945.768Z" transform="translate(0 -1173.381)" fill="#9bb1de"/>
    <path id="Trazado_8532" data-name="Trazado 8532" d="M5621.017,568.289s-56.914-24.825-55.654-64.594-57.456-49.35-46.945-103.555c9.936-51.239-.66-64.634-.66-64.634s67.553,36.208,71.05,77.661,28.456,77.838,30.462,96.953,30.122,66.533,30.122,66.533Z" transform="translate(-302.36)" fill="#699eff"/>
    <path id="Trazado_8533" data-name="Trazado 8533" d="M5646.489,576.022s-29.441-46.648-46.432-97.376c-9.726-29.039-13.613-58.686-35.9-89.4" transform="translate(-336.818 -39.402)" fill="none" stroke="#b6cff0" stroke-linecap="round" stroke-linejoin="round" stroke-width="5.816"/>
    <path id="Trazado_8534" data-name="Trazado 8534" d="M6621.225,964.452s-19.209-59.046,11.373-84.5-1.225-75.73,46.294-103.848c44.919-26.579,47.9-43.394,47.9-43.394s17.756,74.559-10.926,104.69-39.332,72.949-52.3,87.137-29.771,66.691-29.771,66.691Z" transform="translate(-1107.473 -291.22)" fill="#497ad1"/>
    <path id="Trazado_8535" data-name="Trazado 8535" d="M6704.009,987.4s15.349-52.983,42.013-99.362c15.264-26.549,34.859-49.135,43.037-86.192" transform="translate(-1172.534 -341.912)" fill="none" stroke="#b6cff0" stroke-linecap="round" stroke-linejoin="round" stroke-width="5.816"/>
    <path id="Trazado_8536" data-name="Trazado 8536" d="M6607.636,1285.189s41.585-96.944,96.3-119.1,79.7,6.263,79.7,6.263-25.224.055-46.918,22.161-41.2,33.453-54.942,39.411c-31.462,13.641-35.411,52.22-35.411,52.22Z" transform="translate(-1101.876 -602.775)" fill="#699eff"/>
    <path id="Trazado_8537" data-name="Trazado 8537" d="M6767.587,1266.8s13.045-30.612,58.922-53.5c16.6-8.28,41.971-15.857,63.51-13.251" transform="translate(-1219.148 -633.484)" fill="none" stroke="#b6cff0" stroke-linecap="round" stroke-linejoin="round" stroke-width="5.816"/>
    <path id="Trazado_8538" data-name="Trazado 8538" d="M6010.156,987.833l-232.786-61.87a16.471,16.471,0,0,1-12.6-16.114l-.3-351.943c-.011-13.087,13.77-23.78,26.867-20.847L6024.115,589.2a16.517,16.517,0,0,1,13.33,16.292l.307,361.671C6037.764,980.564,6023.369,991.345,6010.156,987.833Z" transform="translate(-483.685 -147.416)" fill="#2130a7"/>
    <path id="Trazado_8539" data-name="Trazado 8539" d="M5974.721,1016.509l-232.787-61.87a16.47,16.47,0,0,1-12.6-16.114l-.3-351.943c-.011-13.087,13.77-23.78,26.867-20.847l232.778,52.142a16.517,16.517,0,0,1,13.33,16.292l.307,361.671C6002.327,1009.24,5987.933,1020.021,5974.721,1016.509Z" transform="translate(-457.704 -168.442)" fill="#4858cf"/>
    <path id="Trazado_8540" data-name="Trazado 8540" d="M6031.809,1063.786,5792.561,1000.2l-.29-341.353,239.238,51.769Z" transform="translate(-504.068 -237.066)" fill="#fff"/>
    <path id="Trazado_8541" data-name="Trazado 8541" d="M6116.762,535.376l-13.437-3.3v-6.009c0-16.649-14.287-33.785-31.748-38.08h0c-17.461-4.295-31.748,5.814-31.748,22.463v6.009l-13.437-3.3c-12.295-3.024-22.354,4.094-22.354,15.817h0c0,11.723,10.06,23.789,22.354,26.813l90.369,22.227c12.295,3.024,22.354-4.094,22.354-15.816h0C6139.116,550.466,6129.057,538.4,6116.762,535.376Zm-44-16.716-2.378-.585c-4.316-1.062-7.848-5.3-7.848-9.413s3.531-6.614,7.848-5.553l2.378.585c4.316,1.062,7.848,5.3,7.848,9.413S6077.083,519.721,6072.766,518.66Z" transform="translate(-659.331 -111.068)" fill="#3b76e3"/>
    <path id="Trazado_8542" data-name="Trazado 8542" d="M6089.724,549.627l-13.437-3.3v-6.009c0-16.649-14.287-33.785-31.748-38.08h0c-17.461-4.295-31.748,5.814-31.748,22.463v6.009l-13.437-3.3c-12.295-3.024-22.354,4.093-22.354,15.817h0c0,11.723,10.06,23.789,22.354,26.813l90.369,22.227c12.295,3.024,22.354-4.094,22.354-15.817h0C6112.078,564.717,6102.019,552.651,6089.724,549.627Zm-44-16.717-2.378-.585c-4.316-1.061-7.848-5.3-7.848-9.413s3.532-6.614,7.848-5.553l2.378.585c4.316,1.061,7.848,5.3,7.848,9.413S6050.044,533.972,6045.728,532.911Z" transform="translate(-639.507 -121.517)" fill="#4285ff"/>
    <path id="Trazado_8543" data-name="Trazado 8543" d="M6061.287,885.129l-200.85-47.906V777.614l200.85,47.906Z" transform="translate(-554.045 -324.144)" fill="#4285ff"/>
    <path id="Trazado_8544" data-name="Trazado 8544" d="M5860.437,1447.286v100.865l199.9,52.27V1499.556Z" transform="translate(-554.045 -815.133)" fill="none" stroke="#88aad4" stroke-linecap="round" stroke-linejoin="round" stroke-width="11.375"/>
    <line id="Línea_91" data-name="Línea 91" x2="197.936" y2="48.556" transform="translate(5306.392 535.035)" fill="none" stroke="#88aad4" stroke-linecap="round" stroke-linejoin="round" stroke-width="11.375"/>
    <line id="Línea_92" data-name="Línea 92" x2="199.896" y2="52.399" transform="translate(5306.392 666.47)" fill="none" stroke="#88aad4" stroke-linecap="round" stroke-linejoin="round" stroke-width="11.375"/>
    <line id="Línea_93" data-name="Línea 93" x2="199.896" y2="50.577" transform="translate(5306.392 704.222)" fill="none" stroke="#88aad4" stroke-linecap="round" stroke-linejoin="round" stroke-width="11.375"/>
    <line id="Línea_94" data-name="Línea 94" x2="111.847" y2="25.852" transform="translate(5306.392 569.1)" fill="none" stroke="#88aad4" stroke-linecap="round" stroke-linejoin="round" stroke-width="11.375"/>
    <line id="Línea_95" data-name="Línea 95" x2="111.847" y2="27.582" transform="translate(5306.392 603.164)" fill="none" stroke="#88aad4" stroke-linecap="round" stroke-linejoin="round" stroke-width="11.375"/>
    <line id="Línea_96" data-name="Línea 96" y2="100.236" transform="translate(5363.904 647.191)" fill="none" stroke="#88aad4" stroke-linecap="round" stroke-linejoin="round" stroke-width="11.632"/>
    <path id="Trazado_8545" data-name="Trazado 8545" d="M6394.563,1334.119h0a13.415,13.415,0,0,0,2.9-9.752c-.468-8.015-6.311-16.295-13.687-19.354-8.393-3.482-15.582.62-16.754,8.656-1.139-8.509-7.96-16.789-16.046-18.782-7.858-1.936-14.184,3.052-14.418,11.35a22.514,22.514,0,0,0,5.343,14.5l17.021,29.134c4.153,7.108,12.393,9.644,16.555,5.1l18.738-20.476c.118-.123.233-.248.345-.378Z" transform="translate(-903.122 -703.093)" fill="#f55176"/>
    <line id="Línea_97" data-name="Línea 97" x2="37.517" y2="9.361" transform="translate(5315.683 652.08)" fill="none" stroke="#88aad4" stroke-linecap="round" stroke-linejoin="round" stroke-width="11.632"/>
    <line id="Línea_98" data-name="Línea 98" x2="36.3" y2="10.259" transform="translate(5316.9 687.05)" fill="none" stroke="#88aad4" stroke-linecap="round" stroke-linejoin="round" stroke-width="11.632"/>
    <line id="Línea_99" data-name="Línea 99" x2="37.922" y2="11.407" transform="translate(5316.495 720.119)" fill="none" stroke="#88aad4" stroke-linecap="round" stroke-linejoin="round" stroke-width="11.632"/>
    <g id="Grupo_1487" data-name="Grupo 1487" transform="translate(5228.871 641.611)">
      <path id="Trazado_8546" data-name="Trazado 8546" d="M5648.5,1650.418c8.158,2.251,31.219-16.089,31.219-16.089l-2.985-4.9s-17.551,13.409-26.011,9.934C5641.19,1635.448,5618.835,1642.233,5648.5,1650.418Z" transform="translate(-5616.643 -1590.289)" fill="#e67c4e"/>
      <path id="Trazado_8547" data-name="Trazado 8547" d="M5791.291,1616.14l-2.413,2.341a4.71,4.71,0,0,1-6.64-.1h0a4.71,4.71,0,0,1,.1-6.64l2.412-2.341a4.711,4.711,0,0,1,6.641.1h0A4.71,4.71,0,0,1,5791.291,1616.14Z" transform="translate(-5724.615 -1574.635)" fill="#e67c4e"/>
      <path id="Trazado_8548" data-name="Trazado 8548" d="M5772.38,1638.9l-23.886-7.909c-2.784-.922-3.722-4-2.086-6.843l19.211-33.37c1.636-2.842,5.252-4.414,8.036-3.492l23.886,7.909c2.783.922,3.722,4,2.086,6.843l-19.21,33.37C5778.78,1638.252,5775.164,1639.824,5772.38,1638.9Z" transform="translate(-5698.723 -1559.197)" fill="#263082"/>
      <path id="Trazado_8549" data-name="Trazado 8549" d="M5784.309,1642.032l-20.135-6.667c-2.346-.777-3.138-3.373-1.758-5.769l16.194-28.13c1.379-2.4,4.427-3.721,6.774-2.944l20.135,6.667c2.347.777,3.138,3.373,1.759,5.769l-16.194,28.13C5789.7,1641.484,5786.655,1642.809,5784.309,1642.032Z" transform="translate(-5710.552 -1567.464)" fill="#d6d6d6"/>
      <ellipse id="Elipse_583" data-name="Elipse 583" cx="29.323" cy="14.567" rx="29.323" ry="14.567" transform="translate(0 191.676) rotate(-1.016)" fill="#a8c4e5" opacity="0.4" style="mix-blend-mode: multiply;isolation: isolate"/>
      <path id="Trazado_8550" data-name="Trazado 8550" d="M5601,2209.937l6.964.879c5.039-.892,7.542-1.889,9.256-.213l.486.475c1.715,1.676.937,3.658-1.728,4.405l-11.935,5.346a6.759,6.759,0,0,1-7.124-2.578s-.854-1.286,1.017-5.3C5599.007,2210.661,5598.871,2210.534,5601,2209.937Z" transform="translate(-5589.57 -2015.728)" fill="#263082"/>
      <path id="Trazado_8551" data-name="Trazado 8551" d="M5610.037,1913.07c-.44,4.414-8.517,4.542-8.57,1.185-.621-16.36-.663-36.3,2.964-43.9l-.108-57.9,26.816-8.023Z" transform="translate(-5592.811 -1718.59)" fill="#e67c4e"/>
      <path id="Trazado_8552" data-name="Trazado 8552" d="M5685.816,2230.968l7.069,2.643c5.493.315,8.36-.109,9.738,2.068l.391.617c1.379,2.177.074,4.059-2.9,4.181l-13.813,2.638a7.265,7.265,0,0,1-6.814-4.46s-.575-1.557,2.378-5.292C5683.549,2231.232,5683.438,2231.066,5685.816,2230.968Z" transform="translate(-5650.214 -2031.323)" fill="#263082"/>
      <path id="Trazado_8553" data-name="Trazado 8553" d="M5661.231,1955.388c-1.407,3.561-7.576,2.782-7.471-.141-.841-17.13-6.7-39.064-.659-52.3,0,0-7.551-33.146-11.644-48.654l24.91-1.62c.5,18.772.778,30.4,0,47.291C5665.573,1917.188,5664.342,1932.91,5661.231,1955.388Z" transform="translate(-5622.365 -1753.965)" fill="#e67c4e"/>
      <path id="Trazado_8554" data-name="Trazado 8554" d="M5633.017,1843.323l3.658,50.007s-14.258,20.25-39.833-1.51l.116-45.54Z" transform="translate(-5589.654 -1747.11)" fill="#263082"/>
      <path id="Trazado_8555" data-name="Trazado 8555" d="M5626.072,1795.967l3.842,50.817s-17.84,20.481-43.416-1.676l2.877-46.371Z" transform="translate(-5582.07 -1712.39)" fill="#f3f3f3"/>
      <ellipse id="Elipse_584" data-name="Elipse 584" cx="7.561" cy="13.339" rx="7.561" ry="13.339" transform="matrix(0.992, -0.128, 0.128, 0.992, 17.856, 3.869)" fill="#e67c4e"/>
      <path id="Trazado_8556" data-name="Trazado 8556" d="M5675.891,1508.033c-1.76,6.134-8.335,8.353-12.2,4.349s-5.573-12.223-3.813-18.357,6.321-7.861,10.187-3.856S5677.651,1501.9,5675.891,1508.033Z" transform="translate(-5635.361 -1486.603)" fill="#e67c4e"/>
      <path id="Trazado_8557" data-name="Trazado 8557" d="M5655.346,1572.124l-.658-.147a4.149,4.149,0,0,1-3.137-4.938l2.793-12.522a4.149,4.149,0,0,1,4.938-3.137l.657.147a4.15,4.15,0,0,1,3.137,4.938l-.915,12.427C5661.667,1571.112,5657.567,1572.619,5655.346,1572.124Z" transform="translate(-5629.693 -1532.991)" fill="#e67c4e"/>
      <path id="Trazado_8558" data-name="Trazado 8558" d="M5636.805,1505.047s-.762,4.253,6.661,4.663c5.939.328,4.174-10.413,10.063-11.373,6.478-1.057,7.651-9.059,5.1-12.13s-9.687-4.677-14.854-2.4S5627.756,1487.75,5636.805,1505.047Z" transform="translate(-5616.401 -1482.735)" fill="#263082"/>
      <circle id="Elipse_585" data-name="Elipse 585" cx="2.809" cy="2.809" r="2.809" transform="translate(31.35 20.639) rotate(-83.692)" fill="#e67c4e"/>
      <path id="Trazado_8559" data-name="Trazado 8559" d="M5596.652,1649.915c0-13.595-.172-22.491.027-35.848,0-24.011-1.152-29.872,11.542-26.219l3.578.95a24.518,24.518,0,0,1,4.929,1.9c16.765,8.637,21.239,11.293,20.5,21.3.073,15.836-7.01,19.554-3.94,32.628a4.821,4.821,0,0,1-.663,3.85C5626.245,1657.665,5600.213,1657.5,5596.652,1649.915Z" transform="translate(-5589.464 -1559.07)" fill="#f3f3f3"/>
      <path id="Trazado_8560" data-name="Trazado 8560" d="M5692,1582.685l-.666-1.538a4.219,4.219,0,0,0,3.443.9A5.41,5.41,0,0,1,5692,1582.685Z" transform="translate(-5658.933 -1554.889)" fill="#ba4141"/>
      <ellipse id="Elipse_586" data-name="Elipse 586" cx="5.35" cy="6.215" rx="5.35" ry="6.215" transform="translate(15.622 4.04)" fill="#4285ff"/>
      <path id="Trazado_8561" data-name="Trazado 8561" d="M5593.7,1504.788a3.156,3.156,0,0,0-5.792-1.882,12.218,12.218,0,0,0-1.436,3.816c-2.16,9.557-18.259,8.172-10.363,24.989,0,0-7.185,11.033,6.169,15.682,6.834,2.379,6.681-15.218,6.681-15.218s2.727-8.093,5.359-14.44a11.8,11.8,0,0,0,.039-9.309A7.355,7.355,0,0,1,5593.7,1504.788Z" transform="translate(-5572.87 -1496.474)" fill="#263082"/>
      <path id="Trazado_8562" data-name="Trazado 8562" d="M5646.455,1587.8a2.01,2.01,0,0,0-2.433,2.3,5.518,5.518,0,0,0,4.079,4.408c3.958,1.341,8.306.62,10.4.123a.57.57,0,0,0,.16-1.041C5656.3,1592.129,5650.646,1588.812,5646.455,1587.8Z" transform="translate(-5624.225 -1559.725)" fill="#d6d6d6"/>
      <path id="Trazado_8563" data-name="Trazado 8563" d="M5706.6,1661.642s-4.918,14.351,22.81,27.7c7.625,3.671,33.591-10.255,33.591-10.255l-2.062-5.354s-19.664,10.059-27.368,5.129C5724.891,1673.311,5719.979,1648.408,5706.6,1661.642Z" transform="translate(-5669.88 -1611.101)" fill="#e67c4e"/>
      <path id="Trazado_8564" data-name="Trazado 8564" d="M5689.024,1635.23l10.489,22.376c1.428,1.574,13.486-9.021,14.6-11.9,1.188-3.086-13.585-26.422-23.7-29.3C5682.2,1614.068,5683.1,1625.58,5689.024,1635.23Z" transform="translate(-5653.861 -1580.515)" fill="#f3f3f3"/>
      <path id="Trazado_8565" data-name="Trazado 8565" d="M5888.253,1725.253l-3.145,1.188a4.71,4.71,0,0,1-6.053-2.733h0a4.709,4.709,0,0,1,2.733-6.053l3.145-1.188a4.71,4.71,0,0,1,6.053,2.733h0A4.71,4.71,0,0,1,5888.253,1725.253Z" transform="translate(-5796.346 -1653.882)" fill="#e67c4e"/>
      <path id="Trazado_8566" data-name="Trazado 8566" d="M5723.695,1734.748l-4.047-8.634s.25,22.039,4.532,30.07Z" transform="translate(-5679.693 -1661.175)" fill="#d6d6d6"/>
    </g>
    <g id="Grupo_1490" data-name="Grupo 1490" transform="translate(5480.677 625.79)">
      <path id="Trazado_8567" data-name="Trazado 8567" d="M6573.039,1486.9h0a3.232,3.232,0,0,0,1.069,4.433l5.266,3.217a3.233,3.233,0,0,0,4.429-1.068h0a3.232,3.232,0,0,0-1.069-4.433l-5.266-3.216A3.233,3.233,0,0,0,6573.039,1486.9Z" transform="translate(-6556.841 -1468.844)" fill="#e67c4e"/>
      <path id="Trazado_8568" data-name="Trazado 8568" d="M6637.147,1544.478s-26.64,4.684-29.238-2.37-13.642-33.688-13.642-33.688l-9.095,2.166s8.012,46.122,15.591,50.02,31.831,3.144,31.831,3.144Z" transform="translate(-6566.083 -1485.746)" fill="#f3f3f3"/>
      <path id="Trazado_8569" data-name="Trazado 8569" d="M6750.288,2302.49c-7.744-4.182-20.7-4.489-29.4-.785a11.022,11.022,0,0,0-5.117-4.9c-7.976-4.307-21.482-4.5-30.168-.442s-9.262,10.847-1.287,15.155c7.744,4.182,20.7,4.489,29.4.784a11.023,11.023,0,0,0,5.117,4.9c7.976,4.307,21.482,4.5,30.168.442S6758.264,2306.8,6750.288,2302.49Z" transform="translate(-6634.649 -2061.306)" fill="#88aad4"/>
      <path id="Trazado_8570" data-name="Trazado 8570" d="M6803.563,1634.2s6.338,1.763,6.332,5.017a35.25,35.25,0,0,1-.628,6.253l-21.3-4.488,2.206-8.794Z" transform="translate(-6714.766 -1576.494)" fill="#c9c9c9"/>
      <path id="Trazado_8571" data-name="Trazado 8571" d="M6710.543,2285.134l11.788-8.082a10.566,10.566,0,0,1,6.318.024c1.09.319,1.292-.5,1.2.526l1.018,4.337c.993,2.9-1.305,4.65-4.621,5.652l-11.269,3.222a9.018,9.018,0,0,1-7.311-.946l-.478-.361C6705.5,2288.231,6708.049,2286.485,6710.543,2285.134Z" transform="translate(-6655.144 -2048.946)" fill="#2130a7"/>
      <path id="Trazado_8572" data-name="Trazado 8572" d="M6770.913,2252.067c-.191,3.362-8.37,2.9-8.179-.465l.622-10.928,8.179.465Z" transform="translate(-6696.265 -2022.619)" fill="#f3f3f3"/>
      <path id="Trazado_8573" data-name="Trazado 8573" d="M6758.513,1963.856c-3.439,2.558-6.864,2.45-10.272-.271,0,0-5.746-67.58-3.833-102.288l25.778-8.049c-3.233,21.283-10.251,56.228-10.251,56.228C6767.409,1926.992,6760.67,1948.668,6758.513,1963.856Z" transform="translate(-6682.545 -1738.566)" fill="#5f6cd9"/>
      <path id="Trazado_8574" data-name="Trazado 8574" d="M6786.918,1853.247l-7.229,2.257c-1.98,12.609-5.064,29.093-7.264,40.51a62.186,62.186,0,0,0,0,22.516c2.716,15.506-2.264,32.669-4.061,45.325a10.956,10.956,0,0,1-1.527.954c2.792,1.445,5.594,1.138,8.407-.954,1.917-13.5,7.455-32.127,3.412-48.4a34.327,34.327,0,0,1-.246-14.827C6780.7,1888.856,6784.7,1867.84,6786.918,1853.247Z" transform="translate(-6699.277 -1738.566)" fill="#434fb0"/>
      <path id="Trazado_8575" data-name="Trazado 8575" d="M6877.058,2285.022c.346,3.35-7.8,4.192-8.148.842l-1.125-10.887,8.148-.843Z" transform="translate(-6773.288 -2047.152)" fill="#f3f3f3"/>
      <path id="Trazado_8576" data-name="Trazado 8576" d="M6828.546,1994.718c-3.508,2.862-6.916,3.361-10.209,1.165,0,0-2.924-22.444-7.52-46.349-3.557-18.5-8.826-37.087-10.037-51.814l23.949-13.959c-.211,13.09.763,41.9,1.214,54.265a20.725,20.725,0,0,0,2.1,8.3C6833.542,1957.654,6828.546,1994.718,6828.546,1994.718Z" transform="translate(-6724.163 -1760.937)" fill="#5f6cd9"/>
      <path id="Trazado_8577" data-name="Trazado 8577" d="M6736.8,1733.989c.822-11.914,1.159-60.484.41-75.451,1.419-20.553,9.71-27.624,22.332-22.006l5.252,1.79c15.047,9.5,23.013,9.624,19.077,25.97l-.227,68.423C6782.359,1751.38,6734.293,1755.862,6736.8,1733.989Z" transform="translate(-6677.186 -1578.314)" fill="#f3f3f3"/>
      <path id="Trazado_8578" data-name="Trazado 8578" d="M6815.047,1745.678l-.227,68.423c-.848,12.289-21.977,18.43-35.595,14.947C6807.5,1820.135,6805.748,1749.339,6815.047,1745.678Z" transform="translate(-6708.359 -1659.698)" fill="#d6d6d6"/>
      <g id="Grupo_1489" data-name="Grupo 1489" transform="translate(74.388 54.138)">
        <g id="Grupo_1488" data-name="Grupo 1488">
          <path id="Trazado_8579" data-name="Trazado 8579" d="M6811.927,1635.849s.414,5.684-8.138,9.75a16.806,16.806,0,0,0-8.134,9.354c-.763,1.938-1.847.861-1.9-1.251a52.546,52.546,0,0,0-1.033-11.214c-1.33-6.67,2.245-16.1,2.6-16.145S6811.927,1635.849,6811.927,1635.849Z" transform="translate(-6792.424 -1626.343)" fill="#fff"/>
        </g>
      </g>
      <path id="Trazado_8580" data-name="Trazado 8580" d="M6796.255,1629.042s-8.037,1.824-6.865,9.341l-.566,8.737s-5.223-10.4-1.611-19.414S6796.255,1629.042,6796.255,1629.042Z" transform="translate(-6713.282 -1570.501)" fill="#c9c9c9"/>
      <path id="Trazado_8581" data-name="Trazado 8581" d="M6812.361,1594.855s1.239,2.386,2.106,2.92,13.9-3.98,13.551-14.443c-.224-6.626-12.805-6.038-12.805-6.038Z" transform="translate(-6732.653 -1536.233)" fill="#2130a7"/>
      <path id="Trazado_8582" data-name="Trazado 8582" d="M6813.759,1626.193l-.63.046a3.891,3.891,0,0,1-4.151-3.588l-.873-12a3.891,3.891,0,0,1,3.588-4.151l.63-.046a3.891,3.891,0,0,1,4.151,3.588l2.534,11.408C6819.163,1623.578,6815.887,1626.038,6813.759,1626.193Z" transform="translate(-6729.524 -1557.615)" fill="#e67c4e"/>
      <path id="Trazado_8583" data-name="Trazado 8583" d="M6809.9,1635.649a10.623,10.623,0,0,0,8.835-3.947s-3.9,7.111-8.591,7.3Z" transform="translate(-6730.849 -1576.133)" fill="#ba4141"/>
      <path id="Trazado_8584" data-name="Trazado 8584" d="M6824.436,1641.462s4.932,7.233-5.506,11.728c0,0-4.2,3.7-4.635,8.1,0,0,3.571-2.381,5.631-3.668S6837.231,1648.5,6824.436,1641.462Z" transform="translate(-6734.071 -1583.289)" fill="#c9c9c9"/>
      <ellipse id="Elipse_587" data-name="Elipse 587" cx="11.656" cy="6.607" rx="11.656" ry="6.607" transform="matrix(0.143, -0.99, 0.99, 0.143, 70.206, 58.381)" fill="#e67c4e"/>
      <path id="Trazado_8585" data-name="Trazado 8585" d="M6802.98,1577.9c-2.923,4.749-12.394,6.3-14.705,2.016s1.6-12.822,4.521-17.571,7.167-5.129,9.479-.85S6805.9,1573.147,6802.98,1577.9Z" transform="translate(-6714.48 -1522.474)" fill="#e67c4e"/>
      <path id="Trazado_8586" data-name="Trazado 8586" d="M6817.487,1561.584s-2.98,9.9,4.622,13.62c0,0,9.98-3.585,5.106-14.52-4.3-9.638-14.853-4.806-14.853-4.806Z" transform="translate(-6732.654 -1519.653)" fill="#263082"/>
      <path id="Trazado_8587" data-name="Trazado 8587" d="M6782.986,1575.541a9.806,9.806,0,0,1,7.458-5.019l-3.708-3.234S6782.311,1567.49,6782.986,1575.541Z" transform="translate(-6711.064 -1528.906)" fill="#2130a7"/>
      <path id="Trazado_8588" data-name="Trazado 8588" d="M6796.773,1565.406c-1.33-2.683-5.091-3.336-10.78-2.377a4.79,4.79,0,0,1-2.583-.2c-3.824-1.536-3.533-6.57-3.533-6.57-.262-3.448,2.187-4.542,5.634-4.8l8.98-.683c5.085-.414,9.066,4.424,9.329,7.872l.127.583C6804.21,1562.673,6800.222,1565.144,6796.773,1565.406Z" transform="translate(-6708.823 -1516.777)" fill="#263082"/>
      <path id="Trazado_8589" data-name="Trazado 8589" d="M6839.98,1620.79a2.455,2.455,0,1,1-.8-3.378A2.455,2.455,0,0,1,6839.98,1620.79Z" transform="translate(-6749.57 -1565.39)" fill="#e67c4e"/>
      <path id="Trazado_8590" data-name="Trazado 8590" d="M6871.858,2314.517l.58,6.929a41.559,41.559,0,0,0,1.214,5.875,5,5,0,0,0,4.265,3.123c2.122.145,6.386-3.607,4.865-8.263-1.326-4.058-2.76-8.335-2.76-8.335C6877.029,2315.22,6874.248,2315.7,6871.858,2314.517Z" transform="translate(-6776.275 -2076.266)" fill="#2130a7"/>
      <path id="Trazado_8591" data-name="Trazado 8591" d="M6587.473,1514.483l-2.3.547s8.012,46.123,15.591,50.021c5.127,2.637,17.88,3.145,25.6,3.2l-.034-6.735s-16.319.567-21.959-1.833C6599.415,1557.573,6589.259,1521.912,6587.473,1514.483Z" transform="translate(-6566.083 -1490.191)" fill="#d6d6d6"/>
      <path id="Trazado_8592" data-name="Trazado 8592" d="M6537.494,1444.107a1.4,1.4,0,0,1,.058,1.969h0a1.4,1.4,0,0,1-1.969.058l-21.519-20.288a1.4,1.4,0,0,1-.058-1.969h0a1.4,1.4,0,0,1,1.969-.058" transform="translate(-6513.629 -1423.441)" fill="#2130a7"/>
      <line id="Línea_100" data-name="Línea 100" x1="1.908" y2="73.58" transform="translate(72.658 86.856)" fill="none" stroke="#c9c9c9" stroke-linecap="round" stroke-linejoin="round" stroke-width="3.456"/>
      <path id="Trazado_8593" data-name="Trazado 8593" d="M6861.4,1952.593h0a3.232,3.232,0,0,0,4.483-.827l3.494-5.078a3.233,3.233,0,0,0-.827-4.481h0a3.232,3.232,0,0,0-4.484.827l-3.493,5.078A3.233,3.233,0,0,0,6861.4,1952.593Z" transform="translate(-6767.588 -1803.374)" fill="#e67c4e"/>
      <path id="Trazado_8594" data-name="Trazado 8594" d="M6846.269,1701.766s25.536,19.9,22.639,26.837-15.761,28.765-15.761,28.765l8.137,4.6s26.134-28.126,23.973-36.37c-2.707-10.322-22.536-34.857-22.536-34.857Z" transform="translate(-6757.514 -1619.422)" fill="#f3f3f3"/>
    </g>
    <path id="Trazado_8595" data-name="Trazado 8595" d="M5729.219,1024.425c23.326-1.04,44.334-19.55,43.925-40.374l.468-68.085L5729.1,879.372Z" transform="translate(-457.753 -398.751)" fill="#88aad4" opacity="0.72" style="mix-blend-mode: multiply;isolation: isolate"/>
    <g id="Grupo_1491" data-name="Grupo 1491" transform="translate(5196.708 481.881)">
      <path id="Trazado_8596" data-name="Trazado 8596" d="M5502,1023.23h0c-24.289-8.535-40.837-38.719-40.637-66.2l-10.239-56.587,10.707-7.9,47.519-8.445,47.207,34.594-.468,64.49C5556.552,1005.713,5528.99,1026.662,5502,1023.23Z" transform="translate(-5450.651 -884.093)" fill="#7aa5f0"/>
      <path id="Trazado_8597" data-name="Trazado 8597" d="M5495.095,1052.945h0c-24.289-8.535-45.931-38.812-45.731-66.3l.468-64.49,47.519-8.445,47.207,34.594-.468,64.49C5544.557,1035.334,5523.9,1054.645,5495.095,1052.945Z" transform="translate(-5449.362 -905.811)" fill="#f5f6f7"/>
      <path id="Trazado_8598" data-name="Trazado 8598" d="M5515.989,1082.335c-21.671-10.513-38.055-33.914-37.9-55.894l.375-51.577,38-6.754,37.754,27.667-.374,51.577C5553.692,1069.334,5515.989,1082.335,5515.989,1082.335Z" transform="translate(-5470.427 -945.693)" fill="#3b49b8"/>
      <path id="Trazado_8599" data-name="Trazado 8599" d="M5620.122,1082.335h0l.482-114.224,37.754,27.667-.374,51.577C5657.825,1069.334,5636.847,1082.352,5620.122,1082.335Z" transform="translate(-5574.56 -945.693)" fill="#2130a7"/>
      <path id="Trazado_8600" data-name="Trazado 8600" d="M5603.963,1122.616l-16.748-4.536.122-47.382,16.747,4.536Z" transform="translate(-5550.434 -1020.908)" fill="#f6f3ee"/>
      <path id="Trazado_8601" data-name="Trazado 8601" d="M5534.69,1129.2l.045-17.691,44.854,12.148-.045,17.691Z" transform="translate(-5511.923 -1050.828)" fill="#f6f3ee"/>
    </g>
  </g>
</svg>
