<svg xmlns="http://www.w3.org/2000/svg" width="139.683" height="139.683" viewBox="0 0 139.683 139.683">
  <g id="Grupo_1769" data-name="Grupo 1769" transform="translate(-204 -1312)">
    <g id="Grupo_1182" data-name="Grupo 1182" transform="translate(0 -329)">
      <g id="Grupo_1133" data-name="Grupo 1133" transform="translate(204 1641)">
        <circle id="Elipse_520" data-name="Elipse 520" cx="69.841" cy="69.841" r="69.841" fill="#57b8e8"/>
        <circle id="Elipse_521" data-name="Elipse 521" cx="62.739" cy="62.739" r="62.739" transform="translate(7.103 7.103)" fill="#fff"/>
      </g>
      <g id="Grupo_1181" data-name="Grupo 1181" transform="translate(141.333 1647.316)">
        <path id="Trazado_6303" data-name="Trazado 6303" d="M309.825,248v8.737A5.825,5.825,0,0,0,304,262.561v26.21a2.912,2.912,0,0,0,2.912,2.912h11.649a2.912,2.912,0,0,0,2.912-2.912v-26.21a5.825,5.825,0,0,0-5.825-5.825V248Z" transform="translate(-163.597 -189.772)" fill="#e9eef2"/>
        <path id="Trazado_6304" data-name="Trazado 6304" d="M173.825,128.737v-5.825a2.912,2.912,0,0,0-5.825,0v5.825Z" transform="translate(-52.351 -85.07)" fill="#e9eef2"/>
        <path id="Trazado_6305" data-name="Trazado 6305" d="M168.737,160.737v-5.825A2.912,2.912,0,0,0,165.825,152h-2.912A2.912,2.912,0,0,0,160,154.912v5.825Z" transform="translate(-45.807 -111.246)" fill="#c3c6c7"/>
        <path id="Trazado_6306" data-name="Trazado 6306" d="M320,232h11.649v5.825H320Z" transform="translate(-176.683 -176.684)" fill="#7e8589"/>
        <path id="Trazado_6307" data-name="Trazado 6307" d="M122.912,456h17.474a2.912,2.912,0,0,1,2.912,2.912v2.912H120v-2.912A2.912,2.912,0,0,1,122.912,456Z" transform="translate(-13.088 -359.912)" fill="#e9eef2"/>
        <path id="Trazado_6308" data-name="Trazado 6308" d="M153.474,224.772V192.737c0-4.825-3.353-8.737-7.489-8.737h-2.5c-4.136,0-7.489,3.912-7.489,8.737v32.035Z" transform="translate(-26.175 -137.421)" fill="#e9eef2"/>
        <path id="Trazado_6309" data-name="Trazado 6309" d="M122.912,456h17.474a2.912,2.912,0,0,1,2.912,2.912v2.912H120v-2.912A2.912,2.912,0,0,1,122.912,456Z" transform="translate(-13.088 -359.912)" fill="#c3c6c7"/>
        <path id="Trazado_6310" data-name="Trazado 6310" d="M304,328v26.211a2.912,2.912,0,0,0,2.912,2.912h11.649a2.912,2.912,0,0,0,2.912-2.912V328Z" transform="translate(-163.597 -255.211)" fill="#67c5e0"/>
        <path id="Trazado_6311" data-name="Trazado 6311" d="M131.667,85.895h-2.912V55.316a10.545,10.545,0,0,0-4.368-8.754v-2.9a4.358,4.358,0,0,0-1.456-3.252V37.842a4.375,4.375,0,0,0-2.912-4.118V17.456a1.456,1.456,0,1,0-2.912,0V33.724a4.375,4.375,0,0,0-2.912,4.118v2.572a4.358,4.358,0,0,0-1.456,3.252v2.9a10.546,10.546,0,0,0-4.368,8.754V85.895h-2.912a1.456,1.456,0,1,0,0,2.912h5.825v5.825h-1.456A4.373,4.373,0,0,0,105.456,99v2.912a1.456,1.456,0,0,0,1.456,1.456h23.3a1.456,1.456,0,0,0,1.456-1.456V99a4.373,4.373,0,0,0-4.368-4.368h-1.456V88.807h5.825a1.456,1.456,0,1,0,0-2.912ZM117.105,37.842a1.456,1.456,0,0,1,2.912,0V39.3h-2.912Zm-1.456,5.825a1.458,1.458,0,0,1,1.456-1.456h2.912a1.458,1.458,0,0,1,1.456,1.456V45.3a7.9,7.9,0,0,0-1.664-.18h-2.5a7.9,7.9,0,0,0-1.664.18Zm-4.368,42.228V82.982h8.737a1.456,1.456,0,0,0,0-2.912h-8.737V77.158h4.368a1.456,1.456,0,0,0,0-2.912h-4.368V71.333h8.737a1.456,1.456,0,0,0,0-2.912h-8.737V65.509h4.368a1.456,1.456,0,0,0,0-2.912h-4.368V59.684h8.737a1.456,1.456,0,0,0,0-2.912h-8.737V55.316c0-4.015,2.706-7.281,6.033-7.281h2.5c3.326,0,6.033,3.266,6.033,7.281V85.895Zm11.649,2.912v5.825h-2.912V88.807Zm-5.825,0v5.825h-2.912V88.807ZM127.3,97.544A1.458,1.458,0,0,1,128.754,99v1.456H108.368V99a1.458,1.458,0,0,1,1.456-1.456Z" fill="#0b2d4e"/>
        <path id="Trazado_6312" data-name="Trazado 6312" d="M310.561,235.795v-3.058h1.456a1.456,1.456,0,0,0,1.456-1.456v-5.825A1.456,1.456,0,0,0,312.018,224H300.368a1.456,1.456,0,0,0-1.456,1.456v5.825a1.456,1.456,0,0,0,1.456,1.456h1.456v3.058A7.294,7.294,0,0,0,296,242.93v26.21a4.374,4.374,0,0,0,4.368,4.368h11.649a4.374,4.374,0,0,0,4.368-4.368V242.93A7.294,7.294,0,0,0,310.561,235.795Zm-8.737-5.97v-2.912h8.737v2.912Zm1.456,8.737a1.456,1.456,0,0,0,1.456-1.456v-4.368h2.912v4.368a1.456,1.456,0,0,0,1.456,1.456,4.375,4.375,0,0,1,4.118,2.912H299.163A4.376,4.376,0,0,1,303.281,238.561Zm10.193,30.579a1.458,1.458,0,0,1-1.456,1.456H300.368a1.458,1.458,0,0,1-1.456-1.456V244.386h14.561Z" transform="translate(-157.053 -170.14)" fill="#0b2d4e"/>
      </g>
    </g>
  </g>
</svg>
