<svg id="Grupo_1131" data-name="Grupo 1131" xmlns="http://www.w3.org/2000/svg" width="139.683" height="139.683" viewBox="0 0 139.683 139.683">
  <g id="Grupo_1129" data-name="Grupo 1129">
    <circle id="Elipse_518" data-name="Elipse 518" cx="69.841" cy="69.841" r="69.841" fill="#57b8e8"/>
    <circle id="Elipse_519" data-name="Elipse 519" cx="62.739" cy="62.739" r="62.739" transform="translate(7.103 7.103)" fill="#fff"/>
  </g>
  <g id="Grupo_1180" data-name="Grupo 1180" transform="translate(-2900.223 -328.012)">
    <path id="Trazado_6295" data-name="Trazado 6295" d="M2995.317,364.545a1.953,1.953,0,1,0,0-3.906h0a1.954,1.954,0,0,0,0,3.907Z" fill="#cedae7"/>
    <path id="Trazado_6296" data-name="Trazado 6296" d="M2940.179,391.021a18.035,18.035,0,0,0-2.521,1.641,13.082,13.082,0,0,1-7.97,2.719h-1.838v23.2h1.836a12.886,12.886,0,0,1,7.918,2.678,17.923,17.923,0,0,0,11.144,3.833h34.46a3.542,3.542,0,0,0,0-7.084h-15.279a1.313,1.313,0,1,1,0-2.627H2989.7a3.542,3.542,0,0,0,0-7.084h-10.139a1.314,1.314,0,0,1,0-2.628h15.937a3.542,3.542,0,0,0,0-7.084h-27.564a1.313,1.313,0,1,1,0-2.627H2989.7a3.542,3.542,0,0,0,0-7.084h-26.717a1.315,1.315,0,0,1-.656-2.452l5.251-3.033.092-.053a3.542,3.542,0,0,0-3.634-6.081l-18.459,10.657a1.3,1.3,0,0,1-1.682-.353l-3.147,1.859A1.3,1.3,0,0,1,2940.179,391.021Zm27.75,14.643h5.5a1.313,1.313,0,0,1,0,2.627h-5.5a1.313,1.313,0,1,1,0-2.627Z" fill="#d8b398"/>
    <path id="Trazado_6297" data-name="Trazado 6297" d="M3004.335,373.732a2.995,2.995,0,1,0,0-5.99v0a3,3,0,0,0,0,5.992Z" fill="#cedae7"/>
    <path id="Trazado_6298" data-name="Trazado 6298" d="M3004.064,389.312a11.738,11.738,0,0,0-3.131-3.129,2.46,2.46,0,0,1-1.039-2.46,5.034,5.034,0,0,0-8.331-4.611,2.423,2.423,0,0,1-2.77.318,8.062,8.062,0,0,0-11.864,6.757v.056H2989.7a6.165,6.165,0,0,1,5.049,9.71h.749a6.166,6.166,0,0,1,4.7,10.159,11.7,11.7,0,0,0,5.822-11.542,1.3,1.3,0,0,1,1.007-1.381l-.717-2.277-.8-1.107A1.3,1.3,0,0,1,3004.064,389.312Z" fill="#cedae7"/>
    <g id="Grupo_1180-2" data-name="Grupo 1180">
      <path id="Trazado_6299" data-name="Trazado 6299" d="M2996.441,425.085a3.542,3.542,0,0,0,0-7.084h-8.185a6.156,6.156,0,0,1,0,7.084Z" fill="#b7907b"/>
      <path id="Trazado_6300" data-name="Trazado 6300" d="M2980.193,376.971a3.542,3.542,0,0,0-2.928.279l-5.291,3.055h0c0,4.3-3.834,5.7-4.091,5.936h6.417a1.506,1.506,0,0,0,.006-.163A10.672,10.672,0,0,1,2980.193,376.971Z" fill="#b7907b"/>
      <path id="Trazado_6301" data-name="Trazado 6301" d="M3012.269,402.122a3.542,3.542,0,0,0-3.542-3.542h-.256a14.225,14.225,0,0,1-3.552,7.084h3.808A3.542,3.542,0,0,0,3012.269,402.122Z" fill="#b7907b"/>
      <path id="Trazado_6302" data-name="Trazado 6302" d="M3002.926,415.375a3.542,3.542,0,0,0,0-7.084h-1.268a14.323,14.323,0,0,1-6.015,1.916,6.166,6.166,0,0,1-.9,5.167h8.183Z" fill="#b7907b"/>
    </g>
    <g id="Grupo_1130" data-name="Grupo 1130">
      <path id="Trazado_6202" data-name="Trazado 6202" d="M2967.929,408.291h5.5a1.313,1.313,0,0,0,0-2.627h-5.5a1.313,1.313,0,1,0,0,2.627Z" fill="#0b2d4e"/>
      <path id="Trazado_6203" data-name="Trazado 6203" d="M3004.336,376.36a5.623,5.623,0,1,0-5.622-5.624h0A5.628,5.628,0,0,0,3004.336,376.36Zm0-8.618a2.995,2.995,0,1,1-2.995,2.995h0a3,3,0,0,1,2.995-3Z" fill="#0b2d4e"/>
      <path id="Trazado_6204" data-name="Trazado 6204" d="M2995.318,367.172a4.58,4.58,0,1,0-4.58-4.58h0A4.584,4.584,0,0,0,2995.318,367.172Zm0-6.533a1.953,1.953,0,1,1-1.953,1.953,1.953,1.953,0,0,1,1.953-1.953Z" fill="#0b2d4e"/>
      <path id="Trazado_6205" data-name="Trazado 6205" d="M3014.9,402.122a6.177,6.177,0,0,0-6.169-6.17h-.011a14.664,14.664,0,0,0-.09-1.676,1.314,1.314,0,0,0-2.611.294,11.7,11.7,0,0,1-5.821,11.542,6.167,6.167,0,0,0-4.7-10.159h-.749a6.165,6.165,0,0,0-5.049-9.71h-12.767v-.056a8.063,8.063,0,0,1,11.865-6.757,2.422,2.422,0,0,0,2.769-.318,5.034,5.034,0,0,1,8.331,4.611,2.459,2.459,0,0,0,1.039,2.46,11.77,11.77,0,0,1,3.132,3.129,1.314,1.314,0,0,0,2.172-1.479,14.375,14.375,0,0,0-3.738-3.761,7.661,7.661,0,0,0-12.576-7.017,10.727,10.727,0,0,0-6.522-1.1,6.176,6.176,0,0,0-7.449-.984l-4.6,2.654a6.177,6.177,0,0,0-8.254-2.857c-.13.063-.258.131-.383.2l-18.456,10.657a1.313,1.313,0,0,0,1.313,2.275l18.459-10.657a3.542,3.542,0,1,1,3.633,6.081c-.03.018-.06.036-.091.053l-5.251,3.033a1.315,1.315,0,0,0,.656,2.452H2989.7a3.542,3.542,0,0,1,0,7.084h-21.766a1.313,1.313,0,1,0,0,2.627h27.564a3.542,3.542,0,0,1,0,7.084h-15.937a1.314,1.314,0,0,0,0,2.628H2989.7a3.542,3.542,0,0,1,0,7.084h-21.766a1.313,1.313,0,1,0,0,2.627h15.279a3.542,3.542,0,0,1,0,7.084h-34.46a17.923,17.923,0,0,1-11.144-3.833,12.886,12.886,0,0,0-7.918-2.678h-1.836v-23.2h1.838a13.082,13.082,0,0,0,7.97-2.719,18.035,18.035,0,0,1,2.521-1.641,1.314,1.314,0,0,0-1.245-2.314,20.843,20.843,0,0,0-2.886,1.879,10.418,10.418,0,0,1-6.36,2.167h-3.151a1.314,1.314,0,0,0-1.314,1.314v25.819a1.314,1.314,0,0,0,1.314,1.314h3.146a10.256,10.256,0,0,1,6.3,2.12,20.53,20.53,0,0,0,12.761,4.391h47.7a6.165,6.165,0,0,0,5.049-9.71h1.438a6.166,6.166,0,0,0,5.049-9.711h.749A6.177,6.177,0,0,0,3014.9,402.122ZM2971.974,380.3l5.291-3.055a3.543,3.543,0,0,1,2.929-.279,10.671,10.671,0,0,0-5.888,9.108,1.506,1.506,0,0,1-.006.163h-6.417c.257-.239,4.092-1.637,4.091-5.936Zm24.468,44.78h-8.186a6.156,6.156,0,0,0,0-7.084h8.186a3.542,3.542,0,0,1,0,7.084Zm6.487-9.711h-8.186a6.166,6.166,0,0,0,.9-5.167,14.323,14.323,0,0,0,6.015-1.916h1.268a3.542,3.542,0,0,1,0,7.084Zm1.991-9.71a14.223,14.223,0,0,0,3.551-7.084h.256a3.542,3.542,0,0,1,0,7.084Z" fill="#0b2d4e"/>
    </g>
  </g>
</svg>
