<svg xmlns="http://www.w3.org/2000/svg" width="606.53" height="510.718" viewBox="0 0 606.53 510.718">
  <g id="Grupo_1831" data-name="Grupo 1831" transform="translate(2393.453 -447.379)">
    <path id="Trazado_8876" data-name="Trazado 8876" d="M-2256.984,447.379h-110.494c-14.346,0-25.975,10.287-25.975,22.977v69.627c0,12.69,11.629,22.977,25.975,22.977h110.494l46.524-57.79Z" fill="#27aae1"/>
    <path id="Trazado_8877" data-name="Trazado 8877" d="M-2256.984,710.8h-110.494c-14.346,0-25.975,10.287-25.975,22.977v69.627c0,12.689,11.629,22.977,25.975,22.977h110.494l46.524-57.791Z" fill="#27aae1"/>
    <path id="Trazado_8878" data-name="Trazado 8878" d="M-2256.984,579.091h-110.494c-14.346,0-25.975,10.288-25.975,22.977V671.7c0,12.69,11.629,22.977,25.975,22.977h110.494l46.524-57.79Z" fill="#27aae1"/>
    <path id="Trazado_8879" data-name="Trazado 8879" d="M-2256.984,958.1l46.524-57.791-46.524-57.79h-110.494c-14.346,0-25.975,10.287-25.975,22.977V935.12c0,12.69,11.629,22.977,25.975,22.977h110.494Z" fill="#27aae1"/>
    <path id="Trazado_8880" data-name="Trazado 8880" d="M-2054.448,710.8h-202.536l46.524,57.79-46.524,57.791h448.712a21.349,21.349,0,0,0,21.349-21.349V732.153a21.349,21.349,0,0,0-21.349-21.349Z" fill="#fff"/>
    <g id="Grupo_1817" data-name="Grupo 1817">
      <g id="Grupo_1815" data-name="Grupo 1815">
        <path id="Trazado_8881" data-name="Trazado 8881" d="M-2334.056,793.99a11.974,11.974,0,0,1-6.93-1.944,11.56,11.56,0,0,1-4.211-5.162,20.532,20.532,0,0,1-1.324-7.643V757.889c0-4.568,1.044-8.129,3.072-10.744,2.124-2.631,5.225-3.947,9.393-3.947,4.107,0,7.221,1.316,9.286,3.947,2.116,2.615,3.172,6.252,3.172,10.744v21.352c0,4.45-1.086,8.045-3.21,10.7Q-2327.994,793.99-2334.056,793.99Zm0-5.824c3.538,0,5.322-2.975,5.322-8.925V757.889c0-1.006-.05-1.86-.1-2.632a14.963,14.963,0,0,0-.47-2.421,6.814,6.814,0,0,0-.946-2,4.244,4.244,0,0,0-1.513-1.324,5.064,5.064,0,0,0-2.3-.47,5.139,5.139,0,0,0-2.329.47,4.246,4.246,0,0,0-1.533,1.324,6.33,6.33,0,0,0-.914,2,11.8,11.8,0,0,0-.481,2.421c-.068.772-.076,1.626-.076,2.632v21.352a19.381,19.381,0,0,0,.218,3.235,12.791,12.791,0,0,0,.791,2.766,4.465,4.465,0,0,0,1.685,2.136A4.351,4.351,0,0,0-2334.056,788.166Z" fill="#fff"/>
      </g>
      <g id="Grupo_1816" data-name="Grupo 1816">
        <path id="Trazado_8882" data-name="Trazado 8882" d="M-2304.34,793.99c-4.051,0-7.106-1.139-9.276-3.436-2.12-2.245-3.18-5.414-3.18-9.545v-1.768h7.127c0,1.106.012,2.07.1,2.866a15.327,15.327,0,0,0,.415,2.388,5.611,5.611,0,0,0,.846,1.969,4.439,4.439,0,0,0,1.564,1.191,5.239,5.239,0,0,0,2.408.511,5.015,5.015,0,0,0,2.372-.511,4.4,4.4,0,0,0,1.58-1.191,5.807,5.807,0,0,0,.871-1.969,15.193,15.193,0,0,0,.411-2.388c.075-.8.1-1.76.1-2.866a11.528,11.528,0,0,0-1.651-6.586c-1.1-1.517-2.94-2.28-5.463-2.28v-7.123c2.581,0,4.416-.52,5.5-1.6,1.081-1.055,1.613-2.916,1.613-5.531a9.609,9.609,0,0,0-1.186-5.287c-.762-1.215-2.161-1.794-4.148-1.794a5.565,5.565,0,0,0-2.408.47,4.414,4.414,0,0,0-1.564,1.19,5.88,5.88,0,0,0-.846,2,14.229,14.229,0,0,0-.415,2.363,27.892,27.892,0,0,0-.1,2.824h-7.127V756.12c0-4.056,1.06-7.19,3.226-9.511q3.186-3.418,9.23-3.411c4.044,0,7.119,1.132,9.257,3.4q3.172,3.393,3.167,9.527a11.88,11.88,0,0,1-1.873,6.931,9.467,9.467,0,0,1-5.217,3.787,9.379,9.379,0,0,1,5.314,4.333,16.445,16.445,0,0,1,1.776,8.07c0,4.693-.972,8.288-2.962,10.869C-2296.914,792.733-2300.053,793.99-2304.34,793.99Z" fill="#fff"/>
      </g>
    </g>
    <g id="Grupo_1818" data-name="Grupo 1818">
      <path id="Trazado_8883" data-name="Trazado 8883" d="M-2155.006,770.83a3.76,3.76,0,0,1,3.026,3.983,4.322,4.322,0,0,1-1.279,3.3,5.29,5.29,0,0,1-3.76,1.206h-6.619V763.243h5.206a5.9,5.9,0,0,1,3.932,1.164,4.029,4.029,0,0,1,1.363,3.242,3.776,3.776,0,0,1-.473,1.907A3.1,3.1,0,0,1-2155.006,770.83Zm-3.393-4.817h-2.024V769.8h2.169a2.032,2.032,0,0,0,1.535-.534,1.944,1.944,0,0,0,.512-1.4,1.726,1.726,0,0,0-.557-1.34A2.353,2.353,0,0,0-2158.4,766.013Zm.757,10.446a2.565,2.565,0,0,0,1.841-.567,1.933,1.933,0,0,0,.584-1.446,2.022,2.022,0,0,0-.59-1.491,2.609,2.609,0,0,0-1.9-.59h-2.714v4.094Z" fill="#002b45"/>
      <path id="Trazado_8884" data-name="Trazado 8884" d="M-2138.253,779.318l-1.168-3.315h-6.752l-1.168,3.315h-3.416l5.919-16.075h4.082l5.918,16.075Zm-6.941-6.107h4.794l-2.392-6.819Z" fill="#002b45"/>
      <path id="Trazado_8885" data-name="Trazado 8885" d="M-2123.936,779.318l-4.183-7.075h-.968v7.075h-3.337V763.243h5.829a6.775,6.775,0,0,1,2.336.372,4.061,4.061,0,0,1,1.619,1.036,4.44,4.44,0,0,1,.912,1.518,5.551,5.551,0,0,1,.306,1.88,3.919,3.919,0,0,1-.879,2.641,4.415,4.415,0,0,1-2.525,1.386l4.839,7.242Zm-5.151-13.3v3.838h1.969q2.5,0,2.5-1.913a1.744,1.744,0,0,0-.611-1.413,2.912,2.912,0,0,0-1.892-.512Z" fill="#002b45"/>
      <path id="Trazado_8886" data-name="Trazado 8886" d="M-2109.052,779.318l-4.183-7.075h-.967v7.075h-3.338V763.243h5.829a6.78,6.78,0,0,1,2.337.372,4.061,4.061,0,0,1,1.618,1.036,4.441,4.441,0,0,1,.912,1.518,5.551,5.551,0,0,1,.306,1.88,3.919,3.919,0,0,1-.879,2.641,4.412,4.412,0,0,1-2.525,1.386l4.839,7.242Zm-5.15-13.3v3.838h1.969q2.5,0,2.5-1.913a1.742,1.742,0,0,0-.612-1.413,2.911,2.911,0,0,0-1.891-.512Z" fill="#002b45"/>
      <path id="Trazado_8887" data-name="Trazado 8887" d="M-2093.333,766.18h-5.963v3.649h5.284v2.9h-5.284v3.638h5.963v2.948h-9.322V763.243h9.322Z" fill="#002b45"/>
      <path id="Trazado_8888" data-name="Trazado 8888" d="M-2081.408,779.318l-4.183-7.075h-.968v7.075h-3.337V763.243h5.829a6.776,6.776,0,0,1,2.336.372,4.06,4.06,0,0,1,1.619,1.036,4.441,4.441,0,0,1,.912,1.518,5.557,5.557,0,0,1,.306,1.88,3.919,3.919,0,0,1-.879,2.641,4.418,4.418,0,0,1-2.525,1.386l4.839,7.242Zm-5.151-13.3v3.838h1.969q2.5,0,2.5-1.913a1.742,1.742,0,0,0-.612-1.413,2.91,2.91,0,0,0-1.891-.512Z" fill="#002b45"/>
      <path id="Trazado_8889" data-name="Trazado 8889" d="M-2064.121,779.318l-1.168-3.315h-6.753l-1.168,3.315h-3.415l5.918-16.075h4.083l5.918,16.075Zm-6.942-6.107h4.795l-2.392-6.819Z" fill="#002b45"/>
      <path id="Trazado_8890" data-name="Trazado 8890" d="M-2052.953,779.54a7.768,7.768,0,0,1-4.46-1.228,4.935,4.935,0,0,1-2.17-3.444l3.449-.79a2.929,2.929,0,0,0,1.062,2.031,3.525,3.525,0,0,0,2.253.706,2.9,2.9,0,0,0,1.758-.5,1.667,1.667,0,0,0,.667-1.462,1.56,1.56,0,0,0-.567-1.19,3.736,3.736,0,0,0-1.129-.729q-.562-.216-1.808-.595c-.111-.037-.193-.063-.245-.078q-.634-.2-1.023-.334c-.26-.089-.581-.212-.962-.373a6.17,6.17,0,0,1-.935-.467,6.536,6.536,0,0,1-.773-.579,2.979,2.979,0,0,1-.645-.739,3.914,3.914,0,0,1-.39-.923,4.1,4.1,0,0,1-.155-1.146,4.305,4.305,0,0,1,.751-2.531,4.6,4.6,0,0,1,2.024-1.612,7.362,7.362,0,0,1,2.9-.54,9.14,9.14,0,0,1,2.1.234,7.366,7.366,0,0,1,1.874.716,4.627,4.627,0,0,1,1.5,1.325,4.991,4.991,0,0,1,.851,1.952l-3.226.8a2.615,2.615,0,0,0-2.893-2.3,3.162,3.162,0,0,0-1.791.468,1.583,1.583,0,0,0-.7,1.412q0,.879,1.168,1.424a17.477,17.477,0,0,0,2.236.768q.657.2,1.068.334t1.035.389a7.041,7.041,0,0,1,1.012.5,7.379,7.379,0,0,1,.846.616,3.312,3.312,0,0,1,.717.8,4.393,4.393,0,0,1,.44.995,4.19,4.19,0,0,1,.178,1.241,4.871,4.871,0,0,1-.323,1.813,3.951,3.951,0,0,1-.884,1.369,5.091,5.091,0,0,1-1.33.939,6.325,6.325,0,0,1-1.635.556A9.4,9.4,0,0,1-2052.953,779.54Z" fill="#002b45"/>
      <path id="Trazado_8891" data-name="Trazado 8891" d="M-2037.946,779.318V763.243h5.818a9.06,9.06,0,0,1,3.354.579,6.2,6.2,0,0,1,2.4,1.64,7.18,7.18,0,0,1,1.424,2.531,10.467,10.467,0,0,1,.484,3.282,10.507,10.507,0,0,1-.484,3.293,7.14,7.14,0,0,1-1.424,2.53,6.168,6.168,0,0,1-2.4,1.641,9.061,9.061,0,0,1-3.354.579Zm3.337-2.948h2.314a3.948,3.948,0,0,0,3.248-1.306,5.862,5.862,0,0,0,1.068-3.789,5.859,5.859,0,0,0-1.068-3.788,3.952,3.952,0,0,0-3.248-1.307h-2.314Z" fill="#002b45"/>
      <path id="Trazado_8892" data-name="Trazado 8892" d="M-2012.015,766.18h-5.963v3.649h5.284v2.9h-5.284v3.638h5.963v2.948h-9.323V763.243h9.323Z" fill="#002b45"/>
      <path id="Trazado_8893" data-name="Trazado 8893" d="M-1995.974,763.243a4.838,4.838,0,0,1,3.7,1.5,5.206,5.206,0,0,1,1.4,3.7,5.073,5.073,0,0,1-1.391,3.676,4.919,4.919,0,0,1-3.715,1.442h-3.349v5.762h-3.337V763.243Zm-.557,7.52a2.446,2.446,0,0,0,1.836-.629,2.385,2.385,0,0,0,.612-1.74,2.366,2.366,0,0,0-.618-1.718,2.427,2.427,0,0,0-1.83-.64h-2.792v4.727Z" fill="#002b45"/>
      <path id="Trazado_8894" data-name="Trazado 8894" d="M-1979.577,779.318l-4.183-7.075h-.968v7.075h-3.337V763.243h5.829a6.775,6.775,0,0,1,2.336.372,4.061,4.061,0,0,1,1.619,1.036,4.438,4.438,0,0,1,.912,1.518,5.554,5.554,0,0,1,.306,1.88,3.919,3.919,0,0,1-.879,2.641,4.418,4.418,0,0,1-2.525,1.386l4.839,7.242Zm-5.151-13.3v3.838h1.969q2.5,0,2.5-1.913a1.742,1.742,0,0,0-.612-1.413,2.909,2.909,0,0,0-1.891-.512Z" fill="#002b45"/>
      <path id="Trazado_8895" data-name="Trazado 8895" d="M-1966.473,779.54a8.743,8.743,0,0,1-4.222-1.006,7.3,7.3,0,0,1-2.931-2.9,8.717,8.717,0,0,1-1.068-4.361,8.713,8.713,0,0,1,1.068-4.367,7.279,7.279,0,0,1,2.931-2.886,8.786,8.786,0,0,1,4.222-1,8.749,8.749,0,0,1,4.216,1,7.285,7.285,0,0,1,2.926,2.886,8.713,8.713,0,0,1,1.068,4.367,8.717,8.717,0,0,1-1.068,4.361,7.3,7.3,0,0,1-2.931,2.9A8.719,8.719,0,0,1-1966.473,779.54Zm-3.515-4.467a4.7,4.7,0,0,0,3.515,1.408,4.7,4.7,0,0,0,3.515-1.408,5.184,5.184,0,0,0,1.38-3.8,5.155,5.155,0,0,0-1.38-3.782,4.718,4.718,0,0,0-3.515-1.4,4.718,4.718,0,0,0-3.515,1.4,5.156,5.156,0,0,0-1.38,3.782A5.185,5.185,0,0,0-1969.988,775.073Z" fill="#002b45"/>
      <path id="Trazado_8896" data-name="Trazado 8896" d="M-1946.438,763.243v2.937h-3.816v13.138h-3.3V766.18h-3.838v-2.937Z" fill="#002b45"/>
      <path id="Trazado_8897" data-name="Trazado 8897" d="M-1934.591,766.18h-5.963v3.649h5.284v2.9h-5.284v3.638h5.963v2.948h-9.322V763.243h9.322Z" fill="#002b45"/>
      <path id="Trazado_8898" data-name="Trazado 8898" d="M-1924.646,779.54a8.971,8.971,0,0,1-3.276-.589,7.706,7.706,0,0,1-2.609-1.647,7.417,7.417,0,0,1-1.713-2.614,9.116,9.116,0,0,1-.623-3.415,8.713,8.713,0,0,1,1.068-4.367,7.279,7.279,0,0,1,2.931-2.886,8.787,8.787,0,0,1,4.222-1,8.536,8.536,0,0,1,4.717,1.3,7.131,7.131,0,0,1,2.881,3.582l-3.115,1.135a4.405,4.405,0,0,0-1.724-2.169,4.927,4.927,0,0,0-2.759-.779,4.718,4.718,0,0,0-3.515,1.4,5.155,5.155,0,0,0-1.38,3.782,5.171,5.171,0,0,0,1.385,3.789,4.718,4.718,0,0,0,3.51,1.406,4.912,4.912,0,0,0,2.753-.784,4.431,4.431,0,0,0,1.73-2.175l3.115,1.135a7.151,7.151,0,0,1-2.881,3.587A8.5,8.5,0,0,1-1924.646,779.54Z" fill="#002b45"/>
      <path id="Trazado_8899" data-name="Trazado 8899" d="M-1907.192,779.54a8.971,8.971,0,0,1-3.276-.589,7.706,7.706,0,0,1-2.609-1.647,7.4,7.4,0,0,1-1.713-2.614,9.119,9.119,0,0,1-.623-3.415,8.713,8.713,0,0,1,1.068-4.367,7.279,7.279,0,0,1,2.931-2.886,8.783,8.783,0,0,1,4.222-1,8.536,8.536,0,0,1,4.717,1.3,7.131,7.131,0,0,1,2.881,3.582l-3.115,1.135a4.4,4.4,0,0,0-1.724-2.169,4.927,4.927,0,0,0-2.759-.779,4.718,4.718,0,0,0-3.515,1.4,5.156,5.156,0,0,0-1.38,3.782,5.171,5.171,0,0,0,1.385,3.789,4.717,4.717,0,0,0,3.51,1.406,4.912,4.912,0,0,0,2.753-.784,4.431,4.431,0,0,0,1.73-2.175l3.115,1.135a7.151,7.151,0,0,1-2.881,3.587A8.5,8.5,0,0,1-1907.192,779.54Z" fill="#002b45"/>
      <path id="Trazado_8900" data-name="Trazado 8900" d="M-1896.858,779.318V763.243h3.338v16.075Z" fill="#002b45"/>
      <path id="Trazado_8901" data-name="Trazado 8901" d="M-1882.252,779.54a8.737,8.737,0,0,1-4.221-1.006,7.3,7.3,0,0,1-2.932-2.9,8.728,8.728,0,0,1-1.067-4.361,8.724,8.724,0,0,1,1.067-4.367,7.283,7.283,0,0,1,2.932-2.886,8.78,8.78,0,0,1,4.221-1,8.746,8.746,0,0,1,4.216,1,7.286,7.286,0,0,1,2.926,2.886,8.713,8.713,0,0,1,1.068,4.367,8.717,8.717,0,0,1-1.068,4.361,7.3,7.3,0,0,1-2.931,2.9A8.716,8.716,0,0,1-1882.252,779.54Zm-3.515-4.467a4.7,4.7,0,0,0,3.515,1.408,4.708,4.708,0,0,0,3.516-1.408,5.188,5.188,0,0,0,1.379-3.8,5.159,5.159,0,0,0-1.379-3.782,4.722,4.722,0,0,0-3.516-1.4,4.719,4.719,0,0,0-3.515,1.4,5.158,5.158,0,0,0-1.379,3.782A5.188,5.188,0,0,0-1885.767,775.073Zm2.525-13.331,2.915-4.094,1.579,1.124-2.525,2.97Z" fill="#002b45"/>
      <path id="Trazado_8902" data-name="Trazado 8902" d="M-1859.992,763.243h3.326v16.075h-3.86l-7.12-11.491v11.491h-3.326V763.243h3.816l7.164,11.425Z" fill="#002b45"/>
    </g>
    <path id="Trazado_8903" data-name="Trazado 8903" d="M-2054.448,579.091h-202.536l46.524,57.791-46.524,57.79h448.712a21.349,21.349,0,0,0,21.349-21.349V600.44a21.349,21.349,0,0,0-21.349-21.349Z" fill="#fff"/>
    <g id="Grupo_1821" data-name="Grupo 1821">
      <g id="Grupo_1819" data-name="Grupo 1819">
        <path id="Trazado_8904" data-name="Trazado 8904" d="M-2334.268,661.823a12.208,12.208,0,0,1-6.8-1.886,11.4,11.4,0,0,1-4.132-5.106,19.773,19.773,0,0,1-1.321-7.493V626.369c0-4.462,1.044-8.01,3.067-10.573s5.1-3.856,9.186-3.856c4.045,0,7.107,1.281,9.138,3.856,2.057,2.6,3.079,6.111,3.079,10.573v20.969c0,4.387-1.031,7.887-3.128,10.5C-2327.241,660.49-2330.307,661.823-2334.268,661.823Zm0-5.755c3.456,0,5.18-2.922,5.18-8.73V626.369c0-.93,0-1.864-.044-2.615a11.635,11.635,0,0,0-.464-2.343,5.833,5.833,0,0,0-.9-1.96,3.989,3.989,0,0,0-1.54-1.29,4.6,4.6,0,0,0-2.237-.495,4.686,4.686,0,0,0-2.277.495,3.765,3.765,0,0,0-1.509,1.29,5.6,5.6,0,0,0-.9,1.96,10.521,10.521,0,0,0-.443,2.343,22.927,22.927,0,0,0-.109,2.615v20.969a26.286,26.286,0,0,0,.223,3.167,11.486,11.486,0,0,0,.79,2.764,5.336,5.336,0,0,0,1.645,2.079A4.406,4.406,0,0,0-2334.268,656.068Z" fill="#fff"/>
      </g>
      <g id="Grupo_1820" data-name="Grupo 1820">
        <path id="Trazado_8905" data-name="Trazado 8905" d="M-2317.476,661.315v-7l12.231-17.442c.109-.2.452-.649.952-1.325.473-.684.816-1.149.978-1.421.141-.228.452-.659.856-1.29a15.221,15.221,0,0,0,.841-1.439c.151-.337.365-.807.611-1.443a10.078,10.078,0,0,0,.566-1.65c.092-.473.219-1.039.293-1.7a13.767,13.767,0,0,0,.123-1.953,8.817,8.817,0,0,0-1.333-4.948,4.389,4.389,0,0,0-3.887-2.035,4.692,4.692,0,0,0-2.566.728,5.109,5.109,0,0,0-1.628,2.035,11.939,11.939,0,0,0-.811,2.786,19.774,19.774,0,0,0-.25,3.154v1.785h-6.967v-1.785c0-4.545.944-8.094,2.931-10.647,1.969-2.536,5.049-3.782,9.291-3.782,3.992,0,6.979,1.093,9.09,3.343,2.079,2.207,3.123,5.343,3.123,9.366a21.169,21.169,0,0,1-.4,4.194,15.914,15.914,0,0,1-1.232,3.777,26.935,26.935,0,0,1-1.606,2.978c-.474.79-1.154,1.791-2,2.975l-12.234,15.74h17.468v7Z" fill="#fff"/>
      </g>
    </g>
    <g id="Grupo_1822" data-name="Grupo 1822">
      <path id="Trazado_8906" data-name="Trazado 8906" d="M-2157.353,645.142a8.3,8.3,0,0,1-2.475-.351,5.818,5.818,0,0,1-1.986-1.051,4.694,4.694,0,0,1-1.34-1.836,6.6,6.6,0,0,1-.484-2.614V628.845h3.337v9.989a3.5,3.5,0,0,0,.806,2.548,2.887,2.887,0,0,0,2.142.812,2.913,2.913,0,0,0,2.152-.817,3.473,3.473,0,0,0,.818-2.543v-9.989h3.337V639.29a6.6,6.6,0,0,1-.484,2.614,4.668,4.668,0,0,1-1.346,1.836,5.87,5.87,0,0,1-1.991,1.051A8.345,8.345,0,0,1-2157.353,645.142Z" fill="#002b45"/>
      <path id="Trazado_8907" data-name="Trazado 8907" d="M-2136.239,628.845h3.326v16.074h-3.86l-7.12-11.491v11.491h-3.326V628.845h3.816l7.164,11.424Z" fill="#002b45"/>
      <path id="Trazado_8908" data-name="Trazado 8908" d="M-2128.753,644.919V628.845h3.337v16.074Z" fill="#002b45"/>
      <path id="Trazado_8909" data-name="Trazado 8909" d="M-2111.043,628.845h3.549l-5.941,16.074h-3.671l-5.907-16.074h3.538l4.216,12.181Z" fill="#002b45"/>
      <path id="Trazado_8910" data-name="Trazado 8910" d="M-2095.758,631.781h-5.963v3.649h5.284v2.9h-5.284v3.637h5.963v2.948h-9.323V628.845h9.323Z" fill="#002b45"/>
      <path id="Trazado_8911" data-name="Trazado 8911" d="M-2083.833,644.919l-4.183-7.075h-.968v7.075h-3.337V628.845h5.829a6.752,6.752,0,0,1,2.336.372,4.053,4.053,0,0,1,1.619,1.035,4.439,4.439,0,0,1,.912,1.518,5.551,5.551,0,0,1,.306,1.88,3.922,3.922,0,0,1-.879,2.642,4.423,4.423,0,0,1-2.525,1.385l4.839,7.242Zm-5.151-13.3v3.837h1.969q2.5,0,2.5-1.913a1.742,1.742,0,0,0-.612-1.413,2.91,2.91,0,0,0-1.891-.511Z" fill="#002b45"/>
      <path id="Trazado_8912" data-name="Trazado 8912" d="M-2072.3,645.142a7.768,7.768,0,0,1-4.46-1.229,4.935,4.935,0,0,1-2.17-3.444l3.449-.789a2.928,2.928,0,0,0,1.062,2.03,3.525,3.525,0,0,0,2.253.706,2.906,2.906,0,0,0,1.758-.495,1.671,1.671,0,0,0,.667-1.463,1.56,1.56,0,0,0-.567-1.19,3.755,3.755,0,0,0-1.129-.729q-.562-.216-1.808-.6c-.111-.037-.193-.063-.245-.078q-.634-.2-1.023-.333t-.962-.374a6.181,6.181,0,0,1-.935-.467,6.52,6.52,0,0,1-.773-.578,3.017,3.017,0,0,1-.645-.739,3.939,3.939,0,0,1-.39-.924,4.105,4.105,0,0,1-.155-1.146,4.305,4.305,0,0,1,.751-2.531,4.606,4.606,0,0,1,2.024-1.612,7.38,7.38,0,0,1,2.9-.54,9.142,9.142,0,0,1,2.1.234,7.33,7.33,0,0,1,1.874.717,4.606,4.606,0,0,1,1.5,1.325,4.99,4.99,0,0,1,.851,1.951l-3.226.8a2.614,2.614,0,0,0-2.893-2.3,3.161,3.161,0,0,0-1.791.467,1.583,1.583,0,0,0-.7,1.413q0,.877,1.168,1.423a17.487,17.487,0,0,0,2.236.768q.657.2,1.068.334t1.035.389a7.158,7.158,0,0,1,1.012.5,7.281,7.281,0,0,1,.846.617,3.33,3.33,0,0,1,.717.8,4.386,4.386,0,0,1,.44.995,4.2,4.2,0,0,1,.178,1.241,4.877,4.877,0,0,1-.323,1.814,3.954,3.954,0,0,1-.884,1.368,5.091,5.091,0,0,1-1.33.939,6.366,6.366,0,0,1-1.635.557A9.476,9.476,0,0,1-2072.3,645.142Z" fill="#002b45"/>
      <path id="Trazado_8913" data-name="Trazado 8913" d="M-2052.452,644.919l-1.168-3.315h-6.752l-1.168,3.315h-3.416l5.919-16.074h4.082l5.918,16.074Zm-6.941-6.107h4.794l-2.392-6.819Z" fill="#002b45"/>
      <path id="Trazado_8914" data-name="Trazado 8914" d="M-2043.286,641.971h5.04v2.948h-8.377V628.845h3.337Z" fill="#002b45"/>
      <path id="Trazado_8915" data-name="Trazado 8915" d="M-2035.7,644.919V628.845h3.337v16.074Z" fill="#002b45"/>
      <path id="Trazado_8916" data-name="Trazado 8916" d="M-2028.212,644.919V628.845h5.818a9.069,9.069,0,0,1,3.354.578,6.188,6.188,0,0,1,2.4,1.64,7.146,7.146,0,0,1,1.424,2.532,10.433,10.433,0,0,1,.484,3.281,10.474,10.474,0,0,1-.484,3.293,7.11,7.11,0,0,1-1.424,2.53,6.159,6.159,0,0,1-2.4,1.642,9.089,9.089,0,0,1-3.354.578Zm3.337-2.948h2.314a3.95,3.95,0,0,0,3.248-1.306,5.862,5.862,0,0,0,1.068-3.789,5.863,5.863,0,0,0-1.068-3.788,3.953,3.953,0,0,0-3.248-1.307h-2.314Z" fill="#002b45"/>
      <path id="Trazado_8917" data-name="Trazado 8917" d="M-2001.648,644.919l-1.168-3.315h-6.752l-1.168,3.315h-3.415l5.918-16.074h4.082l5.918,16.074Zm-6.941-6.107h4.794l-2.391-6.819Z" fill="#002b45"/>
      <path id="Trazado_8918" data-name="Trazado 8918" d="M-1995.819,644.919V628.845H-1990a9.062,9.062,0,0,1,3.354.578,6.191,6.191,0,0,1,2.4,1.64,7.159,7.159,0,0,1,1.424,2.532,10.433,10.433,0,0,1,.484,3.281,10.474,10.474,0,0,1-.484,3.293,7.123,7.123,0,0,1-1.424,2.53,6.162,6.162,0,0,1-2.4,1.642,9.082,9.082,0,0,1-3.354.578Zm3.338-2.948h2.313a3.95,3.95,0,0,0,3.249-1.306,5.863,5.863,0,0,0,1.068-3.789,5.864,5.864,0,0,0-1.068-3.788,3.954,3.954,0,0,0-3.249-1.307h-2.313Z" fill="#002b45"/>
    </g>
    <path id="Trazado_8919" data-name="Trazado 8919" d="M-2256.984,842.516l46.524,57.79-46.524,57.791h448.712a21.349,21.349,0,0,0,21.349-21.349V863.865a21.349,21.349,0,0,0-21.349-21.349Z" fill="#fff"/>
    <g id="Grupo_1825" data-name="Grupo 1825">
      <g id="Grupo_1823" data-name="Grupo 1823">
        <path id="Trazado_8920" data-name="Trazado 8920" d="M-2333.77,926.265a12.474,12.474,0,0,1-7.06-1.9,11.631,11.631,0,0,1-4.292-5.316,19.565,19.565,0,0,1-1.4-7.809v-21.85c0-4.692,1.078-8.378,3.206-11.04q3.165-4.008,9.545-4c4.2,0,7.39,1.326,9.518,4.033,2.137,2.68,3.215,6.366,3.215,11.005v21.85c0,4.559-1.078,8.228-3.268,10.961C-2326.469,924.921-2329.639,926.265-2333.77,926.265Zm0-5.947c3.633,0,5.458-3.045,5.458-9.082v-21.85a24.126,24.126,0,0,0-.125-2.689,11.477,11.477,0,0,0-.463-2.475,6.889,6.889,0,0,0-.935-2.057,4.371,4.371,0,0,0-1.549-1.327,5.155,5.155,0,0,0-2.386-.489,5.107,5.107,0,0,0-2.369.489,3.924,3.924,0,0,0-1.558,1.327,6.318,6.318,0,0,0-.97,2.057,10.408,10.408,0,0,0-.41,2.475,18.586,18.586,0,0,0-.16,2.689v21.85a19.123,19.123,0,0,0,.267,3.312,11.258,11.258,0,0,0,.784,2.85,5.147,5.147,0,0,0,1.709,2.128A4.5,4.5,0,0,0-2333.77,920.318Z" fill="#fff"/>
      </g>
      <g id="Grupo_1824" data-name="Grupo 1824">
        <path id="Trazado_8921" data-name="Trazado 8921" d="M-2301.387,925.794V912.7h-14.558V904.62l12.715-29.8h9.082v31h5.636V912.7h-5.636v13.1Zm-7.3-19.971h7.3V883.91Z" fill="#fff"/>
      </g>
    </g>
    <g id="Grupo_1826" data-name="Grupo 1826">
      <path id="Trazado_8922" data-name="Trazado 8922" d="M-2144.549,911.03h-3.326l-1.057-12.113L-2153,911.03h-2.158l-4.071-12.113-1.068,12.113h-3.337l1.346-16.073h4.761l3.426,10.088,3.471-10.088h4.761Z" fill="#002b45"/>
      <path id="Trazado_8923" data-name="Trazado 8923" d="M-2131.734,897.894h-5.963v3.649h5.284v2.9h-5.284v3.639h5.963v2.946h-9.322V894.957h9.322Z" fill="#002b45"/>
      <path id="Trazado_8924" data-name="Trazado 8924" d="M-2128.3,911.03V894.957h5.818a9.083,9.083,0,0,1,3.354.578,6.2,6.2,0,0,1,2.4,1.639,7.159,7.159,0,0,1,1.424,2.532,10.474,10.474,0,0,1,.484,3.283,10.5,10.5,0,0,1-.484,3.292,7.12,7.12,0,0,1-1.424,2.529,6.171,6.171,0,0,1-2.4,1.642,9.083,9.083,0,0,1-3.354.578Zm3.338-2.946h2.313a3.948,3.948,0,0,0,3.249-1.308,5.855,5.855,0,0,0,1.068-3.787,5.868,5.868,0,0,0-1.068-3.79,3.953,3.953,0,0,0-3.249-1.3h-2.313Z" fill="#002b45"/>
      <path id="Trazado_8925" data-name="Trazado 8925" d="M-2111.688,911.03V894.957h3.337V911.03Z" fill="#002b45"/>
      <path id="Trazado_8926" data-name="Trazado 8926" d="M-2104.2,911.03V894.957h5.818a9.082,9.082,0,0,1,3.354.578,6.2,6.2,0,0,1,2.4,1.639,7.16,7.16,0,0,1,1.424,2.532,10.446,10.446,0,0,1,.484,3.283,10.468,10.468,0,0,1-.484,3.292,7.12,7.12,0,0,1-1.424,2.529,6.169,6.169,0,0,1-2.4,1.642,9.082,9.082,0,0,1-3.354.578Zm3.338-2.946h2.313a3.948,3.948,0,0,0,3.249-1.308,5.855,5.855,0,0,0,1.068-3.787,5.868,5.868,0,0,0-1.068-3.79,3.953,3.953,0,0,0-3.249-1.3h-2.313Z" fill="#002b45"/>
      <path id="Trazado_8927" data-name="Trazado 8927" d="M-2077.637,911.03l-1.168-3.315h-6.753l-1.168,3.315h-3.415l5.918-16.073h4.083l5.918,16.073Zm-6.942-6.106h4.8l-2.392-6.82Z" fill="#002b45"/>
      <path id="Trazado_8928" data-name="Trazado 8928" d="M-2066.468,911.253a7.756,7.756,0,0,1-4.461-1.229,4.926,4.926,0,0,1-2.169-3.443l3.448-.789a2.925,2.925,0,0,0,1.062,2.03,3.519,3.519,0,0,0,2.253.707,2.907,2.907,0,0,0,1.758-.5,1.665,1.665,0,0,0,.667-1.461,1.563,1.563,0,0,0-.567-1.192,3.739,3.739,0,0,0-1.129-.729q-.562-.215-1.808-.593c-.111-.037-.193-.065-.245-.08-.422-.133-.764-.244-1.023-.333s-.58-.213-.962-.374a6.108,6.108,0,0,1-.935-.467,6.533,6.533,0,0,1-.773-.578,3.041,3.041,0,0,1-.645-.739,3.923,3.923,0,0,1-.39-.922,4.118,4.118,0,0,1-.155-1.147,4.306,4.306,0,0,1,.751-2.532,4.614,4.614,0,0,1,2.024-1.612,7.4,7.4,0,0,1,2.9-.538,9.144,9.144,0,0,1,2.1.232,7.355,7.355,0,0,1,1.874.717,4.63,4.63,0,0,1,1.5,1.325,5,5,0,0,1,.851,1.953l-3.226.8a2.616,2.616,0,0,0-2.893-2.3,3.166,3.166,0,0,0-1.791.467,1.585,1.585,0,0,0-.7,1.414q0,.879,1.168,1.424a17.458,17.458,0,0,0,2.236.766q.656.2,1.067.334c.275.089.62.22,1.035.39a7.358,7.358,0,0,1,1.012.495,7.686,7.686,0,0,1,.846.618,3.307,3.307,0,0,1,.717.8,4.326,4.326,0,0,1,.44.994,4.194,4.194,0,0,1,.178,1.241,4.882,4.882,0,0,1-.323,1.814,3.952,3.952,0,0,1-.884,1.367,5.092,5.092,0,0,1-1.33.939,6.313,6.313,0,0,1-1.635.557A9.318,9.318,0,0,1-2066.468,911.253Z" fill="#002b45"/>
      <path id="Trazado_8929" data-name="Trazado 8929" d="M-2051.462,911.03V894.957h5.818a9.083,9.083,0,0,1,3.354.578,6.2,6.2,0,0,1,2.4,1.639,7.16,7.16,0,0,1,1.424,2.532,10.474,10.474,0,0,1,.484,3.283,10.5,10.5,0,0,1-.484,3.292,7.12,7.12,0,0,1-1.424,2.529,6.17,6.17,0,0,1-2.4,1.642,9.083,9.083,0,0,1-3.354.578Zm3.337-2.946h2.314a3.945,3.945,0,0,0,3.248-1.308,5.854,5.854,0,0,0,1.068-3.787,5.868,5.868,0,0,0-1.068-3.79,3.95,3.95,0,0,0-3.248-1.3h-2.314Z" fill="#002b45"/>
      <path id="Trazado_8930" data-name="Trazado 8930" d="M-2025.531,897.894h-5.963v3.649h5.284v2.9h-5.284v3.639h5.963v2.946h-9.322V894.957h9.322Z" fill="#002b45"/>
      <path id="Trazado_8931" data-name="Trazado 8931" d="M-2006.854,897.894h-5.962v3.649h5.284v2.9h-5.284v3.639h5.962v2.946h-9.322V894.957h9.322Z" fill="#002b45"/>
      <path id="Trazado_8932" data-name="Trazado 8932" d="M-2000.079,908.084h5.039v2.946h-8.376V894.957h3.337Z" fill="#002b45"/>
      <path id="Trazado_8933" data-name="Trazado 8933" d="M-1992.492,911.03V894.957h3.337V911.03Z" fill="#002b45"/>
      <path id="Trazado_8934" data-name="Trazado 8934" d="M-1966.584,911.03h-3.326l-1.057-12.113-4.072,12.113h-2.158l-4.071-12.113-1.068,12.113h-3.337l1.346-16.073h4.761l3.426,10.088,3.471-10.088h4.761Z" fill="#002b45"/>
      <path id="Trazado_8935" data-name="Trazado 8935" d="M-1963.091,911.03V894.957h3.337V911.03Z" fill="#002b45"/>
      <path id="Trazado_8936" data-name="Trazado 8936" d="M-1944.625,894.957h3.326V911.03h-3.86l-7.119-11.49v11.49h-3.327V894.957h3.816l7.164,11.423Z" fill="#002b45"/>
      <path id="Trazado_8937" data-name="Trazado 8937" d="M-1926.381,911.03l-1.168-3.315h-6.753l-1.168,3.315h-3.415l5.918-16.073h4.083l5.918,16.073Zm-6.942-6.106h4.8l-2.392-6.82Z" fill="#002b45"/>
      <path id="Trazado_8938" data-name="Trazado 8938" d="M-1914.234,911.253a8.974,8.974,0,0,1-3.276-.589,7.689,7.689,0,0,1-2.608-1.646,7.441,7.441,0,0,1-1.714-2.615,9.121,9.121,0,0,1-.623-3.414,8.715,8.715,0,0,1,1.068-4.368,7.266,7.266,0,0,1,2.932-2.885,8.767,8.767,0,0,1,4.221-1,8.528,8.528,0,0,1,4.717,1.3,7.122,7.122,0,0,1,2.881,3.582l-3.115,1.134a4.4,4.4,0,0,0-1.724-2.168,4.924,4.924,0,0,0-2.759-.778,4.723,4.723,0,0,0-3.515,1.4,5.159,5.159,0,0,0-1.379,3.783,5.159,5.159,0,0,0,1.385,3.787,4.711,4.711,0,0,0,3.509,1.406,4.923,4.923,0,0,0,2.754-.783,4.432,4.432,0,0,0,1.729-2.176l3.115,1.135a7.146,7.146,0,0,1-2.881,3.587A8.491,8.491,0,0,1-1914.234,911.253Z" fill="#002b45"/>
      <path id="Trazado_8939" data-name="Trazado 8939" d="M-1903.9,911.03V894.957h3.337V911.03Z" fill="#002b45"/>
      <path id="Trazado_8940" data-name="Trazado 8940" d="M-1889.293,911.253a8.73,8.73,0,0,1-4.222-1.006,7.291,7.291,0,0,1-2.931-2.9,8.712,8.712,0,0,1-1.068-4.36,8.716,8.716,0,0,1,1.068-4.368,7.271,7.271,0,0,1,2.931-2.885,8.772,8.772,0,0,1,4.222-1,8.739,8.739,0,0,1,4.216,1,7.275,7.275,0,0,1,2.925,2.885,8.715,8.715,0,0,1,1.068,4.368,8.711,8.711,0,0,1-1.068,4.36,7.284,7.284,0,0,1-2.931,2.9A8.7,8.7,0,0,1-1889.293,911.253Zm-3.516-4.467a4.712,4.712,0,0,0,3.516,1.409,4.71,4.71,0,0,0,3.515-1.409,5.185,5.185,0,0,0,1.379-3.8,5.159,5.159,0,0,0-1.379-3.783,4.723,4.723,0,0,0-3.515-1.4,4.724,4.724,0,0,0-3.516,1.4,5.162,5.162,0,0,0-1.379,3.783A5.188,5.188,0,0,0-1892.809,906.786Zm2.526-13.332,2.914-4.094,1.58,1.125-2.525,2.969Z" fill="#002b45"/>
      <path id="Trazado_8941" data-name="Trazado 8941" d="M-1867.034,894.957h3.326V911.03h-3.86l-7.119-11.49v11.49h-3.326V894.957h3.815l7.164,11.423Z" fill="#002b45"/>
    </g>
    <path id="Trazado_8942" data-name="Trazado 8942" d="M-2054.448,447.379h-202.536l46.524,57.791-46.524,57.79h448.712a21.349,21.349,0,0,0,21.349-21.349V468.728a21.349,21.349,0,0,0-21.349-21.349Z" fill="#fff"/>
    <g id="Grupo_1827" data-name="Grupo 1827">
      <path id="Trazado_8943" data-name="Trazado 8943" d="M-2151.135,513.207l-1.168-3.315h-6.752l-1.168,3.315h-3.415l5.918-16.075h4.082l5.918,16.075Zm-6.941-6.107h4.794l-2.391-6.82Z" fill="#002b45"/>
      <path id="Trazado_8944" data-name="Trazado 8944" d="M-2139.7,513.429a8.277,8.277,0,0,1-2.475-.351,5.8,5.8,0,0,1-1.986-1.05,4.7,4.7,0,0,1-1.34-1.836,6.606,6.606,0,0,1-.484-2.614V497.132h3.337v9.99a3.491,3.491,0,0,0,.807,2.547,2.879,2.879,0,0,0,2.141.812,2.912,2.912,0,0,0,2.152-.817,3.465,3.465,0,0,0,.818-2.542v-9.99h3.337v10.446a6.606,6.606,0,0,1-.484,2.614,4.675,4.675,0,0,1-1.346,1.836,5.85,5.85,0,0,1-1.991,1.05A8.313,8.313,0,0,1-2139.7,513.429Z" fill="#002b45"/>
      <path id="Trazado_8945" data-name="Trazado 8945" d="M-2120.243,497.132v2.937h-3.815v13.138h-3.3V500.069h-3.838v-2.937Z" fill="#002b45"/>
      <path id="Trazado_8946" data-name="Trazado 8946" d="M-2111.165,513.429a8.737,8.737,0,0,1-4.222-1.006,7.3,7.3,0,0,1-2.931-2.9,8.718,8.718,0,0,1-1.068-4.361,8.712,8.712,0,0,1,1.068-4.367,7.275,7.275,0,0,1,2.931-2.886,8.78,8.78,0,0,1,4.222-1,8.751,8.751,0,0,1,4.216,1,7.284,7.284,0,0,1,2.925,2.886,8.712,8.712,0,0,1,1.068,4.367,8.718,8.718,0,0,1-1.068,4.361,7.3,7.3,0,0,1-2.931,2.9A8.715,8.715,0,0,1-2111.165,513.429Zm-3.516-4.467a4.707,4.707,0,0,0,3.516,1.408,4.707,4.707,0,0,0,3.515-1.408,5.191,5.191,0,0,0,1.379-3.8,5.159,5.159,0,0,0-1.379-3.782,4.721,4.721,0,0,0-3.515-1.4,4.721,4.721,0,0,0-3.516,1.4,5.158,5.158,0,0,0-1.379,3.782A5.19,5.19,0,0,0-2114.681,508.962Z" fill="#002b45"/>
      <path id="Trazado_8947" data-name="Trazado 8947" d="M-2092.766,513.429a8.972,8.972,0,0,1-3.276-.589,7.7,7.7,0,0,1-2.609-1.647,7.411,7.411,0,0,1-1.713-2.614,9.12,9.12,0,0,1-.623-3.415,8.71,8.71,0,0,1,1.068-4.367,7.273,7.273,0,0,1,2.931-2.886,8.786,8.786,0,0,1,4.222-1,8.536,8.536,0,0,1,4.717,1.3,7.131,7.131,0,0,1,2.881,3.582l-3.115,1.135a4.4,4.4,0,0,0-1.724-2.169,4.927,4.927,0,0,0-2.759-.779,4.718,4.718,0,0,0-3.515,1.4,5.155,5.155,0,0,0-1.38,3.782,5.166,5.166,0,0,0,1.385,3.788,4.713,4.713,0,0,0,3.51,1.407,4.913,4.913,0,0,0,2.753-.784,4.431,4.431,0,0,0,1.73-2.175l3.115,1.135a7.155,7.155,0,0,1-2.881,3.587A8.5,8.5,0,0,1-2092.766,513.429Z" fill="#002b45"/>
      <path id="Trazado_8948" data-name="Trazado 8948" d="M-2076.48,513.429a8.268,8.268,0,0,1-2.475-.351,5.8,5.8,0,0,1-1.986-1.05,4.7,4.7,0,0,1-1.34-1.836,6.606,6.606,0,0,1-.484-2.614V497.132h3.337v9.99a3.5,3.5,0,0,0,.806,2.547,2.883,2.883,0,0,0,2.142.812,2.913,2.913,0,0,0,2.152-.817,3.47,3.47,0,0,0,.818-2.542v-9.99h3.337v10.446a6.606,6.606,0,0,1-.484,2.614,4.675,4.675,0,0,1-1.346,1.836,5.85,5.85,0,0,1-1.991,1.05A8.313,8.313,0,0,1-2076.48,513.429Z" fill="#002b45"/>
      <path id="Trazado_8949" data-name="Trazado 8949" d="M-2066.346,513.207V497.132h3.337v16.075Z" fill="#002b45"/>
      <path id="Trazado_8950" data-name="Trazado 8950" d="M-2058.859,513.207V497.132h5.817a9.062,9.062,0,0,1,3.354.579,6.172,6.172,0,0,1,2.4,1.64,7.13,7.13,0,0,1,1.424,2.531,10.439,10.439,0,0,1,.484,3.282,10.479,10.479,0,0,1-.484,3.293,7.109,7.109,0,0,1-1.424,2.53,6.152,6.152,0,0,1-2.4,1.641,9.062,9.062,0,0,1-3.354.579Zm3.337-2.948h2.314a3.947,3.947,0,0,0,3.248-1.307,5.858,5.858,0,0,0,1.068-3.788,5.86,5.86,0,0,0-1.068-3.788,3.95,3.95,0,0,0-3.248-1.307h-2.314Z" fill="#002b45"/>
      <path id="Trazado_8951" data-name="Trazado 8951" d="M-2032.3,513.207l-1.168-3.315h-6.752l-1.168,3.315h-3.415l5.918-16.075h4.082l5.918,16.075Zm-6.941-6.107h4.794l-2.392-6.82Z" fill="#002b45"/>
      <path id="Trazado_8952" data-name="Trazado 8952" d="M-2026.466,513.207V497.132h5.818a9.062,9.062,0,0,1,3.354.579,6.187,6.187,0,0,1,2.4,1.64,7.147,7.147,0,0,1,1.424,2.531,10.467,10.467,0,0,1,.484,3.282,10.507,10.507,0,0,1-.484,3.293,7.125,7.125,0,0,1-1.424,2.53,6.167,6.167,0,0,1-2.4,1.641,9.062,9.062,0,0,1-3.354.579Zm3.337-2.948h2.314a3.948,3.948,0,0,0,3.249-1.307,5.857,5.857,0,0,0,1.067-3.788,5.859,5.859,0,0,0-1.067-3.788,3.951,3.951,0,0,0-3.249-1.307h-2.314Z" fill="#002b45"/>
      <path id="Trazado_8953" data-name="Trazado 8953" d="M-2002.738,513.429a8.743,8.743,0,0,1-4.222-1.006,7.3,7.3,0,0,1-2.931-2.9,8.717,8.717,0,0,1-1.068-4.361,8.711,8.711,0,0,1,1.068-4.367,7.273,7.273,0,0,1,2.931-2.886,8.785,8.785,0,0,1,4.222-1,8.749,8.749,0,0,1,4.216,1,7.28,7.28,0,0,1,2.926,2.886,8.712,8.712,0,0,1,1.068,4.367,8.718,8.718,0,0,1-1.068,4.361,7.3,7.3,0,0,1-2.931,2.9A8.719,8.719,0,0,1-2002.738,513.429Zm-3.515-4.467a4.7,4.7,0,0,0,3.515,1.408,4.7,4.7,0,0,0,3.515-1.408,5.187,5.187,0,0,0,1.38-3.8,5.155,5.155,0,0,0-1.38-3.782,4.718,4.718,0,0,0-3.515-1.4,4.718,4.718,0,0,0-3.515,1.4,5.156,5.156,0,0,0-1.38,3.782A5.188,5.188,0,0,0-2006.253,508.962Z" fill="#002b45"/>
    </g>
    <g id="Grupo_1830" data-name="Grupo 1830">
      <g id="Grupo_1828" data-name="Grupo 1828">
        <path id="Trazado_8954" data-name="Trazado 8954" d="M-2333.3,532.133a12.68,12.68,0,0,1-7.343-2.065,11.455,11.455,0,0,1-4.417-5.493,20.69,20.69,0,0,1-1.459-8.116v-22.6c0-4.856,1.089-8.681,3.313-11.441,2.193-2.826,5.505-4.208,9.906-4.208,4.37,0,7.664,1.442,9.875,4.208q3.318,4.18,3.313,11.441v22.6c0,4.744-1.131,8.577-3.372,11.4C-2325.745,530.709-2329.027,532.133-2333.3,532.133Zm0-6.22q5.639,0,5.644-9.454v-22.6c0-1.054-.048-2.017-.109-2.835a12.439,12.439,0,0,0-.49-2.533,7.333,7.333,0,0,0-.98-2.159,4.633,4.633,0,0,0-1.635-1.39,5.354,5.354,0,0,0-2.43-.511,5.544,5.544,0,0,0-2.473.511,4.478,4.478,0,0,0-1.6,1.39,7.6,7.6,0,0,0-1.015,2.159,16.94,16.94,0,0,0-.465,2.533c-.077.818-.138,1.781-.138,2.835v22.6a21.238,21.238,0,0,0,.267,3.462,12.545,12.545,0,0,0,.864,2.959,5.022,5.022,0,0,0,1.734,2.233A4.831,4.831,0,0,0-2333.3,525.913Z" fill="#fff"/>
      </g>
      <g id="Grupo_1829" data-name="Grupo 1829">
        <path id="Trazado_8955" data-name="Trazado 8955" d="M-2309.752,531.576V490.1h-5.635v-5.661c3.815-1.359,6.3-3.26,7.527-5.674h5.674v52.813Z" fill="#fff"/>
      </g>
    </g>
  </g>
</svg>
