<svg xmlns="http://www.w3.org/2000/svg" width="178.679" height="236.406" viewBox="0 0 178.679 236.406">
  <g id="Grupo_1760" data-name="Grupo 1760" transform="translate(-6170.494 -486.994)">
    <path id="Trazado_8643" data-name="Trazado 8643" d="M6608.445,762.2l-116.393-30.935a8.235,8.235,0,0,1-6.3-8.057l-.149-175.971c-.005-6.544,6.885-11.89,13.433-10.423l116.389,26.071a8.258,8.258,0,0,1,6.665,8.146l.154,180.835C6622.248,758.567,6615.051,763.957,6608.445,762.2Z" transform="translate(-273.069 -42.962)" fill="#2130a7"/>
    <path id="Trazado_8644" data-name="Trazado 8644" d="M6573.008,790.878l-116.393-30.935a8.235,8.235,0,0,1-6.3-8.057l-.149-175.971c-.005-6.544,6.885-11.89,13.433-10.423l116.389,26.071a8.259,8.259,0,0,1,6.665,8.146l.154,180.835C6586.812,787.243,6579.614,792.634,6573.008,790.878Z" transform="translate(-242.36 -67.813)" fill="#4858cf"/>
    <path id="Trazado_8645" data-name="Trazado 8645" d="M6633.171,861.315l-119.624-31.794-.145-170.676,119.619,25.885Z" transform="translate(-297.161 -148.924)" fill="#fff"/>
    <path id="Trazado_8646" data-name="Trazado 8646" d="M6781.53,511.185l-6.718-1.652v-3c0-8.325-7.144-16.893-15.874-19.04h0c-8.731-2.147-15.874,2.907-15.874,11.231v3l-6.718-1.652c-6.147-1.512-11.177,2.047-11.177,7.908h0c0,5.862,5.03,11.894,11.177,13.406L6781.53,532.5c6.147,1.512,11.177-2.047,11.177-7.908h0C6792.708,518.73,6787.678,512.7,6781.53,511.185Zm-22-8.358-1.189-.292a5.241,5.241,0,0,1-3.924-4.707c0-2.058,1.766-3.307,3.924-2.776l1.189.292a5.241,5.241,0,0,1,3.924,4.707C6763.457,502.108,6761.691,503.358,6759.533,502.827Z" transform="translate(-480.675)" fill="#3b76e3"/>
    <path id="Trazado_8647" data-name="Trazado 8647" d="M6754.493,525.436l-6.718-1.652v-3c0-8.325-7.144-16.893-15.874-19.04h0c-8.73-2.147-15.874,2.907-15.874,11.231v3l-6.718-1.652c-6.147-1.512-11.177,2.047-11.177,7.908h0c0,5.862,5.03,11.894,11.177,13.406l45.185,11.113c6.147,1.512,11.177-2.047,11.177-7.908h0C6765.67,532.981,6760.64,526.948,6754.493,525.436Zm-22-8.358-1.189-.292a5.241,5.241,0,0,1-3.924-4.706c0-2.058,1.766-3.307,3.924-2.776l1.189.292a5.241,5.241,0,0,1,3.924,4.706C6736.419,516.359,6734.653,517.609,6732.5,517.078Z" transform="translate(-457.245 -12.35)" fill="#4285ff"/>
    <path id="Trazado_8648" data-name="Trazado 8648" d="M6681.994,831.371l-100.425-23.953v-29.8l100.425,23.953Z" transform="translate(-356.233 -251.848)" fill="#4285ff"/>
    <path id="Trazado_8649" data-name="Trazado 8649" d="M6676.587,1519.682a.758.758,0,0,1-.192-.025l-99.948-26.135a.758.758,0,0,1-.566-.734v-50.432a.758.758,0,0,1,.95-.734l99.948,26.135a.759.759,0,0,1,.567.734v50.432a.758.758,0,0,1-.759.759ZM6577.4,1492.2l98.43,25.738v-48.864l-98.43-25.738Z" transform="translate(-351.304 -827.249)" fill="#88aad4"/>
    <path id="Trazado_8650" data-name="Trazado 8650" d="M6675.607,1103.415a.77.77,0,0,1-.182-.022l-98.968-24.278a.759.759,0,1,1,.362-1.474l98.968,24.278a.759.759,0,0,1-.18,1.5Z" transform="translate(-351.303 -511.829)" fill="#88aad4"/>
    <path id="Trazado_8651" data-name="Trazado 8651" d="M6676.586,1597.929a.763.763,0,0,1-.193-.025l-99.948-26.2a.759.759,0,1,1,.385-1.468l99.947,26.2a.759.759,0,0,1-.192,1.493Z" transform="translate(-351.303 -938.705)" fill="#88aad4"/>
    <path id="Trazado_8652" data-name="Trazado 8652" d="M6676.587,1738.506a.762.762,0,0,1-.187-.023l-99.948-25.288a.759.759,0,0,1,.373-1.471l99.948,25.288a.759.759,0,0,1-.186,1.495Z" transform="translate(-351.303 -1061.317)" fill="#88aad4"/>
    <path id="Trazado_8653" data-name="Trazado 8653" d="M6632.562,1219.73a.762.762,0,0,1-.171-.02l-55.923-12.926a.759.759,0,1,1,.342-1.479l55.923,12.926a.759.759,0,0,1-.17,1.5Z" transform="translate(-351.303 -622.464)" fill="#88aad4"/>
    <path id="Trazado_8654" data-name="Trazado 8654" d="M6632.562,1348.263a.756.756,0,0,1-.182-.022l-55.923-13.791a.759.759,0,1,1,.363-1.473l55.923,13.791a.759.759,0,0,1-.181,1.5Z" transform="translate(-351.303 -733.1)" fill="#88aad4"/>
    <path id="Trazado_8655" data-name="Trazado 8655" d="M6792.075,1549.5a.776.776,0,0,1-.776-.776v-50.118a.776.776,0,0,1,1.552,0v50.118A.776.776,0,0,1,6792.075,1549.5Z" transform="translate(-537.983 -875.983)" fill="#88aad4"/>
    <path id="Trazado_8656" data-name="Trazado 8656" d="M6630.11,1522.385a.781.781,0,0,1-.188-.023l-18.758-4.68a.776.776,0,0,1,.376-1.505l18.758,4.68a.776.776,0,0,1-.187,1.529Z" transform="translate(-381.37 -891.858)" fill="#88aad4"/>
    <path id="Trazado_8657" data-name="Trazado 8657" d="M6634.062,1653.9a.772.772,0,0,1-.211-.029l-18.15-5.13a.776.776,0,0,1,.422-1.493l18.15,5.13a.776.776,0,0,1-.21,1.523Z" transform="translate(-385.321 -1005.435)" fill="#88aad4"/>
    <path id="Trazado_8658" data-name="Trazado 8658" d="M6633.353,1778.408a.776.776,0,0,1-.224-.033l-18.961-5.7a.776.776,0,0,1,.447-1.486l18.961,5.7a.776.776,0,0,1-.223,1.519Z" transform="translate(-384.004 -1112.838)" fill="#88aad4"/>
    <path id="Trazado_8659" data-name="Trazado 8659" d="M6450.291,951.9c11.663-.52,22.167-9.775,21.962-20.187l.234-34.043-22.255-18.3Z" transform="translate(-242.418 -340.031)" fill="#88aad4" opacity="0.72" style="mix-blend-mode: multiply;isolation: isolate"/>
    <g id="Grupo_1759" data-name="Grupo 1759" transform="translate(6170.494 539.971)">
      <path id="Trazado_8660" data-name="Trazado 8660" d="M6197.69,953.661h0c-12.145-4.267-20.418-19.359-20.319-33.1l-5.119-28.293,5.353-3.952,23.76-4.222,23.6,17.3-.234,32.245C6224.968,944.9,6211.188,955.377,6197.69,953.661Z" transform="translate(-6172.018 -884.093)" fill="#7aa5f0"/>
      <path id="Trazado_8661" data-name="Trazado 8661" d="M6193.36,983.33h0c-12.145-4.267-22.965-19.406-22.866-33.148l.234-32.245,23.759-4.222,23.6,17.3-.234,32.245C6218.091,974.525,6207.762,984.18,6193.36,983.33Z" transform="translate(-6170.494 -909.763)" fill="#f5f6f7"/>
      <path id="Trazado_8662" data-name="Trazado 8662" d="M6218.173,1025.223c-10.836-5.256-19.027-16.957-18.948-27.947l.187-25.788,19-3.377,18.876,13.833-.187,25.788C6237.024,1018.723,6218.173,1025.223,6218.173,1025.223Z" transform="translate(-6195.392 -956.902)" fill="#3b49b8"/>
      <path id="Trazado_8663" data-name="Trazado 8663" d="M6341.254,1025.223h0l.241-57.112,18.876,13.833-.187,25.788C6360.1,1018.723,6349.616,1025.231,6341.254,1025.223Z" transform="translate(-6318.473 -956.902)" fill="#2130a7"/>
      <path id="Trazado_8664" data-name="Trazado 8664" d="M6316.721,1096.657l-8.374-2.268.061-23.691,8.374,2.268Z" transform="translate(-6289.957 -1045.803)" fill="#f6f3ee"/>
      <path id="Trazado_8665" data-name="Trazado 8665" d="M6255.821,1120.353l.023-8.846,22.427,6.074-.023,8.846Z" transform="translate(-6244.438 -1081.168)" fill="#f6f3ee"/>
    </g>
  </g>
</svg>
