<svg xmlns="http://www.w3.org/2000/svg" width="288.692" height="262.782" viewBox="0 0 288.692 262.782">
  <g id="Grupo_2259" data-name="Grupo 2259" transform="translate(-231.484 -3020.254)">
    <path id="Trazado_8381" data-name="Trazado 8381" d="M448.17,3052.2c-.129-.033-.3.152-.437.455-.006.013-.011.029-.017.043a15.736,15.736,0,0,1-3.3-1.737,9.282,9.282,0,0,0-.3-3.651,10.85,10.85,0,0,1,2.628-1.9l.258-.146h0c.1-.055.194-.107.283-.155l0-.006c.2.257.4.4.514.34.178-.09.1-.6-.178-1.15s-.642-.915-.819-.826c-.118.059-.122.3-.032.622,0,.014.011.03.015.045-.044.021-.092.041-.14.061l-.075.032a18,18,0,0,1-3.468.754,3.207,3.207,0,0,1,.193.358,9.3,9.3,0,0,0-2.25-2.676c.122.082.2.136.2.136a4.6,4.6,0,0,1,.658-1.808c.11-.193.22-.376.33-.537l0,0c.3.12.545.142.615.032.108-.167-.222-.57-.735-.9s-1.018-.464-1.125-.3c-.071.11.049.324.287.552l.036.031a9.338,9.338,0,0,1-1.709,1.826,9.4,9.4,0,0,0-1.981-.809,10.507,10.507,0,0,1-.334-3.268c0-.1,0-.192,0-.285v-.006c0-.112.005-.22.008-.32h-.006c.323-.044.545-.144.552-.274.012-.2-.473-.388-1.083-.424s-1.114.095-1.126.293c-.008.131.2.258.522.34.014,0,.031.006.045.009,0,.041-.009.084-.014.127l-.013.1a17.706,17.706,0,0,1-1.089,3.367,9.292,9.292,0,0,0-2.718.425,5.151,5.151,0,0,1-1.28-1.58c-.1-.169-.19-.336-.264-.492l-.006,0c.256-.2.4-.4.338-.515-.09-.177-.6-.095-1.149.182s-.913.646-.823.823c.06.117.3.121.622.029.014,0,.03-.011.045-.015a9.028,9.028,0,0,1,.72,2.338,9.318,9.318,0,0,0-1.947,1.453,11.164,11.164,0,0,1-2.957-1.319c-.092-.053-.184-.106-.272-.159l-.008-.005c-.1-.057-.19-.113-.277-.166l0,0c.122-.306.145-.551.034-.623-.168-.109-.578.223-.915.742s-.473,1.028-.3,1.137c.111.073.329-.048.56-.289.01-.01.021-.024.031-.035a15.673,15.673,0,0,1,2.555,2.707,9.413,9.413,0,0,0-1.094,2.905,5.219,5.219,0,0,1-1.7.26c-.234,0-.456,0-.66-.016h0v.006c-.049-.326-.153-.549-.285-.555-.2-.009-.386.485-.414,1.1s.113,1.127.314,1.136c.133,0,.259-.209.337-.534,0-.014.005-.032.008-.047a9.134,9.134,0,0,1,2.225.465,9.27,9.27,0,0,0,.345,2.485,13.556,13.556,0,0,1-2.461,1.7l-.279.158-.005,0c-.1.054-.194.107-.284.155l0,.006c-.2-.26-.4-.4-.521-.344-.179.091-.1.612.181,1.164s.651.927.83.836c.118-.06.123-.309.032-.63,0-.014-.011-.03-.015-.044a14.773,14.773,0,0,1,3.441-.822,9.3,9.3,0,0,0,1.979,2.385,5.317,5.317,0,0,1-.649,1.62c-.108.188-.216.368-.324.526l.005,0c-.306-.122-.552-.143-.623-.033-.109.169.225.578.745.912s1.03.47,1.139.3c.072-.112-.05-.329-.291-.559-.011-.011-.025-.021-.037-.031a9.1,9.1,0,0,1,1.525-1.693,9.4,9.4,0,0,0,3.779,1.179,12.329,12.329,0,0,1,1.016,2.933c.026.106.051.213.075.316l.005.02c.025.108.048.213.07.311h.006c-.306.122-.5.275-.475.405.038.2.561.264,1.169.149s1.07-.369,1.033-.566c-.025-.131-.263-.2-.6-.205-.014,0-.031,0-.046,0a14.414,14.414,0,0,1,.154-3.461,9.348,9.348,0,0,0,2.382-.748,9.229,9.229,0,0,0,1.117-.621,5.436,5.436,0,0,1,1.217,1.191c.133.17.258.336.363.5l.005,0c-.228.238-.341.457-.265.565.115.165.619.01,1.126-.345s.823-.777.708-.942c-.077-.108-.323-.077-.628.059-.014.006-.029.015-.042.022a9.174,9.174,0,0,1-1.039-2.194,9.344,9.344,0,0,0,2.163-3.257,13.32,13.32,0,0,1,2.99.324c.108.02.216.042.319.064h0l.318.069v-.006c-.016.329.041.568.169.6.2.049.475-.4.626-1S448.365,3052.245,448.17,3052.2Z" fill="#bceaf2"/>
    <path id="Trazado_8382" data-name="Trazado 8382" d="M288.151,3242.253c-.1-.024-.224.116-.331.345l-.013.033a11.891,11.891,0,0,1-2.5-1.318,7.037,7.037,0,0,0-.23-2.769,8.234,8.234,0,0,1,1.994-1.441l.2-.111h0c.074-.042.147-.081.214-.118l0,0c.152.195.3.3.391.258.134-.068.073-.459-.136-.873s-.487-.694-.622-.626c-.088.045-.092.231-.024.472a.32.32,0,0,0,.012.033c-.034.016-.07.032-.107.047l-.056.025a13.671,13.671,0,0,1-2.631.571,2.634,2.634,0,0,1,.146.272,7.037,7.037,0,0,0-1.707-2.03l.152.1a3.492,3.492,0,0,1,.5-1.372c.083-.146.167-.285.25-.407l0,0c.229.091.413.107.466.024.082-.127-.168-.433-.558-.684s-.772-.352-.853-.225c-.054.083.037.246.218.419.008.008.018.015.027.023a7.046,7.046,0,0,1-1.3,1.385,7.17,7.17,0,0,0-1.5-.614,7.977,7.977,0,0,1-.253-2.478c0-.073,0-.146,0-.217v0c0-.085,0-.167.006-.243h0c.245-.033.413-.109.419-.208.009-.15-.359-.294-.822-.322s-.846.072-.855.223c-.006.1.154.2.4.258l.035.007c0,.031-.007.064-.011.1l-.009.08a13.577,13.577,0,0,1-.827,2.554,7.027,7.027,0,0,0-2.062.323,3.921,3.921,0,0,1-.972-1.2c-.073-.128-.143-.255-.2-.374l0,0c.194-.152.3-.3.256-.391-.068-.134-.458-.072-.872.139s-.692.49-.624.624c.046.089.232.091.472.022l.034-.012a6.915,6.915,0,0,1,.547,1.775,7.032,7.032,0,0,0-1.478,1.1,8.444,8.444,0,0,1-2.243-1l-.206-.12-.006,0-.211-.126,0,0c.093-.232.11-.418.026-.472-.128-.083-.438.169-.694.562s-.359.781-.231.864c.085.055.249-.037.425-.22a.264.264,0,0,0,.023-.027,11.894,11.894,0,0,1,1.939,2.054,7.123,7.123,0,0,0-.83,2.2,3.982,3.982,0,0,1-1.288.2c-.178,0-.347,0-.5-.013h0v.005c-.038-.247-.117-.417-.217-.421-.152-.007-.293.368-.314.837s.086.854.238.861c.1.005.2-.158.256-.4l.006-.036a6.919,6.919,0,0,1,1.688.352,7.049,7.049,0,0,0,.262,1.885,10.253,10.253,0,0,1-1.868,1.292l-.211.12,0,0-.215.118,0,0c-.154-.2-.306-.3-.4-.26-.136.068-.075.464.137.883s.494.7.63.634c.09-.046.093-.234.024-.478,0-.011-.008-.023-.012-.034a11.217,11.217,0,0,1,2.612-.623,7.034,7.034,0,0,0,1.5,1.809,4.014,4.014,0,0,1-.493,1.229c-.082.143-.163.28-.245.4l0,0c-.233-.092-.419-.108-.473-.024-.083.128.17.438.565.692s.782.356.864.228c.055-.085-.038-.25-.221-.425-.008-.008-.019-.015-.027-.023a6.93,6.93,0,0,1,1.156-1.285,7.113,7.113,0,0,0,2.867.9,9.361,9.361,0,0,1,.771,2.225c.02.081.039.162.057.24l0,.015c.018.082.036.162.053.236h0c-.232.093-.378.209-.36.307.029.15.425.2.887.114s.812-.28.783-.43c-.018-.1-.2-.155-.452-.156l-.036,0a10.994,10.994,0,0,1,.117-2.625,7.1,7.1,0,0,0,1.808-.568,7.223,7.223,0,0,0,.848-.471,4.153,4.153,0,0,1,.923.9c.1.129.2.256.275.376l0,0c-.173.181-.259.347-.2.429.088.124.471.007.855-.262s.625-.59.537-.714c-.058-.083-.245-.059-.476.044-.011.005-.022.012-.032.016a6.93,6.93,0,0,1-.788-1.664,7.077,7.077,0,0,0,1.64-2.471,10.083,10.083,0,0,1,2.269.246c.082.015.164.032.242.048h0c.085.017.166.035.242.052v0c-.013.25.031.432.128.456.148.037.36-.3.475-.757S288.3,3242.29,288.151,3242.253Z" fill="#bceaf2"/>
    <path id="Trazado_8383" data-name="Trazado 8383" d="M485.791,3095.456c-.094-.023-.215.111-.318.332l-.013.032a11.494,11.494,0,0,1-2.4-1.267,6.757,6.757,0,0,0-.22-2.662,7.914,7.914,0,0,1,1.916-1.385l.189-.106h0l.206-.113,0,0c.146.188.291.291.376.248.129-.065.071-.441-.13-.839s-.469-.667-.6-.6c-.086.043-.089.222-.023.454l.011.032c-.032.016-.068.03-.1.045l-.054.024a13.193,13.193,0,0,1-2.529.549,2.446,2.446,0,0,1,.141.261,6.783,6.783,0,0,0-1.641-1.951l.146.1a3.359,3.359,0,0,1,.48-1.319c.08-.14.16-.273.24-.391l0,0c.221.087.4.1.449.023.078-.121-.162-.416-.537-.657s-.742-.338-.82-.217c-.052.081.036.237.21.4.007.008.017.015.025.023a6.74,6.74,0,0,1-1.246,1.331,6.875,6.875,0,0,0-1.444-.59,7.66,7.66,0,0,1-.244-2.382c0-.071,0-.141,0-.208v0c0-.081,0-.16.006-.233h0c.235-.032.4-.1.4-.2.009-.145-.345-.283-.79-.31s-.812.069-.821.214c-.005.095.148.188.381.248l.033.007c0,.029-.006.061-.01.092l-.01.077a12.964,12.964,0,0,1-.794,2.455,6.758,6.758,0,0,0-1.982.31,3.763,3.763,0,0,1-.934-1.152c-.07-.124-.138-.246-.192-.359h0c.187-.146.289-.291.246-.376-.065-.129-.441-.069-.838.133s-.665.471-.6.6c.044.086.223.088.454.022l.033-.011a6.609,6.609,0,0,1,.525,1.705,6.759,6.759,0,0,0-1.42,1.059,8.144,8.144,0,0,1-2.156-.962c-.067-.038-.134-.077-.2-.116l-.006,0-.2-.121,0,0c.09-.223.106-.4.026-.454-.123-.08-.422.162-.668.541s-.345.75-.222.829c.082.053.24-.035.409-.21l.022-.026a11.369,11.369,0,0,1,1.863,1.974,6.85,6.85,0,0,0-.8,2.118,3.8,3.8,0,0,1-1.238.19c-.171,0-.333,0-.482-.012h0v0c-.036-.238-.112-.4-.208-.405-.146-.007-.281.353-.3.8s.083.821.229.828c.1,0,.189-.152.246-.389,0-.01,0-.023.006-.034a6.66,6.66,0,0,1,1.622.339,6.827,6.827,0,0,0,.251,1.811,9.83,9.83,0,0,1-1.794,1.242l-.2.115,0,0-.207.114,0,0c-.148-.19-.294-.294-.38-.251-.131.066-.072.446.132.849s.475.675.605.609c.087-.044.09-.225.024-.459l-.012-.033a10.841,10.841,0,0,1,2.51-.6,6.774,6.774,0,0,0,1.443,1.739,3.856,3.856,0,0,1-.473,1.181c-.079.138-.158.269-.236.385l0,0c-.223-.089-.4-.1-.454-.024-.079.124.164.421.543.665s.751.343.831.22c.052-.082-.037-.24-.213-.408l-.026-.023a6.6,6.6,0,0,1,1.112-1.234,6.849,6.849,0,0,0,2.755.86,8.975,8.975,0,0,1,.741,2.138c.019.078.037.155.055.231l0,.015c.018.078.035.155.051.226h0c-.223.09-.363.2-.345.295.027.144.408.193.852.109s.78-.268.753-.412c-.018-.1-.191-.149-.435-.15l-.034,0a10.534,10.534,0,0,1,.112-2.524,6.818,6.818,0,0,0,1.738-.545,6.913,6.913,0,0,0,.814-.454,4,4,0,0,1,.888.869c.1.124.187.245.264.361l0,0c-.167.174-.249.334-.194.412.084.12.452.007.821-.252s.6-.566.517-.686c-.056-.079-.236-.057-.458.043l-.031.016a6.689,6.689,0,0,1-.757-1.6,6.811,6.811,0,0,0,1.577-2.375,9.7,9.7,0,0,1,2.18.236l.233.047h0l.232.05v0c-.012.24.03.414.123.438.142.035.347-.29.456-.728S485.933,3095.492,485.791,3095.456Z" fill="#bceaf2"/>
    <path id="Trazado_8384" data-name="Trazado 8384" d="M271.434,3086.337c-.2-.05-.457.236-.677.705-.009.021-.017.046-.027.067a24.347,24.347,0,0,1-5.111-2.692,14.362,14.362,0,0,0-.468-5.658,16.8,16.8,0,0,1,4.073-2.942c.135-.077.269-.154.4-.227h0c.152-.085.3-.165.437-.24l0-.009c.311.4.618.617.8.526.274-.138.151-.936-.277-1.782s-.995-1.418-1.27-1.279c-.181.091-.189.472-.049.964.006.022.017.046.024.068-.069.033-.143.065-.218.1l-.116.05a27.877,27.877,0,0,1-5.373,1.167,5.678,5.678,0,0,1,.3.555,14.391,14.391,0,0,0-3.487-4.146c.189.127.31.21.31.21a7.147,7.147,0,0,1,1.019-2.8c.171-.3.341-.582.512-.832l-.007,0c.469.186.844.22.953.05.167-.258-.344-.884-1.14-1.4s-1.577-.719-1.743-.46c-.111.171.076.5.445.856.017.016.038.032.055.048a14.434,14.434,0,0,1-2.648,2.829,14.633,14.633,0,0,0-3.07-1.254c-.481-1-.529-3.637-.517-5.063,0-.149,0-.3.005-.442v-.009c0-.174.008-.341.012-.5h-.009c.5-.068.844-.223.856-.424.018-.307-.734-.6-1.679-.658s-1.727.147-1.745.454c-.012.2.313.4.808.528l.071.014c-.005.063-.014.13-.022.2l-.019.163a27.72,27.72,0,0,1-1.688,5.218,14.4,14.4,0,0,0-4.212.659,7.961,7.961,0,0,1-1.985-2.449c-.15-.262-.294-.521-.409-.763l-.008,0c.4-.312.614-.62.523-.8-.14-.274-.937-.148-1.781.282s-1.415,1-1.275,1.275c.092.182.473.188.964.046.022-.006.047-.017.069-.024a14.081,14.081,0,0,1,1.117,3.624,14.415,14.415,0,0,0-3.018,2.251,17.3,17.3,0,0,1-4.582-2.043c-.143-.082-.285-.165-.422-.247l-.012-.007c-.151-.089-.295-.177-.43-.258l-.005.008c.19-.475.225-.855.054-.966-.261-.169-.9.345-1.418,1.15s-.733,1.594-.472,1.763c.173.112.509-.076.868-.448.016-.017.032-.038.048-.055a24.311,24.311,0,0,1,3.96,4.2,14.548,14.548,0,0,0-1.7,4.5,8.111,8.111,0,0,1-2.631.4c-.362,0-.707,0-1.024-.025h0v.01c-.076-.505-.238-.851-.442-.86-.311-.014-.6.751-.641,1.709s.175,1.746.486,1.76c.206.009.4-.323.522-.827.005-.022.008-.049.013-.072a14.148,14.148,0,0,1,3.449.719,14.346,14.346,0,0,0,.533,3.851,20.945,20.945,0,0,1-3.814,2.638c-.145.084-.291.166-.432.244l-.008.005-.439.241,0,.009c-.314-.4-.625-.625-.807-.532-.278.14-.153.948.28,1.8s1.008,1.436,1.286,1.295c.184-.093.191-.478.05-.976-.007-.022-.017-.046-.024-.069a22.91,22.91,0,0,1,5.334-1.273,14.368,14.368,0,0,0,3.067,3.7,8.27,8.27,0,0,1-1.006,2.51c-.168.293-.335.571-.5.817l.008,0c-.475-.189-.855-.222-.965-.05-.169.261.348.894,1.154,1.413s1.6.727,1.765.466c.112-.174-.077-.509-.451-.867-.017-.016-.039-.032-.056-.048a14.117,14.117,0,0,1,2.362-2.624,14.556,14.556,0,0,0,5.856,1.828,19.077,19.077,0,0,1,1.575,4.545c.041.165.08.33.117.49l.007.031c.038.168.075.33.108.481h.01c-.475.19-.774.427-.736.628.058.3.869.409,1.811.23s1.659-.57,1.6-.876c-.039-.2-.407-.317-.924-.319-.023,0-.05,0-.073,0a22.449,22.449,0,0,1,.239-5.363,14.462,14.462,0,0,0,3.692-1.159,14.669,14.669,0,0,0,1.732-.963,8.5,8.5,0,0,1,1.886,1.845c.2.264.4.522.562.768l.007-.006c-.353.369-.528.708-.411.875.179.255.96.016,1.745-.535s1.276-1.2,1.1-1.459c-.119-.168-.5-.12-.973.091l-.066.034a14.253,14.253,0,0,1-1.609-3.4,14.48,14.48,0,0,0,3.351-5.048,20.718,20.718,0,0,1,4.635.5c.167.033.333.066.494.1h0l.493.106,0-.009c-.026.511.063.882.261.932.3.075.736-.617.97-1.547S271.736,3086.413,271.434,3086.337Z" fill="#bceaf2"/>
    <path id="Trazado_8385" data-name="Trazado 8385" d="M519.792,3206.423c-.286-.072-.655.339-.969,1.01-.014.03-.026.066-.039.1-2.44-.676-6.441-3.274-7.32-3.857a20.607,20.607,0,0,0-.67-8.1c.946-1.309,4.085-3.215,5.832-4.214.193-.111.387-.22.574-.324l0,0c.218-.121.429-.236.627-.343l-.006-.013c.444.57.884.885,1.142.754.393-.2.216-1.341-.4-2.552s-1.425-2.032-1.819-1.833c-.26.131-.27.676-.07,1.381.009.031.023.067.033.1-.1.047-.2.092-.311.137l-.166.072a40.036,40.036,0,0,1-7.7,1.672,7.319,7.319,0,0,1,.427.794,20.571,20.571,0,0,0-4.994-5.938c.271.182.445.3.445.3a10.214,10.214,0,0,1,1.46-4.014c.244-.429.488-.833.732-1.191l-.01-.007c.671.266,1.209.314,1.366.071.238-.37-.493-1.266-1.633-2s-2.259-1.03-2.5-.66c-.157.245.11.721.639,1.227.023.022.054.045.078.068a20.644,20.644,0,0,1-3.793,4.053,20.8,20.8,0,0,0-4.4-1.8c-.688-1.429-.756-5.209-.74-7.251,0-.214,0-.428.008-.634v-.013c.005-.248.012-.488.018-.711h-.013c.716-.1,1.208-.319,1.225-.608.027-.44-1.05-.862-2.4-.942s-2.473.21-2.5.65c-.017.291.449.574,1.158.756.032.008.07.012.1.02-.007.09-.02.186-.031.28l-.029.234a39.511,39.511,0,0,1-2.417,7.474,20.616,20.616,0,0,0-6.033.943,11.436,11.436,0,0,1-2.843-3.507c-.214-.375-.42-.746-.585-1.093l-.012.006c.568-.447.88-.887.749-1.145-.2-.392-1.342-.211-2.551.405s-2.026,1.434-1.826,1.826c.133.26.678.269,1.381.066.032-.009.067-.025.1-.034a20.15,20.15,0,0,1,1.6,5.19,20.627,20.627,0,0,0-4.323,3.224c-1.634-.2-4.81-1.916-6.563-2.927-.2-.117-.408-.236-.6-.353l-.018-.01c-.215-.128-.422-.253-.615-.37l-.007.011c.272-.679.322-1.223.077-1.382-.374-.243-1.283.494-2.031,1.646s-1.05,2.283-.676,2.525c.248.161.73-.108,1.244-.642.022-.023.045-.054.068-.078,2.081,1.422,5.012,5.151,5.671,6.008a20.844,20.844,0,0,0-2.427,6.449,11.592,11.592,0,0,1-3.769.577c-.519.006-1.014,0-1.467-.036h0v.014c-.11-.723-.342-1.219-.634-1.232-.445-.02-.856,1.076-.918,2.448s.25,2.5.7,2.52c.295.014.574-.462.747-1.183.008-.032.012-.071.02-.1a20.255,20.255,0,0,1,4.939,1.03,20.567,20.567,0,0,0,.764,5.516,30.022,30.022,0,0,1-5.463,3.778c-.208.12-.416.238-.618.35l-.012.007-.629.346.006.012c-.45-.577-.9-.9-1.157-.763-.4.2-.218,1.358.4,2.584s1.444,2.056,1.842,1.854c.263-.133.273-.684.071-1.4-.009-.031-.024-.066-.034-.1a32.844,32.844,0,0,1,7.639-1.824,20.581,20.581,0,0,0,4.394,5.293,11.807,11.807,0,0,1-1.442,3.6c-.24.419-.479.818-.719,1.169l.011.008c-.68-.27-1.225-.318-1.383-.072-.241.375.5,1.281,1.654,2.024s2.287,1.042,2.528.667c.159-.248-.111-.729-.647-1.241-.024-.023-.055-.046-.08-.069a20.235,20.235,0,0,1,3.384-3.758,20.835,20.835,0,0,0,8.387,2.618,27.345,27.345,0,0,1,2.255,6.51c.059.236.115.472.167.7l.011.045c.055.24.107.472.155.689l.013,0c-.679.272-1.107.612-1.053.9.083.438,1.244.586,2.594.331s2.375-.818,2.293-1.256c-.055-.29-.583-.453-1.324-.456-.033,0-.071,0-.1,0a32.125,32.125,0,0,1,.342-7.681,20.651,20.651,0,0,0,7.768-3.039,12.092,12.092,0,0,1,2.7,2.643c.295.377.572.747.8,1.1l.011-.008c-.506.529-.757,1.014-.589,1.254.256.365,1.375.021,2.5-.767s1.828-1.724,1.572-2.089c-.17-.242-.717-.173-1.394.13-.03.013-.063.034-.094.048a20.344,20.344,0,0,1-2.305-4.869,20.714,20.714,0,0,0,4.8-7.229,29.564,29.564,0,0,1,6.638.718c.239.046.478.094.708.143h0c.247.052.485.1.707.152l0-.013c-.038.731.091,1.262.375,1.334.432.108,1.054-.884,1.388-2.215S520.224,3206.532,519.792,3206.423Z" fill="#bceaf2"/>
    <g id="Grupo_2231" data-name="Grupo 2231">
      <g id="Grupo_2168" data-name="Grupo 2168">
        <g id="Grupo_2153" data-name="Grupo 2153">
          <path id="Trazado_8386" data-name="Trazado 8386" d="M451.6,3207.741a4.164,4.164,0,1,0,3.61,2.082A4.153,4.153,0,0,0,451.6,3207.741Z" fill="#66cdd8"/>
        </g>
        <g id="Grupo_2154" data-name="Grupo 2154">
          <path id="Trazado_8387" data-name="Trazado 8387" d="M412.711,3242.823a4.165,4.165,0,1,0,3.61,2.083A4.165,4.165,0,0,0,412.711,3242.823Z" fill="#66cdd8"/>
        </g>
        <g id="Grupo_2155" data-name="Grupo 2155">
          <path id="Trazado_8388" data-name="Trazado 8388" d="M372.717,3238.659a4.164,4.164,0,1,0,3.611,2.083A4.164,4.164,0,0,0,372.717,3238.659Z" fill="#66cdd8"/>
        </g>
        <g id="Grupo_2156" data-name="Grupo 2156">
          <path id="Trazado_8389" data-name="Trazado 8389" d="M427.649,3230.8a1.765,1.765,0,0,0-1.146.417,1.784,1.784,0,0,0,1.146,3.151v0a1.784,1.784,0,0,0,0-3.568Z" fill="#66cdd8"/>
        </g>
        <g id="Grupo_2157" data-name="Grupo 2157">
          <path id="Trazado_8390" data-name="Trazado 8390" d="M390.35,3232.7a1.783,1.783,0,0,0-1.784,1.784,1.786,1.786,0,0,0,1.784,1.784v0a1.784,1.784,0,0,0,0-3.568Z" fill="#66cdd8"/>
        </g>
        <g id="Grupo_2158" data-name="Grupo 2158">
          <path id="Trazado_8391" data-name="Trazado 8391" d="M448.969,3228.915a1.766,1.766,0,0,0-1.147.417,1.784,1.784,0,0,0,1.146,3.151v0a1.784,1.784,0,0,0,0-3.568Z" fill="#66cdd8"/>
        </g>
        <g id="Grupo_2159" data-name="Grupo 2159">
          <path id="Trazado_8392" data-name="Trazado 8392" d="M416.879,3276.742a1.762,1.762,0,0,0-1.146.416,1.784,1.784,0,0,0,1.145,3.151v0a1.784,1.784,0,0,0,0-3.567Z" fill="#66cdd8"/>
        </g>
        <g id="Grupo_2160" data-name="Grupo 2160">
          <path id="Trazado_8393" data-name="Trazado 8393" d="M432.834,3209.7a1.756,1.756,0,0,0-1.146.417,1.784,1.784,0,0,0,1.146,3.151v0a1.784,1.784,0,0,0,0-3.568Z" fill="#66cdd8"/>
        </g>
        <g id="Grupo_2161" data-name="Grupo 2161">
          <path id="Trazado_8394" data-name="Trazado 8394" d="M400.284,3256.925a1.755,1.755,0,0,0-1.145.417,1.783,1.783,0,0,0,1.145,3.15v0a1.783,1.783,0,1,0,0-3.567Z" fill="#66cdd8"/>
        </g>
        <g id="Grupo_2162" data-name="Grupo 2162">
          <path id="Trazado_8395" data-name="Trazado 8395" d="M415.193,3230.292a3.343,3.343,0,0,1-2.89-1.668,3.335,3.335,0,0,1,2.884-5,3.333,3.333,0,0,1,3.223,4.2,3.332,3.332,0,0,1-3.217,2.472Zm-.006-4.95a1.613,1.613,0,1,0,1.4.808A1.614,1.614,0,0,0,415.187,3225.342Z" fill="#66cdd8"/>
        </g>
        <g id="Grupo_2163" data-name="Grupo 2163">
          <path id="Trazado_8396" data-name="Trazado 8396" d="M346.536,3243.064a3.334,3.334,0,1,1,2.885-5,3.336,3.336,0,0,1-1.219,4.555A3.344,3.344,0,0,1,346.536,3243.064Zm-.005-4.95a1.617,1.617,0,0,0-1.4,2.424,1.615,1.615,0,0,0,2.207.59,1.616,1.616,0,0,0,.591-2.206A1.624,1.624,0,0,0,346.531,3238.114Z" fill="#66cdd8"/>
        </g>
        <g id="Grupo_2164" data-name="Grupo 2164">
          <path id="Trazado_8397" data-name="Trazado 8397" d="M365.592,3262.149a3.345,3.345,0,0,1-2.889-1.668,3.334,3.334,0,0,1,2.884-5,3.334,3.334,0,0,1,.005,6.669Zm-.005-4.95a1.615,1.615,0,1,0,1.4.807A1.611,1.611,0,0,0,365.587,3257.2Z" fill="#66cdd8"/>
        </g>
        <g id="Grupo_2165" data-name="Grupo 2165">
          <path id="Trazado_8398" data-name="Trazado 8398" d="M471.212,3243.064a3.344,3.344,0,0,1-2.89-1.667,3.338,3.338,0,0,1,1.22-4.555,3.332,3.332,0,0,1,4.554,1.221,3.334,3.334,0,0,1-2.884,5Zm-.005-4.95a1.615,1.615,0,1,0,1.4.808A1.611,1.611,0,0,0,471.207,3238.114Z" fill="#66cdd8"/>
        </g>
        <g id="Grupo_2166" data-name="Grupo 2166">
          <path id="Trazado_8399" data-name="Trazado 8399" d="M471.209,3255.939a1.338,1.338,0,0,0-.871.317,1.357,1.357,0,0,0,.871,2.4v0a1.357,1.357,0,0,0,0-2.714Z" fill="#66cdd8"/>
        </g>
        <g id="Grupo_2167" data-name="Grupo 2167">
          <path id="Trazado_8400" data-name="Trazado 8400" d="M356.4,3277.194a1.342,1.342,0,0,0-.872.317,1.357,1.357,0,0,0,.872,2.4v0a1.357,1.357,0,1,0,0-2.714Z" fill="#66cdd8"/>
        </g>
      </g>
      <g id="Grupo_2182" data-name="Grupo 2182">
        <g id="Grupo_2169" data-name="Grupo 2169">
          <path id="Trazado_8401" data-name="Trazado 8401" d="M433.463,3079.705a4.164,4.164,0,1,0,2.082-3.61A4.148,4.148,0,0,0,433.463,3079.705Z" fill="#66cdd8"/>
        </g>
        <g id="Grupo_2170" data-name="Grupo 2170">
          <path id="Trazado_8402" data-name="Trazado 8402" d="M468.545,3118.592a4.165,4.165,0,1,0,2.083-3.611A4.165,4.165,0,0,0,468.545,3118.592Z" fill="#66cdd8"/>
        </g>
        <g id="Grupo_2171" data-name="Grupo 2171">
          <path id="Trazado_8403" data-name="Trazado 8403" d="M464.379,3158.585a4.165,4.165,0,1,0,2.084-3.61A4.169,4.169,0,0,0,464.379,3158.585Z" fill="#66cdd8"/>
        </g>
        <g id="Grupo_2172" data-name="Grupo 2172">
          <path id="Trazado_8404" data-name="Trazado 8404" d="M456.526,3103.653a1.757,1.757,0,0,0,.418,1.146,1.783,1.783,0,0,0,3.15-1.145h0a1.784,1.784,0,0,0-3.568,0Z" fill="#66cdd8"/>
        </g>
        <g id="Grupo_2173" data-name="Grupo 2173">
          <path id="Trazado_8405" data-name="Trazado 8405" d="M458.416,3140.953a1.764,1.764,0,0,0,.417,1.146,1.784,1.784,0,0,0,3.151-1.145h0a1.784,1.784,0,0,0-3.568,0Z" fill="#66cdd8"/>
        </g>
        <g id="Grupo_2174" data-name="Grupo 2174">
          <path id="Trazado_8406" data-name="Trazado 8406" d="M454.636,3082.334a1.759,1.759,0,0,0,.418,1.146,1.784,1.784,0,0,0,3.151-1.146h0a1.785,1.785,0,0,0-3.569,0Z" fill="#66cdd8"/>
        </g>
        <g id="Grupo_2175" data-name="Grupo 2175">
          <path id="Trazado_8407" data-name="Trazado 8407" d="M502.463,3114.425a1.784,1.784,0,0,0,1.784,1.783,1.786,1.786,0,0,0,1.784-1.783h0a1.784,1.784,0,1,0-3.568,0Z" fill="#66cdd8"/>
        </g>
        <g id="Grupo_2176" data-name="Grupo 2176">
          <path id="Trazado_8408" data-name="Trazado 8408" d="M435.419,3098.469a1.759,1.759,0,0,0,.417,1.146,1.783,1.783,0,0,0,3.15-1.146h0a1.783,1.783,0,1,0-3.567,0Z" fill="#66cdd8"/>
        </g>
        <g id="Grupo_2177" data-name="Grupo 2177">
          <path id="Trazado_8409" data-name="Trazado 8409" d="M482.646,3131.019a1.764,1.764,0,0,0,.416,1.146,1.784,1.784,0,0,0,3.151-1.146h0a1.784,1.784,0,1,0-3.567,0Z" fill="#66cdd8"/>
        </g>
        <g id="Grupo_2178" data-name="Grupo 2178">
          <path id="Trazado_8410" data-name="Trazado 8410" d="M452.685,3119.448a3.358,3.358,0,0,1-.869-.116,3.311,3.311,0,0,1-2.025-1.552,3.333,3.333,0,0,1,1.221-4.555,3.335,3.335,0,0,1,5,2.885,3.339,3.339,0,0,1-3.328,3.338Zm-.011-4.95a1.6,1.6,0,0,0-.8.216,1.614,1.614,0,0,0-.591,2.207,1.614,1.614,0,1,0,1.394-2.423Z" fill="#66cdd8"/>
        </g>
        <g id="Grupo_2179" data-name="Grupo 2179">
          <path id="Trazado_8411" data-name="Trazado 8411" d="M454.643,3185.629a3.334,3.334,0,0,1-1.673-6.222,3.334,3.334,0,0,1,5,2.885,3.345,3.345,0,0,1-1.668,2.89A3.307,3.307,0,0,1,454.643,3185.629Zm-.011-4.95a1.6,1.6,0,0,0-.8.216,1.614,1.614,0,0,0-.592,2.207,1.616,1.616,0,0,0,2.206.591,1.611,1.611,0,0,0,.591-2.206,1.6,1.6,0,0,0-.98-.752A1.651,1.651,0,0,0,454.632,3180.679Z" fill="#66cdd8"/>
        </g>
        <g id="Grupo_2180" data-name="Grupo 2180">
          <path id="Trazado_8412" data-name="Trazado 8412" d="M465.457,3063.426a3.33,3.33,0,1,1,1.662-.445A3.336,3.336,0,0,1,465.457,3063.426Zm-.009-4.948a1.616,1.616,0,1,0,1.4.807A1.611,1.611,0,0,0,465.448,3058.478Z" fill="#66cdd8"/>
        </g>
        <g id="Grupo_2181" data-name="Grupo 2181">
          <path id="Trazado_8413" data-name="Trazado 8413" d="M481.66,3060.094a1.357,1.357,0,0,0,2.714,0h0a1.357,1.357,0,0,0-2.714,0Z" fill="#66cdd8"/>
        </g>
      </g>
      <g id="Grupo_2198" data-name="Grupo 2198">
        <g id="Grupo_2183" data-name="Grupo 2183">
          <path id="Trazado_8414" data-name="Trazado 8414" d="M317.926,3028.177a4.161,4.161,0,1,0,3.373-2.448A4.168,4.168,0,0,0,317.926,3028.177Z" fill="#66cdd8"/>
        </g>
        <g id="Grupo_2184" data-name="Grupo 2184">
          <path id="Trazado_8415" data-name="Trazado 8415" d="M349.9,3061.026a4.16,4.16,0,1,0,3.373-2.449A4.169,4.169,0,0,0,349.9,3061.026Z" fill="#66cdd8"/>
        </g>
        <g id="Grupo_2185" data-name="Grupo 2185">
          <path id="Trazado_8416" data-name="Trazado 8416" d="M399.605,3050.681a4.16,4.16,0,1,0,3.373-2.449A4.168,4.168,0,0,0,399.605,3050.681Z" fill="#66cdd8"/>
        </g>
        <g id="Grupo_2186" data-name="Grupo 2186">
          <path id="Trazado_8417" data-name="Trazado 8417" d="M345.939,3048.124a1.785,1.785,0,0,0,1.961,1.588l.022.211-.022-.211a1.784,1.784,0,1,0-1.961-1.588Z" fill="#66cdd8"/>
        </g>
        <g id="Grupo_2187" data-name="Grupo 2187">
          <path id="Trazado_8418" data-name="Trazado 8418" d="M392.806,3022.225a1.787,1.787,0,0,0,1.961,1.588l.022.21-.022-.21a1.784,1.784,0,0,0,.81-3.254,1.764,1.764,0,0,0-1.183-.3A1.787,1.787,0,0,0,392.806,3022.225Z" fill="#66cdd8"/>
        </g>
        <g id="Grupo_2188" data-name="Grupo 2188">
          <path id="Trazado_8419" data-name="Trazado 8419" d="M324.538,3048.474a1.787,1.787,0,0,0,1.962,1.587l.022.211-.022-.211a1.784,1.784,0,0,0,.81-3.253,1.76,1.76,0,0,0-1.183-.3A1.787,1.787,0,0,0,324.538,3048.474Z" fill="#66cdd8"/>
        </g>
        <g id="Grupo_2189" data-name="Grupo 2189">
          <path id="Trazado_8420" data-name="Trazado 8420" d="M309.937,3095.837a1.786,1.786,0,0,0,1.961,1.588l.022.211-.022-.211a1.785,1.785,0,0,0,.81-3.254,1.761,1.761,0,0,0-1.183-.294A1.786,1.786,0,0,0,309.937,3095.837Z" fill="#66cdd8"/>
        </g>
        <g id="Grupo_2190" data-name="Grupo 2190">
          <path id="Trazado_8421" data-name="Trazado 8421" d="M338.577,3027.675a1.785,1.785,0,0,0,1.959,1.587l.023.211-.022-.211a1.784,1.784,0,0,0,.811-3.253,1.765,1.765,0,0,0-1.184-.295A1.786,1.786,0,0,0,338.577,3027.675Z" fill="#66cdd8"/>
        </g>
        <g id="Grupo_2191" data-name="Grupo 2191">
          <path id="Trazado_8422" data-name="Trazado 8422" d="M381.448,3070.094a1.784,1.784,0,0,0,1.96,1.587l.023.211-.023-.211a1.783,1.783,0,0,0,.81-3.253,1.761,1.761,0,0,0-1.183-.295A1.787,1.787,0,0,0,381.448,3070.094Z" fill="#66cdd8"/>
        </g>
        <g id="Grupo_2192" data-name="Grupo 2192">
          <path id="Trazado_8423" data-name="Trazado 8423" d="M385.008,3061.889a3.356,3.356,0,0,1-1.358-.288,3.337,3.337,0,0,1-1.69-4.4h0a3.334,3.334,0,1,1,3.392,4.673C385.238,3061.883,385.123,3061.889,385.008,3061.889Zm-1.477-3.991a1.616,1.616,0,0,0,1.642,2.264,1.616,1.616,0,1,0-1.642-2.264Z" fill="#66cdd8"/>
        </g>
        <g id="Grupo_2193" data-name="Grupo 2193">
          <path id="Trazado_8424" data-name="Trazado 8424" d="M415.192,3036.071a3.345,3.345,0,0,1-1.358-.289,3.337,3.337,0,0,1-1.689-4.4h0a3.334,3.334,0,1,1,3.047,4.691Zm0-4.95a1.6,1.6,0,0,0-.167.009,1.621,1.621,0,0,0-1.309.949h0a1.619,1.619,0,0,0,.818,2.133,1.615,1.615,0,1,0,.658-3.091Z" fill="#66cdd8"/>
        </g>
        <g id="Grupo_2194" data-name="Grupo 2194">
          <path id="Trazado_8425" data-name="Trazado 8425" d="M412.176,3070.867a3.364,3.364,0,0,1-1.359-.288,3.338,3.338,0,0,1-1.689-4.4h0a3.334,3.334,0,1,1,3.391,4.673A3.294,3.294,0,0,1,412.176,3070.867Zm-1.478-3.992a1.616,1.616,0,1,0,1.31-.949,1.61,1.61,0,0,0-1.31.949Z" fill="#66cdd8"/>
        </g>
        <g id="Grupo_2195" data-name="Grupo 2195">
          <path id="Trazado_8426" data-name="Trazado 8426" d="M314.185,3073.1a3.335,3.335,0,0,1-3.045-4.691h0a3.334,3.334,0,0,1,4.4-1.689,3.337,3.337,0,0,1,1.69,4.4,3.334,3.334,0,0,1-3.046,1.978Zm-1.475-3.992a1.615,1.615,0,1,0,2.951,1.314,1.619,1.619,0,0,0-.819-2.132,1.615,1.615,0,0,0-2.132.818Z" fill="#66cdd8"/>
        </g>
        <g id="Grupo_2196" data-name="Grupo 2196">
          <path id="Trazado_8427" data-name="Trazado 8427" d="M335.407,3074.417a1.359,1.359,0,0,0,1.492,1.207l.017.161-.017-.161a1.357,1.357,0,1,0-1.492-1.207Z" fill="#66cdd8"/>
        </g>
        <g id="Grupo_2197" data-name="Grupo 2197">
          <path id="Trazado_8428" data-name="Trazado 8428" d="M422.026,3086.342a1.36,1.36,0,0,0,1.492,1.208l.017.161-.016-.161a1.357,1.357,0,0,0,.616-2.475,1.343,1.343,0,0,0-.9-.224A1.358,1.358,0,0,0,422.026,3086.342Z" fill="#66cdd8"/>
        </g>
      </g>
      <g id="Grupo_2214" data-name="Grupo 2214">
        <g id="Grupo_2199" data-name="Grupo 2199">
          <path id="Trazado_8429" data-name="Trazado 8429" d="M297.788,3065.964a4.161,4.161,0,1,0,2.448,3.373A4.167,4.167,0,0,0,297.788,3065.964Z" fill="#66cdd8"/>
        </g>
        <g id="Grupo_2200" data-name="Grupo 2200">
          <path id="Trazado_8430" data-name="Trazado 8430" d="M266.961,3108.3a4.163,4.163,0,1,0,2.449,3.374A4.169,4.169,0,0,0,266.961,3108.3Z" fill="#66cdd8"/>
        </g>
        <g id="Grupo_2201" data-name="Grupo 2201">
          <path id="Trazado_8431" data-name="Trazado 8431" d="M275.284,3147.644a4.16,4.16,0,1,0,2.449,3.373A4.168,4.168,0,0,0,275.284,3147.644Z" fill="#66cdd8"/>
        </g>
        <g id="Grupo_2202" data-name="Grupo 2202">
          <path id="Trazado_8432" data-name="Trazado 8432" d="M277.84,3093.977a1.786,1.786,0,0,0-1.587,1.961l-.211.023.211-.023a1.784,1.784,0,0,0,3.253.81,1.757,1.757,0,0,0,.295-1.183A1.787,1.787,0,0,0,277.84,3093.977Z" fill="#66cdd8"/>
        </g>
        <g id="Grupo_2203" data-name="Grupo 2203">
          <path id="Trazado_8433" data-name="Trazado 8433" d="M279.86,3131.27a1.785,1.785,0,0,0-1.587,1.961l-.211.022.211-.022a1.784,1.784,0,0,0,3.253.81,1.757,1.757,0,0,0,.294-1.183A1.785,1.785,0,0,0,279.86,3131.27Z" fill="#66cdd8"/>
        </g>
        <g id="Grupo_2204" data-name="Grupo 2204">
          <path id="Trazado_8434" data-name="Trazado 8434" d="M277.491,3072.577a1.787,1.787,0,0,0-1.587,1.961l-.21.022.21-.022a1.784,1.784,0,0,0,3.254.81,1.757,1.757,0,0,0,.294-1.183A1.786,1.786,0,0,0,277.491,3072.577Z" fill="#66cdd8"/>
        </g>
        <g id="Grupo_2205" data-name="Grupo 2205">
          <path id="Trazado_8435" data-name="Trazado 8435" d="M233.282,3109.491a1.785,1.785,0,0,0-1.587,1.961l-.211.022.211-.022a1.783,1.783,0,0,0,3.253.809,1.757,1.757,0,0,0,.294-1.183A1.785,1.785,0,0,0,233.282,3109.491Z" fill="#66cdd8"/>
        </g>
        <g id="Grupo_2206" data-name="Grupo 2206">
          <path id="Trazado_8436" data-name="Trazado 8436" d="M298.29,3086.615a1.785,1.785,0,0,0-1.587,1.961l-.211.022.211-.022a1.783,1.783,0,0,0,3.253.809,1.751,1.751,0,0,0,.3-1.183A1.787,1.787,0,0,0,298.29,3086.615Z" fill="#66cdd8"/>
        </g>
        <g id="Grupo_2207" data-name="Grupo 2207">
          <path id="Trazado_8437" data-name="Trazado 8437" d="M254.724,3123.924a1.783,1.783,0,0,0-1.586,1.959l-.212.023.212-.022a1.783,1.783,0,0,0,3.253.81,1.758,1.758,0,0,0,.294-1.184A1.784,1.784,0,0,0,254.724,3123.924Z" fill="#66cdd8"/>
        </g>
        <g id="Grupo_2208" data-name="Grupo 2208">
          <path id="Trazado_8438" data-name="Trazado 8438" d="M284.926,3110.888a3.335,3.335,0,1,1,3.05-1.977A3.331,3.331,0,0,1,284.926,3110.888Zm.007-4.95a1.615,1.615,0,1,0,.655.14h0A1.6,1.6,0,0,0,284.933,3105.938Z" fill="#66cdd8"/>
        </g>
        <g id="Grupo_2209" data-name="Grupo 2209">
          <path id="Trazado_8439" data-name="Trazado 8439" d="M289.9,3176.913a3.334,3.334,0,1,1,1.359-6.381h0a3.331,3.331,0,0,1,1.688,4.4,3.3,3.3,0,0,1-1.851,1.755A3.342,3.342,0,0,1,289.9,3176.913Zm.006-4.951a1.624,1.624,0,0,0-.581.108,1.615,1.615,0,1,0,2.185,1.342,1.623,1.623,0,0,0-.95-1.31A1.606,1.606,0,0,0,289.9,3171.962Z" fill="#66cdd8"/>
        </g>
        <g id="Grupo_2210" data-name="Grupo 2210">
          <path id="Trazado_8440" data-name="Trazado 8440" d="M251.419,3162.472a3.334,3.334,0,1,1,1.36-6.381h0a3.336,3.336,0,0,1-1.36,6.381Zm.006-4.951a1.616,1.616,0,1,0,.654.14h0A1.61,1.61,0,0,0,251.425,3157.521Z" fill="#66cdd8"/>
        </g>
        <g id="Grupo_2211" data-name="Grupo 2211">
          <path id="Trazado_8441" data-name="Trazado 8441" d="M266.369,3056.511a3.334,3.334,0,1,1,1.36-6.381h0a3.335,3.335,0,0,1-1.361,6.38Zm.006-4.951a1.616,1.616,0,1,0,1.6,1.45,1.624,1.624,0,0,0-.95-1.31A1.605,1.605,0,0,0,266.375,3051.56Z" fill="#66cdd8"/>
        </g>
        <g id="Grupo_2212" data-name="Grupo 2212">
          <path id="Trazado_8442" data-name="Trazado 8442" d="M248.761,3053.663a1.359,1.359,0,0,0-1.208,1.492l-.16.016.16-.016a1.357,1.357,0,0,0,2.475.616,1.336,1.336,0,0,0,.224-.9A1.358,1.358,0,0,0,248.761,3053.663Z" fill="#66cdd8"/>
        </g>
        <g id="Grupo_2213" data-name="Grupo 2213">
          <path id="Trazado_8443" data-name="Trazado 8443" d="M239.623,3170.065a1.36,1.36,0,0,0-1.208,1.492l-.16.017.16-.017a1.357,1.357,0,0,0,2.475.616,1.341,1.341,0,0,0,.224-.9A1.359,1.359,0,0,0,239.623,3170.065Z" fill="#66cdd8"/>
        </g>
      </g>
      <g id="Grupo_2230" data-name="Grupo 2230">
        <g id="Grupo_2215" data-name="Grupo 2215">
          <path id="Trazado_8444" data-name="Trazado 8444" d="M313.366,3282.756a4.161,4.161,0,1,0-4.118-.639A4.168,4.168,0,0,0,313.366,3282.756Z" fill="#66cdd8"/>
        </g>
        <g id="Grupo_2216" data-name="Grupo 2216">
          <path id="Trazado_8445" data-name="Trazado 8445" d="M313.819,3236.917a4.16,4.16,0,1,0-4.119-.638A4.168,4.168,0,0,0,313.819,3236.917Z" fill="#66cdd8"/>
        </g>
        <g id="Grupo_2217" data-name="Grupo 2217">
          <path id="Trazado_8446" data-name="Trazado 8446" d="M269.078,3220.293a4.162,4.162,0,1,0-4.119-.639A4.17,4.17,0,0,0,269.078,3220.293Z" fill="#66cdd8"/>
        </g>
        <g id="Grupo_2218" data-name="Grupo 2218">
          <path id="Trazado_8447" data-name="Trazado 8447" d="M307.54,3248.864a1.785,1.785,0,0,0-.273-2.508l.133-.165-.133.165a1.785,1.785,0,0,0-2.868,1.738,1.76,1.76,0,0,0,.634,1.042A1.784,1.784,0,0,0,307.54,3248.864Z" fill="#66cdd8"/>
        </g>
        <g id="Grupo_2219" data-name="Grupo 2219">
          <path id="Trazado_8448" data-name="Trazado 8448" d="M255.066,3227.183a1.787,1.787,0,0,0-.272-2.508l.132-.166-.133.165a1.784,1.784,0,1,0,.273,2.509Z" fill="#66cdd8"/>
        </g>
        <g id="Grupo_2220" data-name="Grupo 2220">
          <path id="Trazado_8449" data-name="Trazado 8449" d="M311.318,3202.312a1.786,1.786,0,0,0-.273-2.508l.132-.165-.132.165a1.784,1.784,0,0,0-2.867,1.738,1.759,1.759,0,0,0,.632,1.043A1.786,1.786,0,0,0,311.318,3202.312Z" fill="#66cdd8"/>
        </g>
        <g id="Grupo_2221" data-name="Grupo 2221">
          <path id="Trazado_8450" data-name="Trazado 8450" d="M366.7,3240.37a1.786,1.786,0,0,0-.272-2.508l.132-.166-.133.166a1.783,1.783,0,0,0-2.867,1.738,1.76,1.76,0,0,0,.632,1.043A1.787,1.787,0,0,0,366.7,3240.37Z" fill="#66cdd8"/>
        </g>
        <g id="Grupo_2222" data-name="Grupo 2222">
          <path id="Trazado_8451" data-name="Trazado 8451" d="M298.356,3268.563a1.784,1.784,0,0,0-.272-2.507l.132-.166-.132.166a1.783,1.783,0,0,0-2.867,1.737,1.757,1.757,0,0,0,.632,1.043A1.784,1.784,0,0,0,298.356,3268.563Z" fill="#66cdd8"/>
        </g>
        <g id="Grupo_2223" data-name="Grupo 2223">
          <path id="Trazado_8452" data-name="Trazado 8452" d="M297.82,3208.256a1.787,1.787,0,0,0-.273-2.508l.133-.166-.133.166a1.783,1.783,0,0,0-2.867,1.738,1.757,1.757,0,0,0,.632,1.042A1.786,1.786,0,0,0,297.82,3208.256Z" fill="#66cdd8"/>
        </g>
        <g id="Grupo_2224" data-name="Grupo 2224">
          <path id="Trazado_8453" data-name="Trazado 8453" d="M287.169,3217.27a3.331,3.331,0,0,1-3.054-4.677,3.333,3.333,0,0,1,5.141-1.253,3.356,3.356,0,0,1,1.017,1.391,3.338,3.338,0,0,1-1.9,4.315h0A3.329,3.329,0,0,1,287.169,3217.27Zm-.006-4.947a1.619,1.619,0,0,0-.583.109,1.618,1.618,0,0,0-.921,2.09,1.613,1.613,0,0,0,2.09.921h0a1.617,1.617,0,0,0,.922-2.089,1.608,1.608,0,0,0-1.508-1.031Z" fill="#66cdd8"/>
        </g>
        <g id="Grupo_2225" data-name="Grupo 2225">
          <path id="Trazado_8454" data-name="Trazado 8454" d="M247.558,3214.326a3.334,3.334,0,1,1,3.1-4.538,3.334,3.334,0,0,1-1.9,4.313h0A3.32,3.32,0,0,1,247.558,3214.326Zm-.006-4.948a1.615,1.615,0,1,0,.586,3.121h0a1.616,1.616,0,0,0,.43-2.764A1.623,1.623,0,0,0,247.552,3209.378Z" fill="#66cdd8"/>
        </g>
        <g id="Grupo_2226" data-name="Grupo 2226">
          <path id="Trazado_8455" data-name="Trazado 8455" d="M274.215,3191.758a3.33,3.33,0,0,1-3.113-2.127,3.336,3.336,0,0,1,1.9-4.313,3.334,3.334,0,0,1,2.412,6.216h0A3.308,3.308,0,0,1,274.215,3191.758Zm-.005-4.947a1.611,1.611,0,1,0,1.014.356A1.611,1.611,0,0,0,274.21,3186.811Z" fill="#66cdd8"/>
        </g>
        <g id="Grupo_2227" data-name="Grupo 2227">
          <path id="Trazado_8456" data-name="Trazado 8456" d="M345.327,3259.21a3.329,3.329,0,0,1-3.112-2.127,3.335,3.335,0,0,1,1.9-4.314,3.334,3.334,0,1,1,2.411,6.216h0A3.311,3.311,0,0,1,345.327,3259.21Zm-.006-4.947a1.615,1.615,0,1,0,.586,3.12h0a1.614,1.614,0,0,0-.586-3.12Z" fill="#66cdd8"/>
        </g>
        <g id="Grupo_2228" data-name="Grupo 2228">
          <path id="Trazado_8457" data-name="Trazado 8457" d="M333.538,3237.626a1.357,1.357,0,0,0-.208-1.907l.1-.127-.1.126a1.357,1.357,0,1,0,.208,1.908Z" fill="#66cdd8"/>
        </g>
        <g id="Grupo_2229" data-name="Grupo 2229">
          <path id="Trazado_8458" data-name="Trazado 8458" d="M280.471,3168.135a1.359,1.359,0,0,0-.208-1.908l.1-.126-.1.126a1.357,1.357,0,0,0-2.181,1.322,1.329,1.329,0,0,0,.481.793A1.359,1.359,0,0,0,280.471,3168.135Z" fill="#66cdd8"/>
        </g>
      </g>
    </g>
    <g id="Grupo_2258" data-name="Grupo 2258">
      <path id="Trazado_8459" data-name="Trazado 8459" d="M411.25,3168.717a46.073,46.073,0,0,0,3.21-17.838c3.861-3.24,18.1-6.563,18.1-6.563l-1.049-5.347c-5.731,1.107-17.316-.339-18.96-.554a46.109,46.109,0,0,0-6.148-12.877c1.532-4.649,7.834-10.065,7.834-10.065l-3.612-4.08a45.8,45.8,0,0,1-10.6,6.68,46.719,46.719,0,0,0-8.514-6.423c-.952-4.854,3.418-19.078,3.418-19.078l-5.149-1.784c-2.07,5.92-9.994,15.94-10.044,16a46.072,46.072,0,0,0-13.6-1.444c-3.153-3.752-4.749-11.966-4.749-11.966l-5.343,1.068a44.8,44.8,0,0,1,.481,12.313,46.159,46.159,0,0,0-11.157,4.454c-4.851-1.869-14.83-12.433-14.83-12.433l-4.143,3.642c3.712,4.246,7.962,14.172,8.887,16.389a46.665,46.665,0,0,0-8.914,12.5c-4.85.585-11.721-1.806-11.721-1.806l-1.729,5.239a45.093,45.093,0,0,1,10.244,5.148,46.066,46.066,0,0,0-1.523,12.316c-5,3.009-17.182,5.859-17.182,5.859l1.064,5.413c5-.969,14.233.016,17.727.449a46.127,46.127,0,0,0,6.423,13.934c-1.97,4.457-7.416,9.127-7.416,9.127l3.658,4.129a45.09,45.09,0,0,1,9.612-6.269,46.643,46.643,0,0,0,16.6,10.479c1.725,5.3,1.033,18.737,1.033,18.737l5.5.479c.445-4.943,3.758-13.168,5.211-16.588a44.134,44.134,0,0,0,18.5-2.079c3.293,3.555,5.487,10.148,5.487,10.148l5.2-1.827a45.571,45.571,0,0,1-2.216-12.027,46.367,46.367,0,0,0,14.523-12.831c5.728.963,16.9,6.84,16.9,6.84L425,3181.4C420.014,3178.52,412.629,3170.281,411.25,3168.717Zm-53.31-62.283-.176.041C357.824,3106.462,357.879,3106.447,357.94,3106.434Z" fill="#ff4f5b"/>
      <g id="Grupo_2257" data-name="Grupo 2257">
        <g id="Grupo_2232" data-name="Grupo 2232" opacity="0.2">
          <path id="Trazado_8460" data-name="Trazado 8460" d="M401.079,3163.4c-2.287-.747-2.655-5.45-4.383-11.592-.172-.771-.481-1.563-.705-2.378-.25-.813-.573-1.642-.855-2.491a51.072,51.072,0,0,0-2.3-5.173,35.558,35.558,0,0,0-17.447-16.733,50.779,50.779,0,0,0-5.265-2.08c-.86-.247-1.7-.535-2.525-.751-.823-.189-1.627-.465-2.4-.6-6.209-1.47-10.922-1.641-11.764-3.9a2.237,2.237,0,0,1,.263-1.85,7.3,7.3,0,0,1,2-2.222,21.782,21.782,0,0,1,9.394-3.867,30.358,30.358,0,0,1,3.38-.446c1.185-.1,2.423-.1,3.714-.089a38.152,38.152,0,0,1,16.79,4.611,37.327,37.327,0,0,1,14.482,13.891,38.192,38.192,0,0,1,5.307,16.58c.06,1.29.117,2.526.066,3.715a30.274,30.274,0,0,1-.3,3.4,21.783,21.783,0,0,1-3.472,9.548,7.316,7.316,0,0,1-2.136,2.093A2.237,2.237,0,0,1,401.079,3163.4Z" fill="#fff"/>
        </g>
        <g id="Grupo_2237" data-name="Grupo 2237">
          <g id="Grupo_2233" data-name="Grupo 2233">
            <path id="Trazado_8461" data-name="Trazado 8461" d="M331.483,3095.853c.669.742-.639,3.015-2.922,5.077a15.213,15.213,0,0,1-2.284,1.72c-1.421.859-2.62,1.162-3.063.672-.67-.742.639-3.015,2.922-5.077S330.813,3095.112,331.483,3095.853Z" fill="#ff4f5b"/>
            <path id="Trazado_8462" data-name="Trazado 8462" d="M326.484,3102.525a17.723,17.723,0,0,0,4.056-3.742c.707.735,1.518,1.574,2.355,2.4,0,0-3.765,2.226-5.656,2.284Z" opacity="0.3"/>
          </g>
          <g id="Grupo_2234" data-name="Grupo 2234">
            <path id="Trazado_8463" data-name="Trazado 8463" d="M313.978,3126.5c.953.3.976,2.923.051,5.857a15.265,15.265,0,0,1-1.1,2.64c-.792,1.46-1.672,2.329-2.3,2.13-.953-.3-.976-2.923-.051-5.857S313.026,3126.2,313.978,3126.5Z" fill="#ff4f5b"/>
            <path id="Trazado_8464" data-name="Trazado 8464" d="M313.046,3134.788a12.233,12.233,0,0,0,1.6-5.28c.974.336,2.049.644,3.19.934,0,0-2.062,3.744-3.663,4.751Z" opacity="0.3"/>
          </g>
          <g id="Grupo_2235" data-name="Grupo 2235">
            <path id="Trazado_8465" data-name="Trazado 8465" d="M302.4,3155.781c.978-.206,2.284,2.068,2.917,5.079a15.165,15.165,0,0,1,.338,2.839c.027,1.661-.313,2.849-.96,2.985-.978.206-2.284-2.068-2.918-5.079S301.424,3155.987,302.4,3155.781Z" fill="#ff4f5b"/>
            <path id="Trazado_8466" data-name="Trazado 8466" d="M305.653,3163.457a17.723,17.723,0,0,0-1.194-5.388c.992-.241,2.124-.519,3.261-.826,0,0,.03,4.374-.871,6.037Z" opacity="0.3"/>
          </g>
          <g id="Grupo_2236" data-name="Grupo 2236">
            <path id="Trazado_8467" data-name="Trazado 8467" d="M319.324,3186.06c.739-.672,3.017.627,5.088,2.9a15.2,15.2,0,0,1,1.728,2.277c.865,1.419,1.172,2.616.683,3.061-.738.672-3.016-.628-5.087-2.9S318.585,3186.732,319.324,3186.06Z" fill="#ff4f5b"/>
            <path id="Trazado_8468" data-name="Trazado 8468" d="M326.014,3191.034a12.238,12.238,0,0,0-3.757-4.042c.78-.672,1.587-1.447,2.412-2.287,0,0,2.2,3.665,2.264,5.556Z" opacity="0.3"/>
          </g>
        </g>
        <g id="Grupo_2241" data-name="Grupo 2241">
          <g id="Grupo_2238" data-name="Grupo 2238">
            <path id="Trazado_8469" data-name="Trazado 8469" d="M350.393,3215.411c.073-1,2.62-1.621,5.689-1.395a15.187,15.187,0,0,1,2.821.462c1.6.434,2.65,1.091,2.6,1.751-.073,1-2.62,1.62-5.689,1.4S350.319,3216.407,350.393,3215.411Z" fill="#ff4f5b"/>
            <path id="Trazado_8470" data-name="Trazado 8470" d="M358.669,3214.415a17.719,17.719,0,0,0-5.507-.347c.043-1.019.09-2.185.11-3.362,0,0,4.21,1.184,5.559,2.511Z" opacity="0.3"/>
          </g>
          <g id="Grupo_2239" data-name="Grupo 2239">
            <path id="Trazado_8471" data-name="Trazado 8471" d="M385.881,3208.392c-.343-.938,1.721-2.556,4.61-3.614a15.172,15.172,0,0,1,2.761-.741c1.64-.264,2.865-.1,3.092.524.344.938-1.72,2.556-4.609,3.614S386.225,3209.33,385.881,3208.392Z" fill="#ff4f5b"/>
            <path id="Trazado_8472" data-name="Trazado 8472" d="M393.013,3204.076a12.231,12.231,0,0,0-5.161,1.953c-.328-.977-.74-2.016-1.207-3.1,0,0,4.224-.652,6,0Z" opacity="0.3"/>
          </g>
          <g id="Grupo_2240" data-name="Grupo 2240">
            <path id="Trazado_8473" data-name="Trazado 8473" d="M422.317,3189.26c-.873-.485-.371-3.059,1.122-5.749a15.267,15.267,0,0,1,1.6-2.367c1.068-1.272,2.1-1.947,2.682-1.626.873.485.371,3.059-1.123,5.749S423.19,3189.744,422.317,3189.26Z" fill="#ff4f5b"/>
            <path id="Trazado_8474" data-name="Trazado 8474" d="M424.888,3181.33a17.734,17.734,0,0,0-2.627,4.853c-.907-.467-1.945-1-3-1.511,0,0,2.842-3.325,4.613-3.992Z" opacity="0.3"/>
          </g>
        </g>
        <g id="Grupo_2242" data-name="Grupo 2242">
          <path id="Trazado_8475" data-name="Trazado 8475" d="M349.635,3161.8c.635,3.541-.782,6.758-3.164,7.185s-4.828-2.1-5.463-5.638.781-6.758,3.163-7.185S349,3158.264,349.635,3161.8Z" opacity="0.3"/>
          <path id="Trazado_8476" data-name="Trazado 8476" d="M347.365,3158.466c.635,3.541-.781,6.758-3.164,7.185s-4.828-2.1-5.463-5.638.781-6.758,3.164-7.185S346.73,3154.925,347.365,3158.466Z" fill="#ff4f5b"/>
          <path id="Trazado_8477" data-name="Trazado 8477" d="M347.365,3158.466c.635,3.541-.781,6.758-3.164,7.185s-4.828-2.1-5.463-5.638.781-6.758,3.164-7.185S346.73,3154.925,347.365,3158.466Z" fill="#fff" opacity="0.2"/>
        </g>
        <g id="Grupo_2243" data-name="Grupo 2243">
          <path id="Trazado_8478" data-name="Trazado 8478" d="M341.285,3125.275c2.832-2.219,6.337-2.474,7.83-.569s.408,5.248-2.423,7.467-6.337,2.475-7.83.57S338.454,3127.494,341.285,3125.275Z" opacity="0.3"/>
          <path id="Trazado_8479" data-name="Trazado 8479" d="M338.785,3122.249c2.831-2.219,6.337-2.474,7.83-.569s.408,5.248-2.423,7.467-6.338,2.474-7.831.57S335.953,3124.468,338.785,3122.249Z" fill="#ff4f5b"/>
          <path id="Trazado_8480" data-name="Trazado 8480" d="M338.785,3122.249c2.831-2.219,6.337-2.474,7.83-.569s.408,5.248-2.423,7.467-6.338,2.474-7.831.57S335.953,3124.468,338.785,3122.249Z" fill="#fff" opacity="0.2"/>
        </g>
        <g id="Grupo_2244" data-name="Grupo 2244">
          <path id="Trazado_8481" data-name="Trazado 8481" d="M365.777,3178.8a4.288,4.288,0,1,1-4.977-3.464A4.287,4.287,0,0,1,365.777,3178.8Z" opacity="0.3"/>
          <path id="Trazado_8482" data-name="Trazado 8482" d="M365.372,3176.536a4.288,4.288,0,1,1-4.978-3.464A4.288,4.288,0,0,1,365.372,3176.536Z" fill="#ff4f5b"/>
          <path id="Trazado_8483" data-name="Trazado 8483" d="M365.372,3176.536a4.288,4.288,0,1,1-4.978-3.464A4.288,4.288,0,0,1,365.372,3176.536Z" fill="#fff" opacity="0.3"/>
        </g>
        <g id="Grupo_2245" data-name="Grupo 2245">
          <circle id="Elipse_655" data-name="Elipse 655" cx="5.273" cy="5.273" r="5.273" transform="matrix(0.976, -0.22, 0.22, 0.976, 376.321, 3129.438)" opacity="0.3"/>
          <path id="Trazado_8484" data-name="Trazado 8484" d="M388.588,3133.874a5.273,5.273,0,1,1-1.617-7.28A5.273,5.273,0,0,1,388.588,3133.874Z" fill="#ff4f5b"/>
          <path id="Trazado_8485" data-name="Trazado 8485" d="M388.588,3133.874a5.273,5.273,0,1,1-1.617-7.28A5.273,5.273,0,0,1,388.588,3133.874Z" fill="#fff" opacity="0.3"/>
        </g>
        <g id="Grupo_2246" data-name="Grupo 2246">
          <path id="Trazado_8486" data-name="Trazado 8486" d="M388.015,3179.1a3.144,3.144,0,1,1-3.65-2.54A3.144,3.144,0,0,1,388.015,3179.1Z" opacity="0.3"/>
          <path id="Trazado_8487" data-name="Trazado 8487" d="M387.718,3177.447a3.144,3.144,0,1,1-3.65-2.54A3.143,3.143,0,0,1,387.718,3177.447Z" fill="#ff4f5b"/>
          <path id="Trazado_8488" data-name="Trazado 8488" d="M387.718,3177.447a3.144,3.144,0,1,1-3.65-2.54A3.143,3.143,0,0,1,387.718,3177.447Z" fill="#fff" opacity="0.3"/>
        </g>
        <g id="Grupo_2252" data-name="Grupo 2252">
          <g id="Grupo_2247" data-name="Grupo 2247">
            <path id="Trazado_8489" data-name="Trazado 8489" d="M434.593,3146.578c-.966.2-2.255-2.044-2.88-5.019a15.114,15.114,0,0,1-.333-2.8c-.026-1.641.311-2.815.951-2.949.965-.2,2.255,2.044,2.88,5.019S435.559,3146.375,434.593,3146.578Z" fill="#ff4f5b"/>
            <path id="Trazado_8490" data-name="Trazado 8490" d="M431.384,3138.994a17.512,17.512,0,0,0,1.178,5.323c-.98.237-2.1.512-3.222.815,0,0-.027-4.321.863-5.964Z" opacity="0.3"/>
          </g>
          <g id="Grupo_2248" data-name="Grupo 2248">
            <path id="Trazado_8491" data-name="Trazado 8491" d="M417.136,3116.394c-.73.664-2.98-.621-5.025-2.869a15.024,15.024,0,0,1-1.706-2.25c-.854-1.4-1.157-2.585-.674-3.024.73-.664,2.98.621,5.024,2.869S417.866,3115.73,417.136,3116.394Z" fill="#ff4f5b"/>
            <path id="Trazado_8492" data-name="Trazado 8492" d="M410.529,3111.479a12.093,12.093,0,0,0,3.71,3.994c-.771.664-1.569,1.428-2.383,2.258,0,0-2.171-3.622-2.235-5.49Z" opacity="0.3"/>
          </g>
          <g id="Grupo_2249" data-name="Grupo 2249">
            <path id="Trazado_8493" data-name="Trazado 8493" d="M397.9,3091.954c-.31.937-2.9.921-5.786-.036a15.012,15.012,0,0,1-2.591-1.123c-1.431-.8-2.276-1.685-2.07-2.3.31-.937,2.9-.921,5.786.035S398.214,3091.017,397.9,3091.954Z" fill="#ff4f5b"/>
            <path id="Trazado_8494" data-name="Trazado 8494" d="M389.735,3090.912a17.524,17.524,0,0,0,5.192,1.66c-.287.966-.613,2.072-.916,3.194,0,0-3.748-2.149-4.72-3.746Z" opacity="0.3"/>
          </g>
          <g id="Grupo_2251" data-name="Grupo 2251">
            <g id="Grupo_2250" data-name="Grupo 2250">
              <path id="Trazado_8495" data-name="Trazado 8495" d="M363.643,3091.341c.206.965-2.036,2.262-5.008,2.9a15.084,15.084,0,0,1-2.8.344c-1.641.032-2.816-.3-2.952-.94-.207-.965,2.035-2.262,5.008-2.9S363.437,3090.376,363.643,3091.341Z" fill="#ff4f5b"/>
            </g>
            <path id="Trazado_8496" data-name="Trazado 8496" d="M356.071,3094.578a12.1,12.1,0,0,0,5.318-1.2c.186,1,.446,2.074.753,3.195,0,0-4.222.054-5.869-.83Z" opacity="0.3"/>
          </g>
        </g>
        <g id="Grupo_2253" data-name="Grupo 2253">
          <path id="Trazado_8497" data-name="Trazado 8497" d="M397.357,3166.149c-1.1,3.427-3.853,5.607-6.158,4.87s-3.286-4.113-2.191-7.539,3.853-5.607,6.158-4.87S398.452,3162.723,397.357,3166.149Z" opacity="0.3"/>
          <path id="Trazado_8498" data-name="Trazado 8498" d="M398.891,3164.083c-1.1,3.427-3.852,5.607-6.158,4.87s-3.285-4.113-2.19-7.539,3.853-5.607,6.158-4.87S399.987,3160.657,398.891,3164.083Z" fill="#ff4f5b"/>
          <path id="Trazado_8499" data-name="Trazado 8499" d="M398.891,3164.083c-1.1,3.427-3.852,5.607-6.158,4.87s-3.285-4.113-2.19-7.539,3.853-5.607,6.158-4.87S399.987,3160.657,398.891,3164.083Z" fill="#fff" opacity="0.3"/>
        </g>
        <g id="Grupo_2254" data-name="Grupo 2254">
          <path id="Trazado_8500" data-name="Trazado 8500" d="M374.222,3149.208a6.514,6.514,0,1,1-7.562-5.262A6.515,6.515,0,0,1,374.222,3149.208Z" opacity="0.3"/>
          <path id="Trazado_8501" data-name="Trazado 8501" d="M373.554,3145.481a6.514,6.514,0,1,1-7.562-5.262A6.515,6.515,0,0,1,373.554,3145.481Z" fill="#ff4f5b"/>
          <path id="Trazado_8502" data-name="Trazado 8502" d="M373.554,3145.481a6.514,6.514,0,1,1-7.562-5.262A6.515,6.515,0,0,1,373.554,3145.481Z" fill="#fff" opacity="0.2"/>
        </g>
        <g id="Grupo_2255" data-name="Grupo 2255" opacity="0.3">
          <path id="Trazado_8503" data-name="Trazado 8503" d="M397.128,3181.312c.366.428-.065,1.543-1.331,3.12a27.052,27.052,0,0,1-6.461,5.5,39.816,39.816,0,0,1-5.223,2.777,43.248,43.248,0,0,1-42.98-5,39.889,39.889,0,0,1-4.446-3.9,27.088,27.088,0,0,1-5.026-6.833c-.87-1.826-1.033-3.01-.579-3.342,1-.729,4.05,2.164,9.381,5.618,1.327.872,2.823,1.741,4.433,2.628,1.639.843,3.384,1.725,5.29,2.479a47.427,47.427,0,0,0,25.886,3.012c2.028-.3,3.929-.754,5.717-1.2,1.771-.493,3.426-1,4.918-1.54C392.689,3182.489,396.325,3180.374,397.128,3181.312Z"/>
        </g>
        <g id="Grupo_2256" data-name="Grupo 2256" opacity="0.3">
          <path id="Trazado_8504" data-name="Trazado 8504" d="M327.576,3157.574a3.978,3.978,0,1,1-3.2,4.8A4.082,4.082,0,0,1,327.576,3157.574Z"/>
        </g>
      </g>
    </g>
  </g>
</svg>
