<svg xmlns="http://www.w3.org/2000/svg" width="118" height="118" viewBox="0 0 118 118">
  <g id="Grupo_1802" data-name="Grupo 1802" transform="translate(-2994 -270)">
    <g id="Grupo_1704" data-name="Grupo 1704" transform="translate(3217.767 -2612.761)">
      <circle id="Elipse_612" data-name="Elipse 612" cx="59" cy="59" r="59" transform="translate(-223.767 2882.761)" fill="#57b8e8"/>
      <circle id="Elipse_613" data-name="Elipse 613" cx="53" cy="53" r="53" transform="translate(-217.767 2888.761)" fill="#fff"/>
    </g>
    <g id="Grupo_1801" data-name="Grupo 1801" transform="translate(204 288)">
      <path id="Trazado_8866" data-name="Trazado 8866" d="M108.523,65l2.154,30.833a2.036,2.036,0,0,0,2.029,1.872h.417l1.39,13.869a2.036,2.036,0,0,0,2.029,1.872H140.4a2.036,2.036,0,0,0,2.029-1.872l1.39-13.869h.417a2.036,2.036,0,0,0,2.029-1.872L148.415,65Z" transform="translate(2720.348 -49.179)" fill="#ff5368"/>
      <path id="Trazado_8867" data-name="Trazado 8867" d="M157.672,82.5a1.018,1.018,0,0,0-1.015.936l-1.711,25.323c-.082,0-31.772,0-31.853,0l.082,1.014.1,1.18a2.035,2.035,0,0,0,2.026,1.872h27.082L151.111,124.5c-.082,0-24.1,0-24.181,0,.168,2.077.05,3.043,1.084,3.728l.45,5.591a2.035,2.035,0,0,0,2.029,1.872h21.139a2.036,2.036,0,0,0,2.029-1.872l.45-5.591a2.046,2.046,0,0,0,.907-1.534l1.444-13.869h.364a2.036,2.036,0,0,0,2.029-1.872L160.818,82.5C160.735,82.494,157.755,82.5,157.672,82.5Z" transform="translate(2707.754 -64.301)" fill="#d9435b"/>
      <path id="Trazado_8868" data-name="Trazado 8868" d="M183.329,444.5a4.071,4.071,0,1,0,4.071,4.071A4.076,4.076,0,0,0,183.329,444.5Z" transform="translate(2659.212 -377.18)" fill="#4d5967"/>
      <path id="Trazado_8869" data-name="Trazado 8869" d="M275.829,444.5a4.071,4.071,0,1,0,4.071,4.071A4.076,4.076,0,0,0,275.829,444.5Z" transform="translate(2579.264 -377.18)" fill="#4d5967"/>
      <path id="Trazado_8870" data-name="Trazado 8870" d="M131.063,14.624h-.272V11.571A4.071,4.071,0,0,0,126.72,7.5H94.151a4.071,4.071,0,0,0-4.071,4.071v3.053h-.544A2.035,2.035,0,0,0,87.5,16.66v3.053a2.035,2.035,0,0,0,2.036,2.036h41.527a2.035,2.035,0,0,0,2.036-2.036V16.66A2.035,2.035,0,0,0,131.063,14.624Z" transform="translate(2738.518 0.518)" fill="#6c7a88"/>
      <path id="Trazado_8871" data-name="Trazado 8871" d="M131.063,14.624h-.272V11.571A4.071,4.071,0,0,0,126.72,7.5v3.053H90.208a4.079,4.079,0,0,0-.128,1.018v3.053h38.948v3.053H87.5v2.036a2.035,2.035,0,0,0,2.036,2.036h41.527a2.035,2.035,0,0,0,2.036-2.036V16.66A2.035,2.035,0,0,0,131.063,14.624Z" transform="translate(2738.518 0.518)" fill="#4d5967"/>
      <path id="Trazado_8872" data-name="Trazado 8872" d="M203.794,468.018A1.018,1.018,0,1,1,202.776,467,1.018,1.018,0,0,1,203.794,468.018Z" transform="translate(2639.765 -396.626)" fill="#0b2d4e"/>
      <path id="Trazado_8873" data-name="Trazado 8873" d="M296.294,468.018A1.018,1.018,0,1,1,295.276,467,1.018,1.018,0,0,1,296.294,468.018Z" transform="translate(2559.818 -396.626)" fill="#0b2d4e"/>
      <path id="Trazado_8874" data-name="Trazado 8874" d="M125.326,7.217V5.089A5.094,5.094,0,0,0,120.237,0H87.668a5.094,5.094,0,0,0-5.089,5.089V7.161A3.058,3.058,0,0,0,80,10.178v3.053a3.057,3.057,0,0,0,3.053,3.053h.4l1.56,23.451a3.074,3.074,0,0,0,2.463,2.752l1.373,12.989a3.033,3.033,0,0,0,.943,1.969L90.2,62.6a3.07,3.07,0,0,0,3.043,2.808h.223a1.018,1.018,0,0,0,1.018-1.018,3.057,3.057,0,1,1,1.405,2.569,1.018,1.018,0,1,0-1.1,1.711,5.06,5.06,0,0,0,2.75.809h0a5.093,5.093,0,0,0,4.986-4.071h3.5a1.018,1.018,0,0,0,1.018-1.018,3.057,3.057,0,1,1,1.405,2.569,1.018,1.018,0,0,0-1.547,1.071,1.006,1.006,0,0,0,.444.64,5.059,5.059,0,0,0,2.748.809h0a5.091,5.091,0,0,0,5-4.159,3.072,3.072,0,0,0,2.334-2.72l.415-5.155a3.034,3.034,0,0,0,.942-1.969l1.373-12.989a3.074,3.074,0,0,0,2.463-2.752l1.56-23.451h.4a3.057,3.057,0,0,0,3.053-3.053V10.178A3.058,3.058,0,0,0,125.326,7.217Zm-4.732,32.355a1.024,1.024,0,0,1-1.015.936H110.6a1.018,1.018,0,0,0,0,2.036h7.511l-1.355,12.769a1.012,1.012,0,0,1-.454.765l0,0a1.015,1.015,0,0,1-.559.169h-9.892a1.018,1.018,0,1,0,0,2.036h9.883l-.335,4.153a1.018,1.018,0,0,1-.373.707,5.09,5.09,0,0,0-9.921.229h-2.579a5.09,5.09,0,0,0-9.921-.229,1.017,1.017,0,0,1-.373-.707L91.9,58.285h9.883a1.018,1.018,0,0,0,0-2.036H91.891a1.022,1.022,0,0,1-1.015-.936L89.52,42.544h7.511a1.018,1.018,0,1,0,0-2.036H88.054a1.024,1.024,0,0,1-1.015-.936L85.493,16.284h36.648Zm5-26.341a1.019,1.019,0,0,1-1.018,1.018H83.053a1.019,1.019,0,0,1-1.018-1.018V10.178A1.019,1.019,0,0,1,83.053,9.16h37.252a1.018,1.018,0,1,0,0-2.036H84.615V5.089a3.057,3.057,0,0,1,3.053-3.053h32.569a3.057,3.057,0,0,1,3.053,3.053V8.142a1.017,1.017,0,0,0,1.018,1.018h.272a1.019,1.019,0,0,1,1.018,1.018Z" transform="translate(2745 7)" fill="#0b2d4e"/>
      <path id="Trazado_8875" data-name="Trazado 8875" d="M175.66,152.15a1.018,1.018,0,0,0,.664-1.277,3.4,3.4,0,0,1,2.919-4.41,5.932,5.932,0,0,0,3.2,5.2,3.392,3.392,0,0,1-3.9,1.428,1.018,1.018,0,1,0-.613,1.941,5.431,5.431,0,0,0,6.5-2.749,5.778,5.778,0,0,0,1.488,0,5.426,5.426,0,0,0,6.5,2.749,1.018,1.018,0,0,0-.613-1.941,3.391,3.391,0,0,1-3.9-1.428,5.932,5.932,0,0,0,3.2-5.2,3.4,3.4,0,0,1,2.919,4.41,1.018,1.018,0,0,0,1.941.613,5.434,5.434,0,0,0-5.2-7.074,5.938,5.938,0,0,0-.932-1.68,5.431,5.431,0,0,0-2.146-7.632,1.018,1.018,0,1,0-.939,1.806,3.4,3.4,0,0,1,1.522,4.437,5.912,5.912,0,0,0-6.175,0A3.4,3.4,0,0,1,183.6,136.9a1.018,1.018,0,0,0-.939-1.806,5.431,5.431,0,0,0-2.145,7.633,5.916,5.916,0,0,0-.933,1.68h-.021a5.434,5.434,0,0,0-5.182,7.074A1.018,1.018,0,0,0,175.66,152.15Zm13.364-5.219a3.891,3.891,0,0,1-1.638,2.666A3.394,3.394,0,0,1,189.024,146.931Zm-2.189-4.047a3.387,3.387,0,0,1-3.332,0A3.884,3.884,0,0,1,186.835,142.884Zm-4.921,1.388a5.422,5.422,0,0,0,6.511,0,3.84,3.84,0,0,1,.3.54,5.434,5.434,0,0,0-3.361,5.475,3.6,3.6,0,0,1-.379,0,5.431,5.431,0,0,0-3.363-5.475A3.883,3.883,0,0,1,181.914,144.272Zm1.039,5.325a3.892,3.892,0,0,1-1.638-2.666A3.394,3.394,0,0,1,182.953,149.6Z" transform="translate(2663.647 -109.666)" fill="#fff"/>
    </g>
  </g>
</svg>
