<svg xmlns="http://www.w3.org/2000/svg" width="118" height="118" viewBox="0 0 118 118">
  <g id="Grupo_1728" data-name="Grupo 1728" transform="translate(-2535.82 196.355)">
    <g id="Grupo_1701" data-name="Grupo 1701" transform="translate(2759 -2781.361)">
      <g id="Grupo_1699" data-name="Grupo 1699">
        <circle id="Elipse_607" data-name="Elipse 607" cx="59" cy="59" r="59" transform="translate(-223.181 2585.005)" fill="#57b8e8"/>
        <circle id="Elipse_608" data-name="Elipse 608" cx="53" cy="53" r="53" transform="translate(-217.181 2591.005)" fill="#fff"/>
      </g>
      <g id="Grupo_1700" data-name="Grupo 1700">
        <path id="Trazado_8361" data-name="Trazado 8361" d="M-154.941,2626.845h-18.48a1.32,1.32,0,0,0-1.32,1.32v6.6a1.32,1.32,0,0,0,1.32,1.32c1.372,0,1.98-.952,3.7-2.112a9.248,9.248,0,0,1,11.087,0c1.752,1.188,2.321,2.112,3.7,2.112a1.321,1.321,0,0,0,1.321-1.32v-6.6A1.321,1.321,0,0,0-154.941,2626.845Z" fill="#fff"/>
        <path id="Trazado_8362" data-name="Trazado 8362" d="M-161.541,2646.645h-5.28a1.32,1.32,0,0,0-1.32,1.32,1.32,1.32,0,0,0,1.32,1.32h5.28a1.32,1.32,0,0,0,1.32-1.32A1.32,1.32,0,0,0-161.541,2646.645Z" fill="#30c1c7"/>
        <path id="Trazado_8363" data-name="Trazado 8363" d="M-168.141,2636.085a14.817,14.817,0,0,1-3.443,2.3,14.487,14.487,0,0,0,5.2,5.624h4.4a14.487,14.487,0,0,0,5.2-5.624,14.843,14.843,0,0,1-3.444-2.3A6.784,6.784,0,0,0-168.141,2636.085Z" fill="#30c1c7"/>
        <path id="Trazado_8364" data-name="Trazado 8364" d="M-139.238,2652.949l-5.234-2.376a6.61,6.61,0,0,1-3.869-6.007v-17.453a13.477,13.477,0,0,0-13.486-13.468h-4.723a13.478,13.478,0,0,0-13.471,13.486v17.435a6.609,6.609,0,0,1-3.872,6.01l-5.236,2.376a9.263,9.263,0,0,0-5.412,8.412v11.681a1.32,1.32,0,0,0,1.32,1.32h11.88v-9.24a1.32,1.32,0,0,1,1.32-1.32,1.32,1.32,0,0,1,1.32,1.32v9.24h29.04v-9.24a1.32,1.32,0,0,1,1.32-1.32,1.319,1.319,0,0,1,1.32,1.32v9.24h11.88a1.32,1.32,0,0,0,1.32-1.32v-11.681A9.261,9.261,0,0,0-139.238,2652.949Zm-11.743-18.184a3.96,3.96,0,0,1-3,3.828,14.851,14.851,0,0,1-4.948,6.42A3.945,3.945,0,0,1-157.58,2648a3.944,3.944,0,0,1-3.961,3.927h-5.28a3.945,3.945,0,0,1-2.984-1.346,3.945,3.945,0,0,1,.37-5.566,15.135,15.135,0,0,1-4.948-6.42,3.962,3.962,0,0,1-3-3.828v-6.6a3.96,3.96,0,0,1,3.96-3.96h18.48a3.96,3.96,0,0,1,3.96,3.96Z" fill="#bceaf2"/>
        <path id="Trazado_8365" data-name="Trazado 8365" d="M-154.941,2624.205h-18.48a3.96,3.96,0,0,0-3.96,3.96v6.6a3.962,3.962,0,0,0,3,3.828,15.135,15.135,0,0,0,4.948,6.42,3.945,3.945,0,0,0-.37,5.566,3.945,3.945,0,0,0,2.984,1.346h5.28A3.944,3.944,0,0,0-157.58,2648a3.945,3.945,0,0,0-1.346-2.985,14.851,14.851,0,0,0,4.948-6.42,3.96,3.96,0,0,0,3-3.828v-6.6A3.96,3.96,0,0,0-154.941,2624.205Zm-6.6,25.08h-5.28a1.32,1.32,0,0,1-1.32-1.32,1.32,1.32,0,0,1,1.32-1.32h5.28a1.32,1.32,0,0,1,1.32,1.32A1.32,1.32,0,0,1-161.541,2649.285Zm-.439-5.28h-4.4a14.487,14.487,0,0,1-5.2-5.624,14.817,14.817,0,0,0,3.443-2.3,6.784,6.784,0,0,1,7.92,0,14.843,14.843,0,0,0,3.444,2.3A14.487,14.487,0,0,1-161.98,2644Zm8.36-9.24a1.321,1.321,0,0,1-1.321,1.32c-1.375,0-1.944-.924-3.7-2.112a9.248,9.248,0,0,0-11.087,0c-1.717,1.16-2.325,2.112-3.7,2.112a1.32,1.32,0,0,1-1.32-1.32v-6.6a1.32,1.32,0,0,1,1.32-1.32h18.48a1.321,1.321,0,0,1,1.321,1.32Z" fill="#0b2d4e"/>
        <path id="Trazado_8366" data-name="Trazado 8366" d="M-138.144,2650.55l-5.236-2.376a3.962,3.962,0,0,1-2.321-3.608v-17.435a16.115,16.115,0,0,0-16.1-16.126h-4.728a16.116,16.116,0,0,0-16.127,16.105v17.456a3.961,3.961,0,0,1-2.321,3.6l-5.236,2.376a11.909,11.909,0,0,0-6.963,10.818v11.681a3.96,3.96,0,0,0,3.96,3.96h58.08a3.96,3.96,0,0,0,3.96-3.96v-11.681A11.906,11.906,0,0,0-138.144,2650.55Zm4.323,22.495a1.32,1.32,0,0,1-1.32,1.32h-11.88v-9.24a1.319,1.319,0,0,0-1.32-1.32,1.32,1.32,0,0,0-1.32,1.32v9.24H-178.7v-9.24a1.32,1.32,0,0,0-1.32-1.32,1.32,1.32,0,0,0-1.32,1.32v9.24h-11.88a1.32,1.32,0,0,1-1.32-1.32v-11.681a9.263,9.263,0,0,1,5.412-8.412l5.236-2.376a6.609,6.609,0,0,0,3.872-6.01v-17.435a13.478,13.478,0,0,1,13.471-13.486h4.723a13.477,13.477,0,0,1,13.486,13.468v17.453a6.61,6.61,0,0,0,3.869,6.007l5.234,2.376a9.261,9.261,0,0,1,5.417,8.415Z" fill="#0b2d4e"/>
      </g>
    </g>
  </g>
</svg>
