<svg xmlns="http://www.w3.org/2000/svg" xmlns:xlink="http://www.w3.org/1999/xlink" width="424.667" height="286.305" viewBox="0 0 424.667 286.305">
  <defs>
    <linearGradient id="linear-gradient" x1="0.5" x2="0.5" y2="1" gradientUnits="objectBoundingBox">
      <stop offset="0" stop-color="#cfe1fc" stop-opacity="0"/>
      <stop offset="0.014" stop-color="#cfe1fc" stop-opacity="0.039"/>
      <stop offset="0.088" stop-color="#cfe1fc" stop-opacity="0.239"/>
      <stop offset="0.168" stop-color="#cfe1fc" stop-opacity="0.42"/>
      <stop offset="0.251" stop-color="#cfe1fc" stop-opacity="0.576"/>
      <stop offset="0.339" stop-color="#cfe1fc" stop-opacity="0.71"/>
      <stop offset="0.432" stop-color="#cfe1fc" stop-opacity="0.816"/>
      <stop offset="0.534" stop-color="#cfe1fc" stop-opacity="0.898"/>
      <stop offset="0.648" stop-color="#cfe1fc" stop-opacity="0.957"/>
      <stop offset="0.784" stop-color="#cfe1fc" stop-opacity="0.988"/>
      <stop offset="1" stop-color="#cfe1fc"/>
    </linearGradient>
  </defs>
  <g id="Grupo_1758" data-name="Grupo 1758" transform="translate(-1974 -465.441)">
    <g id="Grupo_1757" data-name="Grupo 1757" transform="translate(-4930.541 -3375.13)">
      <path id="Trazado_8497" data-name="Trazado 8497" d="M6943.075,3840.571h394.616V4118.5h-396.9Z" transform="translate(-20.302 0)" fill="url(#linear-gradient)"/>
      <ellipse id="Elipse_618" data-name="Elipse 618" cx="212.333" cy="8.572" rx="212.333" ry="8.572" transform="translate(6904.541 4109.732)" fill="#b6c8e3"/>
      <g id="Grupo_1756" data-name="Grupo 1756" transform="translate(6957.121 3855.902)">
        <g id="Grupo_1753" data-name="Grupo 1753" transform="translate(253.378 13.27)">
          <path id="Trazado_8498" data-name="Trazado 8498" d="M7641.046,4435c-1.228,7.289-15.5,5.984-16.035,11.815h27.235s.614-3.146-1.458-11.662Z" transform="translate(-7613.989 -4202.073)"/>
          <path id="Trazado_8499" data-name="Trazado 8499" d="M7718.141,4435c1.213,7.289,15.314,5.984,15.845,11.815h-26.914s-.607-3.146,1.44-11.662Z" transform="translate(-7659.899 -4202.073)"/>
          <path id="Trazado_8500" data-name="Trazado 8500" d="M7657.76,3931.128c-7.48-11.969-2.647-25.779,15.421-25.548s18.988,18.758,12.773,25.548Z" transform="translate(-7630.435 -3905.576)" fill="#c8e6ff"/>
          <path id="Trazado_8501" data-name="Trazado 8501" d="M7701.04,4319.275s.23,24.76,2.532,51.389h15.651s3.222-32.235,4.143-52.324Z" transform="translate(-7656.567 -4136.74)" fill="#fff"/>
          <path id="Trazado_8502" data-name="Trazado 8502" d="M7639.833,4319.031s3.223,29.691,5.524,51.787h15.19s2.072-27.39,1.611-52.477Z" transform="translate(-7622.29 -4136.74)" fill="#fff"/>
          <path id="Trazado_8503" data-name="Trazado 8503" d="M7631.5,4014.745c-9.36,1.995-18.8,4.757-21.942,10.895s-8.593,26.469-9.514,37.363,5.447,13.963,11.278,14.654c0,0-3.146,37.977-4.3,73.422h66.747s-.461-42.12-2.762-71.581c10.127,0,12.659-3.683,11.048-18.413s-5.294-32.223-9.9-36.6-13.81-7.442-20.484-9.13Z" transform="translate(-7599.958 -3966.715)" fill="#2a54ba"/>
          <path id="Trazado_8504" data-name="Trazado 8504" d="M7665.205,3940.133c.614,11.508,2.532,21.1,12.352,21.1s12.2-5.907,13.5-19.947C7687.224,3929.162,7669.885,3928.164,7665.205,3940.133Z" transform="translate(-7636.499 -3920.182)" fill="#ffbbb6"/>
          <path id="Trazado_8505" data-name="Trazado 8505" d="M7693.64,3957.132a.325.325,0,0,1-.325-.312l-.077-1.765a.326.326,0,0,1,.651-.028l.077,1.765a.326.326,0,0,1-.312.339Z" transform="translate(-7652.197 -3933.097)" fill="#221f1f"/>
          <path id="Trazado_8506" data-name="Trazado 8506" d="M7662.586,3956.347c-2.915-6.368-6.445,5.064,1.074,7.749Z" transform="translate(-7633.112 -3932.944)" fill="#ffbbb6"/>
          <path id="Trazado_8507" data-name="Trazado 8507" d="M7720.938,3956.689c3.989-5.831,5.293,4.373-1.151,7.059Z" transform="translate(-7667.066 -3933.209)" fill="#ffbbb6"/>
          <path id="Trazado_8508" data-name="Trazado 8508" d="M7675.8,3993.081c-.461,6.215-.538,8.362-4.144,9.36,7.212,7.749,17.339,4.833,20.178.614-3.453-1-3.989-2.685-4.066-10.28Z" transform="translate(-7640.112 -3954.41)" fill="#ffbbb6"/>
          <path id="Trazado_8509" data-name="Trazado 8509" d="M7650.034,3919.681s15.306-10.358,39.243,1.726l-.346,3.682a43.126,43.126,0,0,0-38.092-1.956Z" transform="translate(-7628.002 -3911.162)" fill="#2a54ba"/>
          <path id="Trazado_8510" data-name="Trazado 8510" d="M7664.944,3961.124c6.445-1.5,13.58-3.222,25.893.23-2.187,12.429-5.984,16.226-13,16.226S7665.75,3972.057,7664.944,3961.124Z" transform="translate(-7636.353 -3935.688)" fill="#fff"/>
          <path id="Trazado_8511" data-name="Trazado 8511" d="M7707.231,4115.32l1.227,5.294s9.744-.384,16.035-.461c0,0-.767-1.458-4.526-3.068S7715.21,4114.477,7707.231,4115.32Z" transform="translate(-7660.035 -4022.869)" fill="#c8e6ff"/>
          <path id="Trazado_8512" data-name="Trazado 8512" d="M7634.038,4105.042a6.929,6.929,0,0,0-4.611-4.422s-2.729.188-5.551.659a14.207,14.207,0,0,0-7.716,4.328c-2.165,2.258-4.141,9.033-4.141,9.033a1.466,1.466,0,0,0,1.788.094l-.565,2.071a2.718,2.718,0,0,0,2.541-.847,8.176,8.176,0,0,0,1.693-2.353s.848.188,2.353-1.317,2.917-2.635,2.917-2.635a16.372,16.372,0,0,0,7.622-2.823Z" transform="translate(-7606.713 -4014.808)" fill="#c8e6ff"/>
          <path id="Trazado_8513" data-name="Trazado 8513" d="M7705.18,3954.448a.652.652,0,0,1-.652-.652v-.652a.652.652,0,0,1,1.3,0v.652A.652.652,0,0,1,7705.18,3954.448Z" transform="translate(-7658.521 -3931.851)" fill="#221f1f"/>
          <path id="Trazado_8514" data-name="Trazado 8514" d="M7682.162,3954.448a.652.652,0,0,1-.652-.652v-.652a.652.652,0,0,1,1.3,0v.652A.652.652,0,0,1,7682.162,3954.448Z" transform="translate(-7645.63 -3931.851)" fill="#221f1f"/>
          <path id="Trazado_8515" data-name="Trazado 8515" d="M7669.226,3969.395h-.012c-2.041-.076-3.883-.076-3.9-.076a.326.326,0,0,1,0-.652c.019,0,1.872,0,3.925.077a.326.326,0,0,1-.012.652Z" transform="translate(-7636.376 -3940.909)" fill="#81b3ff"/>
          <path id="Trazado_8516" data-name="Trazado 8516" d="M7670,3976.37a.321.321,0,0,1-.064-.007,11.9,11.9,0,0,1-4.125-2.057.326.326,0,0,1,.4-.515,11.444,11.444,0,0,0,3.854,1.933.326.326,0,0,1-.063.646Z" transform="translate(-7636.768 -3943.741)" fill="#81b3ff"/>
          <path id="Trazado_8517" data-name="Trazado 8517" d="M7672.114,3985.256a.334.334,0,0,1-.072-.008,7.366,7.366,0,0,1-4.034-2.82.326.326,0,0,1,.54-.366,6.821,6.821,0,0,0,3.638,2.55.326.326,0,0,1-.071.644Z" transform="translate(-7638.038 -3948.331)" fill="#81b3ff"/>
          <path id="Trazado_8518" data-name="Trazado 8518" d="M7716.595,3969.373h-.018l-4.373-.23a.326.326,0,1,1,.035-.651l4.373.23a.326.326,0,0,1-.017.652Z" transform="translate(-7662.647 -3940.811)" fill="#81b3ff"/>
          <path id="Trazado_8519" data-name="Trazado 8519" d="M7712.047,3975.9a.326.326,0,0,1,0-.652,7.915,7.915,0,0,0,3.658-.945.326.326,0,0,1,.355.547A8.437,8.437,0,0,1,7712.047,3975.9Z" transform="translate(-7662.549 -3944.034)" fill="#81b3ff"/>
          <path id="Trazado_8520" data-name="Trazado 8520" d="M7710.826,3983.323a.326.326,0,0,1-.032-.651,6.185,6.185,0,0,0,3.327-2.049.326.326,0,1,1,.47.452,6.649,6.649,0,0,1-3.733,2.247Z" transform="translate(-7661.866 -3947.549)" fill="#81b3ff"/>
          <path id="Trazado_8521" data-name="Trazado 8521" d="M7674.381,3942.3a.326.326,0,0,1-.123-.628,9.028,9.028,0,0,1,5.989-.08.326.326,0,0,1-.226.612,8.521,8.521,0,0,0-5.519.073A.322.322,0,0,1,7674.381,3942.3Z" transform="translate(-7641.455 -3925.477)" fill="#221f1f"/>
          <path id="Trazado_8522" data-name="Trazado 8522" d="M7705.441,3944.451a.333.333,0,0,1-.175-.05c-2.942-1.867-5.194-.867-5.288-.824a.326.326,0,0,1-.276-.591c.107-.05,2.655-1.2,5.914.864a.326.326,0,0,1-.175.6Z" transform="translate(-7655.714 -3926.323)" fill="#221f1f"/>
          <path id="Trazado_8523" data-name="Trazado 8523" d="M7662.124,3963.207a.323.323,0,0,1-.207-.074,3.892,3.892,0,0,1-1.3-3.824c.141-.56.43-.922.792-.993a.887.887,0,0,1,.9.459.326.326,0,0,1-.525.387c-.133-.18-.223-.208-.245-.206-.054.01-.194.15-.286.513a3.271,3.271,0,0,0,1.077,3.161.326.326,0,0,1-.207.578Z" transform="translate(-7633.877 -3935.105)" fill="#ff8b82"/>
          <path id="Trazado_8524" data-name="Trazado 8524" d="M7723.73,3963.1a.326.326,0,0,1-.226-.562,3.874,3.874,0,0,0,1.092-2.976c-.038-.279-.12-.376-.14-.387,0,0-.157.012-.467.42a.326.326,0,1,1-.52-.395c.384-.5.757-.729,1.106-.666a.8.8,0,0,1,.6.639,4.373,4.373,0,0,1-1.223,3.835A.328.328,0,0,1,7723.73,3963.1Z" transform="translate(-7669.092 -3935.231)" fill="#ff8b82"/>
          <path id="Trazado_8525" data-name="Trazado 8525" d="M7661.957,3948.1a.328.328,0,0,1-.155-.04,5.424,5.424,0,0,1-2.367-2.3.326.326,0,0,1,.6-.262,4.891,4.891,0,0,0,2.083,1.994.326.326,0,0,1-.157.612Z" transform="translate(-7633.252 -3927.822)" fill="#81b3ff"/>
          <path id="Trazado_8526" data-name="Trazado 8526" d="M7665.767,3943.517a.323.323,0,0,1-.146-.034,3.156,3.156,0,0,1-1.3-1.384.326.326,0,0,1,.593-.271,2.523,2.523,0,0,0,1,1.072.326.326,0,0,1-.146.618Z" transform="translate(-7635.986 -3925.772)" fill="#81b3ff"/>
          <path id="Trazado_8527" data-name="Trazado 8527" d="M7676.9,3931.784a.326.326,0,0,1-.259-.127,3.639,3.639,0,0,1-.679-2.464.326.326,0,0,1,.647.08,3.018,3.018,0,0,0,.548,1.987.326.326,0,0,1-.258.525Z" transform="translate(-7642.513 -3918.643)" fill="#81b3ff"/>
          <path id="Trazado_8528" data-name="Trazado 8528" d="M7708.561,3931.686a.326.326,0,0,1-.221-.566,7.827,7.827,0,0,0,1.537-2.2.326.326,0,0,1,.589.279,8.333,8.333,0,0,1-1.686,2.4A.323.323,0,0,1,7708.561,3931.686Z" transform="translate(-7660.597 -3918.545)" fill="#81b3ff"/>
          <path id="Trazado_8529" data-name="Trazado 8529" d="M7712.92,3935.083a.326.326,0,0,1-.193-.589,6.368,6.368,0,0,0,1.518-1.581.326.326,0,0,1,.573.313,6.921,6.921,0,0,1-1.7,1.794A.324.324,0,0,1,7712.92,3935.083Z" transform="translate(-7663.038 -3920.791)" fill="#81b3ff"/>
          <path id="Trazado_8530" data-name="Trazado 8530" d="M7723.556,3951.5a.326.326,0,0,1-.065-.646,6.074,6.074,0,0,0,2.457-1.458.326.326,0,0,1,.435.486,6.534,6.534,0,0,1-2.762,1.611A.359.359,0,0,1,7723.556,3951.5Z" transform="translate(-7668.995 -3930.069)" fill="#81b3ff"/>
          <path id="Trazado_8531" data-name="Trazado 8531" d="M7721.464,3946.069a.326.326,0,0,1-.085-.641,3.48,3.48,0,0,0,1.8-1.543.326.326,0,1,1,.557.34,4.053,4.053,0,0,1-2.189,1.833A.325.325,0,0,1,7721.464,3946.069Z" transform="translate(-7667.824 -3926.944)" fill="#81b3ff"/>
          <path id="Trazado_8532" data-name="Trazado 8532" d="M7671.837,3967.632a46.166,46.166,0,0,1-16.1-2.814.324.324,0,0,1-.2-.256l-4.412-32.146a.326.326,0,1,1,.646-.088l4.385,31.958c1.686.652,15.5,5.635,30.163.153l2.9-30.141a.326.326,0,0,1,.649.063l-2.916,30.344a.326.326,0,0,1-.209.274A41.885,41.885,0,0,1,7671.837,3967.632Z" transform="translate(-7628.613 -3920.4)" fill="#fff"/>
          <path id="Trazado_8533" data-name="Trazado 8533" d="M7680.207,4021.771c-.141,0-.281,0-.422-.005-5.141-.134-10.02-2.778-12.141-6.579a.326.326,0,0,1,.57-.317c2.012,3.607,6.669,6.117,11.588,6.245a12.122,12.122,0,0,0,10.944-5.492.326.326,0,0,1,.552.347A12.69,12.69,0,0,1,7680.207,4021.771Z" transform="translate(-7637.841 -3966.691)" fill="#81b3ff"/>
          <path id="Trazado_8534" data-name="Trazado 8534" d="M7680.986,4111.125h-.031a175.566,175.566,0,0,0-19.293-.6.32.32,0,0,1-.336-.315.325.325,0,0,1,.314-.337,176.493,176.493,0,0,1,19.375.607.326.326,0,0,1-.029.65Z" transform="translate(-7634.327 -4019.958)" fill="#81b3ff"/>
          <path id="Trazado_8535" data-name="Trazado 8535" d="M7632,4077.558a.326.326,0,0,1-.3-.195c-1.7-3.872-.978-10.476-.946-10.755a.326.326,0,0,1,.648.073c-.008.067-.737,6.709.895,10.419a.326.326,0,0,1-.3.458Z" transform="translate(-7617.106 -3995.598)" fill="#81b3ff"/>
          <path id="Trazado_8536" data-name="Trazado 8536" d="M7633.344,4087.854a.326.326,0,0,1-.325-.3c-.306-4.288,1.022-11.588,1.079-11.9a.326.326,0,0,1,.642.118c-.014.075-1.37,7.528-1.069,11.733a.327.327,0,0,1-.3.349Z" transform="translate(-7618.448 -4000.677)" fill="#81b3ff"/>
          <path id="Trazado_8537" data-name="Trazado 8537" d="M7746.051,4094.38a.326.326,0,0,1-.048-.648l2.771-.416c-.64-8.7-3.02-24.372-3.044-24.531a.326.326,0,1,1,.645-.1c.024.161,2.464,16.225,3.072,24.884a.326.326,0,0,1-.277.345l-3.069.46A.333.333,0,0,1,7746.051,4094.38Z" transform="translate(-7681.593 -3996.77)" fill="#81b3ff"/>
          <path id="Trazado_8538" data-name="Trazado 8538" d="M7748.841,4071.406a.315.315,0,0,1-.116-.022.326.326,0,0,1-.188-.421,25.494,25.494,0,0,0,1.207-9.532.326.326,0,1,1,.651-.035,25.667,25.667,0,0,1-1.249,9.8A.326.326,0,0,1,7748.841,4071.406Z" transform="translate(-7683.155 -3992.668)" fill="#81b3ff"/>
          <path id="Trazado_8539" data-name="Trazado 8539" d="M7625.38,4140.851a.326.326,0,0,1-.031-.65c14.2-1.359,36.711-13.042,36.937-13.161a.326.326,0,0,1,.3.578c-.227.119-22.855,11.86-37.176,13.232Z" transform="translate(-7614.014 -4029.583)" fill="#81b3ff"/>
          <path id="Trazado_8540" data-name="Trazado 8540" d="M7714.953,4151.091h-.023a134.067,134.067,0,0,1-36.311-8.462.326.326,0,1,1,.243-.606,133.314,133.314,0,0,0,36.114,8.417.326.326,0,0,1-.023.651Z" transform="translate(-7643.896 -4037.982)" fill="#81b3ff"/>
          <path id="Trazado_8541" data-name="Trazado 8541" d="M7616,4120.323l-.626-.181s1.05-3.637,1.434-5.017c.4-1.432,3.572-4.286,3.934-4.606a.326.326,0,0,1,.434.487c-.941.835-3.446,3.237-3.739,4.293C7617.049,4116.682,7616,4120.323,7616,4120.323Z" transform="translate(-7608.59 -4020.306)" fill="#81b3ff"/>
          <path id="Trazado_8542" data-name="Trazado 8542" d="M7622.629,4120.6a.329.329,0,0,1-.062-.006l-1.085-.208a.322.322,0,0,1-.231-.177.328.328,0,0,1,0-.291l2.379-4.68a.3.3,0,0,1,.045-.067l2.225-2.532a.326.326,0,0,1,.489.431l-2.2,2.5-2.164,4.257.659.127a.326.326,0,0,1-.061.646Z" transform="translate(-7611.864 -4021.477)" fill="#81b3ff"/>
          <path id="Trazado_8543" data-name="Trazado 8543" d="M7626.326,4120.153a.934.934,0,0,1-.43-.1.981.981,0,0,1-.493-.782.331.331,0,0,1,.057-.208l2.762-3.989a.316.316,0,0,1,.074-.077l2.071-1.535a.326.326,0,0,1,.388.524l-2.028,1.5-2.651,3.83a.261.261,0,0,0,.118.153c.063.03.315.1.956-.3a.326.326,0,0,1,.347.552A2.314,2.314,0,0,1,7626.326,4120.153Z" transform="translate(-7614.208 -4021.966)" fill="#81b3ff"/>
          <path id="Trazado_8544" data-name="Trazado 8544" d="M7677.207,4105.257a.324.324,0,0,1-.168-.047c-11.291-6.775-27.5-5.948-27.663-5.938a.326.326,0,0,1-.037-.651c.165-.009,16.574-.847,28.036,6.03a.326.326,0,0,1-.168.606Z" transform="translate(-7627.441 -4013.668)" fill="#81b3ff"/>
          <path id="Trazado_8545" data-name="Trazado 8545" d="M7665.063,3959.977a.326.326,0,0,1-.325-.311l-.2-4.086a.327.327,0,0,1,.31-.342.333.333,0,0,1,.342.311l.2,4.086a.326.326,0,0,1-.31.342Z" transform="translate(-7636.126 -3933.389)" fill="#fff"/>
          <path id="Trazado_8546" data-name="Trazado 8546" d="M7722.2,3960.752l-.04,0a.326.326,0,0,1-.285-.363l.479-3.99a.326.326,0,0,1,.647.077l-.479,3.99A.327.327,0,0,1,7722.2,3960.752Z" transform="translate(-7668.232 -3933.877)" fill="#fff"/>
        </g>
        <g id="Grupo_1754" data-name="Grupo 1754" transform="translate(136.401 4.225)">
          <path id="Trazado_8547" data-name="Trazado 8547" d="M7413.374,3990.071l-3.069,1.841s10.434,17.185,11.2,17.032,10.741-16.725,10.741-16.725l-3.99-2.148Z" transform="translate(-7376.769 -3943.852)" fill="#fff"/>
          <path id="Trazado_8548" data-name="Trazado 8548" d="M7371.537,4430c-10.587,11.048-19.449,6.9-19.219,13.695h35.33a55.507,55.507,0,0,0-2.877-14.271Z" transform="translate(-7344.292 -4189.903)"/>
          <path id="Trazado_8549" data-name="Trazado 8549" d="M7467.3,4430c10.588,11.048,15.655,6.9,15.425,13.695h-31.536a55.483,55.483,0,0,1,2.877-14.271Z" transform="translate(-7399.665 -4189.903)"/>
          <path id="Trazado_8550" data-name="Trazado 8550" d="M7508.473,4203.592s-1.5,1.841-2.532,6.9a59.564,59.564,0,0,0-1.151,7.71c-.23,1.726,1.381,2.187,2.072.575l2.071-4.833a37.175,37.175,0,0,1,.69,5.524c0,2.071-.46,2.531-.46,2.531s-1.957,2.072-1.727,3.683c0,0-1.266,1.266-.46,2.532,0,0,3.683-1.841,4.833-2.532s2.763-4.373,3.568-6.674,1.841-6.33-.231-16.112Z" transform="translate(-7429.671 -4063.044)" fill="#81b3ff"/>
          <path id="Trazado_8551" data-name="Trazado 8551" d="M7341.513,4200.746a25.676,25.676,0,0,1,.229,5.869c-.115,4.6,0,8.631.691,11.048a15.665,15.665,0,0,0,3.8,6.674,43.773,43.773,0,0,0,5.409,3.337s.921-1.381-.69-3.337c0,0,.806-1.151-1.036-2.877s-1.5-4.028-.345-8.056a19.167,19.167,0,0,1,.921,3.913c.115,1.611,1.956,2.647,2.3.115s1.381-6.33-1.035-11.968a16.049,16.049,0,0,0-3.223-5.179Z" transform="translate(-7338.243 -4061.58)" fill="#81b3ff"/>
          <path id="Trazado_8552" data-name="Trazado 8552" d="M7499.377,4042.036c7.366,29.154,8.747,51.1,7.826,72.425h-12.275s-4.45-42.043-6.291-51.557-2.3-12.122-2.3-12.122Z" transform="translate(-7419.348 -3972.954)" fill="#fff"/>
          <path id="Trazado_8553" data-name="Trazado 8553" d="M7341.569,4043.431c-5.984,25.472-8.592,39.742-7.059,71.351h12.89s1.995-25.778,3.222-34.678,4.3-26.085,4.3-26.085Z" transform="translate(-7334.08 -3973.735)" fill="#fff"/>
          <path id="Trazado_8554" data-name="Trazado 8554" d="M7399.831,3907.032c-4.489-12.313,1.15-21.29,14.729-21.98s23.247,9.437,16.342,22.325S7399.831,3907.032,7399.831,3907.032Z" transform="translate(-7370.054 -3885.018)" fill="#fff"/>
          <path id="Trazado_8555" data-name="Trazado 8555" d="M7415.456,3969.55a14.421,14.421,0,0,1-2.186,8.631s7.71,9.667,20.024,1.381c0,0-3.107-2.762-2.877-10.242Z" transform="translate(-7378.43 -3932.23)" fill="#a06b64"/>
          <path id="Trazado_8556" data-name="Trazado 8556" d="M7419.264,3938.808c6.905.345,13.925-7.25,13.81-22.671-4.028-13.925-20.485-14.615-27.274-3.222C7404.648,3933.859,7412.359,3938.463,7419.264,3938.808Z" transform="translate(-7374.181 -3896.195)" fill="#a06b64"/>
          <path id="Trazado_8557" data-name="Trazado 8557" d="M7401.663,3929.715c-3.683-7.365-6.56,6.56.805,7.71" transform="translate(-7369.814 -3908.852)" fill="#a06b64"/>
          <path id="Trazado_8558" data-name="Trazado 8558" d="M7465.312,3932.715c5.063-6.56,5.754,6.444-1.036,7.826Z" transform="translate(-7406.995 -3910.701)" fill="#a06b64"/>
          <path id="Trazado_8559" data-name="Trazado 8559" d="M7436.4,3932.972a.326.326,0,0,1-.326-.327v-3.107a.326.326,0,1,1,.652,0v3.107A.326.326,0,0,1,7436.4,3932.972Z" transform="translate(-7391.198 -3909.768)" fill="#221f1f"/>
          <path id="Trazado_8560" data-name="Trazado 8560" d="M7405.684,3936.859c13-1.611,14.96-1.381,27.39.805-1.036,17.722-9.782,19.333-14.96,18.873S7406.029,3952.51,7405.684,3936.859Z" transform="translate(-7374.181 -3913.464)" fill="#c8e6ff"/>
          <path id="Trazado_8561" data-name="Trazado 8561" d="M7374.241,3985.537s1.381,5.409,9.667,16.111c0,0,4.6-5.179,9.321-15.536,20.83,4.948,23.131,11.969,28.194,24.4l-11.623,11.969s1.151,16.226-4.028,22.556h-42.926s-5.063-3.567-5.754-21.75l-13.925-11.738C7353.181,3990.715,7358.244,3989.45,7374.241,3985.537Z" transform="translate(-7339.17 -3941.313)" fill="#2a54ba"/>
          <path id="Trazado_8562" data-name="Trazado 8562" d="M7379.357,4117.106s-4.718,11.854-6.1,34.18-.805,76.184,5.869,102.882h20.024s1.88-44.421,3.03-62.374c0,0,2.264,42.12,4.105,62.144h19.1c4.144-29.921,6.79-86.771,3.8-107.256s-6.9-29.576-6.9-29.576l-20.945-2.877Z" transform="translate(-7355.68 -4013.385)" fill="#2a54ba"/>
          <path id="Trazado_8563" data-name="Trazado 8563" d="M7422.9,3929.6a.652.652,0,0,1-.652-.652v-.652a.652.652,0,1,1,1.3,0v.652A.651.651,0,0,1,7422.9,3929.6Z" transform="translate(-7383.458 -3908.89)" fill="#221f1f"/>
          <path id="Trazado_8564" data-name="Trazado 8564" d="M7449.582,3929.6a.652.652,0,0,1-.652-.652v-.652a.652.652,0,1,1,1.3,0v.652A.652.652,0,0,1,7449.582,3929.6Z" transform="translate(-7398.4 -3908.89)" fill="#221f1f"/>
          <path id="Trazado_8565" data-name="Trazado 8565" d="M7413.9,3918.72a.326.326,0,0,1-.244-.543,7.621,7.621,0,0,1,7.7-1.822.326.326,0,0,1-.187.625,6.933,6.933,0,0,0-7.028,1.63A.326.326,0,0,1,7413.9,3918.72Z" transform="translate(-7378.6 -3902.365)" fill="#221f1f"/>
          <path id="Trazado_8566" data-name="Trazado 8566" d="M7449.494,3918.422a.324.324,0,0,1-.193-.063,6.956,6.956,0,0,0-6.249-1.11.326.326,0,1,1-.235-.608,7.514,7.514,0,0,1,6.871,1.193.326.326,0,0,1-.194.589Z" transform="translate(-7394.86 -3902.527)" fill="#221f1f"/>
          <path id="Trazado_8567" data-name="Trazado 8567" d="M7401.882,3937.316a.332.332,0,0,1-.148-.036c-1.4-.72-1.753-2.775-1.553-4,.109-.669.378-1.07.76-1.128.6-.093.989.7,1.119.956a.326.326,0,0,1-.583.292c-.276-.552-.448-.6-.45-.6a1.982,1.982,0,0,0-.245,1.191,3.092,3.092,0,0,0,1.25,2.715.326.326,0,0,1-.149.616Z" transform="translate(-7371.07 -3911.409)" fill="#773834"/>
          <path id="Trazado_8568" data-name="Trazado 8568" d="M7467.915,3939.946a.326.326,0,0,1-.224-.563,4.261,4.261,0,0,0,1.4-3.387c-.032-.108-.07-.147-.081-.15-.064-.01-.326.077-.78.641a.326.326,0,1,1-.508-.409c.539-.67,1-.954,1.417-.871a.77.77,0,0,1,.579.609,4.837,4.837,0,0,1-1.576,4.04A.322.322,0,0,1,7467.915,3939.946Z" transform="translate(-7408.85 -3913.118)" fill="#773834"/>
          <path id="Trazado_8569" data-name="Trazado 8569" d="M7412.546,3946.2h-.006c-3.165-.058-6.1-.115-6.1-.115a.326.326,0,0,1-.32-.333.339.339,0,0,1,.333-.32s2.934.058,6.1.115a.326.326,0,0,1-.006.652Z" transform="translate(-7374.425 -3918.85)" fill="#81b3ff"/>
          <path id="Trazado_8570" data-name="Trazado 8570" d="M7411.531,3954.693a.326.326,0,0,1-.1-.015,15.554,15.554,0,0,1-4.532-2.124.326.326,0,0,1,.4-.517,15.29,15.29,0,0,0,4.33,2.019.326.326,0,0,1-.1.637Z" transform="translate(-7374.791 -3922.513)" fill="#81b3ff"/>
          <path id="Trazado_8571" data-name="Trazado 8571" d="M7451.175,3946.918a.326.326,0,0,1-.011-.652c.033,0,3.411-.12,6.407-.572a.326.326,0,0,1,.1.645c-3.033.458-6.448.578-6.481.579Z" transform="translate(-7399.475 -3918.997)" fill="#81b3ff"/>
          <path id="Trazado_8572" data-name="Trazado 8572" d="M7454.051,3954.969a.326.326,0,0,1-.045-.649,14.734,14.734,0,0,0,5-1.912.326.326,0,0,1,.339.557,15.115,15.115,0,0,1-5.246,2A.288.288,0,0,1,7454.051,3954.969Z" transform="translate(-7401.086 -3922.733)" fill="#81b3ff"/>
          <path id="Trazado_8573" data-name="Trazado 8573" d="M7412.336,3964.15a.328.328,0,0,1-.146-.034,10.979,10.979,0,0,1-3.933-3.808.326.326,0,0,1,.562-.332,10.492,10.492,0,0,0,3.663,3.557.326.326,0,0,1-.146.618Z" transform="translate(-7375.597 -3926.908)" fill="#81b3ff"/>
          <path id="Trazado_8574" data-name="Trazado 8574" d="M7453.66,3963.748a.326.326,0,0,1-.092-.639,11,11,0,0,0,4.509-3.184.326.326,0,0,1,.488.433,11.421,11.421,0,0,1-4.813,3.376A.334.334,0,0,1,7453.66,3963.748Z" transform="translate(-7400.867 -3926.907)" fill="#81b3ff"/>
          <path id="Trazado_8575" data-name="Trazado 8575" d="M7374.4,4055.861a.326.326,0,0,1-.326-.326,95.858,95.858,0,0,1,.693-12.13.326.326,0,0,1,.646.092,95.178,95.178,0,0,0-.687,12.038A.326.326,0,0,1,7374.4,4055.861Z" transform="translate(-7356.48 -3973.564)" fill="#81b3ff"/>
          <path id="Trazado_8576" data-name="Trazado 8576" d="M7492.885,4055.788a.326.326,0,0,1-.326-.314,85.336,85.336,0,0,0-1.031-10.657.326.326,0,1,1,.642-.115,86.218,86.218,0,0,1,1.041,10.748.327.327,0,0,1-.314.338Z" transform="translate(-7422.253 -3974.296)" fill="#81b3ff"/>
          <path id="Trazado_8577" data-name="Trazado 8577" d="M7421.317,4004.039h-.02a.322.322,0,0,1-.231-.118c-8.116-9.831-10.85-18.093-10.877-18.175a.326.326,0,0,1,.621-.2c.026.08,2.677,8.079,10.531,17.684,1.186-1.219,6.391-6.93,10.491-17.129a.326.326,0,1,1,.6.243c-4.69,11.67-10.835,17.55-10.9,17.608A.326.326,0,0,1,7421.317,4004.039Z" transform="translate(-7376.695 -3941.19)" fill="#81b3ff"/>
          <path id="Trazado_8578" data-name="Trazado 8578" d="M7430.407,4120.679h-42.925a.326.326,0,0,1,0-.652h42.925a.326.326,0,1,1,0,.652Z" transform="translate(-7363.805 -4016.632)" fill="#81b3ff"/>
          <path id="Trazado_8579" data-name="Trazado 8579" d="M7430.365,4125.388h-44.191a.326.326,0,0,1,0-.652h44.191a.326.326,0,1,1,0,.652Z" transform="translate(-7363.072 -4019.269)" fill="#81b3ff"/>
          <path id="Trazado_8580" data-name="Trazado 8580" d="M7439.293,4230.086a.327.327,0,0,1-.327-.323c-.19-18.206.188-47.131.192-47.421a.337.337,0,0,1,.33-.322.326.326,0,0,1,.322.33c0,.29-.381,29.208-.191,47.406a.328.328,0,0,1-.323.33Z" transform="translate(-7392.791 -4051.35)" fill="#81b3ff"/>
          <path id="Trazado_8581" data-name="Trazado 8581" d="M7406.136,4426.455h-20.484a.326.326,0,1,1,0-.652h20.484a.326.326,0,1,1,0,.652Z" transform="translate(-7362.779 -4187.877)" fill="#81b3ff"/>
          <path id="Trazado_8582" data-name="Trazado 8582" d="M7467.846,4425.932h-19.679a.326.326,0,0,1,0-.652h19.679a.326.326,0,0,1,0,.652Z" transform="translate(-7397.79 -4187.584)" fill="#81b3ff"/>
          <path id="Trazado_8583" data-name="Trazado 8583" d="M7354.032,4248.215a.328.328,0,0,1-.175-.051c-.139-.089-3.419-2.192-4.141-3.576-.687-1.316-1.5-3.106-1.5-3.124a.326.326,0,1,1,.595-.269c.008.018.81,1.791,1.488,3.091.492.943,2.638,2.488,3.679,3.176l.466-.535a.326.326,0,0,1,.492.429l-.653.748A.326.326,0,0,1,7354.032,4248.215Z" transform="translate(-7341.978 -4084.383)" fill="#81b3ff"/>
          <path id="Trazado_8584" data-name="Trazado 8584" d="M7357.771,4227.672a.325.325,0,0,1-.268-.14l-1.285-1.841a.326.326,0,1,1,.535-.373l1.286,1.841a.326.326,0,0,1-.081.454A.319.319,0,0,1,7357.771,4227.672Z" transform="translate(-7346.446 -4075.52)" fill="#81b3ff"/>
          <path id="Trazado_8585" data-name="Trazado 8585" d="M7510.593,4247.09a.324.324,0,0,1-.316-.247l-.173-.691a.326.326,0,1,1,.633-.158l.062.248c.753-.488,2.407-1.568,3.055-2.042.563-.413,1.5-3.078,1.951-4.661a.326.326,0,1,1,.626.18c-.207.72-1.285,4.341-2.191,5.007-.862.631-3.363,2.244-3.469,2.312A.326.326,0,0,1,7510.593,4247.09Z" transform="translate(-7432.654 -4083.43)" fill="#81b3ff"/>
          <path id="Trazado_8586" data-name="Trazado 8586" d="M7403.406,3919.93a.326.326,0,0,1-.176-.052,4.079,4.079,0,0,1-1.814-2.582.326.326,0,0,1,.644-.1,3.484,3.484,0,0,0,1.523,2.137.326.326,0,0,1-.176.6Z" transform="translate(-7371.789 -3902.884)" fill="#81b3ff"/>
          <path id="Trazado_8587" data-name="Trazado 8587" d="M7467.524,3928.426a.326.326,0,0,1-.077-.643,3.743,3.743,0,0,0,1.887-1.317.326.326,0,1,1,.521.392,4.337,4.337,0,0,1-2.257,1.56A.317.317,0,0,1,7467.524,3928.426Z" transform="translate(-7408.631 -3908.157)" fill="#81b3ff"/>
          <path id="Trazado_8588" data-name="Trazado 8588" d="M7464.777,3919.38a.326.326,0,0,1-.185-.6,11.734,11.734,0,0,0,2.12-2.01.326.326,0,1,1,.5.415,12.191,12.191,0,0,1-2.254,2.133A.326.326,0,0,1,7464.777,3919.38Z" transform="translate(-7407.092 -3902.737)" fill="#81b3ff"/>
          <path id="Trazado_8589" data-name="Trazado 8589" d="M7462.029,3915.8a.326.326,0,0,1-.23-.556l1.5-1.5a.326.326,0,0,1,.461.461l-1.5,1.5A.326.326,0,0,1,7462.029,3915.8Z" transform="translate(-7405.554 -3901.052)" fill="#81b3ff"/>
          <path id="Trazado_8590" data-name="Trazado 8590" d="M7413.608,3907.239a.32.32,0,0,1-.173-.05,4.243,4.243,0,0,1-1.82-3.133.326.326,0,0,1,.3-.345.33.33,0,0,1,.346.3,3.647,3.647,0,0,0,1.517,2.622.326.326,0,0,1-.174.6Z" transform="translate(-7377.502 -3895.487)" fill="#81b3ff"/>
          <path id="Trazado_8591" data-name="Trazado 8591" d="M7418.907,3906.422a.324.324,0,0,1-.252-.119,4.451,4.451,0,0,1-.76-1.822.326.326,0,0,1,.643-.107,3.861,3.861,0,0,0,.621,1.516.326.326,0,0,1-.252.532Z" transform="translate(-7381.017 -3895.706)" fill="#81b3ff"/>
          <path id="Trazado_8592" data-name="Trazado 8592" d="M7446.074,3902.577a.321.321,0,0,1-.2-.067.326.326,0,0,1-.061-.457,12.373,12.373,0,0,0,1.281-2.459.326.326,0,1,1,.6.252,12.672,12.672,0,0,1-1.365,2.6A.326.326,0,0,1,7446.074,3902.577Z" transform="translate(-7396.619 -3893.069)" fill="#81b3ff"/>
          <path id="Trazado_8593" data-name="Trazado 8593" d="M7405.756,3934.668a.327.327,0,0,1-.323-.288l-.541-4.586a.326.326,0,1,1,.647-.077l.542,4.586a.326.326,0,0,1-.286.362A.258.258,0,0,1,7405.756,3934.668Z" transform="translate(-7373.736 -3909.89)" fill="#c3e0ff"/>
          <path id="Trazado_8594" data-name="Trazado 8594" d="M7466.511,3937.341l-.038,0a.326.326,0,0,1-.286-.361l.46-3.989a.326.326,0,1,1,.647.075l-.46,3.989A.326.326,0,0,1,7466.511,3937.341Z" transform="translate(-7408.063 -3911.721)" fill="#c3e0ff"/>
        </g>
        <g id="Grupo_1755" data-name="Grupo 1755">
          <path id="Trazado_8595" data-name="Trazado 8595" d="M7060.873,3918.457c-11.278-12.429-9.9-43.041,14.5-43.041s21.636,34.754,15.191,43.041c21.175,4.6,24.167,5.524,31.762,24.167s16.342,58.461,10.588,75.494H7119.1s-4.143-2.3-6.675-11.969c0,0,2.992,28.541,3.452,56.39s-2.071,51.326-9.437,55.239h-19.794s-3.913-1.381-4.373-8.056c0,0-.765,6-5.1,8.292h-19.829s-5.452-3.229-7.293-17.959-4.374-64.446-4.143-92.3c0,0-.691,10.588-4.144,12.889h-14.04c-6.905-8.286-2.992-51.556,2.762-70.89S7037.166,3927.2,7060.873,3918.457Z" transform="translate(-7024.051 -3875.416)" fill="#fff"/>
          <path id="Trazado_8596" data-name="Trazado 8596" d="M7032.411,4205.517c2.992,14.96,2.762,23.016,4.833,27.159s4.833,5.754,8.286,7.135a2.638,2.638,0,0,0,.115-1.784l1.9.748s.46-1.266-1.266-3.107l-.979-1.266s.863.518,1.093-2.187.4-5.754.4-9.091a8.775,8.775,0,0,0-1.9-5.466l1.554-12.141Z" transform="translate(-7028.733 -4060.284)" fill="#2a54ba"/>
          <path id="Trazado_8597" data-name="Trazado 8597" d="M7253.908,4199.763a92.769,92.769,0,0,1-1.611,17.875c-1.842,9.667-2.762,12.889-4.91,14.73a36.768,36.768,0,0,1-5.678,3.683s-.307-1.687,1.535-3.683l1.841-1.995-.153-5.984s-.518,1.668-.863,3.337-2.7,1.669-2.359-1.208-.23-8.689,3.453-12.084l-5.063-14.672Z" transform="translate(-7145.045 -4057.062)" fill="#2a54ba"/>
          <path id="Trazado_8598" data-name="Trazado 8598" d="M7114.972,3920.985a63.107,63.107,0,0,1-.461-11.565c4.949-6.042,15.882-7.193,23.822.287a46.081,46.081,0,0,1-1.094,12.2l-11.508,6.617Z" transform="translate(-7074.64 -3891.697)" fill="#ffbbb6"/>
          <path id="Trazado_8599" data-name="Trazado 8599" d="M7115.707,3931.63c-.288,7.941,4.6,12.2,10.7,12.2s11.565-3.107,11.565-11.278c-4.2-1.727-6.343-5.17-7.768-7.193-1.784-2.532-4.143-2.359-5.984-.23C7122.341,3927.3,7118.986,3930.94,7115.707,3931.63Z" transform="translate(-7075.375 -3902.342)" fill="#c8e6ff"/>
          <path id="Trazado_8600" data-name="Trazado 8600" d="M7135.916,3946.54a4.239,4.239,0,1,1,4.238-4.239A4.244,4.244,0,0,1,7135.916,3946.54Zm0-7.826a3.587,3.587,0,1,0,3.586,3.587A3.591,3.591,0,0,0,7135.916,3938.714Z" transform="translate(-7084.326 -3910.5)" fill="#2a54ba"/>
          <path id="Trazado_8601" data-name="Trazado 8601" d="M7140.9,3945.863h-3.146a.326.326,0,0,1,0-.652h3.146a.326.326,0,1,1,0,.652Z" transform="translate(-7087.549 -3914.504)" fill="#2a54ba"/>
          <path id="Trazado_8602" data-name="Trazado 8602" d="M7140.875,3949.525h-3.031a.326.326,0,0,1,0-.652h3.031a.326.326,0,1,1,0,.652Z" transform="translate(-7087.598 -3916.555)" fill="#2a54ba"/>
          <path id="Trazado_8603" data-name="Trazado 8603" d="M7126.989,3924.477a.652.652,0,0,1-.652-.652v-.652a.652.652,0,1,1,1.3,0v.652A.651.651,0,0,1,7126.989,3924.477Z" transform="translate(-7081.335 -3901.796)" fill="#221f1f"/>
          <path id="Trazado_8604" data-name="Trazado 8604" d="M7153.277,3924.477a.652.652,0,0,1-.652-.652v-.652a.652.652,0,0,1,1.3,0v.652A.652.652,0,0,1,7153.277,3924.477Z" transform="translate(-7096.058 -3901.796)" fill="#221f1f"/>
          <path id="Trazado_8605" data-name="Trazado 8605" d="M7120.146,3916.33a.326.326,0,0,1-.245-.542,5.887,5.887,0,0,1,6.524-1.266.326.326,0,1,1-.245.6,5.147,5.147,0,0,0-5.791,1.094A.325.325,0,0,1,7120.146,3916.33Z" transform="translate(-7077.686 -3897.045)" fill="#221f1f"/>
          <path id="Trazado_8606" data-name="Trazado 8606" d="M7153.6,3916.738a.325.325,0,0,1-.186-.058c-3.9-2.705-6.627-.99-6.742-.916a.326.326,0,0,1-.358-.545c.128-.085,3.2-2.044,7.472.925a.326.326,0,0,1-.186.594Z" transform="translate(-7092.444 -3897.308)" fill="#221f1f"/>
          <path id="Trazado_8607" data-name="Trazado 8607" d="M7120.386,3902.766a.327.327,0,0,1-.261-.13,13.3,13.3,0,0,1-2.126-4.14.326.326,0,0,1,.631-.167,12.861,12.861,0,0,0,2.017,3.916.326.326,0,0,1-.064.456A.329.329,0,0,1,7120.386,3902.766Z" transform="translate(-7076.66 -3888.112)" fill="#81b3ff"/>
          <path id="Trazado_8608" data-name="Trazado 8608" d="M7130.875,3900.96a.327.327,0,0,1-.294-.185,10.757,10.757,0,0,1-.951-2.976.326.326,0,0,1,.647-.084,10.307,10.307,0,0,0,.892,2.778.327.327,0,0,1-.294.468Z" transform="translate(-7083.178 -3887.745)" fill="#81b3ff"/>
          <path id="Trazado_8609" data-name="Trazado 8609" d="M7149.572,3900.458a.323.323,0,0,1-.165-.045.326.326,0,0,1-.115-.446,11.46,11.46,0,0,0,1.11-3.571.326.326,0,1,1,.643.107,11.786,11.786,0,0,1-1.192,3.795A.325.325,0,0,1,7149.572,3900.458Z" transform="translate(-7094.166 -3887.013)" fill="#81b3ff"/>
          <path id="Trazado_8610" data-name="Trazado 8610" d="M7157.158,3905.224a.326.326,0,0,1-.121-.63,5.122,5.122,0,0,0,2.2-2.162.326.326,0,0,1,.564.327,5.652,5.652,0,0,1-2.522,2.442A.327.327,0,0,1,7157.158,3905.224Z" transform="translate(-7098.413 -3890.456)" fill="#81b3ff"/>
          <path id="Trazado_8611" data-name="Trazado 8611" d="M7109.161,3955.341a.326.326,0,0,1-.194-.588,9.428,9.428,0,0,1,3.167-1.206.326.326,0,0,1,.15.635,9.1,9.1,0,0,0-2.933,1.1A.327.327,0,0,1,7109.161,3955.341Z" transform="translate(-7071.533 -3919.167)" fill="#81b3ff"/>
          <path id="Trazado_8612" data-name="Trazado 8612" d="M7110.729,3962.435a.326.326,0,0,1-.178-.6l3.625-2.359a.326.326,0,0,1,.356.547l-3.625,2.359A.326.326,0,0,1,7110.729,3962.435Z" transform="translate(-7072.412 -3922.463)" fill="#81b3ff"/>
          <path id="Trazado_8613" data-name="Trazado 8613" d="M7169.043,3957.036a.325.325,0,0,1-.152-.038,22,22,0,0,0-4.355-1.64.326.326,0,1,1,.155-.633,22.16,22.16,0,0,1,4.505,1.7.326.326,0,0,1-.152.614Z" transform="translate(-7102.588 -3919.827)" fill="#81b3ff"/>
          <path id="Trazado_8614" data-name="Trazado 8614" d="M7164.434,3964.151a.324.324,0,0,1-.145-.034,26,26,0,0,1-3.281-2.281.326.326,0,0,1,.409-.508,25.935,25.935,0,0,0,3.164,2.207.326.326,0,0,1-.146.618Z" transform="translate(-7100.684 -3923.489)" fill="#81b3ff"/>
          <path id="Trazado_8615" data-name="Trazado 8615" d="M7121.841,3975.625a40.081,40.081,0,0,1-14.644-2.5.326.326,0,0,1,.263-.6c.126.055,12.828,5.482,29.457-.011a.326.326,0,0,1,.205.62A48.628,48.628,0,0,1,7121.841,3975.625Z" transform="translate(-7070.508 -3929.787)" fill="#2a54ba"/>
          <circle id="Elipse_619" data-name="Elipse 619" cx="4.258" cy="4.258" r="4.258" transform="translate(70.163 73.059) rotate(-67.688)" fill="#2a54ba"/>
          <path id="Trazado_8616" data-name="Trazado 8616" d="M7065.414,4076.129h-.017a.326.326,0,0,1-.31-.342,131.818,131.818,0,0,1,2.848-20.466c0-.035.6-8.716.451-24.626-.152-15.986-1.633-19.154-9.472-33.3a.326.326,0,1,1,.57-.316c7.907,14.263,9.4,17.459,9.554,33.6.152,15.94-.455,24.644-.461,24.73a131.92,131.92,0,0,0-2.838,20.4A.326.326,0,0,1,7065.414,4076.129Z" transform="translate(-7043.553 -3943.459)" fill="#2a54ba"/>
          <path id="Trazado_8617" data-name="Trazado 8617" d="M7139.926,4129.747h-60.149a.326.326,0,1,1,0-.652h60.149a.326.326,0,1,1,0,.652Z" transform="translate(-7055.077 -4017.486)" fill="#2a54ba"/>
          <path id="Trazado_8618" data-name="Trazado 8618" d="M7219.436,4072.265a.326.326,0,0,1-.323-.283c-1.954-14.879-3.333-17.981-3.347-18.01a.322.322,0,0,1-.03-.12c0-.082-.459-8.3-.308-22.271a128.072,128.072,0,0,1,5.69-37.223.326.326,0,1,1,.625.187,127.434,127.434,0,0,0-5.663,37.043c-.145,13.326.263,21.409.3,22.169.211.5,1.527,4.054,3.377,18.14a.327.327,0,0,1-.281.366A.317.317,0,0,1,7219.436,4072.265Z" transform="translate(-7131.212 -3941.897)" fill="#2a54ba"/>
          <path id="Trazado_8619" data-name="Trazado 8619" d="M7139.9,4122.423h-59.075a.326.326,0,1,1,0-.652H7139.9a.326.326,0,1,1,0,.652Z" transform="translate(-7055.663 -4013.384)" fill="#2a54ba"/>
          <path id="Trazado_8620" data-name="Trazado 8620" d="M7146.382,4043.947a.335.335,0,0,1-.326-.327c.151-38.512-1.631-61.125-1.648-61.35a.326.326,0,0,1,.65-.052c.018.224,1.8,22.862,1.65,61.4A.326.326,0,0,1,7146.382,4043.947Z" transform="translate(-7091.456 -3935.061)" fill="#2a54ba"/>
          <path id="Trazado_8621" data-name="Trazado 8621" d="M7151.976,4252.313a.327.327,0,0,1-.326-.307c-.7-11.862-1.768-59.217-2.071-76.812s-1.066-45.139-1.074-45.415a.326.326,0,0,1,.316-.335.322.322,0,0,1,.335.317c.008.276.771,27.825,1.074,45.422s1.374,64.932,2.071,76.785a.325.325,0,0,1-.307.344Z" transform="translate(-7093.75 -4017.681)" fill="#2a54ba"/>
          <path id="Trazado_8622" data-name="Trazado 8622" d="M7102.46,4419.162a.326.326,0,0,1-.246-.111,11.2,11.2,0,0,1-2.534-5.706.326.326,0,0,1,.649-.065,10.728,10.728,0,0,0,2.376,5.342.326.326,0,0,1-.245.541Z" transform="translate(-7066.406 -4176.475)" fill="#81b3ff"/>
          <path id="Trazado_8623" data-name="Trazado 8623" d="M7111.695,4422.44a.324.324,0,0,1-.267-.139,7.705,7.705,0,0,1-1.285-3.38.326.326,0,0,1,.649-.06,7.16,7.16,0,0,0,1.17,3.065.326.326,0,0,1-.267.513Z" transform="translate(-7072.265 -4179.6)" fill="#81b3ff"/>
          <path id="Trazado_8624" data-name="Trazado 8624" d="M7135.229,4420.766a.326.326,0,0,1-.066-.645c.054-.019,1-.4,2.215-3.781a.326.326,0,1,1,.613.221c-1.377,3.827-2.5,4.171-2.716,4.2A.377.377,0,0,1,7135.229,4420.766Z" transform="translate(-7086.133 -4178.232)" fill="#81b3ff"/>
          <path id="Trazado_8625" data-name="Trazado 8625" d="M7171.319,4418.967a.326.326,0,0,1-.251-.117,11.948,11.948,0,0,1-2.683-5.852.326.326,0,0,1,.648-.069,11.516,11.516,0,0,0,2.535,5.5.326.326,0,0,1-.25.535Z" transform="translate(-7104.883 -4176.28)" fill="#81b3ff"/>
          <path id="Trazado_8626" data-name="Trazado 8626" d="M7203.936,4420.459a.326.326,0,0,1-.136-.623c.027-.013,1.31-.653,2.6-3.519a.326.326,0,1,1,.6.268c-1.416,3.146-2.866,3.819-2.927,3.846A.318.318,0,0,1,7203.936,4420.459Z" transform="translate(-7124.61 -4178.232)" fill="#81b3ff"/>
          <path id="Trazado_8627" data-name="Trazado 8627" d="M7178.853,4422.134a.325.325,0,0,1-.261-.13,6.779,6.779,0,0,1-1.138-3.082.326.326,0,0,1,.649-.06,6.213,6.213,0,0,0,1.01,2.75.325.325,0,0,1-.065.456A.321.321,0,0,1,7178.853,4422.134Z" transform="translate(-7109.961 -4179.6)" fill="#81b3ff"/>
          <path id="Trazado_8628" data-name="Trazado 8628" d="M7250.669,4251.328a.321.321,0,0,1-.127-.026.326.326,0,0,1-.173-.427l1.438-3.4a.326.326,0,0,1,.6.254l-1.439,3.4A.325.325,0,0,1,7250.669,4251.328Z" transform="translate(-7150.783 -4083.674)" fill="#81b3ff"/>
          <path id="Trazado_8629" data-name="Trazado 8629" d="M7058,4259h-.013c-1.639-.063-1.832-1.907-2.077-4.242l-.076-.709c-.283-2.545-.739-4.782-.743-4.8a.326.326,0,0,1,.639-.131c0,.022.467,2.289.753,4.863l.076.713c.242,2.311.43,3.619,1.453,3.658a.326.326,0,0,1-.012.652Z" transform="translate(-7041.429 -4084.552)" fill="#81b3ff"/>
          <path id="Trazado_8630" data-name="Trazado 8630" d="M7052.848,4269.874a.323.323,0,0,1-.178-.053c-.028-.019-2.857-1.869-4.8-3.474a8.16,8.16,0,0,1-2.586-4.152.326.326,0,0,1,.637-.14,7.63,7.63,0,0,0,2.363,3.789c1.92,1.582,4.718,3.413,4.747,3.431a.326.326,0,0,1-.179.6Z" transform="translate(-7035.936 -4091.804)" fill="#81b3ff"/>
          <path id="Trazado_8631" data-name="Trazado 8631" d="M7034.539,4200.071a.327.327,0,0,1-.283-.164,18.61,18.61,0,0,1-1.528-3.876.326.326,0,0,1,.63-.166,18.288,18.288,0,0,0,1.464,3.719.327.327,0,0,1-.122.445A.323.323,0,0,1,7034.539,4200.071Z" transform="translate(-7028.904 -4054.742)" fill="#81b3ff"/>
          <path id="Trazado_8632" data-name="Trazado 8632" d="M7041.987,4201.651a.326.326,0,0,1-.318-.26l-.576-2.762a.326.326,0,0,1,.639-.133l.575,2.762a.326.326,0,0,1-.252.386A.351.351,0,0,1,7041.987,4201.651Z" transform="translate(-7033.592 -4056.207)" fill="#81b3ff"/>
          <path id="Trazado_8633" data-name="Trazado 8633" d="M7263.225,4193.876a.326.326,0,0,1-.305-.441,23.876,23.876,0,0,0,1.018-4.077.326.326,0,1,1,.645.1,24.064,24.064,0,0,1-1.053,4.209A.326.326,0,0,1,7263.225,4193.876Z" transform="translate(-7157.814 -4051.08)" fill="#81b3ff"/>
          <path id="Trazado_8634" data-name="Trazado 8634" d="M7253.809,4191.68a.35.35,0,0,1-.051,0,.326.326,0,0,1-.272-.372,21.231,21.231,0,0,0,0-5.768.326.326,0,1,1,.644-.1,21.546,21.546,0,0,1,0,5.97A.326.326,0,0,1,7253.809,4191.68Z" transform="translate(-7152.541 -4048.883)" fill="#81b3ff"/>
          <path id="Trazado_8635" data-name="Trazado 8635" d="M7120.561,3977.777c-6.7,0-13.135-1.372-16.18-3.778a.326.326,0,1,1,.4-.512c5.579,4.408,23.818,5.164,32.194-.021a.326.326,0,0,1,.344.554C7133.135,3976.613,7126.733,3977.777,7120.561,3977.777Z" transform="translate(-7068.969 -3930.3)" fill="#2a54ba"/>
          <path id="Trazado_8636" data-name="Trazado 8636" d="M7140.817,3962.265h0a.326.326,0,0,1-.324-.328l.035-5.765a.34.34,0,0,1,.328-.324.326.326,0,0,1,.324.328l-.035,5.765A.325.325,0,0,1,7140.817,3962.265Z" transform="translate(-7089.262 -3920.461)" fill="#2a54ba"/>
          <path id="Trazado_8637" data-name="Trazado 8637" d="M7140.9,3930.559h-.01a.327.327,0,0,1-.316-.336l.192-6.406a.32.32,0,0,1,.335-.316.326.326,0,0,1,.316.336l-.191,6.406A.326.326,0,0,1,7140.9,3930.559Z" transform="translate(-7089.306 -3902.345)" fill="#2a54ba"/>
          <path id="Trazado_8638" data-name="Trazado 8638" d="M7132.45,3925.286a8.377,8.377,0,0,1-1.263-.1c-3.43-.525-4.653-2.552-5.636-4.18-.117-.194-.23-.382-.345-.562a3.184,3.184,0,0,0-2.472-1.748,2.549,2.549,0,0,0-2.045,1.294l-.092.139c-1.172,1.763-2.777,4.178-7.654,4.247a4.107,4.107,0,0,1-3.25-1.243c-1.476-1.62-1.841-4.767-1.222-10.524a.325.325,0,0,1,.167-.25c.114-.063,11.671-6.262,28.822.8a.326.326,0,0,1,.2.288c.244,5.813-.454,9.248-2.2,10.81A4.324,4.324,0,0,1,7132.45,3925.286Zm-9.737-7.247h.029a3.8,3.8,0,0,1,3.015,2.052c.117.184.233.377.353.575.96,1.591,2.048,3.394,5.176,3.873a4.3,4.3,0,0,0,3.744-.774c1.566-1.4,2.2-4.611,1.989-10.088-15.716-6.392-26.541-1.51-27.918-.828-.571,5.441-.248,8.389,1.074,9.84a3.434,3.434,0,0,0,2.759,1.031c4.535-.064,6.029-2.313,7.121-3.955l.093-.14A3.14,3.14,0,0,1,7122.713,3918.039Z" transform="translate(-7071.168 -3894.66)" fill="#221f1f"/>
          <path id="Trazado_8639" data-name="Trazado 8639" d="M7074.922,4426.821c-17.306,6.9-18.917,10.811-19.491,15.875H7097.9s1.306-8.847-3.145-15.875Z" transform="translate(-7041.625 -4184.223)" fill="#2a54ba"/>
          <path id="Trazado_8640" data-name="Trazado 8640" d="M7163.891,4426.282a36.77,36.77,0,0,0-1.726,15.651h43.385c-.69-10.933-9.9-11.048-21.865-15.651Z" transform="translate(-7101.292 -4183.921)" fill="#2a54ba"/>
        </g>
      </g>
    </g>
    <path id="Trazado_8641" data-name="Trazado 8641" d="M7650.034,3919.681s15.306-10.358,39.243,1.726l-.346,3.682a43.126,43.126,0,0,0-38.092-1.956Z" transform="translate(-5462.044 -3429.12)" fill="#2a54ba"/>
    <path id="Trazado_8642" data-name="Trazado 8642" d="M7671.837,3967.632a46.166,46.166,0,0,1-16.1-2.814.324.324,0,0,1-.2-.256l-4.412-32.146a.326.326,0,1,1,.646-.088l4.385,31.958c1.686.652,15.5,5.635,30.163.153l2.9-30.141a.326.326,0,0,1,.649.063l-2.916,30.344a.326.326,0,0,1-.209.274A41.885,41.885,0,0,1,7671.837,3967.632Z" transform="translate(-5462.654 -3438.359)" fill="#fff"/>
  </g>
</svg>
