<svg xmlns="http://www.w3.org/2000/svg" width="361.177" height="358.551" viewBox="0 0 361.177 358.551">
  <g id="Grupo_1752" data-name="Grupo 1752" transform="translate(-5302.862 -4406.535)">
    <path id="Trazado_8455" data-name="Trazado 8455" d="M5319.675,4490.952c-23.326,45.161-21.507,87.808.057,133.188,11.039,23.231,24.348,45.657,31.641,70.477,6.108,20.789,25.617,53.073,48.365,57.04,26.482,4.618,53.933,1.351,75.058-16.75,7.2-6.171,12.146-13.869,18.416-20.783,6.062-6.684,15.252-10.254,23.623-12.978,9.306-3.028,18.993-5.361,27.355-10.446,11.634-7.075,18.815-18.908,27.326-29.139,4.189-5.035,8.8-10.563,15-12.945,8.858-3.4,18.687-5.5,26.827-10.225,8.324-4.831,16.578-9.015,23.854-15.472a79.861,79.861,0,0,0,5.609-113.962c-14.01-15.144-33.171-24.21-50.854-34.836-27.236-16.369-51.8-37.087-79.982-51.773a136.575,136.575,0,0,0-63.133-15.814,130.552,130.552,0,0,0-31.685,3.986c-25.983,6.561-48.779,20.488-67.683,39.52A166.809,166.809,0,0,0,5319.675,4490.952Z" fill="#cfe1fc"/>
    <path id="Trazado_8456" data-name="Trazado 8456" d="M5733.457,4723.431c-.506,3.125-4.161,4.745-4.161,4.745-6.288,2.215-10.031,1.018-11.423.356-.059-.029-.112-.059-.16-.083a3.7,3.7,0,0,1-.463-.273l-7.8-8.4-2.468-47.308-3.051-58.549.774-2.784,3.582-12.878,1.08-3.889a24.951,24.951,0,0,1,4,1.942C5734.431,4608.487,5735.161,4712.875,5733.457,4723.431Z" transform="translate(-246.982 -115.673)" fill="#fff"/>
    <rect id="Rectángulo_880" data-name="Rectángulo 880" width="21.253" height="10.221" rx="5.067" transform="translate(5371.533 4461.828)" fill="#5b9ba5"/>
    <rect id="Rectángulo_881" data-name="Rectángulo 881" width="4.198" height="8.342" rx="2.099" transform="translate(5380.061 4464.411)" fill="#457884"/>
    <rect id="Rectángulo_882" data-name="Rectángulo 882" width="4.198" height="8.342" rx="2.099" transform="translate(5373.703 4464.411)" fill="#457884"/>
    <rect id="Rectángulo_883" data-name="Rectángulo 883" width="4.198" height="8.342" rx="2.099" transform="translate(5386.296 4464.411)" fill="#457884"/>
    <path id="Trazado_8457" data-name="Trazado 8457" d="M5581.743,5296.426s-2.3.452-6.735.876c-3.407.331-8.084.643-13.944.72-.584.009-1.153.009-1.713.009-12.961,0-18.553-2.093-18.553-2.093-2.127-8.76-.122-12.654.852-16.421a26.073,26.073,0,0,0,.852-6.813l.609-.02,2.18-.073,18.991-.637a7.785,7.785,0,0,0,2.434,7.48c3.572,3.051,7.115,1.582,11.252,4.443S5581.743,5296.426,5581.743,5296.426Z" transform="translate(-145.944 -532.948)" fill="#65c2c9"/>
    <path id="Trazado_8458" data-name="Trazado 8458" d="M5739.323,4958.423c-3.976,5.68-9.038,6.9-11.375,6.9-.516,0-1.148-.847-1.82-2.161-2.39-4.672-5.3-15.277-5.3-15.277l3.991-3.062,2.837-2.17H5739.7S5743.294,4952.748,5739.323,4958.423Z" transform="translate(-257.389 -330.146)" fill="#65c2c9"/>
    <path id="Trazado_8459" data-name="Trazado 8459" d="M5699.977,5296.426a122.357,122.357,0,0,1-18.84,1.563c-.6.015-1.212.024-1.835.034-2.044.029-3.918,0-5.631-.058-10.182-.355-14.64-2.025-14.64-2.025-2.126-8.76-.121-12.654.852-16.421a27.929,27.929,0,0,0,.8-4.906c.083-1.183.054-1.908.054-1.908l6.931-.234,14.849-.5a7.787,7.787,0,0,0,2.433,7.48c3.577,3.051,7.121,1.582,11.257,4.443S5699.977,5296.426,5699.977,5296.426Z" transform="translate(-218.753 -532.948)" fill="#65c2c9"/>
    <path id="Trazado_8460" data-name="Trazado 8460" d="M5517.991,4590.082v85.927a15.682,15.682,0,0,1-15.687,15.682h-41.355a15.663,15.663,0,0,1-15.681-15.682v-85.927a15.685,15.685,0,0,1,15.681-15.687H5502.3a15.682,15.682,0,0,1,15.687,15.687Z" transform="translate(-87.696 -103.37)" fill="#65c2c9"/>
    <path id="Trazado_8461" data-name="Trazado 8461" d="M5533.6,4593.544a15.814,15.814,0,0,0-2.156-.146h-41.355a15.686,15.686,0,0,0-15.682,15.687v85.927a15.611,15.611,0,0,0,2.336,8.235q.46.066.935.1l.854.793,1.22-.75h40.5a15.682,15.682,0,0,0,15.687-15.682v-85.927A15.627,15.627,0,0,0,5533.6,4593.544Z" transform="translate(-105.638 -115.073)" fill="#009aa2"/>
    <path id="Trazado_8462" data-name="Trazado 8462" d="M5727.162,4753.178l-4.558.274a3.631,3.631,0,0,1-.462-.272l-7.8-8.4-2.468-47.307,6.59-62.5S5727.162,4639.208,5727.162,4753.178Z" transform="translate(-251.873 -140.676)" fill="#e6e7e8"/>
    <path id="Trazado_8463" data-name="Trazado 8463" d="M5728.64,4965.212a14.707,14.707,0,0,1-2.512,1.426c-2.39-4.672-5.3-15.277-5.3-15.277l3.991-3.062,3.509.424s.02,10.4,2.093,10.4,3.222-4.984,3.037-9.49a30.413,30.413,0,0,1,.973,6.269C5734.495,4958.821,5733.672,4961.683,5728.64,4965.212Z" transform="translate(-257.389 -333.625)" fill="#009aa2"/>
    <path id="Trazado_8464" data-name="Trazado 8464" d="M5603.58,4752.343c-3.091,2.4-1.757,6.853-1.757,6.853a43.986,43.986,0,0,1-12.533,1.324c-1.416-.049-2.725-.156-3.884-.287a39.079,39.079,0,0,1-5.636-1.032l0,0c-.613-4.5-2.482-5.616-4.171-9.695-2.939-7.072-2.434-25.469-2.434-41.856,0-13.389-.866-50.008-1.183-62.959,0-.083,0-.166,0-.244-.054-2.03-.088-3.436-.1-4.039,0-.068,0-.127,0-.176,0-.1,0-.15,0-.15l-.005.121c-.15,3.315-3.431,74.344-8.19,100.878-.872,4.872-1.791,8.245-2.755,9.422a19.89,19.89,0,0,0-4.458,8.892,43.254,43.254,0,0,1-16.2,1.45,34.941,34.941,0,0,1-5.987-1.046,15.44,15.44,0,0,0-2.4-8.347c-6.926-6.317-4.614-30.428-4.614-109.829,0-17.721.024-34.356.063-49.575.15-56.939.5-94.026.5-94.026a134.562,134.562,0,0,0,13.817-5.412c3-1.309,4.507-2.964,5.145-5.242a13.784,13.784,0,0,0,.379-4.336c-.214-5.485-2.141-13.487-2.141-25.625,0-.764.02-1.5.054-2.225.048-1.065.136-2.083.258-3.052h0c1.718-13.72,10.23-17.638,16.985-18.689l.015,0a.24.24,0,0,0,.054,0,32.626,32.626,0,0,1,5.018-.36c.808,0,1.582.029,2.331.088,13.117.968,17.668,10.167,19.074,18.971.063.409.127.813.175,1.217v0c.083.618.146,1.227.2,1.83a67.875,67.875,0,0,1-.161,11.754c-.209,2.545-.6,5.514-.939,8.469-.531,4.6-.939,9.15-.375,11.963a6.177,6.177,0,0,0,.462,1.47,4.066,4.066,0,0,0,1.124,1.421,19.07,19.07,0,0,0,3.675,2.113c.8.365,1.626.706,2.419,1.012,2.56.983,4.8,1.621,4.945,1.655l0,0c2.9,5.617,4.429,15.1,5.227,24.855.195,2.346.346,4.711.463,7.038.131,2.6.219,5.169.277,7.622a.04.04,0,0,0,0,.024v.01c.087,3.8.112,7.334.112,10.337,0,6.882,1.528,43.583,2.424,84.272C5610.067,4684.536,5610.121,4747.247,5603.58,4752.343Z" transform="translate(-137.95 -16.339)" fill="#fff"/>
    <path id="Trazado_8465" data-name="Trazado 8465" d="M5621.527,4882.407s-.435,2.7-6.275,6.836c0,0-.162,1.7,2.678,4.543s4.866,2.19,4.866,2.19,2.12-8.026,5.035-10.746l-2.6-3.288Z" transform="translate(-192.373 -292.762)" fill="#223d44"/>
    <path id="Trazado_8466" data-name="Trazado 8466" d="M5610.082,4578.283s1.572,27.776,1.275,53.877,3.105,70.717-7.6,88c0,0,3.421-17.371,3.085-87.606-.244-51.118-.565-54.179-.565-54.179s-20.816-6.128-27.61-10.927a13.783,13.783,0,0,0,.38-4.336s5.324,5.169,29.09,12.119c0,0,7.427-3.285,11.462-7.782a6.155,6.155,0,0,0,.462,1.47,4.891,4.891,0,0,0,1.124,1.421S5619.168,4573.255,5610.082,4578.283Z" transform="translate(-169.843 -96.42)" fill="#55a5be"/>
    <path id="Trazado_8467" data-name="Trazado 8467" d="M5621.2,4842.828s3.881,7.731,11.993,7.731,15.151-10.259,13.384-20.117c-1.541-8.6-18.737-3.488-18.737-3.488Z" transform="translate(-196.036 -257.971)" fill="#65c2c9"/>
    <rect id="Rectángulo_884" data-name="Rectángulo 884" width="2.92" height="113.076" transform="translate(5508.649 4479.296) rotate(34.901)" fill="#223d44"/>
    <path id="Trazado_8468" data-name="Trazado 8468" d="M5668.883,4827.274a5.432,5.432,0,0,1-2.266,1.93c-1.7.883-3.1.609-2.829,2.4s7.239,3.742,10.616,6.054,7.97,1.43,5.566.608-8.587-9.477-8.587-9.477Z" transform="translate(-222.242 -259.096)" fill="#223d44"/>
    <path id="Trazado_8469" data-name="Trazado 8469" d="M5641.125,4499.433c-.209,2.546-.6,5.515-.939,8.469,0,0-5.023,6.984-10.62,6.984-6.143,0-14.845-3.247-16.709-7.787-.745-1.8-1.095-5.4-1.25-9.087-.243-5.616-.029-11.437-.029-11.437,4.609.316,9.612.321,14.168.195,8.439-.234,15.341-.925,15.341-.925v0c.083.618.146,1.226.2,1.83A67.891,67.891,0,0,1,5641.125,4499.433Z" transform="translate(-190.057 -48.84)" fill="#65c2c9"/>
    <path id="Trazado_8470" data-name="Trazado 8470" d="M5625.745,4487.939l-14.139,11.243c-.243-5.616-.029-11.437-.029-11.437C5616.187,4488.061,5621.189,4488.065,5625.745,4487.939Z" transform="translate(-190.057 -50.01)" fill="#fff"/>
    <path id="Trazado_8471" data-name="Trazado 8471" d="M5536.676,4594.649s9.618,3.058,9.618,17.537-8.088,21.916-8.088,21.916h-9.577l.26-36.58Z" transform="translate(-139.03 -115.843)" fill="#b6b6b6"/>
    <path id="Trazado_8472" data-name="Trazado 8472" d="M5618.333,4485.729s-32.054,1.835-44.114,0c.048-1.066.136-2.083.258-3.052h0s28.481,1.217,43.477,0C5618.124,4483.7,5618.246,4484.726,5618.333,4485.729Z" transform="translate(-167.105 -46.889)" fill="#55a5be"/>
    <path id="Trazado_8473" data-name="Trazado 8473" d="M5638.1,4455.992h-3.976c0-23.882-13.764-22.69-14.835-22.563a32.626,32.626,0,0,1,5.018-.36c.809,0,1.582.029,2.332.088C5641.13,4437.789,5638.1,4455.992,5638.1,4455.992Z" transform="translate(-194.861 -16.339)" fill="#55a5be"/>
    <path id="Trazado_8474" data-name="Trazado 8474" d="M5616.394,4704.651c-30.21,2.005-73.453,1.192-73.453,1.192v3.407c14.007,1.723,62.468-.3,73.394-.783Z" transform="translate(-147.843 -183.584)" fill="#55a5be"/>
    <path id="Trazado_8475" data-name="Trazado 8475" d="M5838.5,4589.845a8.688,8.688,0,0,1,4.392-3.354c3.609-1.1,5.313.2,5.313.2l-1.419,3.853a7.23,7.23,0,0,0-5.89.969Z" transform="translate(-329.855 -110.549)" fill="#223d44"/>
    <path id="Trazado_8476" data-name="Trazado 8476" d="M5630.4,4489.6c-7.3,0-16.047-.442-18.643,4.263s1.055,12.573,5.516,12.573c4.543,0,9.653-6.57,13.3-6.57s5.182,4.671,9.693,4.628c3.255-.03,4.161-9.933,2.8-12.659C5641.12,4487.945,5636.158,4489.6,5630.4,4489.6Z" transform="translate(-189.687 -50.939)" fill="#009aa2"/>
    <path id="Trazado_8477" data-name="Trazado 8477" d="M5516.709,4717.2s-4.448,13.232,4.959,18.678c28.553,16.527,29.5,24.416,29.5,24.416l-36.706-5.232-17.765-23Z" transform="translate(-119.368 -191.312)" fill="#e6e7e8"/>
    <path id="Trazado_8478" data-name="Trazado 8478" d="M5643.211,4504.753c-.238.395-1.411,1.032-3.806-.569-.209-.141-.423-.3-.652-.472-.194-.146-.394-.312-.6-.487-.121-.106-.248-.214-.375-.321a11.817,11.817,0,0,0-2.04-1.426,5.887,5.887,0,0,0-2.812-.729c-2.19,0-4.425,1.6-6.79,3.29-.744.535-1.494,1.07-2.238,1.558h-.005v0c-.375.233-.74.462-1.1.662a9.687,9.687,0,0,1-1.542.73,4.7,4.7,0,0,1-1.621.326,2.594,2.594,0,0,1-1.057-.234,5.831,5.831,0,0,1-2.53-2.487c-1.489-2.521-1.757-5.68-.652-7.685,1.236-2.244,4.624-3.067,8.5-3.363.822-.063,1.669-.1,2.526-.122.462-.015.924-.024,1.387-.024h.005l.783,0c.2,0,.414,0,.618,0,.6,0,1.2,0,1.8,0s1.173,0,1.747,0c1.456,0,2.823-.1,4.142-.194.75-.054,1.47-.107,2.146-.131.326-.015.638-.024.939-.024a10.765,10.765,0,0,1,1.519.092,4.417,4.417,0,0,1,1.246.336,2.671,2.671,0,0,1,.632.394,2.842,2.842,0,0,1,.74.959C5644.9,4496.406,5644.7,4502.33,5643.211,4504.753Z" transform="translate(-192.037 -53.279)" fill="#a8d9e0"/>
    <path id="Trazado_8479" data-name="Trazado 8479" d="M5531.806,4689.009a24.236,24.236,0,0,1-5.534,14.722,12.312,12.312,0,0,1-1.1,1.154s-1.6,1.451-9.262,1.451c-9.092,0-43.316-16.354-49-33.062a31.847,31.847,0,0,1-1.514-7.675c-1.319-16.222,6.775-36.784,9.749-45.7,5.232-15.7,13.783-18.456,16.426-18.456,4.483,0,10.138,5.719,10.138,16.1,0,19.633-9.286,44.085-9.286,44.085,3.771,1.825,18.373,11.8,27.5,16.791S5531.806,4689.009,5531.806,4689.009Z" transform="translate(-100.001 -120.026)" fill="#fff"/>
    <path id="Trazado_8480" data-name="Trazado 8480" d="M5632.593,4494.028l-5.164,13.564a4.686,4.686,0,0,1-1.621.326,2.585,2.585,0,0,1-1.056-.233l5.315-13.535C5630.89,4494.086,5631.736,4494.047,5632.593,4494.028Z" transform="translate(-198.224 -53.879)" fill="#cceaf2"/>
    <path id="Trazado_8481" data-name="Trazado 8481" d="M5641.532,4493.952l-4.687,12.2h-.005v0c-.375.233-.74.463-1.1.662l5.008-12.858h.005Z" transform="translate(-204.988 -53.833)" fill="#cceaf2"/>
    <path id="Trazado_8482" data-name="Trazado 8482" d="M5675.2,4493.146l-3.718,9.758a11.836,11.836,0,0,0-2.04-1.426l3.3-8.4c.326-.015.638-.024.939-.024A10.765,10.765,0,0,1,5675.2,4493.146Z" transform="translate(-225.747 -53.279)" fill="#cceaf2"/>
    <path id="Trazado_8483" data-name="Trazado 8483" d="M5681.918,4494.561l-3.966,10.309c-.209-.141-.423-.3-.652-.472l3.986-10.23A2.687,2.687,0,0,1,5681.918,4494.561Z" transform="translate(-230.583 -53.965)" fill="#cceaf2"/>
    <path id="Trazado_8484" data-name="Trazado 8484" d="M5644,4972.737c.024.594.054,1.985.1,4.04C5644.044,4974.747,5644.01,4973.34,5644,4972.737Z" transform="translate(-210.074 -348.674)" fill="#e6e7e8"/>
    <path id="Trazado_8485" data-name="Trazado 8485" d="M5657.7,5099.432a39,39,0,0,1-5.636-1.032l0,0c-.613-4.5-2.482-5.617-4.171-9.7-2.94-7.072-2.434-25.469-2.434-41.856,0-13.389-.865-50.008-1.182-62.959C5644.741,5002.608,5646.795,5073.3,5657.7,5099.432Z" transform="translate(-210.246 -355.539)" fill="#e6e7e8"/>
    <path id="Trazado_8486" data-name="Trazado 8486" d="M5559.351,5299.053c-12.961,0-18.553-2.093-18.553-2.093-2.127-8.76-.122-12.654.852-16.421a26.073,26.073,0,0,0,.852-6.813l.609-.02,2.18-.073,2.954,4.838S5548.765,5291.733,5559.351,5299.053Z" transform="translate(-145.944 -533.97)" fill="#009aa2"/>
    <path id="Trazado_8487" data-name="Trazado 8487" d="M5712.24,4629.63q0-4.044-.282-7.646c-.949-12.576-4.151-21.167-7.149-26.637-3.062-5.592-5.909-7.928-5.909-7.928.8.365,1.625.706,2.418,1.012,2.56.983,4.8,1.621,4.945,1.655l0,0C5719.176,4607.612,5712.24,4629.63,5712.24,4629.63Z" transform="translate(-243.885 -111.391)" fill="#b6b6b6"/>
    <path id="Trazado_8488" data-name="Trazado 8488" d="M5526.5,4806.568a12.19,12.19,0,0,1-1.1,1.154s-1.6,1.45-9.262,1.45c-9.092,0-43.316-16.354-49-33.062a31.847,31.847,0,0,1-1.514-7.675c3.572,6.522,10.742,15.453,25.1,24.146C5508.1,4803.1,5520.078,4805.916,5526.5,4806.568Z" transform="translate(-100.232 -222.863)" fill="#e6e7e8"/>
    <path id="Trazado_8489" data-name="Trazado 8489" d="M5540.251,5015.662a35,35,0,0,1-5.987-1.046,15.44,15.44,0,0,0-2.4-8.347c-6.926-6.317-4.614-30.428-4.614-109.828,0-17.721.024-34.356.063-49.575l.238.02S5524.871,4950.722,5540.251,5015.662Z" transform="translate(-137.95 -271.161)" fill="#e6e7e8"/>
    <path id="Trazado_8490" data-name="Trazado 8490" d="M5673.67,5302.191c-10.182-.354-14.64-2.024-14.64-2.024-2.126-8.761-.121-12.654.852-16.421a27.929,27.929,0,0,0,.8-4.906l5.529,2.229S5668.4,5302.191,5673.67,5302.191Z" transform="translate(-218.753 -537.176)" fill="#009aa2"/>
    <g id="Grupo_1743" data-name="Grupo 1743" transform="translate(5518.187 4479.75)">
      <g id="Grupo_1741" data-name="Grupo 1741" transform="translate(0 0)">
        <rect id="Rectángulo_885" data-name="Rectángulo 885" width="1.12" height="2.433" transform="translate(0 0.792) rotate(-45)" fill="#fff"/>
      </g>
      <g id="Grupo_1742" data-name="Grupo 1742" transform="translate(5.14 5.139)">
        <path id="Trazado_8491" data-name="Trazado 8491" d="M5900.64,4635.207l-3.419-3.419.792-.792,3.419,3.419Zm-6.838-6.837-3.418-3.419.792-.792,3.419,3.419Zm-6.837-6.837-3.419-3.419.792-.792,3.419,3.419Zm-6.837-6.838-3.419-3.419.792-.792,3.419,3.419Z" transform="translate(-5876.708 -4610.483)" fill="#fff"/>
      </g>
    </g>
    <g id="Grupo_1746" data-name="Grupo 1746" transform="translate(5519.092 4478.024)">
      <g id="Grupo_1744" data-name="Grupo 1744" transform="translate(0 0)">
        <rect id="Rectángulo_886" data-name="Rectángulo 886" width="1.121" height="2.433" transform="translate(0 1.019) rotate(-65.375)" fill="#fff"/>
      </g>
      <g id="Grupo_1745" data-name="Grupo 1745" transform="translate(6.607 3.029)">
        <path id="Trazado_8492" data-name="Trazado 8492" d="M5913.649,4615.619l-4.4-2.015.467-1.019,4.4,2.015Zm-8.79-4.03-4.4-2.014.467-1.019,4.395,2.015Zm-8.79-4.029-4.4-2.015.467-1.019,4.4,2.015Zm-8.79-4.03-4.4-2.014.467-1.019,4.4,2.015Z" transform="translate(-5882.884 -4600.497)" fill="#fff"/>
      </g>
    </g>
    <g id="Grupo_1749" data-name="Grupo 1749" transform="translate(5519.668 4476.465)">
      <g id="Grupo_1747" data-name="Grupo 1747" transform="translate(0 0)">
        <rect id="Rectángulo_887" data-name="Rectángulo 887" width="1.121" height="2.434" transform="translate(0 1.118) rotate(-85.926)" fill="#fff"/>
      </g>
      <g id="Grupo_1748" data-name="Grupo 1748" transform="translate(7.25 0.516)">
        <path id="Trazado_8493" data-name="Trazado 8493" d="M5919.816,4593.422l-4.823-.344.079-1.117,4.823.343Zm-9.646-.687-4.823-.343.08-1.118,4.822.343Zm-9.646-.687-4.823-.343.08-1.118,4.822.344Zm-9.646-.687-4.823-.343.08-1.118,4.823.344Z" transform="translate(-5886.057 -4589.9)" fill="#fff"/>
      </g>
    </g>
    <g id="Grupo_1751" data-name="Grupo 1751" transform="translate(5368.966 4588.275)">
      <g id="Grupo_1750" data-name="Grupo 1750" transform="translate(0 0)">
        <path id="Trazado_8494" data-name="Trazado 8494" d="M5532.792,4892.363c-.141.219-14.684,21.955-37.534,21.955-8.226,0-14.056-2.492-17.322-7.4-5.967-8.97-1.494-23.108.059-27.333.4.029.808.044,1.216.044h.857c-1.1,2.876-6.249,17.589-.506,26.213,2.881,4.332,8.162,6.527,15.7,6.527,21.809,0,35.772-20.865,35.909-21.079Z" transform="translate(-5474.923 -4879.587)" fill="#223d44"/>
      </g>
    </g>
    <path id="Trazado_8495" data-name="Trazado 8495" d="M5957.2,4985.6a6.567,6.567,0,0,0-6.168,4.314h-15.159a39.4,39.4,0,0,0-2.128-10.76l8.426-3.421a5.838,5.838,0,1,0-1.506-3.708l-8.427,3.422a39.623,39.623,0,0,0-6.341-9.612l10.72-10.72a6.564,6.564,0,1,0-3.182-3.182l-10.721,10.72a39.608,39.608,0,0,0-9.112-6.105l3.539-8.377a5.838,5.838,0,1,0-3.687-1.558l-3.538,8.375a39.393,39.393,0,0,0-11.282-2.311v-15.16a6.564,6.564,0,1,0-4.5,0v15.16a39.369,39.369,0,0,0-10.76,2.127l-3.421-8.426a5.839,5.839,0,1,0-3.708,1.505l3.422,8.428a39.6,39.6,0,0,0-9.612,6.341l-10.721-10.72a6.564,6.564,0,1,0-3.182,3.182l10.72,10.72a39.639,39.639,0,0,0-6.106,9.113l-8.377-3.539a5.839,5.839,0,1,0-1.558,3.687l8.376,3.539a39.371,39.371,0,0,0-2.311,11.281h-15.16a6.564,6.564,0,1,0,0,4.5h15.16a39.4,39.4,0,0,0,2.127,10.761l-8.426,3.422a5.839,5.839,0,1,0,1.505,3.708l8.428-3.422a39.612,39.612,0,0,0,6.341,9.612l-10.72,10.72a6.565,6.565,0,1,0,3.182,3.182l10.721-10.721a39.6,39.6,0,0,0,9.112,6.105l-3.539,8.378a5.838,5.838,0,1,0,3.688,1.558l3.538-8.376a39.391,39.391,0,0,0,11.281,2.311v15.16a6.564,6.564,0,1,0,4.5,0v-15.16a39.405,39.405,0,0,0,10.761-2.127l3.421,8.426a5.839,5.839,0,1,0,3.709-1.506l-3.423-8.428a39.585,39.585,0,0,0,9.612-6.341l10.721,10.721a6.564,6.564,0,1,0,3.182-3.182l-10.72-10.72a39.621,39.621,0,0,0,6.105-9.113l8.377,3.539a5.838,5.838,0,1,0,1.558-3.687l-8.376-3.538a39.391,39.391,0,0,0,2.312-11.282h15.159a6.565,6.565,0,1,0,6.168-8.814Z" transform="translate(-324.002 -319.146)" fill="#b4c8e7"/>
    <path id="Trazado_8496" data-name="Trazado 8496" d="M6029.609,4786.416a3.169,3.169,0,0,0-2.977,2.082h-7.313a19.04,19.04,0,0,0-1.027-5.192l4.065-1.651a2.818,2.818,0,1,0-.726-1.79l-4.066,1.651a19.107,19.107,0,0,0-3.06-4.638l5.173-5.173a3.166,3.166,0,1,0-1.536-1.535l-5.172,5.172a19.1,19.1,0,0,0-4.4-2.946l1.708-4.042a2.817,2.817,0,1,0-1.779-.751l-1.707,4.042a19,19,0,0,0-5.443-1.115v-7.314a3.167,3.167,0,1,0-2.172,0v7.314a19,19,0,0,0-5.191,1.026l-1.651-4.066a2.817,2.817,0,1,0-1.789.727l1.651,4.067a19.07,19.07,0,0,0-4.638,3.059l-5.173-5.172a3.167,3.167,0,1,0-1.535,1.535l5.172,5.173a19.089,19.089,0,0,0-2.945,4.4l-4.042-1.708a2.817,2.817,0,1,0-.751,1.779l4.041,1.707a19.023,19.023,0,0,0-1.114,5.444H5973.9a3.167,3.167,0,1,0,0,2.171h7.315a18.988,18.988,0,0,0,1.026,5.192l-4.066,1.651a2.817,2.817,0,1,0,.727,1.79l4.066-1.651a19.115,19.115,0,0,0,3.059,4.638l-5.172,5.172a3.168,3.168,0,1,0,1.535,1.536l5.173-5.173a19.093,19.093,0,0,0,4.4,2.946l-1.707,4.042a2.817,2.817,0,1,0,1.778.751l1.707-4.041a19,19,0,0,0,5.443,1.115v7.314a3.167,3.167,0,1,0,2.172,0v-7.314a19,19,0,0,0,5.191-1.027l1.651,4.066a2.817,2.817,0,1,0,1.789-.727l-1.651-4.066a19.1,19.1,0,0,0,4.638-3.06l5.172,5.173a3.167,3.167,0,1,0,1.536-1.536l-5.173-5.172a19.1,19.1,0,0,0,2.946-4.4l4.042,1.708a2.818,2.818,0,1,0,.752-1.779l-4.042-1.707a19.017,19.017,0,0,0,1.116-5.443h7.313a3.168,3.168,0,1,0,2.977-4.253Z" transform="translate(-409.449 -215.865)" fill="#b4c8e7"/>
  </g>
</svg>
