<svg xmlns="http://www.w3.org/2000/svg" width="118" height="118" viewBox="0 0 118 118">
  <g id="Grupo_1727" data-name="Grupo 1727" transform="translate(-2533 338)">
    <g id="Grupo_1698" data-name="Grupo 1698" transform="translate(2759 -2781.361)">
      <g id="Grupo_1694" data-name="Grupo 1694">
        <circle id="Elipse_605" data-name="Elipse 605" cx="59" cy="59" r="59" transform="translate(-226.001 2443.361)" fill="#57b8e8"/>
        <circle id="Elipse_606" data-name="Elipse 606" cx="53" cy="53" r="53" transform="translate(-220.001 2449.361)" fill="#fff"/>
      </g>
      <g id="Grupo_1697" data-name="Grupo 1697">
        <g id="Grupo_1695" data-name="Grupo 1695">
          <path id="Trazado_8344" data-name="Trazado 8344" d="M-166.717,2477.181c-1.915,7.67-5.843,9.654-11.782,9.654v2.975c9.931.133,14.995-4.694,16.2-8.265Z" fill="#fff"/>
          <path id="Trazado_8345" data-name="Trazado 8345" d="M-167.663,2487.793h6.3v10.153h-6.3Z" fill="#1c5161"/>
          <path id="Trazado_8346" data-name="Trazado 8346" d="M-158.21,2494.975a3.151,3.151,0,0,0-3.151-3.151h-6.3a3.151,3.151,0,0,0-3.151,3.151,2.677,2.677,0,0,1-.974,2.065l-3.23,2.662a6.3,6.3,0,0,0-2.294,4.865v27.748h25.6v-27.749a6.3,6.3,0,0,0-2.295-4.864l-3.23-2.66A2.679,2.679,0,0,1-158.21,2494.975Z" fill="#bceaf2"/>
          <path id="Trazado_8347" data-name="Trazado 8347" d="M-184.795,2473.846h11.2V2477h-11.2Z" fill="#2e9fd4"/>
          <path id="Trazado_8348" data-name="Trazado 8348" d="M-180.594,2471.921h11.2v7h-11.2Z" fill="#fff"/>
          <path id="Trazado_8349" data-name="Trazado 8349" d="M-161.361,2488.231c0-3.269,5.361-7.434,11.926-7.434v-3.625a6.09,6.09,0,0,1-3.928-3.286,3.228,3.228,0,0,0-3.022-1.965h-20.009v7a15.137,15.137,0,0,1,3.034.282,7.2,7.2,0,0,1,5.7,7.073v1.953Z" fill="#2e9fd4"/>
          <path id="Trazado_8350" data-name="Trazado 8350" d="M-177.312,2508.056h25.6v17.271h-25.6Z" fill="#1c5161"/>
        </g>
        <g id="Grupo_1696" data-name="Grupo 1696">
          <path id="Trazado_8351" data-name="Trazado 8351" d="M-177.313,2520.039a.919.919,0,0,0,.919-.918h0v-2.035a.918.918,0,0,0-.919-.919.918.918,0,0,0-.919.919v2.035A.919.919,0,0,0-177.313,2520.039Z" fill="#0b1523"/>
          <path id="Trazado_8352" data-name="Trazado 8352" d="M-149.215,2476.279a5.2,5.2,0,0,1-3.294-2.735,4.169,4.169,0,0,0-3.876-2.543H-180.6a.919.919,0,0,0-.919.918h0v1.007H-184.8a.919.919,0,0,0-.919.918h0V2477a.918.918,0,0,0,.918.919h3.283v1.007a.92.92,0,0,0,.918.919h4.2a14.37,14.37,0,0,1,2.851.262,6.146,6.146,0,0,1,3.667,2.333c-1.782,2.446-4.368,3.5-8.508,3.5a.919.919,0,0,0-.919.919v2.956a.918.918,0,0,0,.907.919c.142,0,.285,0,.426,0a22.769,22.769,0,0,0,9.39-1.835v2.116a4.073,4.073,0,0,0-3.154,3.96,1.752,1.752,0,0,1-.639,1.356l-3.23,2.66a7.2,7.2,0,0,0-2.63,5.574v9.238a.919.919,0,0,0,.919.919.919.919,0,0,0,.919-.919v-4.828h23.764v15.433h-23.764v-2.137a.918.918,0,0,0-.919-.919.918.918,0,0,0-.919.919v10.044a.919.919,0,0,0,.919.919h25.6a.919.919,0,0,0,.919-.918h0v-27.75a7.2,7.2,0,0,0-2.63-5.573l-3.229-2.66a1.75,1.75,0,0,1-.637-1.357,4.073,4.073,0,0,0-3.151-3.959v-2.8a4.5,4.5,0,0,1,1.543-2.9.919.919,0,0,0-.022-1.3.919.919,0,0,0-1.281,0,7.014,7.014,0,0,0-1.973,3.295h-4.569v-1.034a8.188,8.188,0,0,0-1.168-4.205.881.881,0,0,0-.138-.223,8.008,8.008,0,0,0-5.126-3.545,15.108,15.108,0,0,0-2.3-.279v-5.186h19.087a2.317,2.317,0,0,1,2.169,1.387,6.714,6.714,0,0,0,3.862,3.607v2.069a16.662,16.662,0,0,0-5.411,1.234.918.918,0,0,0-.523,1.19.919.919,0,0,0,1.19.523l.037-.015a14.807,14.807,0,0,1,5.628-1.118.919.919,0,0,0,.919-.918v-3.627a.923.923,0,0,0-.7-.893Zm-28.25,11.482c2.836-.1,6.087-.736,8.532-3.562a6.343,6.343,0,0,1,.351,2.079v.578a20.383,20.383,0,0,1-8.883,2.035Zm10.724,3.145v-1.756h4.464v1.756Zm-9.653,40.491v-5.15h23.764v5.15Zm17.267-36.422a3.584,3.584,0,0,0,1.31,2.775l3.228,2.659a5.363,5.363,0,0,1,1.961,4.155v2.574h-23.766v-2.574a5.369,5.369,0,0,1,1.961-4.155l3.228-2.658a3.581,3.581,0,0,0,1.31-2.776,2.235,2.235,0,0,1,2.232-2.232h6.3a2.234,2.234,0,0,1,2.234,2.232Zm-24.749-18.9v-1.313h2.363v1.313Zm4.2-3.238h2.364V2478h-2.364Z" fill="#0b1523"/>
          <path id="Trazado_8353" data-name="Trazado 8353" d="M-164.877,2474.153a.918.918,0,0,0-.919.919.919.919,0,0,0,.919.919h4.726a.919.919,0,0,0,.919-.919.918.918,0,0,0-.919-.919Z" fill="#0b1523"/>
          <path id="Trazado_8354" data-name="Trazado 8354" d="M-199.583,2479.043l-1.045.1a.921.921,0,0,0-.822,1.008.92.92,0,0,0,.911.826c.031,0,.061,0,.091,0l1.046-.1a.919.919,0,0,0,.824-1.005.92.92,0,0,0-1-.824Z" fill="#0b1523"/>
          <path id="Trazado_8355" data-name="Trazado 8355" d="M-195.346,2478.625l-1.694.167a.921.921,0,0,0-.822,1.008.92.92,0,0,0,.911.826c.03,0,.061,0,.091,0l1.7-.167a.919.919,0,0,0,.824-1.005A.92.92,0,0,0-195.346,2478.625Z" fill="#0b1523"/>
          <path id="Trazado_8356" data-name="Trazado 8356" d="M-191.758,2478.271l-1.045.1a.919.919,0,0,0-.821,1.007.918.918,0,0,0,.91.826.725.725,0,0,0,.092,0l1.045-.1a.919.919,0,0,0,.824-1.005.92.92,0,0,0-1-.824Z" fill="#0b1523"/>
          <path id="Trazado_8357" data-name="Trazado 8357" d="M-200.628,2472.835l1.045.1c.031,0,.061,0,.092,0a.919.919,0,0,0,.915-.923.918.918,0,0,0-.826-.91l-1.046-.1a.918.918,0,0,0-1,.824.918.918,0,0,0,.824,1h0Z" fill="#0b1523"/>
          <path id="Trazado_8358" data-name="Trazado 8358" d="M-197.04,2473.189l1.694.167c.031,0,.061.005.092.005a.92.92,0,0,0,.915-.923.919.919,0,0,0-.826-.911l-1.7-.167a.918.918,0,0,0-1,.824A.919.919,0,0,0-197.04,2473.189Z" fill="#0b1523"/>
          <path id="Trazado_8359" data-name="Trazado 8359" d="M-192.8,2473.607l1.045.1a.684.684,0,0,0,.092.005.919.919,0,0,0,.915-.923.918.918,0,0,0-.826-.91l-1.045-.1a.918.918,0,0,0-1,.83.918.918,0,0,0,.819,1Z" fill="#0b1523"/>
          <path id="Trazado_8360" data-name="Trazado 8360" d="M-189.219,2475.072h-11.319a.918.918,0,0,0-.919.919.919.919,0,0,0,.919.919h11.319a.92.92,0,0,0,.92-.919A.919.919,0,0,0-189.219,2475.072Z" fill="#0b1523"/>
        </g>
      </g>
    </g>
  </g>
</svg>
