<svg xmlns="http://www.w3.org/2000/svg" width="155" height="139.066" viewBox="0 0 155 139.066">
  <g id="Grupo_1447" data-name="Grupo 1447" transform="translate(-110 -865.933)">
    <g id="Grupo_1446" data-name="Grupo 1446">
      <g id="Grupo_1078" data-name="Grupo 1078" transform="translate(110 865.933)">
        <g id="Grupo_1077" data-name="Grupo 1077">
          <path id="Trazado_5335" data-name="Trazado 5335" d="M261.53,1262.943l-59.244-102.615a18.227,18.227,0,0,0-31.569,0l-59.244,102.615a18.226,18.226,0,0,0,15.784,27.339H245.744a18.226,18.226,0,0,0,15.786-27.339Zm-7.865,13.685a9.05,9.05,0,0,1-7.92,4.573H127.255a9.145,9.145,0,0,1-7.918-13.718l59.244-102.615a9.144,9.144,0,0,1,15.838,0l59.244,102.615A9.047,9.047,0,0,1,253.664,1276.628Z" transform="translate(-109.001 -1151.215)" fill="#ff6b00"/>
        </g>
      </g>
      <g id="Grupo_1080" data-name="Grupo 1080" transform="translate(182.959 911.251)">
        <g id="Grupo_1079" data-name="Grupo 1079">
          <rect id="Rectángulo_698" data-name="Rectángulo 698" width="9.081" height="45.404" fill="#ff6b00"/>
        </g>
      </g>
      <g id="Grupo_1082" data-name="Grupo 1082" transform="translate(181.446 965.737)">
        <g id="Grupo_1081" data-name="Grupo 1081">
          <path id="Trazado_5336" data-name="Trazado 5336" d="M152.851,1204.014a6.053,6.053,0,1,0,6.055,6.054A6.06,6.06,0,0,0,152.851,1204.014Z" transform="translate(-146.798 -1204.014)" fill="#ff6b00"/>
        </g>
      </g>
    </g>
  </g>
</svg>
