<?xml version="1.0" encoding="utf-8"?>
<!-- Generator: Adobe Illustrator 22.1.0, SVG Export Plug-In . SVG Version: 6.00 Build 0)  -->
<svg version="1.1" id="Layer_1" xmlns="http://www.w3.org/2000/svg" xmlns:xlink="http://www.w3.org/1999/xlink" x="0px" y="0px"
	 viewBox="0 0 733.2 352.5" style="enable-background:new 0 0 733.2 352.5;" xml:space="preserve">
<style type="text/css">
	.st0{fill:#94D2EA;}
	.st1{fill:#6DB3C9;}
	.st2{fill:#398799;}
	.st3{fill:#E7EEF2;}
	.st4{fill:#21AECE;}
	.st5{fill:#036B8A;}
	.st6{fill:#FF4143;}
	.st7{fill:#FFFFFF;}
	.st8{opacity:0.16;fill:#474747;enable-background:new    ;}
	.st9{fill:#686868;}
	.st10{opacity:0.47;fill:#DDF1F2;enable-background:new    ;}
	.st11{fill:#B3CCE2;}
	.st12{fill:#494949;}
	.st13{fill:#DDF1F2;}
	.st14{fill:#27D8D8;}
	.st15{opacity:0.36;enable-background:new    ;}
	.st16{fill:#84232C;}
	.st17{fill:#FF5A62;}
	.st18{fill:#E53E46;}
	.st19{fill:#232323;}
	.st20{opacity:0.11;}
	.st21{opacity:0.47;fill:#7C8C8C;enable-background:new    ;}
	.st22{fill:#FCD638;}
	.st23{fill:#FFD2A1;}
	.st24{fill:#8C6239;}
	.st25{fill:#8B48BC;}
	.st26{fill:#BB70E8;}
	.st27{fill:#708FA0;}
	.st28{fill:#249AB5;}
	.st29{fill:#8DA6B7;}
	.st30{fill:#315259;}
	.st31{fill:#D9FDFF;}
	.st32{fill:#FFDEBD;}
	.st33{fill:#7391A8;}
	.st34{fill:#DFEAEA;}
	.st35{opacity:0.61;}
	.st36{opacity:0.65;}
	.st37{fill:#F2D541;}
	.st38{opacity:0.31;}
</style>
<g>
	<g id="Grupo_1455" transform="translate(200.376 575.147)">
		<g>
			<path id="Trazado_7446_8_" class="st0" d="M39.6-481.4C41.2-463,43-444,55.9-433.3c9.5,7.9,24.2,10.8,45,8.8
				c65.4-6.2,69.9,7.7,79,35.5c5.4,16.6,12.2,37.2,34,62.2c23.3,26.6,46.8,25.7,58.8,22.7c19-4.8,33.8-19.7,38.5-38.8
				c5.2-21.2-3.6-43.6-23.9-61.4c-45.1-39.4-59.2-98.5-41.2-123c11-15,32.2-14.5,58,1.3c6.4,3.9,12.2,7.3,17.5,10.3
				c-0.4-2.4-0.7-4.9-0.9-7.5c-6.3-63.4-116.6-61-144-34.4S93-477.8,50.8-509.9c-6.8-5.2-14-9.6-21.7-13.3
				C36.8-512,38.2-496.6,39.6-481.4z"/>
			<path id="Trazado_7447_8_" class="st0" d="M374.5-437.6c-6.3,4.1-9.2,13.3-8.8,28.2c0.9,39.1,4.9,77.9,28.3,97.2
				c16.8,13.9,43.4,17.6,81.3,11.3c2.6-0.4,5.2-0.8,7.8-1c-17.8-9.7-33.5-22.4-25.4-49.4c5.8-19.2,8.5-40.5,6-59.2
				c-10.6-3.2-22.3-8.6-33.8-14C408.4-434.5,386-445,374.5-437.6z"/>
			<path id="Trazado_7448_8_" class="st0" d="M488.4-299.1c-4.2,0.2-8.4,0.6-12.6,1.3c-38.8,6.5-66.2,2.5-83.8-12
				c-24.4-20.2-28.6-59.8-29.5-99.6c-0.4-16,3-26.1,10.3-30.9c12.9-8.4,35.1,2,58.5,13c10.9,5.1,21.9,10.3,31.9,13.4
				c-4.3-25.4-18.8-45.3-49.3-47.5c-50.5-3.7-82.5,0.9-91.6-50.3c-5.8-3.2-12.4-7-19.8-11.5c-24.6-15.1-43.7-15.9-53.8-2.1
				c-8.3,11.3-9.3,31.1-2.6,53.2c7.4,24.4,22.8,47.7,43.3,65.6c21.3,18.6,30.4,42.1,24.9,64.5c-5,20.2-20.7,36-40.8,41.1
				c-21.5,5.3-44.1-3.4-61.9-23.7C189.4-350.1,182.2-372,177-388c-8.8-27-12.9-39.4-75.8-33.4c-21.7,2.1-37.1-1-47.3-9.5
				c-13.9-11.6-15.7-31.2-17.4-50.3c-1.6-17.6-3.1-34.6-13.8-44.7c-21.4-8.3-43.9-8.7-67.1,0c-6.7,4-12.8,8.9-18.1,14.6
				C-82.1-490.6-92.9-460-87.8-440c0.4,1.5,0.8,3,1.2,4.5c5.9,22.9,14.9,57.4-1.6,79.4c-10,13.3-28.2,20.3-54.1,21
				c-18.8,0.5-32.7,6.9-41.3,19.2c-9.8,13.9-11.4,33.5-10.2,51.2c1.9,7.2,4.2,14.2,6.8,21.2h719.9c0,0,0-16.6-15.7-36.8
				C511.4-287.9,499.9-293.1,488.4-299.1z"/>
			<path id="Trazado_7449_8_" class="st0" d="M-186.2-317.8c9.2-13.1,23.9-20,43.7-20.5c24.9-0.6,42.3-7.2,51.7-19.7
				c15.6-20.8,6.9-54.4,1.1-76.7c-0.4-1.6-0.8-3.1-1.2-4.6c-5.3-20.9,5.8-52.8,26-74.2c2.1-2.2,4.2-4.3,6.5-6.2
				c-11.1,6-21.5,13.2-30.9,21.6c-49.5,43,4.9,133-68.7,137.9c-45.8,3-45.8,47.4-39.3,80.6C-196.7-293.3-193.7-307-186.2-317.8z"/>
		</g>
	</g>
	<ellipse id="Elipse_568" class="st1" cx="373.3" cy="334.6" rx="359.9" ry="18"/>
	<ellipse id="Elipse_569" class="st2" cx="375.4" cy="324.5" rx="315.9" ry="7.9"/>
	<g id="Grupo_1539" transform="translate(446.149 707.223)">
		<g id="Grupo_1468" transform="translate(0 46.744)">
			<rect id="Rectángulo_778" x="-197.2" y="-575.1" class="st3" width="57.5" height="123.6"/>
			<g id="Grupo_1457" transform="translate(5.738 5.283)">
				<g id="Grupo_1456">
					<path id="Rectángulo_779" class="st4" d="M-197.4-575.1h26.1c1.7,0,3,1.3,3,3v47.9c0,1.7-1.3,3-3,3h-26.1c-1.7,0-3-1.3-3-3
						v-47.9C-200.4-573.8-199-575.1-197.4-575.1z"/>
				</g>
			</g>
			<g id="Grupo_1459" transform="translate(8.166 8.053)">
				<g id="Grupo_1458">
					<path id="Rectángulo_780" class="st5" d="M-197.4-575.1h21.2c1.7,0,3,1.3,3,3v42.4c0,1.7-1.3,3-3,3h-21.2c-1.7,0-3-1.3-3-3
						v-42.4C-200.4-573.8-199-575.1-197.4-575.1z"/>
				</g>
			</g>
			<g id="Grupo_1461" transform="translate(5.477 61.816)">
				<g id="Grupo_1460">
					<path id="Rectángulo_781" class="st6" d="M-199-575.1h1.9c0.8,0,1.4,0.6,1.4,1.4v14.8c0,0.8-0.6,1.4-1.4,1.4h-1.9
						c-0.8,0-1.4-0.6-1.4-1.4v-14.8C-200.4-574.5-199.8-575.1-199-575.1z"/>
				</g>
			</g>
			<g id="Grupo_1463" transform="translate(8.542 94.483)">
				<g id="Grupo_1462">
					<path id="Rectángulo_782" class="st5" d="M-199-575.1h14.8c0.8,0,1.4,0.6,1.4,1.4v1.9c0,0.8-0.6,1.4-1.4,1.4H-199
						c-0.8,0-1.4-0.6-1.4-1.4v-1.9C-200.4-574.5-199.8-575.1-199-575.1z"/>
				</g>
			</g>
			<g id="Grupo_1465" transform="translate(16.693 65.989)">
				<g id="Grupo_1464">
					<rect id="Rectángulo_783" x="-200.4" y="-575.1" class="st5" width="19.2" height="5.6"/>
				</g>
			</g>
			<g id="Grupo_1467" transform="translate(0 0.001)">
				<g id="Grupo_1466">
					<rect id="Rectángulo_784" x="-200.4" y="-575.1" class="st7" width="3.1" height="123.6"/>
				</g>
			</g>
			<path id="Trazado_7450" class="st8" d="M-139.7-575.1v123.6h-57.5v-4.3c8-1,19.3-3.1,30.1-8.3c16.9-8.1,17.2-89,17-111H-139.7z"
				/>
		</g>
		<g id="Grupo_1469" transform="translate(87.832 177.956)">
			<path id="Trazado_7451" class="st9" d="M-200.4-573.9l5.6,8l224.7-3.5l5.7,7.4l74.5-4.5l-36.8-8.7L-200.4-573.9z"/>
		</g>
		<g id="Grupo_1470" transform="translate(60.648 37.746)">
			<path id="Trazado_7452" class="st7" d="M184.6-499.9v50.6c0,8.6-7,15.6-15.6,15.6h-369.3v-141.4h320.6l23.9,47.3l29.1,10.2
				c3.2,1.1,5.9,3.2,7.8,6C183.4-508.1,184.6-504.1,184.6-499.9z"/>
		</g>
		<path id="Trazado_7453" class="st10" d="M245.2-462.2v25.8h-51.8v-49.8l-25.3-51.3h12.7l3.6,7.2l20.3,40.2l29.1,10.2
			c3.2,1.1,5.9,3.2,7.8,6C244-470.4,245.2-466.3,245.2-462.2z"/>
		<g id="Grupo_1472" transform="translate(127.542 37.747)">
			<g id="Grupo_1471">
				<rect id="Rectángulo_785" x="-200.4" y="-575.1" class="st7" width="78.8" height="141.4"/>
			</g>
		</g>
		<path id="Trazado_7454" class="st11" d="M3.1-396H-69c1.7-19.9,19.3-34.7,39.2-32.9C-12.3-427.4,1.6-413.5,3.1-396z"/>
		<g id="Grupo_1474" transform="translate(139.67 155.899)">
			<g id="Grupo_1473">
				<circle id="Elipse_570" class="st12" cx="-172.6" cy="-547.4" r="27.8"/>
			</g>
		</g>
		<g id="Grupo_1476" transform="translate(145.869 162.098)">
			<g id="Grupo_1475" transform="translate(0 0)">
				<circle id="Elipse_571" class="st7" cx="-178.8" cy="-553.6" r="15.3"/>
			</g>
		</g>
		<g id="Grupo_1478" transform="translate(156.935 173.164)">
			<g id="Grupo_1477" transform="translate(0 0)">
				<circle id="Elipse_572" class="st12" cx="-189.9" cy="-564.6" r="7.4"/>
			</g>
		</g>
		<path id="Trazado_7455" class="st11" d="M224.3-396h-72.1c1.7-19.9,19.3-34.7,39.2-32.9C208.9-427.4,222.8-413.5,224.3-396z"/>
		<g id="Grupo_1480" transform="translate(360.906 155.899)">
			<g id="Grupo_1479">
				<circle id="Elipse_573" class="st12" cx="-172.6" cy="-547.4" r="27.8"/>
			</g>
		</g>
		<g id="Grupo_1482" transform="translate(371.178 166.171)">
			<g id="Grupo_1481">
				<circle id="Elipse_574" class="st7" cx="-182.9" cy="-557.6" r="15.3"/>
			</g>
		</g>
		<g id="Grupo_1484" transform="translate(378.171 173.164)">
			<g id="Grupo_1483" transform="translate(0 0)">
				<circle id="Elipse_575" class="st12" cx="-189.9" cy="-564.6" r="7.4"/>
			</g>
		</g>
		<g id="Grupo_1486" transform="translate(60.641 37.747)">
			<g id="Grupo_1485">
				<rect id="Rectángulo_786" x="-200.4" y="-575.1" class="st7" width="267.7" height="66.1"/>
			</g>
		</g>
		<g id="Grupo_1488" transform="translate(131.323 46.81)">
			<g id="Grupo_1487">
				<circle id="Elipse_576" class="st6" cx="-176.7" cy="-551.4" r="23.7"/>
			</g>
		</g>
		<g id="Grupo_1489" transform="translate(206.311 37.746)">
			<rect id="Rectángulo_787" x="-200.4" y="-575.1" class="st7" width="114.2" height="141.4"/>
		</g>
		<g id="Grupo_1491" transform="translate(206.31 37.747)">
			<g id="Grupo_1490">
				<rect id="Rectángulo_788" x="-200.4" y="-575.1" class="st13" width="2.7" height="141.4"/>
			</g>
		</g>
		<g id="Grupo_1493" transform="translate(293.685 106.734)">
			<g id="Grupo_1492">
				<rect id="Rectángulo_789" x="-200.2" y="-575" class="st7" width="17.2" height="4.3"/>
				<path id="Trazado_7456" d="M-183.2-574.9v4h-16.9v-4H-183.2 M-182.9-575.1h-17.5v4.6h17.5V-575.1z"/>
			</g>
		</g>
		<g id="Grupo_1494" transform="translate(328.374 47.006)">
			<path id="Trazado_7457" class="st5" d="M-200.4-575.1h37l20.9,40.9v11.7h-57.9V-575.1z"/>
		</g>
		<g id="Grupo_1495" transform="translate(381.248 44.899)">
			<path id="Trazado_7458" class="st5" d="M-176.5-535l-5.3,1.8l-18.6-39.8l3.6-2.1L-176.5-535z"/>
		</g>
		<g id="Grupo_1497" transform="translate(430.16 150.813)">
			<g id="Grupo_1496">
				<path id="Rectángulo_790" class="st6" d="M-198.4-575.1h21.8c1.1,0,2,0.9,2,2v18.1c0,1.1-0.9,2-2,2h-21.8c-1.1,0-2-0.9-2-2
					v-18.1C-200.4-574.3-199.5-575.1-198.4-575.1z"/>
			</g>
		</g>
		<g id="Grupo_1499" transform="translate(51.643 155.899)">
			<g id="Grupo_1498">
				<path id="Rectángulo_791" class="st6" d="M-197.4-575.1h15.4c1.7,0,3,1.3,3,3v17.3c0,1.7-1.3,3-3,3h-15.4c-1.7,0-3-1.3-3-3
					v-17.3C-200.4-573.8-199-575.1-197.4-575.1z"/>
			</g>
		</g>
		<g id="Grupo_1501" transform="translate(74.725 144.553)">
			<g id="Grupo_1500">
				<path id="Rectángulo_792" class="st5" d="M-198.2-575.1h15.6c1.2,0,2.2,1,2.2,2.2v3.1c0,1.2-1,2.2-2.2,2.2h-15.6
					c-1.2,0-2.2-1-2.2-2.2v-3.1C-200.4-574.2-199.4-575.1-198.2-575.1z"/>
			</g>
		</g>
		<g id="Grupo_1502" transform="translate(140.929 56.416)">
			<path id="Trazado_7459" class="st7" d="M-172.2-566.4h-8.8v-8.8h-10.7v8.8h-8.8v10.7h8.8v8.8h10.7v-8.8h8.8V-566.4z"/>
		</g>
		<g id="Grupo_1504" transform="translate(67.879 49.484)">
			<g id="Grupo_1503">
				<path id="Rectángulo_793" class="st4" d="M-197.4-575.1h30.2c1.7,0,3,1.3,3,3v43.5c0,1.7-1.3,3-3,3h-30.2c-1.7,0-3-1.3-3-3
					v-43.5C-200.4-573.8-199-575.1-197.4-575.1z"/>
			</g>
		</g>
		<g id="Grupo_1506" transform="translate(70.617 52.027)">
			<g id="Grupo_1505">
				<path id="Rectángulo_794" class="st5" d="M-197.4-575.1h24.7c1.7,0,3,1.3,3,3v38.4c0,1.7-1.3,3-3,3h-24.7c-1.7,0-3-1.3-3-3
					v-38.4C-200.4-573.8-199-575.1-197.4-575.1z"/>
			</g>
		</g>
		<g id="Grupo_1508" transform="translate(60.641 24.445)">
			<g id="Grupo_1507">
				<path id="Trazado_7460" class="st6" d="M118-575.1h-317c-0.8,0-1.4,0.6-1.4,1.4l0,0v11.9h320.6v-11.1
					C120.2-574.2,119.2-575.1,118-575.1z"/>
			</g>
		</g>
		<g id="Grupo_1509" transform="translate(72.572)">
			<path id="Trazado_7461" class="st7" d="M55.4-554.8v4.1h-255.8v-4.1c0-11.2,9.1-20.3,20.3-20.3l0,0H35.1c7,0,13.4,3.5,17.2,9.4
				C54.3-562.5,55.4-558.7,55.4-554.8z"/>
		</g>
		<g id="Grupo_1510" transform="translate(86.287 8.926)">
			<path id="Trazado_7462" class="st5" d="M-200.1-568.2l2-5c0.5-1.2,1.6-2,2.9-1.9h6.8c1.7,0,3.1,1.4,3.1,3.1
				c0,0.4-0.1,0.7-0.2,1.1l-1.8,5c-0.5,1.2-1.6,2-2.9,2h-7c-1.7,0-3.1-1.4-3.1-3.1C-200.4-567.5-200.3-567.9-200.1-568.2z"/>
		</g>
		<g id="Grupo_1512" transform="translate(303.607 8.926)">
			<g id="Grupo_1511">
				<path id="Trazado_7463" class="st5" d="M-185.5-568.2l-2-5c-0.5-1.2-1.6-2-2.9-1.9h-6.8c-1.7,0-3.1,1.4-3.1,3.1
					c0,0.4,0.1,0.7,0.2,1.1l1.8,5c0.5,1.2,1.6,2,2.9,2h7c1.7,0,3.1-1.4,3.1-3.1C-185.3-567.5-185.4-567.9-185.5-568.2z"/>
			</g>
		</g>
		<g id="Grupo_1513" transform="translate(331.108 3.444)">
			<path id="Trazado_7464" class="st14" d="M-169.2-554.1h-31.2l1-6.8l2.2-14.2h23.6l2.9,14.2L-169.2-554.1z"/>
		</g>
		<path id="Trazado_7465" class="st15" d="M161.9-550.7h-31.2l1-6.8h28.7L161.9-550.7z"/>
		<g id="Grupo_1515" transform="translate(55.685 105.952)">
			<g id="Grupo_1514">
				<path id="Trazado_7466" class="st5" d="M-199.6-547.6h4.1v-27.5h-4.1c-0.5,0-0.8,0.4-0.8,0.8l0,0v25.9
					C-200.4-548-200-547.6-199.6-547.6z"/>
			</g>
		</g>
		<path id="Trazado_7467" class="st10" d="M23.8-423.1c0,12.6,66.2,16.7,96.4,17.8v9.2H5.9v-141.4h9.7
			c14.2,18.3,38.7,45.3,64.5,52.6c21.1,6,33.3,8.2,40.1,9v46.5C93.2-430.8,23.8-436.2,23.8-423.1z"/>
		<g id="Grupo_1516" transform="translate(60.648 114.302)">
			<rect id="Rectángulo_795" x="-200.4" y="-575.1" class="st6" width="385" height="24.5"/>
		</g>
		<rect id="Rectángulo_796" x="-127.8" y="-456.8" class="st16" width="10.4" height="6.9"/>
		<rect id="Rectángulo_797" x="-114.4" y="-455.3" class="st16" width="7.4" height="6.4"/>
		<g id="Grupo_1517" transform="translate(60.648 103.864)">
			<rect id="Rectángulo_798" x="-200.4" y="-575.1" class="st17" width="333.2" height="10.4"/>
		</g>
		<rect id="Rectángulo_799" x="129.4" y="-468.4" class="st18" width="17.5" height="4.6"/>
		<g id="Grupo_1521" transform="translate(373.425 62.735)">
			<g id="Grupo_1520">
				<g id="Grupo_1518" transform="translate(8.607 16.04)">
					<path id="Rectángulo_800" class="st19" d="M-198.3-575.1h2.9c1.2,0,2.1,0.9,2.1,2.1v24.9c0,1.2-0.9,2.1-2.1,2.1h-2.9
						c-1.2,0-2.1-0.9-2.1-2.1V-573C-200.4-574.2-199.4-575.1-198.3-575.1z"/>
				</g>
				<g id="Grupo_1519">
					<path id="Rectángulo_801" class="st12" d="M-196.9-575.1h4.8c1.9,0,3.5,1.6,3.5,3.5v22.2c0,1.9-1.6,3.5-3.5,3.5h-4.8
						c-1.9,0-3.5-1.6-3.5-3.5v-22.2C-200.4-573.6-198.8-575.1-196.9-575.1z"/>
				</g>
			</g>
		</g>
		<rect id="Rectángulo_802" x="-139.7" y="-446.9" class="st18" width="385" height="10.5"/>
		<g id="Grupo_1522" transform="translate(320.551 37.746)" class="st20">
			<rect id="Rectángulo_803" x="-200.4" y="-575.1" width="15.7" height="66.1"/>
			<rect id="Rectángulo_804" x="-200.4" y="-474.1" width="15.7" height="40.4"/>
		</g>
		<path id="Trazado_7468" class="st21" d="M128-554.8v4.1h-255.8v-4.1c0-3.8,1.1-7.5,3.1-10.8c13.4,4.7,35.5,8.1,71.1,8.1
			c109.9,0,173.3,9.8,178.5-8.2C126.9-562.5,128-558.7,128-554.8z"/>
		<g id="Grupo_1538" transform="translate(243.389 49.484)">
			<g id="Grupo_1537">
				<g id="Grupo_1528" transform="translate(14.84)">
					<path id="Trazado_7478" class="st4" d="M-190-558.6h-10.4l1.5-16.6h7.4L-190-558.6z"/>
				</g>
				<g id="Grupo_1529" transform="translate(18.816 3.264)">
					<path id="Trazado_7479" class="st4" d="M-193-557.1l-7.4-7.4l12.8-10.6l5.2,5.2L-193-557.1z"/>
				</g>
				<g id="Grupo_1530" transform="translate(23.51 14.84)">
					<path id="Trazado_7480" class="st4" d="M-200.4-564.7v-10.4l16.6,1.5v7.4L-200.4-564.7z"/>
				</g>
				<g id="Grupo_1531" transform="translate(18.816 18.816)">
					<path id="Trazado_7481" class="st4" d="M-200.4-567.8l7.4-7.4l10.6,12.8l-5.2,5.2L-200.4-567.8z"/>
				</g>
				<g id="Grupo_1532" transform="translate(14.84 23.51)">
					<path id="Trazado_7482" class="st4" d="M-200.4-575.1h10.4l-1.5,16.6h-7.4L-200.4-575.1z"/>
				</g>
				<g id="Grupo_1533" transform="translate(3.264 18.816)">
					<path id="Trazado_7483" class="st4" d="M-189.7-575.1l7.4,7.4l-12.8,10.6l-5.2-5.2L-189.7-575.1z"/>
				</g>
				<g id="Grupo_1534" transform="translate(0 14.84)">
					<path id="Trazado_7484" class="st4" d="M-183.8-575.1v10.4l-16.6-1.5v-7.4L-183.8-575.1z"/>
				</g>
				<g id="Grupo_1535" transform="translate(3.264 3.264)">
					<path id="Trazado_7485" class="st4" d="M-182.4-564.5l-7.4,7.4l-10.6-12.8l5.2-5.2L-182.4-564.5z"/>
				</g>
				<g id="Grupo_1536" transform="translate(11.35 11.35)">
					<circle id="Elipse_577" class="st4" cx="-191.7" cy="-566.5" r="8.7"/>
				</g>
			</g>
		</g>
	</g>
	<g id="Grupo_1595" transform="translate(275.085 797.637)">
		<path id="Trazado_7486" class="st11" d="M-179.3-534.3l-7.3-0.6c0,0-10.5-10.7-11.6-12.8c-1.2-2.1-2.2-8.1-2.2-8.1
			s0.8-4.6,1.2-7.5c0.3-2.3,1-8,0.5-11.8c0.1,0,0.2,0,0.4-0.1c0,0,2.6,8.4,2.9,10.6c0.3,2.1,1.7,10.2,3,12.8
			c1.4,2.6,4.6,5.8,6.7,7.8C-183.6-541.9-179.3-534.3-179.3-534.3z"/>
		<g id="Grupo_1540" transform="translate(13.787 40.203)">
			<path id="Trazado_7487" class="st22" d="M-200.4-575.1l0.5,2.3h7l-0.5-1.7L-200.4-575.1z"/>
		</g>
		<g id="Grupo_1541" transform="translate(143.687 30.599)">
			<path id="Trazado_7488" class="st23" d="M-194.4-563.2h-5.1l-0.9-0.3l0.9-3.2c1.6-0.5,2.8-1.9,3.1-3.6c0.6-2.9,1.5-5.2,2.7-4.9
				c0.2,0.1,0.4,0.5,0.4,1.2C-192.8-570.9-193.5-563.2-194.4-563.2z"/>
		</g>
		<g id="Grupo_1542" transform="translate(69.752 31.979)">
			<path id="Trazado_7489" class="st24" d="M-125.5-564.6h-74.9c0,0,0-0.2,0.1-0.7l0.1-0.5c0-0.2,0-0.3,0-0.5l0.1-0.7
				c0-0.3,0.1-0.6,0.1-0.9l0.1-0.6v-0.3c0-0.2,0-0.3,0.1-0.5l0.1-1.3c0.2-1.5,0.3-2.9,0.4-3.8l0.1-0.8c0,0,16.9,1.1,28.3,2
				c0.9,0.1,1.7,0.1,2.5,0.2c2.6,0.2,4.8,0.4,6.1,0.5c7.3,0.7,18.6,1,21.8,1.2c1.5,0.1,5.9,0.6,6.1,1c0.2,0.2,1.1,0.4,1.5,0.5
				c1,0.3,7,0.6,7.5,1.7l0,0C-125.3-566.9-125.3-565.7-125.5-564.6z"/>
		</g>
		<g id="Grupo_1543" transform="translate(70.378 31.968)">
			<path id="Trazado_7490" class="st24" d="M-133.6-569.7h-1.2l-34.3-0.4h-2.1l-29.2-0.3c0.2-1.5,0.3-2.9,0.4-3.8l0.1-0.8
				c0,0,16.9,1.1,28.3,2c0.9,0.1,1.7,0.1,2.5,0.2c2.6,0.2,4.8,0.4,6.1,0.5c7.3,0.7,18.6,0.8,21.8,1.2c3.1,0.3,5.9,0.6,6.1,1
				C-134.9-570-133.9-569.9-133.6-569.7z"/>
		</g>
		<g id="Grupo_1544" transform="translate(20.286 30.622)">
			<path id="Trazado_7491" class="st25" d="M-194.4-570.2c0,0,0.8-0.2,2.1-0.8s7-3.9,9.9-4.1s32.6,1,32.6,1.3s-1.1,10.6-1.1,10.6
				h-49.5L-194.4-570.2z"/>
		</g>
		<g id="Grupo_1545" transform="translate(51.353 38.501)">
			<path id="Trazado_7492" class="st23" d="M-197.7-575.1c0,0,6.8,1.4,10.3,0.6s6.7-0.7,7.8,0.2c0.9,0.9,1.6,2,2.2,3.2h-20.4
				c0,0-2.9-0.6-2.6-2S-197.7-575.1-197.7-575.1z"/>
		</g>
		<g id="Grupo_1546" transform="translate(20.286 36.985)">
			<path id="Trazado_7493" class="st26" d="M-194.2-573.6c3.1-0.8,6.3-1.3,9.4-1.4c6.3-0.4,17.7-0.1,18,1c0.1,1.4,0.1,2.9,0,4.3
				h-33.7c1.3-1.3,2.8-2.5,4.2-3.6C-195.5-573.3-194.8-573.4-194.2-573.6z"/>
		</g>
		<g id="Grupo_1547" transform="translate(13.562 30.992)">
			<path id="Trazado_7494" class="st23" d="M-196.7-575.1c0,0,4.9-0.4,5.9,2.9s-0.2,8.6-2.8,8.6s-6.4-1-6.7-3.8
				S-196.7-575.1-196.7-575.1z"/>
		</g>
		<g id="Grupo_1549" transform="translate(59.955 52.449)">
			<g id="Grupo_1548">
				<rect id="Rectángulo_805" x="-200.4" y="-575.1" class="st27" width="2.3" height="47.9"/>
			</g>
		</g>
		<g id="Grupo_1551" transform="translate(110.57 52.449)">
			<g id="Grupo_1550">
				<rect id="Rectángulo_806" x="-200.4" y="-575.1" class="st27" width="2.3" height="47.9"/>
			</g>
		</g>
		<g id="Grupo_1552" transform="translate(42.74 48.787)">
			<rect id="Rectángulo_807" x="-200.4" y="-575.1" class="st5" width="113.8" height="3.7"/>
		</g>
		<path id="Trazado_7495" class="st11" d="M-41.3-527.1L-41.3-527.1c0,1.2-0.9,2.1-2.1,2.1h-114.2v-4.2h114.2
			C-42.3-529.2-41.4-528.3-41.3-527.1z"/>
		<g id="Grupo_1553" transform="translate(2.052 45.923)">
			<path id="Trazado_7496" class="st28" d="M-158.9-575.1v4.7H-198c-1.3,0-2.3-1.1-2.3-2.3s1.1-2.3,2.3-2.3l0,0h39.1V-575.1z"/>
		</g>
		<g id="Grupo_1555" transform="translate(43.523 52.449)">
			<g id="Grupo_1554">
				<rect id="Rectángulo_808" x="-200.4" y="-575.1" class="st29" width="2.6" height="47.9"/>
			</g>
		</g>
		<g id="Grupo_1557" transform="translate(94.187 52.449)">
			<g id="Grupo_1556">
				<rect id="Rectángulo_809" x="-200.4" y="-575.1" class="st29" width="2.6" height="47.9"/>
			</g>
		</g>
		<g id="Grupo_1558" transform="translate(46.131 82.308)">
			<path id="Trazado_7497" class="st29" d="M-200.4-575.1h13.8c0.7,0,1.2,0.5,1.2,1.2l0,0c0,0.7-0.5,1.2-1.2,1.2h-13.8V-575.1z"/>
		</g>
		<g id="Grupo_1559" transform="translate(96.796 82.308)">
			<path id="Trazado_7498" class="st29" d="M-200.4-575.1h13.8c0.7,0,1.2,0.5,1.2,1.2l0,0c0,0.7-0.5,1.2-1.2,1.2h-13.8V-575.1z"/>
		</g>
		<g id="Grupo_1560" transform="translate(46.131 52.449)">
			<path id="Trazado_7499" class="st29" d="M-197.8-545.3l30.9-29.9h-3.9l-29.6,28.8v1h2.6V-545.3z"/>
		</g>
		<g id="Grupo_1561" transform="translate(96.796 52.449)">
			<path id="Trazado_7500" class="st29" d="M-197.8-545.3l30.9-29.9h-3.9l-29.6,28.8v1h2.6V-545.3z"/>
		</g>
		<g id="Grupo_1562" transform="translate(62.302 52.449)">
			<path id="Trazado_7501" class="st27" d="M-200.4-544.1l31.9-31.1h-3.2l-28.7,27.5V-544.1z"/>
		</g>
		<g id="Grupo_1563" transform="translate(112.918 52.449)">
			<path id="Trazado_7502" class="st27" d="M-200.4-544.1l32.6-31.1h-3.9l-28.7,27.5L-200.4-544.1L-200.4-544.1z"/>
		</g>
		<g id="Grupo_1570" transform="translate(39.773 99.392)">
			<g id="Grupo_1565" transform="translate(0 0.293)">
				<g id="Grupo_1564">
					<circle id="Elipse_578" class="st9" cx="-194.7" cy="-569.5" r="5.7"/>
				</g>
			</g>
			<circle id="Elipse_579" class="st7" cx="-195.3" cy="-568.5" r="3.8"/>
			<g id="Grupo_1567" transform="translate(2.836)">
				<g id="Grupo_1566">
					<path id="Trazado_7503" class="st29" d="M-195.7-567.4h-4.3c-0.2,0-0.4-0.2-0.4-0.4v-7.3h5.1v7.3
						C-195.2-567.6-195.4-567.4-195.7-567.4z"/>
				</g>
			</g>
			<g id="Grupo_1569" transform="translate(2.836 0.913)">
				<g id="Grupo_1568">
					<rect id="Rectángulo_810" x="-200.4" y="-575.1" class="st29" width="9.6" height="2.5"/>
				</g>
			</g>
		</g>
		<g id="Grupo_1577" transform="translate(55.75 99.392)">
			<g id="Grupo_1572" transform="translate(0.341 0.293)">
				<g id="Grupo_1571">
					<circle id="Elipse_580" class="st9" cx="-194.7" cy="-569.5" r="5.7"/>
				</g>
			</g>
			<circle id="Elipse_581" class="st7" cx="-195" cy="-568.5" r="3.8"/>
			<g id="Grupo_1574" transform="translate(3.178)">
				<g id="Grupo_1573">
					<path id="Trazado_7504" class="st27" d="M-195.7-567.4h-4.3c-0.2,0-0.4-0.2-0.4-0.4v-7.3h5.2v7.3
						C-195.2-567.6-195.4-567.4-195.7-567.4z"/>
				</g>
			</g>
			<g id="Grupo_1576" transform="translate(3.178 0.913)">
				<g id="Grupo_1575">
					<rect id="Rectángulo_811" x="-200.4" y="-575.1" class="st27" width="9.6" height="2.5"/>
				</g>
			</g>
		</g>
		<g id="Grupo_1584" transform="translate(90.244 99.392)">
			<g id="Grupo_1579" transform="translate(0.341 0.293)">
				<g id="Grupo_1578">
					<circle id="Elipse_582" class="st9" cx="-194.7" cy="-569.5" r="5.7"/>
				</g>
			</g>
			<circle id="Elipse_583" class="st7" cx="-195" cy="-568.5" r="3.8"/>
			<g id="Grupo_1581" transform="translate(3.178)">
				<g id="Grupo_1580">
					<path id="Trazado_7505" class="st29" d="M-195.7-567.4h-4.3c-0.2,0-0.4-0.2-0.4-0.4v-7.3h5.2v7.3
						C-195.2-567.6-195.4-567.4-195.7-567.4L-195.7-567.4z"/>
				</g>
			</g>
			<g id="Grupo_1583" transform="translate(3.178 0.913)">
				<g id="Grupo_1582">
					<rect id="Rectángulo_812" x="-200.4" y="-575.1" class="st29" width="9.6" height="2.5"/>
				</g>
			</g>
		</g>
		<g id="Grupo_1591" transform="translate(106.366 99.392)">
			<g id="Grupo_1586" transform="translate(0.341 0.293)">
				<g id="Grupo_1585">
					<circle id="Elipse_584" class="st9" cx="-194.7" cy="-569.5" r="5.7"/>
				</g>
			</g>
			<circle id="Elipse_585" class="st7" cx="-195" cy="-568.5" r="3.8"/>
			<g id="Grupo_1588" transform="translate(3.178)">
				<g id="Grupo_1587">
					<path id="Trazado_7506" class="st27" d="M-195.7-567.4h-4.3c-0.2,0-0.4-0.2-0.4-0.4v-7.3h5.2v7.3
						C-195.2-567.6-195.4-567.4-195.7-567.4z"/>
				</g>
			</g>
			<g id="Grupo_1590" transform="translate(3.178 0.913)">
				<g id="Grupo_1589">
					<rect id="Rectángulo_813" x="-200.4" y="-575.1" class="st27" width="9.6" height="2.5"/>
				</g>
			</g>
		</g>
		<path id="Rectángulo_814" class="st13" d="M-193.2-532.6h146.3c1.2,0,2.2,1,2.2,2.2v1.5l0,0h-150.7l0,0v-1.5
			C-195.4-531.6-194.4-532.6-193.2-532.6L-193.2-532.6z"/>
		<g id="Grupo_1592" transform="translate(62.302 32.621)">
			<path id="Trazado_7507" class="st29" d="M-197.2-575.1c-1.7,0-3.1,1.4-3.1,3.1l0,0v6.8h1.8v-5.2c0-1.7,1.4-3.1,3.1-3.1l0,0h28.7
				c1.7,0,3.1,1.4,3.1,3.1l0,0v5.2h1.8v-6.8c0-1.7-1.4-3.1-3.1-3.1l0,0H-197.2z"/>
		</g>
		<g id="Grupo_1593" transform="translate(8.763 26.949)">
			<path id="Trazado_7508" class="st30" d="M-198.3-559.6c0,0-2.9-1.8-1.8-6.3s0.8-8.6,4.4-9.1s4.2,1.1,4,2.8s-1.9,5.3-2,6.7
				s-0.3,3.2,0.4,3.4s2.1,1.5,3.2,0.8s1.3,1.7,1.3,1.7L-198.3-559.6z"/>
		</g>
		<g id="Grupo_1594" transform="translate(18.403 31.973)">
			<path id="Trazado_7509" class="st31" d="M-200.4-566.1c0,0,3-2,2.8-3.5s0-5.4,1.8-5.5s3.7,4.2,3.8,5.6s-3.8,4-4.6,4.2
				s-2,0.5-2,0.5s1.5-1,1.1-1.7s-2.1,0.4-2.1,0.4H-200.4z"/>
		</g>
	</g>
	<g id="Grupo_1626" transform="translate(407.602 772.257)">
		<g id="Grupo_1597" transform="translate(6.287 9.622)">
			<g id="Grupo_1596">
				<path id="Trazado_7510" class="st32" d="M-200.4-573.2c0.6,2.1,1.4,4.1,2.3,6.1c0.2,0.4,0.4,0.8,0.8,1.1
					c1.1,0.6,2.3,1.1,3.6,1.4c1.6,0.4,3.1,0.4,3.7-0.9c0.2-0.4,0.3-0.9,0.3-1.4c0.3-2.9-1.3-7.6-5.4-8.1l0,0
					C-200-575.7-200.4-573.2-200.4-573.2z"/>
			</g>
		</g>
		<g id="Grupo_1599" transform="translate(4.283 0)">
			<g id="Grupo_1598">
				<path id="Trazado_7511" class="st7" d="M-200.4-566.2l1,3c0,0,0.4-0.1,1-0.3c1.2-0.4,3.4-1.2,5.3-1.9c1.6-0.5,3-1,3.7-1.3
					c0.7-0.4,1.5-0.5,2.3-0.3c0.3,0.1,0.5,0.3,0.6,0.5c0.6,2.1,1.1,4.3,1.5,6.5l0,0c0.5,2.3,0.9,4.6,1,6.2c0.1,0.6,0.1,1.2,0,1.8
					c-0.5,1.1-4.8,1.7-4.8,1.7s0.8,1.7,1.6,2s8.8-2.8,9.1-3.8c0.2-0.6,0-1.3-0.5-1.8c0,0,0.3-5.4-0.3-7.4
					c-0.5-2.1-2.6-14.1-11.3-13.8s-9.5,8.6-9.5,8.6L-200.4-566.2z"/>
			</g>
		</g>
		<g id="Grupo_1600" transform="translate(13.108 21.212)">
			<path id="Trazado_7512" class="st7" d="M-168.2-515.5c0,0.1-0.1,0.2-0.1,0.3v0.3c0.1,0.3,0.2,1,0.3,1.8c0.2,1.1,0.5,2.5,0.7,3.9
				c0.3,1.9,0.6,3.8,0.7,5.7v5.4c0,0-0.1,0.1-0.2,0.2l0,0c-0.6,0.6-2.5,2.3-4.3,2.3c-0.1,0-0.3,0-0.4,0c-1,0-1.9-0.3-2.8-0.7
				c-0.2-0.1-0.4-0.2-0.5-0.3c0,0-0.2-0.7-0.4-1.4c-0.2-0.7-0.3-1.5-0.4-2.2v-0.8l0,0l-1.2,2.2l-2.8,5.1l-0.5,1l-0.1,0.1l0,0l0,0
				c-0.5-0.1-7.6-2.3-7.6-3.4c0-0.1,0-0.2,0-0.3c0.1-1.1,0.4-2.2,1-3.2c0.6-1.7,1-3.5,1.3-5.3c0.3-1.1,3.8-13,3.8-13l-4.8-12.3v-0.1
				l0,0l-2.1-5.4c0,0-4,4.9-6.2,7.4c-0.4,0.5-0.9,0.9-1.4,1.3c-0.2,0.1-0.4,0.1-0.7,0c-0.8-0.3-1.4-0.8-2-1.4
				c-0.3-0.3-0.7-0.7-1.1-0.9c-0.2-0.1-0.3-0.2-0.3-0.4c0-0.4,0.3-1,0.3-1.5c0-0.8,8.2-14,7.9-14.3s-2.8-5.8-2.8-5.8
				s-0.8-4.6-1.2-7.5c-0.5-3.5-0.7-7.1-0.6-10.7c0-0.3,0-0.5,0.1-0.8c0-0.1,0-0.2,0-0.3c1.8,0.3,3.7,0.2,5.4-0.4
				c1.6-0.8,2.9-2,4-3.4c0.1-0.1,0.1-0.2,0.2-0.2c0-0.1,0.1-0.1,0.1-0.2c0.1-0.1,0.1-0.2,0.2-0.2c0,0.1-0.1,0.2-0.1,0.3
				c0,0.2,0.3,0.5,1.2,0.4c0.4-0.1,0.8-0.2,1.2-0.3c1.3-0.4,2.6-0.5,4-0.5c2.3,0.1,4.5,0.8,5.2,2.6c0.7,1.7,0.9,3.5,0.5,5.3
				c0,0,9.4,23.6,10.7,27.8s2,11,1.1,12.5C-163.8-525.6-167.5-517.1-168.2-515.5z"/>
		</g>
		<g id="Grupo_1601" transform="translate(15.99 21.209)">
			<path id="Trazado_7513" class="st33" d="M-180.6-526.9l-0.8,1.9c0,0-0.2-0.4-0.6-1.2c-1.2-2.4-4-8.1-6.8-13.8
				c-1.5-3.1-3.1-6.2-4.3-8.8c-1.6-3.3-2.8-5.8-3.1-6.6c-0.9-2.5-1.4-5.2-1.5-7.9c-0.1-2.1,0.6-5-0.9-5.7c-0.5-0.2-0.8-0.4-1.1-0.5
				c-0.2-0.1-0.4-0.2-0.5-0.3c-0.2-0.1-0.2-0.3-0.2-0.7c0-0.2,0.2-0.3,0.4-0.3l0,0c1.6,0.2,3.2,0,4.6-0.6c1.9-0.7,3.6-1.7,5.2-3
				c0.1,0,0.1-0.1,0.2-0.2c0.1-0.1,0.1-0.1,0.2-0.2l0,0c0.3-0.3,0.4-0.4,0.4-0.4l0.8,0.8l0,0c0,0-0.4,0.7-1.1,1.6
				c-0.7,0.9-1.4,1.8-2.2,2.6c-1.2,1-2.8,1.5-4.4,1.3c0,0-1.4,8.7,1.5,14.2c0.5,1,1.4,2.7,2.4,4.7c0,0,0.1,0.1,0.1,0.2l1.5,2.9
				c0.4,0.8,0.8,1.5,1.2,2.3l1.2,2.4c0.2,0.3,0.3,0.7,0.5,1l0,0c3.1,6.1,6.2,12.2,7.1,13.9c0,0.1,0.1,0.1,0.1,0.2
				C-180.7-527.1-180.6-527-180.6-526.9z"/>
		</g>
		<path id="Trazado_7514" class="st11" d="M-181.9-530.2c0,0-1,6-2.2,8.1c-1.7,2.3-3.5,4.4-5.5,6.4c-0.6,0.7-1.5,1.6-2.7,2.9
			c-1.1,1.2-0.2,0.2-0.8,0.9c-2.5-0.2-5-0.8-7.3-1.8c1.2-1.6,2.5-3.1,3.8-4.6c2.1-2.1,5.3-5.2,6.7-7.8s2.7-10.7,3-12.8
			c0.2-1.8,2-7.6,2.7-9.8c0.2,0.1,0.3,0.2,0.5,0.3c-0.1,3.6,0.1,7.2,0.6,10.7C-182.7-534.8-181.9-530.2-181.9-530.2z"/>
		<g id="Grupo_1602" transform="translate(16.191 25.716)">
			<path id="Trazado_7515" class="st34" d="M-199.8-575.1c0,0.1,0,0.2,0,0.3c0,0.2,0,0.5-0.1,0.8c-0.2-0.1-0.4-0.2-0.5-0.3
				c0.2-0.5,0.3-0.8,0.3-0.8h0.1C-199.9-575.1-199.8-575.1-199.8-575.1z"/>
		</g>
		<g id="Grupo_1604" transform="translate(26.958 65.92)">
			<g id="Grupo_1603" class="st35">
				<path id="Trazado_7516" class="st33" d="M-194.6-561.6l3.1-10.9c0,0-2.4,3.9-5.1,2c-1.6-1.2-2.9-2.8-3.8-4.7L-194.6-561.6z"/>
			</g>
		</g>
		<g id="Grupo_1606" transform="translate(36.408 78.737)">
			<g id="Grupo_1605" class="st35">
				<path id="Trazado_7517" class="st33" d="M-200.4-559.4v0.9c0.2,1.4,0.5,2.7,0.9,4c1.3,0.8,2.8,1.2,4.4,1.2
					c2.6,0,5.3-2.7,5.3-2.7v-2.6c-1.3,0.9-2.8,1.5-4.1,0.7c-2.5-1.4,0.6-10.1,2.5-15c-0.3-1.4-0.5-2.4-0.5-2.4L-200.4-559.4z"/>
			</g>
		</g>
		<g id="Grupo_1607" transform="translate(38.417 98.281)">
			<path id="Trazado_7518" class="st22" d="M-186.2-543.2c-0.8,1-13.5,2.9-14,1.8c-0.5-1.1,1.2-3.1,2.6-3.8c1.3-0.7,3.2-1.7,3.1-3.3
				c-0.1-1.5-5-19.3-5.7-23.5c-0.1-0.3-0.1-0.5-0.1-0.8c0.3-1.1,4.3-1.8,4.3-1.8s4.2-1.6,5.1,0.3c0.8,1.9,2.9,23.3,3.8,25.8
				C-186.1-545.8-185.4-544.3-186.2-543.2z"/>
		</g>
		<g id="Grupo_1608" transform="translate(8.839 99.597)">
			<path id="Trazado_7519" class="st22" d="M-175.5-570.5c-0.1,0.3-0.2,0.6-0.3,0.8l0,0c-1.6,4.3-9.5,21.1-9.6,23.3
				c-0.2,1.8-0.7,3.9-1.6,4.7c-0.3,0.3-0.7,0.4-1.1,0.3c-0.3-0.1-0.8-0.2-1.5-0.4l0,0c-3.4-1-10.4-3.3-10.7-4.5
				c-0.1-0.5,0.2-0.8,0.7-1c1.5-0.5,3.1-0.8,4.7-0.8c1.8,0,3.4-1.2,3.8-3c0.3-1.4,3.2-14.4,4.4-17.9c0.6-1.8,1.4-3.7,2.2-5.4
				c0.2-0.4,0.3-0.7,0.3-0.7s6.7,2,8.3,3.8C-175.6-571.2-175.5-570.8-175.5-570.5z"/>
		</g>
		<g id="Grupo_1610" transform="translate(6.093 66.546)">
			<g id="Grupo_1609">
				<path id="Trazado_7520" class="st22" d="M-193.3-575.1c0,0-4.6,2.5-6.1,4.1s-1,2.2,0,3.8s4.4,2.9,4.9,2s1.6-4.5,2.9-5.1
					c0.8-0.4,1.5-1.1,1.8-2L-193.3-575.1z"/>
			</g>
		</g>
		<g id="Grupo_1612" transform="translate(4.283 6.026)">
			<g id="Grupo_1611">
				<path id="Trazado_7521" class="st33" d="M-200.4-572.2l1,3c0,0,8-2.8,10-3.5c0.7-0.4,1.5-0.5,2.3-0.3c0.2,0,1.3-0.3,1.3-0.8
					s-0.3-0.9-1.8-1.3c-1.5-0.4-11.9,2.6-11.9,2.6L-200.4-572.2z"/>
			</g>
		</g>
		<g id="Grupo_1614" transform="translate(17.766 5.228)">
			<g id="Grupo_1613">
				<path id="Trazado_7522" class="st33" d="M-195.1-575.1c0,0-5.5,2.3-5.2,2.5c0.2,0.2,0.4,0.5,0.5,0.8c0,0,5.3-2.4,5.2-2.6
					S-195.1-575.1-195.1-575.1z"/>
			</g>
		</g>
		<g id="Grupo_1616" transform="translate(11.623 8.01)">
			<g id="Grupo_1615">
				<path id="Trazado_7523" class="st23" d="M-195-565.3c1.3-0.5,2.3-1.4,2.7-2.7l0,0c-0.4-2.2-0.9-4.4-1.5-6.5
					c-0.1-0.2-0.4-0.4-0.6-0.5c-0.8-0.2-1.6,0-2.3,0.3s-2.1,0.8-3.7,1.3C-196.3-572.9-194.6-568.2-195-565.3z"/>
			</g>
		</g>
		<g id="Grupo_1618" transform="translate(8.426 15.138)">
			<g id="Grupo_1617">
				<path id="Trazado_7524" class="st31" d="M-200.4-572.2c-0.1,1.1,2.8,6.2,4.5,6.5c1,0.1,2-0.1,2.9-0.4c1-0.3,1.9-0.7,2.7-1.2
					c0.8-0.4,1.6-0.9,2.3-1.6c-0.2-1.6-0.6-3.9-1-6.2c-0.5,1.3-1.4,2.3-2.7,2.7c-0.9,0.3-1.9,0.3-2.9,0.1c-1.3-0.3-2.3-0.5-3.1-0.6
					c-1.5-0.2-2.2-0.1-2.4,0.3C-200.3-572.5-200.4-572.3-200.4-572.2z"/>
			</g>
		</g>
		<g id="Grupo_1620" transform="translate(5.692 11.586)">
			<g id="Grupo_1619">
				<path id="Trazado_7525" class="st33" d="M-200.4-574.9c0,0,2.3,13.7,3.8,14.3c1.4,0.5,6.7-1.3,6.7-1.3l-0.4-0.6
					c-0.9,0.3-1.9,0.5-2.9,0.4c-1.7-0.3-4.6-5.4-4.5-6.5c0-0.2,0.1-0.3,0.2-0.4c-0.9-2-1.7-4-2.3-6.1L-200.4-574.9z"/>
			</g>
		</g>
		<g id="Grupo_1621" transform="translate(8.839 99.597)" class="st36">
			<path id="Trazado_7526" class="st37" d="M-200.4-546.3c0.2,1.2,7.3,3.5,10.7,4.5l0,0c0.7,0.2,1.2,0.4,1.5,0.4
				c0.4,0.1,0.8,0,1.1-0.3c1-0.8,1.5-2.9,1.6-4.7c0.2-2.2,8-19.1,9.6-23.3l0,0c0.1-0.3,0.2-0.5,0.3-0.8c0-0.3-0.1-0.6-0.3-0.8
				c-1.6-1.8-8.3-3.8-8.3-3.8s-0.1,0.2-0.3,0.7c2.2,1.4,4.3,3.3,4.3,5.1c0,3.8-5.8,24.8-10.1,25.4c-2.4,0.3-6.6-2.1-9.3-3.4
				C-200.2-547.1-200.4-546.8-200.4-546.3z"/>
		</g>
		<g id="Grupo_1622" transform="translate(38.417 98.281)" class="st36">
			<path id="Trazado_7527" class="st37" d="M-186.2-543.2c-0.8,1-13.5,2.9-14,1.8c5.1-1.7,9.8-2.1,10.2-7.2c0.3-5.2-3.8-20.4-7-22.3
				c-1-0.5-2.1-0.8-3.2-1.1c-0.1-0.3-0.1-0.5-0.1-0.8c0.3-1.1,4.3-1.8,4.3-1.8s4.2-1.6,5.1,0.3c0.8,1.9,2.9,23.3,3.8,25.8
				C-186.1-545.8-185.4-544.3-186.2-543.2z"/>
		</g>
		<g id="Grupo_1623" transform="translate(24.078 21.212)" class="st38">
			<path id="Trazado_7528" class="st33" d="M-174-526.9c-0.9,1.5-5.3,11.6-5.3,11.6s0.2,0.9,0.4,2.1c0.2,1.1,0.5,2.5,0.7,3.9
				c-3.2,4.9-5.8,8.5-7.9,11.1c-1.2,1.7-2.7,3.1-4.4,4.3c-0.8,0.5-1.4,0.5-1.8,0c-1.5-1.7,2.4-5.5,1.5-9.2s3.2-4.7,2.1-8.6
				c-1.1-3.9,7-5.7,5.9-10.6s7.2-4.9,7-10.3s-4-7.9-5.9-7.1s1.6-4.3,1.2-7.5c-0.4-3.2-5.5-9.9-8.2-4c-1.8,3.7-4.3,7-7.3,9.8
				l-4.4-8.5c0.6-3.8,1.4-7.6,2.4-11.3c1.4-5,0.2-11.7-0.1-13.5c0.1-0.2,0.2-0.3,0.3-0.4c-0.1,0.3-0.3,1.2,2.3,0.4
				c1.3-0.4,2.6-0.5,4-0.5c2.3,0.1,4.5,0.8,5.2,2.6c0.7,1.7,0.9,3.5,0.5,5.3c0,0,9.4,23.6,10.7,27.8
				C-173.8-535.2-173.1-528.4-174-526.9z"/>
		</g>
		<g id="Grupo_1625" transform="translate(13.117 21.226)">
			<g id="Grupo_1624">
				<path id="Trazado_7529" class="st7" d="M-200.1-529.4c0.7,0.3,2.8,2.8,3.8,2.3c1-0.6,7.6-8.7,7.6-8.7s8.6-12.5,10.4-18.9
					c1.8-6.4,3.5-12.6,3.5-12.6c0.4-1.8,0.2-3.6-0.5-5.3s-2.9-2.5-5.2-2.6c0,0-3.7,0.7-4.2,8.4s-2.5,12.6-3.8,15
					c-1.3,2.3-3.6,6.2-3.6,6.2c0.3,0.3-7.9,13.5-7.9,14.3S-200.8-529.7-200.1-529.4z"/>
			</g>
		</g>
	</g>
	<g id="Grupo_1662" transform="translate(240.675 771.92)">
		<g id="Grupo_1628" transform="translate(35.843 9.622)">
			<g id="Grupo_1627">
				<path id="Trazado_7530" class="st32" d="M-189.6-573.2c-0.6,2.1-1.4,4.1-2.3,6.1c-0.2,0.4-0.4,0.8-0.8,1.1
					c-1.1,0.6-2.3,1.1-3.6,1.4c-1.6,0.4-3.1,0.4-3.7-0.9c-0.2-0.4-0.3-0.9-0.3-1.4c-0.3-2.9,1.3-7.6,5.4-8.1l0,0
					C-190-575.7-189.6-573.2-189.6-573.2z"/>
			</g>
		</g>
		<g id="Grupo_1630" transform="translate(26.129 0)">
			<g id="Grupo_1629">
				<path id="Trazado_7531" class="st7" d="M-177.9-566.2l-1,3c0,0-0.4-0.1-1-0.3c-1.2-0.4-3.4-1.2-5.3-1.9c-1.6-0.5-3-1-3.7-1.3
					c-0.7-0.4-1.5-0.5-2.3-0.3c-0.3,0.1-0.5,0.3-0.6,0.5c-0.6,2.1-1.1,4.3-1.5,6.5l0,0c-0.5,2.3-0.9,4.6-1,6.2
					c-0.1,0.6-0.1,1.2,0,1.8c0.5,1.1,4.8,1.7,4.8,1.7s-0.8,1.7-1.6,2s-8.8-2.8-9.1-3.8c-0.2-0.6,0-1.3,0.5-1.8c0,0-0.3-5.4,0.3-7.4
					c0.5-2.1,2.6-14.1,11.3-13.8s9.5,8.6,9.5,8.6L-177.9-566.2z"/>
			</g>
		</g>
		<g id="Grupo_1632" transform="translate(2.031 21.212)">
			<g id="Grupo_1631">
				<path id="Trazado_7532" class="st7" d="M-200-526.9c0.9,1.5,5.3,11.6,5.3,11.6s-0.2,0.9-0.4,2.1c-0.2,1.1-0.5,2.5-0.7,3.9
					c-0.3,1.9-0.6,3.8-0.7,5.7v5.4c0,0,2.3,2.4,4.5,2.4c1.3,0,2.6-0.4,3.7-1.1c0,0,0.2-0.7,0.4-1.4c0.2-0.7,0.3-1.5,0.4-2.2v-0.8
					l0,0l4,7.3l0.6,1.1c0,0,7.6-2.3,7.6-3.4c-0.1-1.2-0.4-2.4-1-3.5c-0.6-1.7-1-3.5-1.3-5.3c-0.3-1.1-3.8-13-3.8-13l6.9-17.8
					c0,0,6.7,8.1,7.6,8.7c1,0.6,3.1-2,3.8-2.3s0-1.2,0-2s-8.2-14-7.9-14.3s2.8-5.8,2.8-5.8s0.8-4.6,1.2-7.5c0.3-2.3,1-8,0.5-11.8
					c-1.8,0.3-3.7,0.2-5.4-0.4c-1.6-0.9-3.1-2.1-4.1-3.6c-0.1-0.2-0.2-0.3-0.3-0.4c0.1,0.3,0.3,1.2-2.3,0.4c-1.3-0.4-2.6-0.5-4-0.5
					c-2.3,0.1-4.5,0.8-5.2,2.6c-0.7,1.7-0.9,3.5-0.5,5.3c0,0-9.4,23.6-10.7,27.8C-200.2-535.2-200.9-528.4-200-526.9z"/>
			</g>
		</g>
		<g id="Grupo_1634" transform="translate(17.13 21.213)">
			<g id="Grupo_1633">
				<path id="Trazado_7533" class="st33" d="M-191.6-575.1l-0.8,0.8c1,1.5,2.1,2.9,3.3,4.2c1.2,1,2.8,1.5,4.4,1.3
					c0,0,1.4,8.7-1.5,14.2s-14.2,27.8-14.2,27.8l0.8,1.9c0,0,13.7-27.5,14.9-30.4c0.9-2.5,1.4-5.2,1.5-7.9c0.1-2.1-0.6-5,0.9-5.7
					s1.9-0.6,1.8-1.5s-1.3,0.5-5-0.9C-187.8-572.3-189.9-573.5-191.6-575.1z"/>
			</g>
		</g>
		<g id="Grupo_1636" transform="translate(17.13 65.92)">
			<g id="Grupo_1635" class="st35">
				<path id="Trazado_7534" class="st33" d="M-197.3-561.6l-3.1-10.9c0,0,2.4,3.9,5.1,2c1.6-1.2,2.9-2.8,3.8-4.7L-197.3-561.6z"/>
			</g>
		</g>
		<g id="Grupo_1638" transform="translate(5.943 78.737)">
			<g id="Grupo_1637" class="st35">
				<path id="Trazado_7535" class="st33" d="M-189.8-559.4v0.9c-0.2,1.4-0.5,2.7-0.9,4c-1.3,0.8-2.8,1.2-4.4,1.2
					c-2.6,0-5.3-2.7-5.3-2.7v-2.6c1.3,0.9,2.8,1.5,4.1,0.7c2.5-1.4-0.6-10.1-2.5-15c0.3-1.4,0.5-2.4,0.5-2.4L-189.8-559.4z"/>
			</g>
		</g>
		<g id="Grupo_1640" transform="translate(0 98.281)">
			<g id="Grupo_1639">
				<path id="Trazado_7536" class="st22" d="M-200-543.2c0.8,1,13.5,2.9,14,1.8c0.5-1.1-1.2-3.1-2.6-3.8c-1.3-0.7-3.2-1.7-3.1-3.3
					c0.1-1.5,5-19.3,5.7-23.5c0.1-0.3,0.1-0.5,0.1-0.8c-0.3-1.1-4.3-1.8-4.3-1.8s-4.2-1.6-5.1,0.3c-0.8,1.9-2.9,23.3-3.9,25.8
					C-200.1-545.8-200.8-544.3-200-543.2z"/>
			</g>
		</g>
		<g id="Grupo_1642" transform="translate(19.201 99.597)">
			<g id="Grupo_1641">
				<path id="Trazado_7537" class="st22" d="M-200.4-570.5c0.1,0.3,0.2,0.6,0.3,0.8l0,0c1.6,4.3,9.5,21.1,9.6,23.3
					c0.2,1.8,0.7,3.9,1.6,4.7c0.3,0.3,0.7,0.4,1.1,0.3c0.3-0.1,0.8-0.2,1.5-0.4l0,0c3.4-1,10.4-3.3,10.7-4.5c0.1-0.5-0.2-0.8-0.7-1
					c-1.5-0.5-3.1-0.8-4.7-0.8c-1.8,0-3.4-1.2-3.9-3c-0.3-1.4-3.2-14.4-4.4-17.9c-0.6-1.8-1.4-3.7-2.2-5.4c-0.2-0.4-0.3-0.7-0.3-0.7
					s-6.7,2-8.3,3.8C-200.3-571.2-200.4-570.8-200.4-570.5z"/>
			</g>
		</g>
		<g id="Grupo_1644" transform="translate(36.303 66.546)">
			<g id="Grupo_1643">
				<path id="Trazado_7538" class="st22" d="M-196.9-575.1c0,0,4.6,2.5,6.1,4.1s1,2.2,0,3.8s-4.4,2.9-4.9,2s-1.6-4.5-2.9-5.1
					c-0.8-0.4-1.5-1.1-1.8-2L-196.9-575.1z"/>
			</g>
		</g>
		<g id="Grupo_1646" transform="translate(34.018 6.026)">
			<g id="Grupo_1645">
				<path id="Trazado_7539" class="st33" d="M-185.8-572.2l-1,3c0,0-8-2.8-10-3.5c-0.7-0.4-1.5-0.5-2.3-0.3c-0.2,0-1.3-0.3-1.3-0.8
					s0.3-0.9,1.8-1.3c1.5-0.4,11.9,2.6,11.9,2.6L-185.8-572.2z"/>
			</g>
		</g>
		<g id="Grupo_1648" transform="translate(29.463 5.228)">
			<g id="Grupo_1647">
				<path id="Trazado_7540" class="st33" d="M-199.9-575.1c0,0,5.5,2.3,5.2,2.5c-0.2,0.2-0.4,0.5-0.5,0.8c0,0-5.3-2.4-5.2-2.6
					S-199.9-575.1-199.9-575.1z"/>
			</g>
		</g>
		<g id="Grupo_1650" transform="translate(33.173 8.01)">
			<g id="Grupo_1649">
				<path id="Trazado_7541" class="st23" d="M-197.7-565.3c-1.3-0.5-2.3-1.4-2.7-2.7l0,0c0.4-2.2,0.9-4.4,1.5-6.5
					c0.1-0.2,0.4-0.4,0.6-0.5c0.8-0.2,1.6,0,2.3,0.3s2.1,0.8,3.7,1.3C-196.4-572.9-198-568.2-197.7-565.3z"/>
			</g>
		</g>
		<g id="Grupo_1652" transform="translate(32.125 15.138)">
			<g id="Grupo_1651">
				<path id="Trazado_7542" class="st31" d="M-188-572.2c0.1,1.1-2.8,6.2-4.5,6.5c-1,0.1-2-0.1-2.9-0.4c-1-0.3-1.9-0.7-2.7-1.2
					c-0.8-0.4-1.6-0.9-2.3-1.6c0.2-1.6,0.6-3.9,1-6.2c0.5,1.3,1.4,2.3,2.7,2.7c0.9,0.3,1.9,0.3,2.9,0.1c1.3-0.3,2.3-0.5,3.1-0.6
					c1.5-0.2,2.2-0.1,2.4,0.3C-188.1-572.5-188-572.3-188-572.2z"/>
			</g>
		</g>
		<g id="Grupo_1654" transform="translate(36.71 11.586)">
			<g id="Grupo_1653">
				<path id="Trazado_7543" class="st33" d="M-189.9-574.9c0,0-2.3,13.7-3.8,14.3c-1.4,0.5-6.7-1.3-6.7-1.3l0.4-0.6
					c0.9,0.3,1.9,0.5,2.9,0.4c1.7-0.3,4.6-5.4,4.5-6.5c0-0.2-0.1-0.3-0.2-0.4c0.9-2,1.7-4,2.3-6.1L-189.9-574.9z"/>
			</g>
		</g>
		<g id="Grupo_1655" transform="translate(19.201 99.597)" class="st36">
			<path id="Trazado_7544" class="st37" d="M-200.4-570.5c0.1,0.3,0.2,0.6,0.3,0.8l0,0c1.6,4.3,9.5,21.1,9.6,23.3
				c0.2,1.8,0.7,3.9,1.6,4.7c0.3,0.3,0.7,0.4,1.1,0.3c0.3-0.1,0.8-0.2,1.5-0.4l0,0c3.4-1,10.4-3.3,10.7-4.5c0.1-0.5-0.2-0.8-0.7-1
				c-2.7,1.3-7,3.7-9.3,3.4c-4.3-0.6-10.1-21.6-10.1-25.4c0-1.8,2.1-3.7,4.3-5.1c-0.2-0.4-0.3-0.7-0.3-0.7s-6.7,2-8.3,3.8
				C-200.3-571.2-200.4-570.8-200.4-570.5z"/>
		</g>
		<g id="Grupo_1657" transform="translate(0 98.281)">
			<g id="Grupo_1656" class="st36">
				<path id="Trazado_7545" class="st37" d="M-200-543.2c0.8,1,13.5,2.9,14,1.8c-5.1-1.7-9.8-2.1-10.2-7.2c-0.3-5.2,3.8-20.4,7-22.3
					c1-0.5,2.1-0.8,3.2-1.1c0.1-0.3,0.1-0.5,0.1-0.8c-0.3-1.1-4.3-1.8-4.3-1.8s-4.2-1.6-5.1,0.3c-0.8,1.9-2.9,23.3-3.9,25.8
					C-200.1-545.8-200.8-544.3-200-543.2z"/>
			</g>
		</g>
		<g id="Grupo_1659" transform="translate(2.031 21.212)">
			<g id="Grupo_1658" class="st38">
				<path id="Trazado_7546" class="st33" d="M-200-526.9c0.9,1.5,5.3,11.6,5.3,11.6s-0.2,0.9-0.4,2.1c-0.2,1.1-0.5,2.5-0.7,3.9
					c3.2,4.9,5.8,8.5,7.9,11.1c1.2,1.7,2.7,3.1,4.4,4.3c0.8,0.5,1.4,0.5,1.8,0c1.5-1.7-2.4-5.5-1.5-9.2s-3.2-4.7-2.1-8.6
					c1.1-3.9-7-5.7-5.9-10.6s-7.2-4.9-7-10.3s4-7.9,5.9-7.1s-1.6-4.3-1.2-7.5c0.4-3.2,5.5-9.9,8.2-4c1.8,3.7,4.3,7,7.3,9.8l4.4-8.5
					c-0.6-3.8-1.4-7.6-2.4-11.3c-1.4-5-0.2-11.7,0.1-13.5c-0.1-0.2-0.2-0.3-0.3-0.4c0.1,0.3,0.3,1.2-2.3,0.4c-1.3-0.4-2.6-0.5-4-0.5
					c-2.3,0.1-4.5,0.8-5.2,2.6c-0.7,1.7-0.9,3.5-0.5,5.3c0,0-9.4,23.6-10.7,27.8C-200.2-535.2-200.9-528.4-200-526.9z"/>
			</g>
		</g>
		<g id="Grupo_1661" transform="translate(14.016 21.226)">
			<g id="Grupo_1660">
				<path id="Trazado_7547" class="st7" d="M-174.9-529.4c-0.7,0.3-2.8,2.8-3.8,2.3c-1-0.6-7.6-8.7-7.6-8.7s-8.6-12.5-10.4-18.9
					c-1.8-6.4-3.5-12.6-3.5-12.6c-0.4-1.8-0.2-3.6,0.5-5.3s2.9-2.5,5.2-2.6c0,0,3.7,0.7,4.2,8.4s2.5,12.6,3.8,15
					c1.3,2.3,3.6,6.2,3.6,6.2c-0.3,0.3,7.9,13.5,7.9,14.3S-174.2-529.7-174.9-529.4z"/>
			</g>
		</g>
	</g>
	<circle id="Elipse_586" class="st7" cx="125.9" cy="135" r="2.9"/>
	<circle id="Elipse_587" class="st0" cx="61.2" cy="179.1" r="2.9"/>
	<circle id="Elipse_588" class="st7" cx="99.3" cy="171.1" r="3.5"/>
	<circle id="Elipse_589" class="st7" cx="277.7" cy="125.8" r="5.7"/>
	<circle id="Elipse_590" class="st0" cx="66.3" cy="146" r="5.7"/>
	<circle id="Elipse_591" class="st7" cx="469.1" cy="114.1" r="3.9"/>
	<circle id="Elipse_592" class="st0" cx="566.3" cy="94.1" r="3.9"/>
	<circle id="Elipse_593" class="st7" cx="476.7" cy="52.1" r="2.5"/>
	<circle id="Elipse_594" class="st0" cx="536.9" cy="72.5" r="2.5"/>
	<circle id="Elipse_595" class="st7" cx="151.4" cy="92.1" r="4.9"/>
	<circle id="Elipse_596" class="st7" cx="140.5" cy="218.3" r="2.5"/>
	<circle id="Elipse_597" class="st7" cx="239.2" cy="157.4" r="2.8"/>
	<path id="Trazado_7548" class="st7" d="M226.1,108.7c0,1.1-0.9,2-2,2s-2-0.9-2-2s0.9-2,2-2S226.1,107.6,226.1,108.7L226.1,108.7z"
		/>
	<path id="Trazado_7549" class="st0" d="M347.1,28.5c0,1.1-0.9,2-2,2s-2-0.9-2-2s0.9-2,2-2S347.1,27.4,347.1,28.5L347.1,28.5z"/>
	<circle id="Elipse_598" class="st7" cx="321" cy="83.5" r="2.8"/>
	<circle id="Elipse_599" class="st0" cx="281.2" cy="60.9" r="2.8"/>
	<circle id="Elipse_600" class="st7" cx="404.7" cy="77.9" r="2.8"/>
</g>
</svg>
