<svg xmlns="http://www.w3.org/2000/svg" width="139.683" height="139.683" viewBox="0 0 139.683 139.683">
  <g id="Grupo_1457" data-name="Grupo 1457" transform="translate(-203.926 -2790)">
    <g id="Grupo_1393" data-name="Grupo 1393" transform="translate(203.926 2790)">
      <circle id="Elipse_520" data-name="Elipse 520" cx="69.841" cy="69.841" r="69.841" fill="#57b8e8"/>
      <circle id="Elipse_521" data-name="Elipse 521" cx="62.739" cy="62.739" r="62.739" transform="translate(7.103 7.103)" fill="#fff"/>
    </g>
    <g id="Grupo_1418" data-name="Grupo 1418" transform="translate(-429.407 2811.524)">
      <path id="Trazado_8075" data-name="Trazado 8075" d="M883.675,232.382H896.62a2.25,2.25,0,0,1,2.247,2.247v19.015h12.876a42.127,42.127,0,0,0-.877-6.822,23.148,23.148,0,0,1-.528-4.837c0-.217,0-.446-.007-.685-.109-5.261-1.644-15.738-12.049-16.588a6.326,6.326,0,0,1-2.779-1.163,37.529,37.529,0,0,0-5.2-2.45,1.874,1.874,0,0,1,.364,1.477c-.821,4.628-4.461,7.983-6.993,9.807Z" transform="translate(-173.168 -175.448)" fill="#73c3f9"/>
      <path id="Trazado_8076" data-name="Trazado 8076" d="M687.2,234.63a2.25,2.25,0,0,1,2.247-2.247h12.944c-2.533-1.824-6.173-5.179-6.993-9.807a1.874,1.874,0,0,1,.364-1.477,37.5,37.5,0,0,0-5.2,2.45,6.327,6.327,0,0,1-2.779,1.163c-10.844.886-12.053,12.229-12.056,17.226a23.25,23.25,0,0,1-.519,4.847,42.124,42.124,0,0,0-.886,6.861H687.2V234.63Z" transform="translate(-7.041 -175.448)" fill="#73c3f9"/>
      <path id="Trazado_8077" data-name="Trazado 8077" d="M687.265,234.631a2.25,2.25,0,0,1,2.247-2.247h7.062c0-.125.007-.232.007-.315a2.934,2.934,0,0,1,2.068-2.69l.051-.391a13.5,13.5,0,0,1-3.237-6.411,1.873,1.873,0,0,1,.364-1.477,37.514,37.514,0,0,0-5.2,2.45,6.326,6.326,0,0,1-2.779,1.163c-10.844.886-12.053,12.229-12.056,17.226a23.25,23.25,0,0,1-.519,4.847,42.063,42.063,0,0,0-.868,6.551l.983.31h8.543l3.333-1.078V234.631Z" transform="translate(-7.108 -175.449)" fill="#4fabf7"/>
      <path id="Trazado_8078" data-name="Trazado 8078" d="M809.066,198.569a.287.287,0,0,1,.132.238.3.3,0,0,0,.12.231,7.975,7.975,0,0,1,1.4,1.36.3.3,0,0,0,.455,0,8.019,8.019,0,0,1,1.4-1.36.3.3,0,0,0,.12-.232.287.287,0,0,1,.132-.238c.4-.416,8.584-4.369,7.37-9.592a12.335,12.335,0,0,1-1.3-5.581,16.976,16.976,0,0,1-2.45,2.342,8.978,8.978,0,0,1-10.993,0A17,17,0,0,1,803,183.4a12.332,12.332,0,0,1-1.3,5.583c-1.226,5.242,6.933,9.133,7.371,9.59Z" transform="translate(-108.016 -145.53)" fill="#fcad6d"/>
      <path id="Trazado_8079" data-name="Trazado 8079" d="M805.446,185.739A16.989,16.989,0,0,1,803,183.4a12.33,12.33,0,0,1-1.3,5.583c-.938,4.013,3.622,7.234,6.009,8.729.077-.069.153-.139.227-.214,2.8-2.8,3.155-7.394,3.115-9.879l-.1,0a8.963,8.963,0,0,1-5.5-1.879Z" transform="translate(-108.015 -145.531)" fill="#fd995b"/>
      <path id="Trazado_8080" data-name="Trazado 8080" d="M850.5,261.2c.038-.078.076-.157.114-.232l-2.132-3.089a.579.579,0,0,1-.086-.464h-.231a7.7,7.7,0,0,0-1.74,1.671,11.261,11.261,0,0,1,1.315,2.114Z" transform="translate(-143.61 -204.266)" fill="#1e9ef4"/>
      <path id="Trazado_8081" data-name="Trazado 8081" d="M832.726,261.2a9.377,9.377,0,0,0-3.057-3.786h-.231a.579.579,0,0,1-.086.464l-2.132,3.089c.038.076.076.154.114.232h5.392Z" transform="translate(-128.37 -204.266)" fill="#4fabf7"/>
      <path id="Trazado_8082" data-name="Trazado 8082" d="M781.643,217.624h4.231l2.293-3.322a.582.582,0,0,0-.165-.821l-2.3-1.473c-5.328-3.607-5.423-6.65-4.752-8.42a.793.793,0,0,0-1.045-1.023,11.948,11.948,0,0,0-4.615,3.585,2.168,2.168,0,0,0-.428,1.718C775.66,212.4,779.083,215.717,781.643,217.624Z" transform="translate(-86.792 -160.69)" fill="#9bd8f9"/>
      <path id="Trazado_8083" data-name="Trazado 8083" d="M856.384,217.624h4.232c2.56-1.907,5.983-5.227,6.785-9.756a2.166,2.166,0,0,0-.428-1.718,11.953,11.953,0,0,0-4.615-3.585.793.793,0,0,0-1.045,1.023c.671,1.769.576,4.813-4.752,8.42l-2.3,1.473a.582.582,0,0,0-.166.821Z" transform="translate(-149.611 -160.689)" fill="#9bd8f9"/>
      <path id="Trazado_8084" data-name="Trazado 8084" d="M680.262,361.17h-9.215a5.6,5.6,0,1,0,0,11.2h9.215Z" transform="translate(0 -286.599)" fill="#fd995b"/>
      <path id="Trazado_8085" data-name="Trazado 8085" d="M956.747,361.17h9.215a5.6,5.6,0,1,1,0,11.2h-9.215Z" transform="translate(-231.153 -286.599)" fill="#fcad6d"/>
      <path id="Trazado_8086" data-name="Trazado 8086" d="M788.871.165c-7.981,1.087-8.739,5.612-8.743,7.272a.914.914,0,0,1-.507.823c-4.151,2.02-1.913,11.752-1.913,11.752a3.375,3.375,0,0,1,1.179.354,7.124,7.124,0,0,1,.394-1.456,6.109,6.109,0,0,1,.534-1.066,3.273,3.273,0,0,0,.5-2c-.149-2.03-.077-6.031,2.6-7.237,2.271-1.022,5.056-.43,6.832.161a5.639,5.639,0,0,0,3.556,0c1.776-.591,4.561-1.182,6.832-.161,2.673,1.2,2.752,5.184,2.6,7.22a3.308,3.308,0,0,0,.5,2.018,6.15,6.15,0,0,1,.547,1.1,7.125,7.125,0,0,1,.38,1.422,2.834,2.834,0,0,1,1.5-.344c.061-2.128.258-4.422.258-4.422C808.291,4.017,797.464-1.005,788.871.165Z" transform="translate(-88.603 0)" fill="#2a428c"/>
      <path id="Trazado_8087" data-name="Trazado 8087" d="M794.163.21a18.9,18.9,0,0,0-5.291-.043c-7.981,1.087-8.739,5.612-8.743,7.272a.914.914,0,0,1-.507.823c-4.151,2.02-1.913,11.752-1.913,11.752a3.379,3.379,0,0,1,1.179.354,7.132,7.132,0,0,1,.394-1.456,6.1,6.1,0,0,1,.534-1.066,3.273,3.273,0,0,0,.5-2c-.149-2.03-.077-6.031,2.6-7.237,2.271-1.022,5.056-.43,6.832.161a5.619,5.619,0,0,0,.774.194c-.016-.027-.031-.055-.047-.082C787,3.312,794.16.211,794.163.21Z" transform="translate(-88.604 -0.002)" fill="#1c2e7a"/>
      <path id="Trazado_8088" data-name="Trazado 8088" d="M908.11,97.075a2.25,2.25,0,0,0-2.4.068,7.526,7.526,0,0,1,.023,2.215l-.632,4.6c0,.371-.012.735-.033,1.092,1.541.465,2.306-.918,2.434-1.867a7.076,7.076,0,0,1,.272-1.2c.41-1.28,1.888-3.478.331-4.9Z" transform="translate(-190.148 -76.776)" fill="#fcad6d"/>
      <path id="Trazado_8089" data-name="Trazado 8089" d="M771.451,97.075a2.25,2.25,0,0,1,2.4.068,7.522,7.522,0,0,0-.022,2.215l.632,4.6c0,.371.012.735.033,1.092-1.541.465-2.306-.918-2.435-1.867a7.059,7.059,0,0,0-.272-1.2c-.41-1.28-1.888-3.478-.331-4.9Z" transform="translate(-83.562 -76.776)" fill="#fd995b"/>
      <path id="Trazado_8090" data-name="Trazado 8090" d="M810.07,49.587c-.449-1.173-1.146-1.658-1.042-3.089.372-5.139-1.5-6.773-2.646-7.289-2.25-1.013-4.985-.473-6.883.158a5.6,5.6,0,0,1-3.513,0c-1.9-.631-4.632-1.17-6.883-.158-1.15.517-3.023,2.155-2.644,7.307.1,1.4-.583,1.887-1.03,3.036a7.445,7.445,0,0,0-.42,3.706l.631,4.593a17.016,17.016,0,0,0,6.563,13.5,9.053,9.053,0,0,0,11.079,0,17.007,17.007,0,0,0,6.563-13.492l.632-4.6a7.453,7.453,0,0,0-.407-3.672Z" transform="translate(-94.818 -30.667)" fill="#f9ba8f"/>
      <g id="Grupo_1415" data-name="Grupo 1415" transform="translate(690.12 7.979)">
        <path id="Trazado_8091" data-name="Trazado 8091" d="M800.377,71.353a17.015,17.015,0,0,1-6.563-13.5l-.631-4.593a7.448,7.448,0,0,1,.42-3.706c.447-1.149,1.133-1.634,1.03-3.036-.319-4.341.961-6.187,2.059-6.97a5.494,5.494,0,0,1-.7-.179c-1.9-.631-4.632-1.17-6.883-.158-1.15.517-3.023,2.155-2.644,7.307.1,1.4-.583,1.887-1.03,3.036a7.444,7.444,0,0,0-.42,3.706l.631,4.593a17.015,17.015,0,0,0,6.563,13.5,9.056,9.056,0,0,0,9.626.913A8.945,8.945,0,0,1,800.377,71.353Z" transform="translate(-784.939 -38.647)" fill="#fcad6d"/>
      </g>
      <path id="Trazado_8092" data-name="Trazado 8092" d="M769.415,427.117a2.249,2.249,0,0,1-2.245,2.19H726.123a2.249,2.249,0,0,1-2.245-2.19,3.4,3.4,0,0,0,.064,6.8h45.408a3.4,3.4,0,0,0,.064-6.8Z" transform="translate(-43.719 -338.93)" fill="#d3dcfb"/>
      <g id="Grupo_1416" data-name="Grupo 1416" transform="translate(676.824 88.187)">
        <path id="Trazado_8093" data-name="Trazado 8093" d="M734.532,430.513a3.379,3.379,0,0,1,.224-1.206h-8.633a2.249,2.249,0,0,1-2.245-2.19,3.4,3.4,0,0,0,.064,6.8h13.988A3.4,3.4,0,0,1,734.532,430.513Z" transform="translate(-720.543 -427.117)" fill="#bec8f7"/>
      </g>
      <path id="Trazado_8094" data-name="Trazado 8094" d="M778.767,308.3H737.72a2.57,2.57,0,0,1-2.563-2.563V276.785a2.57,2.57,0,0,1,2.563-2.563h41.047a2.57,2.57,0,0,1,2.563,2.563v28.948a2.57,2.57,0,0,1-2.563,2.563Z" transform="translate(-55.315 -217.603)" fill="#e9efff"/>
      <g id="Grupo_1417" data-name="Grupo 1417" transform="translate(679.841 56.619)">
        <path id="Trazado_8095" data-name="Trazado 8095" d="M744.292,305.733V276.785a2.57,2.57,0,0,1,2.563-2.563h-9.137a2.571,2.571,0,0,0-2.563,2.563v28.948a2.571,2.571,0,0,0,2.563,2.563h9.137A2.57,2.57,0,0,1,744.292,305.733Z" transform="translate(-735.155 -274.222)" fill="#d3dcfb"/>
        <circle id="Elipse_582" data-name="Elipse 582" cx="4.152" cy="4.152" r="4.152" transform="translate(18.935 12.933)" fill="#d3dcfb"/>
      </g>
    </g>
  </g>
</svg>
