<svg xmlns="http://www.w3.org/2000/svg" width="139.683" height="139.683" viewBox="0 0 139.683 139.683">
  <g id="Grupo_1458" data-name="Grupo 1458" transform="translate(-203.926 -3051)">
    <g id="Grupo_1423" data-name="Grupo 1423">
      <g id="Grupo_1393" data-name="Grupo 1393" transform="translate(203.926 3051)">
        <circle id="Elipse_520" data-name="Elipse 520" cx="69.841" cy="69.841" r="69.841" fill="#57b8e8"/>
        <circle id="Elipse_521" data-name="Elipse 521" cx="62.739" cy="62.739" r="62.739" transform="translate(7.103 7.103)" fill="#fff"/>
      </g>
      <g id="Grupo_1414" data-name="Grupo 1414" transform="translate(125.573 3010.962)">
        <g id="Grupo_1398" data-name="Grupo 1398" transform="translate(106.103 68.228)">
          <path id="Trazado_8059" data-name="Trazado 8059" d="M145.55,152.493h-32.78a6.668,6.668,0,0,1-6.668-6.668V83.981a6.668,6.668,0,0,1,6.668-6.668h32.78a6.668,6.668,0,0,1,6.668,6.668v61.845a6.668,6.668,0,0,1-6.668,6.668Z" transform="translate(-106.103 -77.313)" fill="#555a66"/>
        </g>
        <g id="Grupo_1399" data-name="Grupo 1399" transform="translate(128.968 68.229)">
          <path id="Trazado_8060" data-name="Trazado 8060" d="M210.654,77.314H194.072v75.18h16.582a6.668,6.668,0,0,0,6.668-6.668V83.982a6.668,6.668,0,0,0-6.668-6.668Z" transform="translate(-194.072 -77.314)" fill="#333940"/>
        </g>
        <g id="Grupo_1400" data-name="Grupo 1400" transform="translate(110.068 73.214)">
          <path id="Trazado_8061" data-name="Trazado 8061" d="M121.358,96.5h38.185v61.524H121.358Z" transform="translate(-121.358 -96.495)" fill="#4cbde5"/>
        </g>
        <g id="Grupo_1401" data-name="Grupo 1401" transform="translate(128.968 73.214)">
          <path id="Trazado_8062" data-name="Trazado 8062" d="M194.072,96.494h19.285v61.524H194.072Z" transform="translate(-194.072 -96.494)" fill="#00a6ef"/>
        </g>
        <g id="Grupo_1402" data-name="Grupo 1402" transform="translate(172.527 97.316)">
          <path id="Trazado_8063" data-name="Trazado 8063" d="M361.662,189.225h7.831v11.858h-7.831Z" transform="translate(-361.662 -189.225)" fill="#e9edf5"/>
        </g>
        <g id="Grupo_1403" data-name="Grupo 1403" transform="translate(176.724 97.316)">
          <path id="Trazado_8064" data-name="Trazado 8064" d="M377.807,189.225h3.634v11.858h-3.634Z" transform="translate(-377.807 -189.225)" fill="#afb9c9"/>
        </g>
        <g id="Grupo_1404" data-name="Grupo 1404" transform="translate(162.019 105.078)">
          <path id="Trazado_8065" data-name="Trazado 8065" d="M345.717,265.443H325.6a4.364,4.364,0,0,1-4.364-4.364V223.451a4.364,4.364,0,0,1,4.364-4.364h20.119a4.364,4.364,0,0,1,4.364,4.364v37.628A4.364,4.364,0,0,1,345.717,265.443Z" transform="translate(-321.234 -219.087)" fill="#e9edf5"/>
        </g>
        <g id="Grupo_1405" data-name="Grupo 1405" transform="translate(176.724 105.078)">
          <path id="Trazado_8066" data-name="Trazado 8066" d="M387.585,219.088h-9.778v46.355h9.778a4.364,4.364,0,0,0,4.364-4.364V223.452a4.364,4.364,0,0,0-4.364-4.364Z" transform="translate(-377.807 -219.088)" fill="#afb9c9"/>
        </g>
        <g id="Grupo_1406" data-name="Grupo 1406" transform="translate(162.019 118.23)">
          <path id="Trazado_8067" data-name="Trazado 8067" d="M321.234,269.688v28.839a4.364,4.364,0,0,0,4.364,4.364h20.119a4.364,4.364,0,0,0,4.364-4.364V269.688Z" transform="translate(-321.234 -269.688)" fill="#64e1dc"/>
        </g>
        <g id="Grupo_1407" data-name="Grupo 1407" transform="translate(176.724 118.23)">
          <path id="Trazado_8068" data-name="Trazado 8068" d="M377.807,269.688v33.2h9.778a4.364,4.364,0,0,0,4.364-4.364V269.688Z" transform="translate(-377.807 -269.688)" fill="#00c8c8"/>
        </g>
        <g id="Grupo_1408" data-name="Grupo 1408" transform="translate(170.284 89.195)">
          <path id="Trazado_8069" data-name="Trazado 8069" d="M353.032,157.98h12.793v12.793H353.032Z" transform="translate(-353.032 -157.98)" fill="#e9edf5"/>
        </g>
        <g id="Grupo_1409" data-name="Grupo 1409" transform="translate(176.724 89.195)">
          <path id="Trazado_8070" data-name="Trazado 8070" d="M377.807,157.98h6.353v12.793h-6.353Z" transform="translate(-377.807 -157.98)" fill="#afb9c9"/>
        </g>
        <g id="Grupo_1410" data-name="Grupo 1410" transform="translate(170.285 91.711)">
          <path id="Trazado_8071" data-name="Trazado 8071" d="M353.225,167.658q-.1,0-.192,0v7.753q.1,0,.192,0a3.881,3.881,0,0,0,0-7.762Z" transform="translate(-353.033 -167.658)" fill="#afb9c9"/>
        </g>
        <g id="Grupo_1411" data-name="Grupo 1411" transform="translate(117.382 90.554)">
          <path id="Trazado_8072" data-name="Trazado 8072" d="M190.825,171h-7.018v-7.8h7.018Zm-11.436,0h-7.018v-7.8h7.018Zm-11.436,0h-7.018v-7.8h7.018Zm-11.436,0H149.5v-7.8h7.018Z" transform="translate(-149.498 -163.206)" fill="#aeede8"/>
        </g>
        <g id="Grupo_1412" data-name="Grupo 1412" transform="translate(128.88 102.951)">
          <path id="Trazado_8073" data-name="Trazado 8073" d="M195.572,225.523l-1.836-7.578,6.821-1.653,1.836,7.578Zm11.115-2.693-1.836-7.578,6.82-1.653,1.836,7.578Zm11.115-2.694-1.837-7.578,6.82-1.653,1.837,7.578Z" transform="translate(-193.736 -210.905)" fill="#aeede8"/>
        </g>
        <g id="Grupo_1413" data-name="Grupo 1413" transform="translate(134.509 65.038)">
          <path id="Trazado_8074" data-name="Trazado 8074" d="M240.64,87.626l-5.928-3.757,4.175-6.586,5.928,3.757ZM230.98,81.5l-5.928-3.757,4.175-6.586,5.928,3.757Zm-9.66-6.122-5.928-3.757,4.175-6.586,5.928,3.757Z" transform="translate(-215.393 -65.038)" fill="#aeede8"/>
        </g>
      </g>
    </g>
  </g>
</svg>
