<svg xmlns="http://www.w3.org/2000/svg" width="139.683" height="139.683" viewBox="0 0 139.683 139.683">
  <g id="Grupo_1456" data-name="Grupo 1456" transform="translate(-204 -2195)">
    <g id="Grupo_1133" data-name="Grupo 1133" transform="translate(204 2195)">
      <circle id="Elipse_520" data-name="Elipse 520" cx="69.841" cy="69.841" r="69.841" fill="#57b8e8"/>
      <circle id="Elipse_521" data-name="Elipse 521" cx="62.739" cy="62.739" r="62.739" transform="translate(7.103 7.103)" fill="#fff"/>
    </g>
    <g id="Grupo_1382" data-name="Grupo 1382" transform="translate(141.493 2160.906)">
      <g id="Grupo_1370" data-name="Grupo 1370" transform="translate(106.942 60)">
        <path id="Trazado_8038" data-name="Trazado 8038" d="M164.878,128.54h-9.8a21.031,21.031,0,0,1-21.031-21.031V81.031A21.031,21.031,0,0,1,155.081,60h9.8a21.031,21.031,0,0,1,21.031,21.031v26.479A21.031,21.031,0,0,1,164.878,128.54Z" transform="translate(-134.05 -60)" fill="#e9edf5"/>
      </g>
      <g id="Grupo_1371" data-name="Grupo 1371" transform="translate(132.894 60)">
        <path id="Trazado_8039" data-name="Trazado 8039" d="M260.877,60H256v68.54h4.877a21.031,21.031,0,0,0,21.031-21.031V81.031A21.031,21.031,0,0,0,260.877,60Z" transform="translate(-256 -60)" fill="#cdd2e1"/>
      </g>
      <g id="Grupo_1372" data-name="Grupo 1372" transform="translate(99.614 105.205)">
        <path id="Trazado_8040" data-name="Trazado 8040" d="M136.36,323.3a54.211,54.211,0,0,0,29.813-11.235l-1-11.357a8.617,8.617,0,0,0-6.733-7.657l-8.779-1.93-4.558-1a4.066,4.066,0,0,1-3.193-3.971V272.426H123.881v13.722a4.066,4.066,0,0,1-3.193,3.971l-4.558,1-8.779,1.93a8.617,8.617,0,0,0-6.733,7.657l-1,11.357A54.21,54.21,0,0,0,129.427,323.3Z" transform="translate(-99.614 -272.426)" fill="#e9edf5"/>
      </g>
      <g id="Grupo_1373" data-name="Grupo 1373" transform="translate(132.894 105.205)">
        <path id="Trazado_8041" data-name="Trazado 8041" d="M289.28,312.065l-1-11.357a8.617,8.617,0,0,0-6.733-7.657l-8.779-1.93-4.558-1a4.066,4.066,0,0,1-3.193-3.971V272.426H256V323.3h3.467a54.209,54.209,0,0,0,29.813-11.235Z" transform="translate(-256 -272.426)" fill="#cdd2e1"/>
      </g>
      <g id="Grupo_1374" data-name="Grupo 1374" transform="translate(129.427 113.599)">
        <path id="Trazado_8042" data-name="Trazado 8042" d="M243.177,354.459q1.747,0,3.467-.109v-42.48H239.71v42.48Q241.43,354.458,243.177,354.459Z" transform="translate(-239.71 -311.871)" fill="#7584f2"/>
      </g>
      <g id="Grupo_1375" data-name="Grupo 1375" transform="translate(132.894 113.599)">
        <path id="Trazado_8043" data-name="Trazado 8043" d="M256,311.871v42.588q1.747,0,3.467-.109v-42.48Z" transform="translate(-256 -311.871)" fill="#606aea"/>
      </g>
      <g id="Grupo_1376" data-name="Grupo 1376" transform="translate(111.639 69.088)">
        <path id="Trazado_8044" data-name="Trazado 8044" d="M198.63,123.638a21.257,21.257,0,0,0-42.51,0v12.968h42.51Z" transform="translate(-156.12 -102.708)" fill="#ffcdbe"/>
      </g>
      <g id="Grupo_1377" data-name="Grupo 1377" transform="translate(132.894 69.088)">
        <path id="Trazado_8045" data-name="Trazado 8045" d="M277.255,123.638A21.21,21.21,0,0,0,256,102.708v33.9h21.255Z" transform="translate(-256 -102.708)" fill="#faa68e"/>
      </g>
      <g id="Grupo_1378" data-name="Grupo 1378" transform="translate(109.544 96.884)">
        <path id="Trazado_8046" data-name="Trazado 8046" d="M146.275,233.326v.326c0,12.7,10.651,22.993,23.35,22.993s23.35-10.294,23.35-22.993v-.326Z" transform="translate(-146.275 -233.326)" fill="#fff"/>
      </g>
      <g id="Grupo_1379" data-name="Grupo 1379" transform="translate(132.894 96.884)">
        <path id="Trazado_8047" data-name="Trazado 8047" d="M256,233.325v23.32c12.7,0,23.35-10.294,23.35-22.993v-.326H256Z" transform="translate(-256 -233.325)" fill="#e9edf5"/>
      </g>
      <g id="Grupo_1380" data-name="Grupo 1380" transform="translate(118.55 103.381)">
        <circle id="Elipse_580" data-name="Elipse 580" cx="5.163" cy="5.163" r="5.163" transform="translate(0)" fill="#b4f5f0"/>
      </g>
      <g id="Grupo_1381" data-name="Grupo 1381" transform="translate(109.83 79.173)">
        <path id="Trazado_8048" data-name="Trazado 8048" d="M195.487,176.21H182.938a3.142,3.142,0,0,1-2.205-.9l-3.359-3.322-3.988,3.451a3.142,3.142,0,0,1-2.066.775h-12.06a3.142,3.142,0,0,1-3.142-3.142V161.736a3.142,3.142,0,0,1,3.142-3.142h36.226a3.142,3.142,0,0,1,3.142,3.142v11.332a3.142,3.142,0,0,1-3.142,3.142Z" transform="translate(-154.31 -156.785)" fill="#7584f2"/>
        <path id="Trazado_8049" data-name="Trazado 8049" d="M274.113,158.6H256v13.39l3.359,3.322a3.141,3.141,0,0,0,2.205.9h12.549a3.142,3.142,0,0,0,3.142-3.142V161.738a3.142,3.142,0,0,0-3.142-3.142Z" transform="translate(-232.936 -156.787)" fill="#606aea"/>
        <path id="Trazado_8050" data-name="Trazado 8050" d="M188.8,171.329H176.248a4.922,4.922,0,0,1-3.475-1.424l-2.089-2.062-2.8,2.266a4.95,4.95,0,0,1-3.255,1.221h-12.06a4.956,4.956,0,0,1-4.951-4.951V155.046a4.956,4.956,0,0,1,4.951-4.951H188.8a4.956,4.956,0,0,1,4.951,4.951v11.332A4.956,4.956,0,0,1,188.8,171.329Zm-18.113-8.462,4.629,4.46a1.325,1.325,0,0,0,.935.383H188.8a1.334,1.334,0,0,0,1.333-1.333V155.046a1.335,1.335,0,0,0-1.333-1.333H152.571a1.335,1.335,0,0,0-1.333,1.333v11.332a1.335,1.335,0,0,0,1.333,1.333h12.06a1.333,1.333,0,0,0,.876-.329Z" transform="translate(-147.62 -150.095)" fill="#4855b7"/>
        <path id="Trazado_8051" data-name="Trazado 8051" d="M274.113,150.1H256v3.618h18.113a1.335,1.335,0,0,1,1.333,1.333v11.332a1.335,1.335,0,0,1-1.333,1.333H261.564a1.326,1.326,0,0,1-.935-.383L256,162.868v4.975l2.089,2.062a4.922,4.922,0,0,0,3.475,1.424h12.549a4.956,4.956,0,0,0,4.951-4.951V155.046a4.956,4.956,0,0,0-4.951-4.95Z" transform="translate(-232.936 -150.096)" fill="#27488f"/>
      </g>
    </g>
  </g>
</svg>
