<svg xmlns="http://www.w3.org/2000/svg" width="139.683" height="139.683" viewBox="0 0 139.683 139.683">
  <g id="Grupo_1459" data-name="Grupo 1459" transform="translate(-203.926 -3315)">
    <g id="Grupo_1422" data-name="Grupo 1422">
      <g id="Grupo_1393" data-name="Grupo 1393" transform="translate(203.926 3315)">
        <circle id="Elipse_520" data-name="Elipse 520" cx="69.841" cy="69.841" r="69.841" fill="#57b8e8"/>
        <circle id="Elipse_521" data-name="Elipse 521" cx="62.739" cy="62.739" r="62.739" transform="translate(7.103 7.103)" fill="#fff"/>
      </g>
      <g id="Grupo_1421" data-name="Grupo 1421" transform="translate(-88 442)">
        <g id="Grupo_1420" data-name="Grupo 1420" transform="translate(314 2895)">
          <path id="Trazado_8096" data-name="Trazado 8096" d="M96,48A48,48,0,1,1,48,0,48,48,0,0,1,96,48Z" fill="#ffaf10"/>
          <path id="Trazado_8097" data-name="Trazado 8097" d="M76.444,117.88A41.436,41.436,0,1,1,117.88,76.444,41.483,41.483,0,0,1,76.444,117.88Z" transform="translate(-28.444 -28.444)" fill="#445ea0"/>
          <path id="Trazado_8098" data-name="Trazado 8098" d="M44.383,76.444A41.494,41.494,0,0,1,81.132,35.275a41.436,41.436,0,1,0,0,82.339A41.494,41.494,0,0,1,44.383,76.444Z" transform="translate(-28.444 -28.444)" fill="#2e4c89"/>
          <path id="Trazado_8099" data-name="Trazado 8099" d="M105.688,140.375a34.688,34.688,0,1,1,34.688-34.687A34.727,34.727,0,0,1,105.688,140.375Z" transform="translate(-57.688 -57.688)" fill="#fff"/>
          <path id="Trazado_8100" data-name="Trazado 8100" d="M80.375,105.688a34.739,34.739,0,0,1,30-34.37,34.688,34.688,0,1,0,0,68.739A34.739,34.739,0,0,1,80.375,105.688Z" transform="translate(-57.688 -57.688)" fill="#d9eafc"/>
          <path id="Trazado_8101" data-name="Trazado 8101" d="M246.316,228.4a1.406,1.406,0,0,1-1.406-1.406V209.854a1.408,1.408,0,0,1,.412-.995l9.243-9.242a1.406,1.406,0,0,1,1.989,1.989l-8.831,8.831v16.556A1.406,1.406,0,0,1,246.316,228.4Z" transform="translate(-198.989 -161.854)" fill="#2e4c89"/>
          <path id="Trazado_8102" data-name="Trazado 8102" d="M239.937,239.785a3.742,3.742,0,1,1-3.742-3.742A3.742,3.742,0,0,1,239.937,239.785Z" transform="translate(-188.868 -191.785)" fill="#d9eafc"/>
          <path id="Trazado_8103" data-name="Trazado 8103" d="M246.316,98.438a1.406,1.406,0,0,1-1.406-1.406v-7.6a1.406,1.406,0,1,1,2.813,0v7.6A1.406,1.406,0,0,1,246.316,98.438Z" transform="translate(-198.989 -71.522)" fill="#aec1ed"/>
          <path id="Trazado_8104" data-name="Trazado 8104" d="M246.316,378.857a1.407,1.407,0,0,1-1.406-1.406v-7.6a1.406,1.406,0,0,1,2.813,0v7.6A1.407,1.407,0,0,1,246.316,378.857Z" transform="translate(-198.989 -299.362)" fill="#aec1ed"/>
          <path id="Trazado_8105" data-name="Trazado 8105" d="M364.855,249.906a1.407,1.407,0,0,1,1.406-1.406h7.6a1.406,1.406,0,0,1,0,2.813h-7.6A1.407,1.407,0,0,1,364.855,249.906Z" transform="translate(-296.445 -201.906)" fill="#aec1ed"/>
          <path id="Trazado_8106" data-name="Trazado 8106" d="M84.438,249.906a1.407,1.407,0,0,1,1.406-1.406h7.6a1.406,1.406,0,0,1,0,2.813h-7.6A1.407,1.407,0,0,1,84.438,249.906Z" transform="translate(-68.606 -201.906)" fill="#aec1ed"/>
          <path id="Trazado_8107" data-name="Trazado 8107" d="M173.707,124.143a1.406,1.406,0,0,1-1.921-.515l-1.924-3.332a1.406,1.406,0,1,1,2.435-1.406l1.924,3.332A1.406,1.406,0,0,1,173.707,124.143Z" transform="translate(-137.86 -96.026)" fill="#5dc1d8"/>
          <g id="Grupo_1419" data-name="Grupo 1419" transform="translate(21.487 22.16)">
            <path id="Trazado_8108" data-name="Trazado 8108" d="M313.916,366.994a1.406,1.406,0,0,1-1.921-.515l-1.924-3.333a1.406,1.406,0,1,1,2.435-1.406l1.924,3.333A1.406,1.406,0,0,1,313.916,366.994Z" transform="translate(-273.266 -315.502)" fill="#d9eafc"/>
            <path id="Trazado_8109" data-name="Trazado 8109" d="M357.636,177.3a1.406,1.406,0,0,1,.515-1.921l3.333-1.924a1.406,1.406,0,1,1,1.406,2.435l-3.333,1.924A1.406,1.406,0,0,1,357.636,177.3Z" transform="translate(-311.913 -162.937)" fill="#d9eafc"/>
            <path id="Trazado_8110" data-name="Trazado 8110" d="M114.785,317.506a1.406,1.406,0,0,1,.515-1.92l3.332-1.924a1.406,1.406,0,1,1,1.406,2.435l-3.332,1.924A1.406,1.406,0,0,1,114.785,317.506Z" transform="translate(-114.596 -276.856)" fill="#d9eafc"/>
            <path id="Trazado_8111" data-name="Trazado 8111" d="M120.553,177.3a1.406,1.406,0,0,1-1.921.514l-3.332-1.924a1.406,1.406,0,1,1,1.406-2.435l3.332,1.924A1.406,1.406,0,0,1,120.553,177.3Z" transform="translate(-114.596 -162.937)" fill="#d9eafc"/>
            <path id="Trazado_8112" data-name="Trazado 8112" d="M363.4,317.506a1.406,1.406,0,0,1-1.921.515l-3.333-1.924a1.406,1.406,0,1,1,1.406-2.435l3.333,1.924A1.406,1.406,0,0,1,363.4,317.506Z" transform="translate(-311.913 -276.856)" fill="#d9eafc"/>
            <path id="Trazado_8113" data-name="Trazado 8113" d="M310.586,124.143a1.406,1.406,0,0,1-.514-1.921L312,118.89a1.406,1.406,0,1,1,2.435,1.406l-1.924,3.332A1.406,1.406,0,0,1,310.586,124.143Z" transform="translate(-273.266 -118.186)" fill="#d9eafc"/>
            <path id="Trazado_8114" data-name="Trazado 8114" d="M170.377,366.994a1.406,1.406,0,0,1-.515-1.921l1.924-3.333a1.406,1.406,0,1,1,2.435,1.406l-1.924,3.333A1.406,1.406,0,0,1,170.377,366.994Z" transform="translate(-159.347 -315.502)" fill="#d9eafc"/>
          </g>
        </g>
      </g>
    </g>
  </g>
</svg>
