<svg xmlns="http://www.w3.org/2000/svg" width="258" height="258" viewBox="0 0 258 258">
  <g id="Grupo_1814" data-name="Grupo 1814" transform="translate(-3399 2.102)">
    <g id="Grupo_1813" data-name="Grupo 1813">
      <g id="Grupo_1808" data-name="Grupo 1808">
        <circle id="Elipse_659" data-name="Elipse 659" cx="129" cy="129" r="129" transform="translate(3399 -2.102)" fill="#d3dee8"/>
        <g id="Grupo_1804" data-name="Grupo 1804" transform="translate(2860.78 742.887)">
          <g id="Grupo_1329" data-name="Grupo 1329" transform="translate(538.22 -673.724)">
            <rect id="Rectángulo_792" data-name="Rectángulo 792" width="194.604" height="121.076" rx="22.096" transform="translate(31.698 0)" fill="#3d4166"/>
            <rect id="Rectángulo_793" data-name="Rectángulo 793" width="179.015" height="107.565" rx="19.975" transform="translate(39.492 6.755)" fill="#f6f6f6"/>
            <rect id="Rectángulo_794" data-name="Rectángulo 794" width="169.662" height="98.212" rx="18.582" transform="translate(44.169 11.432)" fill="#7ab6f5"/>
            <path id="Trazado_7891" data-name="Trazado 7891" d="M575.894-253.273l-37.674,28.06h258l-37.674-28.06Z" transform="translate(-538.22 374.349)" fill="#b4d3ff"/>
            <path id="Trazado_7892" data-name="Trazado 7892" d="M538.22-172.379a6.236,6.236,0,0,0,6.235,6.236H789.984a6.236,6.236,0,0,0,6.236-6.236h-258Z" transform="translate(-538.22 321.515)" fill="#3d4166"/>
            <g id="Grupo_1328" data-name="Grupo 1328" transform="translate(38.684 124.633)">
              <path id="Trazado_7893" data-name="Trazado 7893" d="M726.64-243.018h-8.089a5.955,5.955,0,0,0-2.787.516l-2.421,2.016c-.374.311.346.565,1.611.565h8.55a5.474,5.474,0,0,0,2.84-.565l1.96-2.016C728.583-242.788,727.836-243.018,726.64-243.018Z" transform="translate(-691.217 243.018)" fill="#3d4166"/>
              <path id="Trazado_7894" data-name="Trazado 7894" d="M776.747-243.018h-8.089a4.957,4.957,0,0,0-2.626.516l-1.8,2.016c-.277.311.522.565,1.787.565h8.55a4.493,4.493,0,0,0,2.665-.565l1.334-2.016C778.762-242.788,777.944-243.018,776.747-243.018Z" transform="translate(-724.485 243.018)" fill="#3d4166"/>
              <path id="Trazado_7895" data-name="Trazado 7895" d="M826.831-243.018h-8.088a4.073,4.073,0,0,0-2.466.516l-1.17,2.016c-.18.311.7.565,1.963.565h8.551c1.265,0,2.38-.254,2.489-.565l.708-2.016C828.917-242.788,828.028-243.018,826.831-243.018Z" transform="translate(-757.73 243.018)" fill="#3d4166"/>
              <path id="Trazado_7896" data-name="Trazado 7896" d="M876.892-243.018H868.8c-1.2,0-2.229.23-2.306.516l-.544,2.016c-.084.311.873.565,2.138.565h8.55c1.265,0,2.3-.254,2.314-.565l.082-2.016C879.049-242.788,878.089-243.018,876.892-243.018Z" transform="translate(-790.951 243.018)" fill="#3d4166"/>
              <path id="Trazado_7897" data-name="Trazado 7897" d="M929.077-242.5c-.077-.286-1.109-.516-2.306-.516h-8.089c-1.2,0-2.157.23-2.146.516l.082,2.016c.012.311,1.048.565,2.314.565h8.551c1.265,0,2.222-.254,2.138-.565Z" transform="translate(-823.991 243.018)" fill="#3d4166"/>
              <path id="Trazado_7898" data-name="Trazado 7898" d="M978.07-242.5a4.073,4.073,0,0,0-2.466-.516h-8.088c-1.2,0-2.086.23-1.986.516l.708,2.016c.109.311,1.224.565,2.489.565h8.551c1.265,0,2.143-.254,1.963-.565Z" transform="translate(-855.985 243.018)" fill="#3d4166"/>
              <path id="Trazado_7899" data-name="Trazado 7899" d="M1027.04-242.5a4.957,4.957,0,0,0-2.626-.516h-8.089c-1.2,0-2.015.23-1.826.516l1.334,2.016a4.493,4.493,0,0,0,2.665.565h8.55c1.265,0,2.064-.254,1.787-.565Z" transform="translate(-887.956 243.018)" fill="#3d4166"/>
              <path id="Trazado_7900" data-name="Trazado 7900" d="M1078.411-240.486l-2.421-2.016a5.953,5.953,0,0,0-2.786-.516h-8.089c-1.2,0-1.944.23-1.665.516l1.959,2.016a5.476,5.476,0,0,0,2.841.565h8.551C1078.064-239.921,1078.784-240.175,1078.411-240.486Z" transform="translate(-919.905 243.018)" fill="#3d4166"/>
              <path id="Trazado_7901" data-name="Trazado 7901" d="M710.658-229.9h-8.767a6.378,6.378,0,0,0-3.078.607l-2.858,2.38c-.442.368.312.67,1.69.67h9.313a5.865,5.865,0,0,0,3.147-.67l2.313-2.38C712.744-229.626,711.955-229.9,710.658-229.9Z" transform="translate(-679.842 234.448)" fill="#3d4166"/>
              <path id="Trazado_7902" data-name="Trazado 7902" d="M765.128-229.9h-8.767a5.259,5.259,0,0,0-2.889.607l-2.119,2.38c-.328.368.52.67,1.9.67h9.313c1.378,0,2.694-.3,2.938-.67l1.574-2.38C767.3-229.626,766.426-229.9,765.128-229.9Z" transform="translate(-716.06 234.448)" fill="#3d4166"/>
              <path id="Trazado_7903" data-name="Trazado 7903" d="M819.569-229.9H810.8c-1.3,0-2.5.27-2.7.607l-1.381,2.38c-.214.368.729.67,2.106.67h9.313c1.378,0,2.6-.3,2.73-.67l.836-2.38C821.823-229.626,820.866-229.9,819.569-229.9Z" transform="translate(-752.248 234.448)" fill="#3d4166"/>
              <path id="Trazado_7904" data-name="Trazado 7904" d="M873.978-229.9h-8.767c-1.3,0-2.422.27-2.512.607l-.642,2.38c-.1.368.936.67,2.314.67h9.313c1.378,0,2.507-.3,2.522-.67l.1-2.38C876.316-229.626,875.275-229.9,873.978-229.9Z" transform="translate(-788.405 234.448)" fill="#3d4166"/>
              <path id="Trazado_7905" data-name="Trazado 7905" d="M930.685-229.289c-.091-.336-1.215-.607-2.512-.607h-8.767c-1.3,0-2.338.27-2.324.607l.1,2.38c.015.368,1.144.67,2.522.67h9.313c1.378,0,2.413-.3,2.314-.67Z" transform="translate(-824.347 234.448)" fill="#3d4166"/>
              <path id="Trazado_7906" data-name="Trazado 7906" d="M983.829-229.289c-.2-.336-1.4-.607-2.7-.607h-8.768c-1.3,0-2.254.27-2.136.607l.836,2.38c.129.368,1.352.67,2.73.67H983.1c1.378,0,2.32-.3,2.106-.67Z" transform="translate(-859.05 234.448)" fill="#3d4166"/>
              <path id="Trazado_7907" data-name="Trazado 7907" d="M1036.945-229.289a5.26,5.26,0,0,0-2.889-.607h-8.767c-1.3,0-2.17.27-1.947.607l1.574,2.38c.244.368,1.561.67,2.938.67h9.313c1.378,0,2.226-.3,1.9-.67Z" transform="translate(-893.726 234.448)" fill="#3d4166"/>
              <path id="Trazado_7908" data-name="Trazado 7908" d="M1092.891-226.91l-2.858-2.38a6.379,6.379,0,0,0-3.078-.607h-8.767c-1.3,0-2.086.27-1.759.607l2.313,2.38a5.861,5.861,0,0,0,3.146.67h9.313C1092.579-226.24,1093.334-226.541,1092.891-226.91Z" transform="translate(-928.373 234.448)" fill="#3d4166"/>
              <path id="Trazado_7909" data-name="Trazado 7909" d="M691.621-214.369H682.05a6.9,6.9,0,0,0-3.433.724l-3.425,2.851c-.532.443.257.807,1.77.807h10.224a6.348,6.348,0,0,0,3.523-.807l2.772-2.851C693.871-214.047,693.037-214.369,691.621-214.369Z" transform="translate(-666.255 224.307)" fill="#3d4166"/>
              <path id="Trazado_7910" data-name="Trazado 7910" d="M751.288-214.369h-9.571a5.632,5.632,0,0,0-3.208.724l-2.54,2.851c-.395.443.508.807,2.02.807h10.224c1.513,0,2.98-.364,3.273-.807l1.887-2.851C753.639-214.047,752.7-214.369,751.288-214.369Z" transform="translate(-705.998 224.307)" fill="#3d4166"/>
              <path id="Trazado_7911" data-name="Trazado 7911" d="M810.918-214.369h-9.571c-1.416,0-2.751.322-2.984.724l-1.654,2.851c-.257.443.758.807,2.271.807H809.2c1.513,0,2.867-.364,3.022-.807l1-2.851C813.368-214.047,812.334-214.369,810.918-214.369Z" transform="translate(-745.703 224.307)" fill="#3d4166"/>
              <path id="Trazado_7912" data-name="Trazado 7912" d="M870.505-214.369h-9.57c-1.416,0-2.651.322-2.759.724l-.769,2.851c-.119.443,1.009.807,2.521.807h10.224c1.513,0,2.754-.364,2.772-.807l.116-2.851C873.056-214.047,871.922-214.369,870.505-214.369Z" transform="translate(-785.367 224.307)" fill="#3d4166"/>
              <path id="Trazado_7913" data-name="Trazado 7913" d="M932.592-213.645c-.108-.4-1.343-.724-2.759-.724h-9.571c-1.416,0-2.551.322-2.534.724l.116,2.851c.018.443,1.259.807,2.772.807h10.224c1.513,0,2.641-.364,2.522-.807Z" transform="translate(-824.769 224.307)" fill="#3d4166"/>
              <path id="Trazado_7914" data-name="Trazado 7914" d="M990.655-213.645c-.233-.4-1.568-.724-2.984-.724H978.1c-1.416,0-2.451.322-2.31.724l1,2.851c.156.443,1.51.807,3.022.807h10.224c1.513,0,2.528-.364,2.271-.807Z" transform="translate(-862.683 224.307)" fill="#3d4166"/>
              <path id="Trazado_7915" data-name="Trazado 7915" d="M1048.682-213.645a5.633,5.633,0,0,0-3.208-.724H1035.9c-1.416,0-2.351.322-2.085.724l1.886,2.851c.294.443,1.76.807,3.273.807H1049.2c1.513,0,2.415-.364,2.02-.807Z" transform="translate(-900.561 224.307)" fill="#3d4166"/>
              <path id="Trazado_7916" data-name="Trazado 7916" d="M1110.1-210.794l-3.425-2.851a6.9,6.9,0,0,0-3.433-.724h-9.571c-1.416,0-2.251.322-1.86.724l2.772,2.851a6.348,6.348,0,0,0,3.523.807h10.224C1109.841-209.987,1110.63-210.351,1110.1-210.794Z" transform="translate(-938.403 224.307)" fill="#3d4166"/>
              <path id="Trazado_7917" data-name="Trazado 7917" d="M668.556-195.711H658.021a7.571,7.571,0,0,0-3.877.878l-4.178,3.479c-.653.544.17.99,1.846.99h11.333c1.677,0,3.47-.446,4-.99l3.382-3.479C671-195.321,670.115-195.711,668.556-195.711Z" transform="translate(-649.741 212.121)" fill="#3d4166"/>
              <path id="Trazado_7918" data-name="Trazado 7918" d="M825.441-194.9c-.261-.45-1.637-.81-3.077-.81h-98.7a5.645,5.645,0,0,0-3.329.81l-3.226,3.622c-.448.5.44.915,1.989.915H825.269c1.549,0,2.565-.413,2.273-.915Z" transform="translate(-693.664 212.121)" fill="#3d4166"/>
              <path id="Trazado_7919" data-name="Trazado 7919" d="M1062.81-194.833c-.434-.488-2.045-.878-3.6-.878H1048.67c-1.559,0-2.564.39-2.242.878l2.3,3.479c.36.544,2.014.99,3.691.99h11.333c1.677,0,2.638-.446,2.154-.99Z" transform="translate(-908.787 212.121)" fill="#3d4166"/>
              <path id="Trazado_7920" data-name="Trazado 7920" d="M1130.88-191.354l-4.179-3.479a7.57,7.57,0,0,0-3.877-.878h-10.536c-1.559,0-2.443.39-1.969.878l3.382,3.479c.529.544,2.322.99,4,.99h11.333C1130.71-190.364,1131.533-190.81,1130.88-191.354Z" transform="translate(-950.472 212.121)" fill="#3d4166"/>
            </g>
          </g>
          <g id="Grupo_1330" data-name="Grupo 1330" transform="translate(566.878 -711.648)">
            <path id="Trazado_7921" data-name="Trazado 7921" d="M877.45-319.047c-1.349.623-7.2,2.387-8.893,1.92s-4.5-4.077-4.5-4.077l.117-3.217c-1.016-.138-2.184-.306-3.393-.5l3.276,11.172H851.5q-.026,1.922-.023,3.831c0,.984-.013,1.99-.036,3.006h30.807c-.032-3.937-.061-8.076-.082-12.295A21.875,21.875,0,0,0,877.45-319.047Z" transform="translate(-771.452 459.066)" fill="#fcadb0"/>
            <path id="Trazado_7922" data-name="Trazado 7922" d="M861.9-481.527c1.079.052,5.21,1.9,7.322,2.875l.062-1.7,8.3.416-.056,1.2.169-.018.233-.025.391-.043.246-.027.381-.043c2.868-.326,5.767-.713,7.45-1.1l.27-.062c.029-10.332.139-19.884.383-26.728a44.543,44.543,0,0,0-2.888,14.418,1.745,1.745,0,0,1,.465,1.272c0,.809-.412,1.464-.921,1.464-.353,0-.657-.32-.811-.785a1.474,1.474,0,0,1-.718-1.426,2.28,2.28,0,0,1,.022-.32.69.69,0,0,1-.041-.24,45.834,45.834,0,0,1,3.813-17.618,16.764,16.764,0,0,1,1.4-2.647A49.462,49.462,0,0,1,892.59-531.6a14.81,14.81,0,0,0-.646-5.109,6.061,6.061,0,0,0-.661-1.279,3.973,3.973,0,0,0-2.2-1.21.679.679,0,0,1-.181-.057c.008.027.017.058.025.084a6.055,6.055,0,0,0,.245.657c.976,2.161-7.406,5.481-13,5.522h0q-.351,0-.684-.012c-2-.089-3.542-.664-3.985-1.956v-4.372a20.4,20.4,0,0,0-5.675,4.187c-1.7,8.215-5.125,26.005-7.443,46.549l2.242,7.647A1.5,1.5,0,0,1,861.9-481.527Z" transform="translate(-775.984 599.101)" fill="#fcadb0"/>
            <path id="Trazado_7923" data-name="Trazado 7923" d="M952.781-541.812A6.589,6.589,0,0,1,954-540.5a7.429,7.429,0,0,1,1.5,2.433,10.185,10.185,0,0,1,.487,1.872A30.818,30.818,0,0,1,959.8-541c-1.364-.229-2.723-.416-4.043-.558C954.737-541.673,953.741-541.755,952.781-541.812Z" transform="translate(-837.637 600.724)" fill="#fcadb0"/>
            <path id="Trazado_7924" data-name="Trazado 7924" d="M884.524-541.673h0c-.167.008-.336.018-.512.029-.066.006-.131.009-.2.012l-.223.011c-.1.006-.2.016-.306.021a.769.769,0,0,0-.086.006c-.351.021-.714.047-1.092.075,0,0-.142.622-.393,1.777a20.585,20.585,0,0,1,2.816-1.932Z" transform="translate(-791.222 600.633)" fill="#fcadb0"/>
            <path id="Trazado_7925" data-name="Trazado 7925" d="M741.672-346.282h0Z" transform="translate(-699.714 473.019)" fill="#10172a" opacity="0.15"/>
            <path id="Trazado_7926" data-name="Trazado 7926" d="M743.8-346.364l-.127.006Z" transform="translate(-701.064 473.073)" fill="#10172a" opacity="0.15"/>
            <path id="Trazado_7927" data-name="Trazado 7927" d="M745.946-346.514l-.068.006Z" transform="translate(-702.504 473.17)" fill="#10172a" opacity="0.15"/>
            <path id="Trazado_7928" data-name="Trazado 7928" d="M749.972-347.292q.391-.065.774-.145-.343.073-.695.132Z" transform="translate(-705.178 473.773)" fill="#10172a" opacity="0.15"/>
            <path id="Trazado_7929" data-name="Trazado 7929" d="M752.994-347.617h0Z" transform="translate(-707.152 473.892)" fill="#10172a" opacity="0.15"/>
            <path id="Trazado_7930" data-name="Trazado 7930" d="M747.643-346.736l.209-.025-.015,0Z" transform="translate(-703.657 473.332)" fill="#10172a" opacity="0.15"/>
            <path id="Trazado_7931" data-name="Trazado 7931" d="M739.5-346.293h0Z" transform="translate(-698.336 473.026)" fill="#10172a" opacity="0.15"/>
            <path id="Trazado_7932" data-name="Trazado 7932" d="M737.379-346.444l.019,0-.015,0Z" transform="translate(-696.953 473.125)" fill="#10172a" opacity="0.15"/>
            <path id="Trazado_7933" data-name="Trazado 7933" d="M955.557-541.727c1.32.142,2.679.329,4.043.558q.3-.3.563-.552c-.172-.019-.343-.037-.515-.054s-.354-.036-.529-.051-.371-.035-.553-.051c-.3-.027-.594-.048-.886-.069l-.541-.035c-.488-.027-.966-.051-1.43-.066h0q-.686-.022-1.338-.021h-1.9c.036.029.071.059.107.089C953.539-541.922,954.535-541.84,955.557-541.727Z" transform="translate(-837.435 600.891)" fill="#fcadb0"/>
            <path id="Trazado_7934" data-name="Trazado 7934" d="M955.557-541.727c1.32.142,2.679.329,4.043.558q.3-.3.563-.552c-.172-.019-.343-.037-.515-.054s-.354-.036-.529-.051-.371-.035-.553-.051c-.3-.027-.594-.048-.886-.069l-.541-.035c-.488-.027-.966-.051-1.43-.066h0q-.686-.022-1.338-.021h-1.9c.036.029.071.059.107.089C953.539-541.922,954.535-541.84,955.557-541.727Z" transform="translate(-837.435 600.891)" fill="#10172a" opacity="0.15"/>
            <path id="Trazado_7935" data-name="Trazado 7935" d="M638.587-531.83a48.426,48.426,0,0,0-5.722-6.032c-3.632-3.891-7.681-8.2-10.014-8.319s3.485,7.149,2.853,7.852-4.931.253-4.867,5.888,2.777,7.868,5.552,9.572c.118.177.26.419.429.723.223.4.49.907.8,1.5l11.344-10.708C638.835-531.512,638.707-531.675,638.587-531.83Z" transform="translate(-620.837 603.578)" fill="#ecb3a0"/>
            <path id="Trazado_7936" data-name="Trazado 7936" d="M940.02-317.321c.021,4.219.05,8.358.082,12.295h24.948c.007-.322.015-.643.019-.966.012-.63.024-1.264.036-1.894,0-.179.005-.36.008-.541l.021-1.02,0-.175.092-4.564c0-.164.006-.327.009-.491q.008-.438.018-.856l0-.142c0-.108,0-.212.005-.316,0-.151.006-.3.009-.443l0-.116c0-.249.009-.49.014-.722v-.009c0-.086,0-.169,0-.252,0-.143.006-.285.009-.422,0-.074,0-.148.005-.22,0-.145.006-.285.009-.422,0-.07,0-.139,0-.2s0-.134.006-.2l.008-.505c0-.048,0-.1,0-.143l.014-.657.013-.618,0-.2c0-.056,0-.113,0-.166s0-.075,0-.11l0-.068,0-.137,0-.155,0-.19a.655.655,0,0,1,0-.081s-4.77,4.249-8.142,4.871C954.89-316.729,945.761-317.207,940.02-317.321Z" transform="translate(-829.303 457.183)" fill="#fff"/>
            <path id="Trazado_7937" data-name="Trazado 7937" d="M947.236-501.18l-.068-15.576c0-.094,0-.188,0-.282a49.46,49.46,0,0,0-5.221,18.929,8.455,8.455,0,0,1,1.246-1.483A5.6,5.6,0,0,1,947.236-501.18Z" transform="translate(-830.56 584.543)" fill="#fff"/>
            <path id="Trazado_7938" data-name="Trazado 7938" d="M897.31-321.437h-.035l-.532-.006h0l-.524-.008-.1,0h-.075l-.24,5.09-7.992-2.578s2.806,3.61,4.5,4.077,7.544-1.3,8.893-1.92a21.877,21.877,0,0,1,4.719-.156q-.011-2.236-.02-4.5C903.093-321.416,899.96-321.408,897.31-321.437Z" transform="translate(-795.203 456.804)" fill="#fcadb0"/>
            <path id="Trazado_7939" data-name="Trazado 7939" d="M897.31-321.437h-.035l-.532-.006h0l-.524-.008-.1,0h-.075l-.24,5.09-7.992-2.578s2.806,3.61,4.5,4.077,7.544-1.3,8.893-1.92a21.877,21.877,0,0,1,4.719-.156q-.011-2.236-.02-4.5C903.093-321.416,899.96-321.408,897.31-321.437Z" transform="translate(-795.203 456.804)" fill="#10172a" opacity="0.15"/>
            <path id="Trazado_7940" data-name="Trazado 7940" d="M939.962-321.816q.009,2.257.02,4.5c5.741.114,14.87.592,17.228.156,3.372-.623,8.143-4.871,8.143-4.871l-22.925.2C941.652-321.83,940.822-321.823,939.962-321.816Z" transform="translate(-829.265 457.183)" fill="#fff"/>
            <path id="Trazado_7941" data-name="Trazado 7941" d="M939.962-321.816q.009,2.257.02,4.5c5.741.114,14.87.592,17.228.156,3.372-.623,8.143-4.871,8.143-4.871l-22.925.2C941.652-321.83,940.822-321.823,939.962-321.816Z" transform="translate(-829.265 457.183)" fill="#10172a" opacity="0.15"/>
            <path id="Trazado_7942" data-name="Trazado 7942" d="M914.066-364.763l.233-.025Z" transform="translate(-812.351 485.106)" fill="#fff"/>
            <path id="Trazado_7943" data-name="Trazado 7943" d="M915.866-364.964l.246-.027Z" transform="translate(-813.527 485.238)" fill="#fff"/>
            <path id="Trazado_7944" data-name="Trazado 7944" d="M971.793-489.462c0-.408-.011-.808-.021-1.2-.006-.209-.011-.414-.018-.619-.016-.393-.03-.779-.051-1.154s-.045-.759-.072-1.121c-.006-.09-.013-.179-.02-.269q-.031-.4-.071-.78c-.036-.342-.072-.673-.113-.988-.081-.636-.175-1.221-.285-1.748-.013-.057-.024-.116-.039-.175s-.032-.149-.05-.227v0c-.051-.233-.111-.486-.18-.752-.045-.187-.1-.383-.148-.585q-.2-.741-.446-1.605c-.047-.161-.1-.325-.143-.494-.011-.042-.026-.083-.038-.128-.034-.119-.07-.239-.107-.36-.014-.048-.029-.1-.045-.145-.03-.1-.059-.2-.089-.294s-.059-.2-.092-.3c-.276-.907-.586-1.879-.925-2.9-.11-.34-.226-.687-.344-1.038-.788-2.346-1.7-4.911-2.694-7.528-.1-.261-.2-.523-.3-.786-.057-.145-.113-.294-.172-.443-.092-.246-.188-.49-.285-.737s-.206-.526-.309-.788c-.15-.377-.3-.752-.452-1.127a104.609,104.609,0,0,0-6.437-13.62q-.352-.59-.7-1.123h0c-.091-.142-.184-.281-.275-.416q-.068-.1-.137-.2c-.208-.3-.413-.585-.615-.85-.051-.068-.1-.134-.152-.2s-.1-.128-.151-.19-.1-.122-.149-.181a8.889,8.889,0,0,0-1.1-1.121c-.038-.033-.08-.066-.118-.1a3.951,3.951,0,0,0-.473-.327,21.969,21.969,0,0,0-2.2-1.109c-.1-.044-.2-.089-.3-.131-.056-.024-.115-.05-.176-.074-.11-.048-.22-.092-.33-.137l-.335-.134c-.063-.024-.126-.051-.191-.075s-.152-.059-.228-.086c-.327-.124-.663-.246-1.006-.365-.113-.038-.223-.078-.335-.113q-.732-.245-1.493-.473c-.2-.062-.413-.125-.624-.183-.054-.015-.107-.03-.164-.048-.121-.033-.247-.068-.372-.1l-.392-.108c-.306-.08-.612-.16-.925-.238-.223-.053-.449-.11-.675-.163l-.607-.141-.611-.136q-.968-.209-1.948-.392c-.312-.056-.624-.113-.939-.166-.277-.048-.553-.1-.827-.14s-.52-.08-.778-.119c-.042-.005-.086-.015-.134-.021-.244-.035-.491-.071-.735-.1l-.734-.1-.161-.018c-.244-.029-.488-.059-.729-.086l-.211-.023q-.263.249-.563.552a30.818,30.818,0,0,0-3.819,4.811,24.447,24.447,0,0,1,.248,4l.066,15.215a7.257,7.257,0,0,1,3.26,2.6,9.115,9.115,0,0,1,1.151,1.574,18.037,18.037,0,0,1,1.932,5.754,54.32,54.32,0,0,1,.549,14.592.681.681,0,0,1-.077.262c0,.018,0,.037,0,.056,0,.809-.412,1.464-.92,1.464-.354,0-.657-.32-.811-.785a1.474,1.474,0,0,1-.718-1.426,1.577,1.577,0,0,1,.62-1.384,52.117,52.117,0,0,0-.606-13.273c-.085-.451-.179-.9-.286-1.346-.1-.428-.217-.853-.346-1.273-.119-.386-.25-.768-.4-1.144-.135-.345-.284-.684-.449-1.016a9.63,9.63,0,0,0-.5-.891c-.072-.113-.148-.223-.226-.332-.109-.115-.221-.228-.338-.334a5.608,5.608,0,0,0-.94-.7,4.64,4.64,0,0,0-1.332-.523,4.554,4.554,0,0,0-.71-.1,6.529,6.529,0,0,0-.785-.026,3.7,3.7,0,0,0-1.464.445,4.962,4.962,0,0,0-1.086.767,10.876,10.876,0,0,0-2.318,3.673q-.419.957-.792,1.936c-.245,6.844-.354,16.4-.383,26.728l-.269.062c-1.682.384-4.582.772-7.45,1.1l.052-.006c.317,3.5-.668,12.945-.91,15.168,2.649.029,5.783.021,8.589,0,.861-.007,1.69-.014,2.465-.022l22.925-.2v-.073s.579.032,1.537.053h.048c.163.006.336.009.52.012.045,0,.093,0,.14,0,.977.015,2.209.018,3.565-.018l.3-.008.762-.027c.178-.006.357-.015.537-.024l.512-.027c1.106-.062,2.245-.154,3.357-.288.27-.029.541-.066.8-.1a.033.033,0,0,1,.016,0c.174-.026.351-.053.526-.077.585-.1,1.156-.2,1.7-.324.122-.027.244-.054.363-.084a.093.093,0,0,0,.021,0c.128-.03.252-.063.378-.1s.246-.065.365-.1c.241-.067.475-.142.7-.22s.443-.154.652-.241c.086-.035.169-.071.252-.107.22-.1.429-.2.622-.306.089-.051.175-.1.258-.152s.167-.1.244-.158.134-.095.2-.142.13-.1.191-.155l.1-.092c.045-.042.089-.086.131-.128s.077-.084.116-.129.068-.077.1-.121a6.068,6.068,0,0,0,.561-.856c.068-.128.137-.262.205-.4.134-.282.265-.588.392-.915.062-.164.125-.333.184-.505s.119-.354.179-.539.116-.375.172-.568.111-.392.164-.595c.026-.1.05-.2.077-.306s.054-.208.078-.316c.05-.211.1-.425.149-.642.024-.11.051-.22.071-.333.145-.681.279-1.4.4-2.14.027-.179.057-.36.083-.545.164-1.052.3-2.152.422-3.276.018-.169.036-.34.051-.508.018-.2.039-.4.056-.6.013-.128.024-.255.037-.383.053-.66.1-1.329.142-2,.018-.276.033-.552.048-.826.006-.148.015-.3.024-.446.015-.386.033-.773.044-1.156.01-.28.018-.56.024-.836,0-.047,0-.092,0-.138,0-.205.009-.408.012-.611,0-.072,0-.143,0-.212,0-.291.006-.577.006-.862C971.8-488.986,971.793-489.227,971.793-489.462Zm-21.52,2.987c-.661,2.379-11.225,3.869-18.812,4.638-4.325.438-7.684.642-7.684.642h0c.032-.013,19.854-7.979,21.2-9.224s4.2-14.009,4.2-14.009S951.31-490.211,950.273-486.475Z" transform="translate(-813.092 600.24)" fill="#fff"/>
            <path id="Trazado_7945" data-name="Trazado 7945" d="M912.567-321.438l-.525-.008Z" transform="translate(-811.03 456.798)" fill="#fff"/>
            <path id="Trazado_7946" data-name="Trazado 7946" d="M911.54-321.455h0Z" transform="translate(-810.702 456.804)" fill="#fff"/>
            <path id="Trazado_7947" data-name="Trazado 7947" d="M914.1-321.417l-.531-.006Z" transform="translate(-812.026 456.783)" fill="#fff"/>
            <path id="Trazado_7948" data-name="Trazado 7948" d="M913.748-364.715l-.168.018h0Z" transform="translate(-812.034 485.058)" fill="#fcadb0"/>
            <path id="Trazado_7949" data-name="Trazado 7949" d="M913.748-364.715l-.168.018h0Z" transform="translate(-812.034 485.058)" fill="#10172a" opacity="0.15"/>
            <path id="Trazado_7950" data-name="Trazado 7950" d="M916.576-365.072l.381-.043Z" transform="translate(-813.991 485.319)" fill="#fcadb0"/>
            <path id="Trazado_7951" data-name="Trazado 7951" d="M916.576-365.072l.381-.043Z" transform="translate(-813.991 485.319)" fill="#10172a" opacity="0.15"/>
            <path id="Trazado_7952" data-name="Trazado 7952" d="M914.738-364.869l.391-.043Z" transform="translate(-812.79 485.187)" fill="#fcadb0"/>
            <path id="Trazado_7953" data-name="Trazado 7953" d="M914.738-364.869l.391-.043Z" transform="translate(-812.79 485.187)" fill="#10172a" opacity="0.15"/>
            <path id="Trazado_7954" data-name="Trazado 7954" d="M913.558-321.424h0Z" transform="translate(-812.017 456.784)" fill="#fcadb0"/>
            <path id="Trazado_7955" data-name="Trazado 7955" d="M913.558-321.424h0Z" transform="translate(-812.017 456.784)" fill="#10172a" opacity="0.15"/>
            <path id="Trazado_7956" data-name="Trazado 7956" d="M913.558-321.424h0Z" transform="translate(-812.017 456.784)" fill="#10172a" opacity="0.15"/>
            <path id="Trazado_7957" data-name="Trazado 7957" d="M915.134-321.4Z" transform="translate(-813.026 456.771)" fill="#fcadb0"/>
            <path id="Trazado_7958" data-name="Trazado 7958" d="M915.134-321.4Z" transform="translate(-813.026 456.771)" fill="#10172a" opacity="0.15"/>
            <path id="Trazado_7959" data-name="Trazado 7959" d="M915.134-321.4Z" transform="translate(-813.026 456.771)" fill="#10172a" opacity="0.15"/>
            <path id="Trazado_7960" data-name="Trazado 7960" d="M911.856-321.449l-.1,0Z" transform="translate(-810.844 456.801)" fill="#fcadb0"/>
            <path id="Trazado_7961" data-name="Trazado 7961" d="M911.856-321.449l-.1,0Z" transform="translate(-810.844 456.801)" fill="#10172a" opacity="0.15"/>
            <path id="Trazado_7962" data-name="Trazado 7962" d="M911.856-321.449l-.1,0Z" transform="translate(-810.844 456.801)" fill="#10172a" opacity="0.15"/>
            <path id="Trazado_7963" data-name="Trazado 7963" d="M911.54-349.981h.075l.1,0,.525.008h0l.531.006h.035c.242-2.223,1.228-11.664.91-15.168l-.052.006-.381.043-.246.027-.391.043-.233.025-.169.018Z" transform="translate(-810.702 485.33)" fill="#fff"/>
            <path id="Trazado_7964" data-name="Trazado 7964" d="M911.54-349.981h.075l.1,0,.525.008h0l.531.006h.035c.242-2.223,1.228-11.664.91-15.168l-.052.006-.381.043-.246.027-.391.043-.233.025-.169.018Z" transform="translate(-810.702 485.33)" fill="#10172a" opacity="0.15"/>
            <path id="Trazado_7965" data-name="Trazado 7965" d="M947.613-412.844c7.586-.769,18.15-2.259,18.811-4.638,1.038-3.736-1.093-17.953-1.093-17.953s-2.85,12.764-4.2,14.009-21.17,9.211-21.2,9.224h0S943.287-412.405,947.613-412.844Z" transform="translate(-829.243 531.247)" fill="#fff"/>
            <path id="Trazado_7966" data-name="Trazado 7966" d="M947.613-412.844c7.586-.769,18.15-2.259,18.811-4.638,1.038-3.736-1.093-17.953-1.093-17.953s-2.85,12.764-4.2,14.009-21.17,9.211-21.2,9.224h0S943.287-412.405,947.613-412.844Z" transform="translate(-829.243 531.247)" fill="#10172a" opacity="0.15"/>
            <path id="Trazado_7967" data-name="Trazado 7967" d="M655.143-444.517c.038.073.076.145.113.219l-.056-.11Z" transform="translate(-643.243 537.179)" fill="#fff"/>
            <path id="Trazado_7968" data-name="Trazado 7968" d="M656.289-442.309c.014.028.029.055.045.083q-.273-.521-.536-1.028C655.958-442.945,656.122-442.628,656.289-442.309Z" transform="translate(-643.671 536.354)" fill="#fff"/>
            <path id="Trazado_7969" data-name="Trazado 7969" d="M657.871-439.282c.134.255.27.512.408.771l-.408-.774Z" transform="translate(-645.025 533.761)" fill="#fff"/>
            <path id="Trazado_7970" data-name="Trazado 7970" d="M697.751-471.408q-.409-.473-.817-.949c.1.12.205.241.309.362Q697.5-471.7,697.751-471.408Z" transform="translate(-670.538 555.362)" fill="#fff"/>
            <path id="Trazado_7971" data-name="Trazado 7971" d="M702.085-466.411q-.588-.666-1.175-1.339.389.448.779.892C701.82-466.71,701.951-466.559,702.085-466.411Z" transform="translate(-673.135 552.353)" fill="#fff"/>
            <path id="Trazado_7972" data-name="Trazado 7972" d="M715.581-451.422c.071.07.137.143.2.213-.263-.279-.528-.564-.794-.85.128.138.258.281.385.418C715.447-451.568,715.515-451.5,715.581-451.422Z" transform="translate(-682.331 542.105)" fill="#fff"/>
            <path id="Trazado_7973" data-name="Trazado 7973" d="M794.143-489.832c2.319-20.543,5.74-38.334,7.443-46.548a38.942,38.942,0,0,0-4.989,6.453,68.651,68.651,0,0,0-7.362,15.66,3.168,3.168,0,0,1,1.494,3.31,3,3,0,0,1-3.189,2.754,2.418,2.418,0,0,1-1-.391,3.089,3.089,0,0,1-1.807-3.443,3.091,3.091,0,0,1,2.725-2.776,69.9,69.9,0,0,1,7.533-16.06,35.094,35.094,0,0,1,7.247-8.575c.25-1.154.393-1.777.393-1.777l-.591.045c-.372.027-.755.059-1.145.092q-.445.034-.9.08l-.291.027c-.223.021-.445.045-.672.066l-.559.059c-.276.03-.556.059-.838.092-.339.039-.681.08-1.022.122-.179.024-.357.045-.533.069-.228.03-.457.065-.686.1-.317.044-.634.085-.95.133-.344.05-.687.1-1.028.16-.357.06-.714.123-1.065.185-.169.033-.336.062-.5.1s-.342.065-.511.1-.34.068-.505.1q-.811.17-1.578.366c-.209.051-.414.107-.615.161-.072.021-.143.039-.212.059-.152.042-.3.086-.448.131s-.3.089-.449.137-.279.089-.413.137c-.089.029-.179.062-.268.091s-.2.071-.3.11a.117.117,0,0,0-.027.009c-.1.039-.2.077-.3.116-.228.089-.448.181-.66.279-.118.054-.234.107-.348.164-.077.035-.151.074-.226.115-.059.027-.115.057-.172.089-.083.044-.166.092-.247.137l-.279.172c-.062.038-.118.078-.176.119a2.024,2.024,0,0,0-.175.125,4.616,4.616,0,0,0-.41.333c-3.577,3.264-16.2,22.453-23.5,31.357h29.526Z" transform="translate(-711.743 600.342)" fill="#fff"/>
            <path id="Trazado_7974" data-name="Trazado 7974" d="M687.5-483.592l-.283-.346h0Z" transform="translate(-664.191 562.925)" fill="#fff"/>
            <path id="Trazado_7975" data-name="Trazado 7975" d="M818.541-285.874c.023-1.016.038-2.022.036-3.006q0-1.909.023-3.831H801.985c-.221,2.269-.539,4.55-.92,6.837Z" transform="translate(-738.549 438.031)" fill="#fff"/>
            <path id="Trazado_7976" data-name="Trazado 7976" d="M678.636-466.689h.7c-.7-.677-1.436-1.412-2.194-2.194q-.389-.4-.785-.811l-.466-.494c-.143-.148-.283-.3-.426-.451l0,0c-.068-.069-.134-.142-.2-.213s-.133-.145-.2-.22c-.127-.136-.257-.28-.385-.418-.353-.381-.706-.761-1.063-1.152-.114-.127-.23-.253-.346-.38l-.447-.494q-.448-.5-.9-1-.478-.535-.956-1.078c-.135-.148-.266-.3-.4-.446q-.39-.444-.779-.892c-.188-.217-.376-.432-.563-.649q-.255-.295-.507-.587c-.1-.121-.208-.242-.309-.362q-.741-.865-1.465-1.727l-.347-.412c-.322-.384-.637-.763-.951-1.142.129.156.257.31.387.467l-12.566,11.605q-.106-.208-.212-.412c.07.138.142.278.215.418l.247.48c.065.125.13.251.2.378l.057.109.056.11.114.219q.263.508.535,1.029l.184.349.408.774q.658,1.24,1.366,2.543.331.609.672,1.227.521.945,1.065,1.907l.231.406.23.406c0,.006.009.016.012.021.294.512.591,1.026.891,1.54l.062.108q.327.557.661,1.115c.11.187.222.375.335.559q.335.557.679,1.115l.187.3c.052.085.1.17.158.256q.518.833,1.05,1.662c.117.184.234.366.353.549l0,0c.176.268.348.532.523.8q.521.794,1.058,1.575c.089.131.179.258.268.39.179.258.36.514.539.77.091.128.18.255.273.383.36.505.722,1.008,1.094,1.5.185.247.369.494.553.735.093.121.188.241.28.362q.3.4.615.786.672.847,1.355,1.644.423.5.856.979l.285.318c.191.212.381.419.577.622l.289.3c.1.1.193.2.288.3q.29.294.58.579c.1.1.193.191.29.283l.292.276q.289.272.583.535c.107.1.214.193.321.285.086.074.175.148.261.223.185.157.37.311.553.461.4.327.806.633,1.207.919.1.071.2.14.295.208.178.121.357.243.536.356.419.271.838.521,1.258.744.089.047.175.092.265.136s.2.1.294.146c.125.063.25.121.375.176s.256.113.384.166c.235.1.472.188.708.265.07.027.145.051.217.072.1.033.2.065.3.092s.2.059.3.083a.41.41,0,0,0,.057.015c.089.021.175.042.262.06a.159.159,0,0,0,.051.011c.086.021.176.038.265.054a.036.036,0,0,0,.018.005c.155.03.309.054.464.075.074.012.148.021.22.027h.011l.015,0,.054.007.205.021c.031,0,.065,0,.1.006l.078,0c.095.006.188.01.282.013h.081c.148,0,.294.005.44,0l.21,0h.139l.219-.006.142,0,.217-.011.127-.006h.019l.152-.009c.071,0,.138-.009.211-.015l.257-.022.068-.006.032,0,.131-.014.1-.01.284-.034.194-.023.015,0,.091-.012c.078-.011.155-.02.23-.032l.085-.014c.066-.009.129-.02.193-.032l.079-.013q.351-.059.695-.132l.017,0c.065-.014.131-.027.2-.044h0l.057-.015h0Z" transform="translate(-642.006 561.538)" fill="#fff"/>
            <path id="Trazado_7977" data-name="Trazado 7977" d="M688.035-482.942l.324.391Z" transform="translate(-664.725 562.275)" fill="#10172a" opacity="0.15"/>
            <path id="Trazado_7978" data-name="Trazado 7978" d="M665.037-482.733l-.388-.467-.324-.391-.284-.345-12.308,11.368.108.212.1.2q.155.3.315.615.106.2.212.412Z" transform="translate(-641.016 562.924)" fill="#fff"/>
            <path id="Trazado_7979" data-name="Trazado 7979" d="M665.037-482.733l-.388-.467-.324-.391-.284-.345-12.308,11.368.108.212.1.2q.155.3.315.615.106.2.212.412Z" transform="translate(-641.016 562.924)" fill="#10172a" opacity="0.15"/>
            <path id="Trazado_7980" data-name="Trazado 7980" d="M769.859-387.74h12.555l-3.276-11.172a60.145,60.145,0,0,1-7.452-1.541c-4.354-1.35-11.612-13.153-11.17-14.5s4.165-1.233,5.175,0,5.048,2.819,9.858,3.8a4.141,4.141,0,0,1-1.358-2.885,1.254,1.254,0,0,1,.259-.864l-2.242-7.647-4.592-15.66H726.438l9.214,31.424h0l5.584,19.046h28.623Z" transform="translate(-689.807 533.059)" fill="#10172a"/>
            <path id="Trazado_7981" data-name="Trazado 7981" d="M847.174-370.652c-2.112-.975-6.243-2.823-7.322-2.875a1.5,1.5,0,0,0-1.275.582,1.253,1.253,0,0,0-.259.864,4.141,4.141,0,0,0,1.358,2.885c-4.809-.984-8.848-2.57-9.858-3.8s-4.733-1.35-5.175,0,6.816,13.154,11.17,14.5a60.139,60.139,0,0,0,7.452,1.541c1.209.19,2.377.358,3.393.5Z" transform="translate(-753.935 491.102)" fill="#ecb3a0"/>
            <path id="Trazado_7982" data-name="Trazado 7982" d="M896.041-352.718h0l.708-14.988h0l.057-1.2-8.3-.416-.062,1.7-.516,14.2-.117,3.217,7.991,2.578Z" transform="translate(-795.202 488.068)" fill="#fff"/>
            <path id="Trazado_7983" data-name="Trazado 7983" d="M654.1-498.848l1.945-1.8-5.622-6.122-1.227,1.158L637.856-494.9l-1.34,1.265,3.884,7.445,1.394-1.288L654.1-498.847Z" transform="translate(-631.077 577.836)" fill="#fff"/>
            <path id="Trazado_7984" data-name="Trazado 7984" d="M885.517-540.846a19.377,19.377,0,0,0-5.462,3.691q-.1.483-.213,1.023a20.4,20.4,0,0,1,5.675-4.187Z" transform="translate(-789.999 600.093)" fill="#fcadb0"/>
            <path id="Trazado_7985" data-name="Trazado 7985" d="M885.517-540.846a19.377,19.377,0,0,0-5.462,3.691q-.1.483-.213,1.023a20.4,20.4,0,0,1,5.675-4.187Z" transform="translate(-789.999 600.093)" fill="#1d1d1b" opacity="0.26"/>
            <path id="Trazado_7986" data-name="Trazado 7986" d="M845.967-523.006a68.65,68.65,0,0,0-7.362,15.66,3.166,3.166,0,0,1,1.494,3.31,3,3,0,0,1-3.189,2.754,2.4,2.4,0,0,1-.449-.116,2.413,2.413,0,0,0,1,.391,3,3,0,0,0,3.189-2.754,3.168,3.168,0,0,0-1.494-3.31,68.657,68.657,0,0,1,7.362-15.66,38.942,38.942,0,0,1,4.99-6.453q.112-.54.213-1.023A36.854,36.854,0,0,0,845.967-523.006Z" transform="translate(-761.666 593.144)" fill="#fff"/>
            <path id="Trazado_7987" data-name="Trazado 7987" d="M845.967-523.006a68.65,68.65,0,0,0-7.362,15.66,3.166,3.166,0,0,1,1.494,3.31,3,3,0,0,1-3.189,2.754,2.4,2.4,0,0,1-.449-.116,2.413,2.413,0,0,0,1,.391,3,3,0,0,0,3.189-2.754,3.168,3.168,0,0,0-1.494-3.31,68.657,68.657,0,0,1,7.362-15.66,38.942,38.942,0,0,1,4.99-6.453q.112-.54.213-1.023A36.854,36.854,0,0,0,845.967-523.006Z" transform="translate(-761.666 593.144)" fill="#1d1d1b" opacity="0.26"/>
            <path id="Trazado_7988" data-name="Trazado 7988" d="M836.622-513.5a3.166,3.166,0,0,0-1.494-3.31,68.644,68.644,0,0,1,7.362-15.66,36.851,36.851,0,0,1,5.755-7.2,19.375,19.375,0,0,1,5.462-3.691v-1.333a.614.614,0,0,0-.176.042,18.587,18.587,0,0,0-2.034,1,20.563,20.563,0,0,0-2.816,1.932,35.093,35.093,0,0,0-7.247,8.575,69.9,69.9,0,0,0-7.533,16.06,3.092,3.092,0,0,0-2.725,2.776,3.089,3.089,0,0,0,1.807,3.443,2.4,2.4,0,0,0,.45.116A3,3,0,0,0,836.622-513.5Z" transform="translate(-758.188 602.603)" fill="#1d1d1b"/>
            <path id="Trazado_7989" data-name="Trazado 7989" d="M956.286-538.018a7.564,7.564,0,0,1,.892,1.686,11.894,11.894,0,0,1,.659,3.307q.219-.353.436-.688a10.181,10.181,0,0,0-.487-1.872A7.429,7.429,0,0,0,956.286-538.018Z" transform="translate(-839.926 598.246)" fill="#fcadb0"/>
            <path id="Trazado_7990" data-name="Trazado 7990" d="M956.286-538.018a7.564,7.564,0,0,1,.892,1.686,11.894,11.894,0,0,1,.659,3.307q.219-.353.436-.688a10.181,10.181,0,0,0-.487-1.872A7.429,7.429,0,0,0,956.286-538.018Z" transform="translate(-839.926 598.246)" fill="#1d1d1b" opacity="0.26"/>
            <path id="Trazado_7991" data-name="Trazado 7991" d="M945.853-540.955q.089.345.182.641a.676.676,0,0,0,.181.057,3.972,3.972,0,0,1,2.2,1.21A4.448,4.448,0,0,0,945.853-540.955Z" transform="translate(-833.112 600.164)" fill="#fcadb0"/>
            <path id="Trazado_7992" data-name="Trazado 7992" d="M945.853-540.955q.089.345.182.641a.676.676,0,0,0,.181.057,3.972,3.972,0,0,1,2.2,1.21A4.448,4.448,0,0,0,945.853-540.955Z" transform="translate(-833.112 600.164)" fill="#1d1d1b" opacity="0.26"/>
            <path id="Trazado_7993" data-name="Trazado 7993" d="M929.714-436.521a1.745,1.745,0,0,1,.464,1.272c0,.809-.412,1.464-.92,1.464a.6.6,0,0,1-.2-.038c.154.465.458.785.811.785.508,0,.921-.656.921-1.464a1.745,1.745,0,0,0-.465-1.272,44.541,44.541,0,0,1,2.888-14.418q.047-1.313.1-2.487A44.479,44.479,0,0,0,929.714-436.521Z" transform="translate(-822.141 542.509)" fill="#fcadb0"/>
            <path id="Trazado_7994" data-name="Trazado 7994" d="M929.714-436.521a1.745,1.745,0,0,1,.464,1.272c0,.809-.412,1.464-.92,1.464a.6.6,0,0,1-.2-.038c.154.465.458.785.811.785.508,0,.921-.656.921-1.464a1.745,1.745,0,0,0-.465-1.272,44.541,44.541,0,0,1,2.888-14.418q.047-1.313.1-2.487A44.479,44.479,0,0,0,929.714-436.521Z" transform="translate(-822.141 542.509)" fill="#1d1d1b" opacity="0.26"/>
            <path id="Trazado_7995" data-name="Trazado 7995" d="M974.793-456.151a54.331,54.331,0,0,1,.549,14.593.691.691,0,0,1-.077.261c0,.019,0,.037,0,.056,0,.809-.412,1.464-.921,1.464a.6.6,0,0,1-.2-.038c.154.465.458.785.812.785.508,0,.92-.655.92-1.464,0-.018,0-.037,0-.056a.682.682,0,0,0,.077-.262A54.325,54.325,0,0,0,975.4-455.4a18.033,18.033,0,0,0-1.932-5.754,9.117,9.117,0,0,0-1.151-1.574,9.834,9.834,0,0,1,.543.827A18.048,18.048,0,0,1,974.793-456.151Z" transform="translate(-850.397 549.075)" fill="#fff"/>
            <path id="Trazado_7996" data-name="Trazado 7996" d="M974.793-456.151a54.331,54.331,0,0,1,.549,14.593.691.691,0,0,1-.077.261c0,.019,0,.037,0,.056,0,.809-.412,1.464-.921,1.464a.6.6,0,0,1-.2-.038c.154.465.458.785.812.785.508,0,.92-.655.92-1.464,0-.018,0-.037,0-.056a.682.682,0,0,0,.077-.262A54.325,54.325,0,0,0,975.4-455.4a18.033,18.033,0,0,0-1.932-5.754,9.117,9.117,0,0,0-1.151-1.574,9.834,9.834,0,0,1,.543.827A18.048,18.048,0,0,1,974.793-456.151Z" transform="translate(-850.397 549.075)" fill="#1d1d1b" opacity="0.26"/>
            <path id="Trazado_7997" data-name="Trazado 7997" d="M960.831-522.359l.069,15.754c.207.059.408.13.606.207l-.067-15.215a24.446,24.446,0,0,0-.248-4q-.217.335-.436.688C960.82-524.043,960.827-523.177,960.831-522.359Z" transform="translate(-842.845 590.141)" fill="#fff"/>
            <path id="Trazado_7998" data-name="Trazado 7998" d="M960.831-522.359l.069,15.754c.207.059.408.13.606.207l-.067-15.215a24.446,24.446,0,0,0-.248-4q-.217.335-.436.688C960.82-524.043,960.827-523.177,960.831-522.359Z" transform="translate(-842.845 590.141)" fill="#1d1d1b" opacity="0.26"/>
            <path id="Trazado_7999" data-name="Trazado 7999" d="M949.853-465.992a5.627,5.627,0,0,0-.94-.7,4.639,4.639,0,0,0-1.332-.523,4.5,4.5,0,0,0-.71-.1,6.5,6.5,0,0,0-.785-.027,3.7,3.7,0,0,0-1.465.445,4.949,4.949,0,0,0-1.085.767,10.874,10.874,0,0,0-2.318,3.674c-.029.065-.055.131-.083.2q-.053,1.173-.1,2.487.373-.979.792-1.936a10.879,10.879,0,0,1,2.318-3.673,4.969,4.969,0,0,1,1.086-.767,3.7,3.7,0,0,1,1.464-.445,6.524,6.524,0,0,1,.785.026,4.533,4.533,0,0,1,.71.1,4.637,4.637,0,0,1,1.332.523,5.591,5.591,0,0,1,.94.7c.117.106.229.218.338.334-.106-.149-.215-.295-.332-.435A6.331,6.331,0,0,0,949.853-465.992Z" transform="translate(-829.965 552.086)" fill="#fff"/>
            <path id="Trazado_8000" data-name="Trazado 8000" d="M949.853-465.992a5.627,5.627,0,0,0-.94-.7,4.639,4.639,0,0,0-1.332-.523,4.5,4.5,0,0,0-.71-.1,6.5,6.5,0,0,0-.785-.027,3.7,3.7,0,0,0-1.465.445,4.949,4.949,0,0,0-1.085.767,10.874,10.874,0,0,0-2.318,3.674c-.029.065-.055.131-.083.2q-.053,1.173-.1,2.487.373-.979.792-1.936a10.879,10.879,0,0,1,2.318-3.673,4.969,4.969,0,0,1,1.086-.767,3.7,3.7,0,0,1,1.464-.445,6.524,6.524,0,0,1,.785.026,4.533,4.533,0,0,1,.71.1,4.637,4.637,0,0,1,1.332.523,5.591,5.591,0,0,1,.94.7c.117.106.229.218.338.334-.106-.149-.215-.295-.332-.435A6.331,6.331,0,0,0,949.853-465.992Z" transform="translate(-829.965 552.086)" fill="#1d1d1b" opacity="0.26"/>
            <path id="Trazado_8001" data-name="Trazado 8001" d="M933.5-543.627a4.448,4.448,0,0,1,2.559,1.909,6.055,6.055,0,0,1,.661,1.279,14.816,14.816,0,0,1,.646,5.109c0,.094,0,.188,0,.282l.068,15.576a5.6,5.6,0,0,0-4.044,1.588,8.447,8.447,0,0,0-1.246,1.483,16.785,16.785,0,0,0-1.4,2.647,45.834,45.834,0,0,0-3.812,17.618.689.689,0,0,0,.041.24,2.31,2.31,0,0,0-.022.32,1.474,1.474,0,0,0,.718,1.426.607.607,0,0,0,.2.038c.508,0,.92-.656.92-1.464a1.745,1.745,0,0,0-.465-1.272,44.479,44.479,0,0,1,3.6-16.158c.028-.065.055-.131.083-.2a10.874,10.874,0,0,1,2.318-3.674,4.953,4.953,0,0,1,1.085-.767,3.7,3.7,0,0,1,1.465-.445,6.541,6.541,0,0,1,.785.027,4.505,4.505,0,0,1,.71.1,4.64,4.64,0,0,1,1.332.523,5.629,5.629,0,0,1,.94.7,6.386,6.386,0,0,1,.614.646c.117.141.226.286.332.435.078.109.154.219.226.332a9.614,9.614,0,0,1,.5.891c.165.332.314.671.449,1.016.147.376.278.758.4,1.144.129.42.243.845.346,1.273.107.446.2.9.286,1.346a52.106,52.106,0,0,1,.606,13.273,1.577,1.577,0,0,0-.62,1.384,1.474,1.474,0,0,0,.718,1.426.6.6,0,0,0,.2.038c.508,0,.921-.655.921-1.464,0-.019,0-.037,0-.056a.687.687,0,0,0,.077-.261,54.321,54.321,0,0,0-.549-14.593,18.034,18.034,0,0,0-1.932-5.754,9.72,9.72,0,0,0-.543-.827,7.257,7.257,0,0,0-3.26-2.6c-.2-.077-.4-.148-.606-.207l-.069-15.754c0-.817-.011-1.684-.076-2.56a11.905,11.905,0,0,0-.659-3.307,7.563,7.563,0,0,0-.891-1.686,6.59,6.59,0,0,0-1.216-1.316c-.036-.029-.071-.06-.107-.088a5.018,5.018,0,0,0-2.333-1.025.687.687,0,0,0-.277.015C933.282-544.516,933.387-544.046,933.5-543.627Z" transform="translate(-820.755 602.836)" fill="#1d1d1b"/>
            <path id="Trazado_8002" data-name="Trazado 8002" d="M896.2-560.077v4.9c.444,1.291,1.983,1.867,3.985,1.956q.333.014.684.012h0c5.6-.041,13.981-3.36,13-5.522a6.041,6.041,0,0,1-.245-.657c-.009-.026-.017-.057-.025-.084q-.093-.3-.182-.641c-.109-.42-.214-.89-.315-1.4-.514-2.577-.928-6.1-1.2-8.779l0,.018c-.229.452-.467.9-.72,1.341a15.467,15.467,0,0,1-3.75,4.553,15.6,15.6,0,0,1-7.179,2.847,10,10,0,0,1-4.058-.205v1.66Z" transform="translate(-800.685 619.324)" fill="#ecb3a0"/>
            <path id="Trazado_8003" data-name="Trazado 8003" d="M900.26-565.044a15.6,15.6,0,0,0,7.179-2.847,15.466,15.466,0,0,0,3.75-4.553c.254-.44.491-.888.72-1.341l0-.018c-.07-.688-.131-1.319-.183-1.865-3.28,3.355-7.34,6.314-11.491,6.37a6.7,6.7,0,0,1-4.031-1.28v5.328h0A10,10,0,0,0,900.26-565.044Z" transform="translate(-800.684 622.836)" fill="#de8469"/>
            <path id="Trazado_8004" data-name="Trazado 8004" d="M904.878-658.162a26.642,26.642,0,0,1-2.645.356c-16.2,1.353-25.668-13.229-25.668-13.229-1.679,6.8-3.461,9.393-4.6,10.383.019,1.025.072,2.022.1,2.949.178,5.45,1.96,20.373,8.3,24.84a6.7,6.7,0,0,0,4.031,1.28c4.152-.057,8.211-3.016,11.491-6.37a54.982,54.982,0,0,0,7.327-9.592A16.061,16.061,0,0,0,904.1-650a4.123,4.123,0,0,0,4.092-4.122A4.124,4.124,0,0,0,904.878-658.162Z" transform="translate(-784.857 685.123)" fill="#ecb3a0"/>
            <path id="Trazado_8005" data-name="Trazado 8005" d="M935.786-632.88c-8.293-14.956-25.624-22.66-28.138-31.1-2.425-8.177-4.373-21-4.488-21.794a.089.089,0,0,1-.01-.039,37.292,37.292,0,0,0-1.756-8,29.577,29.577,0,0,0-6.337-11.13,21.411,21.411,0,0,0-14.267-6.663,23.427,23.427,0,0,0-15.516,4.76,16.1,16.1,0,0,0-5,6.332c-1.383,3.261-1.38,7.1-1.629,10.614a220.577,220.577,0,0,0-.446,25.181q.037.836.084,1.673.052.946.116,1.891c0,.058.009.116.012.174.136,1.972.312,3.935.536,5.864q.084.72.175,1.433.079.611.165,1.217c.032.229.07.453.1.681.229-.032.458-.066.686-.1.176-.024.354-.045.532-.069.341-.041.684-.083,1.022-.122.282-.033.562-.062.838-.092.188-.021.375-.038.559-.059.227-.021.448-.045.672-.066l.291-.027q.46-.045.9-.08c.389-.033.773-.065,1.145-.092l.591-.045c.378-.027.741-.054,1.091-.075a.805.805,0,0,1,.086-.006c.1-.005.2-.015.306-.021l.223-.012c.066,0,.131-.006.2-.012.175-.011.344-.021.512-.029h.008a18.57,18.57,0,0,1,2.034-1,.608.608,0,0,1,.176-.042v-.327h0v-5.328c-6.343-4.467-8.125-19.39-8.3-24.84-.03-.927-.084-1.924-.1-2.949,1.134-.99,2.917-3.581,4.6-10.383,0,0,9.463,14.582,25.668,13.229a26.649,26.649,0,0,0,2.645-.356,4.123,4.123,0,0,1,3.316,4.043,4.123,4.123,0,0,1-4.092,4.122,16.084,16.084,0,0,1-.877,2.451,54.982,54.982,0,0,1-7.327,9.592c.052.546.113,1.177.183,1.865.275,2.68.688,6.2,1.2,8.779a.691.691,0,0,1,.278-.015,5.02,5.02,0,0,1,2.333,1.025h1.9q.65,0,1.338.021h0c.464.015.942.039,1.43.065l.541.035c.292.021.588.042.886.069.181.016.365.03.553.051s.351.033.529.051.342.035.515.054l.211.023c.241.027.485.057.729.086l.161.018.734.1c.244.033.491.068.735.1.048.006.092.016.134.021.258.039.517.078.779.119s.55.092.827.14c.315.053.627.11.939.166q.981.184,1.948.392l.611.136.607.141c.226.053.452.11.675.163.313.078.618.157.925.238l.392.108c.125.032.25.067.372.1.057.018.11.033.164.048.211.059.419.121.624.183q.763.229,1.493.473c.112.035.222.075.335.113.342.119.679.241,1.006.365.077.027.155.057.228.086s.128.051.191.075l.335.134c.11.045.22.089.33.137.06.024.119.049.175.073.1.042.2.086.3.131a21.949,21.949,0,0,1,2.2,1.109,3.945,3.945,0,0,1,.473.327c.038.033.08.065.118.1a8.877,8.877,0,0,1,1.1,1.121c.051.059.1.121.149.181s.1.125.151.19.1.128.152.2c.2.265.407.55.615.85q.069.1.137.2c.091.135.184.274.275.416h0q.347.532.7,1.123a104.607,104.607,0,0,1,6.437,13.62c.155.375.3.749.452,1.127.1.262.208.526.309.788s.193.491.285.737c.059.149.116.3.172.443.1.263.2.524.3.786.993,2.616,1.906,5.181,2.694,7.528.118.351.234.7.344,1.038.339,1.025.649,2,.925,2.9.033.1.062.2.092.3s.059.2.089.295c.016.049.03.1.045.145.037.121.073.241.107.36.013.045.027.086.038.128.048.169.1.333.143.494q.249.865.446,1.605c.053.2.1.4.148.585.069.267.129.519.18.752v0q.027.117.05.227c.016.059.027.118.039.176.11.526.2,1.112.285,1.748.042.315.077.646.113.988.026.254.05.515.071.78.007.089.014.179.02.269.027.362.051.737.072,1.121s.035.761.051,1.154c.006.2.011.41.018.618.009.4.018.8.021,1.2,0,.235,0,.475,0,.716,0,.285,0,.571-.006.862,0,.069,0,.14,0,.212,0,.2-.007.406-.012.611.257-.3.49-.579.692-.835q.168-.211.34-.452l.008-.011q.17-.237.343-.5l.008-.012q.174-.266.35-.559l.006-.01c.118-.2.237-.4.357-.62a25.7,25.7,0,0,0,1.4-3.016A33.291,33.291,0,0,0,935.786-632.88Z" transform="translate(-775.745 711.648)" fill="#2d3053"/>
          </g>
        </g>
      </g>
    </g>
  </g>
</svg>
