<svg xmlns="http://www.w3.org/2000/svg" width="139.683" height="139.683" viewBox="0 0 139.683 139.683">
  <g id="Grupo_1454" data-name="Grupo 1454" transform="translate(-203.926 -1946)">
    <g id="Grupo_1133" data-name="Grupo 1133" transform="translate(203.926 1946)">
      <circle id="Elipse_520" data-name="Elipse 520" cx="69.841" cy="69.841" r="69.841" fill="#57b8e8"/>
      <circle id="Elipse_521" data-name="Elipse 521" cx="62.739" cy="62.739" r="62.739" transform="translate(7.103 7.103)" fill="#fff"/>
    </g>
    <g id="Grupo_1369" data-name="Grupo 1369" transform="translate(192.57 1869.46)">
      <g id="Grupo_1352" data-name="Grupo 1352" transform="translate(43.846 150.711)">
        <path id="Trazado_8020" data-name="Trazado 8020" d="M93.365,319.8a18.353,18.353,0,0,0,16.268-9.846l-5.976-1.314a3.428,3.428,0,0,1-2.692-3.348V293.72h-15.2v11.569a3.428,3.428,0,0,1-2.692,3.348L77.1,309.952A18.352,18.352,0,0,0,93.365,319.8Z" transform="translate(-77.098 -293.72)" fill="#ffbeaa"/>
      </g>
      <g id="Grupo_1353" data-name="Grupo 1353" transform="translate(60.066 150.711)">
        <path id="Trazado_8021" data-name="Trazado 8021" d="M160.435,308.637a3.428,3.428,0,0,1-2.692-3.348V293.72H150.1V319.8h.047a18.352,18.352,0,0,0,16.268-9.846Z" transform="translate(-150.097 -293.72)" fill="#faa68e"/>
      </g>
      <g id="Grupo_1356" data-name="Grupo 1356" transform="translate(37.516 133.796)">
        <g id="Grupo_1354" data-name="Grupo 1354" transform="translate(0)">
          <circle id="Elipse_578" data-name="Elipse 578" cx="6.284" cy="6.284" r="6.284" fill="#ffbeaa"/>
        </g>
        <g id="Grupo_1355" data-name="Grupo 1355" transform="translate(32.627)">
          <circle id="Elipse_579" data-name="Elipse 579" cx="6.284" cy="6.284" r="6.284" fill="#faa68e"/>
        </g>
      </g>
      <g id="Grupo_1357" data-name="Grupo 1357" transform="translate(42.192 115.997)">
        <path id="Trazado_8022" data-name="Trazado 8022" d="M88.295,181.665H86.861a17.2,17.2,0,0,1-17.2-17.2V154.7a17.2,17.2,0,0,1,17.2-17.2h1.434a17.2,17.2,0,0,1,17.2,17.2v9.765A17.2,17.2,0,0,1,88.295,181.665Z" transform="translate(-69.657 -137.493)" fill="#ffcdbe"/>
      </g>
      <g id="Grupo_1358" data-name="Grupo 1358" transform="translate(60.066 115.997)">
        <path id="Trazado_8023" data-name="Trazado 8023" d="M150.861,137.493H150.1v44.172h.764a17.2,17.2,0,0,0,17.2-17.2V154.7a17.2,17.2,0,0,0-17.2-17.2Z" transform="translate(-150.097 -137.493)" fill="#ffbeaa"/>
      </g>
      <g id="Grupo_1359" data-name="Grupo 1359" transform="translate(39.888 109.856)">
        <path id="Trazado_8024" data-name="Trazado 8024" d="M73.315,128.545s11.691,10.941,26.421,11.534V128.589c0-10.346-9.055-18.733-20.225-18.733s-20.225,8.387-20.225,18.733V140.08A83.458,83.458,0,0,0,73.315,128.545Z" transform="translate(-59.286 -109.856)" fill="#555a66"/>
      </g>
      <g id="Grupo_1360" data-name="Grupo 1360" transform="translate(60.066 109.856)">
        <path id="Trazado_8025" data-name="Trazado 8025" d="M170.369,128.589c0-10.346-9.055-18.733-20.225-18.733H150.1v23.29c4.824,3.07,12.077,6.6,20.272,6.933Z" transform="translate(-150.097 -109.856)" fill="#333940"/>
      </g>
      <g id="Grupo_1361" data-name="Grupo 1361" transform="translate(34.346 166.119)">
        <path id="Trazado_8026" data-name="Trazado 8026" d="M89.4,395.863,87.326,371.5a7.265,7.265,0,0,0-5.677-6.456l-9.016-1.982a13.45,13.45,0,0,1-25.039,0l-9.016,1.982a7.258,7.258,0,0,0-4.231,2.709,56.862,56.862,0,0,0,49.252,28.4A57.572,57.572,0,0,0,89.4,395.863Z" transform="translate(-34.346 -363.06)" fill="#ffce00"/>
      </g>
      <g id="Grupo_1362" data-name="Grupo 1362" transform="translate(60.066 166.119)">
        <path id="Trazado_8027" data-name="Trazado 8027" d="M179.425,395.863l-2.07-24.365a7.265,7.265,0,0,0-5.677-6.456l-9.016-1.982a13.449,13.449,0,0,1-12.52,8.534H150.1v19.479a56.674,56.674,0,0,0,23.532,5.082,57.572,57.572,0,0,0,5.8-.292Z" transform="translate(-150.096 -363.06)" fill="#fdba12"/>
      </g>
      <g id="Grupo_1363" data-name="Grupo 1363" transform="translate(45.296 163.138)">
        <path id="Trazado_8028" data-name="Trazado 8028" d="M98.442,364.14A15.578,15.578,0,0,1,83.856,354.2a3.333,3.333,0,1,1,6.205-2.436,9,9,0,0,0,16.761,0,3.333,3.333,0,1,1,6.205,2.436A15.578,15.578,0,0,1,98.442,364.14Z" transform="translate(-83.625 -349.645)" fill="#fff"/>
      </g>
      <g id="Grupo_1364" data-name="Grupo 1364" transform="translate(60.066 163.138)">
        <path id="Trazado_8029" data-name="Trazado 8029" d="M162.845,349.877a3.333,3.333,0,0,0-4.32,1.885,8.951,8.951,0,0,1-8.381,5.713H150.1v6.666h.047A15.578,15.578,0,0,0,164.73,354.2a3.333,3.333,0,0,0-1.885-4.32Z" transform="translate(-150.097 -349.646)" fill="#e9edf5"/>
      </g>
      <path id="Trazado_8030" data-name="Trazado 8030" d="M262.844,168.656l16.473-28.146a6.1,6.1,0,0,1,10.524,0l16.473,28.145a6.1,6.1,0,0,1-5.262,9.177H268.106a6.1,6.1,0,0,1-5.262-9.177Z" transform="translate(-177.068 -21.496)" fill="#fe6a16"/>
      <path id="Trazado_8031" data-name="Trazado 8031" d="M385.144,168.661,368.67,140.515a6.041,6.041,0,0,0-5.321-3.015v40.338h16.533a6.1,6.1,0,0,0,5.262-9.177Z" transform="translate(-255.897 -21.501)" fill="#f24500"/>
      <path id="Trazado_8032" data-name="Trazado 8032" d="M256.416,169.5a9.43,9.43,0,0,1-8.138-14.193l16.473-28.146a9.43,9.43,0,0,1,16.277,0L297.5,155.306a9.43,9.43,0,0,1-8.138,14.194Zm-5.262-12.51,2.876,1.684a2.764,2.764,0,0,0,2.385,4.16h32.947a2.764,2.764,0,0,0,2.385-4.16l-16.473-28.145a2.764,2.764,0,0,0-4.771,0l-16.473,28.146Z" transform="translate(-165.379 -9.83)" fill="#e9edf5"/>
      <path id="Trazado_8033" data-name="Trazado 8033" d="M388.02,155.306,371.547,127.16a9.34,9.34,0,0,0-8.138-4.666l-.06,0v6.665h.06a2.717,2.717,0,0,1,2.385,1.368l16.473,28.145a2.764,2.764,0,0,1-2.385,4.16H363.349V169.5h16.533a9.43,9.43,0,0,0,8.138-14.194Z" transform="translate(-255.897 -9.83)" fill="#b6c1d3"/>
      <g id="Grupo_1365" data-name="Grupo 1365" transform="translate(104.178 126.618)">
        <path id="Trazado_8034" data-name="Trazado 8034" d="M348.616,185.292h6.666v14.4h-6.666Z" transform="translate(-348.616 -185.292)" fill="#fff"/>
      </g>
      <g id="Grupo_1366" data-name="Grupo 1366" transform="translate(107.452 126.618)">
        <path id="Trazado_8035" data-name="Trazado 8035" d="M363.349,185.292h3.392v14.4h-3.392Z" transform="translate(-363.349 -185.292)" fill="#e9edf5"/>
      </g>
      <g id="Grupo_1367" data-name="Grupo 1367" transform="translate(104.178 143.311)">
        <path id="Trazado_8036" data-name="Trazado 8036" d="M348.616,260.418h6.666v6.2h-6.666Z" transform="translate(-348.616 -260.418)" fill="#fff"/>
      </g>
      <g id="Grupo_1368" data-name="Grupo 1368" transform="translate(107.452 143.311)">
        <path id="Trazado_8037" data-name="Trazado 8037" d="M363.349,260.418h3.392v6.2h-3.392Z" transform="translate(-363.349 -260.418)" fill="#e9edf5"/>
      </g>
    </g>
  </g>
</svg>
