<svg xmlns="http://www.w3.org/2000/svg" width="307.333" height="230.257" viewBox="0 0 307.333 230.257">
  <g id="Grupo_1331" data-name="Grupo 1331" transform="translate(-538.22 711.648)">
    <g id="Grupo_1329" data-name="Grupo 1329" transform="translate(538.22 -666.472)">
      <rect id="Rectángulo_792" data-name="Rectángulo 792" width="231.815" height="144.227" rx="22.096" transform="translate(37.759 0)" fill="#3d4166"/>
      <rect id="Rectángulo_793" data-name="Rectángulo 793" width="213.245" height="128.133" rx="19.975" transform="translate(47.044 8.047)" fill="#f6f6f6"/>
      <rect id="Rectángulo_794" data-name="Rectángulo 794" width="202.103" height="116.991" rx="18.582" transform="translate(52.615 13.618)" fill="#7ab6f5"/>
      <path id="Trazado_7891" data-name="Trazado 7891" d="M583.1-253.273,538.22-219.847H845.553l-44.878-33.426Z" transform="translate(-538.22 397.5)" fill="#b4d3ff"/>
      <path id="Trazado_7892" data-name="Trazado 7892" d="M538.22-172.379a7.428,7.428,0,0,0,7.428,7.428H838.125a7.428,7.428,0,0,0,7.428-7.428H538.22Z" transform="translate(-538.22 350.032)" fill="#3d4166"/>
      <g id="Grupo_1328" data-name="Grupo 1328" transform="translate(46.081 148.464)">
        <path id="Trazado_7893" data-name="Trazado 7893" d="M729.2-243.018h-9.635a7.093,7.093,0,0,0-3.319.614l-2.884,2.4c-.445.371.412.674,1.919.674h10.185A6.521,6.521,0,0,0,728.85-240l2.335-2.4C731.516-242.744,730.627-243.018,729.2-243.018Z" transform="translate(-687.005 243.018)" fill="#3d4166"/>
        <path id="Trazado_7894" data-name="Trazado 7894" d="M779.15-243.018h-9.635a5.9,5.9,0,0,0-3.128.614l-2.139,2.4c-.33.371.622.674,2.129.674h10.186c1.507,0,2.929-.3,3.174-.674l1.589-2.4C781.55-242.744,780.575-243.018,779.15-243.018Z" transform="translate(-716.895 243.018)" fill="#3d4166"/>
        <path id="Trazado_7895" data-name="Trazado 7895" d="M829.078-243.018h-9.635c-1.426,0-2.74.274-2.938.614l-1.393,2.4c-.215.371.831.674,2.338.674h10.185c1.507,0,2.835-.3,2.965-.674l.843-2.4C831.563-242.744,830.5-243.018,829.078-243.018Z" transform="translate(-746.763 243.018)" fill="#3d4166"/>
        <path id="Trazado_7896" data-name="Trazado 7896" d="M878.984-243.018h-9.635c-1.426,0-2.655.274-2.747.614l-.648,2.4c-.1.371,1.04.674,2.547.674h10.185c1.507,0,2.741-.3,2.756-.674l.1-2.4C881.554-242.744,880.41-243.018,878.984-243.018Z" transform="translate(-776.611 243.018)" fill="#3d4166"/>
        <path id="Trazado_7897" data-name="Trazado 7897" d="M931.475-242.4c-.092-.341-1.321-.614-2.747-.614h-9.636c-1.425,0-2.57.274-2.556.614l.1,2.4c.015.371,1.249.674,2.756.674h10.185c1.507,0,2.647-.3,2.547-.674Z" transform="translate(-806.296 243.018)" fill="#3d4166"/>
        <path id="Trazado_7898" data-name="Trazado 7898" d="M980.47-242.4c-.2-.341-1.512-.614-2.938-.614H967.9c-1.425,0-2.485.274-2.366.614l.843,2.4c.13.371,1.458.674,2.965.674h10.186c1.507,0,2.553-.3,2.338-.674Z" transform="translate(-835.04 243.018)" fill="#3d4166"/>
        <path id="Trazado_7899" data-name="Trazado 7899" d="M1029.443-242.4a5.905,5.905,0,0,0-3.129-.614h-9.635c-1.426,0-2.4.274-2.175.614l1.589,2.4c.245.371,1.667.674,3.174.674h10.185c1.507,0,2.459-.3,2.129-.674Z" transform="translate(-863.764 243.018)" fill="#3d4166"/>
        <path id="Trazado_7900" data-name="Trazado 7900" d="M1081.282-240l-2.884-2.4a7.092,7.092,0,0,0-3.319-.614h-9.636c-1.425,0-2.315.274-1.984.614l2.334,2.4a6.524,6.524,0,0,0,3.384.674h10.186C1080.87-239.329,1081.727-239.632,1081.282-240Z" transform="translate(-892.469 243.018)" fill="#3d4166"/>
        <path id="Trazado_7901" data-name="Trazado 7901" d="M713.494-229.9H703.05a7.6,7.6,0,0,0-3.666.723l-3.4,2.835c-.527.439.372.8,2.013.8h11.093c1.641,0,3.321-.359,3.748-.8l2.755-2.835C715.979-229.574,715.039-229.9,713.494-229.9Z" transform="translate(-676.785 235.318)" fill="#3d4166"/>
        <path id="Trazado_7902" data-name="Trazado 7902" d="M767.776-229.9H757.332c-1.545,0-3.085.322-3.442.723l-2.525,2.835c-.39.439.62.8,2.261.8H764.72c1.641,0,3.21-.359,3.5-.8l1.875-2.835C770.361-229.574,769.321-229.9,767.776-229.9Z" transform="translate(-709.325 235.318)" fill="#3d4166"/>
        <path id="Trazado_7903" data-name="Trazado 7903" d="M822.032-229.9H811.588c-1.545,0-2.984.322-3.217.723l-1.645,2.835c-.255.439.868.8,2.509.8h11.093c1.641,0,3.1-.359,3.252-.8l1-2.835C824.716-229.574,823.577-229.9,822.032-229.9Z" transform="translate(-741.838 235.318)" fill="#3d4166"/>
        <path id="Trazado_7904" data-name="Trazado 7904" d="M876.259-229.9H865.816c-1.545,0-2.885.322-2.993.723l-.765,2.835c-.118.439,1.115.8,2.756.8h11.094c1.641,0,2.986-.359,3-.8l.115-2.835C879.044-229.574,877.8-229.9,876.259-229.9Z" transform="translate(-774.323 235.318)" fill="#3d4166"/>
        <path id="Trazado_7905" data-name="Trazado 7905" d="M933.287-229.173c-.108-.4-1.447-.723-2.993-.723H919.85c-1.545,0-2.785.322-2.769.723l.115,2.835c.018.439,1.363.8,3,.8h11.093c1.642,0,2.875-.359,2.756-.8Z" transform="translate(-806.615 235.318)" fill="#3d4166"/>
        <path id="Trazado_7906" data-name="Trazado 7906" d="M986.432-229.173c-.233-.4-1.672-.723-3.217-.723H972.771c-1.545,0-2.685.322-2.544.723l1,2.835c.154.439,1.611.8,3.252.8h11.093c1.641,0,2.764-.359,2.509-.8Z" transform="translate(-837.794 235.318)" fill="#3d4166"/>
        <path id="Trazado_7907" data-name="Trazado 7907" d="M1039.553-229.173c-.357-.4-1.9-.723-3.442-.723h-10.444c-1.545,0-2.585.322-2.32.723l1.875,2.835c.29.439,1.859.8,3.5.8h11.093c1.641,0,2.651-.359,2.261-.8Z" transform="translate(-868.948 235.318)" fill="#3d4166"/>
        <path id="Trazado_7908" data-name="Trazado 7908" d="M1096.053-226.339l-3.4-2.835a7.6,7.6,0,0,0-3.666-.723h-10.444c-1.545,0-2.485.322-2.1.723l2.755,2.835c.426.439,2.106.8,3.748.8h11.093C1095.682-225.54,1096.581-225.9,1096.053-226.339Z" transform="translate(-900.077 235.318)" fill="#3d4166"/>
        <path id="Trazado_7909" data-name="Trazado 7909" d="M694.794-214.369h-11.4a8.223,8.223,0,0,0-4.089.862l-4.08,3.4c-.634.528.306.961,2.108.961h12.179c1.8,0,3.684-.433,4.2-.961l3.3-3.4C697.475-213.986,696.48-214.369,694.794-214.369Z" transform="translate(-664.578 226.207)" fill="#3d4166"/>
        <path id="Trazado_7910" data-name="Trazado 7910" d="M754.235-214.369h-11.4c-1.687,0-3.4.383-3.822.862l-3.025,3.4c-.47.528.6.961,2.407.961h12.179c1.8,0,3.549-.433,3.9-.961l2.247-3.4C757.036-213.986,755.922-214.369,754.235-214.369Z" transform="translate(-700.285 226.207)" fill="#3d4166"/>
        <path id="Trazado_7911" data-name="Trazado 7911" d="M813.642-214.369h-11.4c-1.687,0-3.277.383-3.554.862l-1.971,3.4c-.307.528.9.961,2.7.961H811.6c1.8,0,3.415-.433,3.6-.961l1.193-3.4C816.562-213.986,815.329-214.369,813.642-214.369Z" transform="translate(-735.958 226.207)" fill="#3d4166"/>
        <path id="Trazado_7912" data-name="Trazado 7912" d="M873.012-214.369h-11.4c-1.687,0-3.158.383-3.287.862l-.916,3.4c-.142.528,1.2.961,3,.961h12.179c1.8,0,3.28-.433,3.3-.961l.138-3.4C876.05-213.986,874.7-214.369,873.012-214.369Z" transform="translate(-771.593 226.207)" fill="#3d4166"/>
        <path id="Trazado_7913" data-name="Trazado 7913" d="M935.434-213.507c-.129-.478-1.6-.862-3.287-.862h-11.4c-1.687,0-3.038.383-3.019.862l.138,3.4c.021.528,1.5.961,3.3.961h12.179c1.8,0,3.146-.433,3-.961Z" transform="translate(-806.994 226.207)" fill="#3d4166"/>
        <path id="Trazado_7914" data-name="Trazado 7914" d="M993.5-213.507c-.278-.478-1.868-.862-3.554-.862h-11.4c-1.687,0-2.919.383-2.752.862l1.193,3.4c.186.528,1.8.961,3.6.961h12.179c1.8,0,3.011-.433,2.7-.961Z" transform="translate(-841.058 226.207)" fill="#3d4166"/>
        <path id="Trazado_7915" data-name="Trazado 7915" d="M1051.533-213.507c-.426-.478-2.135-.862-3.822-.862h-11.4c-1.687,0-2.8.383-2.484.862l2.247,3.4c.35.528,2.1.961,3.9.961h12.179c1.8,0,2.877-.433,2.406-.961Z" transform="translate(-875.089 226.207)" fill="#3d4166"/>
        <path id="Trazado_7916" data-name="Trazado 7916" d="M1113.614-210.111l-4.08-3.4a8.22,8.22,0,0,0-4.089-.862h-11.4c-1.687,0-2.681.383-2.216.862l3.3,3.4c.513.528,2.4.961,4.2.961h12.179C1113.308-209.149,1114.248-209.582,1113.614-210.111Z" transform="translate(-909.088 226.207)" fill="#3d4166"/>
        <path id="Trazado_7917" data-name="Trazado 7917" d="M672.154-195.711H659.6a9.018,9.018,0,0,0-4.618,1.046l-4.977,4.144c-.778.648.2,1.18,2.2,1.18h13.5c2,0,4.134-.532,4.763-1.18l4.029-4.144C675.064-195.246,674.011-195.711,672.154-195.711Z" transform="translate(-649.741 215.258)" fill="#3d4166"/>
        <path id="Trazado_7918" data-name="Trazado 7918" d="M846.178-194.746c-.311-.536-1.95-.965-3.665-.965H724.937c-1.715,0-3.488.429-3.965.965l-3.842,4.314c-.534.6.524,1.09,2.369,1.09H845.974c1.845,0,3.055-.492,2.708-1.09Z" transform="translate(-689.203 215.258)" fill="#3d4166"/>
        <path id="Trazado_7919" data-name="Trazado 7919" d="M1065.955-194.665c-.517-.581-2.437-1.046-4.294-1.046h-12.55c-1.857,0-3.055.465-2.67,1.046l2.742,4.144c.428.648,2.4,1.18,4.4,1.18h13.5c2,0,3.143-.532,2.566-1.18Z" transform="translate(-882.48 215.258)" fill="#3d4166"/>
        <path id="Trazado_7920" data-name="Trazado 7920" d="M1134.836-190.521l-4.977-4.144a9.018,9.018,0,0,0-4.618-1.046h-12.55c-1.857,0-2.91.465-2.346,1.046l4.029,4.144c.63.648,2.766,1.18,4.763,1.18h13.5C1134.634-189.341,1135.614-189.873,1134.836-190.521Z" transform="translate(-919.931 215.258)" fill="#3d4166"/>
      </g>
    </g>
    <g id="Grupo_1330" data-name="Grupo 1330" transform="translate(572.358 -711.648)">
      <path id="Trazado_7921" data-name="Trazado 7921" d="M882.423-317.924c-1.607.742-8.579,2.843-10.594,2.287s-5.358-4.857-5.358-4.857l.139-3.832c-1.21-.165-2.6-.365-4.042-.592l3.9,13.308H851.515q-.03,2.289-.027,4.563c0,1.172-.016,2.371-.043,3.581h36.7c-.038-4.69-.072-9.62-.1-14.646A26.06,26.06,0,0,0,882.423-317.924Z" transform="translate(-756.157 484.717)" fill="#fcadb0"/>
      <path id="Trazado_7922" data-name="Trazado 7922" d="M862.574-470.475c1.285.062,6.206,2.264,8.722,3.425l.073-2.03,9.889.495-.067,1.431.2-.021.278-.03.466-.051.293-.033.454-.051c3.416-.388,6.87-.85,8.874-1.307l.321-.074c.034-12.308.165-23.686.457-31.839a53.063,53.063,0,0,0-3.44,17.175,2.078,2.078,0,0,1,.554,1.515c0,.963-.491,1.744-1.1,1.744-.421,0-.783-.382-.966-.935a1.756,1.756,0,0,1-.855-1.7,2.734,2.734,0,0,1,.026-.381.82.82,0,0,1-.048-.286,54.6,54.6,0,0,1,4.542-20.987,19.982,19.982,0,0,1,1.662-3.153,58.921,58.921,0,0,1,6.219-22.548,17.643,17.643,0,0,0-.769-6.086,7.216,7.216,0,0,0-.787-1.523,4.732,4.732,0,0,0-2.616-1.442.807.807,0,0,1-.215-.068c.01.032.02.069.03.1a7.2,7.2,0,0,0,.292.783c1.163,2.575-8.822,6.529-15.491,6.578h0q-.418,0-.814-.014c-2.385-.106-4.219-.791-4.747-2.33v-5.208a24.306,24.306,0,0,0-6.76,4.987c-2.029,9.786-6.1,30.978-8.867,55.449l2.671,9.109A1.789,1.789,0,0,1,862.574-470.475Z" transform="translate(-760.228 610.531)" fill="#fcadb0"/>
      <path id="Trazado_7923" data-name="Trazado 7923" d="M952.781-541.812a7.844,7.844,0,0,1,1.448,1.568,8.852,8.852,0,0,1,1.787,2.9,12.141,12.141,0,0,1,.58,2.23,36.735,36.735,0,0,1,4.549-5.732c-1.624-.273-3.244-.5-4.816-.665C955.111-541.647,953.925-541.745,952.781-541.812Z" transform="translate(-815.62 611.989)" fill="#fcadb0"/>
      <path id="Trazado_7924" data-name="Trazado 7924" d="M885.062-541.673h0c-.2.01-.4.021-.609.035-.078.008-.156.011-.234.015l-.266.014c-.121.007-.241.019-.365.025a.932.932,0,0,0-.1.007c-.418.024-.85.057-1.3.089,0,0-.169.741-.468,2.116a24.525,24.525,0,0,1,3.354-2.3Z" transform="translate(-773.919 611.907)" fill="#fcadb0"/>
      <path id="Trazado_7925" data-name="Trazado 7925" d="M741.685-346.282h0Z" transform="translate(-691.704 497.253)" fill="#10172a" opacity="0.15"/>
      <path id="Trazado_7926" data-name="Trazado 7926" d="M743.824-346.364l-.151.007Z" transform="translate(-692.917 497.301)" fill="#10172a" opacity="0.15"/>
      <path id="Trazado_7927" data-name="Trazado 7927" d="M745.959-346.514l-.081.007Z" transform="translate(-694.211 497.389)" fill="#10172a" opacity="0.15"/>
      <path id="Trazado_7928" data-name="Trazado 7928" d="M749.972-347.265q.466-.077.922-.172-.409.087-.828.157Z" transform="translate(-696.613 497.931)" fill="#10172a" opacity="0.15"/>
      <path id="Trazado_7929" data-name="Trazado 7929" d="M752.994-347.617h0Z" transform="translate(-698.386 498.037)" fill="#10172a" opacity="0.15"/>
      <path id="Trazado_7930" data-name="Trazado 7930" d="M747.643-346.731c.083-.01.167-.019.249-.03l-.018,0C747.8-346.748,747.72-346.74,747.643-346.731Z" transform="translate(-695.246 497.534)" fill="#10172a" opacity="0.15"/>
      <path id="Trazado_7931" data-name="Trazado 7931" d="M739.5-346.293h0Z" transform="translate(-690.466 497.259)" fill="#10172a" opacity="0.15"/>
      <path id="Trazado_7932" data-name="Trazado 7932" d="M737.379-346.444l.022,0-.018,0Z" transform="translate(-689.223 497.348)" fill="#10172a" opacity="0.15"/>
      <path id="Trazado_7933" data-name="Trazado 7933" d="M956.147-541.662c1.572.169,3.192.392,4.816.665q.356-.361.67-.657c-.205-.022-.409-.045-.613-.064s-.421-.043-.631-.061-.443-.042-.659-.06c-.355-.032-.708-.057-1.056-.082l-.644-.042c-.581-.032-1.151-.061-1.7-.078h0q-.818-.026-1.593-.025h-2.259c.043.034.085.071.128.105C953.743-541.894,954.929-541.8,956.147-541.662Z" transform="translate(-815.439 612.139)" fill="#fcadb0"/>
      <path id="Trazado_7934" data-name="Trazado 7934" d="M956.147-541.662c1.572.169,3.192.392,4.816.665q.356-.361.67-.657c-.205-.022-.409-.045-.613-.064s-.421-.043-.631-.061-.443-.042-.659-.06c-.355-.032-.708-.057-1.056-.082l-.644-.042c-.581-.032-1.151-.061-1.7-.078h0q-.818-.026-1.593-.025h-2.259c.043.034.085.071.128.105C953.743-541.894,954.929-541.8,956.147-541.662Z" transform="translate(-815.439 612.139)" fill="#10172a" opacity="0.15"/>
      <path id="Trazado_7935" data-name="Trazado 7935" d="M641.981-529.086a57.675,57.675,0,0,0-6.816-7.185c-4.326-4.635-9.149-9.769-11.928-9.91s4.151,8.516,3.4,9.354-5.874.3-5.8,7.014,3.309,9.373,6.613,11.4c.141.211.31.5.511.861.266.476.584,1.08.95,1.788l13.513-12.755C642.277-528.706,642.124-528.9,641.981-529.086Z" transform="translate(-620.837 614.553)" fill="#ecb3a0"/>
      <path id="Trazado_7936" data-name="Trazado 7936" d="M940.02-316.42c.026,5.025.06,9.956.1,14.646h29.719c.009-.383.017-.767.022-1.151.015-.75.029-1.505.043-2.256,0-.213.006-.429.01-.644l.025-1.215,0-.209.11-5.437c0-.2.007-.39.011-.585q.009-.521.021-1.02l0-.169c0-.128,0-.252.006-.376,0-.18.007-.355.011-.528l0-.138c0-.3.011-.583.017-.86v-.011c0-.1,0-.2,0-.3,0-.171.007-.34.011-.5,0-.088,0-.176.006-.262,0-.173.007-.34.011-.5,0-.084,0-.165,0-.243s0-.159.007-.237l.01-.6c0-.057,0-.114,0-.171l.017-.783.015-.737,0-.241c0-.067,0-.135,0-.2,0-.047,0-.089,0-.131l0-.081,0-.163,0-.184,0-.226a.777.777,0,0,1,0-.1s-5.682,5.061-9.7,5.8C957.733-315.715,946.859-316.284,940.02-316.42Z" transform="translate(-808.132 483.025)" fill="#fff"/>
      <path id="Trazado_7937" data-name="Trazado 7937" d="M948.248-498.147l-.081-18.554c0-.112,0-.224,0-.336a58.918,58.918,0,0,0-6.219,22.548,10.07,10.07,0,0,1,1.484-1.766A6.669,6.669,0,0,1,948.248-498.147Z" transform="translate(-809.262 597.451)" fill="#fff"/>
      <path id="Trazado_7938" data-name="Trazado 7938" d="M899.127-321.434h-.042l-.633-.007h-.005l-.625-.009-.118,0-.09,0-.286,6.063-9.519-3.07s3.343,4.3,5.358,4.857,8.986-1.545,10.594-2.287a26.067,26.067,0,0,1,5.622-.186q-.014-2.664-.024-5.355C906.016-321.409,902.283-321.4,899.127-321.434Z" transform="translate(-777.495 482.685)" fill="#fcadb0"/>
      <path id="Trazado_7939" data-name="Trazado 7939" d="M899.127-321.434h-.042l-.633-.007h-.005l-.625-.009-.118,0-.09,0-.286,6.063-9.519-3.07s3.343,4.3,5.358,4.857,8.986-1.545,10.594-2.287a26.067,26.067,0,0,1,5.622-.186q-.014-2.664-.024-5.355C906.016-321.409,902.283-321.4,899.127-321.434Z" transform="translate(-777.495 482.685)" fill="#10172a" opacity="0.15"/>
      <path id="Trazado_7940" data-name="Trazado 7940" d="M939.962-321.774q.011,2.689.024,5.355c6.839.136,17.713.7,20.522.186,4.017-.742,9.7-5.8,9.7-5.8L942.9-321.8C941.975-321.791,940.987-321.782,939.962-321.774Z" transform="translate(-808.098 483.025)" fill="#fff"/>
      <path id="Trazado_7941" data-name="Trazado 7941" d="M939.962-321.774q.011,2.689.024,5.355c6.839.136,17.713.7,20.522.186,4.017-.742,9.7-5.8,9.7-5.8L942.9-321.8C941.975-321.791,940.987-321.782,939.962-321.774Z" transform="translate(-808.098 483.025)" fill="#10172a" opacity="0.15"/>
      <path id="Trazado_7942" data-name="Trazado 7942" d="M914.066-364.758l.278-.03Z" transform="translate(-792.902 508.112)" fill="#fff"/>
      <path id="Trazado_7943" data-name="Trazado 7943" d="M915.866-364.958l.293-.033Z" transform="translate(-793.959 508.231)" fill="#fff"/>
      <path id="Trazado_7944" data-name="Trazado 7944" d="M982.614-479.593c0-.486-.014-.963-.025-1.434-.008-.249-.014-.493-.021-.737-.019-.469-.036-.928-.06-1.375s-.053-.9-.086-1.335c-.007-.107-.016-.214-.024-.32q-.037-.474-.084-.929c-.043-.408-.085-.8-.135-1.177-.1-.758-.209-1.455-.34-2.082-.015-.068-.028-.138-.047-.209q-.028-.131-.059-.271v0c-.061-.278-.132-.578-.215-.9-.053-.222-.114-.456-.177-.7q-.234-.883-.532-1.912c-.057-.192-.114-.387-.17-.588-.014-.05-.031-.1-.046-.152-.041-.142-.083-.284-.127-.429-.017-.057-.035-.115-.053-.173-.036-.117-.07-.233-.106-.351s-.071-.238-.11-.357c-.329-1.081-.7-2.239-1.1-3.46-.131-.4-.269-.819-.41-1.236-.938-2.795-2.026-5.851-3.209-8.967-.116-.312-.238-.623-.357-.936-.068-.173-.135-.35-.205-.528-.11-.293-.224-.583-.34-.878-.121-.312-.245-.627-.369-.938-.178-.45-.355-.9-.539-1.342A124.591,124.591,0,0,0,966-529.53q-.419-.7-.832-1.338h0c-.109-.169-.219-.335-.328-.5q-.081-.122-.163-.241c-.248-.357-.492-.7-.733-1.012-.06-.081-.121-.159-.181-.233s-.121-.152-.18-.226-.117-.146-.178-.216a10.593,10.593,0,0,0-1.307-1.335c-.046-.04-.1-.078-.141-.117a4.7,4.7,0,0,0-.564-.39,26.156,26.156,0,0,0-2.617-1.321c-.117-.053-.237-.106-.358-.156-.067-.029-.137-.059-.209-.088-.131-.057-.262-.11-.393-.163l-.4-.159c-.076-.029-.15-.061-.228-.089s-.181-.071-.272-.1c-.389-.148-.79-.293-1.2-.435-.135-.045-.266-.093-.4-.135q-.871-.293-1.779-.564c-.243-.074-.492-.148-.743-.219-.064-.017-.127-.036-.2-.057-.145-.04-.294-.081-.443-.12l-.467-.129c-.365-.1-.729-.19-1.1-.283-.266-.063-.535-.131-.8-.194l-.724-.168-.728-.162q-1.153-.249-2.321-.467c-.372-.067-.743-.135-1.119-.2-.33-.057-.659-.114-.985-.167s-.619-.1-.927-.142c-.05-.006-.1-.017-.159-.025-.29-.042-.585-.084-.875-.124l-.874-.117-.192-.021c-.291-.035-.581-.071-.868-.1l-.251-.027q-.314.3-.67.657a36.739,36.739,0,0,0-4.549,5.732,29.121,29.121,0,0,1,.3,4.76l.079,18.124a8.643,8.643,0,0,1,3.883,3.1,10.862,10.862,0,0,1,1.371,1.876,21.49,21.49,0,0,1,2.3,6.854,64.712,64.712,0,0,1,.654,17.383.817.817,0,0,1-.092.312c0,.022,0,.044,0,.066,0,.964-.491,1.744-1.1,1.744-.421,0-.783-.381-.966-.935a1.755,1.755,0,0,1-.855-1.7,1.879,1.879,0,0,1,.738-1.648,62.081,62.081,0,0,0-.721-15.811c-.1-.537-.213-1.072-.34-1.6-.122-.509-.258-1.016-.412-1.516-.141-.46-.3-.915-.473-1.363-.161-.411-.338-.815-.535-1.21a11.473,11.473,0,0,0-.6-1.061c-.086-.134-.177-.265-.269-.4-.129-.138-.263-.271-.4-.4a6.68,6.68,0,0,0-1.12-.829,5.525,5.525,0,0,0-1.587-.623,5.411,5.411,0,0,0-.846-.121,7.768,7.768,0,0,0-.935-.031,4.407,4.407,0,0,0-1.744.53,5.916,5.916,0,0,0-1.293.914,12.957,12.957,0,0,0-2.761,4.376q-.5,1.14-.944,2.306c-.291,8.153-.422,19.531-.457,31.839l-.321.074c-2,.457-5.458.919-8.874,1.307l.062-.007c.378,4.174-.8,15.42-1.084,18.069,3.156.035,6.888.025,10.232,0,1.025-.008,2.013-.016,2.937-.026l27.309-.236v-.088s.69.038,1.831.063h.057c.194.007.4.011.619.014.053,0,.11,0,.167,0,1.164.017,2.632.021,4.246-.022l.357-.01.907-.032c.212-.007.425-.017.64-.029l.609-.032c1.318-.074,2.674-.184,4-.343.321-.035.644-.078.959-.124a.039.039,0,0,1,.019,0c.208-.031.418-.063.627-.092.7-.114,1.377-.237,2.028-.386.146-.032.29-.064.433-.1a.108.108,0,0,0,.025-.006c.152-.036.3-.076.45-.114s.293-.078.435-.121c.287-.08.566-.169.836-.262s.528-.183.776-.287c.1-.042.2-.084.3-.127.262-.116.511-.238.74-.365.106-.06.209-.116.308-.181s.2-.124.29-.188.16-.113.234-.169.155-.121.227-.184c.042-.036.084-.074.124-.11s.106-.1.156-.152.091-.1.138-.153.081-.091.124-.145a7.225,7.225,0,0,0,.669-1.02q.122-.228.245-.478c.16-.336.315-.7.467-1.09.074-.2.15-.4.22-.6s.142-.422.213-.642.138-.446.2-.676.131-.467.2-.709c.031-.121.059-.241.091-.364s.064-.248.093-.376c.06-.251.12-.507.177-.765.028-.131.06-.262.085-.4.173-.811.333-1.664.481-2.549.032-.213.068-.429.1-.649.2-1.253.362-2.564.5-3.9.021-.2.043-.4.06-.606.021-.238.046-.475.067-.716.015-.152.029-.3.044-.456.063-.786.12-1.583.169-2.377.021-.329.04-.658.057-.984.007-.177.017-.355.029-.532.017-.46.039-.921.053-1.377.012-.334.021-.667.029-1,0-.055,0-.109,0-.164.006-.244.011-.486.014-.728,0-.086,0-.171,0-.252,0-.347.008-.687.008-1.027C982.618-479.027,982.614-479.314,982.614-479.593Zm-25.635,3.558c-.788,2.834-13.372,4.609-22.409,5.525-5.153.522-9.153.765-9.153.765h0c.038-.015,23.65-9.505,25.255-10.988s5-16.688,5-16.688S958.215-480.486,956.979-476.036Z" transform="translate(-793.568 611.554)" fill="#fff"/>
      <path id="Trazado_7945" data-name="Trazado 7945" d="M912.667-321.437l-.625-.009Z" transform="translate(-791.715 482.679)" fill="#fff"/>
      <path id="Trazado_7946" data-name="Trazado 7946" d="M911.54-321.455l.09,0-.09,0Z" transform="translate(-791.42 482.685)" fill="#fff"/>
      <path id="Trazado_7947" data-name="Trazado 7947" d="M914.2-321.416l-.633-.007Z" transform="translate(-792.61 482.666)" fill="#fff"/>
      <path id="Trazado_7948" data-name="Trazado 7948" d="M913.781-364.715l-.2.021h0Z" transform="translate(-792.617 508.069)" fill="#fcadb0"/>
      <path id="Trazado_7949" data-name="Trazado 7949" d="M913.781-364.715l-.2.021h0Z" transform="translate(-792.617 508.069)" fill="#10172a" opacity="0.15"/>
      <path id="Trazado_7950" data-name="Trazado 7950" d="M916.576-365.064l.454-.051Z" transform="translate(-794.375 508.304)" fill="#fcadb0"/>
      <path id="Trazado_7951" data-name="Trazado 7951" d="M916.576-365.064l.454-.051Z" transform="translate(-794.375 508.304)" fill="#10172a" opacity="0.15"/>
      <path id="Trazado_7952" data-name="Trazado 7952" d="M914.738-364.861l.466-.051Z" transform="translate(-793.297 508.185)" fill="#fcadb0"/>
      <path id="Trazado_7953" data-name="Trazado 7953" d="M914.738-364.861l.466-.051Z" transform="translate(-793.297 508.185)" fill="#10172a" opacity="0.15"/>
      <path id="Trazado_7954" data-name="Trazado 7954" d="M913.559-321.424h0Z" transform="translate(-792.602 482.666)" fill="#fcadb0"/>
      <path id="Trazado_7955" data-name="Trazado 7955" d="M913.559-321.424h0Z" transform="translate(-792.602 482.666)" fill="#10172a" opacity="0.15"/>
      <path id="Trazado_7956" data-name="Trazado 7956" d="M913.559-321.424h0Z" transform="translate(-792.602 482.666)" fill="#10172a" opacity="0.15"/>
      <path id="Trazado_7957" data-name="Trazado 7957" d="M915.141-321.4Z" transform="translate(-793.509 482.655)" fill="#fcadb0"/>
      <path id="Trazado_7958" data-name="Trazado 7958" d="M915.141-321.4Z" transform="translate(-793.509 482.655)" fill="#10172a" opacity="0.15"/>
      <path id="Trazado_7959" data-name="Trazado 7959" d="M915.141-321.4Z" transform="translate(-793.509 482.655)" fill="#10172a" opacity="0.15"/>
      <path id="Trazado_7960" data-name="Trazado 7960" d="M911.875-321.449l-.118,0Z" transform="translate(-791.548 482.682)" fill="#fcadb0"/>
      <path id="Trazado_7961" data-name="Trazado 7961" d="M911.875-321.449l-.118,0Z" transform="translate(-791.548 482.682)" fill="#10172a" opacity="0.15"/>
      <path id="Trazado_7962" data-name="Trazado 7962" d="M911.875-321.449l-.118,0Z" transform="translate(-791.548 482.682)" fill="#10172a" opacity="0.15"/>
      <path id="Trazado_7963" data-name="Trazado 7963" d="M911.54-347.084l.09,0,.118,0,.625.009h.005l.633.007h.042c.288-2.649,1.462-13.895,1.084-18.069l-.062.007-.454.051-.293.033-.466.051-.278.03-.2.022Z" transform="translate(-791.42 508.314)" fill="#fff"/>
      <path id="Trazado_7964" data-name="Trazado 7964" d="M911.54-347.084l.09,0,.118,0,.625.009h.005l.633.007h.042c.288-2.649,1.462-13.895,1.084-18.069l-.062.007-.454.051-.293.033-.466.051-.278.03-.2.022Z" transform="translate(-791.42 508.314)" fill="#10172a" opacity="0.15"/>
      <path id="Trazado_7965" data-name="Trazado 7965" d="M949.082-408.524c9.037-.916,21.621-2.691,22.409-5.525,1.236-4.45-1.3-21.385-1.3-21.385s-3.4,15.2-5,16.688-25.218,10.972-25.255,10.988h0S943.929-408,949.082-408.524Z" transform="translate(-808.079 549.568)" fill="#fff"/>
      <path id="Trazado_7966" data-name="Trazado 7966" d="M949.082-408.524c9.037-.916,21.621-2.691,22.409-5.525,1.236-4.45-1.3-21.385-1.3-21.385s-3.4,15.2-5,16.688-25.218,10.972-25.255,10.988h0S943.929-408,949.082-408.524Z" transform="translate(-808.079 549.568)" fill="#10172a" opacity="0.15"/>
      <path id="Trazado_7967" data-name="Trazado 7967" d="M655.143-444.517c.045.086.09.173.135.261l-.067-.131Z" transform="translate(-640.968 554.897)" fill="#fff"/>
      <path id="Trazado_7968" data-name="Trazado 7968" d="M656.383-442.129c.017.033.035.065.053.1q-.325-.621-.638-1.225C655.988-442.885,656.184-442.508,656.383-442.129Z" transform="translate(-641.352 554.156)" fill="#fff"/>
      <path id="Trazado_7969" data-name="Trazado 7969" d="M657.871-439.281c.16.3.322.609.486.919q-.245-.465-.486-.922Z" transform="translate(-642.568 551.827)" fill="#fff"/>
      <path id="Trazado_7970" data-name="Trazado 7970" d="M697.908-471.227q-.487-.564-.973-1.13c.121.143.245.287.369.431Q697.6-471.577,697.908-471.227Z" transform="translate(-665.491 571.233)" fill="#fff"/>
      <path id="Trazado_7971" data-name="Trazado 7971" d="M702.31-466.155q-.7-.793-1.4-1.595.464.534.928,1.063C701.994-466.511,702.149-466.332,702.31-466.155Z" transform="translate(-667.824 568.53)" fill="#fff"/>
      <path id="Trazado_7972" data-name="Trazado 7972" d="M715.693-451.3c.084.084.163.171.244.253-.313-.333-.629-.671-.946-1.013.152.164.308.335.459.5C715.534-451.474,715.616-451.388,715.693-451.3Z" transform="translate(-676.086 559.323)" fill="#fff"/>
      <path id="Trazado_7973" data-name="Trazado 7973" d="M800.667-480c2.762-24.471,6.838-45.664,8.867-55.449a46.394,46.394,0,0,0-5.943,7.687,81.775,81.775,0,0,0-8.769,18.654,3.773,3.773,0,0,1,1.78,3.942,3.569,3.569,0,0,1-3.8,3.281,2.879,2.879,0,0,1-1.193-.466,3.679,3.679,0,0,1-2.153-4.1,3.683,3.683,0,0,1,3.246-3.307,83.268,83.268,0,0,1,8.973-19.131,41.8,41.8,0,0,1,8.633-10.215c.3-1.375.468-2.116.468-2.116l-.7.053c-.443.032-.9.07-1.364.11q-.53.041-1.077.1l-.347.032c-.266.025-.53.053-.8.078-.22.024-.443.045-.666.07-.329.036-.663.071-1,.11-.4.046-.811.1-1.218.145-.213.029-.425.053-.634.082-.271.036-.544.077-.817.115-.378.052-.755.1-1.131.159-.41.059-.818.124-1.225.19-.425.072-.85.146-1.269.22-.2.04-.4.074-.595.114s-.408.078-.609.12-.4.081-.6.124q-.966.2-1.88.436c-.249.06-.493.127-.733.191-.086.025-.171.046-.252.071-.181.049-.357.1-.534.156s-.362.106-.535.163-.333.106-.492.163c-.106.034-.213.074-.319.109s-.241.085-.357.131a.135.135,0,0,0-.032.011c-.121.046-.241.091-.359.138-.272.106-.534.215-.786.333-.141.064-.279.127-.414.2-.091.042-.18.088-.269.137-.07.032-.137.068-.2.107-.1.053-.2.11-.294.163-.113.07-.226.138-.333.2-.074.046-.141.093-.209.142a2.384,2.384,0,0,0-.209.148,5.483,5.483,0,0,0-.488.4c-4.261,3.889-19.3,26.746-27.993,37.353H795.2Z" transform="translate(-702.511 611.645)" fill="#fff"/>
      <path id="Trazado_7974" data-name="Trazado 7974" d="M687.554-483.526l-.338-.412h0Z" transform="translate(-659.788 578.029)" fill="#fff"/>
      <path id="Trazado_7975" data-name="Trazado 7975" d="M821.883-284.566c.027-1.211.045-2.409.043-3.581q0-2.274.027-4.563H802.161c-.264,2.7-.642,5.42-1.1,8.145Z" transform="translate(-726.595 465.818)" fill="#fff"/>
      <path id="Trazado_7976" data-name="Trazado 7976" d="M683.491-463.8h.833l0,0c-.832-.807-1.711-1.682-2.613-2.613q-.464-.473-.935-.967l-.555-.588c-.171-.177-.337-.354-.508-.537l0,0c-.081-.083-.16-.169-.244-.253s-.159-.173-.243-.262c-.151-.162-.307-.333-.459-.5-.42-.454-.841-.907-1.266-1.373-.136-.151-.274-.3-.412-.452l-.533-.588q-.534-.59-1.069-1.19-.57-.638-1.139-1.285c-.161-.176-.317-.356-.471-.531q-.465-.529-.928-1.063c-.224-.258-.448-.515-.67-.774q-.3-.351-.6-.7c-.124-.145-.248-.288-.369-.431q-.883-1.031-1.745-2.057l-.413-.49c-.383-.457-.759-.909-1.133-1.36.154.186.306.37.462.557L653.5-467.433q-.127-.248-.253-.49c.084.164.169.331.256.5.1.189.2.379.294.572.078.148.154.3.233.45l.068.13.067.131.136.261q.313.6.638,1.225l.219.415q.241.456.486.922.784,1.478,1.627,3.03.395.725.8,1.461.621,1.126,1.268,2.272l.275.483.274.483c0,.007.011.019.015.025.35.609.7,1.223,1.062,1.835l.074.128q.389.664.787,1.328c.131.222.265.446.4.666q.4.664.808,1.328l.223.361c.062.1.125.2.188.305q.617.992,1.251,1.98c.14.219.279.436.42.654l0,0c.209.319.414.634.623.949q.621.946,1.261,1.876c.107.156.213.308.319.465.213.308.429.612.642.917.109.152.215.3.325.456.429.6.86,1.2,1.3,1.785.22.294.44.588.659.875.11.145.224.287.334.431q.361.473.733.936.8,1.008,1.614,1.958.5.6,1.02,1.166c.114.127.228.255.34.378.227.252.454.5.687.74l.344.361c.114.121.23.238.343.355q.345.35.691.69c.116.117.23.228.346.338l.348.329q.345.324.695.638c.127.116.255.23.382.34.1.088.209.177.311.266.22.187.441.371.659.549.478.39.96.754,1.438,1.094.118.085.234.167.351.248.212.145.425.289.638.424.5.323,1,.621,1.5.886.107.056.209.109.315.162s.233.121.35.174c.15.074.3.145.446.209s.305.135.457.2c.279.117.562.224.843.315.084.032.173.061.258.086.12.039.238.078.357.11s.241.07.361.1a.5.5,0,0,0,.068.017c.106.025.209.05.312.072a.19.19,0,0,0,.06.013c.1.025.209.046.315.064a.042.042,0,0,0,.021.006c.184.036.368.064.552.089.088.015.177.025.262.032h.014l.018,0,.064.008.245.025c.037,0,.078,0,.115.007l.093,0c.113.007.224.012.336.015h.1c.176,0,.351.006.525.005l.25,0h.165l.261-.007.169,0,.259-.013.151-.007h.023l.181-.011c.084,0,.164-.011.251-.017l.306-.026.081-.007.038,0,.157-.016.115-.012.338-.04c.077-.01.155-.017.231-.028l.018,0,.108-.015c.093-.014.184-.024.274-.038l.1-.016c.078-.011.154-.024.229-.038l.094-.015q.418-.071.828-.157l.02,0c.077-.017.156-.032.234-.052h.005c.022,0,.044-.01.068-.017h0Z" transform="translate(-639.856 576.783)" fill="#fff"/>
      <path id="Trazado_7977" data-name="Trazado 7977" d="M688.035-482.942l.386.466Z" transform="translate(-660.268 577.444)" fill="#10172a" opacity="0.15"/>
      <path id="Trazado_7978" data-name="Trazado 7978" d="M667.581-482.5c-.156-.187-.307-.371-.462-.557l-.386-.466-.338-.411-14.662,13.542.128.252c.041.08.082.159.123.241q.185.362.375.733.127.242.253.49Z" transform="translate(-638.967 578.028)" fill="#fff"/>
      <path id="Trazado_7979" data-name="Trazado 7979" d="M667.581-482.5c-.156-.187-.307-.371-.462-.557l-.386-.466-.338-.411-14.662,13.542.128.252c.041.08.082.159.123.241q.185.362.375.733.127.242.253.49Z" transform="translate(-638.967 578.028)" fill="#10172a" opacity="0.15"/>
      <path id="Trazado_7980" data-name="Trazado 7980" d="M778.162-378.089h14.956l-3.9-13.308a71.634,71.634,0,0,1-8.877-1.836c-5.187-1.609-13.832-15.668-13.306-17.277s4.962-1.469,6.165,0,6.014,3.358,11.743,4.53a4.933,4.933,0,0,1-1.618-3.437,1.493,1.493,0,0,1,.308-1.029l-2.671-9.109-5.47-18.655H726.438l10.976,37.433h0l6.652,22.688h34.1Z" transform="translate(-682.803 551.196)" fill="#10172a"/>
      <path id="Trazado_7981" data-name="Trazado 7981" d="M851.486-370.018c-2.516-1.161-7.437-3.363-8.722-3.425a1.789,1.789,0,0,0-1.519.693,1.493,1.493,0,0,0-.308,1.029,4.933,4.933,0,0,0,1.618,3.437c-5.729-1.172-10.54-3.061-11.743-4.53s-5.638-1.609-6.165,0,8.119,15.669,13.306,17.277a71.634,71.634,0,0,0,8.877,1.836c1.44.227,2.831.427,4.042.592Z" transform="translate(-740.418 513.499)" fill="#ecb3a0"/>
      <path id="Trazado_7982" data-name="Trazado 7982" d="M897.615-349.543h0l.843-17.853h0l.067-1.431-9.889-.5-.074,2.03-.614,16.91-.139,3.832,9.519,3.07Z" transform="translate(-777.495 510.773)" fill="#fff"/>
      <path id="Trazado_7983" data-name="Trazado 7983" d="M657.466-497.334l2.318-2.141-6.7-7.293-1.461,1.379-13.513,12.755-1.6,1.507,4.627,8.868,1.661-1.534,14.662-13.541Z" transform="translate(-630.037 591.425)" fill="#fff"/>
      <path id="Trazado_7984" data-name="Trazado 7984" d="M886.6-540.846a23.08,23.08,0,0,0-6.506,4.4q-.121.576-.254,1.219a24.3,24.3,0,0,1,6.76-4.987Z" transform="translate(-772.82 611.422)" fill="#fcadb0"/>
      <path id="Trazado_7985" data-name="Trazado 7985" d="M886.6-540.846a23.08,23.08,0,0,0-6.506,4.4q-.121.576-.254,1.219a24.3,24.3,0,0,1,6.76-4.987Z" transform="translate(-772.82 611.422)" fill="#1d1d1b" opacity="0.26"/>
      <path id="Trazado_7986" data-name="Trazado 7986" d="M847.785-521.629a81.771,81.771,0,0,0-8.769,18.654,3.772,3.772,0,0,1,1.78,3.942,3.569,3.569,0,0,1-3.8,3.281,2.858,2.858,0,0,1-.535-.138,2.879,2.879,0,0,0,1.193.466,3.569,3.569,0,0,0,3.8-3.281,3.773,3.773,0,0,0-1.78-3.942,81.778,81.778,0,0,1,8.769-18.654,46.392,46.392,0,0,1,5.944-7.687q.133-.643.254-1.219A43.9,43.9,0,0,0,847.785-521.629Z" transform="translate(-747.364 605.179)" fill="#fff"/>
      <path id="Trazado_7987" data-name="Trazado 7987" d="M847.785-521.629a81.771,81.771,0,0,0-8.769,18.654,3.772,3.772,0,0,1,1.78,3.942,3.569,3.569,0,0,1-3.8,3.281,2.858,2.858,0,0,1-.535-.138,2.879,2.879,0,0,0,1.193.466,3.569,3.569,0,0,0,3.8-3.281,3.773,3.773,0,0,0-1.78-3.942,81.778,81.778,0,0,1,8.769-18.654,46.392,46.392,0,0,1,5.944-7.687q.133-.643.254-1.219A43.9,43.9,0,0,0,847.785-521.629Z" transform="translate(-747.364 605.179)" fill="#1d1d1b" opacity="0.26"/>
      <path id="Trazado_7988" data-name="Trazado 7988" d="M837.671-507.531a3.772,3.772,0,0,0-1.78-3.942,81.766,81.766,0,0,1,8.769-18.654,43.9,43.9,0,0,1,6.855-8.577,23.079,23.079,0,0,1,6.506-4.4v-1.588a.727.727,0,0,0-.21.05,22.107,22.107,0,0,0-2.423,1.2,24.511,24.511,0,0,0-3.354,2.3,41.8,41.8,0,0,0-8.633,10.215,83.265,83.265,0,0,0-8.973,19.131,3.683,3.683,0,0,0-3.246,3.307,3.679,3.679,0,0,0,2.153,4.1,2.862,2.862,0,0,0,.536.138A3.569,3.569,0,0,0,837.671-507.531Z" transform="translate(-744.239 613.677)" fill="#1d1d1b"/>
      <path id="Trazado_7989" data-name="Trazado 7989" d="M956.286-538.018a9.009,9.009,0,0,1,1.062,2.008,14.172,14.172,0,0,1,.785,3.939q.261-.421.52-.82a12.142,12.142,0,0,0-.58-2.23A8.851,8.851,0,0,0,956.286-538.018Z" transform="translate(-817.677 609.763)" fill="#fcadb0"/>
      <path id="Trazado_7990" data-name="Trazado 7990" d="M956.286-538.018a9.009,9.009,0,0,1,1.062,2.008,14.172,14.172,0,0,1,.785,3.939q.261-.421.52-.82a12.142,12.142,0,0,0-.58-2.23A8.851,8.851,0,0,0,956.286-538.018Z" transform="translate(-817.677 609.763)" fill="#1d1d1b" opacity="0.26"/>
      <path id="Trazado_7991" data-name="Trazado 7991" d="M945.853-540.955q.106.411.216.764a.811.811,0,0,0,.215.068,4.732,4.732,0,0,1,2.616,1.442A5.3,5.3,0,0,0,945.853-540.955Z" transform="translate(-811.555 611.486)" fill="#fcadb0"/>
      <path id="Trazado_7992" data-name="Trazado 7992" d="M945.853-540.955q.106.411.216.764a.811.811,0,0,0,.215.068,4.732,4.732,0,0,1,2.616,1.442A5.3,5.3,0,0,0,945.853-540.955Z" transform="translate(-811.555 611.486)" fill="#1d1d1b" opacity="0.26"/>
      <path id="Trazado_7993" data-name="Trazado 7993" d="M929.84-433.431a2.078,2.078,0,0,1,.553,1.515c0,.963-.491,1.744-1.1,1.744a.719.719,0,0,1-.242-.045c.184.554.545.936.966.936.605,0,1.1-.781,1.1-1.744a2.078,2.078,0,0,0-.554-1.515A53.064,53.064,0,0,1,934-449.716q.056-1.564.12-2.963A52.988,52.988,0,0,0,929.84-433.431Z" transform="translate(-801.698 559.686)" fill="#fcadb0"/>
      <path id="Trazado_7994" data-name="Trazado 7994" d="M929.84-433.431a2.078,2.078,0,0,1,.553,1.515c0,.963-.491,1.744-1.1,1.744a.719.719,0,0,1-.242-.045c.184.554.545.936.966.936.605,0,1.1-.781,1.1-1.744a2.078,2.078,0,0,0-.554-1.515A53.064,53.064,0,0,1,934-449.716q.056-1.564.12-2.963A52.988,52.988,0,0,0,929.84-433.431Z" transform="translate(-801.698 559.686)" fill="#1d1d1b" opacity="0.26"/>
      <path id="Trazado_7995" data-name="Trazado 7995" d="M975.266-454.892a64.714,64.714,0,0,1,.654,17.383.818.818,0,0,1-.092.311c0,.022,0,.044,0,.066,0,.963-.491,1.744-1.1,1.744a.71.71,0,0,1-.241-.045c.184.554.545.935.967.935.605,0,1.1-.781,1.1-1.744,0-.022,0-.044,0-.066a.817.817,0,0,0,.092-.312A64.712,64.712,0,0,0,975.991-454a21.489,21.489,0,0,0-2.3-6.854,10.867,10.867,0,0,0-1.371-1.876,11.616,11.616,0,0,1,.647.985A21.489,21.489,0,0,1,975.266-454.892Z" transform="translate(-827.084 565.585)" fill="#fff"/>
      <path id="Trazado_7996" data-name="Trazado 7996" d="M975.266-454.892a64.714,64.714,0,0,1,.654,17.383.818.818,0,0,1-.092.311c0,.022,0,.044,0,.066,0,.963-.491,1.744-1.1,1.744a.71.71,0,0,1-.241-.045c.184.554.545.935.967.935.605,0,1.1-.781,1.1-1.744,0-.022,0-.044,0-.066a.817.817,0,0,0,.092-.312A64.712,64.712,0,0,0,975.991-454a21.489,21.489,0,0,0-2.3-6.854,10.867,10.867,0,0,0-1.371-1.876,11.616,11.616,0,0,1,.647.985A21.489,21.489,0,0,1,975.266-454.892Z" transform="translate(-827.084 565.585)" fill="#1d1d1b" opacity="0.26"/>
      <path id="Trazado_7997" data-name="Trazado 7997" d="M960.846-521.738l.082,18.767c.247.071.486.155.722.247l-.079-18.124a29.121,29.121,0,0,0-.3-4.76q-.259.4-.52.82C960.832-523.744,960.841-522.712,960.846-521.738Z" transform="translate(-820.299 602.481)" fill="#fff"/>
      <path id="Trazado_7998" data-name="Trazado 7998" d="M960.846-521.738l.082,18.767c.247.071.486.155.722.247l-.079-18.124a29.121,29.121,0,0,0-.3-4.76q-.259.4-.52.82C960.832-523.744,960.841-522.712,960.846-521.738Z" transform="translate(-820.299 602.481)" fill="#1d1d1b" opacity="0.26"/>
      <path id="Trazado_7999" data-name="Trazado 7999" d="M951.54-465.733a6.7,6.7,0,0,0-1.12-.829,5.528,5.528,0,0,0-1.587-.623,5.364,5.364,0,0,0-.846-.12,7.762,7.762,0,0,0-.935-.032,4.405,4.405,0,0,0-1.745.53,5.9,5.9,0,0,0-1.293.914,12.955,12.955,0,0,0-2.761,4.376c-.034.077-.065.156-.1.233q-.064,1.4-.12,2.963.444-1.166.944-2.307A12.959,12.959,0,0,1,944.739-465a5.917,5.917,0,0,1,1.293-.914,4.406,4.406,0,0,1,1.744-.53,7.775,7.775,0,0,1,.935.031,5.409,5.409,0,0,1,.846.121,5.525,5.525,0,0,1,1.587.623,6.668,6.668,0,0,1,1.12.829c.14.127.273.26.4.4-.126-.177-.256-.351-.4-.519A7.573,7.573,0,0,0,951.54-465.733Z" transform="translate(-808.727 568.291)" fill="#fff"/>
      <path id="Trazado_8000" data-name="Trazado 8000" d="M951.54-465.733a6.7,6.7,0,0,0-1.12-.829,5.528,5.528,0,0,0-1.587-.623,5.364,5.364,0,0,0-.846-.12,7.762,7.762,0,0,0-.935-.032,4.405,4.405,0,0,0-1.745.53,5.9,5.9,0,0,0-1.293.914,12.955,12.955,0,0,0-2.761,4.376c-.034.077-.065.156-.1.233q-.064,1.4-.12,2.963.444-1.166.944-2.307A12.959,12.959,0,0,1,944.739-465a5.917,5.917,0,0,1,1.293-.914,4.406,4.406,0,0,1,1.744-.53,7.775,7.775,0,0,1,.935.031,5.409,5.409,0,0,1,.846.121,5.525,5.525,0,0,1,1.587.623,6.668,6.668,0,0,1,1.12.829c.14.127.273.26.4.4-.126-.177-.256-.351-.4-.519A7.573,7.573,0,0,0,951.54-465.733Z" transform="translate(-808.727 568.291)" fill="#1d1d1b" opacity="0.26"/>
      <path id="Trazado_8001" data-name="Trazado 8001" d="M934.751-543.355a5.3,5.3,0,0,1,3.048,2.273,7.216,7.216,0,0,1,.787,1.523,17.646,17.646,0,0,1,.769,6.086c0,.112,0,.224,0,.335l.081,18.554a6.67,6.67,0,0,0-4.818,1.892,10.076,10.076,0,0,0-1.484,1.766,19.989,19.989,0,0,0-1.662,3.153,54.6,54.6,0,0,0-4.542,20.987.821.821,0,0,0,.048.286,2.744,2.744,0,0,0-.026.381,1.756,1.756,0,0,0,.855,1.7.722.722,0,0,0,.242.045c.605,0,1.1-.781,1.1-1.744a2.078,2.078,0,0,0-.553-1.515,52.985,52.985,0,0,1,4.285-19.247c.034-.078.065-.156.1-.233a12.954,12.954,0,0,1,2.761-4.376,5.9,5.9,0,0,1,1.293-.914,4.407,4.407,0,0,1,1.745-.53,7.774,7.774,0,0,1,.935.032,5.358,5.358,0,0,1,.846.12,5.528,5.528,0,0,1,1.587.623,6.7,6.7,0,0,1,1.12.829,7.56,7.56,0,0,1,.732.769c.139.167.269.341.4.519.092.13.183.261.269.4a11.468,11.468,0,0,1,.6,1.061c.2.4.374.8.535,1.21.175.448.331.9.473,1.363.154.5.29,1.007.412,1.516.128.532.24,1.066.34,1.6a62.08,62.08,0,0,1,.722,15.811,1.879,1.879,0,0,0-.738,1.648,1.755,1.755,0,0,0,.855,1.7.709.709,0,0,0,.241.045c.606,0,1.1-.781,1.1-1.744,0-.022,0-.044,0-.067a.818.818,0,0,0,.092-.311,64.717,64.717,0,0,0-.654-17.383,21.487,21.487,0,0,0-2.3-6.854,11.577,11.577,0,0,0-.647-.986,8.644,8.644,0,0,0-3.883-3.1c-.236-.092-.476-.176-.722-.247L941-533.144c0-.974-.013-2.005-.091-3.05a14.173,14.173,0,0,0-.785-3.939,9.005,9.005,0,0,0-1.062-2.008,7.844,7.844,0,0,0-1.448-1.568c-.043-.035-.084-.071-.128-.105a5.978,5.978,0,0,0-2.78-1.221.818.818,0,0,0-.331.017C934.5-544.415,934.621-543.855,934.751-543.355Z" transform="translate(-800.453 613.887)" fill="#1d1d1b"/>
      <path id="Trazado_8002" data-name="Trazado 8002" d="M896.2-558.124v5.836c.529,1.538,2.363,2.224,4.747,2.33q.4.017.814.014h0c6.67-.048,16.655-4,15.492-6.578a7.173,7.173,0,0,1-.292-.783c-.01-.031-.02-.068-.03-.1q-.11-.353-.217-.764c-.13-.5-.255-1.06-.375-1.664-.612-3.07-1.1-7.266-1.432-10.458l0,.021c-.273.539-.556,1.073-.858,1.6a18.423,18.423,0,0,1-4.467,5.424,18.586,18.586,0,0,1-8.552,3.391,11.911,11.911,0,0,1-4.834-.244v1.978Z" transform="translate(-782.421 628.7)" fill="#ecb3a0"/>
      <path id="Trazado_8003" data-name="Trazado 8003" d="M901.036-563.012a18.586,18.586,0,0,0,8.552-3.391,18.423,18.423,0,0,0,4.467-5.424c.3-.524.585-1.058.858-1.6l0-.021c-.084-.819-.157-1.571-.218-2.222-3.907,4-8.743,7.521-13.689,7.589a7.983,7.983,0,0,1-4.8-1.524v6.346h0A11.911,11.911,0,0,0,901.036-563.012Z" transform="translate(-782.42 631.855)" fill="#de8469"/>
      <path id="Trazado_8004" data-name="Trazado 8004" d="M911.171-655.7a31.738,31.738,0,0,1-3.151.424c-19.3,1.612-30.576-15.758-30.576-15.758-2,8.1-4.123,11.189-5.475,12.368.022,1.221.086,2.409.122,3.513.212,6.493,2.335,24.269,9.891,29.59a7.984,7.984,0,0,0,4.8,1.524c4.946-.068,9.781-3.592,13.689-7.589a65.5,65.5,0,0,0,8.729-11.426,19.157,19.157,0,0,0,1.045-2.92,4.911,4.911,0,0,0,4.874-4.91A4.912,4.912,0,0,0,911.171-655.7Z" transform="translate(-768.2 687.816)" fill="#ecb3a0"/>
      <path id="Trazado_8005" data-name="Trazado 8005" d="M950.656-617.819c-9.879-17.816-30.524-26.993-33.518-37.044-2.889-9.741-5.209-25.015-5.346-25.961a.106.106,0,0,1-.012-.046,44.425,44.425,0,0,0-2.092-9.534,35.234,35.234,0,0,0-7.549-13.258,25.506,25.506,0,0,0-17-7.937,27.906,27.906,0,0,0-18.483,5.671,19.175,19.175,0,0,0-5.957,7.542c-1.647,3.885-1.645,8.454-1.941,12.643a262.736,262.736,0,0,0-.532,30q.045,1,.1,1.993.062,1.127.138,2.253c0,.069.01.138.015.207.162,2.349.372,4.687.638,6.986q.1.857.209,1.707.094.728.2,1.449c.038.273.084.54.124.812.273-.038.545-.079.817-.114.209-.029.421-.053.634-.082.407-.049.814-.1,1.218-.145.336-.039.67-.074,1-.11.224-.025.446-.046.666-.07.27-.025.534-.053.8-.078l.347-.032q.547-.053,1.077-.1c.464-.04.921-.078,1.364-.11l.7-.053c.45-.032.883-.064,1.3-.089a.949.949,0,0,1,.1-.007c.124-.006.244-.017.365-.025l.266-.014c.078,0,.156-.007.234-.015.209-.014.41-.025.609-.035h.01a22.1,22.1,0,0,1,2.423-1.2.73.73,0,0,1,.21-.05v-.39h0V-649.4c-7.556-5.321-9.679-23.1-9.891-29.59-.036-1.1-.1-2.292-.122-3.513,1.351-1.179,3.475-4.266,5.475-12.368,0,0,11.273,17.37,30.576,15.758a31.743,31.743,0,0,0,3.151-.424,4.912,4.912,0,0,1,3.95,4.816,4.911,4.911,0,0,1-4.874,4.91,19.163,19.163,0,0,1-1.045,2.92,65.494,65.494,0,0,1-8.729,11.426c.062.65.134,1.4.218,2.222.327,3.192.82,7.388,1.432,10.458a.819.819,0,0,1,.331-.017,5.977,5.977,0,0,1,2.78,1.221h2.259q.775,0,1.593.025h0c.552.017,1.122.046,1.7.078l.644.042c.348.025.7.05,1.056.082.216.019.435.036.659.06s.418.04.631.061.408.042.613.064l.251.027c.287.032.577.068.868.1l.192.021.874.117c.29.039.585.081.875.124.057.007.11.019.159.025.308.047.616.093.927.142s.655.11.985.167c.376.063.747.131,1.119.2q1.168.219,2.321.467l.728.162.724.168c.269.063.539.131.8.194.372.093.737.188,1.1.283l.467.128c.148.038.3.08.443.12.068.021.131.04.2.057.251.07.5.145.743.219q.909.273,1.779.564c.134.042.265.089.4.135.408.142.809.287,1.2.435.091.032.184.068.272.1s.152.06.228.089l.4.159c.131.053.262.106.393.163.072.029.142.059.209.088.121.05.241.1.358.156a26.157,26.157,0,0,1,2.617,1.321,4.7,4.7,0,0,1,.564.39c.045.039.1.078.141.117a10.589,10.589,0,0,1,1.307,1.335c.061.07.117.145.178.216s.12.148.18.226.12.152.18.233c.241.315.485.655.733,1.012q.082.119.163.241c.109.161.219.326.328.5h0q.413.634.832,1.338A124.6,124.6,0,0,1,940.11-613.4c.184.446.361.893.539,1.342.123.312.247.627.369.938.116.294.23.585.34.878.071.178.138.355.205.528.12.313.241.624.357.936,1.183,3.116,2.271,6.172,3.209,8.967.141.418.279.832.41,1.236.4,1.221.773,2.379,1.1,3.46.039.12.074.241.11.357s.07.233.106.351c.019.058.036.116.053.173.044.145.086.287.127.429.015.053.032.1.046.152.057.2.114.4.17.588q.3,1.031.532,1.912c.063.241.124.475.177.7.083.318.154.618.215.9v0q.032.139.059.271c.019.071.032.141.047.209.131.627.244,1.324.34,2.082.049.376.092.769.135,1.177q.047.454.084.929c.009.107.017.213.024.32.032.431.061.878.086,1.335s.042.906.06,1.375c.007.243.014.488.021.737.011.471.021.948.025,1.434,0,.279,0,.566,0,.853,0,.34,0,.68-.008,1.027,0,.082,0,.167,0,.252,0,.242-.008.483-.014.728.306-.355.583-.69.824-.995q.2-.251.405-.538l.01-.014q.2-.282.409-.6l.009-.014q.207-.317.417-.666l.007-.012c.141-.235.283-.48.426-.739A30.591,30.591,0,0,0,953.218-584,39.656,39.656,0,0,0,950.656-617.819Z" transform="translate(-760.013 711.648)" fill="#2d3053"/>
    </g>
  </g>
</svg>
