<svg xmlns="http://www.w3.org/2000/svg" width="139.683" height="139.683" viewBox="0 0 139.683 139.683">
  <g id="Grupo_1767" data-name="Grupo 1767" transform="translate(-204 -2075)">
    <g id="Grupo_1157" data-name="Grupo 1157" transform="translate(204 2075)">
      <circle id="Elipse_526" data-name="Elipse 526" cx="69.841" cy="69.841" r="69.841" fill="#57b8e8"/>
      <circle id="Elipse_527" data-name="Elipse 527" cx="62.739" cy="62.739" r="62.739" transform="translate(7.103 7.103)" fill="#fff"/>
      <g id="Grupo_1178" data-name="Grupo 1178" transform="translate(32.001 1.343)">
        <g id="Grupo_1179" data-name="Grupo 1179" transform="translate(1.484 41.196)">
          <g id="Grupo_1178-2" data-name="Grupo 1178" transform="translate(8.239 0)">
            <path id="Trazado_6285" data-name="Trazado 6285" d="M65.506,76.2h8.906V73.6a2.605,2.605,0,0,0-2.6-2.6H68.1a2.605,2.605,0,0,0-2.6,2.6Z" transform="translate(-65.506 -71.001)" fill="#ff8d8d"/>
            <path id="Trazado_6286" data-name="Trazado 6286" d="M389.092,71a2.605,2.605,0,0,0-2.6,2.6v2.6H395.4V73.6a2.605,2.605,0,0,0-2.6-2.6Z" transform="translate(-338.848 -71.001)" fill="#ff8d8d"/>
          </g>
          <path id="Trazado_6287" data-name="Trazado 6287" d="M65.885,106h-52.1A3.8,3.8,0,0,0,10,109.787v45.865a3.8,3.8,0,0,0,3.786,3.786H79.244a3.8,3.8,0,0,0,3.786-3.786V109.787A3.8,3.8,0,0,0,79.244,106H65.885Zm-24.99,11.73H52.136V127.1H61.5V138.34H52.136v9.367H40.895V138.34H31.527V127.1h9.367v-9.367Z" transform="translate(-10 -100.806)" fill="#f0f0f0"/>
          <path id="Trazado_6288" data-name="Trazado 6288" d="M175.637,194.4v-9.367H164.4V194.4h-9.367v11.241H164.4V215h11.241v-9.367H185V194.4Z" transform="translate(-133.502 -168.102)" fill="#fd4a4a"/>
        </g>
        <path id="Trazado_6289" data-name="Trazado 6289" d="M70.729,44.907H67.76V43.794a4.087,4.087,0,0,0-4.082-4.082H59.967a4.087,4.087,0,0,0-4.082,4.082v1.113H53.041V40.741A4.746,4.746,0,0,0,48.3,36H27.391a4.746,4.746,0,0,0-4.74,4.74v4.166H20.114V43.794a4.087,4.087,0,0,0-4.082-4.082H12.321a4.087,4.087,0,0,0-4.082,4.082v1.113H5.27A5.276,5.276,0,0,0,0,50.177V96.042a5.276,5.276,0,0,0,5.27,5.27H70.729A5.276,5.276,0,0,0,76,96.042V50.177A5.276,5.276,0,0,0,70.729,44.907ZM58.854,43.794a1.114,1.114,0,0,1,1.113-1.113h3.711a1.114,1.114,0,0,1,1.113,1.113v1.113H58.854ZM25.619,40.741a1.774,1.774,0,0,1,1.772-1.772H48.3a1.774,1.774,0,0,1,1.772,1.772v4.166H25.619ZM11.208,43.794a1.114,1.114,0,0,1,1.113-1.113h3.711a1.114,1.114,0,0,1,1.113,1.113v1.113H11.208ZM73.03,96.042a2.3,2.3,0,0,1-2.3,2.3H5.27a2.3,2.3,0,0,1-2.3-2.3V50.177a2.3,2.3,0,0,1,2.3-2.3H70.729a2.3,2.3,0,0,1,2.3,2.3V96.042Z" fill="#0b2d4e"/>
        <path id="Trazado_6290" data-name="Trazado 6290" d="M177.974,197.121V185.88a1.484,1.484,0,0,0-1.484-1.484h-7.883v-7.883a1.484,1.484,0,0,0-1.484-1.484H155.882a1.484,1.484,0,0,0-1.484,1.484V184.4h-7.883a1.484,1.484,0,0,0-1.484,1.484v11.241a1.484,1.484,0,0,0,1.484,1.484H154.4v7.883a1.484,1.484,0,0,0,1.484,1.484h11.241a1.484,1.484,0,0,0,1.484-1.484V198.6h7.883A1.484,1.484,0,0,0,177.974,197.121Zm-2.969-1.484h-7.883a1.484,1.484,0,0,0-1.484,1.484V205h-8.272v-7.883a1.484,1.484,0,0,0-1.484-1.484H148v-8.272h7.883a1.484,1.484,0,0,0,1.484-1.484V178h8.272v7.883a1.484,1.484,0,0,0,1.484,1.484h7.883Z" transform="translate(-123.502 -118.39)" fill="#0b2d4e"/>
        <path id="Trazado_6291" data-name="Trazado 6291" d="M133.692,132.485A1.484,1.484,0,0,0,132.208,131h-.048a1.484,1.484,0,0,0,0,2.969h.048A1.484,1.484,0,0,0,133.692,132.485Z" transform="translate(-111.278 -80.899)" fill="#0b2d4e"/>
        <path id="Trazado_6292" data-name="Trazado 6292" d="M46.274,131h-9.79a1.484,1.484,0,1,0,0,2.969h9.79a1.484,1.484,0,1,0,0-2.969Z" transform="translate(-29.805 -80.899)" fill="#0b2d4e"/>
        <path id="Trazado_6293" data-name="Trazado 6293" d="M402.323,421h-9.79a1.484,1.484,0,0,0,0,2.969h9.79a1.484,1.484,0,1,0,0-2.969Z" transform="translate(-333.004 -327.852)" fill="#0b2d4e"/>
        <path id="Trazado_6294" data-name="Trazado 6294" d="M362.533,421h-.048a1.484,1.484,0,0,0,0,2.969h.048a1.484,1.484,0,0,0,0-2.969Z" transform="translate(-307.416 -327.852)" fill="#0b2d4e"/>
      </g>
    </g>
  </g>
</svg>
