<svg xmlns="http://www.w3.org/2000/svg" width="139.683" height="139.683" viewBox="0 0 139.683 139.683">
  <g id="Grupo_1771" data-name="Grupo 1771" transform="translate(-204 -1816)">
    <g id="Grupo_1766" data-name="Grupo 1766">
      <circle id="Elipse_524" data-name="Elipse 524" cx="69.841" cy="69.841" r="69.841" transform="translate(204 1816)" fill="#57b8e8"/>
      <circle id="Elipse_525" data-name="Elipse 525" cx="62.739" cy="62.739" r="62.739" transform="translate(211.103 1823)" fill="#fff"/>
      <g id="Grupo_1186" data-name="Grupo 1186" transform="translate(-2505.821 1479.773)">
        <path id="Trazado_6316" data-name="Trazado 6316" d="M2763.505,415.142c-.662.064-1.334.1-2.011.1h-.07c-.678-.005-1.351-.045-2.018-.1-.141-.013-.283-.024-.423-.04-.114-.011-.229-.017-.342-.031v2.992c0,.842.14,2.817,1.41,2.817h2.818c1.269,0,1.41-1.969,1.41-2.817v-2.992c-.112.016-.226.019-.338.031C2763.8,415.119,2763.646,415.129,2763.505,415.142Z" transform="translate(0.758 2.094)" fill="#45b7e6"/>
        <path id="Trazado_6317" data-name="Trazado 6317" d="M2758.154,412.832a18.606,18.606,0,0,0,1.948.294,20.131,20.131,0,0,0,5.946-.291c8.335-1.669,14.385-8.574,14.385-16.418V396.3h-2.816v.161a14.012,14.012,0,0,1-10.075,13.2,15.7,15.7,0,0,1-9.474,0,14.011,14.011,0,0,1-10.066-13.2V396.3h-4.232v.113C2743.77,404.261,2749.821,411.165,2758.154,412.832Z" transform="translate(0.116 1.284)" fill="#45b7e6"/>
        <path id="Trazado_6318" data-name="Trazado 6318" d="M2805.957,411.472a7.051,7.051,0,0,0,7.051,7.051l0-.006a7.048,7.048,0,1,0-7.055-7.044Zm7.056-4.239h0a4.231,4.231,0,1,1-4.231,4.231A4.231,4.231,0,0,1,2813.013,407.232Z" transform="translate(2.8 1.634)" fill="#5999a8"/>
        <path id="Trazado_6319" data-name="Trazado 6319" d="M2756.584,416.6v3.547c0,4.159,2.191,5.642,4.231,5.642V428.2c0,10.432,7.907,18.921,17.629,18.921s17.63-8.494,17.63-18.921V400.476c.142-5.351,4.256-9.707,9.167-9.707,5.054,0,9.167,4.491,9.167,10.014v2.558a9.871,9.871,0,1,0,11.18,8.36h-.005a9.869,9.869,0,0,0-8.362-8.36v-2.565c0-7.074-5.377-12.831-11.987-12.831-6.42,0-11.794,5.584-11.988,12.45h.083l-.083.014V428.2c0,8.885-6.642,16.1-14.806,16.1s-14.807-7.224-14.807-16.1v-2.407c2.044,0,4.231-1.483,4.231-5.642V416.6c9.051-2.314,15.512-10.086,15.512-18.9v-2.941h-2.817l-.06-18.36a7.056,7.056,0,0,0-5.8-6.9,4.208,4.208,0,1,0-.1,2.876,4.231,4.231,0,0,1,3.073,4.036l.063,18.346h-2.816v2.981a11.212,11.212,0,0,1-8.117,10.522,12.834,12.834,0,0,1-7.757,0,11.209,11.209,0,0,1-8.1-10.522v-2.977h-4.232V376.435a4.231,4.231,0,0,1,3.13-4.068,4.25,4.25,0,1,0-.088-2.863,7.051,7.051,0,0,0-5.865,6.931v18.334h-2.824V397.7C2741.07,406.521,2747.538,414.3,2756.584,416.6Zm66.275-3.5a7.051,7.051,0,0,1-7.047,7.044l0,.006a7.051,7.051,0,1,1,7.051-7.051Zm-52.172-40.9h0a1.41,1.41,0,1,1,1.41-1.41A1.41,1.41,0,0,1,2770.685,372.2Zm-16.925-2.82h0v0a1.41,1.41,0,1,1-1.41,1.41A1.41,1.41,0,0,1,2753.763,369.386Zm11.275,50.774c0,.847-.141,2.817-1.41,2.817h-2.818c-1.27,0-1.41-1.975-1.41-2.817v-2.992c.113.015.228.02.342.031.141.016.283.027.423.04.667.059,1.339.1,2.018.1h.07c.677,0,1.349-.041,2.011-.1.141-.013.29-.023.436-.04.112-.013.226-.016.338-.031Zm-21.151-22.569h4.232v.161a14.011,14.011,0,0,0,10.066,13.2,15.7,15.7,0,0,0,9.474,0,14.012,14.012,0,0,0,10.075-13.2v-.161h2.816v.113c0,7.845-6.051,14.749-14.385,16.418a20.131,20.131,0,0,1-5.946.291,18.606,18.606,0,0,1-1.948-.294c-8.334-1.667-14.384-8.571-14.384-16.415Z" fill="#0b2d4e"/>
        <path id="Trazado_6320" data-name="Trazado 6320" d="M2812.9,415.578a4.231,4.231,0,1,0,0-8.462h0a4.231,4.231,0,0,0,0,8.462Zm0-5.642a1.412,1.412,0,0,1,.005,2.824h-.005v0a1.41,1.41,0,1,1,0-2.821Z" transform="translate(2.917 1.75)" fill="#0b2d4e"/>
      </g>
    </g>
  </g>
</svg>
