<?xml version="1.0" encoding="utf-8"?>
<!-- Generator: Adobe Illustrator 22.1.0, SVG Export Plug-In . SVG Version: 6.00 Build 0)  -->
<svg version="1.1" id="Layer_1" xmlns="http://www.w3.org/2000/svg" xmlns:xlink="http://www.w3.org/1999/xlink" x="0px" y="0px"
	 width="489.6px" height="364.7px" viewBox="0 0 489.6 364.7" style="enable-background:new 0 0 489.6 364.7;" xml:space="preserve"
	>
<style type="text/css">
	.st0{fill:#575BA1;}
	.st1{fill:#DCE1F1;}
	.st2{fill:#C4541C;}
	.st3{fill:#CBD0E6;}
	.st4{fill:#272253;}
	.st5{fill:#2F2C60;}
	.st6{fill:#373482;}
	.st7{fill:#945C2E;}
	.st8{fill:#A36D3C;}
	.st9{fill:#D1872B;}
	.st10{fill:#CDD2EA;}
	.st11{opacity:0.2;fill:#A1431F;enable-background:new    ;}
	.st12{fill:#94C9FF;}
	.st13{fill:#FFFFFF;}
	.st14{fill:#DCABB0;}
	.st15{fill:#575BA3;}
	.st16{fill:#CB7F83;}
</style>
<g>
	<rect x="114.9" y="46.8" class="st0" width="217.9" height="317.9"/>
	<rect x="128.8" y="61.7" class="st1" width="190.2" height="284.5"/>
	<rect x="171.6" y="46.8" class="st2" width="104.6" height="18.8"/>
	<g>
		<g>
			<path class="st3" d="M174.5,192.8h-31.1v-31.1h31.1V192.8z M145.9,190.2h25.9v-25.9h-25.9V190.2z"/>
		</g>
		<g>
			<path class="st3" d="M303.5,172.6H197.4c-1,0-1.9-0.9-1.9-1.9l0,0c0-1,0.9-1.9,1.9-1.9h106.1c1,0,1.9,0.9,1.9,1.9l0,0
				C305.4,171.7,304.5,172.6,303.5,172.6z"/>
			<path class="st3" d="M303.5,179.2H197.4c-1,0-1.9-0.9-1.9-1.9l0,0c0-1,0.9-1.9,1.9-1.9h106.1c1,0,1.9,0.9,1.9,1.9l0,0
				C305.4,178.3,304.5,179.2,303.5,179.2z"/>
			<path class="st3" d="M267.6,185.8h-70.3c-1,0-1.9-0.9-1.9-1.9l0,0c0-1,0.9-1.9,1.9-1.9h70.3c1,0,1.9,0.9,1.9,1.9l0,0
				C269.5,185,268.7,185.8,267.6,185.8z"/>
		</g>
		<path class="st2" d="M150.3,167.7c0,0,5.1,11.1,7.1,18.2c0,0,8.6-24.7,17-31.1c0,0-14.4,11.1-17.5,18.6L150.3,167.7z"/>
	</g>
	<g>
		<g>
			<path class="st3" d="M174.5,127h-31.1V95.9h31.1V127z M145.9,124.4h25.9V98.5h-25.9V124.4z"/>
		</g>
		<g>
			<path class="st3" d="M303.5,106.7H197.4c-1,0-1.9-0.9-1.9-1.9l0,0c0-1,0.9-1.9,1.9-1.9h106.1c1,0,1.9,0.9,1.9,1.9l0,0
				C305.4,105.8,304.5,106.7,303.5,106.7z"/>
			<path class="st3" d="M303.5,113.3H197.4c-1,0-1.9-0.9-1.9-1.9l0,0c0-1,0.9-1.9,1.9-1.9h106.1c1,0,1.9,0.9,1.9,1.9l0,0
				C305.4,112.5,304.5,113.3,303.5,113.3z"/>
			<path class="st3" d="M267.6,120h-70.3c-1,0-1.9-0.9-1.9-1.9l0,0c0-1,0.9-1.9,1.9-1.9h70.3c1,0,1.9,0.9,1.9,1.9l0,0
				C269.5,119.1,268.7,120,267.6,120z"/>
		</g>
		<path class="st2" d="M150.3,101.8c0,0,5.1,11.1,7.1,18.2c0,0,8.6-24.7,17-31.1c0,0-14.4,11.1-17.5,18.6L150.3,101.8z"/>
	</g>
	<g>
		<g>
			<path class="st3" d="M303.5,233.7H197.4c-1,0-1.9-0.9-1.9-1.9l0,0c0-1,0.9-1.9,1.9-1.9h106.1c1,0,1.9,0.9,1.9,1.9l0,0
				C305.4,232.8,304.5,233.7,303.5,233.7z"/>
			<path class="st3" d="M303.5,240.3H197.4c-1,0-1.9-0.9-1.9-1.9l0,0c0-1,0.9-1.9,1.9-1.9h106.1c1,0,1.9,0.9,1.9,1.9l0,0
				C305.4,239.4,304.5,240.3,303.5,240.3z"/>
			<path class="st3" d="M267.6,246.9h-70.3c-1,0-1.9-0.9-1.9-1.9l0,0c0-1,0.9-1.9,1.9-1.9h70.3c1,0,1.9,0.9,1.9,1.9l0,0
				C269.5,246.1,268.7,246.9,267.6,246.9z"/>
		</g>
		<g>
			<g>
				<path class="st3" d="M174.5,258.4h-31.1v-31.1h31.1V258.4z M145.9,255.7h25.9v-25.9h-25.9V255.7z"/>
			</g>
			<path class="st2" d="M150.3,233.9c0,0,5.1,11.1,7.1,18.2c0,0,8.6-24.7,17-31.1c0,0-14.4,11.1-17.5,18.6L150.3,233.9z"/>
		</g>
	</g>
	<g>
		<g>
			<path class="st3" d="M174.5,324.2h-31.1v-31.1h31.1V324.2z M145.9,321.6h25.9v-25.9h-25.9V321.6z"/>
		</g>
		<g>
			<path class="st3" d="M303.5,299.5H197.4c-1,0-1.9-0.9-1.9-1.9l0,0c0-1,0.9-1.9,1.9-1.9h106.1c1,0,1.9,0.9,1.9,1.9l0,0
				C305.4,298.7,304.5,299.5,303.5,299.5z"/>
			<path class="st3" d="M303.5,306.1H197.4c-1,0-1.9-0.9-1.9-1.9l0,0c0-1,0.9-1.9,1.9-1.9h106.1c1,0,1.9,0.9,1.9,1.9l0,0
				C305.4,305.3,304.5,306.1,303.5,306.1z"/>
			<path class="st3" d="M267.6,312.8h-70.3c-1,0-1.9-0.9-1.9-1.9l0,0c0-1,0.9-1.9,1.9-1.9h70.3c1,0,1.9,0.9,1.9,1.9l0,0
				C269.5,311.9,268.7,312.8,267.6,312.8z"/>
		</g>
		<path class="st2" d="M150.3,299.7c0,0,5.1,11.1,7.1,18.2c0,0,8.6-24.7,17-31.1c0,0-14.4,11.1-17.5,18.6L150.3,299.7z"/>
	</g>
	<g>
		<path class="st4" d="M50.6,358.4l1.7,6.3h17.3C69.7,364.7,65.2,356.2,50.6,358.4z"/>
		<path class="st4" d="M14.1,358.4l1.7,6.3h17.3C33.1,364.7,28.7,356.2,14.1,358.4z"/>
		<path class="st5" d="M20.8,244.7c0,0-11.6,82.5-8,115.1H28l16-107.5L20.8,244.7z"/>
		<path class="st6" d="M51.6,251.7l14.3,108.2H49.8c0,0-36.4-100.2-29-115.1L51.6,251.7z"/>
		<g>
			<path class="st6" d="M243.7,175.4c-9.4-33.6-44.3-53.2-77.9-43.8c-32.1,9-51.4,41.2-44.9,73.4L1.5,238.4
				c-1.1,0.3-1.7,1.4-1.4,2.5l1.1,3.8c0.3,1.1,1.4,1.7,2.5,1.4l119.4-33.4c10.6,31.7,44.4,49.8,76.9,40.7
				C233.5,243.9,253.1,209,243.7,175.4z M198.4,247.4c-30.4,8.5-61.9-9.2-70.4-39.6s9.2-61.9,39.6-70.4s61.9,9.2,70.4,39.6
				S228.8,238.9,198.4,247.4z"/>
		</g>
		<path class="st4" d="M37.6,259.3c7.8,0,10.9-6,10.9-6c0,0.1-3.4,5.7-11.2,5.5v0.4C37.4,259.3,37.5,259.3,37.6,259.3z"/>
		<path class="st5" d="M58.2,356.7c-3.3-9.2-6.7-20.1-9.5-31.6c-0.4-1.8-0.9-3.6-1.3-5.4c-0.5-2-0.9-4-1.4-6c-0.2-0.7-0.1-1.5,0-2.3
			c0.1-0.7,0.1-1.5,0-2.1c-1.6-7.6-2.7-14.6-3.7-20.7c-0.3-1.6-0.5-3.2-0.7-4.7c-2.3-14-3.6-21.9-3.6-22l0,0c0,0.1,1.9,7.9,4.1,21.9
			c0.2,1.6,0.5,3.1,0.7,4.7c1,6.2,2.1,13.1,3.7,20.7c0.1,0.7,0.1,1.5,0,2.2c-0.1,0.8-0.1,1.5,0,2.1c0.4,2,0.9,4,1.4,6
			c0.4,1.8,0.9,3.6,1.3,5.4c2.8,11.5,5.9,22.6,9.2,31.7L58.2,356.7z"/>
		<path class="st7" d="M61,169.2c0,0-0.1,5.3-1.9,9.2c0,0-6.8-1.8-8.9-2.7c-1-0.4-3.3-2.5-3.3-2.5s3-4.7,3.9-10.7
			C51.7,156.3,61,169.2,61,169.2z"/>
		<path class="st8" d="M64.4,170.3c0,0-14.2,0.7-14.5-8.2s-2.3-14.8,6.8-15.6s11,2.5,11.8,5.5C69.2,155,68.1,169.9,64.4,170.3z"/>
		<path class="st7" d="M39.1,172.5c0,0-18.7,19.5-26.2,34.8c0,0,3.8,12,20.7,30c0,0,0.2-1.5,0.9-5.8c0.1-0.8-6.3-15.6-12-23.8
			c0,0,13.3-8.4,16.8-15.3C42.8,185.5,39.1,172.5,39.1,172.5z"/>
		<path class="st6" d="M50.1,163.9c0,0,6.7-12,18-12.8c0,0,5-2,5-4.7c0,0-16-4.7-21.8,0C42.5,153.5,50.1,163.9,50.1,163.9z"/>
		<path class="st7" d="M104.6,217.4c-2.1,0.4-1.3,0.6-4.3,1.1s-5.7,2.4-6.3,4.5l-22.4,0.6c1.8-8,1.6-38,0.4-40.5
			c-1.2-2.4-12.9-4.8-12.9-4.8l-2.9,14.1c0,0,3.6,35.5,6.9,38.9c3.4,3.3,34.3-5.3,34.3-5.3s6.5,0.6,8.7-6.2
			C106.1,219.8,106.8,217,104.6,217.4z"/>
		<path class="st9" d="M34.1,172.5c0,0-21,27.8-22.6,34.8c0,0,0.7,1.9,5.2,8.1l7.9-4.3c0,0-1.3-2.7-1.6-3.1c0,0-0.2-0.2,0.7-0.6
			c0.9-0.5,5.3-3.5,5.3-3.5L34.1,172.5z"/>
		<path class="st10" d="M34.1,172.5c0,0-21,27.8-22.6,34.8c0,0,1.4,2.9,5.2,8.1l7.9-4.3c0,0-1.3-2.7-1.6-3.1c0,0-0.2-0.2,0.7-0.6
			c0.9-0.5,5.3-3.5,5.3-3.5L34.1,172.5z"/>
		<path class="st1" d="M20.8,244.7c2.7,5.4,31.9,7.8,33.7,6.8c1.8-1,0.5-7.8,0.8-10.7c0.6-6.3,3.7-13.5,4.4-15.8
			c0.1-0.3,0.1-0.4,0.1-0.4c0.1,2.9,3.7,8,3.7,8c7,0.7,19.6-2.6,19.6-2.6c0-0.3-0.1-0.6-0.1-0.8c-0.3-3.4,0.7-6.1,0.7-6.1
			c-1.1-0.1-8.4,0-10.4,0c-0.3,0-0.5-0.2-0.5-0.5l1.1-11c2.5-22.1-1.8-30-1.8-30c-3.4-2.7-12.7-4.8-12.7-4.8
			c-7.6-0.5-12.6-3.7-12.6-3.7s-11-1.2-12.9-0.6c-1.9,0.6-5.4,22.8-6.3,31.5c-0.8,8.7-5.8,30.2-7,33.4
			C19.1,242.3,20.4,243.9,20.8,244.7z"/>
		<path class="st11" d="M59.9,224.6c0.1,2.9,3.7,8,3.7,8c7,0.7,19.6-2.6,19.6-2.6c0-0.3-0.1-0.6-0.1-0.8c-2.3,0.3-16.2,1.7-17.8,0.7
			c0,0-5.6-5.1-6.2-32.6L59.9,224.6z"/>
	</g>
	<g>
		<path class="st0" d="M270.7,94.4c0,0,87.1-15.6,150.2,0.2c0,0,17,141.2-75,180.3C345.9,274.8,255.5,241.5,270.7,94.4z"/>
		<path class="st12" d="M280.7,103.4c0,0,79.9-10.2,128.6,0c0,0,16.3,114.7-62.6,157.1C346.8,260.5,274.6,240.1,280.7,103.4z"/>
		<polygon class="st13" points="379.8,152.9 355.9,152.9 355.9,129.6 334,129.6 334,152.9 311.2,152.9 311.2,174.8 334,174.8 
			334,198.2 355.9,198.2 355.9,174.8 379.8,174.8 		"/>
	</g>
	<g id="scientist_2_1_">
		<path class="st2" d="M431,201.9c3.8-3.8,3.3-33.2,3.4-35c0.1-5.2,2.1-7.4,2.1-7.4c6.6-3.9,17.4-4.2,21.5,6.3
			c2.6,6.7,9.4,19.8,9.4,19.8C495,224,484,242.9,484,242.9l-1.2-0.1c0.4-1.3,0.7-3,0.3-3.8l-1.1,3.8l-20.4-2.6
			c-0.2-3.9-1.7-10-1.7-10l-0.1,10.4l-2.7,0.1c1.1-21.9-3.6-32.6-4.9-35.3c1.2,12.2-4.7,32-4.7,32l-0.8-0.2l1.9-9.9l-2.4,9.8
			l-2.4-0.5c0.4-1.3,0.7-2.6,1-3.9c-0.7,2.4-1,3.9-1,3.9c-5.1-5.5-14.4-5-14.4-5C424.3,224.3,431,201.9,431,201.9z"/>
		<polygon class="st14" points="428.8,349.5 422.9,361.3 418,359.5 419.1,347.4 		"/>
		<path class="st2" d="M425,359.3l-1.6,5.4h-16.1C407.2,364.7,411.4,357.5,425,359.3z"/>
		<path class="st6" d="M429.3,246.2l-12.7,104.1h13.5c0,0,17.6-45,20.1-91.9C451.2,240.4,429.3,246.2,429.3,246.2z"/>
		<polygon class="st14" points="461.8,350.4 459,360.1 453.9,359.5 452.7,344.7 		"/>
		<path class="st2" d="M459.5,359.3l-1.6,5.4h-16.1C441.8,364.7,445.9,357.5,459.5,359.3z"/>
		<path class="st15" d="M446.7,247.6h10l10.7-1.5c0,0,6.9,15,3.3,59.3c-1.8,22.5-8.5,46.5-8.5,46.5l-13.8-0.3l-6-82.7
			c-0.2-2.3-2.8-3.1-2.8-3.1l0.4-18.5L446.7,247.6z"/>
		<g>
			<path class="st6" d="M457.3,349.9c1.9-10,3.5-21.9,4.5-34.2c0.2-1.9,0.3-3.8,0.5-5.8c0.2-2.1,0.3-4.3,0.4-6.5
				c0-0.7-0.1-1.6-0.3-2.4c-0.2-0.8-0.3-1.6-0.3-2.2c0.4-8.1,0.5-15.6,0.5-22.2c0-1.7,0-3.4,0-5.1c0.1-15,0.2-23.4,0.2-23.5l0,0
				c0,0.1-0.6,8.5-0.7,23.5c0,1.7,0,3.3,0,5.1c0,6.6,0,14-0.5,22.1c0,0.7,0.1,1.5,0.3,2.3c0.2,0.8,0.4,1.6,0.3,2.3
				c-0.1,2.1-0.3,4.3-0.4,6.5c-0.1,1.9-0.3,3.9-0.5,5.8c-1.1,12.4-2.3,24.3-4.2,34.3L457.3,349.9z"/>
		</g>
		<path class="st16" d="M442.7,179.4c0,0,1.6,9.2-4.1,13.5c0,0,2.5,5.3,4.1,6.2c1.8,0.9,6.7,0.9,8.3-0.4c1.6-1.4,3.1-8,3.1-8
			s-1.3-5.7-1-14.5L442.7,179.4z"/>
		<path class="st14" d="M440.7,182c0,0,12.6,0.6,12.8-7.3c0.2-7.9,2-13.1-6-13.8s-9.7,2.3-10.4,4.9
			C436.4,168.4,437.5,181.6,440.7,182z"/>
		<path class="st15" d="M429.3,246.2c0,0,1.7,1.4,18.4,2.2c1.1,0.1,2.1,0.1,3.1,0.1c6,0.1,10-0.3,12.7-0.8c3.6-0.7,4.7-1.6,4.7-1.6
			s-5.2-12.6-5.2-18.6c0-4.1-9.3-37.6-9.3-37.6c-1.1,3-4,5.6-7.3,5.6c-8.5,0.1-5.2-5.6-5.2-5.6l-9.5,3.8c0,0,1.2,3.5,0.7,7
			c-0.1,0.9-0.3,1.8-0.7,2.6c-0.1,0.2-0.2,0.4-0.3,0.5c-2.3,3.9-0.7,10.8,1,18.7C434,230.4,429.3,246.2,429.3,246.2z"/>
		<path class="st14" d="M431.6,193.7c0,0-10.1,16.9-15,29.7c0,0-12.1-5-19.1-8c-0.4-0.2-0.7-0.3-1.1-0.4l-2.3-1c0,0-0.5-5.3-6.3-5.9
			c0,0-2.4-0.1-1.7,1.6c0.7,1.6,0.6,0.9,1.6,3.3c0.9,2.3,2.8,4.2,4.6,4.4c0,0,0.8,0.6,2.1,1.6l0,0c0.4,0.3,0.8,0.6,1.3,1
			c5.8,4.3,17.4,12.4,21,12c4.9-0.5,18.7-20.4,18.7-20.4L431.6,193.7z"/>
		<path class="st1" d="M408.1,228.7c0,0,6.6,3.3,7.9,3.3s4.9-1.7,8.6-6.2c1.6-1.9,4-5,6.2-7.8c2.8-3.7,5.2-7,5.2-7.1
			c-0.1-0.2-1.4-18.5-1.4-18.5s-3.1,0.9-3.3,1.1c-0.2,0.2-12.5,22.2-14.7,28.7l-7.3-2.2L408.1,228.7z"/>
		<path class="st1" d="M443.1,219l-1.6,70.4h-18c0,0,3.9-39.9,5.8-52.4c2.2-14.3,2-43.4,2-43.4s7.4-3,7.9-2.9S443.1,219,443.1,219z"
			/>
		<path class="st10" d="M441.2,189.9c0,0,3,23.3,1.9,29.1l-4.7-15.7l1.1-1.9l-1.9-0.6l1.2-9.9C438.7,190.9,439.5,189.9,441.2,189.9z
			"/>
		<path class="st1" d="M444.8,219.8v69.7c0,0,11.4-0.2,20.3-0.5c5.6-0.2,10.1-0.4,10.1-0.6c0-0.5-3.1-29-8.9-49.6
			c-1.3-4.6-1.7-9.4-1.3-14.1c0.4-4.7,1-10.1,1.7-12.6c0,0,0,0,0-0.1c0,0,10.8,8.7,10.5,9.1c-0.3,0.4-2.9,7.7-2.9,7.7
			s5.1,3.7,6.1,4.2c0,0,9.4-12.7,8.1-14.7c0,0-16.4-27.9-20.2-26.7c-1.1,0.3-12.1-0.7-12.1-0.7L444.8,219.8z"/>
		<path class="st10" d="M454.1,190.7c-0.5,0.5-9.3,29.1-9.3,29.1s8.1-13.8,8.7-14.1l-0.9-1.7l1.9-1l1.8-12.3
			C456.3,190.7,454.8,189.9,454.1,190.7z"/>
		<path class="st2" d="M437.3,162.8c0,0,15.5,11.9,14.1,20.7c-1.3,8.3,1.2,9,3,9.8c4.7,2,12.3-2,14.7-1.9c1.7,0.1-4.2-1.7-7-5.4
			c-7.5-10-6.8-23.6-8.3-24.5C443.5,154.8,437.3,162.8,437.3,162.8z"/>
		<path class="st10" d="M408,219.1c0,0-1.3,8.4-1.9,9.8l2.3,1.2c0,0,1.4-8.7,1-10.3L408,219.1z"/>
		<path class="st10" d="M459.9,249c1.2,4.6,4,29.2,5.1,39.9c5.6-0.2,10.1-0.4,10.1-0.6c0-0.5-3.1-29-8.9-49.6
			c-1.3-4.6-1.7-9.4-1.3-14.1c0.4-4.7,1-10.1,1.7-12.6c-0.8-0.7-1.7-1.1-2.2-0.7C463.3,212.3,458.4,243.1,459.9,249z"/>
		<path class="st14" d="M474.3,228.7c-0.2,0.9-5,9.6-6,11.2c-0.1,0.2-0.1,0.3-0.1,0.3l-0.9,0.7c0,0-4-3.5-8.7,0c0,0-1.8,1.6-0.2,2.3
			c1.6,0.7,1.1,0.2,3.4,1.3s4.9,1.1,6.3,0.1l1.6-1.2c0.3-0.2,0.8-0.7,1.4-1.2c3-2.9,9.3-9.2,9.3-9.2L474.3,228.7z"/>
		<path class="st10" d="M408.1,228.7c0,0,6.6,3.3,7.9,3.3s4.9-1.7,8.6-6.2c1.6-1.9,4-5,6.2-7.8c0.3-1.5,0.4-3.1-0.6-3.3
			c-1.8-0.2-11.7,14.8-14.1,14.7C413.6,229.4,408.1,228.7,408.1,228.7z"/>
		<path class="st10" d="M474.5,228.3l7,4.4c0,0-0.9,1-0.9,0.9s-6.3-4.6-6.3-4.6L474.5,228.3z"/>
	</g>
</g>
</svg>
